<?xml version="1.0" encoding="UTF-8"?>
<svg id="Layer_2" data-name="Layer 2" xmlns="http://www.w3.org/2000/svg" viewBox="0 0 53.24 78.47">
  <defs>
    <style>
      .cls-1 {
        fill: #fff;
      }
    </style>
  </defs>
  <g id="text_extra" data-name="text extra">
    <g>
      <path class="cls-1" d="M10.29,35.14c5.12-1.67,7.69-2.93,12.81-3.81v5.03C13.86,38.07,9.24,42.81,0,42.97c4.78-6.52,7.16-11.66,11.94-19.57,1.17-1.97,2.16-3.6,2.95-4.94.79-1.34,1.4-2.41,1.82-3.26.85-1.66,1.27-3.06,1.27-4.27,0-1.74-.56-3.15-1.69-4.28-1.13-1.13-2.53-1.68-4.19-1.63-3.48.09-5.47,2.39-5.97,7.44-2.07.12-3.1.16-5.17.14C1.79,3.52,5.45,0,11.94,0,15.07,0,17.7,1.02,19.83,3.05c2.13,2.04,3.21,4.57,3.21,7.64,0,1.95-.5,3.88-1.49,5.88-.51,1.04-1.24,2.31-2.22,3.86-.97,1.56-2.2,3.47-3.69,5.84-2.14,3.41-3.21,5.25-5.35,8.87Z"/>
      <path class="cls-1" d="M28.96,17.99c0-5.56,1.29-10.05,3.83-13.41C35.08,1.55,37.85,0,41.1,0s6.02,1.58,8.31,4.21c2.54,2.92,3.83,6.39,3.83,10.36s-1.29,7.08-3.83,10.39c-2.29,2.98-5.05,5.53-8.29,6.98-3.24,1.45-6.02,1.23-8.33-1.05-2.55-2.51-3.83-7.06-3.83-12.9ZM34.06,17.4c0,3.66.66,6.59,1.98,8.53,1.31,1.91,3.01,2.39,5.06,1.56,2.03-.82,3.72-2.6,5.06-4.99,1.33-2.38,2-4.8,2-7.6s-.67-5.15-2-7.18c-1.33-2.01-3.02-3.16-5.06-3.09-2.02.06-3.7,1.31-5.03,3.77-1.33,2.45-2.01,5.49-2.01,9Z"/>
      <path class="cls-1" d="M10.29,73.17c5.12-.16,7.69-.31,12.81-.33v5.04c-9.24,0-13.86.05-23.1.01,4.78-5.84,7.16-7.71,11.94-13.46,1.17-1.43,2.16-2.73,2.95-3.84.79-1.11,1.4-2.07,1.82-2.83.85-1.49,1.27-2.8,1.27-3.87,0-1.54-.56-2.71-1.69-3.39-1.13-.68-2.53-.7-4.19-.12-3.48,1.21-5.47,3.61-5.97,7.06-2.07.42-3.1.58-5.17.69.83-5.67,4.49-9.69,10.98-12.19,3.13-1.2,5.76-1.22,7.89.18,2.13,1.41,3.21,3.79,3.21,6.77,0,1.89-.5,3.81-1.49,5.72-.51.99-1.24,2.19-2.22,3.56-.97,1.37-2.2,2.98-3.69,4.77-2.14,2.58-3.21,3.8-5.35,6.23Z"/>
      <path class="cls-1" d="M44.93,34.99c1.52.64,2.29,1.02,3.81,1.97-3.29,6.06-4.93,9.74-8.22,16.02.45-.2.82-.36,1.14-.48.31-.12.56-.21.74-.26,2.79-.77,5.2.04,7.24,2.65,2.01,2.58,3.03,6.1,3.03,9.97,0,4.1-1.13,7.36-3.39,9.93-2.24,2.55-4.94,3.68-8.09,3.68s-5.87-1.12-8.2-3.39c-2.3-2.24-3.45-4.96-3.45-8.12,0-2.83,1.12-5.81,3.36-9.51,4.81-7.94,7.22-13.44,12.03-22.45ZM47.61,65.43c0-2.3-.63-4.27-1.89-5.7-1.28-1.44-2.81-1.93-4.61-1.55-1.81.38-3.35,1.46-4.61,3.1-1.26,1.64-1.89,3.38-1.89,5.35s.63,3.56,1.89,4.88c1.26,1.31,2.81,1.95,4.63,1.89,1.78-.06,3.3-.8,4.57-2.33,1.28-1.56,1.92-3.44,1.92-5.63Z"/>
    </g>
  </g>
</svg>