<?xml version="1.0" encoding="UTF-8"?>
<svg id="Layer_2" data-name="Layer 2" xmlns="http://www.w3.org/2000/svg" viewBox="0 0 19.52 39.04">
  <defs>
    <style>
      .cls-1 {
        fill: #663996;
      }

      .cls-2 {
        fill: #cf1a8c;
      }

      .cls-3 {
        fill: #fff;
        opacity: .8;
      }

      .cls-4 {
        fill: #da2228;
      }

      .cls-5 {
        fill: #f1f7fc;
      }

      .cls-6 {
        fill: #f68b22;
      }
    </style>
  </defs>
  <g id="text_extra" data-name="text extra">
    <g>
      <path class="cls-5" d="M19.52,19.52C19.52,10.25,15.39,2.43,9.76,0,4.12,2.43,0,10.25,0,19.52s4.12,17.09,9.76,19.52c5.63-2.43,9.76-10.25,9.76-19.52Z"/>
      <ellipse class="cls-6" cx="9.76" cy="19.52" rx="8.91" ry="10.36"/>
      <ellipse class="cls-4" cx="9.76" cy="19.52" rx="7.87" ry="9.16"/>
      <ellipse class="cls-2" cx="9.76" cy="19.52" rx="6.9" ry="8.02"/>
      <ellipse class="cls-1" cx="9.76" cy="19.52" rx="5.33" ry="6.2"/>
      <polygon class="cls-3" points="10.39 24.16 12.13 23.16 13.87 24.16 13.87 26.17 12.13 27.17 10.39 26.17 10.39 24.16"/>
      <g>
        <ellipse class="cls-6" cx="9.76" cy="19.52" rx="8.91" ry="10.36"/>
        <ellipse class="cls-4" cx="9.76" cy="19.52" rx="7.87" ry="9.16"/>
        <ellipse class="cls-2" cx="9.76" cy="19.52" rx="6.9" ry="8.02"/>
        <ellipse class="cls-1" cx="9.76" cy="19.52" rx="5.33" ry="6.2"/>
        <polygon class="cls-3" points="10.39 24.16 12.13 23.16 13.87 24.16 13.87 26.17 12.13 27.17 10.39 26.17 10.39 24.16"/>
      </g>
    </g>
  </g>
</svg>