<?xml version="1.0" encoding="UTF-8"?>
<svg id="Layer_2" data-name="Layer 2" xmlns="http://www.w3.org/2000/svg" viewBox="0 0 118.08 167.76">
  <defs>
    <style>
      .cls-1 {
        fill: #fff;
      }

      .cls-1, .cls-2 {
        fill-rule: evenodd;
      }

      .cls-3, .cls-2 {
        fill: #231f20;
      }
    </style>
  </defs>
  <g id="Foreground">
    <g>
      <path class="cls-1" d="M98.57,99.72c.22-.22.36-.58.58-.94.58-1.01,1.01-2.38,1.8-3.89.72-1.37,1.15-2.09,1.73-3.24-.72.29-1.44.22-2.23.07-.72-.14-1.37-.43-1.87-.94v8.93h0ZM98.57,89.71v-3.89c.36,0,.72.07,1.08.14,1.01.14,2.02.43,2.81,1.08,1.22,1.08,1.44,2.16,1.01,3.1-.43.94-1.73,1.15-2.88.86-.94-.14-1.58-.58-2.02-1.3h0ZM98.57,82.37v-10.22c.36.29.65.5.86.72,2.16,1.87,1.58,5.47-.86,9.5ZM96.41,99.36c-.07.5.5,1.08,1.01,1.01.43-.07.79-.29,1.15-.65v-8.93c-.14-.07-.29-.22-.36-.36l-1.8,8.93h0ZM98.57,72.14v10.22c-2.81,4.68-8.06,9.94-14.26,13.9-.5.29-.94.58-1.37.86v-10.44c7.99-5.98,12.38-13.68,10.66-17.86,1.58,1.01,3.67,2.38,4.97,3.31h0ZM98.57,85.82v3.89c-.07-.14-.14-.29-.22-.43l-.5-.94-1.08,5.47c-1.08-.07-1.94-.22-3.24-.58-1.15-.29-2.02-.58-2.81-.86,2.45-2.16,4.68-4.46,6.48-6.77.36.07.86.14,1.37.22h0ZM82.94,85.9c2.09-1.66,3.74-3.31,4.97-4.68-1.15-1.37-2.66-3.46-3.1-4.9-.65-1.8-.86-3.24-.58-4.82-.43.58-.86,1.15-1.3,1.66v12.74ZM82.94,73.15v12.74c-.36.29-.65.5-1.01.79-.14-.22-.43-.58-.72-.94-.5-.72-1.08-1.66-1.66-2.74-.79-1.58-1.22-2.95-1.58-4.82,1.44-1.3,3.31-3.24,3.31-3.24,0,0,.72-.79,1.66-1.8h0ZM82.94,86.69c-6.26,4.68-14.62,8.28-23.9,8.35-9.29-.07-17.71-3.74-23.9-8.5v10.51c7.99,4.82,15.91,6.41,23.9,6.34,8.06.07,15.91-1.51,23.9-6.26v-10.44h0ZM35.14,85.75v-12.6c.86,1.01,1.58,1.8,1.58,1.8,0,0,1.94,2.02,3.38,3.38-.36,1.87-.79,3.1-1.58,4.68-.58,1.08-1.22,2.02-1.73,2.74-.22.36-.5.65-.65.79-.36-.29-.72-.5-1.01-.79ZM35.14,73.15v12.6c-.07,0-.14-.07-.14-.07-1.87-1.51-3.53-3.1-4.9-4.68,1.3-1.22,2.74-3.24,3.17-4.68.65-1.8.86-3.24.5-4.82.5.58.94,1.15,1.37,1.66h0ZM35.14,86.54c-7.92-5.98-12.31-13.61-10.58-17.71-1.58,1.08-3.74,2.45-4.97,3.38v10.15c2.81,4.61,7.99,9.94,14.26,13.9.43.29.86.58,1.3.79v-10.51h0ZM19.58,99.79v-9c.07-.14.22-.22.29-.36l1.8,8.93c.07.5-.58,1.08-1.01,1.01-.43-.07-.79-.22-1.08-.58h0ZM19.58,89.64v-3.82c.5-.07,1.01-.14,1.37-.22.94,1.15,1.87,2.3,2.95,3.46.86.86,1.73,1.73,2.66,2.59l.79.72c-.79.29-1.66.58-2.81.86-1.3.36-2.16.5-3.24.58l-1.08-5.47-.5.94c-.07.14-.07.22-.14.36ZM19.58,72.22v10.15c-2.45-4.1-3.02-7.63-.86-9.5.14-.14.5-.43.86-.65h0ZM19.58,85.82v3.82c-.5.79-1.15,1.22-2.09,1.37-1.15.29-2.45.07-2.88-.86-.43-.94-.22-2.02,1.01-3.1.79-.65,1.8-.94,2.81-1.08.36-.07.79-.14,1.15-.14h0ZM19.58,90.79c-.58.5-1.22.79-1.94.94-.79.14-1.51.22-2.23-.07.58,1.15,1.01,1.87,1.73,3.24.72,1.51,1.22,2.88,1.8,3.89.22.36.43.72.65,1.01v-9Z"/>
      <polygon class="cls-2" points="32.4 93.53 32.26 90.36 35.14 89.71 34.2 88.99 31.82 89.64 31.82 89.64 32.98 88.06 32.18 87.48 29.38 91.22 30.17 91.8 31.39 90.22 31.39 90.22 31.46 92.81 32.4 93.53"/>
      <path class="cls-2" d="M38.38,94.54c.36-.58.5-1.22.36-1.8-.14-.58-.5-1.15-1.22-1.51-.36-.29-.79-.43-1.22-.43v.86c.29,0,.58.07.86.22.65.43.86,1.22.36,2.09-.36.58-.79.86-1.22.94v.79c.21.07.43,0,.65,0,.58-.22,1.08-.58,1.44-1.15ZM36.29,90.79c-.22,0-.43.07-.58.07-.65.14-1.15.58-1.51,1.15-.36.65-.5,1.37-.29,1.94.14.58.58,1.01,1.15,1.37.43.29.79.36,1.22.36v-.79c-.29,0-.58-.07-.86-.22-.65-.43-.86-1.22-.36-2.16.36-.5.79-.79,1.22-.86v-.86Z"/>
      <polygon class="cls-2" points="46.3 95.18 42.62 93.89 42.34 94.61 43.63 95.11 42.34 98.78 43.27 99.14 44.57 95.47 45.79 95.9 46.3 95.18"/>
      <polygon class="cls-2" points="49.03 100.8 49.25 100.08 47.52 99.58 47.88 98.42 49.32 98.78 49.54 98.06 48.02 97.63 48.31 96.55 49.82 96.98 50.26 96.26 47.59 95.54 46.37 100.08 49.03 100.8"/>
      <polygon class="cls-2" points="57.38 97.27 53.57 96.84 53.5 97.63 54.86 97.78 54.43 101.66 55.44 101.81 55.8 97.92 57.1 98.06 57.38 97.27"/>
      <path class="cls-2" d="M62.71,101.88l-2.02-4.68h-.36v1.3c0,.14.07.36.14.58l.36.86-.5.07v.79l.79-.07.5,1.15h1.08ZM60.34,97.2h-.43l-1.73,4.75h.94l.43-1.15h.79v-.79h-.5l.29-.94c.07-.22.14-.43.22-.58h0v-1.3Z"/>
      <path class="cls-2" d="M68.76,101.02l-.72-4.61-1.01.14.43,2.38c0,.14.07.5.14.72h-.07c-.14-.22-.29-.36-.5-.58l-2.38-2.16-.94.14.72,4.68.94-.14-.36-2.59c-.07-.22-.07-.5-.14-.65h0c.21.22.36.36.58.58l2.45,2.23.86-.14Z"/>
      <path class="cls-2" d="M74.81,98.93l-.58-1.94-.94.29.5,1.51c-.14.14-.43.22-.65.29-.94.29-1.73-.22-2.02-1.08-.22-.79,0-1.73,1.22-2.09.43-.14.86-.14,1.3,0l-.22-.86c-.43,0-.86,0-1.44.14-1.58.5-2.23,1.87-1.87,3.17.43,1.22,1.58,2.02,3.02,1.58.72-.22,1.3-.65,1.66-1.01Z"/>
      <path class="cls-2" d="M80.64,96.77l-2.95-2.81v1.22l.5.58-.5.29v.86l1.15-.58.86.86.94-.43ZM77.69,93.96l-.79-.65-.65.29.36,5.04.86-.36-.14-1.22.36-.14v-.86l-.43.14-.07-1.01c0-.22,0-.43-.07-.58h0c.07.14.22.29.43.43l.14.14v-1.22Z"/>
      <polygon class="cls-2" points="82.22 90.29 78.98 92.38 79.42 93.02 80.57 92.3 82.66 95.62 83.45 95.11 81.43 91.8 82.51 91.08 82.22 90.29"/>
      <path class="cls-2" d="M88.92,91.08l-3.31-1.87v1.08l.65.36-.65.58v2.45l.5-.36-.36-1.22,1.22-1.01,1.08.65.86-.65ZM85.61,89.21l-1.15-.65-.58.43,1.44,4.9.29-.22v-2.45l-.14.07-.29-.94c-.07-.22-.14-.43-.22-.58h0c.14.14.29.22.5.36l.14.14v-1.08Z"/>
      <path class="cls-2" d="M99.58,97.92c.36-.86.79-1.94,1.37-3.02.72-1.37,1.15-2.09,1.73-3.24-.72.29-1.44.22-2.23.07-.29-.07-.58-.14-.86-.29v-.79c.29.22.65.29,1.01.36,1.15.29,2.45.07,2.88-.86.43-.94.22-2.02-1.01-3.1-.79-.65-1.8-.94-2.81-1.08,0,0-.07,0-.07-.07v-.72c.07.07.14.07.22.07,1.01.14,2.16.5,3.1,1.3,1.44,1.15,1.8,2.45,1.15,4.1-.86,1.8-1.51,2.74-2.45,4.61-.79,1.44-1.3,2.81-1.8,3.82-.07.14-.14.29-.22.43v-1.58h0ZM99.58,82.08v-1.58c1.51-3.17,1.66-5.98,0-7.56v-.94c.14.14.29.22.36.29,2.38,2.09,1.87,5.76-.36,9.79ZM96.41,99.36c-.07.5.5,1.08,1.01,1.01.72-.07,1.22-.58,1.73-1.58.14-.29.29-.58.43-.86v1.58c-.5.86-1.15,1.51-2.09,1.58-.86.07-1.94-.79-1.8-1.87l.94-4.68c-1.08-.07-1.94-.22-3.24-.58-1.37-.36-2.38-.72-3.24-1.08-1.08.86-2.16,1.73-3.24,2.52v-.86c5.83-4.25,10.51-9.58,12.67-14.04v1.58c-.58.94-1.22,1.94-1.94,2.88.58.07,1.22.14,1.94.22v.72c-.86-.07-1.73-.14-2.38-.29-1.8,2.3-4.03,4.61-6.48,6.77.79.29,1.66.58,2.81.86,1.3.36,2.16.5,3.24.58l1.08-5.47.5.94c.29.65.65,1.08,1.22,1.37v.79c-.58-.22-1.01-.58-1.37-1.01l-1.8,8.93h0ZM99.58,72c-1.73-1.3-7.13-4.75-7.27-4.9-.94-.65-1.73-.86-2.88-.79-1.01,0-1.87.36-2.52.94v8.71c.5-.22,1.15-.36,1.73-.29,1.01,0,2.02.36,2.52,1.08-.72,1.22-1.58,2.52-2.66,3.74-.58-.5-1.15-1.15-1.58-1.87v1.3c.29.5.65.94,1.01,1.3-.36.36-.65.72-1.01,1.15v1.01c4.97-4.9,7.7-10.3,6.91-13.75-.07-.29-.07-.5-.22-.79,2.16,1.37,4.97,3.24,5.83,4.03.07,0,.07.07.14.07v-.94ZM86.9,67.25v8.71c-.43.14-.79.43-1.08.72.29.65.65,1.3,1.08,1.94v1.3c-.94-1.15-1.8-2.52-2.09-3.6-.65-1.8-.86-3.24-.58-4.82-1.37,1.8-2.95,3.46-2.95,3.46,0,0-1.87,1.94-3.31,3.24.36,1.87.79,3.24,1.58,4.82.58,1.08,1.15,2.02,1.66,2.74.29.36.58.72.72.94,2.02-1.51,3.67-3.02,4.97-4.32v1.01c-6.41,6.19-16.42,11.59-27.86,11.66-11.38-.07-21.46-5.54-27.79-11.81v-1.01c1.08,1.15,2.38,2.3,3.74,3.46.36.29.72.58,1.15.86.14-.14.43-.43.65-.79.5-.72,1.15-1.66,1.73-2.74.79-1.58,1.22-2.81,1.58-4.68-1.44-1.37-3.38-3.38-3.38-3.38,0,0-1.51-1.66-2.95-3.46.36,1.58.14,3.02-.5,4.82-.29,1.01-1.08,2.38-2.02,3.46v-1.15c.43-.65.86-1.3,1.08-1.87-.22-.36-.65-.65-1.08-.86v-8.71c.58.5,1.08,1.15,1.51,1.87,1.58,2.23,4.46,5.4,4.46,5.4,0,0,2.09,2.16,3.53,3.46l.07.36c-.36,2.02-.79,3.38-1.66,5.04-.58,1.15-1.22,2.16-1.8,2.88-.22.29-.43.65-.58.86,5.76,4.1,13.39,7.27,22.25,7.27s16.56-3.17,22.32-7.27c-.14-.22-.43-.58-.72-.86-.5-.72-1.15-1.73-1.73-2.88-.86-1.66-1.3-3.02-1.66-5.04l.07-.36c1.44-1.3,3.53-3.46,3.53-3.46,0,0,2.88-3.17,4.46-5.4h.07c.43-.65.86-1.3,1.51-1.8h0ZM86.9,94.54c-.86.58-1.73,1.22-2.59,1.73-8.5,5.4-16.78,7.2-25.27,7.13-8.42.07-16.71-1.73-25.2-7.13-.86-.5-1.73-1.15-2.59-1.73v.86c.72.5,1.44,1.01,2.23,1.51,8.57,5.47,16.99,7.27,25.56,7.2,8.64.07,17.06-1.73,25.63-7.2.72-.5,1.51-1.01,2.23-1.51v-.86ZM31.25,67.18v8.71c-.5-.22-1.15-.29-1.73-.22-.94,0-1.94.36-2.45,1.01.72,1.22,1.58,2.52,2.59,3.74.58-.5,1.08-1.15,1.58-1.8v1.15c-.36.43-.72.86-1.15,1.22.36.36.79.79,1.15,1.22v1.01c-5.4-5.26-8.06-11.02-6.7-14.4-2.09,1.37-4.97,3.24-5.83,4.03-.07.07-.14.07-.22.14v-.94c1.58-1.22,5.98-4.1,7.56-5.11.86-.58,1.66-.72,2.66-.65,1.08,0,1.87.36,2.52.86h0ZM31.25,94.54c-5.9-4.32-10.66-9.72-12.74-14.18v1.58c.58,1.01,1.22,2.02,1.94,3.02-.58.07-1.22.14-1.94.22v.72c.94-.14,1.8-.14,2.45-.29.94,1.15,1.87,2.3,2.95,3.46.86.86,1.73,1.73,2.66,2.59l.79.72c-.79.29-1.66.58-2.81.86-1.3.36-2.16.5-3.24.58l-1.08-5.47-.5.94c-.29.65-.65,1.08-1.22,1.37v.79c.58-.22,1.01-.58,1.37-1.01l1.8,8.93c.07.5-.58,1.08-1.01,1.01-.72-.07-1.22-.58-1.73-1.58-.14-.29-.29-.58-.43-.86v1.58c.5.86,1.15,1.51,2.09,1.58.86.07,1.94-.79,1.73-1.87l-.86-4.68c1.08-.07,1.94-.22,3.24-.58,1.37-.36,2.38-.72,3.31-1.08,1.01.86,2.09,1.73,3.24,2.52v-.86ZM18.5,72.07v.94c-1.58,1.58-1.44,4.25,0,7.34v1.58c-2.23-3.96-2.66-7.56-.29-9.65.07-.07.22-.14.29-.22h0ZM18.5,85.18v.72c0,.07-.07.07-.07.07-1.01.14-2.02.43-2.81,1.08-1.22,1.08-1.44,2.16-1.01,3.1.43.94,1.73,1.15,2.88.86.36-.07.72-.14,1.01-.36v.79c-.29.14-.58.22-.86.29-.79.14-1.51.22-2.23-.07.58,1.15,1.01,1.87,1.73,3.24.58,1.08,1.01,2.16,1.37,3.02v1.58c-.07-.14-.14-.29-.21-.43-.5-1.01-1.01-2.38-1.8-3.82-.94-1.87-1.58-2.81-2.45-4.61-.65-1.66-.29-2.95,1.15-4.1.94-.79,2.09-1.15,3.1-1.3.07,0,.14,0,.21-.07Z"/>
      <path class="cls-1" d="M96.26.72v39.38s.14,3.53-1.22,9.07c-1.44,5.54-4.46,13.1-10.8,21.24-4.82,6.26-11.16,11.3-16.34,14.83-4.46,3.1-8.06,4.9-8.86,5.33-.79-.36-4.54-2.3-9.29-5.54-5.4-3.67-12.02-9.07-17.06-16.06-5.11-7.2-7.78-14.69-9.22-20.45-1.37-5.69-1.51-9.58-1.51-9.58V.72h74.3Z"/>
      <path class="cls-2" d="M30.67,9.43h56.95v30.31s0,10.73-8.57,23.26c-7.34,10.73-20.02,17.57-20.02,17.57,0,0-14.04-8.42-20.95-19.37-7.78-12.38-7.42-23.26-7.42-23.26V9.43Z"/>
      <path class="cls-2" d="M96.26.72h-37.15v-.72h37.87v40.1c0,.07.65,14.33-12.17,30.74-9.5,12.17-24.62,19.94-25.7,20.52v-.79c.86-.5,4.39-2.38,8.78-5.33,5.18-3.53,11.52-8.57,16.34-14.83,6.34-8.14,9.36-15.7,10.8-21.24,1.37-5.54,1.22-9.07,1.22-9.07V.72ZM59.11.72H21.96v38.23s.14,3.89,1.51,9.58c1.44,5.76,4.1,13.25,9.22,20.45,5.04,6.98,11.66,12.38,17.06,16.06,4.75,3.24,8.5,5.18,9.29,5.54h.07v.79h-.07s-4.32-2.02-9.72-5.76c-5.4-3.67-12.1-9.14-17.21-16.27-10.37-14.47-10.87-30.38-10.87-30.38V0h37.87v.72Z"/>
      <path class="cls-2" d="M92.88,4.32c.86,2.16,1.44,4.39,1.73,6.19.58,4.25-1.08,4.9-2.59,4.03v-4.82c.36.22.65.58.79.94-.14-.86-.22-1.22-.5-2.45-.07-.29-.14-.58-.29-.86v-3.38c.29.14.58.22.86.36h0ZM92.02,51.19v-3.89c1.58-5.4,1.3-10.87,1.3-10.87-.5.79-.94,1.44-1.3,2.02v-2.52c.79-1.22,1.66-2.52,2.52-4.39,0,0,.86,9-1.22,16.85-.36,1.37-.79,2.23-1.3,2.81h0ZM92.02,43.56c.14-.29.29-.72.36-1.08.07-.79-.07-1.22-.36-1.44v2.52h0ZM92.02,33.34c1.22-2.16,2.23-4.46,2.74-6.77.94-4.82-1.51-4.39-2.74-2.59v3.31c.5.07,1.08-.36,1.3-1.01-.43,1.51-.79,2.66-1.3,3.74v3.31h0ZM92.02,21.53v-5.18c1.51-.79,2.88,2.23,1.94,4.39-.65,1.44-1.44,1.37-1.94.79ZM92.02,14.54c-1.08-.65-2.09-2.02-2.16-3.31-.07-2.09,1.22-2.16,2.16-1.51v4.82h0ZM92.02,7.34c-.22-.58-.43-1.08-.58-1.58-.72-.29-1.58-.65-2.45-.86-1.22-.36-1.58-.36-2.45-.5,1.37.58,2.3,3.1-.58,2.88-3.17-.14-6.55-5.69.72-4.68,1.58.22,3.46.72,5.33,1.37v3.38h0ZM92.02,16.34v5.18c-.29-.36-.43-.86-.36-1.37-.58,1.73-.65,2.66-.86,4.61v7.56c.5-.79.94-1.51,1.22-2.3v3.31c-.79,1.37-1.73,2.74-2.66,4.03v-12.67c.14-2.02.22-3.1.79-5.04.58-2.02,1.22-3.02,1.87-3.31h0ZM92.02,23.98c-.29.5-.58,1.15-.58,1.8-.07.94.22,1.37.58,1.51v-3.31h0ZM92.02,35.93c-1.22,1.8-2.23,3.24-2.88,5.62-1.3,5.26,1.8,4.32,2.88,2.02v-2.52c-.43-.29-1.15.14-1.51.86.5-1.51.94-2.45,1.51-3.46v-2.52h0ZM92.02,47.3v3.89c-1.8,2.09-3.96-1.58-2.81-4.03,1.08-2.16,2.66-.43,2.52,1.08.14-.36.22-.65.29-.94h0ZM80.93,71.86v-3.1c.94-.36,1.94-.79,3.1-1.37,0,0-1.08,1.87-3.1,4.46h0ZM80.93,67.39c2.52-.86,4.9-2.09,6.48-4.25,3.6-5.04-.14-4.9-2.16-2.74-1.44,1.58.14,2.3,1.3,1.66-1.87,2.02-3.17,2.66-5.11,3.46,0,0,2.88-5.62,6.55-9.65-.94,1.15-.79,3.02,1.37,1.94,3.02-1.58,2.3-8.64-2.3-3.24-1.51,1.8-2.88,3.74-3.96,5.4-.79,1.15-1.51,2.23-2.16,3.24v4.18ZM80.93,63.22v4.18c-1.01.36-2.09.65-3.1.94.94-1.51,1.87-3.24,3.1-5.11h0ZM80.93,68.76v3.1c-2.02,2.45-4.9,5.62-8.71,8.35-5.76,4.1-5.33-1.66-2.23-3.24,2.16-1.08,2.3.86,1.3,1.94,5.18-2.88,8.78-8.28,8.78-8.28-2.38.79-3.74,1.08-5.9,2.52,1.08-.5,2.74.14,1.22,1.66-2.09,2.16-6.98,1.15-2.16-2.74,2.38-1.87,4.75-2.23,7.7-3.31h0ZM59.04,88.42h.07c2.16-.94,3.96-2.02,5.4-3.1,5.83-4.46-.58-6.12-2.88-3.82-1.94,2.02.22,2.88,1.87,2.23,0,0-1.15.86-2.3,1.51-.72.43-1.51.86-2.16,1.08v2.09h0ZM59.04,7.78v-2.02c2.81-1.58,5.83-2.81,9-3.38,6.91-1.3,4.25,3.17.79,3.38-2.45.14-1.87-1.58-.5-2.02-2.88.72-4.54,1.3-6.91,2.59h8.28c2.09-.07,4.61-.29,6.62-.94-1.66.29-3.17-1.3-.65-2.23,3.6-1.44,8.86,1.87,1.15,3.82-2.16.58-4.9.79-7.06.79h-10.73ZM59.04,4.32c1.22-.65,2.3-1.37,3.38-2.02h-3.38v2.02ZM59.04,2.3v2.02c-2.74,1.58-5.76,2.81-8.93,3.38-6.91,1.3-4.25-3.17-.79-3.38,2.38-.14,1.87,1.58.5,2.02,2.88-.72,4.46-1.3,6.91-2.59h-8.28c-2.16,0-4.61.29-6.62.94,1.58-.29,3.17,1.3.65,2.23-2.02.79-4.68.07-5.04-1.08v-.65c.22-.72,1.37-1.44,3.89-2.09,2.16-.58,4.82-.79,7.06-.79h10.66ZM59.04,5.76c-1.15.65-2.23,1.3-3.31,2.02h3.31v-2.02h0ZM59.04,86.33v2.09c-2.09-.94-3.96-2.02-5.4-3.1-5.83-4.46.58-6.12,2.81-3.82,2.02,2.02-.14,2.88-1.8,2.23,0,0,1.15.86,2.3,1.51.72.43,1.51.86,2.09,1.08h0ZM37.44,71.86c1.94,2.45,4.9,5.62,8.71,8.35,5.76,4.1,5.33-1.66,2.23-3.24-2.16-1.08-2.3.86-1.37,1.94-5.11-2.88-8.71-8.28-8.71-8.28,2.3.79,3.74,1.08,5.9,2.52-1.15-.5-2.74.14-1.22,1.66,2.09,2.16,6.98,1.15,2.09-2.74-2.38-1.87-4.68-2.23-7.63-3.31v3.1h0ZM37.44,67.39v-4.18c1.15,1.87,2.16,3.6,3.02,5.11-1.01-.29-2.02-.58-3.02-.94ZM37.44,5.18v.65c-.07-.22-.07-.43,0-.65h0ZM37.44,63.22v4.18c-2.59-.86-4.97-2.09-6.48-4.25-3.67-5.04.14-4.9,2.09-2.74,1.44,1.58-.14,2.3-1.22,1.66,1.87,2.02,3.17,2.66,5.11,3.46,0,0-2.88-5.62-6.55-9.65.94,1.15.79,3.02-1.37,1.94-3.1-1.58-2.3-8.64,2.23-3.24,1.58,1.8,2.88,3.74,4.03,5.4.79,1.15,1.51,2.23,2.16,3.24h0ZM37.44,68.76v3.1c-2.02-2.59-3.1-4.46-3.1-4.46,1.08.58,2.09,1.01,3.1,1.37h0ZM26.35,51.19c1.87,2.09,4.03-1.58,2.81-4.03-1.08-2.16-2.66-.43-2.52,1.08-.07-.36-.22-.65-.29-.94v3.89h0ZM26.35,43.56v-2.52c.43-.29,1.22.14,1.51.86-.5-1.51-.94-2.45-1.51-3.46v-2.52c1.22,1.8,2.3,3.24,2.88,5.62,1.37,5.26-1.8,4.32-2.88,2.02h0ZM26.35,33.34c.79,1.37,1.73,2.74,2.66,4.03v-12.67c-.07-2.02-.22-3.1-.72-5.04-.58-2.02-1.3-3.02-1.94-3.31v5.18c.29-.36.43-.86.36-1.37.65,1.73.72,2.66.86,4.61v7.56c-.5-.79-.86-1.51-1.22-2.3v3.31h0ZM26.35,27.29v-3.31c.36.5.58,1.15.65,1.8,0,.94-.29,1.37-.65,1.51h0ZM26.35,14.54v-4.82c.94-.65,2.3-.58,2.16,1.51-.07,1.3-1.08,2.66-2.16,3.31h0ZM26.35,7.34c.22-.58.43-1.08.65-1.58.65-.29,1.51-.65,2.38-.86,1.22-.36,1.66-.36,2.52-.5-1.37.58-2.3,3.1.5,2.88,3.24-.14,6.62-5.69-.72-4.68-1.51.22-3.46.72-5.33,1.37v3.38ZM26.35,3.96v3.38c-.07.29-.14.58-.22.86-.36,1.22-.43,1.58-.58,2.45.22-.36.5-.72.79-.94v4.82c-1.51.86-3.1.22-2.52-4.03.22-1.8.79-4.03,1.66-6.19.29-.14.58-.22.86-.36h0ZM26.35,16.34v5.18c-.5.58-1.3.65-1.87-.79-1.01-2.16.36-5.18,1.87-4.39h0ZM26.35,23.98c-1.22-1.8-3.67-2.23-2.66,2.59.43,2.3,1.44,4.61,2.66,6.77v-3.31c-.5-1.08-.86-2.23-1.3-3.74.22.65.86,1.08,1.3,1.01v-3.31h0ZM26.35,35.93v2.52c-.36-.58-.79-1.22-1.3-2.02,0,0-.22,5.47,1.3,10.87v3.89c-.43-.58-.86-1.44-1.22-2.81-2.16-7.85-1.3-16.85-1.3-16.85.86,1.87,1.73,3.17,2.52,4.39h0ZM26.35,41.04c-.29.22-.43.65-.29,1.44,0,.36.14.79.29,1.08v-2.52Z"/>
      <path class="cls-1" d="M88.49,70.99c.07.43.5.79.94.79.5,0,.94-.43.94-.94,0-.22-.07-.43-.22-.58-.14-.14-.36-.29-.5-.29-.65-.22-1.51.07-2.02.86-.65,1.08,0,2.59,1.22,3.1,1.37.5,3.96-.14,4.25-2.88.22-1.8-.43-2.95-1.66-3.6-1.51-.86-4.68-.5-5.33,2.38l.07.07c1.51-1.87,3.24-1.87,4.32-1.37,1.51.86,1.44,2.66.79,3.6-.65.86-1.58,1.01-2.38.5-.43-.29-.72-1.01-.43-1.66h0ZM29.66,70.99c-.07.43-.43.79-.86.79-.5,0-.94-.43-.94-.94,0-.22.07-.43.22-.58.14-.14.29-.29.5-.29.65-.22,1.51.07,2.02.86.65,1.08-.07,2.59-1.3,3.1-1.3.5-3.96-.14-4.25-2.88-.14-1.8.5-2.95,1.66-3.6,1.51-.86,4.75-.5,5.4,2.38l-.14.07c-1.44-1.87-3.24-1.87-4.25-1.37-1.51.86-1.44,2.66-.86,3.6.65.86,1.66,1.01,2.45.5.36-.29.65-1.01.36-1.66Z"/>
      <path class="cls-1" d="M63.43,73.37l-4.32-3.17-4.32,3.17,1.66-5.11-4.25-3.1h5.26l1.66-5.04,1.66,5.04h5.33l-4.32,3.1,1.66,5.11h0ZM62.57,21.67l-3.46-2.45-3.38,2.45,1.3-4.03-3.46-2.45h4.25l1.3-4.03,1.3,4.03h4.25l-3.38,2.45,1.3,4.03h0ZM84.46,43.78l-3.46-2.45-3.38,2.45,1.3-4.03-3.46-2.45h4.25l1.29-4.03,1.3,4.03h4.25l-3.38,2.45,1.3,4.03h0ZM40.54,43.78l-3.46-2.45-3.38,2.45,1.3-4.03-3.46-2.45h4.25l1.3-4.03,1.37,4.03h4.18l-3.38,2.45,1.3,4.03Z"/>
      <path class="cls-1" d="M44.21,29.81h1.08v24.41h12.1c.22,0,.36,0,.43-.07.29-.07.58-.29.94-.65.14-.14.29-.36.36-.5.14.14.22.36.36.5.36.36.72.58.94.65.14.07.22.07.5.07h12.02v-24.41h1.08v25.2h-12.46c.07.94-.86.86-2.45.86s-2.52.07-2.45-.86h-12.46v-25.2Z"/>
      <path class="cls-2" d="M71.35,51.26l.94,1.37v-24.55c-.22-.07-.58-.36-.94-.5h0v-.86c.07,0,.14.07.22.14.43.29,1.37.86,1.37.86v26.5h-1.58v-.72h.65l-.65-.94v-1.3ZM71.21,27.43c-.22-.07-.36-.22-.58-.36v23.18l.72,1.01v1.3l-1.22-1.8c-.43.07-1.01.07-1.58.07-1.01-.07-2.38-.22-3.67-.79q-.07-.07-.14-.07v-.86c.07.07.14.14.29.14,2.09,1.08,4.9.86,4.9.86v-23.76s-2.66.22-4.9-.72c-.14-.07-.22-.14-.29-.14v-.79c.14.07.29.14.43.22,1.15.5,2.45.72,3.46.72,1.01.07,1.87-.07,2.02-.07.07.22.14.65.72,1.15v.86l-.14-.14h0ZM71.35,53.5v.72h-6.62v-.72h6.62ZM64.73,24.7v.79c-.79-.43-1.51-1.15-3.31-1.01-1.44.07-1.94,1.01-1.94,1.01v23.4s.58-.58,2.02-.72c1.66-.07,2.45.5,3.24.94v.86c-.43-.22-.79-.5-1.3-.72-.43-.29-1.08-.43-2.09-.36-.72.07-1.22.36-1.51.65-.14.07-.22.22-.36.43v2.02c0,.14,0,.22.07.29,0,.14.14.36.43.72.36.36.65.43.79.5h3.96v.72h-3.82c-.29,0-.36,0-.5-.07-.22-.07-.58-.29-.94-.65-.14-.14-.29-.29-.36-.43-.07.14-.22.29-.36.43-.36.36-.65.58-.94.65-.07.07-.22.07-.29.07h-3.96v-.72h3.89c.29-.07.5-.22.79-.5.36-.36.43-.58.5-.72v-2.3c-.14-.22-.22-.36-.36-.43-.29-.29-.79-.58-1.51-.65-1.01-.07-1.58.07-2.09.36-.43.22-.86.5-1.22.72v-.86c.79-.43,1.51-1.01,3.24-.94,1.37.14,1.94.72,1.94.72v-23.4s-.5-.94-1.87-1.01c-1.87-.14-2.52.58-3.31,1.01v-.79c.29-.22.58-.36.94-.58.58-.29,1.37-.43,2.45-.36.94.07,1.51.43,1.94.79.07.07.14.14.22.22.07-.07.14-.14.29-.22.36-.36,1.01-.72,1.87-.79,1.15-.07,1.87.07,2.45.36.36.22.72.36,1.01.58ZM53.57,24.7v.79c-.14,0-.22.07-.29.14-2.23.94-4.97.72-4.97.72v23.76s2.81.22,4.97-.86c.07,0,.14-.07.29-.14v.86c-.07,0-.14,0-.22.07-1.3.58-2.66.72-3.67.79-.58,0-1.15,0-1.51-.07l-1.22,1.8v-1.3l.65-1.01v-23.18c-.14.14-.36.29-.5.36-.07.07-.14.07-.14.14v-.86c.58-.5.65-.94.65-1.15.14,0,1.08.14,2.02.07,1.01,0,2.3-.22,3.53-.72.14-.07.29-.14.43-.22h0ZM53.57,53.5v.72h-6.62v-.72h6.62ZM46.94,26.71v.86c-.43.22-.79.43-.94.5v24.55l.94-1.37v1.3l-.65.94h.65v.72h-1.66v-26.5s.94-.58,1.44-.86c.07-.07.14-.14.22-.14Z"/>
      <path class="cls-1" d="M71.35,53.5v-.94l.65.94h-.65ZM71.35,51.26l.94,1.37v-24.55c-.22-.07-.5-.29-.94-.5v23.69ZM46.94,53.5h10.51c.29-.07.5-.22.79-.5.36-.36.43-.58.5-.72v-2.3c-.14-.22-.22-.36-.36-.43-.29-.29-.79-.58-1.51-.65-1.01-.07-1.58.07-2.09.36-.5.22-.94.58-1.44.79-1.3.58-2.66.72-3.67.79-.58,0-1.15,0-1.51-.07l-1.22,1.8v.94h0ZM71.35,27.58v23.69l-.72-1.01v-23.18c.22.14.36.29.58.36,0,.07.07.07.14.14h0ZM71.35,52.56l-1.22-1.8c-.43.07-1.01.07-1.58.07-1.01-.07-2.38-.22-3.67-.79-.5-.22-.86-.58-1.44-.79-.43-.29-1.08-.43-2.09-.36-.72.07-1.22.36-1.51.65-.14.07-.22.22-.36.43l.07,2.3c0,.14.14.36.43.72.29.29.58.43.86.5h10.51v-.94h0ZM46.94,51.26v-23.69c0-.07.07-.07.14-.14.14-.07.36-.22.5-.36v23.18l-.65,1.01ZM46.3,53.5h.65v-.94l-.65.94h0ZM46.94,27.58v23.69l-.94,1.37v-24.55c.14-.07.5-.29.94-.5Z"/>
      <path class="cls-1" d="M59.47,48.89v-23.4s.5-.94,1.94-1.01c2.02-.14,2.66.72,3.6,1.15,2.23.94,4.9.72,4.9.72v23.76s-2.81.22-4.9-.86c-.94-.43-1.66-1.22-3.53-1.08-1.44.14-2.02.72-2.02.72h0ZM58.75,48.89v-23.4s-.5-.94-1.87-1.01c-2.09-.14-2.66.72-3.6,1.15-2.23.94-4.97.72-4.97.72v23.76s2.81.22,4.97-.86c.86-.43,1.58-1.22,3.53-1.08,1.37.14,1.94.72,1.94.72Z"/>
      <path class="cls-2" d="M68.98,47.45s-1.08.29-2.81-.22c-1.44-.43-2.23-1.22-3.38-1.3-1.22-.14-2.38.22-2.38.22,0,0,1.01-.86,2.16-.86,1.58,0,2.45.86,3.82,1.37,1.66.58,2.59.79,2.59.79h0ZM68.98,45.14s-.94-.22-2.59-.79c-1.37-.5-2.23-1.37-3.82-1.37-1.15.07-2.16.86-2.16.86,0,0,1.15-.29,2.38-.22,1.15.07,1.94.86,3.38,1.3,1.73.5,2.81.22,2.81.22h0ZM68.98,42.84s-1.08.29-2.81-.22c-1.44-.43-2.23-1.22-3.38-1.3-1.22-.07-2.38.22-2.38.22,0,0,1.01-.79,2.16-.79,1.58-.07,2.45.79,3.82,1.3,1.66.65,2.59.79,2.59.79h0ZM68.98,40.54s-.94-.14-2.59-.79c-1.37-.5-2.23-1.3-3.82-1.3-1.15,0-2.16.79-2.16.79,0,0,1.15-.29,2.38-.22,1.15.07,1.94.86,3.38,1.3,1.73.5,2.81.22,2.81.22h0ZM68.98,38.23s-1.08.36-2.81-.22c-1.44-.36-2.23-1.15-3.38-1.3-1.22-.07-2.38.22-2.38.22,0,0,1.01-.79,2.16-.79,1.58,0,2.45.86,3.82,1.3,1.66.65,2.59.79,2.59.79h0ZM68.98,35.93s-.94-.14-2.59-.72c-1.37-.5-2.23-1.37-3.82-1.37-1.15,0-2.16.79-2.16.79,0,0,1.15-.29,2.38-.22,1.15.14,1.94.94,3.38,1.37,1.73.5,2.81.14,2.81.14h0ZM68.98,33.7s-1.08.29-2.81-.22c-1.44-.43-2.23-1.22-3.38-1.3-1.22-.14-2.38.22-2.38.22,0,0,1.01-.86,2.16-.86,1.58,0,2.45.86,3.82,1.37,1.66.58,2.59.79,2.59.79h0ZM68.98,31.39s-.94-.22-2.59-.79c-1.37-.5-2.23-1.37-3.82-1.37-1.15,0-2.16.86-2.16.86,0,0,1.15-.29,2.38-.22,1.15.07,1.94.86,3.38,1.3,1.73.5,2.81.22,2.81.22h0ZM68.98,29.09s-1.08.29-2.81-.22c-1.44-.43-2.23-1.22-3.38-1.3-1.22-.07-2.38.22-2.38.22,0,0,1.01-.79,2.16-.79,1.58-.07,2.45.79,3.82,1.3,1.66.58,2.59.79,2.59.79h0ZM49.32,47.45s1.01.29,2.74-.22c1.44-.43,2.23-1.22,3.46-1.3,1.15-.14,2.3.22,2.3.22,0,0-.94-.86-2.09-.86-1.58,0-2.52.86-3.89,1.37-1.66.58-2.52.79-2.52.79h0ZM49.32,45.14s.86-.22,2.52-.79c1.37-.5,2.3-1.37,3.89-1.37,1.15.07,2.09.86,2.09.86,0,0-1.15-.29-2.3-.22-1.22.07-2.02.86-3.46,1.3-1.73.5-2.74.22-2.74.22h0ZM49.32,42.84s1.01.29,2.74-.22c1.44-.43,2.23-1.22,3.46-1.3,1.15-.07,2.3.22,2.3.22,0,0-.94-.79-2.09-.79-1.58-.07-2.52.79-3.89,1.3-1.66.65-2.52.79-2.52.79h0ZM49.32,40.54s.86-.14,2.52-.79c1.37-.5,2.3-1.3,3.89-1.3,1.15,0,2.09.79,2.09.79,0,0-1.15-.29-2.3-.22-1.22.07-2.02.86-3.46,1.3-1.73.5-2.74.22-2.74.22h0ZM49.32,38.23s1.01.36,2.74-.22c1.44-.36,2.23-1.15,3.46-1.3,1.15-.07,2.3.22,2.3.22,0,0-.94-.79-2.09-.79-1.58,0-2.52.86-3.89,1.3-1.66.65-2.52.79-2.52.79h0ZM49.32,35.93s.86-.14,2.52-.72c1.37-.5,2.3-1.37,3.89-1.37,1.15,0,2.09.79,2.09.79,0,0-1.15-.29-2.3-.22-1.22.14-2.02.94-3.46,1.37-1.73.5-2.74.14-2.74.14h0ZM49.32,33.7s1.01.29,2.74-.22c1.44-.43,2.23-1.22,3.46-1.3,1.15-.14,2.3.22,2.3.22,0,0-.94-.86-2.09-.86-1.58,0-2.52.86-3.89,1.37-1.66.58-2.52.79-2.52.79h0ZM49.32,31.39s.86-.22,2.52-.79c1.37-.5,2.3-1.37,3.89-1.37,1.15,0,2.09.86,2.09.86,0,0-1.15-.29-2.3-.22-1.22.07-2.02.86-3.46,1.3-1.73.5-2.74.22-2.74.22h0ZM49.32,29.09s1.01.29,2.74-.22c1.44-.43,2.23-1.22,3.46-1.3,1.15-.07,2.3.22,2.3.22,0,0-.94-.79-2.09-.79-1.58-.07-2.52.79-3.89,1.3-1.66.58-2.52.79-2.52.79Z"/>
      <path class="cls-2" d="M5.62,122.54q0-.07-.07-.07H.43q0,.07-.07.29l-.07.79v.22H.29s.07.07.21.07q.07,0,.07-.07c.07-.36.29-.65.5-.72.22-.14.5-.14,1.3-.14h.14v4.39c0,.5-.07.65-.14.72-.14.07-.36.07-.65.14-.14,0-.22,0-.22.07v.07c0,.07.07.14.14.14h2.74c.07,0,.14,0,.14-.14v-.07h0c0-.07-.07-.07-.29-.07-.36-.07-.5-.07-.58-.14-.21-.07-.21-.22-.21-.72v-4.39h1.15c.14,0,.22.07.36.07.14.14.29.36.29.72,0,.14.07.14.14.14q.14,0,.22-.14v-1.15Z"/>
      <path class="cls-2" d="M14.33,128.3h0c0-.14-.07-.14-.22-.14,0,0-.07,0-.22-.07h0c-.36,0-.43-.14-.43-.79v-3.74c0-.65.07-.72.43-.79h.22c.14,0,.14-.07.14-.14v-.07q0-.07-.07-.07h-2.38q-.07,0-.07.07v.07c0,.07,0,.14.14.14h.22c.36.07.43.14.43.79v1.51h-3.02v-1.51c0-.65.07-.72.43-.79h.22c.14,0,.22-.07.22-.14v-.07c0-.07-.07-.07-.14-.07h-2.3q-.14,0-.14.07v.07c0,.07,0,.14.22.14h.22c.36.07.36.14.36.79v4.39c-.07.07-.14.14-.36.14h0c-.07.07-.14.07-.22.07q-.22,0-.22.14h0q0,.14.14.14h2.38q.14,0,.14-.14v-.07c0-.07-.07-.07-.22-.07,0,0-.07,0-.22-.07h0c-.43,0-.5-.07-.5-.79v-1.8h3.02v1.8q0,.72-.43.79h0c-.07.07-.14.07-.22.07-.14,0-.22,0-.22.14h0c0,.14.07.14.14.14h2.38q.14,0,.14-.14Z"/>
      <path class="cls-2" d="M21.24,127.01c0-.07-.07-.14-.14-.14s-.07.07-.14.14c-.22.5-.36.65-.65.79-.36.14-.65.14-1.15.14-.72,0-.86-.07-.86-.5v-1.94h.65c.86,0,1.01.07,1.08.14,0,.14.07.29.14.58q0,.07.07.07c.14,0,.22,0,.22-.07s0-.14-.07-.14v-1.66c0-.07,0-.14-.14-.14-.07,0-.14.07-.14.22,0,.43-.14.58-.58.58h-1.22v-2.16h.72c.58,0,.94,0,1.15.14.14.07.36.36.43.58l.07.14q0,.07.07.07c.14,0,.22-.07.22-.14,0,0,0-.07-.07-.07,0-.14,0-.36-.07-.72v-.22q0-.22-.22-.22h-3.96q-.07,0-.07.07h0v.07c0,.07,0,.14.07.14h.36c.07,0,.14.07.22.07.14.07.14.22.14.72v3.96c0,.29,0,.36-.07.43q0,.07-.07.07c-.07.07-.22.14-.58.14q-.07,0-.07.07v.14q0,.07.14.07h4.18c.14,0,.14-.07.14-.22,0,0,.07-.07.07-.14l.07-.43c0-.22.07-.43.07-.58v-.07Z"/>
      <path class="cls-2" d="M34.49,122.62v-.07h0q0-.07-.07-.07h-2.16q-.07,0-.07.07h0l-.07.07c0,.07.07.14.29.14.36,0,.58.07.58.22.07.07.07.29.07.65l.07,2.09v.22c0,.79-.07,1.08-.29,1.37-.22.5-.72.72-1.44.72s-1.3-.29-1.51-.65c-.14-.36-.22-.65-.22-1.51v-2.52c0-.07.07-.14.07-.22,0-.14,0-.22.07-.22.14-.07.29-.14.79-.14q.07-.07.07-.14v-.07h0c0-.07-.07-.07-.14-.07h-2.45c-.07,0-.14,0-.14.07,0,.14.07.22.14.22h.14c.29,0,.43.14.5.29v3.53c0,.43.14.79.29,1.08.07.22.29.43.58.58.43.22.86.36,1.51.36,1.08,0,1.87-.36,2.23-1.01.22-.5.29-.72.29-1.8v-2.16c0-.5.07-.72.22-.79.07-.07.29-.07.5-.07q.14-.07.14-.14Z"/>
      <path class="cls-2" d="M43.2,122.54c0-.07-.07-.07-.14-.07h-2.09q-.14,0-.14.14c0,.07,0,.14.14.14.07,0,.29,0,.43.07.14,0,.29.07.29.14.07.14.07.29.14.65l.07,3.31-3.53-4.46h-1.51q-.14,0-.14.14c0,.07,0,.14.14.14.36,0,.5.14.72.29l-.14,3.96v.36c0,.36-.07.5-.14.65-.07,0-.14.07-.36.07l-.14.07c-.14,0-.22,0-.22.14,0,.07.07.14.14.14h2.02q.22,0,.22-.14t-.14-.14c-.07,0-.29-.07-.43-.07-.14-.07-.29-.14-.29-.29-.07-.07-.07-.29-.07-.58v-.14l.07-3.53,3.74,4.82c.07.07.07.14.14.14,0,0,.07.07.14.07.14,0,.14-.07.22-.07v-4.9c0-.43.07-.65.22-.72.07-.07.14-.14.5-.14.07,0,.14-.07.14-.22Z"/>
      <path class="cls-2" d="M48.1,128.3h0v-.07c0-.07-.07-.07-.14-.07h-.22c-.43-.07-.5-.14-.5-.58v-4.46c0-.14.07-.22.14-.29.07-.07.29-.07.58-.14q.07,0,.07-.07v-.07c0-.07,0-.14-.07-.07h-2.38c-.07,0-.14,0-.14.07h0v.07c0,.07.07.07.14.14.22,0,.5,0,.58.07.07.07.14.22.14.72v3.74c0,.5-.07.65-.14.72-.14.07-.22.14-.58.14-.07,0-.14,0-.14.14h0c0,.14.07.14.14.14h2.38q.14,0,.14-.14Z"/>
      <path class="cls-2" d="M56.74,122.62q0-.14-.14-.14h-1.94c-.07,0-.14,0-.14.14,0,.07.07.14.14.14h.14q.29,0,.43.07c0,.07.07.14.07.22s0,.14-.07.29c-.07.14-.07.22-.14.29l-.07.29-1.3,3.38-1.44-3.6-.14-.36c-.07-.14-.07-.22-.07-.36s.14-.14.58-.22h.07c.14,0,.14-.07.14-.14q0-.14-.07-.14h-2.52c-.07,0-.14,0-.14.14,0,.07.07.14.22.14.22,0,.43.07.5.14.07.07.14.14.36.72l.22.43,1.87,4.32v.14q.07.07.22.07h.14q.07,0,.07-.07l.07-.07,1.8-4.46c.07-.22.14-.29.14-.29.07-.22.14-.36.22-.5.07-.14.14-.22.14-.29.07-.07.22-.14.43-.14.14,0,.14-.07.14-.07q.07,0,.07-.07Z"/>
      <path class="cls-2" d="M63.5,127.01c0-.07-.07-.14-.21-.14-.07,0-.07.07-.14.14-.14.5-.29.65-.65.79-.29.14-.58.14-1.15.14-.72,0-.79-.07-.79-.5v-1.94h.65c.79,0,.94.07,1.01.14.07.14.07.29.14.58q0,.07.07.07c.14,0,.22,0,.22-.07v-1.8c0-.07-.07-.14-.14-.14-.14,0-.14.07-.14.22-.07.43-.22.58-.65.58h-1.15v-2.16h.65c.58,0,1.01,0,1.15.14.22.07.36.36.5.58v.14c0,.07.07.07.07.07.14,0,.22-.07.22-.14v-.07c-.07-.14-.07-.36-.07-.72,0-.07-.07-.14-.07-.22q0-.22-.22-.22h-3.89c-.07,0-.14,0-.14.07h0v.07c0,.07.07.14.14.14h.36c.07,0,.14.07.22.07.07.07.14.22.14.72v3.96c0,.29,0,.36-.07.43,0,.07-.07.07-.07.07-.14.07-.29.14-.58.14-.07,0-.14,0-.14.07v.14c0,.07.07.07.14.07h4.18c.14,0,.14-.07.22-.22v-.14l.07-.43c0-.22.07-.43.14-.58v-.07Z"/>
      <path class="cls-2" d="M71.5,128.3c0-.07-.07-.14-.14-.14-.36,0-.72-.22-1.01-.58-.29-.36-.58-.79-.86-1.37-.29-.5-.36-.65-.65-.94.79-.29,1.22-.79,1.22-1.51,0-.5-.22-.94-.65-1.15-.29-.22-.65-.29-1.15-.29v.43c.58.22.86.58.86,1.15s-.36,1.01-.86,1.15v.94c.07.07.22.29.29.5.5.94.72,1.37,1.08,1.66.29.29.65.36,1.08.36.29,0,.65-.07.72-.07s.07-.07.07-.14h0ZM68.26,128.45v-.29c.07,0,.07.07.07.07v.14l-.07.07ZM68.26,122.33c-.14,0-.29-.07-.43-.07-.58,0-1.37.07-2.02.14l-.14.07c-.07,0-.07.07-.07.14s.07.14.14.14h.22c.22,0,.43.07.5.14v.5l.07.29v3.6l-.07.22v.43c-.07,0-.07.07-.07.07-.14.07-.29.07-.43.14h-.14q-.14,0-.14.14t.14.14h2.45v-.29h-.29c-.22,0-.43-.14-.5-.22v-.43q-.07-.14-.07-.22v-1.73h.29c.29,0,.36.07.58.43v-.94c-.21.07-.43.14-.65.14h-.22v-2.52h.22c.22,0,.43.07.65.07v-.43Z"/>
      <path class="cls-2" d="M77.62,126.72c0-.43-.14-.79-.43-1.08-.29-.29-.5-.43-1.08-.72-.72-.36-.86-.5-1.08-.72-.22-.14-.29-.36-.29-.58,0-.5.5-.86,1.08-.86.65,0,1.01.29,1.22.94.07.07.07.14.14.14.14,0,.22-.07.22-.14h0v-.07l-.07-.72v-.07c-.07-.14-.07-.22-.14-.29-.22-.14-.79-.29-1.3-.29-1.15,0-1.94.65-1.94,1.66,0,.43.22.86.58,1.22.29.14.58.36.94.5.65.36.86.5,1.08.79.14.14.29.36.29.58,0,.65-.58,1.08-1.3,1.08-.58,0-1.08-.36-1.44-1.01l-.07-.22s0-.07-.07-.07c-.14,0-.22.07-.22.14v.22l.14.79q.07.07.07.14c0,.14,0,.22.14.22.29.14.86.29,1.3.29,1.37,0,2.23-.72,2.23-1.87Z"/>
      <path class="cls-2" d="M82.66,128.3h0v-.07c0-.07-.07-.07-.14-.07h-.22c-.43-.07-.5-.14-.5-.58v-4.46c0-.14.07-.22.14-.29.07-.07.29-.07.58-.14q.07,0,.07-.07v-.07c0-.07,0-.14-.07-.07h-2.38c-.07,0-.14,0-.14.07h0v.07c0,.07.07.07.14.14.22,0,.43,0,.58.07.07.07.14.22.14.72v3.74c0,.5-.07.65-.14.72-.14.07-.22.14-.58.14-.07,0-.14,0-.14.14h0c0,.14.07.14.14.14h2.38c.07,0,.14,0,.14-.14Z"/>
      <path class="cls-2" d="M90.07,122.54c0-.07-.07-.07-.14-.07h-5.11v.29l-.07.79c0,.07-.07.14-.07.22h0s.14.07.22.07.07,0,.07-.07c.07-.36.29-.65.58-.72.22-.14.43-.14,1.22-.14h.14v4.39c0,.5,0,.65-.14.72-.07.07-.29.07-.58.14q-.22,0-.22.07v.07c0,.07,0,.14.07.14h2.74q.14,0,.14-.14v-.07h0q0-.07-.21-.07c-.43-.07-.5-.07-.65-.14-.14-.07-.22-.22-.22-.72v-4.39h1.15c.14,0,.29.07.36.07.22.14.29.36.36.72q0,.14.14.14t.14-.14v-1.01l.07-.14Z"/>
      <path class="cls-2" d="M98.14,122.62q0-.14-.14-.14h-2.02q-.14,0-.14.07c0,.07,0,.14.07.14l.07.07h.14c.29,0,.43.07.43.22,0,.07-.07.29-.22.58l-1.01,1.8-1.15-1.87c-.14-.22-.22-.43-.22-.5,0-.14.14-.22.43-.22h.22c.07,0,.07-.07.07-.14,0-.14,0-.22-.07-.14h-2.52q-.07,0-.07.14t.07.14h.14c.29,0,.43.14.72.58,0,0,.07.07.14.14l1.44,2.38v1.44c0,.5,0,.65-.14.72-.07.07-.22.07-.58.14q-.22,0-.22.07v.07q0,.14.07.14h2.81q.07,0,.07-.14v-.07q0-.07-.22-.07c-.58-.07-.72-.14-.79-.22,0-.07,0-.14-.07-.43v-1.66l1.51-2.38c.36-.43.43-.58.58-.65.07-.07.22-.07.36-.07.14-.07.22-.07.22-.14Z"/>
      <path class="cls-2" d="M111.1,125.14c0-1.66-1.22-2.88-2.95-2.88h-.14v.5c1.22,0,2.16,1.22,2.16,2.81s-.86,2.52-2.16,2.52h0v.5c1.8-.07,3.02-1.37,3.1-3.31v-.14ZM108,122.26c-1.8.07-3.1,1.51-3.1,3.31s1.22,3.02,2.95,3.02h.14v-.5c-1.22,0-2.16-1.22-2.16-2.81s.79-2.52,2.09-2.52h.07v-.5Z"/>
      <path class="cls-2" d="M117.79,123.7h0l-.07-.07-.07-.86v-.14c0-.14-.07-.14-.14-.14h-3.89c-.07,0-.14,0-.14.07s0,.14.07.14q0,.07.14.07c.58,0,.65.14.65.79v3.74c0,.29-.07.58-.07.65-.07.07-.22.22-.58.22q-.22,0-.22.14t.14.14h2.74c.07,0,.14,0,.14-.14h0v-.07c0-.07-.07-.07-.22-.07-.5-.07-.72-.07-.86-.22-.14-.07-.14-.14-.14-.43v-2.02h1.37c.07.07.14.07.22.07,0,.07.07.07.07.14.07.07.07.22.14.36,0,.22,0,.29.07.29.14,0,.22-.07.22-.14h0v-1.8q0-.07-.14-.07-.14,0-.14.07c0,.36-.07.5-.29.58-.14.07-.36.07-1.15.07h-.36v-2.16h.43c.72,0,1.08,0,1.29.14.14.07.29.22.36.5l.07.14c.07.07.07.14.14.14s.22-.07.22-.14Z"/>
      <path class="cls-2" d="M83.95,162.58c0,1.08-.86,2.38-2.09,2.66v-.5c.58-.5,1.3-1.58,1.3-2.52,0-.72-.29-1.01-.72-1.01-.14,0-.36.07-.58.29v-.5c.22-.07.36-.07.58-.07.72,0,1.51.5,1.51,1.66ZM81.86,165.24c-.22,0-.36.07-.58.07-.79,0-1.51-.58-1.51-1.66s.86-2.38,2.09-2.66v.5c-.58.43-1.3,1.51-1.3,2.52,0,.65.29.94.72.94.14,0,.36-.07.58-.22v.5Z"/>
      <path class="cls-2" d="M17.14,160.7c-.07.14-2.16,3.17-2.16,3.17-.22.36-.72,1.15-.86,1.37l-.5.07c.07-2.09.36-5.26.36-5.98,0-.65-.14-.72-.79-.72v-.29h2.59v.29c-.72.07-.86.22-.94.86l-.22,3.96v.29l.22-.36c.22-.29.43-.58.72-1.01.5-.72,1.15-1.66,1.66-2.3v-1.01c.07-.22-.14-.43-.58-.43v-.29h2.3v.29c-.65,0-.79.14-.86,1.01l-.14,2.74c-.07.65-.14,1.37-.14,1.51.07.07,3.1-4.25,3.1-4.97,0-.22-.14-.29-.5-.29v-.29h1.87v.29c-.43,0-.65.14-1.01.79-1.44,2.59-3.31,5.04-3.89,5.83l-.5.07.29-4.61Z"/>
      <path class="cls-2" d="M22.9,162.65h0c.07-.07.07-.14.14-.22.07-.29.21-.65.43-1.22.65-1.58,1.01-2.81,1.01-2.88,0-.14-.07-.14-.14-.14h-1.29q-.07.07-.07.14c0,.14.14.14.36.22.14,0,.22.07.22.14s-.07.43-.29.94c-.07.29-.21.65-.36,1.01v2.02h0c.07-.07.14-.14.22-.22.07-.14.29-.43.43-.65.43-.43.94-.86,1.37-.86s.65.22.65.79c0,.43-.22,1.08-.43,1.58-.07.29-.22.58-.29.79-.07.14-.07.29-.07.36,0,0,0,.07.07.07s.22-.14.36-.29.29-.29.36-.36l.22.14c-.43.58-1.08,1.3-1.73,1.3-.22,0-.36-.14-.36-.36,0-.14.07-.36.22-.65.07-.22.22-.5.36-.79.29-.65.5-1.22.5-1.51,0-.22-.07-.29-.22-.29-.43,0-1.08.65-1.66,1.51v-.58h0ZM22.9,162.65v.07-.07.58c-.36.58-.65,1.15-.86,1.8,0,.14-.14.22-.36.22-.29,0-.36-.07-.36-.22,0-.07.22-.72.5-1.51.36-.79.72-1.66.94-2.3.07-.22.07-.36.14-.58v2.02h0Z"/>
      <path class="cls-2" d="M28.87,163.66l-.07.07c-.07.07-.14.22-.22.29-.14.22-.22.36-.29.43v-.5c.58-.72,1.15-1.8,1.15-2.16,0-.29-.14-.5-.43-.5s-.5.14-.72.36v-.43c.22-.14.58-.22.86-.22h.36l.14.07h.07q.07,0,.07-.07s.07,0,.07-.07h0l.07-.07s.07-.07.14-.07c0,0,.07.07.22.14.07,0,.14.07.14.22,0,.07-.07.29-.14.58-.14.29-.29.65-.43,1.01-.29.79-.58,1.58-.58,1.8v.07h.07q.07,0,.22-.07c.07-.07.14-.22.22-.29.07-.07.22-.22.29-.29l.07-.07c0-.07.07-.07.07-.07.14,0,.14.07.14.14s-.79,1.37-1.51,1.37c-.29,0-.36-.14-.36-.43,0-.22.07-.5.22-.79,0-.07.07-.22.07-.29l.07-.07v-.07ZM28.3,164.45c-.58.65-.94.86-1.37.86-.36,0-.65-.29-.65-.86,0-.72.65-2.66,2.02-3.24v.43c-.72.5-1.22,1.73-1.22,2.59,0,.29.07.36.29.36s.58-.29.94-.65v.5Z"/>
      <path class="cls-2" d="M31.32,165.24c-.07,0-.14-.07-.14-.22,0,0,.07-.22.14-.5.07-.22.22-.58.36-.94.22-.72.5-1.51.5-1.8,0-.14-.07-.22-.14-.22,0,0-.14.14-.29.29-.14.07-.22.29-.29.36-.07,0-.07.07-.14.07v.07h-.07c-.07,0-.14-.07-.14-.07,0-.22,1.01-1.37,1.44-1.37.22,0,.36.07.36.36,0,.07-.07.5-.14.86l-.14.5c-.07.14-.07.22-.07.22.07,0,.07-.07.07-.07.14-.29.43-.72.72-1.15.29-.36.58-.72.86-.72s.43.22.43.5c0,.36-.14.58-.36.58s-.29-.14-.36-.22v-.07q0-.07-.07-.07s0-.07-.07-.07c-.14,0-.65.65-1.58,2.81l-.29.65q-.07.07-.07.14c-.07,0-.07.07-.14.07h-.36Z"/>
      <path class="cls-2" d="M36.58,164.38h.07c.07-.07.22-.14.29-.22l.07-.07h.07q.14,0,.14.07c0,.07-.22.43-.65.65v-.43h0ZM36.58,160.99c.22-.07.43-.07.65-.07.58,0,.86.36.86.72,0,.65-.79.94-1.51,1.08v-.43c.5-.14.79-.36.79-.72,0-.22-.07-.36-.29-.36-.14,0-.36.07-.5.22v-.43ZM35.78,164.66c.29,0,.58-.14.79-.29v.43c-.29.29-.72.5-1.15.5-.72,0-1.15-.5-1.15-1.22,0-1.3,1.22-2.66,2.3-3.1v.43c-.36.29-.65.79-.79,1.01.29,0,.58-.07.79-.14v.43c-.22,0-.36.07-.5.07-.22,0-.36,0-.5-.07-.14.36-.43.72-.43,1.3,0,.36.29.65.65.65Z"/>
      <path class="cls-2" d="M45.86,160.7c-.14.14-2.16,3.17-2.16,3.17-.22.36-.79,1.15-.86,1.37l-.5.07c0-2.09.29-5.26.29-5.98,0-.65-.07-.72-.79-.72v-.29h2.66v.29c-.79.07-.94.22-.94.86l-.22,3.96c0,.14-.07.22-.07.29l.29-.36c.14-.29.43-.58.65-1.01.58-.72,1.22-1.66,1.66-2.3l.07-1.01c0-.22-.14-.43-.58-.43v-.29h2.3v.29c-.65,0-.79.14-.86,1.01l-.14,2.74c-.07.65-.14,1.37-.14,1.51,0,.07,3.1-4.25,3.1-4.97,0-.22-.22-.29-.5-.29v-.29h1.87v.29c-.5,0-.65.14-1.01.79-1.51,2.59-3.38,5.04-3.96,5.83l-.5.07.36-4.61Z"/>
      <path class="cls-2" d="M51.12,163.66l-.07.07c-.07.07-.14.22-.22.29-.14.22-.22.36-.29.43v-.5c.58-.72,1.15-1.8,1.15-2.16,0-.29-.14-.5-.43-.5s-.5.14-.72.36v-.43c.22-.14.58-.22.86-.22h.36l.14.07h.07q.07,0,.07-.07t.07-.07h.07v-.07s.07-.07.14-.07c0,0,.07.07.22.14.07,0,.14.07.14.22,0,.07-.07.29-.14.58-.14.29-.29.65-.43,1.01-.29.79-.58,1.58-.58,1.8v.07h.07q.07,0,.22-.07c.07-.07.14-.22.22-.29.07-.07.22-.22.29-.29l.07-.07c0-.07.07-.07.07-.07.14,0,.14.07.14.14s-.79,1.37-1.51,1.37c-.29,0-.36-.14-.36-.43,0-.22.07-.5.22-.79,0-.07.07-.22.07-.29l.07-.07v-.07ZM50.54,164.45c-.58.65-.94.86-1.37.86-.36,0-.65-.29-.65-.86,0-.72.65-2.66,2.02-3.24v.43c-.72.5-1.22,1.73-1.22,2.59,0,.29.07.36.29.36s.58-.29.94-.65v.5Z"/>
      <path class="cls-2" d="M54.94,162.43s0-.07.07-.14c.07-.07.14-.22.29-.36.07-.14.22-.29.43-.43.29-.29.72-.58,1.08-.58.43,0,.72.29.72.72s-.22,1.08-.5,1.58c-.07.29-.22.58-.36.79-.07.22-.14.36-.14.43s.07.07.07.07c.14,0,.65-.36.86-.58l.21.14c-.58.65-1.44,1.22-1.87,1.22-.22,0-.36-.14-.36-.29,0-.07.14-.29.22-.5.14-.29.29-.65.43-1.01.36-.65.65-1.37.65-1.66s-.14-.36-.29-.36c-.65,0-1.8,1.51-2.3,3.02l-.22.43c0,.07-.07.14-.07.22l-.07.07h-.29c-.07,0-.14,0-.22-.07q-.07,0-.07-.07c0-.07.07-.29.14-.58.14-.29.29-.65.43-1.01.22-.72.5-1.51.5-1.8v-.07c-.14,0-.36.14-.58.36l-.29.29-.07.07-.07.07c-.07,0-.14-.07-.14-.14,0-.22,1.3-1.37,1.8-1.37.22,0,.36.14.36.29,0,.22-.14.5-.22.72l-.14.36v.14Z"/>
      <path class="cls-2" d="M60.84,163.66c-.07,0-.07.07-.07.07-.07.07-.14.22-.22.29-.14.22-.22.36-.36.43v-.5c.65-.72,1.22-1.8,1.22-2.16,0-.29-.14-.5-.5-.5-.22,0-.43.14-.72.36v-.43c.29-.14.58-.22.94-.22h.36l.14.07h.07s.07,0,.07-.07l.07-.07h0l.07-.07.07-.07c.07,0,.14.07.22.14.14,0,.22.07.22.22,0,.07-.07.29-.22.58-.07.29-.22.65-.36,1.01-.29.79-.58,1.58-.58,1.8v.07h.07s.07,0,.14-.07c.14-.07.22-.22.29-.29.07-.07.14-.22.22-.29.07,0,.07-.07.14-.07,0-.07.07-.07.07-.07.07,0,.14.07.14.14s-.86,1.37-1.51,1.37c-.29,0-.43-.14-.43-.43,0-.22.14-.5.22-.79.07-.07.14-.22.14-.29l.07-.07v-.07ZM60.19,164.45c-.5.65-.94.86-1.3.86s-.65-.29-.65-.86c0-.72.65-2.66,1.94-3.24v.43c-.65.5-1.15,1.73-1.15,2.59,0,.29.07.36.21.36.29,0,.65-.29.94-.65v.5Z"/>
      <path class="cls-2" d="M64.8,162.43s.07-.07.14-.14c0-.07.14-.22.22-.36.14-.14.29-.29.43-.43.36-.29.72-.58,1.15-.58s.72.29.72.72-.29,1.08-.5,1.58c-.14.29-.29.58-.36.79-.07.22-.14.36-.14.43s0,.07.07.07c.14,0,.58-.36.79-.58l.22.14c-.58.65-1.44,1.22-1.87,1.22-.22,0-.29-.14-.29-.29,0-.07.07-.29.22-.5.07-.29.29-.65.43-1.01.29-.65.65-1.37.65-1.66s-.14-.36-.29-.36c-.65,0-1.87,1.51-2.38,3.02l-.14.43c-.07.07-.07.14-.14.22v.07h-.29c-.14,0-.22,0-.29-.07,0,0-.07,0-.07-.07s.07-.29.22-.58c.07-.29.21-.65.36-1.01.29-.72.58-1.51.58-1.8v-.07c-.14,0-.36.14-.58.36l-.29.29c-.07,0-.07.07-.14.07,0,.07-.07.07-.07.07-.07,0-.14-.07-.14-.14,0-.22,1.37-1.37,1.8-1.37.22,0,.36.14.36.29,0,.22-.07.5-.22.72l-.07.36-.07.07v.07Z"/>
      <path class="cls-2" d="M69.41,164.09h0v-.5c.07.14.29.22.5.22.72,0,1.15-1.15,1.15-1.73,0-.43-.22-.79-.65-.79s-.79.36-1.01.79v-.94c.29-.14.58-.22.94-.22s.65.07.79.22c.07,0,.07.07.14.07l.07.07.07.07h.07l.22-.14c.14-.07.36-.14.5-.14.29,0,.43.14.43.43,0,.22-.14.29-.36.29-.14,0-.22,0-.36-.07h-.22c-.07.14,0,.22,0,.72,0,.65-.5,1.73-1.73,1.73-.29,0-.43-.07-.58-.07h0ZM69.41,164.74c.22.07.43.22.72.36.65.36,1.37.72,1.37,1.22,0,.58-.65,1.3-2.09,1.37v-.36c.86,0,1.37-.29,1.37-.65,0-.29-.29-.5-.58-.65-.22-.07-.36-.14-.58-.22-.07-.07-.14-.07-.22-.14v-.94ZM69.41,164.09c-.07-.07-.14-.07-.14-.07l-.14-.07c-.29.14-.29.22-.29.29s.14.22.36.36c.07.07.14.07.22.14v.94c-.07-.07-.14-.07-.22-.14-.79.36-1.15.58-1.15,1.01s.5.79,1.29.79h.07v.36c-.14.07-.29.07-.43.07-1.08,0-1.8-.58-1.8-1.15,0-.5.43-.86,1.66-1.3l-.14-.07c-.07-.07-.22-.14-.29-.22-.14-.14-.36-.36-.36-.58s.14-.36.29-.5c.14-.07.36-.14.5-.29-.22-.29-.36-.72-.36-.94,0-.65.36-1.22.94-1.58v.94c-.14.29-.22.58-.22.94,0,.22.07.43.22.58v.5Z"/>
      <path class="cls-2" d="M74.88,163.66l-.07.07c-.07.07-.14.22-.22.29-.14.22-.22.36-.29.43v-.5c.58-.72,1.15-1.8,1.15-2.16,0-.29-.14-.5-.43-.5s-.5.14-.72.36v-.43c.22-.14.58-.22.86-.22h.36l.14.07h.07q.07,0,.07-.07s.07,0,.07-.07h0l.07-.07.07-.07c.07,0,.14.07.29.14.07,0,.14.07.14.22,0,.07-.07.29-.14.58-.14.29-.29.65-.43,1.01-.29.79-.58,1.58-.58,1.8v.07h.07q.07,0,.22-.07c.07-.07.14-.22.22-.29.07-.07.22-.22.29-.29l.07-.07c0-.07.07-.07.07-.07.14,0,.14.07.14.14s-.79,1.37-1.51,1.37c-.29,0-.36-.14-.36-.43,0-.22.07-.5.22-.79,0-.07.07-.22.07-.29l.07-.07v-.07ZM74.3,164.45c-.58.65-.94.86-1.37.86-.36,0-.65-.29-.65-.86,0-.72.65-2.66,2.02-3.24v.43c-.72.5-1.22,1.73-1.22,2.59,0,.29.07.36.29.36s.58-.29.94-.65v.5Z"/>
      <path class="cls-2" d="M91.01,160.7c-.07.14-2.16,3.17-2.16,3.17-.22.36-.79,1.15-.86,1.37l-.5.07c0-2.09.29-5.26.29-5.98,0-.65-.07-.72-.79-.72v-.29h2.66v.29c-.72.07-.86.22-.94.86l-.22,3.96c0,.14-.07.22-.07.29l.29-.36c.14-.29.43-.58.72-1.01.5-.72,1.15-1.66,1.58-2.3l.07-1.01c0-.22-.14-.43-.58-.43v-.29h2.3v.29c-.65,0-.79.14-.86,1.01l-.14,2.74c-.07.65-.14,1.37-.14,1.51.07.07,3.1-4.25,3.1-4.97,0-.22-.22-.29-.5-.29v-.29h1.87v.29c-.5,0-.65.14-1.01.79-1.51,2.59-3.31,5.04-3.96,5.83l-.5.07.36-4.61Z"/>
      <path class="cls-2" d="M96.34,163.66c-.07,0-.07.07-.14.07,0,.07-.07.22-.22.29-.07.22-.22.36-.29.43v-.5c.65-.72,1.22-1.8,1.22-2.16,0-.29-.14-.5-.5-.5-.22,0-.5.14-.72.36v-.43c.29-.14.58-.22.94-.22h.36l.07.07h.14l.07-.07.07-.07h0v-.07c.07,0,.07-.07.14-.07s.14.07.22.14c.07,0,.21.07.21.22,0,.07-.07.29-.21.58-.07.29-.22.65-.43,1.01-.29.79-.58,1.58-.58,1.8,0,.07.07.07.07.07h0c.07,0,.14,0,.22-.07.07-.07.14-.22.29-.29.07-.07.14-.22.22-.29.07,0,.07-.07.07-.07q.07-.07.14-.07c.07,0,.14.07.14.14s-.86,1.37-1.58,1.37c-.22,0-.36-.14-.36-.43,0-.22.14-.5.22-.79.07-.07.07-.22.14-.29l.07-.07v-.07ZM95.69,164.45c-.5.65-.94.86-1.3.86s-.72-.29-.72-.86c0-.72.72-2.66,2.02-3.24v.43c-.65.5-1.22,1.73-1.22,2.59,0,.29.14.36.29.36.29,0,.65-.29.94-.65v.5Z"/>
      <path class="cls-2" d="M98.5,162.14l.07-.07c.29-.29,1.01-1.08,1.51-1.08.22,0,.29.14.29.29,0,.43-.29,1.22-.5,1.87-.14.36-.29.65-.43.94-.07.29-.14.43-.14.5s0,.07.07.07.29-.07.43-.22c.22-.14.36-.36.43-.43l.07-.07.14.22h0c-.07.07-.22.22-.36.36-.07.14-.22.22-.36.36-.29.22-.58.43-.94.43-.29,0-.36-.14-.36-.29,0-.36.29-1.01.58-1.66.14-.36.22-.72.36-.94.07-.29.14-.5.14-.58s0-.14-.07-.14-.22.07-.36.22c-.14.14-.29.29-.36.36h0l-.22-.14h0ZM100.51,158.33c.29,0,.5.22.5.43,0,.29-.22.5-.5.5-.22,0-.43-.22-.43-.5,0-.22.22-.43.43-.43Z"/>
      <path class="cls-2" d="M103.46,161.14c.36-.14.72-.36,1.15-.36.36,0,.79.29.79.79,0,.79-1.08,1.3-1.66,1.51,0,.36.22,1.37.43,2.38.29,1.08.65,1.94,1.08,1.94.14,0,.22-.07.22-.07l-.07-.07v-.07l.07-.07h.07c.07,0,.22.07.22.22,0,.22-.22.43-.58.43-.58,0-1.22-.86-1.73-2.23v-2.74c.65-.36,1.22-.72,1.22-1.15,0-.22-.14-.36-.36-.36s-.5.14-.86.36v-.5h0ZM103.46,158.18h.43c.07,0,.14,0,.14.14,0,.07-.07.36-.14.58l-.43.94v-1.66ZM102.82,161.64h0c.07,0,.14-.07.14-.07.14-.14.29-.22.43-.36q.07,0,.07-.07v.5c-.36.22-.65.5-.79.65l-.36.94c.36-.07.79-.29,1.15-.43v2.74c-.22-.58-.36-1.37-.5-2.16l-.36.14-.43.14-.29.86c-.07.29-.14.5-.22.58,0,.07-.07.14-.14.14h-.43c-.14,0-.21-.07-.21-.22,0-.07.36-1.01,1.15-3.31.43-1.15.65-1.87.79-2.38.22-.43.22-.58.22-.72,0,0,0-.07-.07-.07-.14-.07-.29-.07-.58-.07h-.07v-.29h1.15v1.66l-.5,1.44-.07.22-.07.14v.07-.07h0Z"/>
      <path class="cls-2" d="M108.07,163.66l-.07.07c-.07.07-.14.22-.22.29-.14.22-.22.36-.36.43v-.5c.65-.72,1.22-1.8,1.22-2.16,0-.29-.14-.5-.43-.5s-.5.14-.79.36v-.43c.29-.14.65-.22.94-.22h.36l.14.07h.07q.07,0,.07-.07s.07,0,.07-.07h0l.07-.07.07-.07c.07,0,.14.07.29.14.07,0,.14.07.14.22,0,.07-.07.29-.14.58-.14.29-.29.65-.43,1.01-.29.79-.58,1.58-.58,1.8v.07h.07q.07,0,.22-.07c.07-.07.14-.22.22-.29.07-.07.22-.22.29-.29,0,0,0-.07.07-.07,0-.07.07-.07.07-.07.14,0,.14.07.14.14s-.79,1.37-1.51,1.37c-.29,0-.36-.14-.36-.43,0-.22.07-.5.14-.79.07-.07.14-.22.14-.29l.07-.07v-.07ZM107.42,164.45c-.5.65-.86.86-1.3.86-.36,0-.65-.29-.65-.86,0-.72.65-2.66,1.94-3.24v.43c-.65.5-1.15,1.73-1.15,2.59,0,.29.07.36.29.36s.58-.29.86-.65v.5Z"/>
      <path class="cls-2" d="M112.54,160.99h.36c.14,0,.22.07.22.29s-.14.29-.22.29h-.5c-.07,0-.14.07-.22.22l-.79,2.23-.14.22v.22s0,.07.14.07c.07,0,.36-.22.65-.43l.36-.29.07-.07h.14c.07,0,.14.07.14.07,0,.14-.22.36-.79.79-.43.36-1.01.72-1.3.72s-.43-.22-.43-.36.14-.58.22-.79l.94-2.3v-.14l.07-.07s0-.07-.14-.07h-.43c-.07,0-.14,0-.14-.07v-.07l.07-.07.07-.36h.72q.07,0,.14-.07l.29-.72q.07-.07.14-.07s.07-.07.22-.07h.29c.07,0,.14,0,.14.07v.14l-.07.14-.22.5v.07h0Z"/>
      <path class="cls-2" d="M117.5,162.58c0,1.08-.79,2.38-2.02,2.66v-.5c.58-.5,1.22-1.58,1.22-2.52,0-.72-.29-1.01-.72-1.01-.14,0-.36.07-.5.29v-.5c.14-.07.36-.07.5-.07.79,0,1.51.5,1.51,1.66ZM115.49,165.24c-.22,0-.43.07-.58.07-.79,0-1.51-.58-1.51-1.66s.79-2.38,2.09-2.66v.5c-.65.43-1.3,1.51-1.3,2.52,0,.65.29.94.72.94.14,0,.36-.07.58-.22v.5Z"/>
      <path class="cls-2" d="M.72,159.77l.07-.07c.07-.22.22-.65.36-1.01.07-.14.22-.29.29-.43.07-.07.14-.14.22-.14h.22c.07.07.07.14.14.14.14.07.36.14.86.14h2.95c.65,0,.86,0,1.15-.22.07-.07.14-.07.22-.07.14,0,.14.07.14.22,0,.07-.07.79-.22,1.58-.07.14-.07.22-.22.22-.22,0-.22-.07-.22-.29,0-.79-.36-1.01-1.22-1.01-.43,0-.58.07-.72.72l-.94,3.67c-.22.58-.29,1.15-.29,1.37s.22.29.86.36v.29H1.37v-.29c.79-.07,1.01-.14,1.15-.86l1.15-4.25c.07-.29.14-.58.14-.79,0-.14,0-.22-.72-.22-.79,0-1.22.07-1.94.94h-.43Z"/>
      <path class="cls-2" d="M7.92,164.38h0c.14-.07.22-.14.29-.22l.14-.07h.07c.07,0,.14,0,.14.07s-.29.43-.65.65v-.43h0ZM7.92,160.99c.22-.07.43-.07.58-.07.58,0,.94.36.94.72,0,.65-.86.94-1.51,1.08v-.43c.5-.14.79-.36.79-.72,0-.22-.14-.36-.36-.36-.14,0-.29.07-.43.22v-.43ZM7.13,164.66c.29,0,.58-.14.79-.29v.43c-.36.29-.79.5-1.22.5-.65,0-1.15-.5-1.15-1.22,0-1.3,1.22-2.66,2.38-3.1v.43c-.36.29-.65.79-.79,1.01.29,0,.58-.07.79-.14v.43c-.21,0-.43.07-.58.07-.22,0-.29,0-.43-.07-.22.36-.43.72-.43,1.3,0,.36.22.65.65.65Z"/>
      <rect class="cls-3" x="50.62" y="159.84" width="2.3" height=".36"/>
      <path class="cls-2" d="M39.17,151.27v-.29c0-.14-.07-.22-.36-.22-.43-.07-.86-.14-1.15-.29-.36-.14-.5-.36-.72-.94l-.36-.65-5.54-12.96c-.22-.5-.29-.5-.58-.5h-.29c-.22,0-.29,0-.36.07h0v3.24l2.38,5.98h-2.38v1.15h2.88l1.15,3.02.22.58c.07.07.07.22.14.36,0,.14.07.22.07.29,0,.29-.36.5-1.01.58h-.5c-.07,0-.14.07-.22.07-.07.07-.07.14-.07.22v.22c0,.22.07.29.29.29h6.05c.29,0,.36-.07.36-.22ZM29.81,135.5c0,.07-.14.22-.22.43l-5.4,12.89c-.43.94-.58,1.15-.79,1.44-.14.14-.22.22-.36.29-.22.07-.5.14-1.01.22-.22,0-.22.07-.22.36s0,.36.29.36h.43c.94,0,1.66-.07,2.02-.07s1.08.07,2.16.07h.43c.36,0,.36-.07.36-.36,0-.36,0-.43-.43-.43-1.01,0-1.51-.22-1.51-.72,0-.14.14-.72.29-1.15l1.15-2.95h2.81v-1.15h-2.38l2.3-6.12.07.14v-3.24Z"/>
      <path class="cls-2" d="M67.75,151.13c0-.29-.07-.36-.22-.36l-.22-.07c-.43,0-.94-.14-1.15-.29-.5-.29-.79-.58-1.73-1.66l-5.4-5.98,3.89-3.82c1.15-1.15,1.94-1.8,2.45-2.02.29-.22.72-.29,1.29-.36.36-.07.43-.14.43-.43v-.14c0-.14-.07-.22-.29-.22h-.94c-.65.07-1.15.07-1.51.07l-2.02-.07h-1.15c-.22,0-.29.07-.29.36s.07.36.36.43c.79,0,1.08.14,1.08.43,0,.36-.29.79-1.44,1.94l-3.31,3.38v2.3l3.67,4.25c.58.72.79,1.01.79,1.22,0,.36-.36.58-1.08.58-.36.07-.43.14-.43.36,0,.36,0,.43.36.43h1.3c.86-.07,1.58-.07,2.09-.07s1.15,0,2.02.07h1.01c.36,0,.43-.07.43-.36h0ZM57.6,151.49v-.79c.14,0,.36.07.5.07.43,0,.5,0,.5.29v.07c0,.29,0,.36-.29.36h-.72ZM57.6,136.58v-.79h.58c.22,0,.29.07.29.29v.07c0,.36-.07.36-.5.43h-.36ZM57.6,142.34l-1.01,1.08,1.01,1.22v-2.3h0ZM57.6,135.79v.79c-.07,0-.07.07-.14.07h-.07c-.94.14-1.08.36-1.08,2.09v9.79c0,.79.07,1.37.14,1.66.14.22.58.43,1.15.5v.79h-.5c-.58-.07-1.15-.07-1.51-.07h-1.01c-.29,0-.79,0-1.51.07h-1.08c-.22,0-.29-.07-.29-.29v-.07c0-.36.07-.36.5-.36.22,0,.36-.07.58-.07h0c.29-.07.58-.14.72-.29.29-.14.36-.65.36-1.87v-9.79c0-1.73-.07-1.94-1.08-2.09h0c-.29-.07-.5-.07-.58-.07-.43-.07-.5-.07-.5-.43v-.07c0-.22.07-.29.36-.29h1.01c.72,0,1.22.07,1.51.07h1.08c.22,0,.72-.07,1.44-.07h.5Z"/>
      <path class="cls-2" d="M86.76,151.27v-.29c0-.14-.07-.22-.36-.22-.43-.07-.86-.14-1.15-.29-.29-.14-.43-.36-.72-.94l-.29-.65-5.62-12.96q-.22-.5-.58-.5h-.22c-.29,0-.36,0-.36.07h-.07v3.24l2.45,5.98h-2.45v1.15h2.88l1.15,3.02.22.58c.07.07.14.22.14.36.07.14.07.22.07.29,0,.29-.36.5-1.01.58h-.5c-.07,0-.14.07-.22.07-.07.07-.07.14-.07.22v.22c0,.22.07.29.29.29h6.05c.29,0,.36-.07.36-.22ZM77.4,135.5c0,.07-.07.22-.22.43l-5.4,12.89c-.36.94-.5,1.15-.79,1.44-.07.14-.22.22-.36.29-.22.07-.43.14-1.01.22-.22,0-.22.07-.22.36s0,.36.29.36h.5c.94,0,1.58-.07,2.02-.07.36,0,1.01.07,2.09.07h.43c.36,0,.43-.07.43-.36,0-.36-.07-.43-.5-.43-1.01,0-1.51-.22-1.51-.72,0-.14.14-.72.36-1.15l1.08-2.95h2.81v-1.15h-2.38l2.38-6.12v.14-3.24Z"/>
      <path class="cls-2" d="M118.08,142.92c0-4.39-3.24-7.56-7.7-7.56h-.5v1.22c3.24.07,5.62,3.24,5.62,7.42,0,3.89-2.23,6.62-5.47,6.62h-.14v1.3c4.68-.14,7.99-3.6,8.21-8.57v-.43ZM109.87,135.36c-4.68.22-8.14,3.82-8.14,8.71,0,4.61,3.24,7.85,7.85,7.85h.29v-1.3c-3.24-.07-5.62-3.24-5.62-7.42,0-3.96,2.16-6.62,5.47-6.62h.14v-1.22Z"/>
      <path class="cls-2" d="M48.38,151.13v-.22c-.07-.07-.14-.14-.36-.14l-.5-.07c-1.15-.14-1.37-.36-1.37-1.37l-.07-.79v-9.79c0-.07.07-.29.07-.79v-.5c.07-.29.14-.5.36-.58.22-.14.79-.29,1.44-.36.29,0,.29-.07.29-.36v-.07c0-.22-.07-.29-.29-.29h-.36l-1.08.07h-1.58l-1.94-.07h-1.22c-.22,0-.29.07-.29.22v.14c0,.36.07.36.29.36.72.07,1.3.22,1.51.36.29.22.36.5.36,1.87v9.79c0,1.22-.07,1.73-.36,1.87-.29.22-.58.29-1.51.36-.22,0-.29.07-.29.36v.07c0,.22.07.29.29.29h1.08c.72-.07,1.22-.07,1.51-.07h1.08c.29,0,.79,0,1.51.07h1.15c.22,0,.29-.07.29-.36Z"/>
      <path class="cls-2" d="M24.84,136.15c0-.29-.07-.36-.29-.36h-.94l-1.51.07h-1.44c-.43,0-.79-.07-.94-.07h-.29c-.22,0-.36.14-.36.36s.07.29.14.36c.07.07.14,0,.58.07.94.07,1.22.29,1.22.79,0,.29,0,.58-.14,1.01l-.22.65-2.95,9.14-3.02-9.07-.29-.79c-.14-.5-.22-.72-.22-1.01,0-.43.29-.65,1.37-.72h.43c.29,0,.36-.07.36-.36,0-.36-.14-.43-.58-.43-.14,0-.43,0-1.22.07h-3.38c-.65,0-.86,0-1.22-.07h-.14c-.29,0-.36.07-.36.36,0,.36.07.43.36.43.86.07,1.15.22,1.37.5.22.22.43.65.65,1.22l-3.24,9.79-3.31-9.36-.14-.43c-.22-.58-.22-.72-.22-.94,0-.5.29-.65,1.51-.79h.29c.22,0,.29-.07.29-.36,0-.36-.07-.43-.36-.43h-.36l-.94.07H1.66l-1.01-.07h-.29c-.29,0-.36.07-.36.43,0,.22,0,.29.07.29.07.07.14.07.43.07.79.14,1.08.22,1.37.5.14.14.21.36.43.86.22.43.29.79.36,1.01l4.54,12.17c.29.65.29.72.5.72h.5c.22,0,.29-.07.43-.43l3.74-11.23,3.96,11.02c.22.58.29.65.58.65h.43q.22,0,.36-.36l.14-.29,4.46-12.24.43-1.08c.14-.58.22-.65.43-.86s.5-.36,1.08-.43q.5-.07.58-.14v-.29Z"/>
      <path class="cls-2" d="M100.58,136.08c0-.22-.07-.29-.29-.29h-1.3c-.14,0-.72.07-1.73.07h-3.74l-3.24-.07h-2.95c-.29,0-.36,0-.36.14-.07.07-.07.14-.14.72l-.22,2.09v.5c0,.07.22.22.58.22.07,0,.14-.07.14-.22.22-.94.72-1.66,1.37-1.94.58-.29,1.22-.36,3.38-.36h.29v11.59c0,1.3-.07,1.66-.43,1.87-.22.14-.79.29-1.58.36-.43,0-.5.07-.5.29v.14c0,.22.07.29.29.29h1.44c.86-.07,1.58-.07,2.09-.07l2.45.07h1.15q.36,0,.36-.29v-.29c0-.14-.07-.14-.65-.22-.94-.07-1.3-.14-1.58-.22-.43-.22-.5-.58-.5-1.94v-11.59h1.01c.72,0,1.51,0,2.02.07.29.07.58.07.86.22.43.29.72.86.86,1.8q.07.36.43.36c.29,0,.36,0,.36-.22l.07-.43v-.5l.07-1.58v-.58Z"/>
    </g>
  </g>
</svg>