<?xml version="1.0" encoding="UTF-8"?>
<svg id="Layer_2" data-name="Layer 2" xmlns="http://www.w3.org/2000/svg" viewBox="0 0 83.16 118.15">
  <defs>
    <style>
      .cls-1, .cls-2 {
        fill: #fff;
      }

      .cls-1, .cls-3 {
        fill-rule: evenodd;
      }

      .cls-3 {
        fill: #231f20;
      }
    </style>
  </defs>
  <g id="Foreground">
    <g>
      <path class="cls-3" d="M69.41,70.2c.14-.14.29-.36.43-.65.36-.72.72-1.66,1.3-2.74.43-.94.79-1.51,1.22-2.3-.58.22-1.08.22-1.58.07-.5-.07-1.01-.29-1.37-.65v6.26h0ZM69.41,63.14v-2.74c.29,0,.5.07.79.14.72.07,1.44.29,1.94.72.94.79,1.08,1.51.72,2.23-.29.65-1.15.79-2.02.58-.65-.07-1.08-.36-1.44-.94h0ZM69.41,58.03v-7.2c.29.14.5.36.65.43,1.51,1.37,1.08,3.89-.65,6.77ZM67.9,69.98c-.07.29.43.72.72.72.36-.07.58-.22.79-.5v-6.26c-.07-.07-.14-.14-.22-.29l-1.3,6.34h0ZM69.41,50.83v7.2c-1.94,3.24-5.62,6.98-10.01,9.79-.36.22-.65.36-1.01.58v-7.34c5.62-4.18,8.78-9.65,7.49-12.6,1.15.72,2.66,1.73,3.53,2.38h0ZM69.41,60.41v2.74c-.07-.07-.07-.14-.14-.29l-.29-.65-.79,3.89c-.79-.07-1.37-.22-2.3-.43-.79-.22-1.44-.43-1.94-.65,1.73-1.51,3.24-3.1,4.54-4.68.29,0,.58.07.94.07h0ZM58.39,60.48c1.51-1.15,2.66-2.38,3.53-3.31-.79-.94-1.87-2.38-2.16-3.38-.43-1.3-.65-2.38-.36-3.46-.36.43-.65.79-1.01,1.15v9ZM58.39,51.48v9c-.22.22-.43.36-.65.5-.14-.07-.29-.36-.5-.65-.36-.43-.79-1.15-1.22-1.87-.58-1.15-.86-2.09-1.08-3.38,1.01-.94,2.3-2.3,2.3-2.3,0,0,.5-.58,1.15-1.3h0ZM58.39,61.06c-4.32,3.31-10.22,5.83-16.78,5.83s-12.46-2.59-16.85-5.9v7.34c5.62,3.38,11.16,4.54,16.85,4.46,5.62.07,11.16-1.08,16.78-4.39v-7.34h0ZM24.77,60.41v-8.93c.58.72,1.08,1.3,1.08,1.3,0,0,1.37,1.44,2.38,2.38-.22,1.3-.5,2.16-1.08,3.31-.43.72-.86,1.44-1.22,1.87-.14.29-.36.5-.43.65-.29-.22-.5-.43-.72-.58ZM24.77,51.48v8.93q-.07-.07-.14-.07c-1.3-1.08-2.45-2.23-3.38-3.31.86-.86,1.87-2.3,2.23-3.24.36-1.3.58-2.38.36-3.46.29.43.65.79.94,1.15h0ZM24.77,60.98c-5.54-4.25-8.64-9.65-7.49-12.53-1.15.72-2.59,1.73-3.53,2.38v7.13c2.02,3.31,5.69,7.06,10.08,9.86.29.14.58.36.94.5v-7.34h0ZM13.75,70.27v-6.34c.14-.07.22-.14.29-.29l1.22,6.34c.07.29-.36.72-.72.72-.29-.07-.5-.22-.79-.43h0ZM13.75,63.14v-2.74c.36-.07.72-.07,1.01-.14.65.86,1.3,1.66,2.09,2.45.58.58,1.22,1.22,1.87,1.8l.58.5c-.58.22-1.15.43-2.02.65-.94.22-1.51.36-2.3.43l-.72-3.89-.36.65c0,.07-.07.22-.14.29ZM13.75,50.83v7.13c-1.66-2.81-2.09-5.33-.58-6.7.14-.07.36-.29.58-.43h0ZM13.75,60.41v2.74c-.29.5-.72.79-1.44.94-.79.22-1.73.07-2.02-.58-.29-.72-.14-1.44.72-2.23.58-.43,1.22-.65,1.94-.72.29-.07.58-.14.79-.14h0ZM13.75,63.94c-.36.36-.86.58-1.37.65-.5.14-1.01.14-1.51-.07.36.79.72,1.37,1.22,2.3.5,1.08.86,2.02,1.22,2.74.14.29.29.5.43.72v-6.34Z"/>
      <polygon class="cls-1" points="22.82 65.88 22.75 63.65 24.77 63.14 24.12 62.71 22.39 63.14 22.39 63.14 23.26 61.99 22.68 61.56 20.66 64.22 21.24 64.66 22.1 63.5 22.1 63.5 22.18 65.38 22.82 65.88"/>
      <path class="cls-1" d="M27.07,66.53c.22-.36.29-.79.22-1.22-.07-.43-.36-.79-.86-1.08-.29-.22-.58-.29-.86-.29v.65c.22-.07.43,0,.58.14.5.29.65.86.29,1.44-.22.43-.58.58-.86.65v.58h.43c.43-.14.79-.43,1.08-.86ZM25.56,63.94c-.14,0-.29,0-.43.07-.43.07-.79.36-1.01.79-.29.43-.36.94-.22,1.37.07.36.36.72.79.94.29.22.58.29.86.29v-.58c-.22,0-.36-.07-.58-.14-.5-.29-.65-.86-.29-1.51.22-.36.58-.58.86-.58v-.65Z"/>
      <polygon class="cls-1" points="32.62 67.03 30.02 66.1 29.88 66.67 30.74 66.96 29.81 69.55 30.46 69.77 31.39 67.18 32.26 67.54 32.62 67.03"/>
      <polygon class="cls-1" points="34.56 70.99 34.7 70.42 33.48 70.13 33.7 69.34 34.7 69.55 34.85 69.05 33.84 68.76 34.06 68.04 35.06 68.26 35.42 67.75 33.55 67.32 32.69 70.49 34.56 70.99"/>
      <polygon class="cls-1" points="40.46 68.47 37.73 68.18 37.66 68.76 38.66 68.83 38.38 71.64 39.02 71.71 39.31 68.9 40.25 69.05 40.46 68.47"/>
      <path class="cls-1" d="M44.14,71.71l-1.37-3.31h-.29v.94c.07.14.07.29.14.43l.22.65h-.36v.58l.58-.07.36.86.72-.07ZM42.48,68.4h-.29l-1.22,3.38h.65l.36-.79h.5v-.58h-.36l.22-.65c.07-.14.14-.29.14-.43h0v-.94Z"/>
      <path class="cls-1" d="M48.46,71.14l-.5-3.24-.72.07.29,1.66c0,.14.07.36.07.5h0c-.14-.07-.22-.22-.36-.36l-1.66-1.51-.72.07.5,3.31.72-.14-.29-1.8c0-.14-.07-.29-.07-.43h0c.14.14.22.22.36.36l1.73,1.66.65-.14Z"/>
      <path class="cls-1" d="M52.7,69.62l-.43-1.37-.65.22.36,1.08c-.14.07-.29.14-.43.22-.72.22-1.22-.14-1.44-.79-.14-.58,0-1.15.86-1.44.29-.07.65-.07.94,0l-.22-.65c-.29,0-.58,0-1.01.14-1.08.36-1.58,1.3-1.3,2.23.29.86,1.15,1.44,2.16,1.08.5-.14.86-.43,1.15-.72Z"/>
      <path class="cls-1" d="M56.81,68.11l-2.09-1.94v.86l.36.43-.36.14v.65l.79-.43.65.65.65-.36ZM54.72,66.17l-.5-.5-.5.22.22,3.6.65-.29-.07-.86.22-.07v-.65l-.29.14-.07-.72v-.43h0c0,.14.14.22.29.36l.07.07v-.86Z"/>
      <polygon class="cls-1" points="57.96 63.58 55.66 65.02 55.94 65.52 56.74 65.02 58.25 67.32 58.82 66.96 57.31 64.66 58.1 64.15 57.96 63.58"/>
      <path class="cls-1" d="M62.64,64.15l-2.3-1.37v.79l.43.29-.43.36v1.73l.36-.29-.29-.79.86-.72.79.43.58-.43ZM60.34,62.78l-.86-.43-.36.29,1.01,3.46.22-.14v-1.73l-.14.07-.22-.65c0-.14-.07-.29-.14-.43h0c.14.07.22.14.36.29l.14.07v-.79Z"/>
      <path class="cls-1" d="M70.13,68.98c.29-.65.58-1.37,1.01-2.16.43-.94.79-1.51,1.22-2.3-.58.22-1.08.22-1.58.07-.22,0-.43-.07-.65-.22v-.5c.22.07.43.22.72.22.86.22,1.73.07,2.02-.58.36-.72.21-1.44-.72-2.23-.5-.43-1.22-.65-1.94-.72,0-.07-.07-.07-.07-.07v-.5c.07,0,.07.07.14.07.72.07,1.58.36,2.23.86,1.01.86,1.22,1.73.79,2.88-.65,1.3-1.08,1.94-1.73,3.24-.58,1.08-.86,2.02-1.3,2.74,0,.14-.07.22-.14.29v-1.08h0ZM70.13,57.82v-1.08c1.08-2.3,1.22-4.25,0-5.4v-.65c.14.07.22.14.29.22,1.66,1.51,1.3,4.03-.29,6.91ZM67.9,69.98c-.07.29.43.72.72.72.5-.07.86-.43,1.22-1.15.07-.22.22-.36.29-.58v1.08c-.36.65-.79,1.08-1.44,1.15-.58.07-1.37-.58-1.22-1.37l.65-3.24c-.79-.07-1.44-.22-2.38-.43-.94-.29-1.66-.5-2.23-.79-.72.65-1.51,1.22-2.3,1.8v-.58c4.18-3.02,7.42-6.77,8.93-9.86v1.08c-.36.65-.79,1.37-1.3,2.02.36.07.79.07,1.3.14v.5c-.58-.07-1.22-.07-1.66-.14-1.3,1.58-2.81,3.17-4.54,4.68.5.22,1.15.43,1.94.65.94.22,1.51.36,2.3.43l.79-3.89.29.65c.22.5.5.79.86,1.01v.5c-.36-.14-.72-.36-.94-.72l-1.3,6.34h0ZM70.13,50.69c-1.22-.86-5.04-3.38-5.11-3.46-.65-.43-1.22-.58-2.02-.58-.72.07-1.3.29-1.8.72v6.12c.36-.22.86-.29,1.22-.22.72,0,1.44.22,1.8.72-.5.86-1.15,1.8-1.87,2.66-.43-.36-.79-.79-1.15-1.3v.94c.22.29.5.65.72.86-.22.29-.43.5-.72.79v.72c3.53-3.46,5.47-7.2,4.9-9.65,0-.22-.07-.36-.14-.58,1.51,1.01,3.45,2.3,4.1,2.81,0,.07.07.07.07.07v-.65ZM61.2,47.38v6.12c-.29.07-.58.29-.72.5.14.43.43.94.72,1.37v.94c-.65-.86-1.22-1.8-1.44-2.52-.43-1.3-.65-2.38-.36-3.46-1.01,1.3-2.16,2.45-2.16,2.45,0,0-1.3,1.37-2.3,2.3.22,1.3.5,2.23,1.08,3.38.43.72.86,1.44,1.22,1.87.22.29.36.58.5.65,1.37-1.01,2.59-2.09,3.46-3.02v.72c-4.46,4.39-11.59,8.21-19.58,8.21s-15.12-3.89-19.58-8.28v-.72c.79.79,1.66,1.66,2.59,2.45.29.22.58.36.86.65.07-.14.29-.36.43-.65.36-.43.79-1.15,1.22-1.87.58-1.15.86-2.02,1.08-3.31-1.01-.94-2.38-2.38-2.38-2.38,0,0-1.01-1.15-2.02-2.45.22,1.08,0,2.16-.36,3.46-.29.65-.79,1.58-1.44,2.38v-.79c.29-.5.58-.94.79-1.37-.22-.22-.5-.43-.79-.58v-6.12c.43.36.72.79,1.08,1.3,1.08,1.58,3.1,3.82,3.1,3.82,0,0,1.44,1.51,2.45,2.45l.14.22c-.29,1.44-.58,2.38-1.22,3.6-.43.79-.86,1.51-1.22,2.02-.22.22-.36.43-.43.58,4.03,2.95,9.43,5.11,15.7,5.11s11.66-2.16,15.7-5.11c-.14-.14-.29-.36-.5-.58-.36-.5-.79-1.22-1.22-2.02-.58-1.22-.94-2.16-1.15-3.6l.07-.22c1.01-.94,2.45-2.45,2.45-2.45,0,0,2.02-2.23,3.17-3.82h.07c.29-.43.58-.94,1.01-1.22h0ZM61.2,66.6c-.58.43-1.22.79-1.8,1.22-5.98,3.74-11.81,5.04-17.78,4.97-5.98.07-11.81-1.22-17.79-4.97-.65-.43-1.22-.86-1.8-1.3v.65c.5.36,1.01.72,1.51,1.08,6.05,3.82,12.02,5.11,18.07,5.04,6.05.07,11.95-1.22,18-5.04.58-.36,1.08-.72,1.58-1.08v-.58ZM22.03,47.3v6.12c-.36-.14-.79-.22-1.22-.14-.65,0-1.37.22-1.73.72.5.86,1.08,1.73,1.8,2.66.43-.36.79-.86,1.15-1.3v.79c-.29.29-.58.58-.79.86.22.29.5.58.79.86v.72c-3.82-3.74-5.69-7.78-4.75-10.15-1.44.94-3.53,2.3-4.1,2.81q-.07.07-.14.14v-.65c1.15-.86,4.25-2.88,5.33-3.6.65-.43,1.15-.5,1.87-.5.72.07,1.3.29,1.8.65h0ZM22.03,66.53c-4.18-3.02-7.49-6.77-9-9.94v1.15c.43.65.86,1.37,1.37,2.09-.36.07-.86.07-1.37.14v.5c.65-.07,1.3-.14,1.73-.22.65.86,1.3,1.66,2.09,2.45.58.58,1.22,1.22,1.87,1.8l.58.5c-.58.22-1.15.43-2.02.65-.94.22-1.51.36-2.3.43l-.72-3.89-.36.65c-.22.5-.5.79-.86,1.01v.5c.36-.14.72-.36,1.01-.72l1.22,6.34c.07.29-.36.72-.72.72-.5-.07-.86-.43-1.22-1.15-.07-.22-.14-.36-.29-.58v1.08c.36.58.79,1.08,1.44,1.15s1.44-.58,1.3-1.37l-.65-3.24c.79-.07,1.37-.22,2.3-.43.94-.29,1.66-.5,2.3-.79.72.65,1.51,1.22,2.3,1.8v-.65ZM13.03,50.76v.65c-1.15,1.08-1.01,3.02,0,5.18v1.15c-1.58-2.81-1.87-5.4-.22-6.84.07-.07.14-.07.22-.14h0ZM13.03,59.98v.5l-.07.07c-.72.07-1.37.29-1.94.72-.86.79-1.01,1.51-.72,2.23.29.65,1.22.79,2.02.58.29,0,.5-.14.72-.22v.5c-.22.14-.43.22-.65.22-.5.14-1.01.14-1.51-.07.36.79.72,1.37,1.22,2.3.36.79.65,1.51.94,2.16v1.08c-.07-.07-.07-.14-.14-.29-.36-.72-.72-1.66-1.3-2.74-.65-1.3-1.08-1.94-1.73-3.24-.43-1.15-.22-2.02.86-2.88.65-.5,1.44-.79,2.16-.86.07,0,.14-.07.14-.07Z"/>
      <path class="cls-1" d="M67.82.43v27.79s.07,2.52-.86,6.41c-1.01,3.89-3.17,9.22-7.63,14.98-3.38,4.39-7.85,7.92-11.45,10.37-3.24,2.23-5.76,3.53-6.26,3.82-.58-.29-3.24-1.58-6.62-3.89-3.74-2.59-8.42-6.41-11.95-11.38-3.6-5.04-5.47-10.3-6.48-14.33s-1.08-6.84-1.08-6.84V.43h52.34Z"/>
      <path class="cls-3" d="M21.6,6.62h40.1v21.38s0,7.49-5.98,16.34c-5.18,7.56-14.11,12.38-14.11,12.38,0,0-9.86-5.9-14.76-13.68-5.54-8.71-5.26-16.34-5.26-16.34V6.62Z"/>
      <path class="cls-1" d="M67.82.43h-26.14v-.43h26.64v28.22s.43,10.08-8.57,21.67c-6.7,8.57-17.35,14.04-18.07,14.4v-.58c.58-.29,3.02-1.58,6.19-3.74,3.6-2.45,8.06-5.98,11.45-10.37,4.46-5.76,6.62-11.09,7.63-14.98.94-3.89.86-6.41.86-6.41V.43ZM41.69.43H15.48v26.93s.07,2.81,1.08,6.84,2.88,9.29,6.48,14.33c3.53,4.97,8.21,8.78,11.95,11.38,3.38,2.3,6.05,3.6,6.62,3.89l.07-.07v.58c-.07,0-.07.07-.07.07,0,0-3.02-1.44-6.91-4.1-3.82-2.59-8.5-6.41-12.1-11.45-7.27-10.22-7.63-21.38-7.63-21.38V0h26.71v.43Z"/>
      <path class="cls-3" d="M65.45,3.02c.65,1.51,1.01,3.1,1.15,4.32.43,3.02-.72,3.46-1.8,2.88v-3.38c.29.14.5.36.58.65-.07-.58-.14-.86-.36-1.73-.07-.22-.14-.43-.22-.65v-2.38c.22.07.43.14.65.29h0ZM64.8,36v-2.74c1.15-3.74.94-7.63.94-7.63-.36.58-.65,1.01-.94,1.44v-1.8c.58-.86,1.22-1.8,1.8-3.1,0,0,.58,6.34-.86,11.88-.29.94-.58,1.58-.94,1.94h0ZM64.8,30.67c.14-.22.22-.5.29-.79.07-.58-.07-.86-.29-1.01v1.8h0ZM64.8,23.47c.86-1.51,1.58-3.17,1.94-4.82.65-3.31-1.08-3.1-1.94-1.8v2.3c.36.07.79-.22.94-.65-.29,1.08-.58,1.87-.94,2.66v2.3h0ZM64.8,15.12v-3.67c1.08-.5,2.02,1.58,1.37,3.17-.43.94-1.01.94-1.37.5ZM64.8,10.22c-.72-.43-1.44-1.44-1.51-2.38-.07-1.44.86-1.51,1.51-1.01v3.38h0ZM64.8,5.11c-.07-.36-.29-.72-.43-1.08-.43-.22-1.08-.43-1.66-.65-.86-.22-1.15-.22-1.73-.36.94.43,1.58,2.23-.43,2.09-2.23-.14-4.61-4.03.5-3.31,1.15.14,2.45.5,3.74.94v2.38h0ZM64.8,11.45v3.67c-.14-.22-.29-.58-.22-1.01-.43,1.3-.5,1.94-.65,3.31v5.33c.36-.58.65-1.08.86-1.58v2.3c-.58.94-1.15,1.94-1.87,2.81v-8.93c.07-1.37.22-2.16.58-3.53.36-1.44.86-2.16,1.3-2.38h0ZM64.8,16.85c-.22.36-.36.79-.43,1.3,0,.65.22.94.43,1.01v-2.3h0ZM64.8,25.27c-.79,1.3-1.58,2.3-2.02,3.96-.94,3.67,1.29,3.1,2.02,1.44v-1.8c-.29-.22-.79.07-1.01.65.29-1.08.65-1.73,1.01-2.45v-1.8h0ZM64.8,33.26v2.74c-1.3,1.51-2.81-1.08-1.94-2.81.79-1.51,1.87-.29,1.8.72.07-.22.14-.43.14-.65h0ZM57.02,50.54v-2.16c.65-.22,1.37-.5,2.16-.94,0,0-.72,1.3-2.16,3.1h0ZM57.02,47.45c1.8-.65,3.46-1.44,4.54-2.95,2.59-3.6-.07-3.53-1.51-1.94-1.01,1.08.14,1.58.94,1.15-1.37,1.37-2.23,1.87-3.6,2.45,0,0,2.02-4.03,4.61-6.84-.65.79-.58,2.16.94,1.37,2.16-1.08,1.66-6.05-1.58-2.23-1.08,1.22-2.02,2.59-2.81,3.74-.58.86-1.08,1.58-1.51,2.3v2.95ZM57.02,44.5v2.95c-.72.22-1.44.43-2.16.65.65-1.08,1.29-2.23,2.16-3.6h0ZM57.02,48.38v2.16c-1.44,1.8-3.46,4.03-6.12,5.9-4.1,2.88-3.82-1.15-1.66-2.23,1.58-.79,1.66.58,1.01,1.3,3.6-2.02,6.12-5.83,6.12-5.83-1.66.58-2.59.79-4.18,1.87.79-.43,1.94.07.94,1.15-1.51,1.51-4.97.79-1.51-1.94,1.66-1.37,3.31-1.58,5.4-2.38h0ZM41.62,62.28h0c1.51-.65,2.81-1.44,3.82-2.23,4.1-3.1-.43-4.32-2.02-2.66-1.37,1.44.14,2.02,1.37,1.58,0,0-.86.58-1.66,1.08-.5.29-1.08.58-1.51.79v1.44h0ZM41.62,5.47v-1.44c1.94-1.08,4.1-2.02,6.26-2.38,4.9-.94,3.02,2.23.58,2.38-1.66.07-1.3-1.15-.29-1.44-2.09.58-3.24.94-4.9,1.8h5.83c1.51,0,3.24-.14,4.68-.58-1.15.14-2.23-.94-.5-1.66,2.52-.94,6.26,1.37.86,2.74-1.58.36-3.46.5-5.04.58h-7.49ZM41.62,3.02c.79-.43,1.58-.94,2.37-1.44h-2.37v1.44ZM41.62,1.58v1.44c-1.94,1.08-4.1,2.02-6.26,2.38-4.9.86-3.02-2.23-.65-2.38,1.73-.07,1.37,1.08.36,1.37,2.09-.5,3.17-.86,4.9-1.8h-5.83c-1.51.07-3.24.22-4.68.65,1.15-.14,2.23.94.5,1.58-1.44.58-3.31.07-3.6-.72v-.5c.22-.5,1.01-1.01,2.74-1.44,1.58-.43,3.46-.58,5.04-.58h7.49ZM41.62,4.03c-.79.43-1.58.94-2.38,1.44h2.38v-1.44h0ZM41.62,60.84v1.44c-1.51-.65-2.81-1.44-3.82-2.23-4.1-3.1.43-4.32,2.02-2.66,1.37,1.44-.14,2.02-1.37,1.58,0,0,.86.58,1.66,1.08.5.29,1.08.58,1.51.79h0ZM26.35,50.54c1.44,1.8,3.46,4.03,6.12,5.9,4.1,2.88,3.74-1.15,1.58-2.23-1.51-.79-1.58.58-.94,1.3-3.6-2.02-6.12-5.83-6.12-5.83,1.58.58,2.59.79,4.18,1.87-.86-.43-1.94.07-.94,1.15,1.51,1.51,4.97.79,1.51-1.94-1.66-1.37-3.31-1.58-5.4-2.38v2.16h0ZM26.35,47.45v-2.95c.86,1.37,1.51,2.52,2.16,3.6-.72-.22-1.44-.43-2.16-.65ZM26.35,3.6v.5c-.07-.14-.07-.29,0-.5h0ZM26.35,44.5v2.95c-1.8-.65-3.46-1.44-4.54-2.95-2.59-3.6.07-3.53,1.51-1.94,1.01,1.08-.14,1.58-.94,1.15,1.37,1.37,2.23,1.87,3.6,2.45,0,0-2.02-4.03-4.61-6.84.65.79.58,2.16-.94,1.37-2.16-1.08-1.66-6.05,1.58-2.23,1.08,1.22,2.02,2.59,2.81,3.74.58.86,1.08,1.58,1.51,2.3h0ZM26.35,48.38v2.16c-1.44-1.8-2.16-3.1-2.16-3.1.79.43,1.51.72,2.16.94h0ZM18.58,36c1.3,1.51,2.81-1.08,1.94-2.81-.72-1.51-1.8-.29-1.73.72-.07-.22-.14-.43-.22-.65v2.74h0ZM18.58,30.67v-1.8c.29-.22.79.07,1.08.65-.36-1.08-.65-1.73-1.08-2.45v-1.8c.86,1.3,1.58,2.3,2.02,3.96.94,3.67-1.22,3.1-2.02,1.44h0ZM18.58,23.47c.58.94,1.22,1.94,1.87,2.81v-8.93c-.07-1.37-.14-2.16-.58-3.53-.36-1.44-.86-2.16-1.3-2.38v3.67c.22-.22.29-.58.22-1.01.43,1.3.5,1.94.65,3.31v5.33c-.36-.58-.65-1.08-.86-1.58v2.3h0ZM18.58,19.15v-2.3c.22.36.36.79.43,1.3.07.65-.14.94-.43,1.01h0ZM18.58,10.22v-3.38c.65-.5,1.58-.43,1.51,1.01-.07.94-.79,1.94-1.51,2.38h0ZM18.58,5.18c.14-.43.29-.79.43-1.15.5-.22,1.08-.43,1.73-.65.79-.22,1.08-.22,1.73-.36-1.01.43-1.66,2.23.36,2.09,2.3-.14,4.68-4.03-.5-3.31-1.08.14-2.45.5-3.74.94v2.45ZM18.58,2.74v2.45c-.07.14-.14.36-.22.58-.22.86-.22,1.15-.36,1.73.14-.29.36-.5.58-.65v3.38c-1.08.58-2.23.14-1.8-2.88.14-1.22.58-2.81,1.15-4.32.22-.14.43-.22.65-.29h0ZM18.58,11.45v3.67c-.36.43-.94.43-1.37-.5-.65-1.58.29-3.67,1.37-3.17h0ZM18.58,16.85c-.86-1.3-2.59-1.51-1.87,1.8.29,1.66,1.01,3.31,1.87,4.82v-2.3c-.36-.79-.65-1.58-.94-2.66.14.43.58.72.94.65v-2.3h0ZM18.58,25.27v1.8c-.29-.43-.58-.86-.94-1.44,0,0-.14,3.89.94,7.63v2.74c-.36-.36-.65-1.01-.86-1.94-1.51-5.54-.94-11.88-.94-11.88.65,1.3,1.22,2.23,1.8,3.1h0ZM18.58,28.87c-.22.14-.29.43-.22,1.01,0,.29.07.58.22.79v-1.8Z"/>
      <path class="cls-3" d="M62.35,49.97c.07.36.29.58.65.58s.65-.29.65-.65c0-.14-.07-.29-.14-.43-.14-.07-.22-.14-.36-.22-.5-.14-1.08.07-1.44.65-.43.72.07,1.8.94,2.16.94.36,2.74-.14,2.95-2.02.14-1.3-.29-2.09-1.15-2.59-1.08-.58-3.31-.29-3.82,1.73l.14.07c1.01-1.37,2.23-1.37,3.02-.94,1.01.5,1.01,1.87.5,2.45-.43.65-1.15.72-1.66.36-.29-.14-.5-.72-.29-1.15h0ZM20.88,49.97c0,.36-.29.58-.58.58-.36,0-.65-.29-.65-.65,0-.14,0-.29.14-.43.07-.07.22-.14.36-.22.43-.14,1.01.07,1.37.65.5.72,0,1.8-.86,2.16-.94.36-2.81-.14-3.02-2.02-.14-1.3.36-2.09,1.15-2.59,1.08-.58,3.38-.29,3.82,1.73l-.07.07c-1.08-1.37-2.3-1.37-3.02-.94-1.08.5-1.01,1.87-.58,2.45.43.65,1.15.72,1.73.36.29-.14.43-.72.22-1.15Z"/>
      <path class="cls-1" d="M44.71,51.62l-3.1-2.16-3.02,2.16,1.15-3.53-3.02-2.23h3.74l1.15-3.53,1.22,3.53h3.74l-3.02,2.23,1.15,3.53h0ZM44.06,15.26l-2.45-1.8-2.38,1.8.94-2.88-2.45-1.73h3.02l.86-2.81.94,2.81h3.02l-2.45,1.73.94,2.88h0ZM59.47,30.82l-2.38-1.73-2.45,1.73.94-2.81-2.45-1.8h3.02l.94-2.81.86,2.81h3.02l-2.45,1.8.94,2.81h0ZM28.58,30.82l-2.45-1.73-2.38,1.73.86-2.81-2.38-1.8h2.95l.94-2.81.94,2.81h2.95l-2.38,1.8.94,2.81Z"/>
      <path class="cls-1" d="M31.18,20.95h.72v17.21h8.5c.22,0,.29,0,.36-.07.14-.07.43-.22.65-.43.14-.14.22-.22.29-.36,0,.14.07.22.22.36.22.22.5.36.65.43.07.07.14.07.36.07h8.5v-17.21h.72v17.78h-8.71c0,.65-.65.58-1.73.58-1.15,0-1.8.07-1.8-.58h-8.71v-17.78Z"/>
      <path class="cls-3" d="M50.26,36.07l.65.94v-17.21c-.14-.14-.43-.29-.65-.43h0v-.58s.07.07.14.07c.29.22,1.01.65,1.01.65v18.65h-1.15v-.5h.43l-.43-.65v-.94ZM50.11,19.3c-.07-.07-.22-.14-.36-.29v16.42l.5.65v.94l-.86-1.3c-.29.07-.72.07-1.08.07-.72-.07-1.73-.14-2.59-.58-.07,0-.07-.07-.14-.07v-.58c.07.07.14.07.22.14,1.51.72,3.46.58,3.46.58v-16.78s-1.87.22-3.46-.5c-.07,0-.14-.07-.22-.07v-.58c.14.07.22.14.29.14.86.36,1.73.5,2.52.58.65,0,1.3-.07,1.37-.07.07.14.07.43.5.79v.58l-.14-.07h0ZM50.26,37.66v.5h-4.68v-.5h4.68ZM45.58,17.35v.58c-.58-.36-1.01-.79-2.3-.72-1.01.07-1.37.72-1.37.72v16.49s.43-.43,1.37-.5c1.22-.07,1.73.36,2.3.65v.58c-.29-.14-.58-.36-.86-.5-.36-.14-.79-.29-1.51-.22-.5.07-.79.22-1.01.43-.14.07-.22.14-.29.29v1.66c.07.07.14.29.36.5.22.22.43.36.58.36h2.74v.5h-2.66c-.22,0-.29,0-.36-.07-.14-.07-.43-.22-.65-.43-.07-.14-.22-.22-.29-.29,0,.07-.14.14-.22.29-.22.22-.5.36-.65.43-.07.07-.14.07-.22.07h-2.81v-.5h2.74c.22-.07.36-.14.58-.36.22-.22.29-.43.36-.5v-1.66c-.07-.14-.14-.22-.29-.29-.22-.22-.5-.36-1.01-.43-.72-.07-1.15.07-1.51.22-.29.14-.58.36-.86.5v-.58c.58-.29,1.08-.72,2.3-.65,1.01.07,1.37.5,1.37.5v-16.49s-.36-.65-1.37-.72c-1.3-.07-1.73.36-2.3.72v-.58c.22-.14.43-.29.65-.36.43-.22.94-.36,1.73-.29.65.07,1.08.29,1.37.58.07.07.14.07.14.14.07-.07.14-.07.21-.14.29-.29.72-.5,1.37-.58.79-.07,1.29.07,1.73.29.22.07.43.22.65.36ZM37.73,17.35v.58c-.07,0-.14.07-.22.07-1.58.72-3.46.5-3.46.5v16.78s1.94.14,3.46-.58c.07-.07.14-.07.22-.14v.58c-.07,0-.07.07-.14.07-.86.43-1.87.5-2.59.58-.36,0-.79,0-1.08-.07l-.86,1.3v-.94l.5-.65v-16.42c-.14.14-.29.22-.36.29q-.07.07-.14.07v-.58c.43-.36.43-.65.5-.79.07,0,.72.07,1.37.07.79-.07,1.66-.22,2.52-.58.07,0,.14-.07.29-.14h0ZM37.73,37.66v.5h-4.68v-.5h4.68ZM33.05,18.79v.58c-.29.14-.5.29-.65.43v17.21l.65-.94v.94l-.43.65h.43v.5h-1.15v-18.65s.72-.43,1.01-.65c.07,0,.14-.07.14-.07Z"/>
      <path class="cls-1" d="M50.26,37.66v-.65l.43.65h-.43ZM50.26,36.07l.65.94v-17.21c-.14-.14-.36-.29-.65-.43v16.7ZM33.05,37.66h7.42c.22-.07.36-.14.58-.36.22-.22.29-.43.36-.5v-1.66c-.07-.14-.14-.22-.29-.29-.22-.22-.5-.36-1.01-.43-.72-.07-1.15.07-1.51.22-.36.22-.65.43-1.01.58-.86.43-1.87.5-2.59.58-.36,0-.79,0-1.08-.07l-.86,1.3v.65h0ZM50.26,19.37v16.7l-.5-.65v-16.42c.14.14.29.22.36.29q.07.07.14.07h0ZM50.26,37.01l-.86-1.3c-.29.07-.72.07-1.08.07-.72-.07-1.73-.14-2.59-.58-.36-.14-.65-.36-1.01-.58-.36-.14-.79-.29-1.51-.22-.5.07-.79.22-1.01.43-.14.07-.22.14-.29.29v1.66c.07.07.14.29.36.5.22.22.36.29.58.36h7.42v-.65h0ZM33.05,36.07v-16.7q.07,0,.14-.07c.07-.07.22-.14.36-.29v16.42l-.5.65ZM32.62,37.66h.43v-.65l-.43.65h0ZM33.05,19.37v16.7l-.65.94v-17.21c.14-.14.36-.29.65-.43Z"/>
      <path class="cls-1" d="M41.9,34.42v-16.49s.36-.65,1.37-.72c1.44-.14,1.87.5,2.52.79,1.58.72,3.46.5,3.46.5v16.78s-1.94.14-3.46-.58c-.65-.36-1.15-.86-2.52-.79-.94.07-1.37.5-1.37.5h0ZM41.4,34.42v-16.49s-.36-.65-1.37-.72c-1.44-.14-1.87.5-2.52.79-1.58.72-3.46.5-3.46.5v16.78s1.94.14,3.46-.58c.65-.36,1.15-.86,2.52-.79,1.01.07,1.37.5,1.37.5Z"/>
      <path class="cls-3" d="M48.6,33.41s-.72.22-2.02-.14c-1.01-.36-1.51-.86-2.38-.94-.86-.07-1.66.14-1.66.14,0,0,.72-.58,1.51-.58,1.15,0,1.73.58,2.74.94,1.15.43,1.8.58,1.8.58h0ZM48.6,31.75s-.65-.14-1.8-.5c-1.01-.36-1.58-1.01-2.74-1.01-.79.07-1.51.58-1.51.58,0,0,.79-.14,1.66-.14.86.07,1.37.65,2.38.94,1.3.36,2.02.14,2.02.14h0ZM48.6,30.17s-.72.22-2.02-.14c-1.01-.29-1.51-.86-2.38-.94-.86-.07-1.66.14-1.66.14,0,0,.72-.58,1.51-.58,1.15,0,1.73.58,2.74.94,1.15.43,1.8.58,1.8.58h0ZM48.6,28.51s-.65-.07-1.8-.5c-1.01-.36-1.58-.94-2.74-.94-.79,0-1.51.58-1.51.58,0,0,.79-.22,1.66-.14.86,0,1.37.58,2.38.86,1.3.36,2.02.14,2.02.14h0ZM48.6,26.93s-.72.22-2.02-.14c-1.01-.29-1.51-.86-2.38-.94-.86-.07-1.66.14-1.66.14,0,0,.72-.58,1.51-.58,1.15,0,1.73.58,2.74.94,1.15.43,1.8.58,1.8.58h0ZM48.6,25.27s-.65-.07-1.8-.5c-1.01-.36-1.58-.94-2.74-.94-.79,0-1.51.58-1.51.58,0,0,.79-.22,1.66-.14.86.07,1.37.58,2.38.86,1.3.36,2.02.14,2.02.14h0ZM48.6,23.69s-.72.22-2.02-.14c-1.01-.29-1.51-.86-2.38-.94-.86-.07-1.66.14-1.66.14,0,0,.72-.58,1.51-.58,1.15,0,1.73.65,2.74.94,1.15.43,1.8.58,1.8.58h0ZM48.6,22.1s-.65-.14-1.8-.58c-1.01-.36-1.58-.94-2.74-.94-.79,0-1.51.58-1.51.58,0,0,.79-.22,1.66-.14.86.07,1.37.58,2.38.94,1.3.36,2.02.14,2.02.14h0ZM48.6,20.45s-.72.22-2.02-.14c-1.01-.29-1.51-.86-2.38-.94-.86-.07-1.66.14-1.66.14,0,0,.72-.58,1.51-.58,1.15,0,1.73.65,2.74.94,1.15.43,1.8.58,1.8.58h0ZM34.7,33.41s.72.22,2.02-.14c1.01-.36,1.51-.86,2.38-.94.86-.07,1.66.14,1.66.14,0,0-.72-.58-1.51-.58-1.15,0-1.73.58-2.74.94-1.15.43-1.8.58-1.8.58h0ZM34.7,31.75s.65-.14,1.8-.5c1.01-.36,1.58-1.01,2.74-1.01.79.07,1.51.58,1.51.58,0,0-.79-.14-1.66-.14-.86.07-1.37.65-2.38.94-1.3.36-2.02.14-2.02.14h0ZM34.7,30.17s.72.22,2.02-.14c1.01-.29,1.51-.86,2.38-.94.86-.07,1.66.14,1.66.14,0,0-.72-.58-1.51-.58-1.15,0-1.73.58-2.74.94-1.15.43-1.8.58-1.8.58h0ZM34.7,28.51s.65-.07,1.8-.5c1.01-.36,1.58-.94,2.74-.94.79,0,1.51.58,1.51.58,0,0-.79-.22-1.66-.14-.86,0-1.37.58-2.38.86-1.3.36-2.02.14-2.02.14h0ZM34.7,26.93s.72.22,2.02-.14c1.01-.29,1.51-.86,2.38-.94.86-.07,1.66.14,1.66.14,0,0-.72-.58-1.51-.58-1.15,0-1.73.58-2.74.94-1.15.43-1.8.58-1.8.58h0ZM34.7,25.27s.65-.07,1.8-.5c1.01-.36,1.58-.94,2.74-.94.79,0,1.51.58,1.51.58,0,0-.79-.22-1.66-.14-.86.07-1.37.58-2.38.86-1.3.36-2.02.14-2.02.14h0ZM34.7,23.69s.72.22,2.02-.14c1.01-.29,1.51-.86,2.38-.94.86-.07,1.66.14,1.66.14,0,0-.72-.58-1.51-.58-1.15,0-1.73.65-2.74.94-1.15.43-1.8.58-1.8.58h0ZM34.7,22.1s.65-.14,1.8-.58c1.01-.36,1.58-.94,2.74-.94.79,0,1.51.58,1.51.58,0,0-.79-.22-1.66-.14-.86.07-1.37.58-2.38.94-1.3.36-2.02.14-2.02.14h0ZM34.7,20.45s.72.22,2.02-.14c1.01-.29,1.51-.86,2.38-.94.86-.07,1.66.14,1.66.14,0,0-.72-.58-1.51-.58-1.15,0-1.73.65-2.74.94-1.15.43-1.8.58-1.8.58Z"/>
      <path class="cls-1" d="M3.96,86.33q0-.07-.07-.07H.29v.22l-.07.58v.07H.22c0,.07.07.07.14.07h.07c0-.29.14-.5.36-.58.14-.07.29-.07.86-.07h.07v3.1c0,.36,0,.43-.07.5-.07.07-.22.07-.43.07-.14,0-.14.07-.14.14h0q0,.07.07.07h1.94q.07,0,.07-.07v-.07h0s0-.07-.14-.07c-.29,0-.36,0-.43-.07-.14,0-.14-.14-.14-.5v-3.1h.79c.07,0,.14.07.22.07.14.07.22.22.29.5q0,.07.07.07c.07,0,.14,0,.14-.07v-.79Z"/>
      <path class="cls-1" d="M10.08,90.36h0c0-.07,0-.14-.14-.14h-.14c-.29,0-.29-.07-.29-.58v-2.59c0-.5,0-.58.29-.58h.14c.07-.07.14-.07.14-.14h0c0-.07-.07-.07-.07-.07h-1.66q-.07,0-.07.07h0q0,.07.14.14h.14c.22,0,.29.07.29.58v1.01h-2.16v-1.01c0-.5.07-.58.29-.58h.14q.14-.07.14-.14h0q0-.07-.07-.07h-1.66q-.07,0-.07.07h0q0,.07.14.14h.14c.29,0,.29.07.29.58v2.59c0,.29,0,.36-.07.43,0,.07,0,.14-.22.14h-.14c-.14,0-.14.07-.14.14h0q0,.07.07.07h1.73q.07,0,.07-.07h0c0-.07,0-.14-.14-.14h-.14c-.29,0-.36-.07-.36-.58v-1.22h2.16v1.22c0,.5-.07.5-.36.58h-.14c-.14,0-.14.07-.14.14h0q0,.07.07.07h1.73q.07,0,.07-.07Z"/>
      <path class="cls-1" d="M14.98,89.42s-.07-.07-.14-.07c0,0-.07,0-.07.07-.14.36-.22.5-.43.58-.29.07-.43.14-.86.14-.5,0-.58-.07-.58-.43v-1.3h.5c.58,0,.65,0,.72.07,0,.07.07.22.07.43,0,0,0,.07.07.07s.14-.07.14-.14v-1.22c0-.07-.07-.07-.14-.07s-.07,0-.07.07c0,.36-.14.43-.43.43h-.72l-.14.07v-1.58h.5c.43,0,.65,0,.79.07.14.07.29.29.36.5v.07h.07c.07,0,.14,0,.14-.07v-.07c-.07-.07-.07-.22-.07-.5v-.14c0-.14-.07-.14-.22-.14h-2.74q-.07,0-.07.07h0c0,.07,0,.14.07.14h.22c.07,0,.14,0,.14.07.14,0,.14.14.14.5v2.74q0,.22-.07.29v.07c-.07.07-.22.07-.43.07l-.07.07v.07h0q0,.07.07.07h2.95q.14,0,.14-.14v-.07l.07-.29c0-.22.07-.36.07-.43v-.07Z"/>
      <path class="cls-1" d="M24.34,86.33h0c0-.07-.07-.07-.07-.07h-1.58v.07h-.07c0,.07.07.14.22.14.22,0,.36.07.43.14,0,.07.07.22.07.43v1.66c0,.5-.07.72-.14.94-.22.36-.58.5-1.08.5s-.94-.14-1.08-.43c-.07-.29-.14-.5-.14-1.08v-1.58q0-.07.07-.14v-.22c0-.07,0-.14.07-.14.07-.07.22-.07.5-.14q.07,0,.07-.07h0v-.07h-1.87v.07c0,.07,0,.14.07.14h.07c.22,0,.36.07.36.14v2.52c0,.29.07.58.22.79.07.14.21.29.36.36.29.22.65.29,1.08.29.79,0,1.37-.29,1.58-.72.22-.36.22-.5.22-1.3v-1.51c0-.29.07-.5.14-.5.07-.07.22-.07.36-.14.07,0,.14,0,.14-.07Z"/>
      <path class="cls-1" d="M30.38,86.33q0-.07-.07-.07h-1.44c-.07,0-.14,0-.14.07s.07.14.14.14h.29c.14,0,.22.07.22.14.07.07.07.14.07.43l.07,2.38-2.45-3.17h-1.15q-.07,0-.07.14s.07.07.14.07c.22,0,.36.07.5.22l-.07,2.81-.07.22c0,.22,0,.36-.07.43-.07,0-.07.07-.22.07h-.14q-.14.07-.14.14t.07.07h1.44q.14,0,.14-.07,0-.07-.07-.14h-.29c-.14-.07-.22-.14-.29-.22v-2.95l2.66,3.38q.07.07.14.07s0,.07.07.07.14-.07.14-.07v-3.46c0-.29.07-.43.14-.5.07-.07.14-.07.36-.07q.07-.07.07-.14Z"/>
      <path class="cls-1" d="M33.84,90.36h0v-.07l-.07-.07h-.14c-.29,0-.36-.07-.36-.36v-3.17c0-.07.07-.14.07-.14.07-.07.22-.07.43-.14q.07,0,.07-.07h0q0-.07-.07-.07h-1.73v.07h0q0,.07.07.07c.14.07.36.07.36.14.07,0,.14.14.14.5v2.59c0,.36-.07.5-.14.5-.07.07-.14.07-.36.07-.07,0-.07.07-.07.14h0q0,.07.07.07h1.66q.07,0,.07-.07Z"/>
      <path class="cls-1" d="M39.96,86.33q0-.07-.07-.07h-1.37q-.07,0-.07.07t.07.14h.07q.22,0,.29.07c.07,0,.07.07.07.07,0,.07,0,.14-.07.22,0,.14-.07.22-.07.22l-.07.22-.86,2.38-1.08-2.52-.07-.22c-.07-.14-.07-.22-.07-.29s.07-.14.43-.14h.07q.07-.07.07-.14,0-.07-.07-.07h-1.73q-.07,0-.07.07,0,.07.07.14c.14,0,.29,0,.36.07q.07.07.29.5l.14.29,1.3,3.1.07.07q0,.07.07.07h.14l.07-.07v-.07l1.3-3.1c.07-.14.07-.22.07-.22.07-.14.07-.29.14-.36.07-.07.07-.14.14-.22.07-.07.14-.07.29-.07q.07-.07.14-.07v-.07Z"/>
      <path class="cls-1" d="M44.71,89.42s-.07-.07-.14-.07c0,0-.07,0-.07.07-.14.36-.21.5-.43.58-.29.07-.43.14-.86.14-.5,0-.58-.07-.58-.43v-1.3h.5c.58,0,.65,0,.72.07,0,.07.07.22.07.43,0,0,0,.07.07.07s.14-.07.14-.14v-1.22c0-.07-.07-.07-.14-.07s-.07,0-.07.07c0,.36-.14.43-.43.43h-.72l-.14.07v-1.58h.5c.43,0,.65,0,.79.07.14.07.29.29.36.5v.07h.07c.07,0,.14,0,.14-.07v-.07c-.07-.07-.07-.22-.07-.5v-.14c0-.14-.07-.14-.22-.14h-2.74q-.07,0-.07.07h0c0,.07,0,.14.07.14h.22c.07,0,.14,0,.22.07.07,0,.07.14.07.5v2.74q0,.22-.07.29v.07c-.07.07-.22.07-.43.07l-.07.07v.07h0q0,.07.07.07h2.95q.14,0,.14-.14v-.07l.07-.29c0-.22.07-.36.07-.43v-.07Z"/>
      <path class="cls-1" d="M50.33,90.36q0-.07-.07-.07c-.22,0-.5-.22-.72-.43-.14-.22-.36-.58-.58-1.01-.22-.36-.29-.43-.43-.65.5-.14.79-.58.79-1.01,0-.36-.14-.72-.43-.86-.22-.14-.43-.14-.79-.22v.36c.36.14.58.36.58.79s-.22.72-.58.86v.58c.07.07.14.22.22.43.29.65.5.86.72,1.15.21.14.43.22.79.22.14,0,.43,0,.5-.07v-.07h0ZM48.1,90.43v-.14.07h0v.07ZM48.1,86.11h-.36c-.36,0-.94.07-1.37.14h-.14v.07q0,.07.07.07l.14.07c.22,0,.29,0,.36.07,0,.07,0,.14.07.36v2.88q-.07.14-.07.22v.07c0,.07-.07.07-.07.07-.07.07-.14.07-.29.07h-.07c-.07,0-.07.07-.07.14s0,.07.07.07h1.73v-.14c0-.07-.07-.07-.07-.07h-.14c-.14,0-.29-.07-.36-.14v-1.66h.22c.14,0,.22.07.36.29v-.58c-.14,0-.29.07-.5.07h-.07v-1.8h.14c.14,0,.29.07.43.07v-.36Z"/>
      <path class="cls-1" d="M54.65,89.28c0-.29-.07-.58-.29-.79-.14-.22-.36-.29-.72-.5-.58-.29-.65-.36-.79-.5-.14-.14-.22-.29-.22-.43,0-.36.36-.58.79-.58s.72.22.86.65c0,.07.07.07.07.07.07,0,.14,0,.14-.07h0v-.07l-.07-.5v-.07c0-.07,0-.14-.07-.14-.14-.14-.58-.22-.86-.22-.86,0-1.44.43-1.44,1.15,0,.29.22.65.43.86.22.07.43.22.65.36.5.29.65.36.79.5.07.14.14.29.14.43,0,.5-.36.79-.86.79-.43,0-.79-.29-1.01-.72l-.07-.14v-.07c-.14,0-.22.07-.22.07v.07l.07.14.07.58v.07c.07.07.07.14.14.14.22.14.58.22.94.22.94,0,1.51-.5,1.51-1.3Z"/>
      <path class="cls-1" d="M58.18,90.36h0v-.07l-.07-.07h-.14c-.29,0-.36-.07-.36-.36v-3.17c0-.07.07-.14.07-.14.07-.07.22-.07.43-.14q.07,0,.07-.07h0q0-.07-.07-.07h-1.73v.07h0q0,.07.07.07c.14.07.36.07.36.14.14,0,.14.14.14.5v2.59c0,.36-.07.5-.14.5-.07.07-.14.07-.36.07-.07,0-.07.07-.07.14h0q0,.07.07.07h1.66q.07,0,.07-.07Z"/>
      <path class="cls-1" d="M63.43,86.33q0-.07-.07-.07h-3.6v.22l-.07.58v.07h0c0,.07.07.07.14.07h.07c0-.29.14-.5.36-.58.14-.07.29-.07.86-.07h.07v3.1c0,.36,0,.43-.07.5-.07.07-.22.07-.43.07-.14,0-.14.07-.14.14h0q0,.07.07.07h1.94q.07,0,.07-.07v-.07h0s0-.07-.14-.07c-.29,0-.36,0-.43-.07-.14,0-.14-.14-.14-.5v-3.1h.79c.07,0,.14.07.22.07.14.07.22.22.22.5q.07.07.14.07t.14-.07v-.79Z"/>
      <path class="cls-1" d="M69.12,86.33q0-.07-.07-.07h-1.44q-.07,0-.07.07v.07h.07l.14.07c.14,0,.29,0,.29.14,0,.07-.07.22-.22.43l-.72,1.22-.79-1.3c-.07-.22-.14-.29-.14-.36s.14-.14.36-.14h.07c.07-.07.14-.07.14-.14s0-.07-.07-.07h-1.8q-.07,0-.07.07t.07.07l.07.07c.22,0,.36.07.5.36.07,0,.07.07.14.14l1.01,1.66v1.01c0,.36,0,.43-.07.5-.07.07-.22.07-.43.07-.14,0-.14.07-.14.14h0q0,.07.07.07h1.94q.07,0,.07-.07h0c0-.07,0-.14-.22-.14-.36,0-.43-.07-.5-.14,0,0,0-.07-.07-.22v-1.22l1.08-1.66c.22-.36.29-.43.36-.43.07-.07.22-.07.29-.14q.14,0,.14-.07Z"/>
      <path class="cls-1" d="M78.26,88.13c0-1.15-.86-2.02-2.09-2.02h-.07v.36c.86,0,1.51.86,1.51,1.94s-.65,1.8-1.51,1.8h0v.36c1.22-.07,2.09-.94,2.16-2.3v-.14ZM76.1,86.11c-1.3.07-2.23,1.01-2.23,2.38,0,1.22.86,2.09,2.09,2.09h.14v-.36c-.94,0-1.51-.86-1.51-2.02,0-1.08.58-1.73,1.44-1.73h.07v-.36Z"/>
      <path class="cls-1" d="M82.94,87.12h0v-.07l-.07-.58v-.14q0-.07-.07-.07h-2.81v.14l.14.07c.36,0,.36.07.36.58v3.02c-.07.07-.14.14-.36.14q-.14.07-.14.14t.07.07h1.94v-.07h0v-.07q0-.07-.07-.07c-.36,0-.58,0-.65-.07-.07-.07-.07-.14-.07-.36v-1.37h1.08l.07.07c.07.07.07.22.07.29,0,.14.07.22.07.22.14,0,.14-.07.14-.14h0v-1.22q0-.07-.07-.07-.07,0-.14.07c0,.22-.07.36-.14.43-.14,0-.29.07-.86.07h-.22v-1.58h.29c.5,0,.72,0,.86.07.14.07.29.22.36.36v.14c0,.07.07.07.07.07.07,0,.14,0,.14-.07Z"/>
      <path class="cls-1" d="M59.11,114.48c0,.79-.58,1.66-1.44,1.87v-.36c.43-.29.86-1.08.86-1.73,0-.5-.14-.72-.43-.72-.14,0-.29.07-.43.14v-.29c.14-.07.29-.07.43-.07.5,0,1.01.36,1.01,1.15ZM57.67,116.35c-.14.07-.29.07-.43.07-.5,0-1.01-.43-1.01-1.15,0-.79.58-1.66,1.44-1.87v.29c-.43.36-.86,1.15-.86,1.8,0,.5.14.72.43.72.14,0,.29-.07.43-.22v.36Z"/>
      <path class="cls-1" d="M12.1,113.18c-.07.14-1.51,2.23-1.51,2.23-.22.22-.58.86-.65,1.01h-.36c.07-1.44.22-3.74.22-4.18q0-.5-.5-.5v-.22h1.8v.22c-.5,0-.58.14-.65.58l-.14,2.81v.14l.14-.22c.14-.22.29-.43.5-.72.36-.5.86-1.15,1.15-1.58l.07-.72c0-.22-.14-.29-.43-.29v-.29c.07.07.43.07.79.07h.79v.22c-.43,0-.5.07-.58.72l-.14,1.94c0,.36-.07.94-.07,1.01.07.07,2.16-3.02,2.16-3.46,0-.14-.07-.29-.36-.22v-.22h1.37v.22c-.36,0-.43.07-.72.5-1.01,1.87-2.38,3.6-2.81,4.18h-.29l.22-3.24Z"/>
      <path class="cls-1" d="M16.13,114.55h0c0-.07.07-.07.07-.14.07-.22.22-.5.36-.86.43-1.08.72-1.94.72-2.02s-.07-.14-.14-.14h-.79q-.07,0-.14.07v.07c0,.07.07.07.22.14q.14,0,.14.07c0,.07-.07.36-.14.65-.07.22-.22.5-.29.72v1.44h0q.07-.07.14-.14c.07-.14.22-.29.36-.43.22-.36.58-.65.94-.65.29,0,.43.14.43.58,0,.29-.14.72-.29,1.15-.07.14-.14.36-.22.5-.07.14-.07.22-.07.22q0,.07.07.07c.07,0,.14-.07.29-.14.07-.14.22-.29.22-.29l.14.14c-.29.36-.72.86-1.22.86-.14,0-.22-.14-.22-.22,0-.14.07-.29.14-.43.07-.22.14-.43.22-.65.22-.43.43-.79.43-1.08,0-.07-.07-.14-.21-.14-.29,0-.72.43-1.15,1.08v-.43h0ZM16.13,114.55v.07-.07.43c-.22.36-.43.79-.58,1.22-.07.14-.14.14-.29.14-.22,0-.29,0-.29-.14,0-.07.22-.5.43-1.08.22-.5.43-1.15.58-1.58.07-.14.14-.29.14-.43v1.44h0Z"/>
      <path class="cls-1" d="M20.38,115.27q-.07,0-.07.07c-.07,0-.14.07-.14.22-.07.07-.14.22-.22.29v-.36c.43-.5.79-1.3.79-1.51s-.07-.36-.29-.36-.36.07-.5.22v-.29c.14-.14.36-.14.58-.14h.5v-.07h.07c0-.07.07-.07.07-.07,0,0,.07,0,.14.07.07,0,.14.07.14.14s-.07.22-.14.43c-.07.22-.14.43-.29.72-.22.58-.36,1.08-.36,1.22v.07h0q.07,0,.14-.07c.07-.07.14-.14.22-.22q.07-.07.14-.14l.07-.07.07-.07c.07,0,.14.07.14.14,0,0-.65.94-1.15.94-.14,0-.22-.14-.22-.29,0-.22.07-.36.14-.58,0-.07.07-.14.07-.22v-.07h.07ZM19.94,115.85c-.43.43-.72.58-.94.58-.29,0-.5-.22-.5-.65,0-.5.43-1.8,1.44-2.23v.29c-.5.36-.86,1.22-.86,1.8,0,.29.07.29.14.29.22,0,.43-.22.72-.43v.36Z"/>
      <path class="cls-1" d="M22.03,116.35c-.07,0-.07-.07-.07-.14,0,0,.07-.14.07-.36.07-.14.21-.36.29-.65.14-.5.36-1.01.36-1.22,0-.14-.07-.14-.07-.14-.07,0-.14.07-.22.14-.14.07-.22.22-.22.29-.07,0-.07.07-.07.07h-.07c-.07,0-.14,0-.14-.07,0-.14.72-.94,1.08-.94.14,0,.22.07.22.22s-.07.36-.14.65l-.07.36v.14-.07c.14-.14.29-.5.5-.79s.43-.5.65-.5c.14,0,.29.14.29.36,0,.29-.14.43-.29.43s-.22-.14-.22-.22h0q0-.07-.07-.07h0c-.14,0-.5.36-1.15,1.94l-.22.43c0,.07-.07.07-.07.14h-.36Z"/>
      <path class="cls-1" d="M25.78,115.78h0c.14-.07.22-.14.22-.14l.07-.07h.07q.07,0,.07.07c0,.07-.14.29-.43.43v-.29h0ZM25.78,113.4c.14-.07.29-.07.43-.07.43,0,.65.22.65.5,0,.43-.58.72-1.08.79v-.29c.36-.14.58-.29.58-.58,0-.07-.07-.22-.22-.22s-.22.07-.36.14v-.29ZM25.2,115.99c.22,0,.43-.07.58-.22v.29c-.22.22-.5.36-.86.36-.43,0-.79-.36-.79-.86,0-.94.86-1.87,1.66-2.16v.29c-.22.22-.43.5-.58.72.22,0,.43-.07.58-.07v.29h-.72c-.14.22-.29.5-.29.86,0,.29.14.5.43.5Z"/>
      <path class="cls-1" d="M32.26,113.18c0,.14-1.44,2.23-1.44,2.23-.22.22-.58.86-.65,1.01h-.36c0-1.44.22-3.74.22-4.18,0-.5-.07-.5-.58-.5v-.22h1.87v.22c-.5,0-.58.14-.65.58l-.14,2.81v.14l.14-.22c.14-.22.29-.43.5-.72.36-.5.79-1.15,1.15-1.58v-.72c.07-.22-.07-.29-.36-.29v-.29c.07.07.43.07.79.07h.79v.22c-.43,0-.58.07-.58.72l-.14,1.94c0,.36-.07.94-.07,1.01s2.16-3.02,2.16-3.46c0-.14-.14-.29-.36-.22v-.22h1.37v.22c-.36,0-.5.07-.72.5-1.08,1.87-2.38,3.6-2.81,4.18h-.36l.22-3.24Z"/>
      <path class="cls-1" d="M36,115.27l-.07.07s-.07.07-.14.22c-.07.07-.14.22-.22.29v-.36c.43-.5.86-1.3.86-1.51s-.07-.36-.36-.36c-.14,0-.29.07-.5.22v-.29c.22-.14.43-.14.65-.14h.43q.07,0,.07-.07h.07q0-.07.07-.07s.07,0,.14.07c.07,0,.14.07.14.14s-.07.22-.14.43c-.07.22-.14.43-.29.72-.22.58-.43,1.08-.43,1.22q0,.07.07.07h0q.07,0,.14-.07c.07-.07.14-.14.14-.22.07-.07.14-.07.22-.14,0-.07.07-.07.07-.07,0,0,0-.07.07-.07s.07.07.07.14c0,0-.58.94-1.08.94-.14,0-.29-.14-.29-.29,0-.22.07-.36.14-.58.07-.07.07-.14.14-.22v-.07h0ZM35.57,115.85c-.36.43-.65.58-.94.58-.22,0-.43-.22-.43-.65,0-.5.43-1.8,1.37-2.23v.29c-.43.36-.79,1.22-.79,1.8,0,.29.07.29.14.29.22,0,.43-.22.65-.43v.36Z"/>
      <path class="cls-1" d="M38.66,114.41l.07-.07c.07-.07.14-.14.22-.29.07-.07.14-.22.29-.29.22-.22.5-.43.79-.43s.5.22.5.5-.14.72-.36,1.15c-.07.22-.14.36-.22.5-.07.14-.14.29-.14.29,0,.07.07.07.07.07.07,0,.43-.29.58-.43l.14.14c-.43.5-1.01.86-1.3.86-.14,0-.22-.07-.22-.22,0-.07.07-.14.14-.36.07-.14.14-.43.29-.65.22-.5.43-1.01.43-1.22,0-.14-.07-.22-.22-.22-.43,0-1.22,1.08-1.66,2.09l-.07.29c0,.14-.07.14-.07.22h-.43s-.07,0-.07-.07.07-.22.14-.43c.07-.22.22-.43.29-.72.22-.5.36-1.01.36-1.22v-.07c-.07,0-.22.14-.36.29l-.22.14c0,.07-.07.07-.07.07l-.07.07c-.07,0-.07-.07-.07-.14,0-.14.94-.94,1.22-.94.14,0,.29.07.29.22s-.07.36-.14.5l-.07.22-.07.14h0Z"/>
      <path class="cls-1" d="M42.84,115.27l-.07.07s-.07.07-.14.22c-.07.07-.14.22-.22.29v-.36c.43-.5.86-1.3.86-1.51s-.14-.36-.36-.36c-.14,0-.36.07-.5.22v-.29c.22-.14.43-.14.65-.14h.43q.07,0,.07-.07h.07q0-.07.07-.07s.07,0,.14.07c.07,0,.14.07.14.14s-.07.22-.14.43c-.07.22-.22.43-.29.72-.22.58-.43,1.08-.43,1.22v.07h.07s.07,0,.14-.07c.07-.07.14-.14.14-.22.07-.07.14-.07.22-.14q0-.07.07-.07s0-.07.07-.07.07.07.07.14c0,0-.58.94-1.08.94-.14,0-.29-.14-.29-.29,0-.22.07-.36.14-.58.07-.07.07-.14.14-.22v-.07h0ZM42.41,115.85c-.36.43-.65.58-.94.58-.22,0-.43-.22-.43-.65,0-.5.43-1.8,1.37-2.23v.29c-.43.36-.86,1.22-.86,1.8,0,.29.07.29.22.29.22,0,.43-.22.65-.43v.36Z"/>
      <path class="cls-1" d="M45.65,114.41l.07-.07c.07-.07.14-.14.22-.29.07-.07.14-.22.29-.29.22-.22.5-.43.79-.43s.5.22.5.5-.22.72-.36,1.15c-.07.22-.14.36-.22.5-.07.14-.14.29-.14.29q0,.07.07.07c.07,0,.43-.29.58-.43l.14.14c-.43.5-1.01.86-1.3.86-.14,0-.22-.07-.22-.22,0-.07,0-.14.14-.36.07-.14.14-.43.29-.65.22-.5.43-1.01.43-1.22,0-.14-.07-.22-.22-.22-.43,0-1.3,1.08-1.66,2.09l-.07.29q-.07.14-.07.22h-.43s-.07,0-.07-.07.07-.22.14-.43c.07-.22.14-.43.29-.72.22-.5.36-1.01.36-1.22v-.07c-.07,0-.22.14-.36.29l-.22.14-.07.07-.07.07c-.07,0-.07-.07-.07-.14,0-.14.86-.94,1.22-.94.14,0,.29.07.29.22s-.07.36-.14.5l-.14.22v.14h0Z"/>
      <path class="cls-1" d="M48.89,115.56h0v-.36c.07.07.22.14.36.14.5,0,.86-.79.86-1.15s-.22-.58-.5-.58c-.36,0-.58.22-.72.5v-.65c.22-.07.43-.14.65-.14.29,0,.43.07.58.14l.07.07.07.07h.14l.14-.07c.07-.07.22-.07.36-.07s.29.07.29.22c0,.22-.14.29-.29.29-.07,0-.14-.07-.22-.07h-.22c0,.07.07.14.07.5,0,.43-.36,1.22-1.22,1.22-.22,0-.29-.07-.43-.07h0ZM48.89,115.99c.14.07.36.22.5.29.5.22,1.01.5,1.01.86,0,.43-.5.94-1.51,1.01v-.29c.58,0,.94-.22.94-.5,0-.14-.14-.29-.36-.43-.14-.07-.29-.14-.43-.14,0-.07-.07-.07-.14-.07v-.72ZM48.89,115.56c-.07,0-.07-.07-.14-.07l-.07-.07c-.14.14-.22.22-.22.22,0,.14.14.22.29.29q.07.07.14.07v.72c-.07-.07-.14-.07-.14-.14-.58.29-.79.43-.79.72s.36.58.86.58h.07v.29h-.29c-.79,0-1.3-.43-1.3-.79s.29-.65,1.15-.94l-.07-.07c-.07,0-.14-.07-.22-.14-.07-.07-.22-.22-.22-.43,0-.14.07-.22.22-.29.07-.07.22-.14.36-.22-.22-.22-.29-.5-.29-.72,0-.43.29-.79.65-1.08v.65c-.07.22-.14.43-.14.65s.07.36.14.43v.36Z"/>
      <path class="cls-1" d="M52.78,115.27q-.07,0-.07.07c-.07,0-.07.07-.14.22-.07.07-.14.22-.22.29v-.36c.43-.5.79-1.3.79-1.51s-.07-.36-.29-.36-.36.07-.5.22v-.29c.14-.14.36-.14.65-.14h.43l.07-.07h0c0-.07.07-.07.07-.07.07,0,.14,0,.14.07.07,0,.14.07.14.14s0,.22-.14.43c-.07.22-.14.43-.22.72-.21.58-.43,1.08-.43,1.22v.07h.07s.07,0,.07-.07c.07-.07.14-.14.22-.22.07-.07.14-.07.14-.14l.07-.07c.07,0,.07-.07.07-.07.07,0,.14.07.14.14,0,0-.65.94-1.08.94-.22,0-.29-.14-.29-.29,0-.22.07-.36.14-.58,0-.07.07-.14.07-.22l.07-.07h0ZM52.34,115.85c-.36.43-.65.58-.94.58s-.5-.22-.5-.65c0-.5.5-1.8,1.44-2.23v.29c-.5.36-.86,1.22-.86,1.8,0,.29.07.29.22.29s.36-.22.65-.43v.36Z"/>
      <path class="cls-1" d="M64.08,113.18c-.07.14-1.51,2.23-1.51,2.23-.14.22-.5.86-.58,1.01h-.36c0-1.44.22-3.74.22-4.18,0-.5-.07-.5-.58-.5v-.22h1.87v.22c-.5,0-.65.14-.65.58l-.14,2.81c0,.07-.07.14-.07.14l.21-.22c.14-.22.29-.43.5-.72.36-.5.79-1.15,1.15-1.58v-.72c0-.22-.07-.29-.43-.29v-.29c.14.07.5.07.86.07h.79v.22c-.43,0-.58.07-.58.72l-.14,1.94c0,.36-.07.94-.07,1.01s2.16-3.02,2.16-3.46c0-.14-.14-.29-.36-.22v-.22h1.3v.22c-.29,0-.43.07-.65.5-1.08,1.87-2.38,3.6-2.81,4.18h-.36l.21-3.24Z"/>
      <path class="cls-1" d="M67.82,115.27l-.07.07s-.07.07-.14.22c-.07.07-.14.22-.22.29v-.36c.43-.5.86-1.3.86-1.51s-.07-.36-.36-.36c-.14,0-.29.07-.5.22v-.29c.22-.14.43-.14.65-.14h.43q.07,0,.07-.07h.07q0-.07.07-.07s.07,0,.14.07c.07,0,.14.07.14.14s-.07.22-.14.43c-.07.22-.14.43-.29.72-.22.58-.43,1.08-.43,1.22q0,.07.07.07h0q.07,0,.14-.07c.07-.07.14-.14.22-.22,0-.07.07-.07.14-.14,0-.07.07-.07.07-.07,0,0,0-.07.07-.07s.07.07.07.14c0,0-.58.94-1.08.94-.14,0-.29-.14-.29-.29,0-.22.07-.36.14-.58.07-.07.07-.14.14-.22v-.07h0ZM67.39,115.85c-.36.43-.65.58-.94.58-.22,0-.43-.22-.43-.65,0-.5.43-1.8,1.37-2.23v.29c-.43.36-.79,1.22-.79,1.8,0,.29.07.29.14.29.22,0,.43-.22.65-.43v.36Z"/>
      <path class="cls-1" d="M69.41,114.19l.07-.07c.14-.22.65-.72,1.01-.72.14,0,.22.07.22.22,0,.29-.14.79-.36,1.3-.14.22-.22.5-.29.65-.07.22-.14.36-.14.36q0,.07.07.07c.07,0,.22-.07.29-.22.14-.07.29-.22.36-.29h0l.14.14h0c-.07.07-.14.14-.22.22-.14.07-.22.22-.29.29-.22.14-.43.29-.72.29-.14,0-.22-.07-.22-.22,0-.22.22-.72.36-1.15.14-.29.22-.5.29-.65.07-.22.14-.36.14-.43s0-.07-.07-.07-.14.07-.29.14c-.07.07-.14.22-.22.22v.07l-.14-.14h0ZM70.85,111.53c.14,0,.29.14.29.29,0,.22-.14.36-.29.36-.22,0-.36-.14-.36-.36,0-.14.14-.29.36-.29Z"/>
      <path class="cls-1" d="M72.94,113.54c.22-.14.43-.29.72-.29s.58.14.58.5c0,.58-.79.94-1.15,1.08,0,.29.14,1.01.29,1.73.22.72.5,1.37.79,1.37.14,0,.14-.07.14-.07q0-.07-.07-.07v-.07h.14c.07,0,.14,0,.14.14s-.14.29-.36.29c-.43,0-.94-.65-1.22-1.58v-1.94c.43-.22.79-.5.79-.79,0-.14-.07-.22-.22-.22s-.36.07-.58.22v-.29h0ZM72.94,111.38h.22c.07,0,.14,0,.14.14,0,.07-.07.22-.14.36l-.22.72v-1.22ZM72.43,113.83h0q.07,0,.14-.07c.07-.07.14-.14.29-.22h.07v.29c-.29.14-.5.36-.65.43l-.22.65c.22,0,.58-.14.86-.29v1.94c-.22-.43-.29-.94-.36-1.51l-.29.14-.29.07-.22.65c-.07.14-.14.29-.14.36s-.07.07-.14.07h-.29c-.07,0-.14-.07-.14-.07,0-.07.22-.79.79-2.38.29-.86.5-1.37.58-1.66.14-.36.14-.43.14-.5s0-.07-.07-.07c-.07-.07-.22-.07-.36-.07h-.07v-.22h.86v1.22l-.36.94-.07.22-.07.07v.07-.07h0Z"/>
      <path class="cls-1" d="M76.1,115.27v.07c-.07,0-.14.07-.14.22-.14.07-.22.22-.29.29v-.36c.43-.5.86-1.3.86-1.51s-.07-.36-.29-.36-.36.07-.58.22v-.29c.22-.14.43-.14.65-.14h.5v-.07h.07c0-.07.07-.07.07-.07,0,0,.07,0,.14.07.07,0,.14.07.14.14s-.07.22-.14.43c-.07.22-.14.43-.29.72-.22.58-.36,1.08-.36,1.22v.07h0q.07,0,.14-.07c.07-.07.14-.14.22-.22q.07-.07.14-.14c0-.07.07-.07.07-.07l.07-.07c.07,0,.07.07.07.14,0,0-.58.94-1.08.94-.14,0-.22-.14-.22-.29,0-.22.07-.36.14-.58,0-.07.07-.14.07-.22v-.07q.07,0,0,0ZM75.67,115.85c-.36.43-.65.58-.86.58-.29,0-.5-.22-.5-.65,0-.5.43-1.8,1.37-2.23v.29c-.43.36-.79,1.22-.79,1.8,0,.29.07.29.14.29.22,0,.43-.22.65-.43v.36Z"/>
      <path class="cls-1" d="M79.27,113.4h.29c.07,0,.14.07.14.22,0,.07-.07.22-.14.22h-.36c-.07,0-.14,0-.14.07l-.58,1.58-.07.22c-.07,0-.07.07-.07.07q0,.07.14.07c.07,0,.22-.14.43-.29l.22-.14.14-.07v-.07h.07s.07.07.07.14-.14.22-.5.5c-.36.29-.72.5-.94.5s-.29-.14-.29-.22c0-.14.07-.43.14-.58l.65-1.66v-.14h-.36c-.07,0-.14-.07-.14-.07,0-.07.07-.07.07-.07v-.07l.07-.22h.5q.07,0,.07-.07l.22-.5c.07,0,.07-.07.07-.07h.36c0-.07.07-.07.07-.07,0,0,.07.07.07.14h0v.07l-.07.07-.14.36v.07h0Z"/>
      <path class="cls-1" d="M82.8,114.48c0,.79-.58,1.66-1.44,1.87v-.36c.43-.29.86-1.08.86-1.73,0-.5-.22-.72-.5-.72-.07,0-.22.07-.36.14v-.29c.07-.07.22-.07.36-.07.58,0,1.08.36,1.08,1.15ZM81.36,116.35c-.14.07-.29.07-.43.07-.5,0-1.08-.43-1.08-1.15,0-.79.58-1.66,1.51-1.87v.29c-.43.36-.94,1.15-.94,1.8,0,.5.22.72.5.72.14,0,.29-.07.43-.22v.36Z"/>
      <path class="cls-1" d="M.5,112.54l.07-.07c.07-.14.14-.43.29-.65,0-.14.07-.29.14-.36.07-.07.07-.14.14-.14s.14.07.14.07c.07,0,.07.07.14.07.07.07.22.14.58.14h2.09c.43,0,.58-.07.79-.22.07,0,.14-.07.22-.07s.07.07.07.14c0,.14-.07.58-.14,1.15q-.07.14-.22.14c-.07,0-.14,0-.14-.14,0-.58-.22-.72-.86-.72-.29,0-.36.07-.43.5l-.72,2.59c-.07.36-.21.79-.21.94s.21.22.65.22v.22H.94v-.22c.58,0,.72-.07.86-.58l.79-3.02c.07-.14.14-.36.14-.5s-.07-.14-.58-.14c-.58,0-.86.07-1.37.65h-.29Z"/>
      <path class="cls-1" d="M5.54,115.78h.07c.07-.07.14-.14.21-.14l.07-.07h0c.07,0,.14,0,.14.07s-.22.29-.5.43v-.29h0ZM5.54,113.4c.14-.07.29-.07.43-.07.43,0,.65.22.65.5,0,.43-.58.72-1.08.79v-.29c.36-.14.58-.29.58-.58,0-.07-.07-.22-.22-.22s-.22.07-.36.14v-.29ZM5.04,115.99c.14,0,.36-.07.5-.22v.29c-.22.22-.5.36-.79.36-.5,0-.86-.36-.86-.86,0-.94.86-1.87,1.66-2.16v.29c-.22.22-.43.5-.58.72.22,0,.43-.07.58-.07v.29h-.65c-.14.22-.36.5-.36.86,0,.29.22.5.5.5Z"/>
      <rect class="cls-2" x="35.64" y="112.54" width="1.66" height=".29"/>
      <path class="cls-1" d="M27.58,106.56v-.22c0-.14-.07-.22-.22-.22-.36,0-.65-.07-.86-.14-.21-.07-.29-.29-.5-.65l-.22-.43-3.89-9.22c-.14-.29-.22-.29-.43-.29h-.43v2.3l1.66,4.18h-1.66v.86h2.02l.79,2.16.14.36c.07.07.07.14.07.22.07.14.07.22.07.29,0,.14-.22.29-.72.36h-.36s-.07,0-.07.07c-.07,0-.07.07-.07.14v.14c0,.14,0,.22.14.22h4.25c.22,0,.29-.07.29-.14ZM21.02,95.4c-.07.07-.14.22-.14.36l-3.89,9.07c-.22.65-.36.79-.5,1.01-.07.07-.22.14-.29.14-.14.07-.29.14-.65.22-.14,0-.22.07-.22.22,0,.22.07.29.22.29h.36c.65,0,1.15-.07,1.37-.07.29,0,.79.07,1.51.07h.36c.22,0,.22-.07.22-.29s0-.29-.29-.29c-.72,0-1.08-.14-1.08-.5,0-.14.14-.5.22-.79l.79-2.09h2.02v-.86h-1.66l1.58-4.25.07.07v-2.3Z"/>
      <path class="cls-1" d="M47.74,106.42c0-.14,0-.22-.14-.22l-.14-.07c-.36,0-.65-.14-.86-.22-.29-.22-.5-.36-1.22-1.15l-3.74-4.25,2.74-2.66c.79-.79,1.37-1.22,1.73-1.44.22-.07.43-.14.94-.22q.22-.07.22-.29v-.14c0-.07,0-.14-.14-.14h-.65c-.5.07-.86.07-1.15.07l-1.37-.07h-.79c-.14,0-.22.07-.22.29s.07.29.29.29c.5,0,.72.07.72.29,0,.29-.22.58-1.01,1.37l-2.3,2.45v1.58l2.52,3.02c.43.43.58.72.58.86,0,.22-.22.36-.79.36-.22,0-.29.07-.29.29s.07.29.29.29h.86c.65-.07,1.15-.07,1.51-.07s.79,0,1.44.07h.72c.21,0,.29-.07.29-.29h0ZM40.61,106.7v-.58h.29c.36,0,.43.07.43.29v.07c0,.14-.07.22-.22.22h-.5ZM40.61,96.19v-.58h.36c.22,0,.22.07.22.22v.07c0,.22,0,.29-.36.29h-.22ZM40.61,100.3l-.72.72.72.86v-1.58h0ZM40.61,95.62v.58h-.14c-.72.14-.79.29-.79,1.51v6.91c0,.58.07.94.14,1.15,0,.14.36.29.79.36v.58h-.36c-.43-.07-.79-.07-1.08-.07h-.72c-.22,0-.5,0-1.08.07h-.72c-.14,0-.22-.07-.22-.22v-.07c0-.22.07-.29.36-.29h.36c.22-.07.43-.14.5-.22.22-.07.29-.43.29-1.3v-6.91c0-1.22-.07-1.37-.79-1.51h-.36c-.29,0-.36-.07-.36-.29v-.07c0-.14.07-.22.22-.22h.72c.5,0,.86.07,1.08.07h.72c.22,0,.58-.07,1.08-.07h.36Z"/>
      <path class="cls-1" d="M61.13,106.56v-.22c0-.14-.07-.22-.29-.22-.29,0-.58-.07-.79-.14-.22-.07-.29-.29-.5-.65l-.22-.43-3.96-9.22q-.14-.29-.36-.29h-.43v2.3l1.66,4.18h-1.66v.86h2.02l.79,2.16.14.36c.07.07.07.14.07.22.07.14.07.22.07.29,0,.14-.22.29-.72.36h-.36s-.07,0-.14.07c0,0-.07.07-.07.14v.14c0,.14.07.22.22.22h4.25c.22,0,.29-.07.29-.14ZM54.58,95.4c-.07.07-.14.22-.22.36l-3.82,9.07c-.22.65-.36.79-.5,1.01-.07.07-.22.14-.29.14-.14.07-.29.14-.65.22-.22,0-.22.07-.22.22,0,.22,0,.29.22.29h.36c.65,0,1.08-.07,1.37-.07s.79.07,1.51.07h.36c.22,0,.22-.07.22-.29s0-.29-.36-.29c-.65,0-1.01-.14-1.01-.5,0-.14.07-.5.22-.79l.79-2.09h2.02v-.86h-1.73l1.66-4.25.07.07v-2.3Z"/>
      <path class="cls-1" d="M83.16,100.66c0-3.1-2.23-5.33-5.4-5.33h-.36v.86c2.3.07,3.96,2.3,3.96,5.26,0,2.74-1.58,4.68-3.89,4.68h-.07v.86c3.31-.07,5.62-2.52,5.76-6.05v-.29ZM77.4,95.33c-3.31.14-5.69,2.66-5.69,6.12,0,3.24,2.23,5.54,5.47,5.54h.22v-.86c-2.23-.07-3.96-2.3-3.96-5.26s1.51-4.68,3.89-4.68h.07v-.86Z"/>
      <path class="cls-1" d="M34.06,106.49v-.14c0-.14-.07-.14-.22-.14l-.36-.07c-.79-.07-.94-.22-1.01-.94v-7.49s0-.22.07-.58v-.29c0-.22.07-.36.22-.43.14-.14.58-.22,1.01-.29q.22,0,.22-.22v-.07c0-.14,0-.22-.22-.22h-.29l-.72.07h-1.08l-1.37-.07h-.86c-.14,0-.22.07-.22.14v.14q0,.22.14.29c.5,0,.94.07,1.08.22.22.14.29.36.29,1.3v6.91c0,.86-.07,1.22-.29,1.3-.22.14-.36.22-1.01.22q-.22.07-.22.29v.07c0,.14.07.22.22.22h.72c.58-.07.86-.07,1.08-.07h.72c.22,0,.58,0,1.08.07h.79c.22,0,.22-.07.22-.22Z"/>
      <path class="cls-1" d="M17.5,95.9c0-.22-.07-.29-.21-.29h-.65l-1.08.07h-1.01c-.29,0-.5-.07-.65-.07h-.22c-.14,0-.22.07-.22.29,0,.14,0,.22.07.22q.07.07.43.07c.65.07.86.22.86.58,0,.14-.07.36-.14.65l-.14.5-2.09,6.41-2.16-6.41-.14-.5c-.14-.36-.14-.5-.14-.72,0-.29.22-.43.94-.5h.29c.22,0,.29-.07.29-.29s-.07-.29-.43-.29c-.07,0-.29,0-.79.07h-2.38c-.5,0-.65,0-.94-.07h-.14c-.14,0-.14.07-.14.29q0,.29.22.29c.58.07.79.14,1.01.36.14.14.22.43.36.86l-2.23,6.91-2.3-6.62-.14-.29c-.14-.43-.14-.5-.14-.65,0-.36.22-.5,1.01-.58h.22c.22,0,.22-.07.22-.29s0-.29-.22-.29h-.29l-.65.07H1.15l-.72-.07h-.14c-.22,0-.29.07-.29.36,0,.07,0,.14.07.22h.29c.58.07.79.14.94.36.07.07.14.22.29.58.14.36.29.58.29.72l3.24,8.57q.14.5.36.5h.29c.14,0,.22,0,.29-.29l2.66-7.92,2.81,7.78c.14.36.22.43.43.43h.29q.14,0,.29-.22v-.22l3.17-8.64.29-.72c.14-.43.22-.5.36-.65.14-.14.36-.22.79-.29q.29-.07.36-.07v-.22Z"/>
      <path class="cls-1" d="M70.85,95.83c0-.14-.07-.22-.22-.22h-.86c-.14,0-.58.07-1.22.07h-2.66l-2.3-.07h-2.09c-.14,0-.22,0-.22.07-.07.07-.07.14-.07.5l-.14,1.51c0,.07-.07.22-.07.29v.07c0,.07.14.14.43.14q.07,0,.14-.14c.07-.65.43-1.15.94-1.37.36-.22.86-.29,2.38-.29h.22v8.21c0,.94-.07,1.15-.29,1.3-.22.14-.58.22-1.15.22-.29.07-.36.07-.36.22v.14c0,.14.07.22.22.22h1.01c.58-.07,1.08-.07,1.51-.07l1.73.07h.79q.22,0,.22-.22v-.14h0q0-.14-.43-.22c-.65,0-.94-.07-1.08-.14-.36-.14-.43-.43-.43-1.37v-8.21h.72c.5,0,1.08.07,1.44.07.22.07.43.07.58.22.36.14.58.5.65,1.22,0,.22.07.29.29.29s.29-.07.29-.22v-.65l.07-1.15v-.36Z"/>
    </g>
  </g>
</svg>