<?xml version="1.0" encoding="UTF-8"?>
<svg id="Layer_2" data-name="Layer 2" xmlns="http://www.w3.org/2000/svg" viewBox="0 0 252.47 75.96">
  <defs>
    <style>
      .cls-1, .cls-2 {
        fill: #fff;
      }

      .cls-1, .cls-3 {
        fill-rule: evenodd;
      }

      .cls-3 {
        fill: #231f20;
      }
    </style>
  </defs>
  <g id="Foreground">
    <g>
      <path class="cls-3" d="M61.82,72.79c.22-.22.36-.43.5-.72.36-.72.72-1.73,1.3-2.81.5-1.01.79-1.58,1.22-2.38-.5.22-1.08.14-1.58.07-.5-.14-1.01-.36-1.44-.72v6.55h0ZM61.82,65.45v-2.88c.29.07.58.07.86.14.72.14,1.44.36,2.02.79.94.79,1.08,1.58.72,2.3-.29.65-1.22.79-2.09.65-.72-.14-1.15-.43-1.51-1.01h0ZM61.82,60.12v-7.49c.29.22.58.43.72.5,1.51,1.37,1.08,4.03-.72,6.98ZM60.31,72.5c-.07.36.36.79.72.72.36,0,.58-.14.79-.43v-6.55c-.07-.07-.14-.14-.22-.29l-1.3,6.55h0ZM61.82,52.63v7.49c-2.02,3.38-5.83,7.27-10.37,10.15-.36.22-.65.43-1.01.58v-7.56c5.83-4.39,9.07-10.01,7.78-13.1,1.15.79,2.66,1.8,3.6,2.45h0ZM61.82,62.57v2.88c0-.07-.07-.22-.14-.29l-.36-.72-.72,4.03c-.86-.07-1.44-.14-2.38-.43-.86-.22-1.51-.43-2.09-.65,1.8-1.58,3.46-3.24,4.68-4.9.36.07.65.07,1.01.07h0ZM50.44,62.71c1.58-1.22,2.81-2.45,3.6-3.46-.79-1.01-1.87-2.52-2.23-3.53-.43-1.37-.58-2.45-.36-3.53-.36.43-.65.79-1.01,1.15v9.36ZM50.44,53.35v9.36c-.22.14-.43.36-.72.5-.07-.14-.29-.43-.5-.65-.36-.5-.79-1.22-1.22-2.02-.58-1.15-.86-2.09-1.15-3.46,1.08-1.01,2.45-2.38,2.45-2.38,0,0,.5-.58,1.15-1.37h0ZM50.44,63.29c-4.54,3.38-10.66,6.05-17.35,6.05s-12.96-2.74-17.5-6.19v7.7c5.83,3.46,11.59,4.68,17.5,4.61,5.83.07,11.52-1.15,17.35-4.61v-7.56h0ZM15.59,62.57v-9.22c.65.79,1.15,1.37,1.15,1.37,0,0,1.44,1.44,2.45,2.45-.22,1.37-.5,2.23-1.15,3.38-.36.79-.86,1.51-1.22,2.02-.14.22-.36.43-.43.58-.29-.22-.58-.36-.79-.58ZM15.59,53.35v9.22c-.07,0-.07-.07-.07-.07-1.37-1.08-2.59-2.23-3.6-3.38,1.01-.94,2.02-2.38,2.3-3.38.43-1.37.65-2.45.43-3.53.29.43.65.79.94,1.15h0ZM15.59,63.14c-5.76-4.32-8.93-9.94-7.7-12.96-1.15.79-2.74,1.8-3.67,2.52v7.34c2.09,3.46,5.9,7.34,10.44,10.22.29.22.65.36.94.58v-7.7h0ZM4.22,72.79v-6.55c.14-.07.22-.14.29-.29l1.3,6.55c.07.36-.43.79-.79.72-.29,0-.5-.14-.79-.43h0ZM4.22,65.38v-2.81c.43,0,.79-.07,1.08-.07.65.79,1.3,1.66,2.09,2.45.65.65,1.3,1.3,1.94,1.94l.58.5c-.5.22-1.15.43-2.02.65-.94.29-1.58.36-2.38.43l-.79-4.03-.36.72c0,.07-.07.14-.14.22ZM4.22,52.7v7.34c-1.73-2.95-2.16-5.54-.58-6.91.14-.07.36-.29.58-.43h0ZM4.22,62.57v2.81c-.29.58-.79.94-1.51,1.08-.79.14-1.73,0-2.09-.65-.29-.72-.14-1.51.79-2.3.58-.43,1.3-.65,2.02-.79.29-.07.58-.07.79-.14h0ZM4.22,66.24c-.36.36-.86.58-1.37.72-.58.07-1.08.14-1.66-.07.43.79.79,1.37,1.3,2.38.5,1.08.94,2.09,1.3,2.81.14.29.29.5.43.72v-6.55Z"/>
      <polygon class="cls-1" points="13.65 68.26 13.58 65.95 15.59 65.45 14.95 64.94 13.22 65.38 13.22 65.38 14.08 64.22 13.51 63.79 11.42 66.6 11.99 67.03 12.86 65.81 12.86 65.81 12.93 67.68 13.65 68.26"/>
      <path class="cls-1" d="M17.97,68.98c.29-.43.36-.86.29-1.3-.07-.43-.36-.86-.86-1.15-.29-.14-.65-.29-.94-.29v.65c.22,0,.43,0,.65.14.5.29.65.94.22,1.51-.22.43-.5.65-.86.65v.65c.14,0,.36,0,.5-.07.43-.07.79-.36,1.01-.79ZM16.46,66.24c-.14,0-.29,0-.43.07-.43.14-.86.43-1.08.86-.29.43-.36.94-.22,1.37.14.43.43.72.86,1.01.29.22.58.29.86.29v-.65c-.22.07-.43,0-.58-.14-.5-.29-.65-.86-.29-1.51.22-.43.58-.65.86-.65v-.65Z"/>
      <polygon class="cls-1" points="23.73 69.48 21.07 68.47 20.92 69.05 21.86 69.41 20.85 72.07 21.57 72.29 22.51 69.62 23.37 69.98 23.73 69.48"/>
      <polygon class="cls-1" points="25.75 73.58 25.89 73.01 24.67 72.65 24.88 71.78 25.96 72.07 26.11 71.5 25.03 71.21 25.24 70.49 26.32 70.78 26.68 70.2 24.74 69.7 23.8 73.01 25.75 73.58"/>
      <polygon class="cls-1" points="31.87 70.92 29.06 70.63 28.99 71.21 29.99 71.35 29.71 74.16 30.43 74.23 30.71 71.42 31.65 71.5 31.87 70.92"/>
      <path class="cls-1" d="M35.68,74.3l-1.44-3.38h-.22v.94c0,.14.07.29.07.43l.29.65h-.36v.58h.58l.36.79h.72ZM34.03,70.92h-.29l-1.3,3.46h.65l.36-.86h.58v-.58h-.43l.29-.65c.07-.22.07-.36.07-.43h.07v-.94Z"/>
      <path class="cls-1" d="M40.15,73.73l-.5-3.38-.72.07.29,1.73c0,.14.07.36.07.5h0c-.14-.07-.22-.22-.43-.36l-1.66-1.58-.72.07.5,3.46.72-.14-.29-1.87c0-.14-.07-.36-.07-.43h0c.14.14.22.22.36.36l1.8,1.66.65-.07Z"/>
      <path class="cls-1" d="M44.61,72.14l-.43-1.37-.72.22.36,1.08c-.14.07-.29.14-.5.22-.65.22-1.22-.22-1.44-.79-.14-.58,0-1.22.86-1.51.36-.07.65-.07,1.01-.07l-.22-.58c-.29,0-.58,0-1.01.14-1.15.29-1.66,1.3-1.37,2.23.29.94,1.15,1.51,2.16,1.15.58-.14,1.01-.43,1.3-.72Z"/>
      <path class="cls-1" d="M48.86,70.56l-2.23-2.02v.94l.43.36-.43.22v.65l.86-.43.65.65.72-.36ZM46.63,68.54l-.5-.5-.5.22.22,3.74.65-.29-.07-.94.22-.07v-.65l-.29.14v-.72c-.07-.22-.07-.36-.07-.43h0c.07.07.14.22.29.29l.07.14v-.94Z"/>
      <polygon class="cls-1" points="50.01 65.88 47.56 67.39 47.92 67.9 48.79 67.32 50.3 69.77 50.87 69.41 49.36 66.96 50.15 66.46 50.01 65.88"/>
      <path class="cls-1" d="M54.83,66.46l-2.38-1.37v.79l.5.29-.5.36v1.8l.36-.29-.29-.86.94-.72.79.5.58-.5ZM52.46,65.09l-.86-.5-.43.36,1.08,3.53.22-.14v-1.8l-.14.07-.22-.65c0-.22-.07-.36-.14-.43h0c.07.07.22.14.36.29l.14.07v-.79Z"/>
      <path class="cls-1" d="M62.61,71.42c.29-.58.58-1.37,1.01-2.16.5-1.01.79-1.58,1.22-2.38-.5.22-1.08.14-1.58.07-.22-.07-.43-.14-.65-.22v-.58c.22.14.43.22.72.29.86.14,1.8,0,2.09-.65.36-.72.22-1.51-.72-2.3-.58-.43-1.3-.65-2.02-.79h-.07v-.5h.14c.72.14,1.58.36,2.23.94,1.08.86,1.37,1.8.86,2.95-.65,1.37-1.08,2.02-1.8,3.38-.58,1.08-.94,2.09-1.29,2.81-.07.14-.14.22-.14.36v-1.22h0ZM62.61,59.9v-1.15c1.08-2.38,1.22-4.39,0-5.54v-.65c.07.07.14.14.22.22,1.8,1.51,1.44,4.18-.22,7.13ZM60.31,72.5c-.07.36.36.79.72.72.5-.07.86-.43,1.3-1.15.07-.22.14-.43.29-.65v1.22c-.36.58-.86,1.01-1.51,1.08-.65.07-1.44-.58-1.3-1.37l.65-3.38c-.79-.07-1.44-.14-2.38-.43-1.01-.29-1.73-.5-2.38-.79-.72.65-1.51,1.3-2.38,1.87v-.65c4.32-3.1,7.7-6.98,9.29-10.22v1.15c-.43.72-.86,1.37-1.44,2.09.43.07.94.07,1.44.22v.5c-.65-.14-1.3-.14-1.8-.22-1.22,1.66-2.88,3.31-4.68,4.9.58.22,1.22.43,2.09.65.94.29,1.51.36,2.38.43l.72-4.03.36.72c.22.43.5.79.94,1.01v.58c-.43-.22-.79-.43-1.01-.79l-1.3,6.55h0ZM62.61,52.56c-1.3-.94-5.18-3.53-5.33-3.6-.65-.5-1.22-.65-2.09-.58-.79,0-1.37.29-1.87.72v6.34c.43-.22.86-.29,1.3-.22.72,0,1.44.29,1.8.79-.5.86-1.15,1.8-1.87,2.74-.43-.36-.86-.86-1.22-1.37v.94c.29.36.5.65.72.94-.22.29-.43.58-.72.79v.79c3.67-3.6,5.62-7.49,5.11-10.01-.07-.22-.14-.43-.14-.58,1.51,1.01,3.6,2.38,4.25,2.88q0,.07.07.07v-.65ZM53.32,49.1v6.34c-.29.07-.58.29-.72.5.14.5.43.94.72,1.44v.94c-.65-.86-1.3-1.87-1.51-2.59-.43-1.37-.58-2.45-.36-3.53-1.08,1.3-2.16,2.52-2.16,2.52,0,0-1.37,1.37-2.45,2.38.29,1.37.58,2.3,1.15,3.46.43.79.86,1.51,1.22,2.02.22.22.43.5.5.65,1.44-1.08,2.66-2.16,3.6-3.17v.79c-4.61,4.46-11.95,8.5-20.23,8.5s-15.7-4.03-20.3-8.57v-.79c.79.86,1.73,1.73,2.74,2.52.22.22.5.43.86.65.07-.14.29-.36.43-.58.36-.5.86-1.22,1.22-2.02.65-1.15.94-2.02,1.15-3.38-1.01-1.01-2.45-2.45-2.45-2.45,0,0-1.08-1.22-2.09-2.52.22,1.08,0,2.16-.43,3.53-.22.72-.79,1.66-1.44,2.45v-.79c.29-.5.58-.94.79-1.37-.14-.29-.5-.5-.79-.65v-6.34c.43.36.79.79,1.08,1.37,1.15,1.58,3.24,3.96,3.24,3.96,0,0,1.51,1.58,2.59,2.52l.07.22c-.29,1.51-.58,2.45-1.22,3.74-.43.79-.94,1.51-1.29,2.02-.22.29-.36.5-.43.65,4.18,3.02,9.79,5.26,16.27,5.33,6.48-.07,12.02-2.3,16.27-5.33-.14-.14-.36-.36-.58-.65-.36-.5-.86-1.22-1.22-2.02-.65-1.3-1.01-2.23-1.22-3.74l.07-.22c1.01-.94,2.52-2.52,2.52-2.52,0,0,2.09-2.38,3.24-3.96h.07c.29-.5.65-.94,1.08-1.3h0ZM53.32,68.98c-.58.43-1.22.86-1.87,1.3-6.19,3.89-12.24,5.26-18.36,5.18-6.19.07-12.24-1.3-18.43-5.18-.65-.43-1.3-.86-1.87-1.3v.65c.5.36,1.08.72,1.58,1.08,6.26,3.96,12.46,5.33,18.72,5.26,6.19.07,12.38-1.3,18.65-5.26.5-.36,1.08-.72,1.58-1.08v-.65ZM12.79,49.03v6.34c-.43-.14-.86-.22-1.3-.14-.65,0-1.37.29-1.73.72.5.94,1.08,1.8,1.87,2.74.36-.36.79-.86,1.15-1.3v.79c-.29.36-.58.65-.86.94.29.29.58.58.86.86v.79c-3.96-3.89-5.9-8.06-4.9-10.58-1.51,1.01-3.67,2.45-4.25,2.95-.07.07-.14.07-.14.14v-.72c1.15-.86,4.39-2.95,5.47-3.67.65-.43,1.22-.5,2.02-.5.72,0,1.3.29,1.8.65h0ZM12.79,68.98c-4.32-3.17-7.78-7.06-9.29-10.3v1.15c.36.72.86,1.44,1.44,2.16-.43.07-.94.07-1.44.22v.5c.65-.14,1.29-.14,1.8-.22.65.79,1.3,1.66,2.09,2.45.65.65,1.3,1.3,1.94,1.94l.58.5c-.5.22-1.15.43-2.02.65-.94.29-1.58.36-2.38.43l-.79-4.03-.36.72c-.22.43-.5.79-.86,1.01v.58c.36-.22.72-.43,1.01-.79l1.3,6.55c.07.36-.43.79-.79.72-.5-.07-.86-.43-1.22-1.15-.07-.22-.22-.43-.29-.65v1.22c.36.58.79,1.01,1.51,1.08.58.07,1.44-.58,1.3-1.37l-.72-3.38c.86-.07,1.44-.14,2.45-.43s1.73-.5,2.38-.79c.72.65,1.51,1.3,2.38,1.87v-.65ZM3.5,52.56v.72c-1.15,1.15-1.08,3.1,0,5.4v1.15c-1.66-2.95-1.94-5.54-.22-7.06.07-.07.14-.14.22-.22h0ZM3.5,62.21v.5h-.07c-.72.14-1.44.36-2.02.79-.94.79-1.08,1.58-.79,2.3.36.65,1.3.79,2.09.65.29-.07.58-.14.79-.29v.58c-.22.07-.43.14-.65.22-.58.07-1.08.14-1.66-.07.43.79.79,1.37,1.3,2.38.43.79.72,1.58,1.01,2.16v1.22c-.07-.14-.14-.22-.22-.36-.36-.72-.72-1.73-1.3-2.81-.65-1.37-1.15-2.02-1.73-3.38-.5-1.15-.29-2.09.79-2.95.65-.58,1.51-.79,2.3-.94h.14Z"/>
      <path class="cls-1" d="M60.16.58v28.73s.14,2.52-.86,6.55c-1.08,4.1-3.24,9.65-7.85,15.55-3.6,4.54-8.21,8.21-11.95,10.8-3.31,2.23-5.9,3.6-6.41,3.89-.65-.29-3.38-1.66-6.84-4.03-3.96-2.66-8.79-6.62-12.38-11.74-3.74-5.26-5.69-10.73-6.77-14.9-1.01-4.18-1.08-6.98-1.08-6.98V.58h54.14Z"/>
      <path class="cls-3" d="M12.35,6.91h41.54v22.1s0,7.85-6.26,16.92c-5.33,7.92-14.54,12.82-14.54,12.82,0,0-10.3-6.12-15.34-14.11-5.69-9-5.4-16.92-5.4-16.92V6.91Z"/>
      <path class="cls-1" d="M60.16.58h-27.07v-.58h27.65v29.3s.43,10.44-8.93,22.39c-6.91,8.93-17.93,14.54-18.72,14.98v-.58c.65-.36,3.24-1.73,6.41-3.89,3.74-2.59,8.35-6.26,11.95-10.8,4.61-5.9,6.77-11.45,7.85-15.55,1.01-4.03.86-6.55.86-6.55V.58ZM33.09.58H6.02v27.86s.07,2.81,1.08,6.98c1.08,4.18,3.02,9.65,6.77,14.9,3.6,5.11,8.42,9.07,12.38,11.74,3.46,2.38,6.19,3.74,6.84,4.03h0v.58h0c-.07,0-3.17-1.51-7.13-4.18-3.96-2.74-8.86-6.7-12.53-11.88-7.56-10.58-7.92-22.18-7.92-22.18V0h27.58v.58Z"/>
      <path class="cls-3" d="M57.71,3.17c.65,1.58,1.08,3.17,1.22,4.54.43,3.1-.72,3.53-1.87,2.95v-3.53c.29.14.5.43.58.65-.07-.58-.14-.86-.36-1.8-.07-.22-.14-.36-.22-.58v-2.45c.22.07.43.14.65.22h0ZM57.07,37.37v-2.88c1.15-3.89,1.01-7.92,1.01-7.92-.43.58-.72,1.08-1.01,1.51v-1.87c.58-.86,1.22-1.8,1.87-3.17,0,0,.58,6.55-.94,12.31-.22.94-.58,1.58-.94,2.02h0ZM57.07,31.82c.14-.29.22-.5.29-.86.07-.58-.07-.86-.29-1.01v1.87h0ZM57.07,24.34c.94-1.58,1.66-3.24,2.02-4.97.72-3.46-1.08-3.17-2.02-1.8v2.38c.36.07.86-.29,1.01-.72-.36,1.08-.58,1.87-1.01,2.74v2.38h0ZM57.07,15.77v-3.82c1.15-.58,2.09,1.58,1.44,3.24-.43,1.01-1.08.94-1.44.58ZM57.07,10.66c-.72-.5-1.51-1.44-1.51-2.45-.07-1.51.86-1.58,1.51-1.08v3.53h0ZM57.07,5.4c-.14-.43-.29-.79-.43-1.15-.5-.22-1.08-.5-1.73-.65-.86-.22-1.22-.29-1.8-.36,1.01.43,1.66,2.23-.43,2.09-2.3-.07-4.82-4.1.5-3.38,1.15.14,2.52.5,3.89,1.01v2.45h0ZM57.07,11.95v3.82c-.14-.29-.29-.65-.22-1.08-.43,1.3-.5,1.94-.65,3.38v5.54c.36-.58.65-1.15.86-1.66v2.38c-.58,1.01-1.22,2.02-1.94,2.95v-9.29c.07-1.44.22-2.23.58-3.6.43-1.51.94-2.23,1.37-2.45h0ZM57.07,17.57c-.22.36-.36.79-.43,1.3,0,.65.22,1.01.43,1.08v-2.38h0ZM57.07,26.21c-.86,1.37-1.66,2.45-2.09,4.1-.94,3.82,1.3,3.17,2.09,1.51v-1.87c-.29-.22-.86.07-1.08.65.36-1.08.65-1.8,1.08-2.52v-1.87h0ZM57.07,34.49v2.88c-1.3,1.51-2.88-1.15-2.02-2.95.79-1.58,1.94-.29,1.87.79.07-.22.14-.43.14-.72h0ZM49,52.42v-2.23c.72-.29,1.44-.58,2.23-1.01,0,0-.79,1.37-2.23,3.24h0ZM49,49.18c1.87-.65,3.6-1.51,4.75-3.1,2.59-3.67-.14-3.6-1.58-1.94-1.08,1.15.14,1.66.94,1.15-1.37,1.44-2.3,1.94-3.74,2.52,0,0,2.09-4.1,4.75-6.98-.65.79-.58,2.16,1.01,1.37,2.23-1.15,1.66-6.26-1.66-2.38-1.08,1.37-2.09,2.74-2.88,3.96-.58.86-1.15,1.58-1.58,2.38v3.02ZM49,46.15v3.02c-.72.22-1.51.43-2.23.65.65-1.08,1.37-2.3,2.23-3.67h0ZM49,50.18v2.23c-1.44,1.8-3.6,4.18-6.34,6.12-4.25,2.95-3.89-1.22-1.66-2.38,1.58-.79,1.73.65,1.01,1.37,3.74-2.09,6.34-5.98,6.34-5.98-1.73.58-2.74.79-4.32,1.87.86-.43,2.02.07.94,1.15-1.51,1.58-5.11.86-1.58-1.94,1.73-1.44,3.46-1.66,5.62-2.45h0ZM33.09,64.51h0c1.58-.65,2.88-1.44,3.89-2.23,4.32-3.31-.36-4.54-2.02-2.81-1.44,1.44.14,2.09,1.37,1.66,0,0-.86.58-1.73,1.08-.5.29-1.08.58-1.51.79v1.51h0ZM33.09,5.69v-1.44c2.02-1.15,4.18-2.09,6.48-2.52,5.04-.86,3.1,2.3.58,2.45-1.73.14-1.37-1.08-.36-1.37-2.09.5-3.24.86-5.04,1.8h6.05c1.58,0,3.38-.14,4.82-.65-1.15.22-2.3-.94-.43-1.66,2.59-1.01,6.41,1.44.79,2.81-1.58.43-3.53.58-5.11.58h-7.78ZM33.09,3.17c.79-.43,1.66-.94,2.45-1.51h-2.45v1.51ZM33.09,1.66v1.51c-2.09,1.15-4.25,2.09-6.55,2.52-5.04.86-3.1-2.3-.58-2.52,1.73-.07,1.37,1.15.36,1.44,2.09-.5,3.24-.94,5.04-1.87h-6.05c-1.51.07-3.38.22-4.82.72,1.15-.22,2.3.94.5,1.66-1.51.58-3.46,0-3.74-.79v-.5c.21-.5,1.01-1.08,2.88-1.51,1.58-.43,3.53-.58,5.18-.58l7.78-.07h0ZM33.09,4.25c-.86.43-1.73.94-2.45,1.44h2.45v-1.44h0ZM33.09,63v1.51c-1.58-.65-2.95-1.44-3.96-2.23-4.32-3.31.43-4.54,2.02-2.81,1.44,1.44-.14,2.09-1.3,1.66,0,0,.79.58,1.66,1.08.5.29,1.08.58,1.58.79h0ZM17.25,52.42c1.44,1.8,3.6,4.18,6.41,6.12,4.18,2.95,3.82-1.22,1.58-2.38-1.51-.79-1.66.65-.94,1.37-3.82-2.09-6.41-5.98-6.41-5.98,1.73.58,2.74.79,4.32,1.87-.79-.43-2.02.07-.94,1.15,1.58,1.58,5.11.86,1.58-1.94-1.73-1.44-3.46-1.66-5.62-2.45v2.23h0ZM17.25,49.18v-3.02c.86,1.37,1.58,2.59,2.23,3.67-.72-.22-1.44-.43-2.23-.65ZM17.25,3.82v.5c0-.14-.07-.36,0-.5h0ZM17.25,46.15v3.02c-1.8-.65-3.6-1.51-4.68-3.1-2.66-3.67.07-3.6,1.51-1.94,1.08,1.15-.07,1.66-.86,1.15,1.37,1.44,2.3,1.94,3.67,2.52,0,0-2.09-4.1-4.75-6.98.65.79.58,2.16-1.01,1.37-2.23-1.15-1.66-6.26,1.66-2.38,1.15,1.37,2.09,2.74,2.95,3.96.58.86,1.08,1.58,1.51,2.38h0ZM17.25,50.18v2.23c-1.44-1.87-2.23-3.24-2.23-3.24.79.43,1.58.72,2.23,1.01h0ZM9.19,37.37c1.37,1.51,2.95-1.15,2.09-2.95-.79-1.58-1.94-.29-1.87.79-.07-.22-.14-.5-.22-.72v2.88h0ZM9.19,31.82v-1.87c.36-.22.86.07,1.15.65-.36-1.08-.72-1.8-1.15-2.52v-1.87c.94,1.37,1.66,2.45,2.09,4.1,1.01,3.82-1.3,3.17-2.09,1.51h0ZM9.19,24.34c.65,1.01,1.3,2.02,1.94,2.95v-9.29c-.07-1.44-.14-2.23-.5-3.6-.43-1.51-.94-2.23-1.44-2.45v3.82c.22-.29.36-.65.29-1.08.43,1.3.5,1.94.65,3.38v5.54c-.36-.58-.65-1.15-.94-1.66v2.38h0ZM9.19,19.94v-2.38c.29.36.43.79.43,1.3.07.65-.14,1.01-.43,1.08h0ZM9.19,10.66v-3.53c.72-.5,1.66-.43,1.58,1.08-.07,1.01-.79,1.94-1.58,2.45h0ZM9.19,5.4c.14-.43.36-.79.5-1.15.5-.22,1.08-.5,1.73-.65.86-.22,1.15-.29,1.8-.36-1.01.43-1.66,2.23.36,2.09,2.38-.07,4.82-4.1-.5-3.38-1.08.14-2.52.5-3.89,1.01v2.45ZM9.19,2.95v2.45c-.07.22-.14.43-.14.58-.29.94-.29,1.22-.36,1.8.07-.22.29-.5.5-.65v3.53c-1.08.58-2.23.14-1.8-2.95.14-1.37.58-2.95,1.15-4.54.22-.07.43-.14.65-.22h0ZM9.19,11.95v3.82c-.36.36-.94.43-1.37-.58-.72-1.66.29-3.82,1.37-3.24h0ZM9.19,17.57c-.86-1.37-2.66-1.66-1.94,1.8.36,1.73,1.08,3.38,1.94,4.97v-2.38c-.36-.86-.65-1.66-.94-2.74.14.43.58.79.94.72v-2.38h0ZM9.19,26.21v1.87c-.22-.43-.58-.94-.94-1.51,0,0-.14,4.03.94,7.92v2.88c-.29-.43-.65-1.08-.86-2.02-1.58-5.76-.94-12.31-.94-12.31.65,1.3,1.22,2.3,1.8,3.17h0ZM9.19,29.95c-.14.14-.29.43-.22,1.01,0,.36.14.58.22.86v-1.87Z"/>
      <path class="cls-3" d="M54.55,51.84c.07.29.29.58.65.58s.65-.36.65-.72c0-.14,0-.29-.14-.43-.07-.07-.22-.14-.36-.22-.5-.14-1.08.07-1.44.65-.5.79,0,1.87.86,2.23,1.01.43,2.95-.07,3.17-2.09.14-1.3-.36-2.16-1.22-2.59-1.15-.65-3.46-.36-3.96,1.73l.14.07c1.01-1.37,2.3-1.44,3.1-1.01,1.08.58,1.08,1.94.58,2.59-.43.65-1.15.79-1.73.36-.29-.22-.5-.72-.29-1.15h0ZM11.63,51.84c-.07.29-.36.58-.65.58-.36,0-.72-.36-.72-.72,0-.14.07-.29.22-.43.07-.07.22-.14.36-.22.43-.14,1.08.07,1.44.65.5.79,0,1.87-.94,2.23-.94.43-2.88-.07-3.1-2.09-.14-1.3.36-2.16,1.22-2.59,1.08-.65,3.46-.36,3.89,1.73l-.07.07c-1.08-1.37-2.38-1.44-3.1-1.01-1.15.58-1.08,1.94-.58,2.59.43.65,1.15.79,1.73.36.29-.22.5-.72.29-1.15Z"/>
      <path class="cls-1" d="M36.26,53.5l-3.17-2.23-3.1,2.23,1.15-3.67-3.1-2.3h3.89l1.15-3.67,1.22,3.67h3.89l-3.17,2.3,1.22,3.67h0ZM35.61,15.84l-2.52-1.8-2.52,1.8,1.01-2.95-2.52-1.8h3.1l.94-2.95.94,2.95h3.1l-2.45,1.8.94,2.95h0ZM51.59,31.97l-2.52-1.8-2.52,1.8.94-2.95-2.45-1.8h3.1l.94-2.95.94,2.95h3.1l-2.52,1.8,1.01,2.95h0ZM19.55,31.97l-2.52-1.8-2.52,1.8,1.01-2.95-2.52-1.8h3.1l.94-2.95.94,2.95h3.1l-2.45,1.8.94,2.95Z"/>
      <path class="cls-1" d="M22.22,21.74h.79v17.86h8.78c.22,0,.29-.07.36-.07.22-.07.43-.22.72-.5.07-.14.14-.22.22-.29.07.07.14.14.29.29.22.29.5.43.65.5.07,0,.14.07.36.07h8.78v-17.86h.79v18.36h-9.07c.07.72-.65.72-1.8.72-1.08,0-1.87,0-1.8-.72h-9.07v-18.36Z"/>
      <path class="cls-3" d="M42.02,37.44l.65.94v-17.86c-.14-.07-.43-.29-.65-.36v-.65s.07.07.14.07c.36.22,1.01.65,1.01.65v19.37h-1.15v-.5h.43l-.43-.72v-.94ZM41.87,20.09c-.14-.07-.22-.22-.36-.36v16.99l.5.72v.94l-.94-1.3h-1.08c-.79,0-1.73-.14-2.74-.58,0,0-.07,0-.07-.07v-.58c.07.07.14.07.22.14,1.51.72,3.6.58,3.6.58v-17.35s-2.02.22-3.6-.5c-.07-.07-.14-.07-.22-.14v-.5c.07,0,.22.07.29.14.86.36,1.8.5,2.59.5.65.07,1.3-.07,1.44-.07,0,.14.07.5.5.86v.58h-.14ZM42.02,39.1v.5h-4.82v-.5h4.82ZM37.19,18.07v.5c-.58-.29-1.08-.79-2.45-.72-1.01.07-1.37.79-1.37.79v17.06s.36-.43,1.44-.5c1.22-.14,1.8.29,2.38.65v.58c-.36-.14-.58-.36-.94-.5-.36-.14-.79-.29-1.51-.22-.58,0-.86.22-1.08.43-.14.07-.22.14-.29.36v1.66c.07.07.14.29.36.5.22.29.43.36.58.43h2.88v.5h-2.81c-.22,0-.29-.07-.36-.07-.14-.07-.43-.22-.65-.5-.14-.07-.22-.22-.29-.29-.07.07-.14.22-.22.29-.29.29-.5.43-.72.5-.07,0-.14.07-.22.07h-2.88v-.5h2.81c.22-.07.36-.22.58-.43.29-.22.36-.43.36-.5l.07-.22v-1.44c-.14-.22-.22-.29-.29-.36-.22-.22-.58-.43-1.08-.43-.72-.07-1.22.07-1.58.22-.29.14-.58.36-.86.5v-.58c.58-.36,1.08-.79,2.38-.65,1.01.07,1.37.5,1.37.5v-17.06s-.36-.72-1.37-.79c-1.3-.07-1.8.43-2.38.72v-.5c.22-.14.43-.29.65-.43.43-.22,1.01-.36,1.8-.29.65.07,1.15.29,1.44.58.07.07.07.14.14.22.07-.07.14-.14.22-.22.29-.29.72-.5,1.37-.58.79-.07,1.37.07,1.8.29.29.14.5.29.72.43ZM29.06,18.07v.5c-.07.07-.14.07-.22.14-1.66.72-3.6.5-3.6.5v17.35s2.02.14,3.6-.58c.07-.07.14-.07.22-.14v.58c-.07.07-.14.07-.14.07-.94.43-1.94.58-2.74.58h-1.08l-.86,1.3v-.94l.43-.72v-16.99c-.07.14-.22.29-.36.36h-.07v-.58c.36-.36.43-.72.5-.86.07,0,.72.14,1.44.07.72,0,1.66-.14,2.52-.5.14-.07.22-.14.36-.14h0ZM29.06,39.1v.5h-4.82v-.5h4.82ZM24.23,19.51v.58c-.36.22-.58.36-.72.43v17.86l.72-.94v.94l-.5.72h.5v.5h-1.22v-19.37s.72-.43,1.01-.65c.07,0,.14-.07.22-.07Z"/>
      <path class="cls-1" d="M42.02,39.1v-.72l.43.72h-.43ZM42.02,37.44l.65.94v-17.86c-.14-.07-.36-.22-.65-.43v17.35ZM24.23,39.1h7.63c.22-.07.36-.22.58-.43.29-.22.36-.43.36-.5l.07-1.66c-.14-.22-.22-.29-.29-.36-.22-.22-.58-.43-1.08-.43-.72-.07-1.22.07-1.58.22-.36.22-.65.43-1.01.58-.94.43-1.94.58-2.74.58h-1.08l-.86,1.3v.72h0ZM42.02,20.09v17.35l-.5-.72v-16.99c.14.14.22.29.36.36h.14ZM42.02,38.38l-.94-1.3h-1.08c-.79,0-1.73-.14-2.74-.58-.36-.14-.65-.36-1.01-.58-.36-.14-.79-.29-1.51-.22-.58,0-.86.22-1.08.43-.14.07-.22.14-.29.36v1.66c.07.07.14.29.36.5.22.22.36.36.58.43h7.7v-.72h0ZM24.23,37.44v-17.35h.07c.14-.07.29-.22.36-.36v16.99l-.43.72ZM23.73,39.1h.5v-.72l-.5.72h0ZM24.23,20.09v17.35l-.72.94v-17.86c.14-.07.36-.22.72-.43Z"/>
      <path class="cls-1" d="M33.38,35.71v-17.06s.36-.72,1.37-.79c1.51-.07,1.94.58,2.66.86,1.58.72,3.6.5,3.6.5v17.35s-2.09.14-3.6-.58c-.72-.36-1.22-.94-2.59-.79-1.08.07-1.44.5-1.44.5h0ZM32.8,35.71v-17.06s-.36-.72-1.37-.79c-1.44-.07-1.94.58-2.59.86-1.66.72-3.6.5-3.6.5v17.35s2.02.14,3.6-.58c.65-.36,1.15-.94,2.59-.79,1.01.07,1.37.5,1.37.5Z"/>
      <path class="cls-3" d="M40.29,34.63s-.79.22-2.09-.14c-1.01-.36-1.58-.94-2.45-.94-.86-.07-1.73.14-1.73.14,0,0,.72-.65,1.58-.65,1.15,0,1.8.65,2.81,1.01,1.22.43,1.87.58,1.87.58h0ZM40.29,32.98s-.65-.14-1.87-.58c-1.01-.36-1.66-1.01-2.81-1.01-.86,0-1.58.58-1.58.58,0,0,.86-.22,1.73-.14.86.07,1.44.65,2.45.94,1.3.43,2.09.22,2.09.22h0ZM40.29,31.25s-.79.22-2.09-.14c-1.01-.29-1.58-.86-2.45-.94-.86-.07-1.73.14-1.73.14,0,0,.72-.58,1.58-.58,1.15,0,1.8.58,2.81.94,1.22.5,1.87.58,1.87.58h0ZM40.29,29.59s-.65-.14-1.87-.58c-1.01-.36-1.66-.94-2.81-.94-.86,0-1.58.58-1.58.58,0,0,.86-.22,1.73-.14.86.07,1.44.65,2.45.94,1.3.36,2.09.14,2.09.14h0ZM40.29,27.94s-.79.22-2.09-.14c-1.01-.29-1.58-.86-2.45-.94-.86-.07-1.73.14-1.73.14,0,0,.72-.58,1.58-.65,1.15,0,1.8.65,2.81,1.01,1.22.43,1.87.58,1.87.58h0ZM40.29,26.28s-.65-.14-1.87-.58c-1.01-.36-1.66-1.01-2.81-1.01-.86,0-1.58.58-1.58.58,0,0,.86-.22,1.73-.14.86.07,1.44.65,2.45,1.01,1.3.36,2.09.14,2.09.14h0ZM40.29,24.55s-.79.29-2.09-.14c-1.01-.29-1.58-.86-2.45-.94-.86-.07-1.73.14-1.73.14,0,0,.72-.58,1.58-.58,1.15,0,1.8.65,2.81.94,1.22.5,1.87.58,1.87.58h0ZM40.29,22.9s-.65-.14-1.87-.58c-1.01-.36-1.66-.94-2.81-.94-.86,0-1.58.58-1.58.58,0,0,.86-.22,1.73-.14.86.07,1.44.65,2.45.94,1.3.36,2.09.14,2.09.14h0ZM40.29,21.24s-.79.22-2.09-.14c-1.01-.29-1.58-.86-2.45-.94-.86-.07-1.73.14-1.73.14,0,0,.72-.58,1.58-.58,1.15-.07,1.8.58,2.81.94,1.22.43,1.87.58,1.87.58h0ZM25.96,34.63s.72.22,2.02-.14c1.01-.36,1.58-.94,2.45-.94.94-.07,1.73.14,1.73.14,0,0-.72-.65-1.51-.65-1.22,0-1.87.65-2.81,1.01-1.22.43-1.87.58-1.87.58h0ZM25.96,32.98s.65-.14,1.87-.58c.94-.36,1.58-1.01,2.81-1.01.79,0,1.51.58,1.51.58,0,0-.79-.22-1.73-.14-.86.07-1.44.65-2.45.94-1.3.43-2.02.22-2.02.22h0ZM25.96,31.25s.72.22,2.02-.14c1.01-.29,1.58-.86,2.45-.94.94-.07,1.73.14,1.73.14,0,0-.72-.58-1.51-.58-1.22,0-1.87.58-2.81.94-1.22.5-1.87.58-1.87.58h0ZM25.96,29.59s.65-.14,1.87-.58c.94-.36,1.58-.94,2.81-.94.79,0,1.51.58,1.51.58,0,0-.79-.22-1.73-.14-.86.07-1.44.65-2.45.94-1.3.36-2.02.14-2.02.14h0ZM25.96,27.94s.72.22,2.02-.14c1.01-.29,1.58-.86,2.45-.94.94-.07,1.73.14,1.73.14,0,0-.72-.58-1.51-.65-1.22,0-1.87.65-2.81,1.01-1.22.43-1.87.58-1.87.58h0ZM25.96,26.28s.65-.14,1.87-.58c.94-.36,1.58-1.01,2.81-1.01.79,0,1.51.58,1.51.58,0,0-.79-.22-1.73-.14-.86.07-1.44.65-2.45,1.01-1.3.36-2.02.14-2.02.14h0ZM25.96,24.55s.72.29,2.02-.14c1.01-.29,1.58-.86,2.45-.94.94-.07,1.73.14,1.73.14,0,0-.72-.58-1.51-.58-1.22,0-1.87.65-2.81.94-1.22.5-1.87.58-1.87.58h0ZM25.96,22.9s.65-.14,1.87-.58c.94-.36,1.58-.94,2.81-.94.79,0,1.51.58,1.51.58,0,0-.79-.22-1.73-.14-.86.07-1.44.65-2.45.94-1.3.36-2.02.14-2.02.14h0ZM25.96,21.24s.72.22,2.02-.14c1.01-.29,1.58-.86,2.45-.94.94-.07,1.73.14,1.73.14,0,0-.72-.58-1.51-.58-1.22-.07-1.87.58-2.81.94-1.22.43-1.87.58-1.87.58Z"/>
      <path class="cls-1" d="M86.8,7.13c0-.14-.07-.14-.22-.14h-7.27c-.14,0-.22,0-.22.07s-.07.07-.07.43l-.14,1.15v.29c0,.07.14.14.36.14.07,0,.07-.07.07-.14.14-.5.36-.94.79-1.08.29-.14.65-.22,1.87-.22h.22v6.48c0,.79-.07.94-.29,1.08-.14.07-.43.14-.86.22q-.29,0-.29.14v.07c0,.14,0,.22.14.22h.14c.14,0,.36,0,.65-.07h2.59c.22,0,.36.07.43.07h.14c.22,0,.29-.07.29-.22v-.14c0-.07-.07-.07-.43-.14-.5,0-.72-.07-.86-.14-.22-.07-.29-.29-.29-1.08v-6.48h1.66c.22.07.36.07.5.14.29.14.43.5.5,1.01q.07.22.22.22t.29-.14v-1.58l.07-.14Z"/>
      <path class="cls-1" d="M99.55,15.62v-.07q0-.14-.29-.22h-.29c-.58-.07-.65-.22-.65-1.22v-5.47c0-1.01.07-1.08.58-1.15h.07c.14-.07.22-.07.29-.07.22,0,.29-.07.29-.22v-.07c0-.14-.07-.14-.22-.14h-3.38c-.14,0-.22,0-.22.14v.07c0,.14.07.22.29.22.07,0,.14,0,.29.07h0c.58.07.65.14.65,1.15v2.16h-4.46v-2.16c0-1.01.07-1.08.65-1.15h0c.14-.07.29-.07.29-.07.22,0,.29-.07.29-.22v-.07c0-.14-.07-.14-.14-.14h-3.46q-.14,0-.14.14v.07c0,.14,0,.22.22.22.07,0,.14,0,.36.07h0c.5.07.58.14.58,1.15v5.54c0,.5,0,.72-.07.86-.07.14-.14.22-.5.29h0c-.14,0-.22.07-.36.07q-.22,0-.22.22v.07c0,.07,0,.14.14.14h.36l.29-.07h1.15c.36,0,1.01.07,1.58.07h.14c.14,0,.22-.07.22-.22v-.07c0-.14-.07-.14-.29-.14,0,0-.14-.07-.36-.07h0c-.65-.07-.72-.22-.72-1.22v-2.59h4.46v2.66c0,1.01-.07,1.08-.65,1.15h-.07c-.07,0-.22.07-.29.07-.22,0-.29,0-.29.14v.07c0,.14.07.22.22.22h.36l.36-.07h1.87l.5.07h.43c.14,0,.14-.07.14-.22Z"/>
      <path class="cls-1" d="M109.84,13.68c0-.07-.14-.14-.36-.14,0,0-.07.07-.14.14-.29.72-.5.94-.94,1.15-.5.22-.94.29-1.73.29-1.01,0-1.22-.14-1.22-.79v-2.81h1.01c1.15,0,1.37,0,1.51.22.07.14.07.36.14.79q.07.14.14.14.29,0,.29-.14v-2.66c0-.07,0-.14-.22-.14-.14,0-.22.07-.22.22-.07.72-.22.94-.94.94h-1.73v-3.24h1.01c.86,0,1.44.07,1.73.22.29.14.5.5.65.94l.07.14c0,.07.07.07.07.07.22,0,.36-.07.36-.14s0-.14-.07-.14c0-.22-.07-.5-.07-1.01v-.36q-.07-.36-.36-.36h-5.83c-.07,0-.14,0-.14.14h0v.14c0,.07.07.14.14.14h.5c.14.07.29.07.36.14.22.14.22.36.22,1.08v5.76q0,.5-.07.65c-.07.07-.07.14-.14.14-.14.14-.36.14-.86.22-.07,0-.14,0-.14.14v.14c0,.07.07.14.22.14h.43c.14,0,.43-.07.72-.07h4.18c.29,0,.5.07.58.07h.29c.14,0,.22-.07.22-.29,0-.07,0-.14.07-.29l.07-.65c.07-.29.14-.58.14-.79q.07-.07.07-.14Z"/>
      <path class="cls-1" d="M129.35,7.2h0v-.07c0-.14-.07-.14-.22-.14h-3.17q-.07,0-.14.14v.07h0c0,.14.07.22.43.22.5.07.79.14.86.36.07.14.07.43.14,1.01v3.31c0,1.15-.07,1.58-.36,2.09-.43.65-1.15,1.01-2.16,1.01s-1.94-.36-2.23-1.01c-.22-.43-.29-.94-.29-2.16v-4.03c.07-.22.14-.29.22-.36.22-.14.43-.14,1.08-.22.14,0,.14-.07.14-.22v-.07h0c0-.14-.07-.14-.14-.14h-3.67c-.14,0-.14.07-.14.14,0,.22,0,.29.14.29h.22c.43.07.65.22.72.43.07.14.07.29.07.79v4.39c0,.65.14,1.22.36,1.66.14.36.43.65.86.86.58.36,1.29.5,2.23.5,1.58,0,2.74-.58,3.31-1.51.36-.65.43-1.01.43-2.66v-3.1c0-.79.07-1.08.29-1.22.14-.07.43-.14.79-.14.14,0,.22-.07.22-.22Z"/>
      <path class="cls-1" d="M142.1,7.13q0-.14-.14-.14h-3.17q-.14,0-.14.22c0,.14,0,.22.22.22.07,0,.36.07.58.07.29.07.5.14.5.29.14.14.14.36.14.94l.14,4.9-5.18-6.62h-2.3c-.14,0-.14.07-.14.29,0,.07.07.14.22.14.5.07.79.22,1.08.5l-.22,5.83v.5c0,.5-.07.79-.22.94-.14.07-.22.07-.5.14h-.22q-.29.07-.29.29c0,.14,0,.22.14.22q.07,0,.22-.07h2.23c.36.07.43.07.58.07.29,0,.29-.07.29-.22s0-.22-.22-.22c-.14,0-.43-.07-.65-.14-.22-.07-.43-.22-.5-.36v-1.08l.07-5.18,5.47,7.06c.14.22.21.22.21.29h.58v-7.27c0-.65.07-.94.29-1.08.14-.07.29-.14.79-.22.14,0,.14-.07.14-.29Z"/>
      <path class="cls-1" d="M149.37,15.62v-.14q-.07-.07-.22-.07l-.29-.07c-.65-.07-.79-.14-.79-.72v-6.41c0-.14,0-.22.07-.29,0-.14.07-.29.14-.36.14-.07.43-.14.79-.14.14,0,.21-.07.21-.22v-.07c0-.14-.07-.14-.21-.14h-3.46q-.14,0-.14.14h0v.07c0,.14,0,.22.14.22.36,0,.72.07.86.14.14.14.22.36.22,1.08v5.54c0,.65-.07.94-.22,1.01-.22.14-.36.14-.86.22q-.14,0-.14.22v.07c0,.07,0,.14.14.14h.22c.07,0,.29-.07.36-.07h2.3c.22.07.36.07.43.07h.22c.14,0,.22-.07.22-.22Z"/>
      <path class="cls-1" d="M162.04,7.2q0-.22-.14-.22h-2.88c-.14,0-.14.07-.14.22s0,.22.14.22h.22q.43.07.58.14c.07.07.14.14.14.29,0,.07,0,.22-.07.43-.07.22-.14.36-.21.43l-.14.43-1.87,5.04-2.16-5.33-.14-.5c-.14-.29-.14-.43-.14-.58,0-.22.14-.29.79-.36h.22c.07,0,.14-.07.14-.22s0-.22-.14-.22h-3.67q-.14,0-.14.22c0,.14,0,.22.22.22.36.07.65.14.72.22.22.14.22.22.58,1.08l.29.58,2.74,6.41.14.22c0,.14.07.14.22.14h.29s.07-.07.07-.14l.07-.07,2.66-6.55c.14-.29.22-.43.22-.5.07-.22.22-.5.36-.72.07-.22.14-.29.22-.43.07-.07.29-.14.58-.22q.22,0,.29-.07v-.14Z"/>
      <path class="cls-1" d="M171.98,13.68c0-.07-.14-.14-.29-.14-.07,0-.14.07-.14.14-.29.72-.5.94-1.01,1.15-.5.22-.86.29-1.73.29-.94,0-1.15-.14-1.15-.79v-2.81h1.01c1.15,0,1.29,0,1.44.22.07.14.14.36.22.79q0,.14.14.14c.22,0,.29,0,.29-.14,0-.07,0-.14-.07-.22v-2.45c0-.07,0-.14-.22-.14-.14,0-.14.07-.21.22,0,.72-.22.94-.94.94h-1.66v-3.24h1.01c.79,0,1.37.07,1.66.22.29.14.58.5.72.94v.14l.07.07c.22,0,.36-.07.36-.14v-.14c-.07-.22-.07-.5-.14-1.01v-.36c0-.36-.07-.36-.36-.36h-5.69q-.14,0-.14.14h0v.14c0,.07,0,.14.14.14h.5c.07.07.22.07.29.14.22.14.22.36.22,1.08v5.76q0,.5-.07.65c0,.07-.07.14-.14.14-.14.14-.36.14-.79.22q-.14,0-.14.14v.14c0,.07,0,.14.14.14h.43c.22,0,.43-.07.79-.07h4.03c.36,0,.58.07.65.07h.22c.22,0,.22-.07.29-.29v-.29l.07-.65c.07-.29.14-.58.22-.79v-.14Z"/>
      <path class="cls-1" d="M183.79,15.62c0-.14-.07-.22-.22-.22-.5,0-1.08-.36-1.51-.86-.36-.5-.79-1.15-1.3-2.02-.43-.79-.5-.94-.86-1.37,1.15-.43,1.73-1.22,1.73-2.23,0-.72-.36-1.37-.94-1.73-.43-.22-.94-.36-1.66-.43v.72c.79.22,1.22.79,1.22,1.66s-.43,1.51-1.22,1.73v1.3c.07.22.22.5.43.79.72,1.37,1.08,1.94,1.58,2.45.43.36.94.58,1.51.58.43,0,1.01-.07,1.15-.14,0-.07.07-.14.07-.22h0ZM179.03,15.77v-.36s.07.07.07.14v.14c0,.07-.07.07-.07.07ZM179.03,6.77h-.72c-.79,0-1.94.07-2.88.22h-.29v.22c0,.14,0,.22.14.22h.29c.43,0,.65.14.72.29.07.14.07.22.07.65l.07.43v5.4l-.07.29v.36c0,.07,0,.14-.07.22,0,.07-.07.14-.07.14-.14.07-.36.14-.65.14l-.22.07q-.14,0-.14.22c0,.14,0,.22.14.22h0l.29-.07h2.66l.43.07h.22s0-.07.07-.07v-.36h-.14l-.29-.07c-.36,0-.65-.07-.72-.29-.07-.07-.07-.14-.07-.58v-2.88h.43c.29,0,.5.14.79.58v-1.3c-.29.14-.65.14-1.01.14h-.22v-3.6h.07c.07-.07.14-.07.22-.07.36,0,.65.07.94.14v-.72Z"/>
      <path class="cls-1" d="M192.79,13.32c0-.65-.22-1.22-.65-1.58-.36-.43-.65-.65-1.58-1.15-1.08-.5-1.3-.65-1.58-1.01-.29-.22-.36-.5-.36-.86,0-.72.65-1.3,1.58-1.3s1.44.43,1.8,1.44c.07.14.14.22.14.22.22,0,.36-.07.36-.22h0v-.07l-.07-.07-.07-1.08v-.07q-.07-.29-.22-.43c-.29-.22-1.15-.36-1.87-.36-1.73,0-2.88.94-2.88,2.38,0,.65.29,1.3.86,1.73.36.29.79.58,1.37.86.94.5,1.3.72,1.58,1.08.29.22.36.58.36.94,0,.86-.72,1.58-1.8,1.58-.94,0-1.66-.58-2.09-1.51l-.14-.29c0-.07-.07-.07-.14-.07-.14,0-.29,0-.29.14v.29l.22,1.22q.07.07.07.14c0,.22.07.29.22.43.43.22,1.3.36,1.94.36,1.94,0,3.24-1.08,3.24-2.74Z"/>
      <path class="cls-1" d="M200.2,15.62v-.14c0-.07-.07-.07-.14-.07l-.36-.07c-.58-.07-.72-.14-.72-.72l-.07-.43v-5.54s.07-.14.07-.43v-.29c0-.14.07-.29.14-.36.14-.07.5-.14.86-.14.14,0,.14-.07.14-.22v-.07q0-.14-.14-.14h-3.46q-.14,0-.14.14h-.07v.07c0,.14.07.22.14.22.43,0,.72.07.86.14.14.14.22.36.22,1.08v5.54c0,.65-.07.94-.22,1.01-.14.14-.29.14-.79.22-.14,0-.22,0-.22.22v.07c0,.07.07.14.22.14h.14c.14,0,.29-.07.43-.07h2.3c.22.07.36.07.43.07h.22c.14,0,.14-.07.14-.22Z"/>
      <path class="cls-1" d="M211.15,7.13c0-.14-.07-.14-.22-.14h-7.27q-.14,0-.22.07t-.07.43l-.07,1.15c0,.07-.07.14-.07.22v.07c0,.07.14.14.36.14.07,0,.07-.07.07-.14.14-.5.43-.94.79-1.08.29-.14.72-.22,1.87-.22h.22v6.48c0,.79-.07.94-.29,1.08-.14.07-.43.14-.86.22-.22,0-.29,0-.29.14v.07c0,.14.07.22.14.22h.14c.14,0,.36,0,.65-.07h2.59c.22,0,.36.07.43.07h.22c.14,0,.22-.07.22-.22v-.14c0-.07-.07-.07-.36-.14-.58,0-.72-.07-.94-.14-.22-.07-.29-.29-.29-1.08v-6.48h1.73c.14.07.29.07.5.14.22.14.36.5.43,1.01q.07.22.29.22c.14,0,.22,0,.22-.14v-.5l.07-.86v-.36Z"/>
      <path class="cls-1" d="M223.03,7.2c0-.14,0-.22-.14-.22h-3.02c-.14,0-.22.07-.22.14,0,.14.07.22.07.22q.07.07.14.07h.22c.43,0,.72.14.72.36,0,.07-.22.43-.43.86l-1.51,2.59-1.66-2.74c-.22-.36-.29-.58-.29-.72,0-.22.22-.29.65-.36h.29c.14,0,.14-.07.14-.22q0-.22-.14-.22h-3.74c-.07,0-.14,0-.14.22,0,.14.07.22.14.22h.22c.5.07.72.22,1.08.86,0,0,.07.14.22.29l2.16,3.46v2.16c0,.72,0,.86-.22,1.01-.14.14-.36.14-.94.22q-.22,0-.22.14v.07c0,.14,0,.22.14.22h0c.07,0,.14-.07.22-.07h3.53l.29.07h0c.14,0,.14-.07.14-.14v-.14q0-.14-.36-.22c-.79,0-1.01-.07-1.08-.29-.07-.07-.07-.14-.07-.58-.07-.14-.07-.29-.07-.36v-2.09l2.23-3.46c.5-.72.58-.86.79-1.01.14-.07.36-.14.58-.14q.29-.07.29-.22Z"/>
      <path class="cls-1" d="M242.18,11.02c0-2.52-1.8-4.32-4.32-4.32-.14,0-.22,0-.29.07v.65c1.8.07,3.17,1.87,3.17,4.18s-1.3,3.74-3.1,3.74h-.07v.72c2.66-.07,4.46-2.02,4.61-4.82v-.22ZM237.57,6.77c-2.66.07-4.61,2.09-4.61,4.9,0,2.59,1.87,4.39,4.46,4.39h.14v-.72c-1.8-.07-3.17-1.8-3.17-4.18,0-2.23,1.22-3.74,3.1-3.74h.07v-.65Z"/>
      <path class="cls-1" d="M251.97,8.86h0v-.14l-.14-1.3v-.22q-.07-.22-.22-.22h-5.76q-.14,0-.14.14c0,.14,0,.22.07.22q0,.07.22.07c.79,0,.94.22.94,1.22v5.54c0,.43-.07.79-.14.86-.07.22-.29.29-.79.36q-.29,0-.29.22c0,.14,0,.22.14.22h.22l.5-.07h2.3c.36,0,.65.07.86.07h.22c.07,0,.14-.07.14-.22h0v-.07c0-.14-.07-.22-.29-.22-.72,0-1.08-.07-1.3-.22-.14-.07-.22-.29-.22-.72v-2.88h2.02c.07,0,.22.07.29.07.07.07.14.14.14.14.07.14.14.36.22.65q0,.29.14.29c.22,0,.29,0,.29-.14h0v-.29c-.07-.36-.07-.58-.07-.72v-.22c0-.5.07-1.01.07-1.22v-.22c0-.07-.07-.14-.22-.14s-.22.07-.22.22c0,.5-.14.72-.36.79-.29.14-.58.14-1.73.14h-.58v-3.24h.65c1.01,0,1.58.07,1.87.22.29.07.5.36.65.72l.07.29q.07.14.14.14c.22,0,.29-.07.29-.14Z"/>
      <g>
        <path class="cls-1" d="M202.15,66.1c0,1.66-1.22,3.53-3.1,3.96v-.72c.94-.72,1.87-2.3,1.87-3.74,0-1.01-.43-1.44-1.01-1.44-.22,0-.58.14-.86.36v-.72c.29-.07.58-.14.86-.14,1.15,0,2.23.86,2.23,2.45ZM199.05,70.06c-.21.07-.5.07-.79.07-1.15,0-2.23-.79-2.23-2.45s1.22-3.46,3.02-3.89v.72c-.86.72-1.87,2.23-1.87,3.74,0,1.01.43,1.44,1.08,1.44.22,0,.5-.14.79-.36v.72Z"/>
        <g>
          <path class="cls-1" d="M103.72,63.36c-.14.29-3.17,4.68-3.17,4.68-.29.5-1.15,1.73-1.3,2.09h-.72c.07-3.02.5-7.78.5-8.71,0-1.01-.14-1.08-1.15-1.08v-.5c.43,0,1.3.07,2.09.07.58,0,1.15-.07,1.73-.07v.5c-1.08.07-1.3.29-1.37,1.22l-.29,5.83c-.07.22-.07.29-.07.43l.36-.5c.29-.43.65-.94,1.01-1.44.79-1.15,1.73-2.52,2.45-3.46l.07-1.51c.07-.36-.22-.58-.86-.58v-.5c.22,0,.94.07,1.73.07s1.22-.07,1.66-.07v.5c-.94,0-1.15.14-1.22,1.51l-.29,4.03c-.07.86-.14,2.02-.14,2.16.07.07,4.54-6.26,4.54-7.27,0-.29-.29-.5-.79-.43v-.5c.29,0,.86.07,1.44.07s1.08-.07,1.37-.07v.5c-.65,0-.94.22-1.44,1.15-2.23,3.82-4.97,7.42-5.83,8.64h-.72l.43-6.77Z"/>
          <path class="cls-1" d="M112.29,66.24h-.07.07c0-.07.07-.22.07-.36.14-.36.43-.94.72-1.73.86-2.3,1.51-4.18,1.51-4.25,0-.22-.14-.22-.29-.22h-1.87q-.07.07-.07.22c0,.14.14.22.5.29.22,0,.29.07.29.22s-.14.65-.36,1.37c-.14.43-.36.94-.58,1.51v2.95h.07c0-.07.14-.22.22-.29.14-.29.43-.65.72-.94.58-.65,1.3-1.37,2.02-1.37.58,0,.94.43.94,1.22,0,.65-.29,1.58-.65,2.38-.14.43-.29.79-.43,1.08-.07.29-.14.5-.14.5,0,.07,0,.14.14.14.07,0,.29-.14.5-.36.22-.22.43-.5.58-.58l.29.29c-.65.79-1.58,1.8-2.52,1.8-.43,0-.5-.22-.5-.5,0-.22.07-.5.22-.86.14-.36.36-.86.58-1.3.36-.86.79-1.73.79-2.23,0-.29-.07-.36-.36-.36-.58,0-1.58.94-2.45,2.23v-.86h.07ZM112.22,66.24v.07-.07.86c-.5.79-.94,1.73-1.22,2.66-.07.22-.29.29-.65.29s-.5-.07-.5-.29c0-.14.36-1.08.86-2.23.43-1.15.94-2.52,1.3-3.46.07-.29.14-.5.22-.79v3.02-.07h0Z"/>
          <path class="cls-1" d="M121.07,67.68c-.07.07-.14.14-.14.14-.07.14-.22.29-.36.5-.14.22-.29.43-.43.58v-.72c.94-1.08,1.73-2.66,1.73-3.17,0-.43-.22-.79-.65-.79-.36,0-.72.22-1.08.5v-.65c.43-.14.86-.29,1.37-.29.22,0,.36,0,.5.07h.14c.07,0,.14.07.22.07q0-.07.07-.07s.07-.07.07-.14l.07-.07h0c.07-.07.14-.14.22-.14,0,0,.22.07.29.14.14.07.29.14.29.36,0,.07-.07.43-.29.86-.14.43-.36.94-.58,1.51-.43,1.15-.86,2.3-.86,2.59v.14h.14s.14,0,.29-.14c.07-.07.21-.22.36-.43.14-.14.22-.29.36-.36.07-.07.07-.14.14-.14,0-.07.07-.07.14-.07.14,0,.22.07.22.22,0,.07-1.22,1.94-2.3,1.94-.36,0-.5-.22-.5-.65,0-.29.14-.72.29-1.08.07-.14.14-.29.22-.43v-.14c.07-.07.07-.14.07-.14ZM120.14,68.9c-.79.94-1.37,1.22-1.94,1.22s-1.01-.43-1.01-1.3c0-1.01,1.01-3.82,2.95-4.75v.65c-1.01.79-1.8,2.59-1.8,3.82,0,.5.22.58.43.58.36,0,.86-.43,1.37-.94v.72Z"/>
          <path class="cls-1" d="M124.6,70.06c-.14,0-.22-.14-.22-.29,0-.07.14-.36.29-.72.14-.43.29-.94.5-1.44.36-1.08.72-2.16.72-2.59,0-.29-.07-.29-.14-.29-.14,0-.29.07-.5.29-.14.22-.36.43-.43.58-.07.07-.14.14-.14.14,0,.07-.07.07-.07.07,0,.07-.07.07-.07.07-.14,0-.22-.14-.22-.22,0-.29,1.44-2.02,2.16-2.02.29,0,.5.14.5.58,0,.14-.14.72-.29,1.3l-.14.72c-.07.22-.07.36-.07.36.07-.07.07-.14.14-.22.22-.36.58-1.01,1.01-1.58.43-.58.86-1.15,1.3-1.15.36,0,.58.36.58.79,0,.58-.22.86-.5.86s-.43-.22-.5-.36l-.07-.07v-.14h-.14c-.22,0-.94.86-2.38,4.03l-.43,1.01c-.07.07-.07.14-.14.14,0,.07-.07.14-.14.14h-.58Z"/>
          <path class="cls-1" d="M132.45,68.83v-.07c.22-.07.36-.22.43-.29l.14-.07c.07-.07.14-.07.14-.07.14,0,.22.07.22.22,0,.07-.43.5-.94.94v-.65h0ZM132.45,63.86c.29-.14.58-.22.86-.22.79,0,1.3.5,1.3,1.08,0,1.01-1.22,1.44-2.16,1.66v-.65c.72-.22,1.15-.58,1.15-1.08,0-.29-.22-.5-.5-.5-.22,0-.43.07-.65.29v-.58ZM131.3,69.26c.36,0,.79-.22,1.15-.43v.65c-.5.36-1.15.65-1.8.65-1.01,0-1.73-.65-1.73-1.73,0-1.94,1.87-3.96,3.53-4.54v.58c-.58.43-1.01,1.15-1.22,1.44.43,0,.86-.07,1.22-.14v.65c-.36,0-.65.07-.86.07-.29,0-.43-.07-.65-.07-.29.43-.65,1.08-.65,1.87,0,.58.36,1.01,1.01,1.01Z"/>
        </g>
        <g>
          <path class="cls-1" d="M146.06,63.36c-.14.29-3.17,4.68-3.17,4.68-.36.5-1.15,1.73-1.3,2.09h-.79c.07-3.02.5-7.78.5-8.71,0-1.01-.14-1.08-1.15-1.08v-.5c.43,0,1.3.07,2.16.07.58,0,1.15-.07,1.73-.07v.5c-1.08.07-1.3.29-1.37,1.22l-.36,5.83v.43l.36-.5c.29-.43.58-.94,1.01-1.44.79-1.15,1.73-2.52,2.38-3.46l.14-1.51c0-.36-.29-.58-.94-.58v-.5c.29,0,1.01.07,1.8.07.72,0,1.15-.07,1.58-.07v.5c-.94,0-1.15.14-1.22,1.51l-.22,4.03c-.07.86-.22,2.02-.22,2.16.07.07,4.54-6.26,4.54-7.27,0-.29-.22-.5-.72-.43v-.5c.29,0,.86.07,1.37.07.65,0,1.15-.07,1.44-.07v.5c-.72,0-1.01.22-1.51,1.15-2.16,3.82-4.9,7.42-5.83,8.64h-.72l.5-6.77Z"/>
          <path class="cls-1" d="M153.83,67.68c-.07.07-.07.14-.14.14-.07.14-.14.29-.29.5-.14.22-.29.43-.5.58v-.72c.94-1.08,1.8-2.66,1.8-3.17,0-.43-.22-.79-.72-.79-.36,0-.72.22-1.08.5v-.65c.43-.14.86-.29,1.37-.29.22,0,.36,0,.5.07h.22c.07,0,.07.07.14.07l.07-.07c.07,0,.07-.07.14-.14v-.07h.07c.07-.07.07-.14.14-.14s.22.07.36.14c.14.07.29.14.29.36,0,.07-.14.43-.29.86-.14.43-.36.94-.58,1.51-.5,1.15-.86,2.3-.86,2.59v.14h.07c.07,0,.14,0,.29-.14.14-.07.29-.22.36-.43.14-.14.29-.29.36-.36.07-.07.14-.14.14-.14.07-.07.14-.07.14-.07.14,0,.22.07.22.22,0,.07-1.22,1.94-2.23,1.94-.36,0-.58-.22-.58-.65,0-.29.14-.72.29-1.08.07-.14.14-.29.22-.43l.07-.14v-.14ZM152.9,68.9c-.72.94-1.37,1.22-1.87,1.22-.58,0-1.01-.43-1.01-1.3,0-1.01.94-3.82,2.88-4.75v.65c-.94.79-1.73,2.59-1.73,3.82,0,.5.14.58.36.58.43,0,.94-.43,1.37-.94v.72Z"/>
          <path class="cls-1" d="M159.38,65.95c.07-.07.14-.14.22-.22.07-.14.22-.29.36-.5.22-.22.36-.43.65-.72.43-.43,1.01-.86,1.58-.86.65,0,1.15.5,1.15,1.15,0,.58-.43,1.51-.79,2.3-.14.43-.36.86-.5,1.15-.14.29-.22.5-.22.58,0,.14.07.14.07.14.22,0,.94-.58,1.22-.86l.36.22c-.86,1.01-2.16,1.8-2.81,1.8-.29,0-.43-.14-.43-.43,0-.07.14-.36.29-.72.14-.36.43-.86.65-1.37.5-1.08.94-2.16.94-2.59,0-.36-.22-.43-.43-.43-.94,0-2.66,2.23-3.46,4.39l-.22.65c-.07.14-.07.29-.14.36h-.07l-.14.07h-.29c-.22,0-.29,0-.36-.07-.07,0-.14,0-.14-.07,0-.14.14-.5.29-.94.14-.43.36-.94.58-1.44.43-1.15.79-2.23.79-2.66v-.07c-.22,0-.5.22-.86.5l-.36.36c-.07.07-.14.14-.22.14l-.07.07c-.14,0-.22-.07-.22-.22,0-.29,1.94-2.02,2.59-2.02.36,0,.58.22.58.5s-.14.72-.29,1.08l-.22.5-.07.14v.07Z"/>
          <path class="cls-1" d="M168.16,67.68c-.07.07-.07.14-.14.14-.07.14-.22.29-.29.5-.22.22-.36.43-.5.58v-.72c.94-1.08,1.66-2.66,1.66-3.17,0-.43-.14-.79-.58-.79-.36,0-.72.22-1.08.5v-.65c.43-.14.86-.29,1.37-.29.14,0,.29,0,.43.07h.22s.07.07.14.07c0-.07.07-.07.07-.07,0,0,.07-.07.07-.14l.07-.07h.07c0-.07.07-.14.14-.14s.22.07.29.14c.14.07.29.14.29.36,0,.07-.07.43-.29.86-.14.43-.36.94-.58,1.51-.43,1.15-.79,2.3-.79,2.59v.14h.07c.07,0,.14,0,.29-.14.07-.07.22-.22.36-.43.14-.14.22-.29.36-.36.07-.07.07-.14.14-.14q.07-.07.14-.07c.14,0,.22.07.22.22,0,.07-1.22,1.94-2.23,1.94-.36,0-.5-.22-.5-.65,0-.29.14-.72.29-1.08.07-.14.14-.29.22-.43l.07-.14v-.14ZM167.23,68.9c-.72.94-1.37,1.22-1.94,1.22-.5,0-1.01-.43-1.01-1.3,0-1.01,1.01-3.82,2.95-4.75v.65c-.94.79-1.73,2.59-1.73,3.82,0,.5.14.58.36.58.36,0,.86-.43,1.37-.94v.72Z"/>
          <path class="cls-1" d="M173.92,65.95c.07-.07.07-.14.14-.22.14-.14.22-.29.43-.5.14-.22.36-.43.58-.72.5-.43,1.08-.86,1.66-.86.65,0,1.08.5,1.08,1.15,0,.58-.36,1.51-.72,2.3-.22.43-.36.86-.5,1.15-.14.29-.22.5-.22.58q0,.14.07.14c.22,0,.94-.58,1.22-.86l.29.22c-.86,1.01-2.09,1.8-2.74,1.8-.29,0-.5-.14-.5-.43,0-.07.14-.36.36-.72.14-.36.36-.86.65-1.37.43-1.08.94-2.16.94-2.59,0-.36-.22-.43-.43-.43-1.01,0-2.66,2.23-3.46,4.39l-.22.65c-.07.14-.14.29-.22.36h-.07l-.07.07h-.29c-.22,0-.29,0-.36-.07-.07,0-.14,0-.14-.07,0-.14.14-.5.29-.94.14-.43.36-.94.5-1.44.43-1.15.86-2.23.86-2.66q0-.07-.07-.07c-.14,0-.43.22-.79.5l-.43.36c-.07.07-.07.14-.14.14q-.07.07-.14.07c-.07,0-.14-.07-.14-.22,0-.29,1.87-2.02,2.59-2.02.36,0,.5.22.5.5s-.14.72-.22,1.08l-.22.5-.07.14v.07Z"/>
          <path class="cls-1" d="M180.69,68.33h0v-.72c.14.22.43.29.72.29,1.15,0,1.8-1.66,1.8-2.45,0-.65-.36-1.22-1.01-1.22s-1.22.5-1.51,1.15v-1.3c.43-.29.86-.43,1.37-.43.58,0,.94.22,1.22.36q.07.07.14.14l.14.14.07.07.14-.07.36-.14c.22-.07.5-.22.72-.22.36,0,.65.22.65.58,0,.29-.29.43-.58.43-.14,0-.36,0-.5-.07h-.22q-.07-.07-.14-.07c-.07.29.07.36.07,1.08,0,1.01-.79,2.59-2.59,2.59-.36,0-.65-.07-.86-.14h0ZM180.69,69.34c.36.14.72.36,1.08.5.94.5,2.02,1.08,2.02,1.8,0,.94-.94,1.94-3.1,2.09v-.5c1.3-.07,2.02-.58,2.02-1.08,0-.36-.36-.65-.86-.94-.29-.07-.5-.22-.79-.36-.14,0-.21-.07-.36-.14v-1.37ZM180.69,68.33c-.07,0-.14-.07-.22-.14l-.14-.07c-.43.29-.5.36-.5.43,0,.22.22.36.58.58.07.07.22.14.29.22v1.37c-.14-.07-.22-.14-.36-.22-1.08.5-1.66.86-1.66,1.51s.79,1.22,1.94,1.22h.07v.5h-.58c-1.66,0-2.66-.79-2.66-1.66,0-.72.58-1.3,2.38-1.87l-.22-.14c-.14-.07-.22-.14-.36-.29-.29-.22-.5-.5-.5-.86s.14-.58.43-.72c.22-.14.43-.29.72-.43-.36-.5-.5-1.08-.5-1.44,0-.94.5-1.8,1.3-2.23v1.3c-.22.43-.29.94-.29,1.37,0,.36.07.72.29.86v.72Z"/>
          <path class="cls-1" d="M188.75,67.68c0,.07-.07.14-.07.14-.07.14-.22.29-.36.5-.14.22-.29.43-.43.58v-.72c.86-1.08,1.73-2.66,1.73-3.17,0-.43-.22-.79-.65-.79-.36,0-.72.22-1.08.5v-.65c.36-.14.86-.29,1.3-.29.22,0,.43,0,.58.07h.14c.07,0,.14.07.14.07q.07-.07.14-.07s.07-.07.07-.14l.07-.07h0c.07-.07.14-.14.22-.14,0,0,.14.07.29.14.14.07.29.14.29.36,0,.07-.14.43-.29.86-.14.43-.36.94-.58,1.51-.43,1.15-.86,2.3-.86,2.59v.14h.14s.14,0,.22-.14c.14-.07.29-.22.43-.43.14-.14.22-.29.36-.36,0-.07.07-.14.14-.14,0-.07.07-.07.14-.07.14,0,.22.07.22.22,0,.07-1.22,1.94-2.3,1.94-.36,0-.58-.22-.58-.65,0-.29.22-.72.36-1.08.07-.14.14-.29.14-.43l.07-.14c.07-.07.07-.14,0-.14ZM187.89,68.9c-.79.94-1.37,1.22-1.94,1.22s-1.01-.43-1.01-1.3c0-1.01,1.01-3.82,2.95-4.75v.65c-1.01.79-1.8,2.59-1.8,3.82,0,.5.22.58.43.58.36,0,.86-.43,1.37-.94v.72Z"/>
        </g>
        <g>
          <path class="cls-1" d="M212.51,63.36c-.14.29-3.17,4.68-3.17,4.68-.36.5-1.15,1.73-1.3,2.09h-.72c.07-3.02.43-7.78.43-8.71,0-1.01-.07-1.08-1.15-1.08v-.5c.5,0,1.3.07,2.16.07.58,0,1.15-.07,1.73-.07v.5c-1.08.07-1.3.29-1.37,1.22l-.29,5.83c-.07.22-.07.29-.07.43l.36-.5c.29-.43.65-.94,1.01-1.44.79-1.15,1.73-2.52,2.45-3.46l.07-1.51c.07-.36-.22-.58-.86-.58v-.5c.22,0,.94.07,1.73.07s1.15-.07,1.66-.07v.5c-.94,0-1.15.14-1.22,1.51l-.29,4.03c-.07.86-.14,2.02-.14,2.16.07.07,4.54-6.26,4.54-7.27,0-.29-.29-.5-.79-.43v-.5c.29,0,.86.07,1.37.07.65,0,1.15-.07,1.44-.07v.5c-.65,0-.94.22-1.51,1.15-2.16,3.82-4.9,7.42-5.76,8.64h-.72l.43-6.77Z"/>
          <path class="cls-1" d="M220.36,67.68c-.07.07-.07.14-.14.14-.07.14-.14.29-.29.5-.14.22-.36.43-.5.58v-.72c.94-1.08,1.8-2.66,1.8-3.17,0-.43-.22-.79-.72-.79-.36,0-.72.22-1.08.5v-.65c.43-.14.86-.29,1.37-.29.22,0,.36,0,.5.07h.22c.07,0,.07.07.14.07,0-.07.07-.07.07-.07.07,0,.07-.07.07-.14l.07-.07h.07c0-.07.07-.14.14-.14s.22.07.36.14c.07.07.29.14.29.36,0,.07-.14.43-.29.86-.22.43-.43.94-.65,1.51-.43,1.15-.86,2.3-.86,2.59,0,.07.07.14.07.14h.07c.07,0,.14,0,.29-.14.14-.07.22-.22.36-.43.14-.14.29-.29.36-.36.07-.07.14-.14.14-.14.07-.07.14-.07.14-.07.14,0,.22.07.22.22,0,.07-1.22,1.94-2.23,1.94-.36,0-.58-.22-.58-.65,0-.29.14-.72.29-1.08.07-.14.14-.29.22-.43l.07-.14v-.14ZM219.43,68.9c-.72.94-1.37,1.22-1.87,1.22-.58,0-1.08-.43-1.08-1.3,0-1.01,1.01-3.82,2.95-4.75v.65c-.94.79-1.73,2.59-1.73,3.82,0,.5.14.58.36.58.43,0,.94-.43,1.37-.94v.72Z"/>
          <path class="cls-1" d="M223.6,65.52l.14-.14c.36-.43,1.44-1.58,2.16-1.58.29,0,.5.22.5.5,0,.58-.43,1.73-.86,2.74-.22.5-.43.94-.58,1.37-.14.36-.22.65-.22.72q0,.14.07.14c.14,0,.43-.14.65-.43.29-.22.58-.43.65-.58l.07-.07.29.22-.07.07c-.14.14-.29.36-.43.5-.14.22-.36.36-.58.58-.36.29-.86.58-1.44.58-.36,0-.5-.14-.5-.36,0-.5.43-1.51.86-2.52.14-.5.36-.94.5-1.37.22-.36.29-.72.29-.86,0-.07-.07-.14-.14-.14-.14,0-.36.14-.58.36-.14.14-.36.36-.5.5h0l-.29-.22h0ZM226.63,59.83c.36,0,.65.36.65.72s-.29.72-.65.72c-.43,0-.72-.36-.72-.72s.29-.72.72-.72Z"/>
          <path class="cls-1" d="M230.95,64.08c.5-.29,1.08-.58,1.58-.58.65,0,1.22.36,1.22,1.15,0,1.15-1.58,1.94-2.45,2.23.07.5.29,2.09.65,3.53.43,1.51,1.01,2.88,1.66,2.88.22,0,.29-.14.29-.14l-.07-.14-.07-.07.07-.07h.22c.07,0,.22.07.22.29,0,.29-.29.58-.72.58-.94,0-1.87-1.22-2.59-3.17v-4.18c.94-.43,1.73-1.01,1.73-1.66,0-.29-.14-.5-.5-.5-.29,0-.72.29-1.22.5v-.65h0ZM230.95,59.69h.58c.14,0,.22,0,.22.14s-.14.5-.22.86l-.58,1.44v-2.45ZM229.94,64.8h.07c.07-.07.14-.14.22-.22.14-.07.36-.29.58-.43.07,0,.14-.07.14-.07v.65c-.5.36-1.01.72-1.22.94l-.5,1.44c.5-.14,1.15-.43,1.73-.72v4.18c-.29-.94-.58-2.02-.72-3.24l-.58.22-.65.14-.43,1.37c-.14.43-.22.72-.29.79-.07.14-.14.22-.29.22h-.58c-.22,0-.29-.14-.29-.29s.43-1.51,1.66-4.9c.58-1.73,1.01-2.81,1.22-3.46.22-.72.29-.94.29-1.08,0-.07,0-.14-.14-.14-.14-.07-.43-.07-.79-.07h-.07v-.43h1.66v2.45l-.72,2.09-.14.36-.07.14c-.07.07,0,.07,0,.07h-.07Z"/>
          <path class="cls-1" d="M237.71,67.68c-.07.07-.07.14-.14.14-.07.14-.14.29-.29.5-.14.22-.36.43-.5.58v-.72c.94-1.08,1.8-2.66,1.8-3.17,0-.43-.22-.79-.72-.79-.36,0-.72.22-1.08.5v-.65c.43-.14.86-.29,1.37-.29.22,0,.36,0,.5.07h.22c.07,0,.07.07.14.07,0-.07.07-.07.07-.07.07,0,.07-.07.07-.14l.07-.07h.07c0-.07.07-.14.14-.14s.22.07.36.14c.07.07.29.14.29.36,0,.07-.14.43-.29.86-.22.43-.43.94-.65,1.51-.43,1.15-.86,2.3-.86,2.59,0,.07.07.14.07.14h.07c.07,0,.14,0,.29-.14.14-.07.22-.22.36-.43.14-.14.29-.29.36-.36.07-.07.14-.14.14-.14.07-.07.14-.07.14-.07.14,0,.22.07.22.22,0,.07-1.22,1.94-2.23,1.94-.36,0-.58-.22-.58-.65,0-.29.14-.72.29-1.08.07-.14.14-.29.22-.43l.07-.14v-.14ZM236.78,68.9c-.72.94-1.37,1.22-1.87,1.22-.58,0-1.08-.43-1.08-1.3,0-1.01,1.01-3.82,2.95-4.75v.65c-.94.79-1.73,2.59-1.73,3.82,0,.5.14.58.36.58.43,0,.94-.43,1.37-.94v.72Z"/>
          <path class="cls-1" d="M244.27,63.79h.58c.22,0,.29.14.29.43s-.14.5-.29.5h-.79c-.14,0-.21,0-.29.22l-1.22,3.31-.14.36c0,.07-.07.22-.07.22,0,.07.07.14.22.14s.58-.29.94-.58l.58-.43.14-.07.07-.07h.07c.14,0,.22.07.22.14,0,.22-.29.43-1.08,1.15-.65.58-1.44,1.01-1.94,1.01-.43,0-.58-.22-.58-.43,0-.29.14-.86.29-1.22l1.3-3.46.07-.14q.07-.07.07-.14h-.86c-.07,0-.22-.07-.22-.22l.07-.07v-.07l.22-.58h1.01c.07,0,.14,0,.22-.14l.43-1.01q.07-.07.14-.14c.07,0,.22,0,.43-.07h.43c.07,0,.14.07.14.14v.14l-.14.22-.29.79v.07h0Z"/>
          <path class="cls-1" d="M251.61,66.1c0,1.66-1.15,3.53-3.02,3.96v-.72c.86-.72,1.87-2.3,1.87-3.74,0-1.01-.43-1.44-1.01-1.44-.29,0-.58.14-.86.36v-.72c.29-.07.58-.14.86-.14,1.08,0,2.16.86,2.16,2.45ZM248.59,70.06c-.29.07-.58.07-.86.07-1.08,0-2.16-.79-2.16-2.45s1.15-3.46,3.02-3.89v.72c-.86.72-1.87,2.23-1.87,3.74,0,1.01.43,1.44,1.01,1.44.29,0,.58-.14.86-.36v.72Z"/>
        </g>
        <g>
          <path class="cls-1" d="M79.53,61.99l.07-.07c.14-.36.36-.94.58-1.44.14-.29.29-.5.36-.65.14-.14.22-.29.36-.29s.22,0,.36.07c.07.07.14.14.22.14.22.14.5.29,1.22.29h4.32c.94,0,1.3-.07,1.73-.36.14-.07.22-.14.36-.14s.22.07.22.29c0,.14-.14,1.22-.36,2.38-.07.29-.14.29-.36.29s-.29-.07-.29-.36c0-1.15-.5-1.51-1.8-1.51-.65,0-.79.14-1.01,1.01l-1.44,5.47c-.22.86-.43,1.66-.43,2.09,0,.22.36.36,1.3.43v.43h-4.46v-.43c1.22-.14,1.51-.22,1.73-1.22l1.73-6.34c.07-.36.22-.79.22-1.08s-.07-.36-1.15-.36c-1.15,0-1.73.14-2.81,1.37h-.65Z"/>
          <path class="cls-1" d="M90.11,68.83s.07,0,.07-.07c.14-.07.29-.22.43-.29l.14-.07q.07-.07.14-.07c.07,0,.14.07.14.22,0,.07-.36.5-.94.94v-.65h0ZM90.11,63.86c.29-.14.65-.22.94-.22.79,0,1.3.5,1.3,1.08,0,1.01-1.22,1.44-2.23,1.66v-.65c.72-.22,1.15-.58,1.15-1.08,0-.29-.14-.5-.43-.5-.22,0-.5.07-.72.29v-.58ZM88.96,69.26c.43,0,.79-.22,1.15-.43v.65c-.5.36-1.15.65-1.73.65-1.01,0-1.73-.65-1.73-1.73,0-1.94,1.8-3.96,3.46-4.54v.58c-.5.43-1.01,1.15-1.15,1.44.43,0,.79-.07,1.15-.14v.65c-.29,0-.58.07-.79.07-.36,0-.5-.07-.65-.07-.29.43-.65,1.08-.65,1.87,0,.58.36,1.01.94,1.01Z"/>
        </g>
      </g>
      <rect class="cls-2" x="153.04" y="62.06" width="3.46" height=".58"/>
      <path class="cls-1" d="M136.19,49.46v-.43c0-.22-.14-.36-.5-.36-.65,0-1.37-.14-1.73-.36-.5-.22-.65-.5-1.08-1.37l-.43-.94-8.21-19.15c-.36-.72-.43-.79-.86-.79h-.43c-.29,0-.43,0-.5.14h0v4.82l3.53,8.78h-3.53v1.73h4.18l1.73,4.46.36.79c.07.14.14.29.14.5.07.22.14.43.14.5,0,.43-.5.65-1.51.79-.36,0-.58,0-.72.07-.14,0-.22,0-.29.07-.14.07-.14.22-.14.36v.29c0,.36.07.43.36.43h.43l.86-.07h3.24c2.16,0,3.38.07,3.67.07h.72c.43,0,.58-.07.58-.36ZM122.44,26.21c-.07.14-.22.36-.36.65l-7.99,19.01c-.58,1.37-.79,1.73-1.15,2.16-.14.14-.36.29-.5.36-.36.14-.72.22-1.44.36-.36,0-.43.14-.43.5,0,.5.07.58.5.58h.65c1.37,0,2.38-.07,3.02-.07.5,0,1.51.07,3.1.07h.65c.5,0,.58-.14.58-.58,0-.5-.07-.58-.72-.58-1.44-.07-2.16-.43-2.16-1.08,0-.29.22-1.08.43-1.73l1.66-4.32h4.18v-1.73h-3.53l3.46-9,.07.22v-4.82Z"/>
      <path class="cls-1" d="M178.31,49.25c0-.36-.07-.5-.36-.5l-.36-.07c-.65-.07-1.3-.29-1.73-.5-.65-.36-1.08-.86-2.52-2.45l-7.85-8.78,5.69-5.62c1.73-1.73,2.81-2.66,3.6-3.02.43-.22,1.01-.36,1.94-.5.43-.07.58-.14.58-.58v-.22c0-.22-.14-.36-.43-.36h-.43c-.22,0-.5.07-.94.07h-6.41c-.22,0-.36,0-.43-.07-.29,0-.36.14-.36.5,0,.5.07.58.43.65,1.15,0,1.58.22,1.58.72s-.5,1.08-2.09,2.81l-4.82,5.04v3.31l5.33,6.34c.79,1.01,1.08,1.51,1.08,1.8,0,.43-.5.79-1.51.86-.5,0-.58.14-.58.5,0,.58.07.65.5.65h.5c.29,0,.72,0,1.3-.07h6.05l1.08.07h.5c.5,0,.65-.07.65-.58h0ZM163.41,49.82v-1.15h.72c.65,0,.79.07.79.5v.14c0,.43-.07.5-.5.5h-1.01ZM163.41,27.86v-1.15h.36l.5-.07c.29,0,.36.14.36.43v.14c0,.5-.07.5-.72.58-.07,0-.22,0-.5.07ZM163.41,36.36l-1.51,1.58,1.51,1.73v-3.31h0ZM163.41,26.71v1.15h-.29c-1.44.22-1.58.58-1.58,3.17v14.47c0,1.15,0,1.94.14,2.38.14.36.86.65,1.73.79v1.15c-.22-.07-.43-.07-.72-.07h-5.98c-.43,0-.79.07-1.08.07h-.5c-.29,0-.43-.07-.43-.43v-.14c0-.5.07-.58.72-.58.29,0,.58,0,.79-.07h.07c.43-.14.79-.22,1.01-.36.43-.22.58-.94.58-2.74v-14.47c0-2.59-.14-2.95-1.58-3.17h-.07c-.43-.07-.65-.07-.79-.07-.58-.07-.72-.07-.72-.58v-.14c0-.29.07-.43.5-.43l.14.07h1.37c1.01,0,1.8.07,2.23.07h1.51c.36,0,1.08-.07,2.23-.07h.72Z"/>
      <path class="cls-1" d="M206.32,49.46v-.43c0-.22-.14-.36-.58-.36-.65,0-1.3-.14-1.73-.36-.43-.22-.65-.5-1.08-1.37l-.43-.94-8.21-19.15c-.29-.72-.36-.79-.79-.79h-.43c-.36,0-.43,0-.5.14h0v4.82l3.46,8.78h-3.46v1.73h4.18l1.73,4.46.29.79c.07.14.14.29.22.5.07.22.07.43.07.5,0,.43-.5.65-1.44.79-.36,0-.65,0-.79.07-.07,0-.14,0-.22.07-.14.07-.14.22-.14.36v.29c0,.36.07.43.36.43h.43l.86-.07h3.24c2.16,0,3.38.07,3.67.07h.72c.43,0,.58-.07.58-.36ZM192.57,26.21c-.07.14-.22.36-.36.65l-7.99,19.01c-.58,1.37-.79,1.73-1.15,2.16-.14.14-.36.29-.58.36-.29.14-.65.22-1.44.36-.29,0-.36.14-.36.5,0,.5.07.58.43.58h.72c1.37,0,2.38-.07,2.95-.07.5,0,1.58.07,3.1.07h.72c.43,0,.58-.14.58-.58,0-.5-.14-.58-.72-.58-1.51-.07-2.23-.43-2.23-1.08,0-.29.22-1.08.5-1.73l1.58-4.32h4.25v-1.73h-3.53l3.38-9,.14.22v-4.82Z"/>
      <path class="cls-1" d="M252.47,37.22c0-6.55-4.82-11.23-11.38-11.23h-.72v1.87c4.75.07,8.28,4.75,8.28,10.94,0,5.76-3.31,9.72-8.14,9.72h-.14v1.94c6.91-.22,11.74-5.33,12.02-12.74.07-.14.07-.36.07-.5ZM240.38,25.99c-6.98.36-12.02,5.69-12.02,12.89,0,6.77,4.82,11.59,11.59,11.59h.43v-1.94c-4.75-.07-8.28-4.75-8.28-11.02,0-5.83,3.17-9.72,8.06-9.72.07,0,.14,0,.22.07v-1.87Z"/>
      <path class="cls-1" d="M149.73,49.32v-.29c0-.22-.14-.29-.43-.29l-.79-.14c-1.66-.22-2.02-.5-2.02-2.02l-.07-1.08v-14.47c0-.07.07-.5.07-1.22,0-.29,0-.43.07-.65,0-.43.22-.79.43-.94.36-.22,1.15-.43,2.16-.5.36,0,.43-.07.43-.5v-.14c0-.29-.07-.43-.43-.43l-.58.07h-8.28c-.14-.07-.21-.07-.29-.07-.29,0-.36.07-.36.29v.29q0,.5.36.5c1.01.07,1.87.29,2.23.5.43.36.5.79.5,2.81v14.47c0,1.73-.14,2.45-.5,2.74-.43.29-.86.36-2.23.43-.36.07-.36.14-.36.58v.14c0,.36.07.43.36.43h.5c.36,0,.72-.07,1.08-.07h6.05c.5.07.94.07,1.15.07h.58c.29,0,.36-.07.36-.5Z"/>
      <path class="cls-1" d="M115.1,27.14c0-.36-.07-.5-.43-.5-.07,0-.22.07-.36.07h-6.7c-.22,0-.36-.07-.5-.07-.36,0-.5.22-.5.58,0,.29.07.43.22.5.14.07.22,0,.86.07,1.37.14,1.8.43,1.8,1.15,0,.43-.07.86-.29,1.51l-.29.94-4.32,13.46-4.46-13.39-.43-1.01c-.29-.79-.36-1.15-.36-1.51,0-.72.5-1.01,2.02-1.08l.65-.07c.43,0,.5-.07.5-.5,0-.5-.14-.65-.79-.65-.14,0-.65.07-1.73.07h-6.91c-.07,0-.14-.07-.22-.07-.36,0-.43.14-.43.58,0,.5.07.58.5.58,1.3.14,1.66.29,2.02.72.36.43.65,1.01.86,1.94l-4.75,14.33-4.82-13.75-.22-.65c-.29-.86-.36-1.08-.36-1.37,0-.79.43-1.01,2.23-1.15l.43-.07c.36,0,.43-.07.43-.5,0-.5-.07-.65-.5-.65l-.5.07h-8.28c-.22,0-.36-.07-.43-.07-.43,0-.5.14-.5.65,0,.29,0,.43.07.43.14.07.22.07.58.14,1.22.14,1.66.29,2.02.72.22.22.36.5.65,1.22.29.65.5,1.15.58,1.51l6.7,17.93c.36,1.01.43,1.08.72,1.08h.72c.36,0,.43-.14.65-.58l5.54-16.63,5.83,16.27c.29.79.43.94.86.94h.58c.36,0,.43-.07.65-.5l.07-.5,6.62-18,.58-1.58c.36-.79.43-1.01.72-1.22.36-.36.79-.58,1.66-.72q.65-.07.72-.14c.07-.14.07-.29.07-.5Z"/>
      <path class="cls-1" d="M226.7,27.07c0-.29-.14-.43-.5-.43h-.72l-1.15.07h-12.89l-2.16-.07h-2.16c-.43,0-.5,0-.58.22-.07.07-.07.22-.14,1.01l-.29,3.17c0,.22-.07.43-.07.65h0c0,.22.36.36.86.36.14,0,.22-.07.29-.22.22-1.44,1.01-2.52,1.94-2.95.86-.36,1.8-.5,4.97-.5h.5v17.06c0,1.94-.14,2.45-.65,2.74-.36.22-1.22.43-2.3.5-.72.07-.79.14-.79.43v.22c0,.36.07.5.36.5h.43c.36,0,.94,0,1.73-.07h6.7c.65,0,1.08.07,1.22.07h.43c.58,0,.65-.07.65-.5v-.29c0-.29-.14-.29-1.01-.36-1.44-.14-1.87-.22-2.3-.43-.65-.29-.79-.79-.79-2.81v-17.06h1.44c1.08,0,2.3,0,2.95.07.5.07.94.22,1.37.36.65.43,1.08,1.22,1.22,2.59.07.58.14.65.65.65s.58-.07.58-.43l.07-.58v-.79l.07-2.38v-.36l.07-.43Z"/>
    </g>
  </g>
</svg>