<?xml version="1.0" encoding="UTF-8"?>
<svg id="uuid-1ecad16c-e603-4f3c-9acd-81d05a1a43cc" data-name="Layer 2" xmlns="http://www.w3.org/2000/svg" viewBox="0 0 1738.09 498.43">
  <defs>
    <style>
      .uuid-d34d3d39-7bfe-4665-8b7b-8c8ccfd8847a {
        fill: #420d2d;
      }

      .uuid-60abcbf1-7815-405f-a65a-cdc767ce3054 {
        fill: #412b15;
      }

      .uuid-dd0f7d84-b92f-43eb-9994-10b71f9cf445 {
        fill: #2c1141;
      }

      .uuid-da83c31a-1554-4a1b-9ebc-3de38ada29f0 {
        fill: #3d1312;
      }
    </style>
  </defs>
  <g id="uuid-85624ac3-36b9-482b-9d11-697ec5cd9731" data-name="Layer 2">
    <polygon class="uuid-da83c31a-1554-4a1b-9ebc-3de38ada29f0" points="1244.37 87.95 1155.9 87.95 1111.66 164.57 1155.9 241.19 1244.37 241.19 1288.61 164.57 1244.37 87.95"/>
    <polygon class="uuid-dd0f7d84-b92f-43eb-9994-10b71f9cf445" points="720.21 176.25 631.74 176.25 587.5 252.87 631.74 329.49 720.21 329.49 764.45 252.87 720.21 176.25"/>
    <polygon class="uuid-d34d3d39-7bfe-4665-8b7b-8c8ccfd8847a" points="474.16 407.23 429.93 330.6 341.45 330.61 297.21 407.23 341.45 483.85 429.93 483.85 474.16 407.23"/>
    <polygon class="uuid-dd0f7d84-b92f-43eb-9994-10b71f9cf445" points="670.74 339.13 624.85 339.13 601.9 378.88 624.85 418.63 670.74 418.63 693.69 378.88 670.74 339.13"/>
    <polygon class="uuid-d34d3d39-7bfe-4665-8b7b-8c8ccfd8847a" points="294.27 418.94 248.37 418.94 225.43 458.69 248.37 498.43 294.27 498.43 317.22 458.69 294.27 418.94"/>
    <polygon class="uuid-d34d3d39-7bfe-4665-8b7b-8c8ccfd8847a" points="331.81 332.4 287.57 255.78 199.09 255.78 154.86 332.4 199.09 409.02 287.57 409.02 331.81 332.4"/>
    <polygon class="uuid-d34d3d39-7bfe-4665-8b7b-8c8ccfd8847a" points="383.34 80.77 337.44 80.77 314.49 120.52 337.44 160.26 383.34 160.26 406.28 120.52 383.34 80.77"/>
    <polygon class="uuid-dd0f7d84-b92f-43eb-9994-10b71f9cf445" points="577.94 249.5 489.47 249.5 445.23 326.12 489.47 402.74 577.94 402.74 622.18 326.12 577.94 249.5"/>
    <polygon class="uuid-da83c31a-1554-4a1b-9ebc-3de38ada29f0" points="1091.77 14.04 1003.29 14.04 959.06 90.66 1003.29 167.28 1091.77 167.28 1136.01 90.66 1091.77 14.04"/>
    <polygon class="uuid-da83c31a-1554-4a1b-9ebc-3de38ada29f0" points="1188.54 0 1142.64 0 1119.69 39.75 1142.64 79.49 1188.54 79.49 1211.48 39.75 1188.54 0"/>
    <polygon class="uuid-d34d3d39-7bfe-4665-8b7b-8c8ccfd8847a" points="164.14 371.17 118.24 371.17 95.29 410.92 118.24 450.66 164.14 450.66 187.08 410.92 164.14 371.17"/>
    <polygon class="uuid-60abcbf1-7815-405f-a65a-cdc767ce3054" points="1619.05 363.09 1573.16 363.09 1550.21 402.83 1573.16 442.58 1619.05 442.58 1642 402.83 1619.05 363.09"/>
    <polygon class="uuid-da83c31a-1554-4a1b-9ebc-3de38ada29f0" points="966.74 254.1 878.27 254.1 834.03 330.72 878.27 407.34 966.74 407.34 1010.98 330.72 966.74 254.1"/>
    <polygon class="uuid-dd0f7d84-b92f-43eb-9994-10b71f9cf445" points="488.09 239.37 576.57 239.37 620.81 162.75 576.57 86.13 488.09 86.13 443.86 162.75 488.09 239.37"/>
    <polygon class="uuid-d34d3d39-7bfe-4665-8b7b-8c8ccfd8847a" points="150.6 168.16 194.84 244.78 283.31 244.78 327.55 168.16 283.31 91.54 194.84 91.54 150.6 168.16"/>
    <polygon class="uuid-d34d3d39-7bfe-4665-8b7b-8c8ccfd8847a" points="295.16 244.38 339.39 321.01 427.87 321.01 472.11 244.38 427.87 167.76 339.39 167.76 295.16 244.38"/>
    <polygon class="uuid-dd0f7d84-b92f-43eb-9994-10b71f9cf445" points="670.58 164.41 716.48 164.41 739.43 124.66 716.48 84.91 670.58 84.91 647.64 124.66 670.58 164.41"/>
    <polygon class="uuid-da83c31a-1554-4a1b-9ebc-3de38ada29f0" points="815.85 260.57 769.96 260.57 747.01 300.32 769.96 340.06 815.85 340.06 838.8 300.32 815.85 260.57"/>
    <polygon class="uuid-60abcbf1-7815-405f-a65a-cdc767ce3054" points="1590.98 160.29 1546.74 83.67 1458.27 83.67 1414.03 160.29 1458.27 236.91 1546.74 236.91 1590.98 160.29"/>
    <polygon class="uuid-da83c31a-1554-4a1b-9ebc-3de38ada29f0" points="1016.69 176.06 1105.17 176.06 1149.41 252.69 1105.17 329.31 1016.69 329.31 972.46 252.69 1016.69 176.06"/>
    <polygon class="uuid-60abcbf1-7815-405f-a65a-cdc767ce3054" points="1266.17 398.33 1310.41 321.71 1398.88 321.71 1443.12 398.33 1398.88 474.95 1310.41 474.95 1266.17 398.33"/>
    <polygon class="uuid-da83c31a-1554-4a1b-9ebc-3de38ada29f0" points="1066.16 338.95 1112.06 338.95 1135.01 378.7 1112.06 418.45 1066.16 418.45 1043.22 378.7 1066.16 338.95"/>
    <polygon class="uuid-60abcbf1-7815-405f-a65a-cdc767ce3054" points="1446.07 410.05 1491.96 410.05 1514.91 449.79 1491.96 489.54 1446.07 489.54 1423.12 449.79 1446.07 410.05"/>
    <polygon class="uuid-60abcbf1-7815-405f-a65a-cdc767ce3054" points="1408.53 323.51 1452.77 246.89 1541.24 246.89 1585.48 323.51 1541.24 400.13 1452.77 400.13 1408.53 323.51"/>
    <polygon class="uuid-60abcbf1-7815-405f-a65a-cdc767ce3054" points="1357.17 72.53 1403.07 72.53 1426.01 112.28 1403.07 152.03 1357.17 152.03 1334.22 112.28 1357.17 72.53"/>
    <polygon class="uuid-da83c31a-1554-4a1b-9ebc-3de38ada29f0" points="1158.97 249.32 1247.44 249.32 1291.68 325.94 1247.44 402.56 1158.97 402.56 1114.73 325.94 1158.97 249.32"/>
    <polygon class="uuid-60abcbf1-7815-405f-a65a-cdc767ce3054" points="1442.18 235.49 1397.94 312.11 1309.47 312.11 1265.23 235.49 1309.47 158.87 1397.94 158.87 1442.18 235.49"/>
    <polygon class="uuid-dd0f7d84-b92f-43eb-9994-10b71f9cf445" points="865.14 93.3 776.67 93.3 732.43 169.92 776.67 246.54 865.14 246.54 909.38 169.92 865.14 93.3"/>
    <polygon class="uuid-dd0f7d84-b92f-43eb-9994-10b71f9cf445" points="967.85 162.97 921.96 162.97 899.01 202.72 921.96 242.46 967.85 242.46 990.8 202.72 967.85 162.97"/>
    <polygon class="uuid-d34d3d39-7bfe-4665-8b7b-8c8ccfd8847a" points="176.95 259.46 132.71 182.84 44.24 182.84 0 259.46 44.24 336.08 132.71 336.08 176.95 259.46"/>
    <polygon class="uuid-60abcbf1-7815-405f-a65a-cdc767ce3054" points="1561.14 249.17 1605.38 172.55 1693.85 172.55 1738.09 249.18 1693.85 325.8 1605.38 325.8 1561.14 249.17"/>
  </g>
</svg>