<?xml version="1.0" encoding="UTF-8"?>
<svg id="uuid-b3f1e8c0-dca8-4815-b9c4-c2ad857f1a00" data-name="Layer 2" xmlns="http://www.w3.org/2000/svg" viewBox="0 0 2120.27 533.74">
  <defs>
    <style>
      .uuid-bc856641-7109-4c1d-a021-c42e252df908 {
        fill: #420d2d;
      }

      .uuid-144c5993-57b3-45bd-877d-2c3e037b48c0 {
        fill: #412b15;
      }

      .uuid-25a4eb2d-160c-4790-a7e8-2c9a10e9a36b {
        fill: #2c1141;
      }

      .uuid-dcde8906-fbf3-4352-a989-7390d3307786 {
        fill: #3d1312;
      }
    </style>
  </defs>
  <g id="uuid-fef4957c-95ee-4da3-ab07-2d7313a812e2" data-name="Layer 2">
    <polygon class="uuid-dcde8906-fbf3-4352-a989-7390d3307786" points="1363.08 8.2 1220.45 8.2 1149.14 131.71 1220.45 255.23 1363.08 255.23 1434.39 131.71 1363.08 8.2"/>
    <polygon class="uuid-25a4eb2d-160c-4790-a7e8-2c9a10e9a36b" points="905.58 270.92 762.95 270.92 691.64 394.44 762.95 517.95 905.58 517.95 976.89 394.44 905.58 270.92"/>
    <polygon class="uuid-bc856641-7109-4c1d-a021-c42e252df908" points="285.25 265.51 213.94 141.99 71.31 141.99 0 265.51 71.31 389.03 213.94 389.03 285.25 265.51"/>
    <polygon class="uuid-bc856641-7109-4c1d-a021-c42e252df908" points="218.13 405.39 144.15 405.39 107.15 469.46 144.15 533.54 218.13 533.54 255.12 469.46 218.13 405.39"/>
    <polygon class="uuid-25a4eb2d-160c-4790-a7e8-2c9a10e9a36b" points="1138.02 142.77 995.4 142.77 924.08 266.28 995.4 389.8 1138.02 389.8 1209.34 266.28 1138.02 142.77"/>
    <polygon class="uuid-dcde8906-fbf3-4352-a989-7390d3307786" points="1525.02 1.28 1451.03 1.28 1414.04 65.35 1451.03 129.42 1525.02 129.42 1562.01 65.35 1525.02 1.28"/>
    <polygon class="uuid-25a4eb2d-160c-4790-a7e8-2c9a10e9a36b" points="535.96 397.06 678.59 397.06 749.9 273.54 678.59 150.03 535.96 150.03 464.65 273.54 535.96 397.06"/>
    <polygon class="uuid-bc856641-7109-4c1d-a021-c42e252df908" points="234.18 405.7 305.5 529.22 448.12 529.21 519.44 405.7 448.12 282.18 305.5 282.18 234.18 405.7"/>
    <polygon class="uuid-bc856641-7109-4c1d-a021-c42e252df908" points="234.08 143.05 305.39 266.57 448.02 266.57 519.33 143.05 448.02 19.53 305.39 19.53 234.08 143.05"/>
    <polygon class="uuid-25a4eb2d-160c-4790-a7e8-2c9a10e9a36b" points="593.95 533.74 667.94 533.74 704.93 469.67 667.94 405.59 593.95 405.59 556.96 469.67 593.95 533.74"/>
    <polygon class="uuid-dcde8906-fbf3-4352-a989-7390d3307786" points="1130.7 0 1056.72 0 1019.72 64.07 1056.72 128.15 1130.7 128.15 1167.7 64.07 1130.7 0"/>
    <polygon class="uuid-dcde8906-fbf3-4352-a989-7390d3307786" points="1665.35 264.62 1594.04 141.11 1451.41 141.11 1380.1 264.63 1451.41 388.14 1594.04 388.14 1665.35 264.62"/>
    <polygon class="uuid-dcde8906-fbf3-4352-a989-7390d3307786" points="1227.05 275.2 1369.67 275.2 1440.99 398.72 1369.67 522.23 1227.05 522.23 1155.73 398.72 1227.05 275.2"/>
    <polygon class="uuid-144c5993-57b3-45bd-877d-2c3e037b48c0" points="1604.31 130.65 1675.63 7.13 1818.25 7.13 1889.57 130.65 1818.25 254.17 1675.63 254.17 1604.31 130.65"/>
    <polygon class="uuid-144c5993-57b3-45bd-877d-2c3e037b48c0" points="1526.22 400.2 1600.2 400.2 1637.2 464.27 1600.2 528.35 1526.22 528.35 1489.23 464.27 1526.22 400.2"/>
    <polygon class="uuid-144c5993-57b3-45bd-877d-2c3e037b48c0" points="1900.14 393.09 1828.83 516.61 1686.2 516.61 1614.89 393.09 1686.2 269.57 1828.83 269.57 1900.14 393.09"/>
    <polygon class="uuid-25a4eb2d-160c-4790-a7e8-2c9a10e9a36b" points="675.17 7.23 601.18 7.23 564.19 71.31 601.18 135.38 675.17 135.38 712.16 71.31 675.17 7.23"/>
    <polygon class="uuid-144c5993-57b3-45bd-877d-2c3e037b48c0" points="1835.02 250.2 1906.33 126.68 2048.96 126.68 2120.27 250.2 2048.95 373.72 1906.33 373.72 1835.02 250.2"/>
    <polygon class="uuid-25a4eb2d-160c-4790-a7e8-2c9a10e9a36b" points="906.3 15.09 763.67 15.09 692.36 138.61 763.67 262.13 906.3 262.13 977.61 138.61 906.3 15.09"/>
    <polygon class="uuid-dcde8906-fbf3-4352-a989-7390d3307786" points="1145.12 399.11 1071.13 399.11 1034.14 463.18 1071.13 527.26 1145.12 527.26 1182.11 463.18 1145.12 399.11"/>
  </g>
</svg>