<?xml version="1.0" encoding="UTF-8"?>
<svg id="uuid-21efcec9-6b25-4950-bfc7-fb992842117e" data-name="Layer 2" xmlns="http://www.w3.org/2000/svg" viewBox="0 0 1091.29 342.57">
  <defs>
    <style>
      .uuid-362f5bca-a413-4323-a3cc-ca278c37b5a6 {
        fill: #420d2d;
      }

      .uuid-bb63ef14-760c-457f-b3bc-5708c02c26be {
        fill: #412b15;
      }

      .uuid-440f97e2-6e68-4fe3-adbd-da6284b70599 {
        fill: #2c1141;
      }

      .uuid-69379842-0172-4faf-a74b-eada56bb9907 {
        fill: #3d1312;
      }
    </style>
  </defs>
  <g id="uuid-f8c9d419-ee81-4135-8977-aecaad3f967b" data-name="Layer 2">
    <polygon class="uuid-69379842-0172-4faf-a74b-eada56bb9907" points="701.57 74.41 628.16 74.41 591.45 137.98 628.16 201.56 701.57 201.56 738.27 137.98 701.57 74.41"/>
    <polygon class="uuid-440f97e2-6e68-4fe3-adbd-da6284b70599" points="466.09 209.63 392.69 209.63 355.98 273.2 392.69 336.78 466.09 336.78 502.8 273.2 466.09 209.63"/>
    <polygon class="uuid-362f5bca-a413-4323-a3cc-ca278c37b5a6" points="146.82 206.85 110.11 143.27 36.7 143.27 0 206.85 36.7 270.42 110.11 270.42 146.82 206.85"/>
    <polygon class="uuid-440f97e2-6e68-4fe3-adbd-da6284b70599" points="585.73 143.67 512.33 143.67 475.62 207.25 512.33 270.82 585.73 270.82 622.44 207.25 585.73 143.67"/>
    <polygon class="uuid-440f97e2-6e68-4fe3-adbd-da6284b70599" points="275.86 274.56 349.26 274.56 385.97 210.98 349.26 147.41 275.86 147.41 239.15 210.98 275.86 274.56"/>
    <polygon class="uuid-362f5bca-a413-4323-a3cc-ca278c37b5a6" points="120.53 279 157.24 342.57 230.65 342.57 267.35 279 230.65 215.43 157.24 215.43 120.53 279"/>
    <polygon class="uuid-362f5bca-a413-4323-a3cc-ca278c37b5a6" points="120.48 143.82 157.18 207.39 230.59 207.39 267.3 143.82 230.59 80.24 157.18 80.24 120.48 143.82"/>
    <polygon class="uuid-69379842-0172-4faf-a74b-eada56bb9907" points="857.15 206.39 820.44 142.82 747.03 142.82 710.33 206.39 747.03 269.97 820.44 269.96 857.15 206.39"/>
    <polygon class="uuid-69379842-0172-4faf-a74b-eada56bb9907" points="631.55 211.83 704.96 211.83 741.67 275.41 704.96 338.98 631.55 338.98 594.85 275.41 631.55 211.83"/>
    <polygon class="uuid-bb63ef14-760c-457f-b3bc-5708c02c26be" points="825.73 137.43 862.44 73.86 935.84 73.86 972.55 137.43 935.84 201.01 862.44 201.01 825.73 137.43"/>
    <polygon class="uuid-bb63ef14-760c-457f-b3bc-5708c02c26be" points="977.99 272.51 941.29 336.09 867.88 336.09 831.17 272.51 867.88 208.94 941.29 208.94 977.99 272.51"/>
    <polygon class="uuid-bb63ef14-760c-457f-b3bc-5708c02c26be" points="944.47 198.97 981.18 135.39 1054.59 135.39 1091.29 198.97 1054.59 262.54 981.18 262.54 944.47 198.97"/>
    <polygon class="uuid-440f97e2-6e68-4fe3-adbd-da6284b70599" points="466.47 77.96 393.06 77.96 356.35 141.53 393.06 205.11 466.47 205.11 503.17 141.53 466.47 77.96"/>
    <polygon class="uuid-362f5bca-a413-4323-a3cc-ca278c37b5a6" points="238.37 75 275.08 138.58 348.49 138.58 385.19 75 348.49 11.43 275.08 11.43 238.37 75"/>
    <polygon class="uuid-69379842-0172-4faf-a74b-eada56bb9907" points="583.34 0 509.94 0 473.23 63.57 509.94 127.15 583.34 127.15 620.05 63.57 583.34 0"/>
    <polygon class="uuid-bb63ef14-760c-457f-b3bc-5708c02c26be" points="707.09 67 743.79 3.43 817.2 3.43 853.91 67 817.2 130.58 743.79 130.58 707.09 67"/>
    <polygon class="uuid-bb63ef14-760c-457f-b3bc-5708c02c26be" points="939.52 63.57 976.22 0 1049.63 0 1086.33 63.57 1049.63 127.15 976.22 127.15 939.52 63.57"/>
    <polygon class="uuid-362f5bca-a413-4323-a3cc-ca278c37b5a6" points="148.05 68.15 111.34 4.57 37.94 4.57 1.23 68.15 37.94 131.72 111.34 131.72 148.05 68.15"/>
  </g>
</svg>