<?xml version="1.0" encoding="UTF-8"?>
<svg id="uuid-980d82e1-18ec-443c-a632-8693b3e1ff51" data-name="Layer 2" xmlns="http://www.w3.org/2000/svg" viewBox="0 0 2801.91 803.5">
  <defs>
    <style>
      .uuid-ff50214d-5bba-4ed0-8b7a-37ddbb93cf1f {
        fill: #420d2d;
      }

      .uuid-1f88fee7-f1ec-4f3d-b3e7-0c79b241e9e4 {
        fill: #412b15;
      }

      .uuid-fe4188ec-736f-474e-82d3-a07d6cae8688 {
        fill: #2c1141;
      }

      .uuid-a4db5ea1-64bc-4adf-81ad-06145c3121e7 {
        fill: #3d1312;
      }
    </style>
  </defs>
  <g id="uuid-0bb09bc2-7e3f-42e5-81c9-28a6ad52e50d" data-name="Layer 2">
    <g>
      <polygon class="uuid-a4db5ea1-64bc-4adf-81ad-06145c3121e7" points="2006 141.78 1863.37 141.78 1792.06 265.29 1863.37 388.81 2006 388.81 2077.31 265.29 2006 141.78"/>
      <polygon class="uuid-fe4188ec-736f-474e-82d3-a07d6cae8688" points="1161.02 284.12 1018.4 284.12 947.08 407.64 1018.4 531.15 1161.02 531.15 1232.34 407.64 1161.02 284.12"/>
      <polygon class="uuid-ff50214d-5bba-4ed0-8b7a-37ddbb93cf1f" points="764.38 656.47 693.07 532.95 550.44 532.96 479.13 656.47 550.44 779.99 693.07 779.99 764.38 656.47"/>
      <polygon class="uuid-fe4188ec-736f-474e-82d3-a07d6cae8688" points="1081.28 546.7 1007.29 546.7 970.3 610.78 1007.29 674.85 1081.28 674.85 1118.27 610.78 1081.28 546.7"/>
      <polygon class="uuid-ff50214d-5bba-4ed0-8b7a-37ddbb93cf1f" points="474.38 675.36 400.39 675.36 363.4 739.43 400.39 803.5 474.38 803.5 511.37 739.43 474.38 675.36"/>
      <polygon class="uuid-ff50214d-5bba-4ed0-8b7a-37ddbb93cf1f" points="534.89 535.85 463.58 412.34 320.95 412.34 249.64 535.85 320.95 659.37 463.58 659.37 534.89 535.85"/>
      <polygon class="uuid-ff50214d-5bba-4ed0-8b7a-37ddbb93cf1f" points="617.96 130.21 543.98 130.21 506.98 194.28 543.98 258.36 617.96 258.36 654.95 194.28 617.96 130.21"/>
      <polygon class="uuid-fe4188ec-736f-474e-82d3-a07d6cae8688" points="931.67 402.2 789.05 402.2 717.73 525.72 789.05 649.24 931.67 649.24 1002.99 525.72 931.67 402.2"/>
      <polygon class="uuid-a4db5ea1-64bc-4adf-81ad-06145c3121e7" points="1760 22.63 1617.37 22.63 1546.06 146.15 1617.37 269.67 1760 269.67 1831.31 146.15 1760 22.63"/>
      <polygon class="uuid-a4db5ea1-64bc-4adf-81ad-06145c3121e7" points="1915.99 0 1842.01 0 1805.01 64.07 1842.01 128.15 1915.99 128.15 1952.98 64.07 1915.99 0"/>
      <polygon class="uuid-ff50214d-5bba-4ed0-8b7a-37ddbb93cf1f" points="264.6 598.35 190.61 598.35 153.62 662.42 190.61 726.5 264.6 726.5 301.59 662.42 264.6 598.35"/>
      <polygon class="uuid-1f88fee7-f1ec-4f3d-b3e7-0c79b241e9e4" points="2610.01 585.32 2536.02 585.32 2499.03 649.39 2536.02 713.46 2610.01 713.46 2647 649.39 2610.01 585.32"/>
      <polygon class="uuid-a4db5ea1-64bc-4adf-81ad-06145c3121e7" points="1558.44 409.62 1415.82 409.62 1344.5 533.14 1415.82 656.65 1558.44 656.65 1629.76 533.14 1558.44 409.62"/>
      <polygon class="uuid-fe4188ec-736f-474e-82d3-a07d6cae8688" points="786.84 385.88 929.46 385.88 1000.78 262.36 929.46 138.84 786.84 138.84 715.52 262.36 786.84 385.88"/>
      <polygon class="uuid-ff50214d-5bba-4ed0-8b7a-37ddbb93cf1f" points="242.78 271.09 314.09 394.6 456.72 394.6 528.03 271.09 456.71 147.57 314.09 147.57 242.78 271.09"/>
      <polygon class="uuid-ff50214d-5bba-4ed0-8b7a-37ddbb93cf1f" points="475.81 393.96 547.12 517.48 689.75 517.48 761.06 393.96 689.75 270.44 547.12 270.44 475.81 393.96"/>
      <polygon class="uuid-fe4188ec-736f-474e-82d3-a07d6cae8688" points="1081.02 265.03 1155.01 265.03 1192 200.96 1155.01 136.89 1081.02 136.89 1044.03 200.96 1081.02 265.03"/>
      <polygon class="uuid-a4db5ea1-64bc-4adf-81ad-06145c3121e7" points="1315.2 420.06 1241.21 420.06 1204.22 484.13 1241.21 548.2 1315.2 548.2 1352.19 484.13 1315.2 420.06"/>
      <polygon class="uuid-1f88fee7-f1ec-4f3d-b3e7-0c79b241e9e4" points="2564.75 258.4 2493.44 134.88 2350.81 134.88 2279.5 258.4 2350.81 381.91 2493.44 381.91 2564.75 258.4"/>
      <polygon class="uuid-a4db5ea1-64bc-4adf-81ad-06145c3121e7" points="1638.97 283.83 1781.6 283.83 1852.91 407.34 1781.6 530.86 1638.97 530.86 1567.66 407.34 1638.97 283.83"/>
      <polygon class="uuid-1f88fee7-f1ec-4f3d-b3e7-0c79b241e9e4" points="2041.14 642.13 2112.46 518.62 2255.08 518.62 2326.4 642.13 2255.08 765.65 2112.46 765.65 2041.14 642.13"/>
      <polygon class="uuid-a4db5ea1-64bc-4adf-81ad-06145c3121e7" points="1718.72 546.41 1792.7 546.41 1829.7 610.48 1792.7 674.56 1718.72 674.56 1681.73 610.48 1718.72 546.41"/>
      <polygon class="uuid-1f88fee7-f1ec-4f3d-b3e7-0c79b241e9e4" points="2331.14 661.02 2405.13 661.02 2442.12 725.09 2405.13 789.17 2331.14 789.17 2294.15 725.09 2331.14 661.02"/>
      <polygon class="uuid-1f88fee7-f1ec-4f3d-b3e7-0c79b241e9e4" points="2270.63 521.51 2341.95 398 2484.57 398 2555.88 521.52 2484.57 645.03 2341.94 645.03 2270.63 521.51"/>
      <polygon class="uuid-1f88fee7-f1ec-4f3d-b3e7-0c79b241e9e4" points="2187.84 116.93 2261.82 116.93 2298.82 181 2261.82 245.08 2187.84 245.08 2150.85 181 2187.84 116.93"/>
      <polygon class="uuid-a4db5ea1-64bc-4adf-81ad-06145c3121e7" points="1868.32 401.91 2010.95 401.91 2082.26 525.43 2010.95 648.95 1868.32 648.95 1797.01 525.43 1868.32 401.91"/>
      <polygon class="uuid-1f88fee7-f1ec-4f3d-b3e7-0c79b241e9e4" points="2324.88 379.62 2253.56 503.14 2110.94 503.14 2039.62 379.62 2110.94 256.1 2253.56 256.11 2324.88 379.62"/>
      <polygon class="uuid-fe4188ec-736f-474e-82d3-a07d6cae8688" points="1394.66 150.4 1252.03 150.4 1180.72 273.92 1252.03 397.44 1394.66 397.44 1465.97 273.92 1394.66 150.4"/>
      <polygon class="uuid-fe4188ec-736f-474e-82d3-a07d6cae8688" points="1560.23 262.72 1486.25 262.72 1449.25 326.79 1486.25 390.87 1560.23 390.87 1597.23 326.79 1560.23 262.72"/>
      <polygon class="uuid-ff50214d-5bba-4ed0-8b7a-37ddbb93cf1f" points="285.25 418.27 213.94 294.75 71.31 294.75 0 418.27 71.31 541.78 213.94 541.78 285.25 418.27"/>
      <polygon class="uuid-1f88fee7-f1ec-4f3d-b3e7-0c79b241e9e4" points="2516.65 401.68 2587.97 278.17 2730.59 278.17 2801.91 401.69 2730.59 525.2 2587.97 525.2 2516.65 401.68"/>
    </g>
  </g>
</svg>