<?xml version="1.0" encoding="UTF-8"?>
<svg xmlns="http://www.w3.org/2000/svg" xmlns:xlink="http://www.w3.org/1999/xlink" viewBox="0 0 611.84 529.87">
  <defs>
    <style>
      .uuid-093218ff-4c44-4f05-9bb5-20c240fce7ef {
        clip-path: url(#uuid-5a221a5c-dc83-43a4-8d08-2040cee39d1a);
      }

      .uuid-d634248d-8007-4943-bdd2-dcdf81482fb9 {
        fill: #986c29;
        mix-blend-mode: overlay;
      }

      .uuid-ba0b0fc6-4fd8-40f6-8c36-4741a5c6215f {
        fill: none;
      }

      .uuid-edf5173d-57b7-40fe-a17b-bd9b156df47e {
        isolation: isolate;
      }
    </style>
    <clipPath id="uuid-5a221a5c-dc83-43a4-8d08-2040cee39d1a">
      <polygon class="uuid-ba0b0fc6-4fd8-40f6-8c36-4741a5c6215f" points="458.88 0 152.96 0 0 264.93 152.96 529.87 458.88 529.87 611.84 264.93 458.88 0"/>
    </clipPath>
  </defs>
  <g class="uuid-edf5173d-57b7-40fe-a17b-bd9b156df47e">
    <g id="uuid-7004cf1c-9f30-48a4-9071-f12db210cb09" data-name="Layer 2">
      <g id="uuid-50c0a7e9-1076-49a8-905b-ecbbb1d9159f" data-name="Layer 1">
        <g class="uuid-093218ff-4c44-4f05-9bb5-20c240fce7ef">
          <path class="uuid-d634248d-8007-4943-bdd2-dcdf81482fb9" d="M222.35-29.22c0,40.18-23.11,72.75-51.63,72.75-28.51,0-51.63-32.57-51.63-72.75,0-6.4.59-12.61,1.69-18.52-9.5,2.58-18.92,5.5-28.26,8.76,5.76,1.96,9.64,5.59,9.64,9.76,0,6.24-8.7,11.31-19.42,11.31-9.78,0-17.84-4.21-19.2-9.68C41.5-17.97,20.1-6.33-.35,7.3c.91,1.57,1.78,3.18,2.56,4.9,8.34,18.4,5.06,37.87-7.33,43.49-11.25,5.1-26.12-3-35.01-18.31-7.72,6.6-15.26,13.54-22.6,20.8,14.02-.68,30.85,5.52,45.18,17.98C5.82,96.46,13.71,125.64.06,141.35c-13.64,15.7-43.64,11.97-67.01-8.33-14.86-12.91-23.44-29.41-24.22-43.75-22.13,26.75-40.4,55.61-54.84,85.84,36.88,11.36,61.82,33.03,61.82,57.9,0,32.46-42.48,59.47-98.58,65.21-1.75,12.81-2.91,25.68-3.46,38.57,4.52-.14,8.91.68,13,2.59,19.42,9.08,24.57,39.11,11.5,67.06-4.62,9.88-10.91,18.18-17.96,24.38,1.2,6.5,2.55,12.98,4.06,19.43,2.75-5.77,6.02-11.56,9.81-17.25,23.88-35.84,59.23-54.22,78.98-41.07,19.74,13.15,16.39,52.87-7.49,88.7-16.24,24.37-37.78,40.66-56.12,44.46,6.84,15.32,14.64,30.31,23.42,44.88,3.37-4.26,8.03-7.72,13.67-9.73,14.97-5.33,31.08,1.54,36,15.34,4.92,13.81-3.22,29.32-18.19,34.65-1.05.38-2.11.68-3.18.93,10.5,13.46,21.93,26.44,34.31,38.82,6.66,6.66,13.5,13.02,20.49,19.13,4.13-4.56,8.6-8.95,13.41-13.13,50.39-43.79,118.47-47.96,152.04-9.31,24.86,28.61,23.82,72.66,1.16,111.38,9.63,2.57,19.33,4.79,29.09,6.66-7.16-26.49-2.96-62.84,13.69-98.44,27.12-57.99,76.94-91.98,111.28-75.92,34.34,16.06,40.19,76.08,13.07,134.07-8.54,18.26-19.33,34.14-31.19,46.82,37.28-2.49,74.29-9.94,109.95-22.39-4.24-6.98-6.75-15.58-6.75-24.9,0-23.27,15.63-42.13,34.9-42.13s33.45,17.17,34.79,38.96c20.39-11.2,40.03-24.25,58.7-39.11-13.78,1.49-29.78-1.16-45.3-8.42-33.51-15.67-52.04-46.84-41.4-69.61,10.65-22.77,46.45-28.52,79.96-12.85,27.66,12.93,45.09,36.42,44.36,57.03,60.31-61.17,97.92-136.32,112.8-214.93-60.28,1.08-109.67-27.02-112.54-65.52-3.04-40.77,47.23-77.75,112.28-82.6.56-.04,1.11-.06,1.67-.1-1.41-8.33-3.11-16.63-5.03-24.88-22.17,14.32-55.2,23.41-92.11,23.41-66.76,0-120.88-29.71-120.88-66.36,0-36.65,54.12-66.36,120.88-66.36,19.18,0,37.31,2.46,53.42,6.83-7.05-13.12-14.86-25.94-23.42-38.39-2.15,1.56-4.58,2.88-7.28,3.84-12.8,4.56-26.27-.42-30.09-11.12-3.38-9.48,1.97-20.27,12.13-25.78-3.46-4.09-7-8.13-10.63-12.11-28.67,59.18-88.35,89.72-134.21,68.27-46.37-21.69-61.04-88.29-32.76-148.76,4.29-9.17,9.32-17.65,14.93-25.4-42.88-17.3-88.06-27.17-133.56-29.65,1.1,1.51,2.1,3.2,2.93,5.03,4.46,9.84,2.71,20.25-3.92,23.26-6.62,3-15.61-2.54-20.07-12.38-2.67-5.89-3.1-11.96-1.61-16.55-4.68,0-9.36.1-14.04.26,3.57,9.89,5.59,21.07,5.59,32.93ZM353.05,696.31c0,15.89-8.65,28.77-19.33,28.77s-19.33-12.88-19.33-28.77c0-15.89,8.65-28.77,19.33-28.77s19.33,12.88,19.33,28.77ZM513.92,133.32c-.79-3.96,4.67-8.4,12.2-9.91,7.53-1.51,14.28.48,15.07,4.45.79,3.96-4.67,8.4-12.2,9.91-7.53,1.51-14.28-.48-15.07-4.45ZM319.54-37.43c4.47-6.71,11.13-10.13,14.88-7.64s3.16,9.96-1.32,16.67c-4.47,6.71-11.13,10.13-14.88,7.64-3.75-2.5-3.16-9.96,1.32-16.67ZM319.67-5.63c2.49-9.28,10.79-15.11,18.54-13.03,7.76,2.08,12.03,11.28,9.54,20.56-2.49,9.28-10.79,15.11-18.54,13.03-7.76-2.08-12.03-11.28-9.54-20.56ZM217.67,55.95c23.32,1.29,39.81,45.83,36.84,99.48-2.97,53.65-24.28,96.09-47.6,94.8-23.32-1.29-39.81-45.83-36.84-99.48,2.97-53.65,24.28-96.09,47.6-94.8ZM328.5,354.85c-13.64,15.7-43.64,11.97-67.01-8.33-23.36-20.3-31.25-49.49-17.6-65.19,13.64-15.7,43.64-11.97,67.01,8.33,23.36,20.3,31.25,49.49,17.6,65.19ZM368.27,380.75c0,6.24-8.7,11.31-19.42,11.31-10.73,0-19.42-5.06-19.42-11.31s8.7-11.31,19.42-11.31c10.73,0,19.42,5.06,19.42,11.31ZM330.64,428.58c-7.02,8.08-24.66,4.27-39.39-8.53-14.73-12.8-20.97-29.72-13.95-37.81,7.02-8.08,24.66-4.27,39.39,8.53,14.73,12.8,20.97,29.72,13.95,37.81ZM36.21,107.09C11.99,61.99,14.17,13.71,41.08-.75c26.92-14.46,68.38,10.38,92.6,55.48,24.23,45.1,22.05,93.38-4.87,107.84-26.92,14.46-68.38-10.38-92.6-55.48ZM35.98,172.47c-4.46-9.84-2.71-20.25,3.92-23.26,6.62-3,15.61,2.54,20.07,12.38,4.46,9.84,2.71,20.25-3.92,23.26-6.62,3-15.61-2.54-20.07-12.38ZM69.56,193.79c16.51-16.51,60.7.9,98.69,38.89,37.99,37.99,55.41,82.18,38.89,98.69-16.51,16.51-60.7-.9-98.69-38.89-37.99-37.99-55.41-82.18-38.89-98.69ZM9.12,496.63c-33.61-15.72-42.11-68.53-19-117.95,23.11-49.42,69.1-76.75,102.7-61.03,33.61,15.72,42.11,68.52,19,117.95-23.11,49.42-69.1,76.75-102.7,61.03ZM136.83,474.99c6.42,7.39,1.13,22.49-11.81,33.73-12.94,11.24-28.63,14.37-35.05,6.98-6.42-7.39-1.13-22.49,11.81-33.73,12.94-11.24,28.63-14.37,35.05-6.98ZM-54.34,412.04c-10.31-2.76-15.99-15-12.69-27.34,3.31-12.34,14.34-20.09,24.66-17.33,10.31,2.76,15.99,15,12.69,27.34-3.31,12.34-14.34,20.09-24.66,17.33ZM20.71,281.19c2.49-9.28,10.79-15.11,18.54-13.03,7.76,2.08,12.03,11.28,9.54,20.56-2.49,9.28-10.79,15.11-18.54,13.03-7.76-2.08-12.03-11.28-9.54-20.56ZM166.67,403.85c4.47-6.71,11.13-10.13,14.88-7.64,3.75,2.5,3.16,9.96-1.32,16.67-4.47,6.71-11.13,10.13-14.88,7.64-3.75-2.5-3.16-9.96,1.32-16.67ZM169.13,388.72c-15.89,0-28.77-8.65-28.77-19.33,0-10.68,12.88-19.33,28.77-19.33,15.89,0,28.77,8.65,28.77,19.33s-12.88,19.33-28.77,19.33ZM-108.48,131.4c-3.41-7.53-2.07-15.5,3-17.8,5.07-2.3,11.95,1.94,15.36,9.47,3.41,7.53,2.07,15.5-3,17.8-5.07,2.3-11.95-1.94-15.36-9.47ZM-109.77,169.2c0-10.68,12.88-19.33,28.77-19.33,15.89,0,28.77,8.65,28.77,19.33,0,10.68-12.88,19.33-28.77,19.33-15.89,0-28.77-8.65-28.77-19.33ZM-63.66,222.62c0-20.8,25.09-37.66,56.04-37.66,30.95,0,56.05,16.86,56.04,37.66,0,20.8-25.09,37.66-56.04,37.66-30.95,0-56.05-16.86-56.04-37.66ZM-146.33,351.42c-9.92-21.55,13.76-53.61,52.88-71.61,39.12-18,78.87-15.13,88.78,6.42,9.92,21.55-13.76,53.61-52.88,71.61-39.12,18-78.87,15.13-88.78-6.42ZM-58.81,434.51c4.19-10.09,12.16-16.38,17.79-14.04,5.63,2.34,6.8,12.42,2.6,22.51-4.19,10.09-12.16,16.38-17.79,14.04-5.63-2.34-6.8-12.42-2.6-22.51ZM-68.19,481.17c24.92-8.88,50.92.2,58.08,20.29,7.16,20.08-7.25,43.56-32.17,52.44-24.92,8.88-50.92-.2-58.08-20.29-7.16-20.08,7.25-43.56,32.17-52.44ZM-125.35,542.35c-3.75-2.5-3.16-9.96,1.32-16.67,4.47-6.71,11.13-10.13,14.88-7.64,3.75,2.5,3.16,9.96-1.32,16.67-4.47,6.71-11.13,10.13-14.88,7.64ZM-3.72,612.23c-5.4,20.16-23.44,32.84-40.29,28.32-16.85-4.52-26.14-24.52-20.73-44.68,5.4-20.16,23.44-32.84,40.29-28.32,16.85,4.52,26.14,24.52,20.73,44.68ZM47.97,605.34c-25.26,0-45.74-12.32-45.74-27.52s20.48-27.52,45.74-27.52c25.26,0,45.74,12.32,45.74,27.52,0,15.2-20.48,27.52-45.74,27.52ZM184.42,574.93c7.99,29.81-2.33,58.47-23.04,64.02-20.71,5.55-43.98-14.12-51.96-43.92-7.99-29.81,2.33-58.47,23.04-64.02,20.71-5.55,43.98,14.12,51.96,43.92ZM220.77,576.04c-30.51-1.69-52.94-44.5-50.12-95.61,2.83-51.12,29.85-91.18,60.36-89.5,30.51,1.69,52.94,44.5,50.12,95.61-2.83,51.12-29.85,91.18-60.36,89.5ZM379.97,568.63c11.33,42.29,3.73,81.07-16.99,86.62-20.71,5.55-46.69-24.23-58.02-66.52-11.33-42.29-3.73-81.07,16.99-86.62,20.71-5.55,46.69,24.23,58.02,66.52ZM292.14,463.93c-3.75-2.5-3.16-9.96,1.32-16.67,4.47-6.71,11.13-10.13,14.88-7.64,3.75,2.5,3.16,9.96-1.32,16.67-4.47,6.71-11.13,10.13-14.88,7.64ZM529.67,548.49c-6.07,20.56-45.03,27.19-87.02,14.79-41.99-12.4-71.1-39.12-65.03-59.68,6.07-20.56,45.03-27.19,87.02-14.79,41.99,12.4,71.1,39.12,65.03,59.68ZM415.78,464.49c-31.22,14.37-62.95,12.07-70.87-5.13-7.92-17.2,10.98-42.79,42.21-57.16,31.22-14.37,62.95-12.07,70.87,5.13,7.92,17.2-10.98,42.79-42.21,57.16ZM597.5,528.35c0,10.68-12.88,19.33-28.77,19.33s-28.77-8.65-28.77-19.33c0-10.68,12.88-19.33,28.77-19.33s28.77,8.65,28.77,19.33ZM593.37,465.76c0,20.8-25.09,37.66-56.05,37.66-30.95,0-56.04-16.86-56.04-37.66s25.09-37.66,56.04-37.66c30.95,0,56.04,16.86,56.05,37.66ZM477.13,397.15c0-8.53,10.26-15.45,22.91-15.45,12.65,0,22.91,6.92,22.91,15.45,0,8.53-10.26,15.45-22.91,15.45-12.65,0-22.91-6.92-22.91-15.45ZM509.24,349.14c-9,26.22-50.22,35.83-92.06,21.46-41.84-14.37-68.45-47.27-59.45-73.49,9-26.22,50.22-35.83,92.06-21.46,41.84,14.37,68.45,47.27,59.45,73.49ZM326.83,281.6c-3.71-6.43-.32-15.35,7.59-19.92,7.91-4.56,17.33-3.05,21.04,3.39,3.71,6.43.32,15.35-7.59,19.92-7.91,4.56-17.33,3.05-21.04-3.39ZM409.64,167.12c9.92,21.55-13.76,53.61-52.88,71.61-39.12,18-78.87,15.13-88.78-6.42-9.92-21.55,13.76-53.61,52.88-71.61,39.12-18,78.87-15.13,88.78,6.42ZM270.5-15.33c20.71-5.55,46.69,24.23,58.02,66.52,11.33,42.29,3.73,81.07-16.99,86.62-20.71,5.55-46.69-24.23-58.02-66.52-11.33-42.29-3.73-81.07,16.99-86.62Z"/>
        </g>
      </g>
    </g>
  </g>
</svg>