<?xml version="1.0" encoding="UTF-8"?>
<svg xmlns="http://www.w3.org/2000/svg" xmlns:xlink="http://www.w3.org/1999/xlink" viewBox="0 0 666.15 576.91">
  <defs>
    <style>
      .uuid-6f0d1d4f-1934-4cbd-908b-56e8fa79bde1 {
        clip-path: url(#uuid-4657cad5-b4e5-403c-b86c-fccfbd1ded4f);
      }

      .uuid-6c869558-7f81-46a4-8ee0-ba110d09e8f0 {
        fill: none;
      }

      .uuid-b5459d73-ea47-48bc-abc2-75961ecad8b4 {
        fill: #03403f;
        mix-blend-mode: multiply;
        opacity: .44;
      }

      .uuid-af100f95-52f0-4a30-a23e-09d59cd0f6ce {
        isolation: isolate;
      }
    </style>
    <clipPath id="uuid-4657cad5-b4e5-403c-b86c-fccfbd1ded4f">
      <polygon class="uuid-6c869558-7f81-46a4-8ee0-ba110d09e8f0" points="499.62 0 166.54 0 0 288.45 166.54 576.91 499.62 576.91 666.15 288.45 499.62 0"/>
    </clipPath>
  </defs>
  <g class="uuid-af100f95-52f0-4a30-a23e-09d59cd0f6ce">
    <g id="uuid-29f3bbac-fff0-4bad-ae66-d4c96c6a028c" data-name="Layer 2">
      <g id="uuid-f8465de9-5d24-4666-a292-0fd5bcb3e53d" data-name="Layer 1">
        <g class="uuid-6f0d1d4f-1934-4cbd-908b-56e8fa79bde1">
          <path class="uuid-b5459d73-ea47-48bc-abc2-75961ecad8b4" d="M675.15,380.51c-43.75,0-79.21-25.17-79.21-56.21,0-31.04,35.46-56.21,79.21-56.21,6.97,0,13.73.64,20.17,1.84-2.81-10.34-5.99-20.6-9.54-30.76-2.14,6.27-6.09,10.5-10.62,10.5-6.8,0-12.31-9.47-12.31-21.15,0-10.64,4.58-19.42,10.54-20.9-10.49-24.02-23.16-47.31-38-69.59-1.71.99-3.47,1.94-5.33,2.79-20.03,9.08-41.23,5.51-47.35-7.98-5.55-12.25,3.27-28.44,19.93-38.11-7.19-8.41-14.74-16.61-22.65-24.6.74,15.26-6.02,33.59-19.58,49.19-22.1,25.44-53.88,34.02-70.98,19.17-17.1-14.85-13.04-47.52,9.07-72.96,14.06-16.18,32.02-25.52,47.64-26.37-29.12-24.09-60.54-43.99-93.46-59.71-12.37,40.16-35.96,67.31-63.04,67.31-35.35,0-64.75-46.25-71-107.33-13.95-1.9-27.96-3.16-42-3.77.15,4.92-.74,9.71-2.82,14.16-9.89,21.15-42.58,26.75-73.01,12.52-10.76-5.03-19.79-11.88-26.54-19.55-7.08,1.3-14.13,2.78-21.15,4.42,6.28,2.99,12.58,6.55,18.78,10.68,39.02,26,59.04,64.49,44.72,85.99-14.32,21.49-57.56,17.84-96.57-8.15-26.53-17.68-44.27-41.14-48.4-61.1C54.95-17.93,38.63-9.44,22.76.12c4.64,3.67,8.4,8.75,10.59,14.89,5.81,16.29-1.67,33.84-16.7,39.2-15.03,5.36-31.92-3.51-37.73-19.8-.41-1.15-.74-2.3-1.01-3.46-14.66,11.43-28.79,23.88-42.27,37.36-7.25,7.25-14.17,14.7-20.83,22.31,4.96,4.5,9.74,9.37,14.29,14.6,47.67,54.87,52.21,128.98,10.14,165.54-31.15,27.07-79.11,25.93-121.27,1.26-2.8,10.48-5.22,21.05-7.25,31.67,28.84-7.8,68.42-3.22,107.17,14.9C-18.97,348.12,18.03,402.36.55,439.74c-17.48,37.38-82.84,43.75-145.97,14.23-19.88-9.3-37.17-21.05-50.98-33.95,2.71,40.59,10.82,80.89,24.38,119.71,7.6-4.62,16.96-7.35,27.11-7.35,25.34,0,45.88,17.01,45.88,38s-18.7,36.42-42.42,37.88c12.2,22.2,26.4,43.59,42.59,63.91-1.63-15,1.26-32.42,9.17-49.32,17.06-36.49,50.99-56.66,75.78-45.07,24.79,11.59,31.05,50.57,13.99,87.06-14.08,30.11-39.65,49.1-62.09,48.3,66.6,65.67,148.42,106.61,234.01,122.82-1.17-65.63,29.42-119.41,71.34-122.53,44.39-3.31,84.65,51.43,89.93,122.25.05.61.07,1.21.11,1.82,9.07-1.54,18.1-3.38,27.09-5.48-15.59-24.14-25.49-60.1-25.49-100.29,0-72.69,32.35-131.61,72.25-131.61,39.9,0,72.25,58.92,72.25,131.61,0,20.89-2.68,40.62-7.44,58.16,14.28-7.68,28.24-16.17,41.8-25.49-1.7-2.34-3.14-4.99-4.18-7.92-4.97-13.94.45-28.6,12.11-32.76,10.32-3.68,22.06,2.14,28.06,13.21,4.45-3.76,8.85-7.62,13.19-11.58-64.43-31.21-97.68-96.19-74.33-146.13,23.61-50.49,96.13-66.46,161.97-35.66,9.98,4.67,19.22,10.15,27.65,16.25,18.84-46.69,29.59-95.88,32.28-145.42-1.64,1.2-3.48,2.28-5.48,3.19-10.71,4.86-22.05,2.95-25.32-4.27-3.27-7.21,2.77-17,13.48-21.85,6.41-2.91,13.03-3.37,18.02-1.75,0-5.1-.11-10.19-.28-15.29-10.77,3.89-22.94,6.09-35.85,6.09ZM-114.8,522.81c-17.3,0-31.32-9.42-31.32-21.05s14.02-21.05,31.32-21.05c17.3,0,31.32,9.42,31.32,21.05s-14.02,21.05-31.32,21.05ZM498.17,697.97c4.32-.86,9.15,5.08,10.79,13.28,1.64,8.2-.53,15.54-4.84,16.41-4.32.86-9.15-5.08-10.79-13.28-1.64-8.2.53-15.54,4.84-16.41ZM684.08,486.33c7.31,4.87,11.03,12.12,8.31,16.2-2.72,4.08-10.84,3.44-18.15-1.43-7.31-4.87-11.03-12.12-8.31-16.2,2.72-4.08,10.84-3.44,18.15,1.43ZM649.45,486.48c10.1,2.71,16.45,11.75,14.19,20.19-2.26,8.44-12.28,13.09-22.38,10.39-10.1-2.71-16.45-11.75-14.19-20.19,2.26-8.44,12.28-13.09,22.38-10.39ZM582.4,375.42c-1.41,25.39-49.9,43.35-108.31,40.12-58.41-3.23-104.62-26.43-103.22-51.82,1.41-25.39,49.9-43.35,108.31-40.12,58.41,3.23,104.62,26.43,103.22,51.82ZM256.98,496.09c-17.1-14.85-13.04-47.52,9.07-72.96,22.1-25.44,53.88-34.02,70.98-19.17,17.1,14.85,13.04,47.52-9.07,72.96-22.1,25.44-53.88,34.02-70.98,19.17ZM228.78,539.39c-6.8,0-12.31-9.47-12.31-21.15,0-11.68,5.51-21.15,12.31-21.15s12.31,9.47,12.31,21.15c0,11.68-5.51,21.15-12.31,21.15ZM176.7,498.41c-8.8-7.65-4.64-26.85,9.29-42.88,13.93-16.03,32.36-22.83,41.16-15.18,8.8,7.65,4.64,26.85-9.29,42.88-13.93,16.03-32.36,22.83-41.16,15.18ZM526.73,177.85c49.1-26.38,101.67-24,117.41,5.3,15.74,29.31-11.3,74.45-60.4,100.82-49.1,26.38-101.67,24-117.41-5.3-15.74-29.31,11.3-74.45,60.4-100.82ZM455.54,177.6c10.71-4.86,22.05-2.95,25.32,4.27,3.27,7.21-2.77,17-13.48,21.85-10.71,4.86-22.05,2.95-25.32-4.27-3.27-7.21,2.77-17,13.48-21.85ZM432.33,214.17c17.98,17.98-.98,66.09-42.34,107.45-41.37,41.37-89.48,60.32-107.45,42.34-17.98-17.98.98-66.09,42.34-107.45,41.37-41.37,89.48-60.32,107.45-42.34ZM102.61,148.35c17.11-36.59,74.61-45.85,128.42-20.69,53.81,25.17,83.56,75.23,66.45,111.82-17.11,36.59-74.61,45.85-128.42,20.69-53.81-25.17-83.56-75.23-66.45-111.82ZM126.17,287.4c-8.04,6.99-24.48,1.23-36.72-12.86-12.24-14.09-15.64-31.17-7.6-38.16,8.04-6.99,24.48-1.23,36.72,12.86,12.24,14.09,15.64,31.17,7.6,38.16ZM194.71,79.26c3.01-11.23,16.33-17.41,29.76-13.81,13.43,3.6,21.88,15.62,18.87,26.85-3.01,11.23-16.33,17.41-29.76,13.81-13.43-3.6-21.88-15.62-18.87-26.85ZM337.17,160.98c10.1,2.71,16.45,11.75,14.19,20.19-2.26,8.44-12.28,13.09-22.38,10.39-10.1-2.71-16.45-11.75-14.19-20.19,2.26-8.44,12.28-13.09,22.38-10.39ZM203.63,319.89c7.31,4.87,11.03,12.12,8.31,16.2-2.72,4.08-10.84,3.44-18.15-1.43-7.31-4.87-11.03-12.12-8.31-16.2,2.72-4.08,10.84-3.44,18.15,1.43ZM220.1,322.57c0-17.3,9.42-31.32,21.05-31.32,11.62,0,21.05,14.02,21.05,31.32,0,17.3-9.42,31.32-21.05,31.32s-21.05-14.02-21.05-31.32ZM500.26,20.31c8.2-3.72,16.87-2.26,19.38,3.26,2.5,5.52-2.12,13.01-10.31,16.72-8.2,3.72-16.87,2.26-19.38-3.26-2.5-5.52,2.12-13.01,10.31-16.72ZM459.11,18.91c11.62,0,21.05,14.02,21.05,31.32,0,17.3-9.42,31.32-21.05,31.32-11.62,0-21.05-14.02-21.05-31.32,0-17.3,9.42-31.32,21.05-31.32ZM400.94,69.12c22.65,0,41.01,27.32,41.01,61.02,0,33.7-18.36,61.02-41.01,61.02-22.65,0-41.01-27.32-41.01-61.02,0-33.7,18.36-61.02,41.01-61.02ZM260.71-20.89c23.46-10.8,58.37,14.98,77.97,57.57,19.6,42.59,16.47,85.87-6.99,96.67-23.46,10.8-58.37-14.98-77.97-57.57-19.6-42.59-16.47-85.87,6.99-96.67ZM170.24,74.39c10.99,4.57,17.83,13.24,15.28,19.37-2.55,6.13-13.52,7.4-24.51,2.83-10.99-4.57-17.83-13.24-15.28-19.37,2.55-6.13,13.52-7.4,24.51-2.83ZM119.45,64.19c9.67,27.13-.22,55.45-22.09,63.24-21.87,7.79-47.43-7.89-57.1-35.02-9.67-27.13.22-55.45,22.09-63.24,21.87-7.79,47.43,7.89,57.1,35.02ZM52.83,1.95c2.72-4.08,10.84-3.44,18.15,1.43,7.31,4.87,11.03,12.12,8.31,16.2-2.72,4.08-10.84,3.44-18.15-1.43-7.31-4.87-11.03-12.12-8.31-16.2ZM-23.25,134.37c-21.95-5.88-35.75-25.52-30.84-43.87,4.92-18.35,26.69-28.46,48.64-22.58,21.95,5.88,35.75,25.52,30.84,43.87-4.92,18.35-26.69,28.46-48.64,22.58ZM-15.75,190.66c0-27.5,13.42-49.8,29.96-49.8s29.96,22.3,29.96,49.8c0,27.5-13.42,49.8-29.96,49.8-16.55,0-29.96-22.3-29.96-49.8ZM17.36,339.21c-32.45,8.7-63.66-2.54-69.7-25.09-6.04-22.55,15.37-47.88,47.82-56.58,32.45-8.7,63.66,2.54,69.7,25.09,6.04,22.55-15.37,47.88-47.82,56.58ZM16.15,378.8c1.84-33.22,48.44-57.64,104.1-54.56,55.65,3.08,99.28,32.5,97.44,65.72-1.84,33.22-48.44,57.64-104.1,54.56-55.65-3.08-99.28-32.5-97.44-65.72ZM24.21,552.13c-46.04,12.34-88.26,4.06-94.31-18.49-6.04-22.55,26.38-50.83,72.43-63.17,46.04-12.34,88.26-4.06,94.31,18.49,6.04,22.55-26.38,50.83-72.43,63.17ZM138.21,456.5c2.72-4.08,10.84-3.44,18.15,1.43,7.31,4.87,11.03,12.12,8.31,16.2-2.72,4.08-10.84,3.44-18.15-1.43-7.31-4.87-11.03-12.12-8.31-16.2ZM46.15,715.11c-22.39-6.61-29.6-49.03-16.1-94.74,13.5-45.71,42.59-77.41,64.98-70.8,22.39,6.61,29.6,49.03,16.1,94.74-13.5,45.71-42.59,77.41-64.98,70.8ZM137.61,591.11c-15.64-34-13.14-68.54,5.58-77.16,18.73-8.62,46.59,11.96,62.23,45.95,15.64,34,13.14,68.54-5.58,77.16-18.73,8.62-46.59-11.96-62.23-45.95ZM68.07,788.97c-11.62,0-21.05-14.02-21.05-31.32s9.42-31.32,21.05-31.32c11.62,0,21.05,14.02,21.05,31.32s-9.42,31.32-21.05,31.32ZM136.22,784.47c-22.65,0-41.01-27.32-41.01-61.02,0-33.7,18.36-61.02,41.01-61.02s41.01,27.32,41.01,61.02c0,33.7-18.36,61.02-41.01,61.02ZM210.93,657.92c9.29,0,16.82,11.17,16.82,24.95,0,13.78-7.53,24.95-16.82,24.95-9.29,0-16.82-11.17-16.82-24.95,0-13.78,7.53-24.95,16.82-24.95ZM263.19,692.88c-28.55-9.8-39.01-54.68-23.37-100.23,15.64-45.55,51.47-74.53,80.02-64.73,28.55,9.8,39.01,54.68,23.37,100.23-15.64,45.55-51.47,74.53-80.02,64.73ZM336.73,494.27c7.01-4.04,16.71-.35,21.68,8.26,4.97,8.61,3.32,18.86-3.69,22.91-7.01,4.04-16.71.35-21.68-8.26-4.97-8.61-3.32-18.86,3.69-22.91ZM461.37,584.43c-23.46,10.8-58.37-14.98-77.97-57.57-19.6-42.59-16.47-85.87,6.99-96.67,23.46-10.8,58.37,14.98,77.97,57.57,19.6,42.59,16.47,85.87-6.99,96.67ZM660.02,432.94c6.04,22.55-26.38,50.83-72.43,63.17-46.04,12.34-88.26,4.06-94.31-18.49-6.04-22.55,26.38-50.83,72.43-63.17,46.04-12.34,88.26-4.06,94.31,18.49Z"/>
        </g>
      </g>
    </g>
  </g>
</svg>