<?xml version="1.0" encoding="UTF-8"?>
<svg xmlns="http://www.w3.org/2000/svg" xmlns:xlink="http://www.w3.org/1999/xlink" viewBox="0 0 841.89 2744.16">
  <defs>
    <style>
      .uuid-a998d084-9b51-40e4-8b45-82556ba0a379 {
        clip-path: url(#uuid-821b2d0d-a70b-4f30-912d-5a57721da74a);
      }

      .uuid-1d4b31ab-a567-44a8-81ad-8b8d004a64f4 {
        clip-path: url(#uuid-44626ee6-f939-4c4d-8171-176f3bf5310d);
      }

      .uuid-70345d24-3e58-4e59-ad27-16dfbd935f79 {
        clip-path: url(#uuid-45101481-88ac-40d9-be64-e2857479051f);
      }

      .uuid-362e8c24-fa48-4305-8a33-ec4f88bf2f8f {
        clip-path: url(#uuid-317cec61-bfe7-4146-bbc7-4bc7a207ae69);
      }

      .uuid-6a9efa9c-b9b5-4317-a36c-2707ed291b62 {
        clip-path: url(#uuid-d1215262-72be-4782-b524-1d56a7cfc123);
      }

      .uuid-587b3cd6-76b4-4f27-9630-4fa8f69bb80d {
        fill: none;
      }

      .uuid-a5db8dc0-d95a-4f51-8eda-19269fef2b8a {
        fill: #03403f;
        mix-blend-mode: multiply;
        opacity: .44;
      }

      .uuid-c4435fb0-427c-494d-bd42-f447390dd633 {
        isolation: isolate;
      }

      .uuid-d376b15f-80da-4905-94ff-093f05d86429 {
        clip-path: url(#uuid-5f4d6e95-89b6-46ec-bc15-57579401e602);
      }
    </style>
    <clipPath id="uuid-317cec61-bfe7-4146-bbc7-4bc7a207ae69">
      <polygon class="uuid-587b3cd6-76b4-4f27-9630-4fa8f69bb80d" points="844.31 2289.08 549.29 2289.08 401.78 2544.58 549.29 2800.07 844.31 2800.07 991.82 2544.58 844.31 2289.08"/>
    </clipPath>
    <clipPath id="uuid-45101481-88ac-40d9-be64-e2857479051f">
      <polygon class="uuid-587b3cd6-76b4-4f27-9630-4fa8f69bb80d" points="224.74 54.55 -108.33 54.55 -274.87 343 -108.33 631.45 224.74 631.45 391.28 343 224.74 54.55"/>
    </clipPath>
    <clipPath id="uuid-d1215262-72be-4782-b524-1d56a7cfc123">
      <polygon class="uuid-587b3cd6-76b4-4f27-9630-4fa8f69bb80d" points="410.29 1846.24 77.21 1846.24 -89.33 2134.69 77.21 2423.15 410.29 2423.15 576.82 2134.69 410.29 1846.24"/>
    </clipPath>
    <clipPath id="uuid-821b2d0d-a70b-4f30-912d-5a57721da74a">
      <polygon class="uuid-587b3cd6-76b4-4f27-9630-4fa8f69bb80d" points="1003.85 201.02 708.83 201.02 561.32 456.51 708.83 712.01 1003.85 712.01 1151.36 456.51 1003.85 201.02"/>
    </clipPath>
    <clipPath id="uuid-5f4d6e95-89b6-46ec-bc15-57579401e602">
      <polygon class="uuid-587b3cd6-76b4-4f27-9630-4fa8f69bb80d" points="321.5 900.5 15.58 900.5 -137.38 1165.44 15.58 1430.37 321.5 1430.37 474.46 1165.44 321.5 900.5"/>
    </clipPath>
    <clipPath id="uuid-44626ee6-f939-4c4d-8171-176f3bf5310d">
      <polygon class="uuid-587b3cd6-76b4-4f27-9630-4fa8f69bb80d" points="735.17 -88.67 429.25 -88.67 276.29 176.26 429.25 441.2 735.17 441.2 888.13 176.26 735.17 -88.67"/>
    </clipPath>
  </defs>
  <g class="uuid-c4435fb0-427c-494d-bd42-f447390dd633">
    <g id="uuid-7581b961-9cab-405c-886a-b83b96bdff59" data-name="Layer 9">
      <g class="uuid-362e8c24-fa48-4305-8a33-ec4f88bf2f8f">
        <path class="uuid-a5db8dc0-d95a-4f51-8eda-19269fef2b8a" d="M999.78,2626.12c-38.75,0-70.16-22.29-70.16-49.79,0-27.5,31.41-49.79,70.16-49.79,6.17,0,12.16.57,17.86,1.63-2.49-9.16-5.3-18.25-8.45-27.25-1.89,5.56-5.39,9.3-9.41,9.3-6.02,0-10.9-8.39-10.9-18.73,0-9.43,4.06-17.21,9.34-18.52-9.29-21.27-20.51-41.9-33.66-61.63-1.51.88-3.07,1.72-4.72,2.47-17.75,8.04-36.52,4.88-41.94-7.07-4.92-10.85,2.9-25.19,17.66-33.76-6.37-7.45-13.06-14.71-20.06-21.79.66,13.52-5.33,29.75-17.34,43.57-19.58,22.53-47.72,30.13-62.87,16.98-15.14-13.16-11.55-42.09,8.03-64.62,12.45-14.33,28.36-22.61,42.2-23.36-25.79-21.34-53.62-38.97-82.79-52.88-10.96,35.57-31.85,59.62-55.83,59.62-31.31,0-57.35-40.96-62.89-95.06-12.35-1.68-24.76-2.8-37.2-3.34.14,4.35-.66,8.6-2.5,12.54-8.76,18.73-37.71,23.7-64.67,11.09-9.53-4.46-17.53-10.52-23.51-17.32-6.27,1.15-12.52,2.46-18.74,3.91,5.56,2.65,11.14,5.8,16.63,9.46,34.56,23.03,52.29,57.12,39.61,76.16-12.68,19.04-50.98,15.8-85.54-7.22-23.5-15.66-39.21-36.44-42.87-54.12-14.77,6.59-29.23,14.12-43.28,22.58,4.11,3.25,7.44,7.75,9.38,13.19,5.14,14.43-1.48,29.98-14.8,34.72-13.31,4.74-28.28-3.11-33.42-17.54-.36-1.02-.65-2.04-.9-3.06-12.98,10.13-25.5,21.15-37.44,33.09-6.42,6.42-12.55,13.02-18.45,19.76,4.39,3.98,8.63,8.3,12.66,12.94,42.23,48.6,46.25,114.25,8.98,146.63-27.59,23.97-70.07,22.97-107.41,1.12-2.48,9.29-4.62,18.64-6.42,28.05,25.55-6.91,60.6-2.86,94.93,13.2,55.92,26.15,88.7,74.2,73.21,107.31-15.49,33.11-73.37,38.75-129.29,12.6-17.61-8.24-32.92-18.65-45.16-30.07,2.4,35.95,9.59,71.65,21.6,106.03,6.73-4.09,15.03-6.51,24.01-6.51,22.44,0,40.63,15.07,40.63,33.66s-16.56,32.26-37.57,33.55c10.8,19.66,23.38,38.61,37.72,56.61-1.44-13.28,1.12-28.72,8.12-43.69,15.11-32.32,45.17-50.19,67.13-39.92,21.96,10.27,27.51,44.79,12.39,77.11-12.47,26.67-35.12,43.49-55,42.78,58.99,58.16,131.46,94.43,207.28,108.78-1.04-58.13,26.06-105.76,63.19-108.53,39.32-2.93,74.98,45.55,79.65,108.28.04.54.06,1.07.09,1.61,8.04-1.36,16.03-3,23.99-4.85-13.81-21.38-22.58-53.23-22.58-88.83,0-64.38,28.65-116.57,64-116.57,35.34,0,64,52.19,64,116.57,0,18.5-2.38,35.98-6.59,51.52,12.65-6.8,25.01-14.33,37.02-22.58-1.51-2.08-2.78-4.42-3.71-7.02-4.4-12.35.4-25.34,10.72-29.01,9.14-3.26,19.54,1.9,24.86,11.7,3.94-3.33,7.84-6.75,11.68-10.26-57.07-27.64-86.52-85.2-65.84-129.43,20.92-44.72,85.15-58.86,143.46-31.59,8.84,4.13,17.02,8.99,24.49,14.4,16.69-41.36,26.21-84.92,28.59-128.81-1.46,1.06-3.08,2.02-4.86,2.82-9.49,4.3-19.53,2.61-22.43-3.78-2.9-6.39,2.45-15.06,11.94-19.36,5.68-2.57,11.54-2.99,15.96-1.55,0-4.52-.1-9.03-.25-13.54-9.54,3.44-20.32,5.4-31.75,5.4ZM300.09,2752.16c-15.32,0-27.74-8.35-27.74-18.64s12.42-18.64,27.74-18.64c15.32,0,27.74,8.35,27.74,18.64s-12.42,18.64-27.74,18.64ZM843.03,2907.3c3.82-.77,8.1,4.5,9.55,11.76,1.45,7.26-.47,13.77-4.29,14.53-3.82.77-8.1-4.5-9.55-11.76-1.45-7.26.47-13.77,4.29-14.53ZM1007.69,2719.85c6.47,4.31,9.77,10.74,7.36,14.35-2.41,3.61-9.61,3.04-16.08-1.27-6.47-4.31-9.77-10.74-7.36-14.35,2.41-3.61,9.61-3.04,16.08,1.27ZM977.03,2719.98c8.95,2.4,14.57,10.4,12.57,17.88-2,7.48-10.88,11.6-19.83,9.2-8.95-2.4-14.57-10.4-12.57-17.88,2-7.48,10.88-11.6,19.83-9.2ZM917.64,2621.6c-1.24,22.49-44.19,38.4-95.93,35.53-51.74-2.86-92.67-23.41-91.42-45.9,1.24-22.49,44.19-38.4,95.93-35.53,51.74,2.86,92.67,23.41,91.42,45.9ZM629.39,2728.49c-15.14-13.16-11.55-42.09,8.03-64.62,19.58-22.53,47.72-30.13,62.87-16.98,15.14,13.16,11.55,42.09-8.03,64.62-19.58,22.53-47.72,30.13-62.87,16.98ZM604.42,2766.85c-6.02,0-10.9-8.39-10.9-18.73,0-10.34,4.88-18.73,10.9-18.73s10.9,8.39,10.9,18.73c0,10.34-4.88,18.73-10.9,18.73ZM558.29,2730.55c-7.8-6.77-4.11-23.78,8.23-37.98,12.34-14.2,28.66-20.22,36.46-13.45,7.8,6.77,4.11,23.78-8.23,37.98-12.34,14.2-28.66,20.22-36.46,13.45ZM868.33,2446.61c43.49-23.36,90.05-21.26,104,4.7,13.94,25.96-10.01,65.94-53.5,89.3-43.49,23.36-90.05,21.26-104-4.7-13.94-25.96,10.01-65.94,53.5-89.3ZM805.27,2446.39c9.49-4.3,19.53-2.61,22.43,3.78,2.9,6.39-2.45,15.06-11.94,19.36-9.49,4.3-19.53,2.61-22.43-3.78-2.9-6.39,2.45-15.06,11.94-19.36ZM784.72,2478.78c15.93,15.93-.87,58.54-37.51,95.18-36.64,36.64-79.25,53.43-95.18,37.51-15.93-15.93.87-58.54,37.51-95.18,36.64-36.64,79.25-53.43,95.18-37.51ZM492.66,2420.48c15.16-32.41,66.08-40.61,113.75-18.32,47.66,22.29,74.01,66.64,58.85,99.05-15.16,32.41-66.08,40.61-113.75,18.32-47.66-22.29-74.01-66.64-58.85-99.05ZM513.53,2543.64c-7.12,6.19-21.69,1.09-32.53-11.39-10.84-12.48-13.86-27.61-6.74-33.8,7.12-6.19,21.69-1.09,32.53,11.39,10.84,12.48,13.86,27.61,6.74,33.8ZM574.24,2359.28c2.66-9.95,14.47-15.42,26.36-12.24,11.9,3.19,19.38,13.83,16.71,23.78-2.66,9.95-14.47,15.42-26.36,12.24-11.9-3.19-19.38-13.83-16.71-23.78ZM700.43,2431.67c8.95,2.4,14.57,10.4,12.57,17.88-2,7.48-10.88,11.6-19.83,9.2-8.95-2.4-14.57-10.4-12.57-17.88,2-7.48,10.88-11.6,19.83-9.2ZM582.14,2572.42c6.47,4.31,9.77,10.74,7.36,14.35-2.41,3.61-9.61,3.04-16.08-1.27-6.47-4.31-9.77-10.74-7.36-14.35,2.41-3.61,9.61-3.04,16.08,1.27ZM596.73,2574.8c0-15.32,8.35-27.74,18.64-27.74,10.3,0,18.64,12.42,18.64,27.74,0,15.32-8.35,27.74-18.64,27.74s-18.64-12.42-18.64-27.74ZM844.88,2307.07c7.26-3.29,14.95-2,17.16,2.89,2.22,4.89-1.87,11.52-9.14,14.81-7.26,3.29-14.95,2-17.16-2.89-2.22-4.89,1.87-11.52,9.14-14.81ZM808.43,2305.83c10.3,0,18.64,12.42,18.64,27.74,0,15.32-8.35,27.74-18.64,27.74-10.3,0-18.64-12.42-18.64-27.74,0-15.32,8.35-27.74,18.64-27.74ZM756.91,2350.3c20.06,0,36.32,24.2,36.32,54.05,0,29.85-16.26,54.05-36.32,54.05-20.06,0-36.32-24.2-36.32-54.05,0-29.85,16.26-54.05,36.32-54.05ZM632.7,2270.58c20.78-9.56,51.7,13.27,69.06,50.99,17.36,37.72,14.59,76.06-6.19,85.62-20.78,9.56-51.7-13.27-69.06-50.99-17.36-37.72-14.59-76.06,6.19-85.62ZM552.57,2354.98c9.73,4.04,15.79,11.72,13.54,17.15-2.26,5.43-11.98,6.55-21.71,2.51-9.73-4.04-15.79-11.72-13.54-17.15,2.26-5.43,11.98-6.55,21.71-2.51ZM507.58,2345.93c8.56,24.03-.2,49.11-19.56,56.01-19.37,6.9-42.01-6.99-50.57-31.02-8.56-24.03.2-49.11,19.56-56.01,19.37-6.9,42.01,6.99,50.57,31.02ZM448.57,2290.81c2.41-3.61,9.61-3.04,16.08,1.27,6.47,4.31,9.77,10.74,7.36,14.35-2.41,3.61-9.61,3.04-16.08-1.27-6.47-4.31-9.77-10.74-7.36-14.35ZM381.19,2408.1c-19.44-5.21-31.67-22.61-27.31-38.86,4.35-16.25,23.64-25.2,43.08-20,19.44,5.21,31.67,22.61,27.31,38.86-4.35,16.25-23.64,25.2-43.08,20ZM387.83,2457.96c0-24.36,11.88-44.11,26.54-44.11s26.54,19.75,26.54,44.11c0,24.36-11.88,44.11-26.54,44.11-14.66,0-26.54-19.75-26.54-44.11ZM417.15,2589.54c-28.75,7.7-56.39-2.25-61.74-22.22-5.35-19.97,13.61-42.41,42.36-50.11,28.75-7.7,56.39,2.25,61.74,22.22,5.35,19.97-13.61,42.41-42.36,50.11ZM416.08,2624.6c1.63-29.42,42.91-51.06,92.2-48.33,49.29,2.73,87.94,28.79,86.31,58.21-1.63,29.42-42.91,51.06-92.2,48.33-49.29-2.73-87.94-28.79-86.31-58.21ZM423.23,2778.13c-40.78,10.93-78.18,3.59-83.53-16.38-5.35-19.97,23.37-45.02,64.15-55.95,40.78-10.93,78.18-3.59,83.53,16.38,5.35,19.97-23.37,45.02-64.15,55.95ZM524.2,2693.42c2.41-3.61,9.61-3.04,16.08,1.27,6.47,4.31,9.77,10.74,7.36,14.35-2.41,3.61-9.61,3.04-16.08-1.27-6.47-4.31-9.77-10.74-7.36-14.35ZM442.66,2922.49c-19.83-5.86-26.22-43.43-14.26-83.92,11.96-40.49,37.72-68.57,57.56-62.71,19.83,5.86,26.22,43.43,14.26,83.92-11.96,40.49-37.72,68.57-57.56,62.71ZM523.66,2812.66c-13.86-30.11-11.64-60.71,4.94-68.34,16.59-7.63,41.27,10.59,55.12,40.7,13.86,30.11,11.64,60.71-4.94,68.34-16.59,7.63-41.27-10.59-55.12-40.7ZM462.07,2987.91c-10.3,0-18.64-12.42-18.64-27.74s8.35-27.74,18.64-27.74c10.3,0,18.64,12.42,18.64,27.74s-8.35,27.74-18.64,27.74ZM522.44,2983.92c-20.06,0-36.32-24.2-36.32-54.05,0-29.85,16.26-54.05,36.32-54.05s36.32,24.2,36.32,54.05c0,29.85-16.26,54.05-36.32,54.05ZM588.6,2871.83c8.23,0,14.9,9.89,14.9,22.1,0,12.2-6.67,22.09-14.9,22.1-8.23,0-14.9-9.89-14.9-22.1,0-12.2,6.67-22.09,14.9-22.1ZM634.89,2902.79c-25.29-8.68-34.55-48.43-20.7-88.78,13.86-40.35,45.59-66.02,70.87-57.33,25.29,8.68,34.55,48.43,20.7,88.78-13.86,40.35-45.59,66.02-70.87,57.33ZM700.03,2726.88c6.21-3.58,14.8-.31,19.21,7.32,4.4,7.62,2.94,16.71-3.26,20.29-6.21,3.58-14.8.31-19.21-7.32-4.4-7.62-2.94-16.71,3.26-20.29ZM810.44,2806.74c-20.78,9.56-51.7-13.27-69.06-50.99-17.36-37.72-14.59-76.06,6.19-85.62,20.78-9.56,51.7,13.27,69.06,50.99,17.36,37.72,14.59,76.06-6.19,85.62ZM986.38,2672.56c5.35,19.97-23.37,45.02-64.15,55.95-40.78,10.93-78.18,3.59-83.53-16.38-5.35-19.97,23.37-45.02,64.15-55.95,40.78-10.93,78.18-3.59,83.53,16.38Z"/>
      </g>
      <g class="uuid-70345d24-3e58-4e59-ad27-16dfbd935f79">
        <path class="uuid-a5db8dc0-d95a-4f51-8eda-19269fef2b8a" d="M400.27,435.06c-43.75,0-79.21-25.17-79.21-56.21,0-31.04,35.46-56.21,79.21-56.21,6.97,0,13.73.64,20.17,1.84-2.81-10.34-5.99-20.6-9.54-30.76-2.14,6.27-6.09,10.5-10.62,10.5-6.8,0-12.31-9.47-12.31-21.15,0-10.64,4.58-19.42,10.54-20.9-10.49-24.02-23.16-47.31-38-69.59-1.71.99-3.47,1.94-5.33,2.79-20.03,9.08-41.23,5.51-47.35-7.98-5.55-12.25,3.27-28.44,19.93-38.11-7.19-8.41-14.74-16.61-22.65-24.6.74,15.26-6.02,33.59-19.58,49.19-22.1,25.44-53.88,34.02-70.98,19.17-17.1-14.85-13.04-47.52,9.07-72.96,14.06-16.18,32.02-25.52,47.64-26.37-29.12-24.09-60.54-43.99-93.46-59.71-12.37,40.16-35.96,67.31-63.04,67.31-35.35,0-64.75-46.25-71-107.33-13.95-1.9-27.96-3.16-42-3.77C1.92-4.87,1.03-.08-1.05,4.38c-9.89,21.15-42.58,26.75-73.01,12.52-10.76-5.03-19.79-11.88-26.54-19.55-7.08,1.3-14.13,2.78-21.15,4.42,6.28,2.99,12.58,6.55,18.78,10.68,39.02,26,59.04,64.49,44.72,85.99-14.32,21.49-57.56,17.84-96.57-8.15-26.53-17.68-44.27-41.14-48.4-61.1-16.68,7.44-33,15.94-48.86,25.49,4.64,3.67,8.4,8.75,10.59,14.89,5.81,16.29-1.67,33.84-16.7,39.2-15.03,5.36-31.92-3.51-37.73-19.8-.41-1.15-.74-2.3-1.01-3.46-14.66,11.43-28.79,23.88-42.27,37.36-7.25,7.25-14.17,14.7-20.83,22.31,4.96,4.5,9.74,9.37,14.29,14.6,47.67,54.87,52.21,128.98,10.14,165.54-31.15,27.07-79.11,25.93-121.27,1.26-2.8,10.48-5.22,21.05-7.25,31.67,28.84-7.8,68.42-3.22,107.17,14.9,63.13,29.53,100.14,83.77,82.66,121.15-17.48,37.38-82.84,43.75-145.97,14.23-19.88-9.3-37.17-21.05-50.98-33.95,2.71,40.59,10.82,80.89,24.38,119.71,7.6-4.62,16.96-7.35,27.11-7.35,25.34,0,45.88,17.01,45.88,38s-18.7,36.42-42.42,37.88c12.2,22.2,26.4,43.59,42.59,63.91-1.63-15,1.26-32.42,9.17-49.32,17.06-36.49,50.99-56.66,75.78-45.07,24.79,11.59,31.05,50.57,13.99,87.06-14.08,30.11-39.65,49.1-62.09,48.3,66.6,65.67,148.42,106.61,234.01,122.82-1.17-65.63,29.42-119.41,71.34-122.53,44.39-3.31,84.65,51.43,89.93,122.25.05.61.07,1.21.11,1.82,9.07-1.54,18.1-3.38,27.09-5.48-15.59-24.14-25.49-60.1-25.49-100.29,0-72.69,32.35-131.61,72.25-131.61,39.9,0,72.25,58.92,72.25,131.61,0,20.89-2.68,40.62-7.44,58.16,14.28-7.68,28.24-16.17,41.8-25.49-1.7-2.34-3.14-4.99-4.18-7.92-4.97-13.94.45-28.6,12.11-32.76,10.32-3.68,22.06,2.14,28.06,13.21,4.45-3.76,8.85-7.62,13.19-11.58-64.43-31.21-97.68-96.19-74.33-146.13,23.61-50.49,96.13-66.46,161.97-35.66,9.98,4.67,19.22,10.15,27.65,16.25,18.84-46.69,29.59-95.88,32.28-145.42-1.64,1.2-3.48,2.28-5.48,3.19-10.71,4.86-22.05,2.95-25.32-4.27-3.27-7.21,2.77-17,13.48-21.85,6.41-2.91,13.03-3.37,18.02-1.75,0-5.1-.11-10.19-.28-15.29-10.77,3.89-22.94,6.09-35.85,6.09ZM-389.67,577.36c-17.3,0-31.32-9.42-31.32-21.05s14.02-21.05,31.32-21.05c17.3,0,31.32,9.42,31.32,21.05s-14.02,21.05-31.32,21.05ZM223.3,752.51c4.32-.86,9.15,5.08,10.79,13.28,1.64,8.2-.53,15.54-4.84,16.41-4.32.86-9.15-5.08-10.79-13.28-1.64-8.2.53-15.54,4.84-16.41ZM409.21,540.88c7.31,4.87,11.03,12.12,8.31,16.2-2.72,4.08-10.84,3.44-18.15-1.43-7.31-4.87-11.03-12.12-8.31-16.2,2.72-4.08,10.84-3.44,18.15,1.43ZM374.58,541.03c10.1,2.71,16.45,11.75,14.19,20.19-2.26,8.44-12.28,13.09-22.38,10.39-10.1-2.71-16.45-11.75-14.19-20.19,2.26-8.44,12.28-13.09,22.38-10.39ZM307.53,429.96c-1.41,25.39-49.9,43.35-108.31,40.12-58.41-3.23-104.62-26.43-103.22-51.82,1.41-25.39,49.9-43.35,108.31-40.12,58.41,3.23,104.62,26.43,103.22,51.82ZM-17.89,550.64c-17.1-14.85-13.04-47.52,9.07-72.96,22.1-25.44,53.88-34.02,70.98-19.17,17.1,14.85,13.04,47.52-9.07,72.96-22.1,25.44-53.88,34.02-70.98,19.17ZM-46.09,593.94c-6.8,0-12.31-9.47-12.31-21.15,0-11.68,5.51-21.15,12.31-21.15s12.31,9.47,12.31,21.15c0,11.68-5.51,21.15-12.31,21.15ZM-98.17,552.96c-8.8-7.65-4.64-26.85,9.29-42.88,13.93-16.03,32.36-22.83,41.16-15.18,8.8,7.65,4.64,26.85-9.29,42.88-13.93,16.03-32.36,22.83-41.16,15.18ZM251.86,232.4c49.1-26.38,101.67-24,117.41,5.3,15.74,29.31-11.3,74.45-60.4,100.82-49.1,26.38-101.67,24-117.41-5.3-15.74-29.31,11.3-74.45,60.4-100.82ZM180.67,232.14c10.71-4.86,22.05-2.95,25.32,4.27,3.27,7.21-2.77,17-13.48,21.85-10.71,4.86-22.05,2.95-25.32-4.27-3.27-7.21,2.77-17,13.48-21.85ZM157.46,268.71c17.98,17.98-.98,66.09-42.34,107.45-41.37,41.37-89.48,60.32-107.45,42.34-17.98-17.98.98-66.09,42.34-107.45,41.37-41.37,89.48-60.32,107.45-42.34ZM-172.26,202.9c17.11-36.59,74.61-45.85,128.42-20.69,53.81,25.17,83.56,75.23,66.45,111.82-17.11,36.59-74.61,45.85-128.42,20.69-53.81-25.17-83.56-75.23-66.45-111.82ZM-148.7,341.95c-8.04,6.99-24.48,1.23-36.72-12.86-12.24-14.09-15.64-31.17-7.6-38.16,8.04-6.99,24.48-1.23,36.72,12.86,12.24,14.09,15.64,31.17,7.6,38.16ZM-80.16,133.8c3.01-11.23,16.33-17.41,29.76-13.81,13.43,3.6,21.88,15.62,18.87,26.85-3.01,11.23-16.33,17.41-29.76,13.81-13.43-3.6-21.88-15.62-18.87-26.85ZM62.3,215.52c10.1,2.71,16.45,11.75,14.19,20.19-2.26,8.44-12.28,13.09-22.38,10.39-10.1-2.71-16.45-11.75-14.19-20.19,2.26-8.44,12.28-13.09,22.38-10.39ZM-71.24,374.44c7.31,4.87,11.03,12.12,8.31,16.2-2.72,4.08-10.84,3.44-18.15-1.43-7.31-4.87-11.03-12.12-8.31-16.2,2.72-4.08,10.84-3.44,18.15,1.43ZM-54.77,377.12c0-17.3,9.42-31.32,21.05-31.32,11.62,0,21.05,14.02,21.05,31.32,0,17.3-9.42,31.32-21.05,31.32s-21.05-14.02-21.05-31.32ZM225.39,74.86c8.2-3.72,16.87-2.26,19.38,3.26,2.5,5.52-2.12,13.01-10.31,16.72-8.2,3.72-16.87,2.26-19.38-3.26-2.5-5.52,2.12-13.01,10.31-16.72ZM184.24,73.46c11.62,0,21.05,14.02,21.05,31.32,0,17.3-9.42,31.32-21.05,31.32-11.62,0-21.05-14.02-21.05-31.32,0-17.3,9.42-31.32,21.05-31.32ZM126.07,123.66c22.65,0,41.01,27.32,41.01,61.02,0,33.7-18.36,61.02-41.01,61.02-22.65,0-41.01-27.32-41.01-61.02,0-33.7,18.36-61.02,41.01-61.02ZM-14.16,33.65c23.46-10.8,58.37,14.98,77.97,57.57,19.6,42.59,16.47,85.87-6.99,96.67-23.46,10.8-58.37-14.98-77.97-57.57-19.6-42.59-16.47-85.87,6.99-96.67ZM-104.63,128.94c10.99,4.57,17.83,13.24,15.28,19.37-2.55,6.13-13.52,7.4-24.51,2.83-10.99-4.57-17.83-13.24-15.28-19.37,2.55-6.13,13.52-7.4,24.51-2.83ZM-155.43,118.73c9.67,27.13-.22,55.45-22.09,63.24-21.87,7.79-47.43-7.89-57.1-35.02-9.67-27.13.22-55.45,22.09-63.24,21.87-7.79,47.43,7.89,57.1,35.02ZM-222.04,56.5c2.72-4.08,10.84-3.44,18.15,1.43,7.31,4.87,11.03,12.12,8.31,16.2-2.72,4.08-10.84,3.44-18.15-1.43-7.31-4.87-11.03-12.12-8.31-16.2ZM-298.12,188.92c-21.95-5.88-35.75-25.52-30.84-43.87,4.92-18.35,26.69-28.46,48.64-22.58,21.95,5.88,35.75,25.52,30.84,43.87-4.92,18.35-26.69,28.46-48.64,22.58ZM-290.62,245.21c0-27.5,13.42-49.8,29.96-49.8s29.96,22.3,29.96,49.8c0,27.5-13.42,49.8-29.96,49.8-16.55,0-29.96-22.3-29.96-49.8ZM-257.51,393.76c-32.45,8.7-63.66-2.54-69.7-25.09-6.04-22.55,15.37-47.88,47.82-56.58,32.45-8.7,63.66,2.54,69.7,25.09,6.04,22.55-15.37,47.88-47.82,56.58ZM-258.72,433.34c1.84-33.22,48.44-57.64,104.1-54.56,55.65,3.08,99.28,32.5,97.44,65.72-1.84,33.22-48.44,57.64-104.1,54.56-55.65-3.08-99.28-32.5-97.44-65.72ZM-250.66,606.68c-46.04,12.34-88.26,4.06-94.31-18.49-6.04-22.55,26.38-50.83,72.43-63.17,46.04-12.34,88.26-4.06,94.31,18.49,6.04,22.55-26.38,50.83-72.43,63.17ZM-136.66,511.04c2.72-4.08,10.84-3.44,18.15,1.43,7.31,4.87,11.03,12.12,8.31,16.2-2.72,4.08-10.84,3.44-18.15-1.43-7.31-4.87-11.03-12.12-8.31-16.2ZM-228.72,769.66c-22.39-6.61-29.6-49.03-16.1-94.74,13.5-45.71,42.59-77.41,64.98-70.8,22.39,6.61,29.6,49.03,16.1,94.74-13.5,45.71-42.59,77.41-64.98,70.8ZM-137.26,645.66c-15.64-34-13.14-68.54,5.58-77.16,18.73-8.62,46.59,11.96,62.23,45.95,15.64,34,13.14,68.54-5.58,77.16-18.73,8.62-46.59-11.96-62.23-45.95ZM-206.8,843.52c-11.62,0-21.05-14.02-21.05-31.32s9.42-31.32,21.05-31.32c11.62,0,21.05,14.02,21.05,31.32s-9.42,31.32-21.05,31.32ZM-138.65,839.02c-22.65,0-41.01-27.32-41.01-61.02,0-33.7,18.36-61.02,41.01-61.02s41.01,27.32,41.01,61.02c0,33.7-18.36,61.02-41.01,61.02ZM-63.95,712.46c9.29,0,16.82,11.17,16.82,24.95,0,13.78-7.53,24.95-16.82,24.95-9.29,0-16.82-11.17-16.82-24.95,0-13.78,7.53-24.95,16.82-24.95ZM-11.68,747.42c-28.55-9.8-39.01-54.68-23.37-100.23,15.64-45.55,51.47-74.53,80.02-64.73,28.55,9.8,39.01,54.68,23.37,100.23-15.64,45.55-51.47,74.53-80.02,64.73ZM61.86,548.82c7.01-4.04,16.71-.35,21.68,8.26,4.97,8.61,3.32,18.86-3.69,22.91-7.01,4.04-16.71.35-21.68-8.26-4.97-8.61-3.32-18.86,3.69-22.91ZM186.5,638.98c-23.46,10.8-58.37-14.98-77.97-57.57-19.6-42.59-16.47-85.87,6.99-96.67,23.46-10.8,58.37,14.98,77.97,57.57,19.6,42.59,16.47,85.87-6.99,96.67ZM385.15,487.49c6.04,22.55-26.38,50.83-72.43,63.17-46.04,12.34-88.26,4.06-94.31-18.49-6.04-22.55,26.38-50.83,72.43-63.17,46.04-12.34,88.26-4.06,94.31,18.49Z"/>
      </g>
      <g class="uuid-6a9efa9c-b9b5-4317-a36c-2707ed291b62">
        <path class="uuid-a5db8dc0-d95a-4f51-8eda-19269fef2b8a" d="M585.82,2226.75c-43.75,0-79.21-25.17-79.21-56.21,0-31.04,35.46-56.21,79.21-56.21,6.97,0,13.73.64,20.17,1.84-2.81-10.34-5.99-20.6-9.54-30.76-2.14,6.27-6.09,10.5-10.62,10.5-6.8,0-12.31-9.47-12.31-21.15,0-10.64,4.58-19.42,10.54-20.9-10.49-24.02-23.16-47.31-38-69.59-1.71.99-3.47,1.94-5.33,2.79-20.03,9.08-41.23,5.51-47.35-7.98-5.55-12.25,3.27-28.44,19.93-38.11-7.19-8.41-14.74-16.61-22.65-24.6.74,15.26-6.02,33.59-19.58,49.19-22.1,25.44-53.88,34.02-70.98,19.17-17.1-14.85-13.04-47.52,9.07-72.96,14.06-16.18,32.02-25.52,47.64-26.37-29.12-24.09-60.54-43.99-93.46-59.71-12.37,40.16-35.96,67.31-63.04,67.31-35.35,0-64.75-46.25-71-107.33-13.95-1.9-27.96-3.16-42-3.77.15,4.92-.74,9.71-2.82,14.16-9.89,21.15-42.58,26.75-73.01,12.52-10.76-5.03-19.79-11.88-26.54-19.55-7.08,1.3-14.13,2.78-21.15,4.42,6.28,2.99,12.58,6.55,18.78,10.68,39.02,26,59.04,64.49,44.72,85.99-14.32,21.49-57.56,17.84-96.57-8.15-26.53-17.68-44.27-41.14-48.4-61.1-16.68,7.44-33,15.94-48.86,25.49,4.64,3.67,8.4,8.75,10.59,14.89,5.81,16.29-1.67,33.84-16.7,39.2-15.03,5.36-31.92-3.51-37.73-19.8-.41-1.15-.74-2.3-1.01-3.46-14.66,11.43-28.79,23.88-42.27,37.36-7.25,7.25-14.17,14.7-20.83,22.31,4.96,4.5,9.74,9.37,14.29,14.6,47.67,54.87,52.21,128.98,10.14,165.54-31.15,27.07-79.11,25.93-121.27,1.26-2.8,10.48-5.22,21.05-7.25,31.67,28.84-7.8,68.42-3.22,107.17,14.9,63.13,29.53,100.14,83.77,82.66,121.15-17.48,37.38-82.84,43.75-145.97,14.23-19.88-9.3-37.17-21.05-50.98-33.95,2.71,40.59,10.82,80.89,24.38,119.71,7.6-4.62,16.96-7.35,27.11-7.35,25.34,0,45.88,17.01,45.88,38s-18.7,36.42-42.42,37.88c12.2,22.2,26.4,43.59,42.59,63.91-1.63-15,1.26-32.42,9.17-49.32,17.06-36.49,50.99-56.66,75.78-45.07,24.79,11.59,31.05,50.57,13.99,87.06-14.08,30.11-39.65,49.1-62.09,48.3,66.6,65.67,148.42,106.61,234.01,122.82-1.17-65.63,29.42-119.41,71.34-122.53,44.39-3.31,84.65,51.43,89.93,122.25.05.61.07,1.21.11,1.82,9.07-1.54,18.1-3.38,27.09-5.48-15.59-24.14-25.49-60.1-25.49-100.29,0-72.69,32.35-131.61,72.25-131.61,39.9,0,72.25,58.92,72.25,131.61,0,20.89-2.68,40.62-7.44,58.16,14.28-7.68,28.24-16.17,41.8-25.49-1.7-2.34-3.14-4.99-4.18-7.92-4.97-13.94.45-28.6,12.11-32.76,10.32-3.68,22.06,2.14,28.06,13.21,4.45-3.76,8.85-7.62,13.19-11.58-64.43-31.21-97.68-96.19-74.33-146.13,23.61-50.49,96.13-66.46,161.97-35.66,9.98,4.67,19.22,10.15,27.65,16.25,18.84-46.69,29.59-95.88,32.28-145.42-1.64,1.2-3.48,2.28-5.48,3.19-10.71,4.86-22.05,2.95-25.32-4.27-3.27-7.21,2.77-17,13.48-21.85,6.41-2.91,13.03-3.37,18.02-1.75,0-5.1-.11-10.19-.28-15.29-10.77,3.89-22.94,6.09-35.85,6.09ZM-204.13,2369.06c-17.3,0-31.32-9.42-31.32-21.05s14.02-21.05,31.32-21.05c17.3,0,31.32,9.42,31.32,21.05s-14.02,21.05-31.32,21.05ZM408.84,2544.21c4.32-.86,9.15,5.08,10.79,13.28,1.64,8.2-.53,15.54-4.84,16.41-4.32.86-9.15-5.08-10.79-13.28-1.64-8.2.53-15.54,4.84-16.41ZM594.75,2332.58c7.31,4.87,11.03,12.12,8.31,16.2-2.72,4.08-10.84,3.44-18.15-1.43-7.31-4.87-11.03-12.12-8.31-16.2,2.72-4.08,10.84-3.44,18.15,1.43ZM560.12,2332.72c10.1,2.71,16.45,11.75,14.19,20.19-2.26,8.44-12.28,13.09-22.38,10.39-10.1-2.71-16.45-11.75-14.19-20.19,2.26-8.44,12.28-13.09,22.38-10.39ZM493.07,2221.66c-1.41,25.39-49.9,43.35-108.31,40.12-58.41-3.23-104.62-26.43-103.22-51.82,1.41-25.39,49.9-43.35,108.31-40.12,58.41,3.23,104.62,26.43,103.22,51.82ZM167.65,2342.33c-17.1-14.85-13.04-47.52,9.07-72.96,22.1-25.44,53.88-34.02,70.98-19.17,17.1,14.85,13.04,47.52-9.07,72.96-22.1,25.44-53.88,34.02-70.98,19.17ZM139.45,2385.63c-6.8,0-12.31-9.47-12.31-21.15,0-11.68,5.51-21.15,12.31-21.15s12.31,9.47,12.31,21.15c0,11.68-5.51,21.15-12.31,21.15ZM87.37,2344.65c-8.8-7.65-4.64-26.85,9.29-42.88,13.93-16.03,32.36-22.83,41.16-15.18,8.8,7.65,4.64,26.85-9.29,42.88-13.93,16.03-32.36,22.83-41.16,15.18ZM437.4,2024.09c49.1-26.38,101.67-24,117.41,5.3,15.74,29.31-11.3,74.45-60.4,100.82-49.1,26.38-101.67,24-117.41-5.3-15.74-29.31,11.3-74.45,60.4-100.82ZM366.21,2023.84c10.71-4.86,22.05-2.95,25.32,4.27,3.27,7.21-2.77,17-13.48,21.85-10.71,4.86-22.05,2.95-25.32-4.27-3.27-7.21,2.77-17,13.48-21.85ZM343,2060.41c17.98,17.98-.98,66.09-42.34,107.45-41.37,41.37-89.48,60.32-107.45,42.34-17.98-17.98.98-66.09,42.34-107.45,41.37-41.37,89.48-60.32,107.45-42.34ZM13.28,1994.59c17.11-36.59,74.61-45.85,128.42-20.69,53.81,25.17,83.56,75.23,66.45,111.82-17.11,36.59-74.61,45.85-128.42,20.69-53.81-25.17-83.56-75.23-66.45-111.82ZM36.84,2133.64c-8.04,6.99-24.48,1.23-36.72-12.86-12.24-14.09-15.64-31.17-7.6-38.16,8.04-6.99,24.48-1.23,36.72,12.86,12.24,14.09,15.64,31.17,7.6,38.16ZM105.38,1925.5c3.01-11.23,16.33-17.41,29.76-13.81,13.43,3.6,21.88,15.62,18.87,26.85-3.01,11.23-16.33,17.41-29.76,13.81-13.43-3.6-21.88-15.62-18.87-26.85ZM247.84,2007.22c10.1,2.71,16.45,11.75,14.19,20.19-2.26,8.44-12.28,13.09-22.38,10.39-10.1-2.71-16.45-11.75-14.19-20.19,2.26-8.44,12.28-13.09,22.38-10.39ZM114.3,2166.13c7.31,4.87,11.03,12.12,8.31,16.2-2.72,4.08-10.84,3.44-18.15-1.43-7.31-4.87-11.03-12.12-8.31-16.2,2.72-4.08,10.84-3.44,18.15,1.43ZM130.77,2168.82c0-17.3,9.42-31.32,21.05-31.32,11.62,0,21.05,14.02,21.05,31.32,0,17.3-9.42,31.32-21.05,31.32s-21.05-14.02-21.05-31.32ZM410.93,1866.55c8.2-3.72,16.87-2.26,19.38,3.26,2.5,5.52-2.12,13.01-10.31,16.72-8.2,3.72-16.87,2.26-19.38-3.26-2.5-5.52,2.12-13.01,10.31-16.72ZM369.78,1865.15c11.62,0,21.05,14.02,21.05,31.32,0,17.3-9.42,31.32-21.05,31.32-11.62,0-21.05-14.02-21.05-31.32,0-17.3,9.42-31.32,21.05-31.32ZM311.61,1915.36c22.65,0,41.01,27.32,41.01,61.02,0,33.7-18.36,61.02-41.01,61.02-22.65,0-41.01-27.32-41.01-61.02,0-33.7,18.36-61.02,41.01-61.02ZM171.38,1825.35c23.46-10.8,58.37,14.98,77.97,57.57,19.6,42.59,16.47,85.87-6.99,96.67-23.46,10.8-58.37-14.98-77.97-57.57-19.6-42.59-16.47-85.87,6.99-96.67ZM80.91,1920.64c10.99,4.57,17.83,13.24,15.28,19.37-2.55,6.13-13.52,7.4-24.51,2.83-10.99-4.57-17.83-13.24-15.28-19.37,2.55-6.13,13.52-7.4,24.51-2.83ZM30.12,1910.43c9.67,27.13-.22,55.45-22.09,63.24-21.87,7.79-47.43-7.89-57.1-35.02-9.67-27.13.22-55.45,22.09-63.24,21.87-7.79,47.43,7.89,57.1,35.02ZM-36.5,1848.19c2.72-4.08,10.84-3.44,18.15,1.43,7.31,4.87,11.03,12.12,8.31,16.2-2.72,4.08-10.84,3.44-18.15-1.43-7.31-4.87-11.03-12.12-8.31-16.2ZM-112.58,1980.61c-21.95-5.88-35.75-25.52-30.84-43.87,4.92-18.35,26.69-28.46,48.64-22.58,21.95,5.88,35.75,25.52,30.84,43.87-4.92,18.35-26.69,28.46-48.64,22.58ZM-105.08,2036.9c0-27.5,13.42-49.8,29.96-49.8s29.96,22.3,29.96,49.8c0,27.5-13.42,49.8-29.96,49.8-16.55,0-29.96-22.3-29.96-49.8ZM-71.97,2185.45c-32.45,8.7-63.66-2.54-69.7-25.09-6.04-22.55,15.37-47.88,47.82-56.58,32.45-8.7,63.66,2.54,69.7,25.09,6.04,22.55-15.37,47.88-47.82,56.58ZM-73.18,2225.04c1.84-33.22,48.44-57.64,104.1-54.56,55.65,3.08,99.28,32.5,97.44,65.72-1.84,33.22-48.44,57.64-104.1,54.56-55.65-3.08-99.28-32.5-97.44-65.72ZM-65.12,2398.37c-46.04,12.34-88.26,4.06-94.31-18.49-6.04-22.55,26.38-50.83,72.43-63.17,46.04-12.34,88.26-4.06,94.31,18.49,6.04,22.55-26.38,50.83-72.43,63.17ZM48.88,2302.74c2.72-4.08,10.84-3.44,18.15,1.43,7.31,4.87,11.03,12.12,8.31,16.2-2.72,4.08-10.84,3.44-18.15-1.43-7.31-4.87-11.03-12.12-8.31-16.2ZM-43.18,2561.35c-22.39-6.61-29.6-49.03-16.1-94.74,13.5-45.71,42.59-77.41,64.98-70.8,22.39,6.61,29.6,49.03,16.1,94.74-13.5,45.71-42.59,77.41-64.98,70.8ZM48.28,2437.36c-15.64-34-13.14-68.54,5.58-77.16,18.73-8.62,46.59,11.96,62.23,45.95,15.64,34,13.14,68.54-5.58,77.16-18.73,8.62-46.59-11.96-62.23-45.95ZM-21.26,2635.21c-11.62,0-21.05-14.02-21.05-31.32s9.42-31.32,21.05-31.32c11.62,0,21.05,14.02,21.05,31.32s-9.42,31.32-21.05,31.32ZM46.89,2630.71c-22.65,0-41.01-27.32-41.01-61.02,0-33.7,18.36-61.02,41.01-61.02s41.01,27.32,41.01,61.02c0,33.7-18.36,61.02-41.01,61.02ZM121.6,2504.16c9.29,0,16.82,11.17,16.82,24.95,0,13.78-7.53,24.95-16.82,24.95-9.29,0-16.82-11.17-16.82-24.95,0-13.78,7.53-24.95,16.82-24.95ZM173.86,2539.12c-28.55-9.8-39.01-54.68-23.37-100.23,15.64-45.55,51.47-74.53,80.02-64.73,28.55,9.8,39.01,54.68,23.37,100.23-15.64,45.55-51.47,74.53-80.02,64.73ZM247.4,2340.51c7.01-4.04,16.71-.35,21.68,8.26,4.97,8.61,3.32,18.86-3.69,22.91-7.01,4.04-16.71.35-21.68-8.26-4.97-8.61-3.32-18.86,3.69-22.91ZM372.04,2430.67c-23.46,10.8-58.37-14.98-77.97-57.57-19.6-42.59-16.47-85.87,6.99-96.67,23.46-10.8,58.37,14.98,77.97,57.57,19.6,42.59,16.47,85.87-6.99,96.67ZM570.69,2279.18c6.04,22.55-26.38,50.83-72.43,63.17-46.04,12.34-88.26,4.06-94.31-18.49-6.04-22.55,26.38-50.83,72.43-63.17,46.04-12.34,88.26-4.06,94.31,18.49Z"/>
      </g>
      <g class="uuid-a998d084-9b51-40e4-8b45-82556ba0a379">
        <path class="uuid-a5db8dc0-d95a-4f51-8eda-19269fef2b8a" d="M1159.32,538.05c-38.75,0-70.16-22.29-70.16-49.79,0-27.5,31.41-49.79,70.16-49.79,6.17,0,12.16.57,17.86,1.63-2.49-9.16-5.3-18.25-8.45-27.25-1.89,5.56-5.39,9.3-9.41,9.3-6.02,0-10.9-8.39-10.9-18.73,0-9.43,4.06-17.21,9.34-18.52-9.29-21.27-20.51-41.9-33.66-61.63-1.51.88-3.07,1.72-4.72,2.47-17.75,8.04-36.52,4.88-41.94-7.07-4.92-10.85,2.9-25.19,17.66-33.76-6.37-7.45-13.06-14.71-20.06-21.79.66,13.52-5.33,29.75-17.34,43.57-19.58,22.53-47.72,30.13-62.87,16.98-15.14-13.16-11.55-42.09,8.03-64.62,12.45-14.33,28.36-22.61,42.2-23.36-25.79-21.34-53.62-38.97-82.79-52.88-10.96,35.57-31.85,59.62-55.83,59.62-31.31,0-57.35-40.96-62.89-95.06-12.35-1.68-24.76-2.8-37.2-3.34.14,4.35-.66,8.6-2.5,12.54-8.76,18.73-37.71,23.7-64.67,11.09-9.53-4.46-17.53-10.52-23.51-17.32-6.27,1.15-12.52,2.46-18.74,3.91,5.56,2.65,11.14,5.8,16.63,9.46,34.56,23.03,52.29,57.12,39.61,76.16-12.68,19.04-50.98,15.8-85.54-7.22-23.5-15.66-39.21-36.44-42.87-54.12-14.77,6.59-29.23,14.12-43.28,22.58,4.11,3.25,7.44,7.75,9.38,13.19,5.14,14.43-1.48,29.98-14.8,34.72-13.31,4.74-28.28-3.11-33.42-17.54-.36-1.02-.65-2.04-.9-3.06-12.98,10.13-25.5,21.15-37.44,33.09-6.42,6.42-12.55,13.02-18.45,19.76,4.39,3.98,8.63,8.3,12.66,12.94,42.23,48.6,46.25,114.25,8.98,146.63-27.59,23.97-70.07,22.97-107.41,1.12-2.48,9.29-4.62,18.64-6.42,28.05,25.55-6.91,60.6-2.86,94.93,13.2,55.92,26.15,88.7,74.2,73.21,107.31-15.49,33.11-73.37,38.75-129.29,12.6-17.61-8.24-32.92-18.65-45.16-30.07,2.4,35.95,9.59,71.65,21.6,106.03,6.73-4.09,15.03-6.51,24.01-6.51,22.44,0,40.63,15.07,40.63,33.66s-16.56,32.26-37.57,33.55c10.8,19.66,23.38,38.61,37.72,56.61-1.44-13.28,1.12-28.72,8.12-43.69,15.11-32.32,45.17-50.19,67.13-39.92,21.96,10.27,27.51,44.79,12.39,77.11-12.47,26.67-35.12,43.49-55,42.78,58.99,58.16,131.46,94.43,207.28,108.78-1.04-58.13,26.06-105.76,63.19-108.53,39.32-2.93,74.98,45.55,79.65,108.28.04.54.06,1.07.09,1.61,8.04-1.36,16.03-3,23.99-4.85-13.81-21.38-22.58-53.23-22.58-88.83,0-64.38,28.65-116.57,64-116.57,35.34,0,64,52.19,64,116.57,0,18.5-2.38,35.98-6.59,51.52,12.65-6.8,25.01-14.33,37.02-22.58-1.51-2.08-2.78-4.42-3.71-7.02-4.4-12.35.4-25.34,10.72-29.01,9.14-3.26,19.54,1.9,24.86,11.7,3.94-3.33,7.84-6.75,11.68-10.26-57.07-27.64-86.52-85.2-65.84-129.43,20.92-44.72,85.15-58.86,143.46-31.59,8.84,4.13,17.02,8.99,24.49,14.4,16.69-41.36,26.21-84.92,28.59-128.81-1.46,1.06-3.08,2.02-4.86,2.82-9.49,4.3-19.53,2.61-22.43-3.78-2.9-6.39,2.45-15.06,11.94-19.36,5.68-2.57,11.54-2.99,15.96-1.55,0-4.52-.1-9.03-.25-13.54-9.54,3.44-20.32,5.4-31.75,5.4ZM459.64,664.1c-15.32,0-27.74-8.35-27.74-18.64s12.42-18.64,27.74-18.64c15.32,0,27.74,8.35,27.74,18.64s-12.42,18.64-27.74,18.64ZM1002.57,819.24c3.82-.77,8.1,4.5,9.55,11.76,1.45,7.26-.47,13.77-4.29,14.53-3.82.77-8.1-4.5-9.55-11.76-1.45-7.26.47-13.77,4.29-14.53ZM1167.24,631.79c6.47,4.31,9.77,10.74,7.36,14.35-2.41,3.61-9.61,3.04-16.08-1.27-6.47-4.31-9.77-10.74-7.36-14.35,2.41-3.61,9.61-3.04,16.08,1.27ZM1136.57,631.91c8.95,2.4,14.57,10.4,12.57,17.88-2,7.48-10.88,11.6-19.83,9.2-8.95-2.4-14.57-10.4-12.57-17.88,2-7.48,10.88-11.6,19.83-9.2ZM1077.18,533.54c-1.24,22.49-44.19,38.4-95.93,35.53-51.74-2.86-92.67-23.41-91.42-45.9,1.24-22.49,44.19-38.4,95.93-35.53,51.74,2.86,92.67,23.41,91.42,45.9ZM788.93,640.43c-15.14-13.16-11.55-42.09,8.03-64.62,19.58-22.53,47.72-30.13,62.87-16.98,15.14,13.16,11.55,42.09-8.03,64.62-19.58,22.53-47.72,30.13-62.87,16.98ZM763.96,678.78c-6.02,0-10.9-8.39-10.9-18.73,0-10.34,4.88-18.73,10.9-18.73s10.9,8.39,10.9,18.73c0,10.34-4.88,18.73-10.9,18.73ZM717.83,642.48c-7.8-6.77-4.11-23.78,8.23-37.98,12.34-14.2,28.66-20.22,36.46-13.45,7.8,6.77,4.11,23.78-8.23,37.98-12.34,14.2-28.66,20.22-36.46,13.45ZM1027.87,358.55c43.49-23.36,90.05-21.26,104,4.7,13.94,25.96-10.01,65.94-53.5,89.3-43.49,23.36-90.05,21.26-104-4.7-13.94-25.96,10.01-65.94,53.5-89.3ZM964.81,358.32c9.49-4.3,19.53-2.61,22.43,3.78,2.9,6.39-2.45,15.06-11.94,19.36-9.49,4.3-19.53,2.61-22.43-3.78-2.9-6.39,2.45-15.06,11.94-19.36ZM944.26,390.71c15.93,15.93-.87,58.54-37.51,95.18-36.64,36.64-79.25,53.43-95.18,37.51-15.93-15.93.87-58.54,37.51-95.18,36.64-36.64,79.25-53.43,95.18-37.51ZM652.2,332.42c15.16-32.41,66.08-40.61,113.75-18.32,47.66,22.29,74.01,66.64,58.85,99.05-15.16,32.41-66.08,40.61-113.75,18.32-47.66-22.29-74.01-66.64-58.85-99.05ZM673.07,455.58c-7.12,6.19-21.69,1.09-32.53-11.39-10.84-12.48-13.86-27.61-6.74-33.8,7.12-6.19,21.69-1.09,32.53,11.39,10.84,12.48,13.86,27.61,6.74,33.8ZM733.78,271.22c2.66-9.95,14.47-15.42,26.36-12.24,11.9,3.19,19.38,13.83,16.71,23.78-2.66,9.95-14.47,15.42-26.36,12.24-11.9-3.19-19.38-13.83-16.71-23.78ZM859.97,343.6c8.95,2.4,14.57,10.4,12.57,17.88-2,7.48-10.88,11.6-19.83,9.2-8.95-2.4-14.57-10.4-12.57-17.88,2-7.48,10.88-11.6,19.83-9.2ZM741.68,484.36c6.47,4.31,9.77,10.74,7.36,14.35-2.41,3.61-9.61,3.04-16.08-1.27-6.47-4.31-9.77-10.74-7.36-14.35,2.41-3.61,9.61-3.04,16.08,1.27ZM756.27,486.74c0-15.32,8.35-27.74,18.64-27.74,10.3,0,18.64,12.42,18.64,27.74,0,15.32-8.35,27.74-18.64,27.74s-18.64-12.42-18.64-27.74ZM1004.42,219.01c7.26-3.29,14.95-2,17.16,2.89,2.22,4.89-1.87,11.52-9.14,14.81-7.26,3.29-14.95,2-17.16-2.89-2.22-4.89,1.87-11.52,9.14-14.81ZM967.97,217.77c10.3,0,18.64,12.42,18.64,27.74,0,15.32-8.35,27.74-18.64,27.74-10.3,0-18.64-12.42-18.64-27.74,0-15.32,8.35-27.74,18.64-27.74ZM916.45,262.24c20.06,0,36.32,24.2,36.32,54.05,0,29.85-16.26,54.05-36.32,54.05-20.06,0-36.32-24.2-36.32-54.05,0-29.85,16.26-54.05,36.32-54.05ZM792.24,182.51c20.78-9.56,51.7,13.27,69.06,50.99,17.36,37.72,14.59,76.06-6.19,85.62-20.78,9.56-51.7-13.27-69.06-50.99-17.36-37.72-14.59-76.06,6.19-85.62ZM712.11,266.91c9.73,4.04,15.79,11.72,13.54,17.15-2.26,5.43-11.98,6.55-21.71,2.51-9.73-4.04-15.79-11.72-13.54-17.15,2.26-5.43,11.98-6.55,21.71-2.51ZM667.12,257.87c8.56,24.03-.2,49.11-19.56,56.01-19.37,6.9-42.01-6.99-50.57-31.02-8.56-24.03.2-49.11,19.56-56.01,19.37-6.9,42.01,6.99,50.57,31.02ZM608.11,202.75c2.41-3.61,9.61-3.04,16.08,1.27,6.47,4.31,9.77,10.74,7.36,14.35-2.41,3.61-9.61,3.04-16.08-1.27-6.47-4.31-9.77-10.74-7.36-14.35ZM540.73,320.04c-19.44-5.21-31.67-22.61-27.31-38.86,4.35-16.25,23.64-25.2,43.08-20,19.44,5.21,31.67,22.61,27.31,38.86-4.35,16.25-23.64,25.2-43.08,20ZM547.37,369.89c0-24.36,11.88-44.11,26.54-44.11s26.54,19.75,26.54,44.11c0,24.36-11.88,44.11-26.54,44.11-14.66,0-26.54-19.75-26.54-44.11ZM576.69,501.47c-28.75,7.7-56.39-2.25-61.74-22.22-5.35-19.97,13.61-42.41,42.36-50.11,28.75-7.7,56.39,2.25,61.74,22.22,5.35,19.97-13.61,42.41-42.36,50.11ZM575.62,536.53c1.63-29.42,42.91-51.06,92.2-48.33,49.29,2.73,87.94,28.79,86.31,58.21-1.63,29.42-42.91,51.06-92.2,48.33-49.29-2.73-87.94-28.79-86.31-58.21ZM582.77,690.06c-40.78,10.93-78.18,3.59-83.53-16.38-5.35-19.97,23.37-45.02,64.15-55.95,40.78-10.93,78.18-3.59,83.53,16.38,5.35,19.97-23.37,45.02-64.15,55.95ZM683.74,605.36c2.41-3.61,9.61-3.04,16.08,1.27,6.47,4.31,9.77,10.74,7.36,14.35-2.41,3.61-9.61,3.04-16.08-1.27-6.47-4.31-9.77-10.74-7.36-14.35ZM602.2,834.43c-19.83-5.86-26.22-43.43-14.26-83.92,11.96-40.49,37.72-68.57,57.56-62.71,19.83,5.86,26.22,43.43,14.26,83.92-11.96,40.49-37.72,68.57-57.56,62.71ZM683.2,724.59c-13.86-30.11-11.64-60.71,4.94-68.34,16.59-7.63,41.27,10.59,55.12,40.7,13.86,30.11,11.64,60.71-4.94,68.34-16.59,7.63-41.27-10.59-55.12-40.7ZM621.61,899.84c-10.3,0-18.64-12.42-18.64-27.74s8.35-27.74,18.64-27.74c10.3,0,18.64,12.42,18.64,27.74s-8.35,27.74-18.64,27.74ZM681.98,895.86c-20.06,0-36.32-24.2-36.32-54.05,0-29.85,16.26-54.05,36.32-54.05s36.32,24.2,36.32,54.05c0,29.85-16.26,54.05-36.32,54.05ZM748.14,783.76c8.23,0,14.9,9.89,14.9,22.1,0,12.2-6.67,22.09-14.9,22.1-8.23,0-14.9-9.89-14.9-22.1,0-12.2,6.67-22.09,14.9-22.1ZM794.44,814.73c-25.29-8.68-34.55-48.43-20.7-88.78,13.86-40.35,45.59-66.02,70.87-57.33,25.29,8.68,34.55,48.43,20.7,88.78-13.86,40.35-45.59,66.02-70.87,57.33ZM859.57,638.82c6.21-3.58,14.8-.31,19.21,7.32,4.4,7.62,2.94,16.71-3.26,20.29-6.21,3.58-14.8.31-19.21-7.32-4.4-7.62-2.94-16.71,3.26-20.29ZM969.98,718.68c-20.78,9.56-51.7-13.27-69.06-50.99-17.36-37.72-14.59-76.06,6.19-85.62,20.78-9.56,51.7,13.27,69.06,50.99,17.36,37.72,14.59,76.06-6.19,85.62ZM1145.92,584.49c5.35,19.97-23.37,45.02-64.15,55.95-40.78,10.93-78.18,3.59-83.53-16.38-5.35-19.97,23.37-45.02,64.15-55.95,40.78-10.93,78.18-3.59,83.53,16.38Z"/>
      </g>
      <g class="uuid-d376b15f-80da-4905-94ff-093f05d86429">
        <path class="uuid-a5db8dc0-d95a-4f51-8eda-19269fef2b8a" d="M482.71,1249.99c-40.18,0-72.75-23.11-72.75-51.63,0-28.51,32.57-51.63,72.75-51.63,6.4,0,12.61.59,18.52,1.69-2.58-9.5-5.5-18.92-8.76-28.26-1.96,5.76-5.59,9.64-9.76,9.64-6.24,0-11.31-8.7-11.31-19.42,0-9.78,4.21-17.84,9.68-19.2-9.63-22.06-21.27-43.45-34.9-63.91-1.57.91-3.18,1.78-4.9,2.56-18.4,8.34-37.87,5.06-43.49-7.33-5.1-11.25,3-26.12,18.31-35.01-6.6-7.72-13.54-15.26-20.8-22.6.68,14.02-5.52,30.85-17.98,45.18-20.3,23.36-49.49,31.25-65.19,17.6-15.7-13.64-11.97-43.64,8.33-67.01,12.91-14.86,29.41-23.44,43.75-24.22-26.75-22.13-55.61-40.4-85.84-54.84-11.36,36.88-33.03,61.82-57.9,61.82-32.46,0-59.47-42.48-65.21-98.58-12.81-1.75-25.68-2.91-38.57-3.46.14,4.52-.68,8.91-2.59,13-9.08,19.42-39.11,24.57-67.06,11.5-9.88-4.62-18.18-10.91-24.38-17.96-6.5,1.2-12.98,2.55-19.43,4.06,5.77,2.75,11.56,6.02,17.25,9.81,35.84,23.88,54.22,59.23,41.07,78.98-13.15,19.74-52.87,16.39-88.7-7.49-24.37-16.24-40.66-37.78-44.46-56.12-15.32,6.84-30.31,14.64-44.88,23.42,4.26,3.37,7.72,8.03,9.73,13.67,5.33,14.97-1.54,31.08-15.34,36-13.81,4.92-29.32-3.22-34.65-18.19-.38-1.05-.68-2.11-.93-3.18-13.46,10.5-26.44,21.93-38.82,34.31-6.66,6.66-13.02,13.5-19.13,20.49,4.56,4.13,8.95,8.6,13.13,13.41,43.79,50.39,47.96,118.47,9.31,152.04-28.61,24.86-72.66,23.82-111.38,1.16-2.57,9.63-4.79,19.33-6.66,29.09,26.49-7.16,62.84-2.96,98.44,13.69,57.99,27.12,91.98,76.94,75.92,111.28-16.06,34.34-76.08,40.19-134.07,13.07-18.26-8.54-34.14-19.33-46.82-31.19,2.49,37.28,9.94,74.29,22.39,109.95,6.98-4.24,15.58-6.75,24.9-6.75,23.27,0,42.13,15.63,42.13,34.9s-17.17,33.45-38.96,34.79c11.2,20.39,24.25,40.03,39.11,58.7-1.49-13.78,1.16-29.78,8.42-45.3,15.67-33.51,46.84-52.04,69.61-41.4,22.77,10.65,28.52,46.45,12.85,79.96-12.93,27.66-36.42,45.09-57.03,44.36,61.17,60.31,136.32,97.92,214.93,112.8-1.08-60.28,27.02-109.67,65.52-112.54,40.77-3.04,77.75,47.23,82.6,112.28.04.56.06,1.11.1,1.67,8.33-1.41,16.63-3.11,24.88-5.03-14.32-22.17-23.41-55.2-23.41-92.11,0-66.76,29.71-120.88,66.36-120.88,36.65,0,66.36,54.12,66.36,120.88,0,19.18-2.46,37.31-6.83,53.42,13.12-7.05,25.94-14.86,38.39-23.42-1.56-2.15-2.88-4.58-3.84-7.28-4.56-12.8.42-26.27,11.12-30.09,9.48-3.38,20.27,1.97,25.78,12.13,4.09-3.46,8.13-7,12.11-10.63-59.18-28.67-89.72-88.35-68.27-134.21,21.69-46.37,88.29-61.04,148.76-32.76,9.17,4.29,17.65,9.32,25.4,14.93,17.3-42.88,27.17-88.06,29.65-133.56-1.51,1.1-3.2,2.1-5.03,2.93-9.84,4.46-20.25,2.71-23.26-3.92-3-6.62,2.54-15.61,12.38-20.07,5.89-2.67,11.96-3.1,16.55-1.61,0-4.68-.1-9.36-.26-14.04-9.89,3.57-21.07,5.59-32.93,5.59ZM-242.82,1380.69c-15.89,0-28.77-8.65-28.77-19.33s12.88-19.33,28.77-19.33c15.89,0,28.77,8.65,28.77,19.33s-12.88,19.33-28.77,19.33ZM320.17,1541.56c3.96-.79,8.4,4.67,9.91,12.2,1.51,7.53-.48,14.28-4.45,15.07-3.96.79-8.4-4.67-9.91-12.2-1.51-7.53.48-14.28,4.45-15.07ZM490.92,1347.18c6.71,4.47,10.13,11.13,7.64,14.88-2.5,3.75-9.96,3.16-16.67-1.32-6.71-4.47-10.13-11.13-7.64-14.88,2.5-3.75,9.96-3.16,16.67,1.32ZM459.12,1347.32c9.28,2.49,15.11,10.79,13.03,18.54-2.08,7.76-11.28,12.03-20.56,9.54-9.28-2.49-15.11-10.79-13.03-18.54,2.08-7.76,11.28-12.03,20.56-9.54ZM397.53,1245.31c-1.29,23.32-45.83,39.81-99.48,36.84-53.65-2.97-96.09-24.28-94.8-47.6,1.29-23.32,45.83-39.81,99.48-36.84,53.65,2.97,96.09,24.28,94.8,47.6ZM98.64,1356.14c-15.7-13.64-11.97-43.64,8.33-67.01,20.3-23.36,49.49-31.25,65.19-17.6,15.7,13.64,11.97,43.64-8.33,67.01-20.3,23.36-49.49,31.25-65.19,17.6ZM72.74,1395.92c-6.24,0-11.31-8.7-11.31-19.42,0-10.73,5.06-19.42,11.31-19.42s11.31,8.7,11.31,19.42c0,10.73-5.06,19.42-11.31,19.42ZM24.91,1358.28c-8.08-7.02-4.27-24.66,8.53-39.39,12.8-14.73,29.72-20.97,37.81-13.95,8.08,7.02,4.27,24.66-8.53,39.39-12.8,14.73-29.72,20.97-37.81,13.95ZM346.4,1063.85c45.1-24.23,93.38-22.04,107.84,4.87,14.46,26.92-10.38,68.38-55.48,92.6-45.1,24.23-93.38,22.05-107.84-4.87-14.46-26.92,10.38-68.38,55.48-92.6ZM281.02,1063.62c9.84-4.46,20.25-2.71,23.26,3.92,3,6.62-2.54,15.61-12.38,20.07-9.84,4.46-20.25,2.71-23.26-3.92-3-6.62,2.54-15.61,12.38-20.07ZM259.7,1097.2c16.51,16.51-.9,60.7-38.89,98.69s-82.18,55.41-98.69,38.89c-16.51-16.51.9-60.7,38.89-98.69,37.99-37.99,82.18-55.41,98.69-38.89ZM-43.14,1036.76c15.72-33.61,68.53-42.11,117.95-19,49.42,23.11,76.75,69.1,61.03,102.7-15.72,33.61-68.52,42.11-117.95,19-49.42-23.11-76.75-69.1-61.03-102.7ZM-21.5,1164.47c-7.39,6.42-22.49,1.13-33.73-11.81-11.24-12.94-14.37-28.63-6.98-35.05,7.39-6.42,22.49-1.13,33.73,11.81,11.24,12.94,14.37,28.63,6.98,35.05ZM41.45,973.3c2.76-10.31,15-15.99,27.34-12.69,12.34,3.31,20.09,14.34,17.33,24.66-2.76,10.31-15,15.99-27.34,12.69-12.34-3.31-20.09-14.34-17.33-24.66ZM172.3,1048.35c9.28,2.49,15.11,10.79,13.03,18.54-2.08,7.76-11.28,12.03-20.56,9.54-9.28-2.49-15.11-10.79-13.03-18.54,2.08-7.76,11.28-12.03,20.56-9.54ZM49.64,1194.31c6.71,4.47,10.13,11.13,7.64,14.88-2.5,3.75-9.96,3.16-16.67-1.32-6.71-4.47-10.13-11.13-7.64-14.88,2.5-3.75,9.96-3.16,16.67,1.32ZM64.77,1196.78c0-15.89,8.65-28.77,19.33-28.77,10.68,0,19.33,12.88,19.33,28.77,0,15.89-8.65,28.77-19.33,28.77s-19.33-12.88-19.33-28.77ZM322.09,919.16c7.53-3.41,15.5-2.07,17.8,3,2.3,5.07-1.94,11.95-9.47,15.36-7.53,3.41-15.5,2.07-17.8-3-2.3-5.07,1.94-11.95,9.47-15.36ZM284.29,917.87c10.68,0,19.33,12.88,19.33,28.77,0,15.89-8.65,28.77-19.33,28.77-10.68,0-19.33-12.88-19.33-28.77,0-15.89,8.65-28.77,19.33-28.77ZM230.87,963.98c20.8,0,37.66,25.09,37.66,56.04,0,30.95-16.86,56.05-37.66,56.04-20.8,0-37.66-25.09-37.66-56.04,0-30.95,16.86-56.05,37.66-56.04ZM102.07,881.31c21.55-9.92,53.61,13.76,71.61,52.88,18,39.12,15.13,78.87-6.42,88.78-21.55,9.92-53.61-13.76-71.61-52.88-18-39.12-15.13-78.87,6.42-88.78ZM18.98,968.83c10.09,4.19,16.38,12.16,14.04,17.79-2.34,5.63-12.42,6.8-22.51,2.6-10.09-4.19-16.38-12.16-14.04-17.79,2.34-5.63,12.42-6.8,22.51-2.6ZM-27.68,959.45c8.88,24.92-.2,50.92-20.29,58.08-20.08,7.16-43.56-7.25-52.44-32.17-8.88-24.92.2-50.92,20.29-58.08,20.08-7.16,43.56,7.25,52.44,32.17ZM-88.86,902.3c2.5-3.75,9.96-3.16,16.67,1.32,6.71,4.47,10.13,11.13,7.64,14.88-2.5,3.75-9.96,3.16-16.67-1.32-6.71-4.47-10.13-11.13-7.64-14.88ZM-158.74,1023.92c-20.16-5.4-32.84-23.44-28.32-40.29,4.52-16.85,24.52-26.14,44.68-20.73,20.16,5.4,32.84,23.44,28.32,40.29-4.52,16.85-24.52,26.14-44.68,20.73ZM-151.85,1075.61c0-25.26,12.32-45.74,27.52-45.74s27.52,20.48,27.52,45.74c0,25.26-12.32,45.74-27.52,45.74-15.2,0-27.52-20.48-27.52-45.74ZM-121.44,1212.06c-29.81,7.99-58.47-2.33-64.02-23.04-5.55-20.71,14.12-43.98,43.92-51.96,29.81-7.99,58.47,2.33,64.02,23.04,5.55,20.71-14.12,43.98-43.92,51.96ZM-122.55,1248.41c1.69-30.51,44.5-52.94,95.61-50.12,51.12,2.83,91.18,29.85,89.5,60.36-1.69,30.51-44.5,52.94-95.61,50.12-51.12-2.83-91.18-29.85-89.5-60.36ZM-115.14,1407.62c-42.29,11.33-81.07,3.73-86.62-16.99-5.55-20.71,24.23-46.69,66.52-58.02,42.29-11.33,81.07-3.73,86.62,16.99,5.55,20.71-24.23,46.69-66.52,58.02ZM-10.44,1319.78c2.5-3.75,9.96-3.16,16.67,1.32,6.71,4.47,10.13,11.13,7.64,14.88-2.5,3.75-9.96,3.16-16.67-1.32-6.71-4.47-10.13-11.13-7.64-14.88ZM-95,1557.31c-20.56-6.07-27.19-45.03-14.79-87.02,12.4-41.99,39.12-71.1,59.68-65.03,20.56,6.07,27.19,45.03,14.79,87.02-12.4,41.99-39.12,71.1-59.68,65.03ZM-11,1443.42c-14.37-31.22-12.07-62.95,5.13-70.87,17.2-7.92,42.79,10.98,57.16,42.21,14.37,31.22,12.07,62.95-5.13,70.87-17.2,7.92-42.79-10.98-57.16-42.21ZM-74.87,1625.15c-10.68,0-19.33-12.88-19.33-28.77s8.65-28.77,19.33-28.77c10.68,0,19.33,12.88,19.33,28.77s-8.65,28.77-19.33,28.77ZM-12.27,1621.01c-20.8,0-37.66-25.09-37.66-56.05,0-30.95,16.86-56.04,37.66-56.04s37.66,25.09,37.66,56.04c0,30.95-16.86,56.04-37.66,56.05ZM56.34,1504.77c8.53,0,15.45,10.26,15.45,22.91,0,12.65-6.92,22.91-15.45,22.91-8.53,0-15.45-10.26-15.45-22.91,0-12.65,6.92-22.91,15.45-22.91ZM104.35,1536.89c-26.22-9-35.83-50.22-21.46-92.06,14.37-41.84,47.27-68.45,73.49-59.45,26.22,9,35.83,50.22,21.46,92.06-14.37,41.84-47.27,68.45-73.49,59.45ZM171.89,1354.47c6.43-3.71,15.35-.32,19.92,7.59,4.56,7.91,3.05,17.33-3.39,21.04-6.43,3.71-15.35.32-19.92-7.59-4.56-7.91-3.05-17.33,3.39-21.04ZM286.37,1437.28c-21.55,9.92-53.61-13.76-71.61-52.88-18-39.12-15.13-78.87,6.42-88.78,21.55-9.92,53.61,13.76,71.61,52.88,18,39.12,15.13,78.87-6.42,88.78ZM468.82,1298.14c5.55,20.71-24.23,46.69-66.52,58.02-42.29,11.33-81.07,3.73-86.62-16.99-5.55-20.71,24.23-46.69,66.52-58.02,42.29-11.33,81.07-3.73,86.62,16.99Z"/>
      </g>
      <g class="uuid-1d4b31ab-a567-44a8-81ad-8b8d004a64f4">
        <path class="uuid-a5db8dc0-d95a-4f51-8eda-19269fef2b8a" d="M896.39,260.82c-40.18,0-72.75-23.11-72.75-51.63,0-28.51,32.57-51.63,72.75-51.63,6.4,0,12.61.59,18.52,1.69-2.58-9.5-5.5-18.92-8.76-28.26-1.96,5.76-5.59,9.64-9.76,9.64-6.24,0-11.31-8.7-11.31-19.42,0-9.78,4.21-17.84,9.68-19.2-9.63-22.06-21.27-43.45-34.9-63.91-1.57.91-3.18,1.78-4.9,2.56-18.4,8.34-37.87,5.06-43.49-7.33-5.1-11.25,3-26.12,18.31-35.01-6.6-7.72-13.54-15.26-20.8-22.6.68,14.02-5.52,30.85-17.98,45.18-20.3,23.36-49.49,31.25-65.19,17.6-15.7-13.64-11.97-43.64,8.33-67.01,12.91-14.86,29.41-23.44,43.75-24.22-26.75-22.13-55.61-40.4-85.84-54.84-11.36,36.88-33.03,61.82-57.9,61.82-32.46,0-59.47-42.48-65.21-98.58-12.81-1.75-25.68-2.91-38.57-3.46.14,4.52-.68,8.91-2.59,13-9.08,19.42-39.11,24.57-67.06,11.5-9.88-4.62-18.18-10.91-24.38-17.96-6.5,1.2-12.98,2.55-19.43,4.06,5.77,2.75,11.56,6.02,17.25,9.81,35.84,23.88,54.22,59.23,41.07,78.98-13.15,19.74-52.87,16.39-88.7-7.49-24.37-16.24-40.66-37.78-44.46-56.12-15.32,6.84-30.31,14.64-44.88,23.42,4.26,3.37,7.72,8.03,9.73,13.67,5.33,14.97-1.54,31.08-15.34,36-13.81,4.92-29.32-3.22-34.65-18.19-.38-1.05-.68-2.11-.93-3.18-13.46,10.5-26.44,21.93-38.82,34.31-6.66,6.66-13.02,13.5-19.13,20.49,4.56,4.13,8.95,8.6,13.13,13.41,43.79,50.39,47.96,118.47,9.31,152.04-28.61,24.86-72.66,23.82-111.38,1.16-2.57,9.63-4.79,19.33-6.66,29.09,26.49-7.16,62.84-2.96,98.44,13.69,57.99,27.12,91.98,76.94,75.92,111.28-16.06,34.34-76.08,40.19-134.07,13.07-18.26-8.54-34.14-19.33-46.82-31.19,2.49,37.28,9.94,74.29,22.39,109.95,6.98-4.24,15.58-6.75,24.9-6.75,23.27,0,42.13,15.63,42.13,34.9s-17.17,33.45-38.96,34.79c11.2,20.39,24.25,40.03,39.11,58.7-1.49-13.78,1.16-29.78,8.42-45.3,15.67-33.51,46.84-52.04,69.61-41.4,22.77,10.65,28.52,46.45,12.85,79.96-12.93,27.66-36.42,45.09-57.03,44.36,61.17,60.31,136.32,97.92,214.93,112.8-1.08-60.28,27.02-109.67,65.52-112.54,40.77-3.04,77.75,47.23,82.6,112.28.04.56.06,1.11.1,1.67,8.33-1.41,16.63-3.11,24.88-5.03-14.32-22.17-23.41-55.2-23.41-92.11,0-66.76,29.71-120.88,66.36-120.88,36.65,0,66.36,54.12,66.36,120.88,0,19.18-2.46,37.31-6.83,53.42,13.12-7.05,25.94-14.86,38.39-23.42-1.56-2.15-2.88-4.58-3.84-7.28-4.56-12.8.42-26.27,11.12-30.09,9.48-3.38,20.27,1.97,25.78,12.13,4.09-3.46,8.13-7,12.11-10.63-59.18-28.67-89.72-88.35-68.27-134.21,21.69-46.37,88.29-61.04,148.76-32.76,9.17,4.29,17.65,9.32,25.4,14.93,17.3-42.88,27.17-88.06,29.65-133.56-1.51,1.1-3.2,2.1-5.03,2.93-9.84,4.46-20.25,2.71-23.26-3.92-3-6.62,2.54-15.61,12.38-20.07,5.89-2.67,11.96-3.1,16.55-1.61,0-4.68-.1-9.36-.26-14.04-9.89,3.57-21.07,5.59-32.93,5.59ZM170.85,391.52c-15.89,0-28.77-8.65-28.77-19.33s12.88-19.33,28.77-19.33c15.89,0,28.77,8.65,28.77,19.33s-12.88,19.33-28.77,19.33ZM733.84,552.39c3.96-.79,8.4,4.67,9.91,12.2,1.51,7.53-.48,14.28-4.45,15.07-3.96.79-8.4-4.67-9.91-12.2-1.51-7.53.48-14.28,4.45-15.07ZM904.59,358.01c6.71,4.47,10.13,11.13,7.64,14.88-2.5,3.75-9.96,3.16-16.67-1.32-6.71-4.47-10.13-11.13-7.64-14.88,2.5-3.75,9.96-3.16,16.67,1.32ZM872.79,358.15c9.28,2.49,15.11,10.79,13.03,18.54-2.08,7.76-11.28,12.03-20.56,9.54-9.28-2.49-15.11-10.79-13.03-18.54,2.08-7.76,11.28-12.03,20.56-9.54ZM811.21,256.14c-1.29,23.32-45.83,39.81-99.48,36.84-53.65-2.97-96.09-24.28-94.8-47.6,1.29-23.32,45.83-39.81,99.48-36.84,53.65,2.97,96.09,24.28,94.8,47.6ZM512.32,366.97c-15.7-13.64-11.97-43.64,8.33-67.01,20.3-23.36,49.49-31.25,65.19-17.6,15.7,13.64,11.97,43.64-8.33,67.01-20.3,23.36-49.49,31.25-65.19,17.6ZM486.42,406.74c-6.24,0-11.31-8.7-11.31-19.42,0-10.73,5.06-19.42,11.31-19.42s11.31,8.7,11.31,19.42c0,10.73-5.06,19.42-11.31,19.42ZM438.59,369.11c-8.08-7.02-4.27-24.66,8.53-39.39,12.8-14.73,29.72-20.97,37.81-13.95,8.08,7.02,4.27,24.66-8.53,39.39-12.8,14.73-29.72,20.97-37.81,13.95ZM760.07,74.68c45.1-24.23,93.38-22.04,107.84,4.87,14.46,26.92-10.38,68.38-55.48,92.6-45.1,24.23-93.38,22.05-107.84-4.87-14.46-26.92,10.38-68.38,55.48-92.6ZM694.69,74.45c9.84-4.46,20.25-2.71,23.26,3.92,3,6.62-2.54,15.61-12.38,20.07-9.84,4.46-20.25,2.71-23.26-3.92-3-6.62,2.54-15.61,12.38-20.07ZM673.38,108.03c16.51,16.51-.9,60.7-38.89,98.69s-82.18,55.41-98.69,38.89c-16.51-16.51.9-60.7,38.89-98.69,37.99-37.99,82.18-55.41,98.69-38.89ZM370.53,47.59c15.72-33.61,68.53-42.11,117.95-19,49.42,23.11,76.75,69.1,61.03,102.7-15.72,33.61-68.52,42.11-117.95,19-49.42-23.11-76.75-69.1-61.03-102.7ZM392.17,175.3c-7.39,6.42-22.49,1.13-33.73-11.81-11.24-12.94-14.37-28.63-6.98-35.05,7.39-6.42,22.49-1.13,33.73,11.81,11.24,12.94,14.37,28.63,6.98,35.05ZM455.12-15.87c2.76-10.31,15-15.99,27.34-12.69,12.34,3.31,20.09,14.34,17.33,24.66-2.76,10.31-15,15.99-27.34,12.69-12.34-3.31-20.09-14.34-17.33-24.66ZM585.97,59.18c9.28,2.49,15.11,10.79,13.03,18.54-2.08,7.76-11.28,12.03-20.56,9.54-9.28-2.49-15.11-10.79-13.03-18.54,2.08-7.76,11.28-12.03,20.56-9.54ZM463.31,205.14c6.71,4.47,10.13,11.13,7.64,14.88-2.5,3.75-9.96,3.16-16.67-1.32-6.71-4.47-10.13-11.13-7.64-14.88,2.5-3.75,9.96-3.16,16.67,1.32ZM478.44,207.6c0-15.89,8.65-28.77,19.33-28.77,10.68,0,19.33,12.88,19.33,28.77,0,15.89-8.65,28.77-19.33,28.77s-19.33-12.88-19.33-28.77ZM735.76-70.01c7.53-3.41,15.5-2.07,17.8,3,2.3,5.07-1.94,11.95-9.47,15.36-7.53,3.41-15.5,2.07-17.8-3-2.3-5.07,1.94-11.95,9.47-15.36ZM697.97-71.3c10.68,0,19.33,12.88,19.33,28.77,0,15.89-8.65,28.77-19.33,28.77-10.68,0-19.33-12.88-19.33-28.77,0-15.89,8.65-28.77,19.33-28.77ZM644.54-25.19c20.8,0,37.66,25.09,37.66,56.04,0,30.95-16.86,56.05-37.66,56.04-20.8,0-37.66-25.09-37.66-56.04,0-30.95,16.86-56.05,37.66-56.04ZM515.75-107.86c21.55-9.92,53.61,13.76,71.61,52.88,18,39.12,15.13,78.87-6.42,88.78-21.55,9.92-53.61-13.76-71.61-52.88-18-39.12-15.13-78.87,6.42-88.78ZM432.65-20.34c10.09,4.19,16.38,12.16,14.04,17.79-2.34,5.63-12.42,6.8-22.51,2.6-10.09-4.19-16.38-12.16-14.04-17.79,2.34-5.63,12.42-6.8,22.51-2.6ZM386-29.72c8.88,24.92-.2,50.92-20.29,58.08-20.08,7.16-43.56-7.25-52.44-32.17-8.88-24.92.2-50.92,20.29-58.08,20.08-7.16,43.56,7.25,52.44,32.17ZM324.81-86.88c2.5-3.75,9.96-3.16,16.67,1.32,6.71,4.47,10.13,11.13,7.64,14.88-2.5,3.75-9.96,3.16-16.67-1.32-6.71-4.47-10.13-11.13-7.64-14.88ZM254.94,34.75c-20.16-5.4-32.84-23.44-28.32-40.29,4.52-16.85,24.52-26.14,44.68-20.73,20.16,5.4,32.84,23.44,28.32,40.29-4.52,16.85-24.52,26.14-44.68,20.73ZM261.83,86.44c0-25.26,12.32-45.74,27.52-45.74s27.52,20.48,27.52,45.74c0,25.26-12.32,45.74-27.52,45.74-15.2,0-27.52-20.48-27.52-45.74ZM292.23,222.89c-29.81,7.99-58.47-2.33-64.02-23.04-5.55-20.71,14.12-43.98,43.92-51.96,29.81-7.99,58.47,2.33,64.02,23.04,5.55,20.71-14.12,43.98-43.92,51.96ZM291.13,259.24c1.69-30.51,44.5-52.94,95.61-50.12,51.12,2.83,91.18,29.85,89.5,60.36-1.69,30.51-44.5,52.94-95.61,50.12-51.12-2.83-91.18-29.85-89.5-60.36ZM298.53,418.44c-42.29,11.33-81.07,3.73-86.62-16.99-5.55-20.71,24.23-46.69,66.52-58.02,42.29-11.33,81.07-3.73,86.62,16.99,5.55,20.71-24.23,46.69-66.52,58.02ZM403.24,330.61c2.5-3.75,9.96-3.16,16.67,1.32,6.71,4.47,10.13,11.13,7.64,14.88-2.5,3.75-9.96,3.16-16.67-1.32-6.71-4.47-10.13-11.13-7.64-14.88ZM318.68,568.14c-20.56-6.07-27.19-45.03-14.79-87.02,12.4-41.99,39.12-71.1,59.68-65.03,20.56,6.07,27.19,45.03,14.79,87.02-12.4,41.99-39.12,71.1-59.68,65.03ZM402.68,454.25c-14.37-31.22-12.07-62.95,5.13-70.87,17.2-7.92,42.79,10.98,57.16,42.21,14.37,31.22,12.07,62.95-5.13,70.87-17.2,7.92-42.79-10.98-57.16-42.21ZM338.81,635.97c-10.68,0-19.33-12.88-19.33-28.77s8.65-28.77,19.33-28.77c10.68,0,19.33,12.88,19.33,28.77s-8.65,28.77-19.33,28.77ZM401.41,631.84c-20.8,0-37.66-25.09-37.66-56.05,0-30.95,16.86-56.04,37.66-56.04s37.66,25.09,37.66,56.04c0,30.95-16.86,56.04-37.66,56.05ZM470.02,515.6c8.53,0,15.45,10.26,15.45,22.91,0,12.65-6.92,22.91-15.45,22.91-8.53,0-15.45-10.26-15.45-22.91,0-12.65,6.92-22.91,15.45-22.91ZM518.02,547.72c-26.22-9-35.83-50.22-21.46-92.06,14.37-41.84,47.27-68.45,73.49-59.45,26.22,9,35.83,50.22,21.46,92.06-14.37,41.84-47.27,68.45-73.49,59.45ZM585.56,365.3c6.43-3.71,15.35-.32,19.92,7.59,4.56,7.91,3.05,17.33-3.39,21.04-6.43,3.71-15.35.32-19.92-7.59-4.56-7.91-3.05-17.33,3.39-21.04ZM700.05,448.11c-21.55,9.92-53.61-13.76-71.61-52.88-18-39.12-15.13-78.87,6.42-88.78,21.55-9.92,53.61,13.76,71.61,52.88,18,39.12,15.13,78.87-6.42,88.78ZM882.49,308.97c5.55,20.71-24.23,46.69-66.52,58.02-42.29,11.33-81.07,3.73-86.62-16.99-5.55-20.71,24.23-46.69,66.52-58.02,42.29-11.33,81.07-3.73,86.62,16.99Z"/>
      </g>
    </g>
  </g>
</svg>