<?xml version="1.0" encoding="UTF-8"?>
<svg xmlns="http://www.w3.org/2000/svg" xmlns:xlink="http://www.w3.org/1999/xlink" viewBox="0 0 841.89 2744.16">
  <defs>
    <style>
      .uuid-3471f90e-221b-4326-a5d7-3697090276b9 {
        fill: #af8ec1;
      }

      .uuid-3471f90e-221b-4326-a5d7-3697090276b9, .uuid-46bce28b-3b8c-47d0-9d29-da760125144a, .uuid-dc7f2799-25f3-4854-a9d5-7ac7be53c6e0 {
        mix-blend-mode: overlay;
      }

      .uuid-c83e8f81-5d0c-4cb7-aaa5-bdf82e6ec6de {
        clip-path: url(#uuid-a5c443d9-f28f-4e20-898e-d82be88e3807);
      }

      .uuid-9077e589-8215-45f7-bb48-98bd7de98f0e {
        clip-path: url(#uuid-7effe187-1a30-491a-b88a-a31ab1b696ed);
      }

      .uuid-c6ba8083-8b6f-49f3-936e-db39d9b0ac7b {
        clip-path: url(#uuid-61d6485c-ff1b-43f3-98b7-414d33ad10e7);
      }

      .uuid-46bce28b-3b8c-47d0-9d29-da760125144a {
        fill: #986c29;
      }

      .uuid-5367868e-5de6-4c22-9737-086be136f000 {
        clip-path: url(#uuid-3e02dc59-cd24-472f-beac-50723a7aae49);
      }

      .uuid-f64500b6-96cb-42b5-be92-eb01f0356dc5 {
        fill: none;
      }

      .uuid-dc7f2799-25f3-4854-a9d5-7ac7be53c6e0 {
        fill: #e42a31;
      }

      .uuid-e2381f86-05de-4ead-9dd6-9ab1a9c9ffe6 {
        isolation: isolate;
      }

      .uuid-070df2c9-581b-4fef-9b6e-b8b7422b1eda {
        clip-path: url(#uuid-d45dfa29-43ee-4ac5-b02b-181740c446a0);
      }

      .uuid-8a85e8e4-9919-44bf-9875-a3757e6bdc08 {
        clip-path: url(#uuid-eff7d885-ee75-48e8-9a50-df47f4ef9ee6);
      }
    </style>
    <clipPath id="uuid-61d6485c-ff1b-43f3-98b7-414d33ad10e7">
      <polygon class="uuid-f64500b6-96cb-42b5-be92-eb01f0356dc5" points="224.74 54.55 -108.33 54.55 -274.87 343 -108.33 631.45 224.74 631.45 391.28 343 224.74 54.55"/>
    </clipPath>
    <clipPath id="uuid-eff7d885-ee75-48e8-9a50-df47f4ef9ee6">
      <polygon class="uuid-f64500b6-96cb-42b5-be92-eb01f0356dc5" points="410.29 1846.24 77.21 1846.24 -89.33 2134.69 77.21 2423.15 410.29 2423.15 576.82 2134.69 410.29 1846.24"/>
    </clipPath>
    <clipPath id="uuid-a5c443d9-f28f-4e20-898e-d82be88e3807">
      <polygon class="uuid-f64500b6-96cb-42b5-be92-eb01f0356dc5" points="1003.85 201.02 708.83 201.02 561.32 456.51 708.83 712.01 1003.85 712.01 1151.36 456.51 1003.85 201.02"/>
    </clipPath>
    <clipPath id="uuid-7effe187-1a30-491a-b88a-a31ab1b696ed">
      <polygon class="uuid-f64500b6-96cb-42b5-be92-eb01f0356dc5" points="844.31 2289.08 549.29 2289.08 401.78 2544.58 549.29 2800.07 844.31 2800.07 991.82 2544.58 844.31 2289.08"/>
    </clipPath>
    <clipPath id="uuid-3e02dc59-cd24-472f-beac-50723a7aae49">
      <polygon class="uuid-f64500b6-96cb-42b5-be92-eb01f0356dc5" points="321.5 900.5 15.58 900.5 -137.38 1165.44 15.58 1430.37 321.5 1430.37 474.46 1165.44 321.5 900.5"/>
    </clipPath>
    <clipPath id="uuid-d45dfa29-43ee-4ac5-b02b-181740c446a0">
      <polygon class="uuid-f64500b6-96cb-42b5-be92-eb01f0356dc5" points="735.17 -88.67 429.25 -88.67 276.29 176.26 429.25 441.2 735.17 441.2 888.13 176.26 735.17 -88.67"/>
    </clipPath>
  </defs>
  <g class="uuid-e2381f86-05de-4ead-9dd6-9ab1a9c9ffe6">
    <g id="uuid-49753f8f-90d5-48da-9dc1-982f95a5c07e" data-name="Layer 4">
      <g class="uuid-c6ba8083-8b6f-49f3-936e-db39d9b0ac7b">
        <path class="uuid-3471f90e-221b-4326-a5d7-3697090276b9" d="M-32.79,22.73c0,43.75-25.17,79.21-56.21,79.21-31.04,0-56.21-35.46-56.21-79.21,0-6.97.64-13.73,1.84-20.17-10.34,2.81-20.6,5.99-30.76,9.54,6.27,2.14,10.5,6.09,10.5,10.62,0,6.8-9.47,12.31-21.15,12.31-10.64,0-19.42-4.58-20.9-10.54-24.02,10.49-47.31,23.16-69.59,38,.99,1.71,1.94,3.47,2.79,5.33,9.08,20.03,5.51,41.23-7.98,47.35-12.25,5.55-28.44-3.27-38.11-19.93-8.41,7.19-16.61,14.74-24.6,22.65,15.26-.74,33.59,6.02,49.19,19.58,25.44,22.1,34.02,53.88,19.17,70.98-14.85,17.1-47.52,13.04-72.96-9.07-16.18-14.06-25.52-32.02-26.37-47.64-24.09,29.12-43.99,60.54-59.71,93.46,40.16,12.37,67.31,35.96,67.31,63.04,0,35.35-46.25,64.75-107.33,71-1.9,13.95-3.16,27.96-3.77,42,4.92-.15,9.71.74,14.16,2.82,21.15,9.89,26.75,42.58,12.52,73.01-5.03,10.76-11.88,19.79-19.55,26.54,1.3,7.08,2.78,14.13,4.42,21.15,2.99-6.28,6.55-12.58,10.68-18.78,26-39.02,64.49-59.04,85.99-44.72,21.49,14.32,17.84,57.56-8.15,96.57-17.68,26.53-41.14,44.27-61.1,48.4,7.44,16.68,15.94,33,25.49,48.86,3.67-4.64,8.75-8.4,14.89-10.59,16.29-5.81,33.84,1.67,39.2,16.7,5.36,15.03-3.51,31.92-19.8,37.73-1.15.41-2.3.74-3.46,1.01,11.43,14.66,23.88,28.79,37.36,42.27,7.25,7.25,14.7,14.17,22.31,20.83,4.5-4.96,9.37-9.74,14.6-14.29,54.87-47.67,128.98-52.21,165.54-10.14,27.07,31.15,25.93,79.11,1.26,121.27,10.48,2.8,21.05,5.22,31.67,7.25-7.8-28.84-3.22-68.42,14.9-107.17,29.53-63.13,83.77-100.14,121.15-82.66,37.38,17.48,43.75,82.84,14.23,145.97-9.3,19.88-21.05,37.17-33.95,50.98,40.59-2.71,80.89-10.82,119.71-24.38-4.62-7.6-7.35-16.96-7.35-27.11,0-25.34,17.01-45.88,38-45.88s36.42,18.7,37.88,42.42c22.2-12.2,43.59-26.4,63.91-42.59-15,1.63-32.42-1.26-49.32-9.17-36.49-17.06-56.66-50.99-45.07-75.78,11.59-24.79,50.57-31.05,87.06-13.99,30.11,14.08,49.1,39.65,48.3,62.09,65.67-66.6,106.61-148.42,122.82-234.01-65.63,1.17-119.41-29.42-122.53-71.34-3.31-44.39,51.43-84.65,122.25-89.93.61-.05,1.21-.07,1.82-.11-1.54-9.07-3.38-18.1-5.48-27.09-24.14,15.59-60.1,25.49-100.29,25.49-72.69,0-131.61-32.35-131.61-72.25,0-39.9,58.92-72.25,131.61-72.25,20.89,0,40.62,2.68,58.16,7.44-7.68-14.28-16.17-28.24-25.49-41.8-2.34,1.7-4.99,3.14-7.92,4.18-13.94,4.97-28.6-.45-32.76-12.11-3.68-10.32,2.14-22.06,13.21-28.06-3.76-4.45-7.62-8.85-11.58-13.19-31.21,64.43-96.19,97.68-146.13,74.33-50.49-23.61-66.46-96.13-35.66-161.97,4.67-9.98,10.15-19.22,16.25-27.65C99.82.74,50.64-10.01,1.1-12.7c1.2,1.64,2.28,3.48,3.19,5.48C9.14,3.49,7.23,14.83.02,18.1c-7.21,3.27-17-2.77-21.85-13.48-2.91-6.41-3.37-13.03-1.75-18.02-5.1,0-10.19.11-15.29.28,3.89,10.77,6.09,22.94,6.09,35.85ZM109.52,812.67c0,17.3-9.42,31.32-21.05,31.32s-21.05-14.02-21.05-31.32c0-17.3,9.42-31.32,21.05-31.32s21.05,14.02,21.05,31.32ZM284.67,199.7c-.86-4.32,5.08-9.15,13.28-10.79,8.2-1.64,15.54.53,16.41,4.84.86,4.32-5.08,9.15-13.28,10.79-8.2,1.64-15.54-.53-16.41-4.84ZM73.04,13.8c4.87-7.31,12.12-11.03,16.2-8.31,4.08,2.72,3.44,10.84-1.43,18.15-4.87,7.31-12.12,11.03-16.2,8.31-4.08-2.72-3.44-10.84,1.43-18.15ZM73.18,48.42c2.71-10.1,11.75-16.45,20.19-14.19,8.44,2.26,13.09,12.28,10.39,22.38-2.71,10.1-11.75,16.45-20.19,14.19-8.44-2.26-13.09-12.28-10.39-22.38ZM-37.88,115.47c25.39,1.41,43.35,49.9,40.12,108.31-3.23,58.41-26.43,104.62-51.82,103.22-25.39-1.41-43.35-49.9-40.12-108.31,3.23-58.41,26.43-104.62,51.82-103.22ZM82.79,440.9c-14.85,17.1-47.52,13.04-72.96-9.07-25.44-22.1-34.02-53.88-19.17-70.98,14.85-17.1,47.52-13.04,72.96,9.07,25.44,22.1,34.02,53.88,19.17,70.98ZM126.1,469.09c0,6.8-9.47,12.31-21.15,12.31-11.68,0-21.15-5.51-21.15-12.31s9.47-12.31,21.15-12.31c11.68,0,21.15,5.51,21.15,12.31ZM85.12,521.17c-7.65,8.8-26.85,4.64-42.88-9.29-16.03-13.93-22.83-32.36-15.18-41.16,7.65-8.8,26.85-4.64,42.88,9.29,16.03,13.93,22.83,32.36,15.18,41.16ZM-235.44,171.14c-26.38-49.1-24-101.67,5.3-117.41,29.31-15.74,74.45,11.3,100.82,60.4,26.38,49.1,24,101.67-5.3,117.41-29.31,15.74-74.45-11.3-100.82-60.4ZM-235.7,242.33c-4.86-10.71-2.95-22.05,4.27-25.32,7.21-3.27,17,2.77,21.85,13.48,4.86,10.71,2.95,22.05-4.27,25.32-7.21,3.27-17-2.77-21.85-13.48ZM-199.13,265.54c17.98-17.98,66.09.98,107.45,42.34,41.37,41.37,60.32,89.48,42.34,107.45-17.98,17.98-66.09-.98-107.45-42.34-41.37-41.37-60.32-89.48-42.34-107.45ZM-264.94,595.27c-36.59-17.11-45.85-74.61-20.69-128.42,25.17-53.81,75.23-83.56,111.82-66.45,36.59,17.11,45.85,74.61,20.69,128.42-25.17,53.81-75.23,83.56-111.82,66.45ZM-125.9,571.71c6.99,8.04,1.23,24.48-12.86,36.72-14.09,12.24-31.17,15.64-38.16,7.6-6.99-8.04-1.23-24.48,12.86-36.72,14.09-12.24,31.17-15.64,38.16-7.6ZM-334.04,503.17c-11.23-3.01-17.41-16.33-13.81-29.76,3.6-13.43,15.62-21.88,26.85-18.87,11.23,3.01,17.41,16.33,13.81,29.76s-15.62,21.88-26.85,18.87ZM-252.32,360.7c2.71-10.1,11.75-16.45,20.19-14.19,8.44,2.26,13.09,12.28,10.39,22.38-2.71,10.1-11.75,16.45-20.19,14.19-8.44-2.26-13.09-12.28-10.39-22.38ZM-93.41,494.25c4.87-7.31,12.12-11.03,16.2-8.31,4.08,2.72,3.44,10.84-1.43,18.15-4.87,7.31-12.12,11.03-16.2,8.31-4.08-2.72-3.44-10.84,1.43-18.15ZM-90.72,477.78c-17.3,0-31.32-9.42-31.32-21.05,0-11.62,14.02-21.05,31.32-21.05,17.3,0,31.32,9.42,31.32,21.05s-14.02,21.05-31.32,21.05ZM-392.98,197.62c-3.72-8.2-2.26-16.87,3.26-19.38,5.52-2.5,13.01,2.12,16.72,10.31,3.72,8.2,2.26,16.87-3.26,19.38-5.52,2.5-13.01-2.12-16.72-10.31ZM-394.38,238.76c0-11.62,14.02-21.05,31.32-21.05,17.3,0,31.32,9.42,31.32,21.05,0,11.62-14.02,21.05-31.32,21.05-17.3,0-31.32-9.42-31.32-21.05ZM-344.18,296.93c0-22.65,27.32-41.01,61.02-41.01,33.7,0,61.02,18.36,61.02,41.01,0,22.65-27.32,41.01-61.02,41.01-33.7,0-61.02-18.36-61.02-41.01ZM-434.19,437.16c-10.8-23.46,14.98-58.37,57.57-77.97,42.59-19.6,85.87-16.47,96.67,6.99,10.8,23.46-14.98,58.37-57.57,77.97-42.59,19.6-85.87,16.47-96.67-6.99ZM-338.9,527.63c4.57-10.99,13.24-17.83,19.37-15.28,6.13,2.55,7.4,13.52,2.83,24.51-4.57,10.99-13.24,17.83-19.37,15.28-6.13-2.55-7.4-13.52-2.83-24.51ZM-349.11,578.43c27.13-9.67,55.45.22,63.24,22.09,7.79,21.87-7.89,47.43-35.02,57.1-27.13,9.67-55.45-.22-63.24-22.09-7.79-21.87,7.89-47.43,35.02-57.1ZM-411.34,645.04c-4.08-2.72-3.44-10.84,1.43-18.15,4.87-7.31,12.12-11.03,16.2-8.31,4.08,2.72,3.44,10.84-1.43,18.15-4.87,7.31-12.12,11.03-16.2,8.31ZM-278.93,721.12c-5.88,21.95-25.52,35.75-43.87,30.84-18.35-4.92-28.46-26.69-22.58-48.64,5.88-21.95,25.52-35.75,43.87-30.84,18.35,4.92,28.46,26.69,22.58,48.64ZM-222.64,713.62c-27.5,0-49.8-13.42-49.8-29.96s22.3-29.96,49.8-29.96c27.5,0,49.8,13.42,49.8,29.96,0,16.55-22.3,29.96-49.8,29.96ZM-74.08,680.52c8.7,32.45-2.54,63.66-25.09,69.7-22.55,6.04-47.88-15.37-56.58-47.82-8.7-32.45,2.54-63.66,25.09-69.7,22.55-6.04,47.88,15.37,56.58,47.82ZM-34.5,681.72c-33.22-1.84-57.64-48.44-54.56-104.1,3.08-55.65,32.5-99.28,65.72-97.44,33.22,1.84,57.64,48.44,54.56,104.1-3.08,55.65-32.5,99.28-65.72,97.44ZM138.84,673.66c12.34,46.04,4.06,88.26-18.49,94.31-22.55,6.04-50.83-26.38-63.17-72.43-12.34-46.04-4.06-88.26,18.49-94.31,22.55-6.04,50.83,26.38,63.17,72.43ZM43.2,559.66c-4.08-2.72-3.44-10.84,1.43-18.15,4.87-7.31,12.12-11.03,16.2-8.31,4.08,2.72,3.44,10.84-1.43,18.15-4.87,7.31-12.12,11.03-16.2,8.31ZM301.82,651.72c-6.61,22.39-49.03,29.6-94.74,16.1-45.71-13.5-77.41-42.59-70.8-64.98,6.61-22.39,49.03-29.6,94.74-16.1,45.71,13.5,77.41,42.59,70.8,64.98ZM177.82,560.27c-34,15.64-68.54,13.14-77.16-5.58-8.62-18.73,11.96-46.59,45.95-62.23,34-15.64,68.54-13.14,77.16,5.58,8.62,18.73-11.96,46.59-45.95,62.23ZM375.68,629.81c0,11.62-14.02,21.05-31.32,21.05s-31.32-9.42-31.32-21.05c0-11.62,14.02-21.05,31.32-21.05s31.32,9.42,31.32,21.05ZM371.17,561.65c0,22.65-27.32,41.01-61.02,41.01-33.7,0-61.02-18.36-61.02-41.01s27.32-41.01,61.02-41.01c33.7,0,61.02,18.36,61.02,41.01ZM244.62,486.95c0-9.29,11.17-16.82,24.95-16.82,13.78,0,24.95,7.53,24.95,16.82,0,9.29-11.17,16.82-24.95,16.82-13.78,0-24.95-7.53-24.95-16.82ZM279.58,434.69c-9.8,28.55-54.68,39.01-100.23,23.37-45.55-15.64-74.53-51.47-64.73-80.02,9.8-28.55,54.68-39.01,100.23-23.37,45.55,15.64,74.53,51.47,64.73,80.02ZM80.97,361.15c-4.04-7.01-.35-16.71,8.26-21.68,8.61-4.97,18.86-3.32,22.91,3.69s.35,16.71-8.26,21.68c-8.61,4.97-18.86,3.32-22.91-3.69ZM171.14,236.5c10.8,23.46-14.98,58.37-57.57,77.97-42.59,19.6-85.87,16.47-96.67-6.99-10.8-23.46,14.98-58.37,57.57-77.97,42.59-19.6,85.87-16.47,96.67,6.99ZM19.64,37.86c22.55-6.04,50.83,26.38,63.17,72.43,12.34,46.04,4.06,88.26-18.49,94.31-22.55,6.04-50.83-26.38-63.17-72.43C-11.19,86.12-2.91,43.9,19.64,37.86Z"/>
      </g>
      <g class="uuid-8a85e8e4-9919-44bf-9875-a3757e6bdc08">
        <path class="uuid-3471f90e-221b-4326-a5d7-3697090276b9" d="M152.76,1814.42c0,43.75-25.17,79.21-56.21,79.21-31.04,0-56.21-35.46-56.21-79.21,0-6.97.64-13.73,1.84-20.17-10.34,2.81-20.6,5.99-30.76,9.54,6.27,2.14,10.5,6.09,10.5,10.62,0,6.8-9.47,12.31-21.15,12.31-10.64,0-19.42-4.58-20.9-10.54-24.02,10.49-47.31,23.16-69.59,38,.99,1.71,1.94,3.47,2.79,5.33,9.08,20.03,5.51,41.23-7.98,47.35-12.25,5.55-28.44-3.27-38.11-19.93-8.41,7.19-16.61,14.74-24.6,22.65,15.26-.74,33.59,6.02,49.19,19.58,25.44,22.1,34.02,53.88,19.17,70.98-14.85,17.1-47.52,13.04-72.96-9.07-16.18-14.06-25.52-32.02-26.37-47.64-24.09,29.12-43.99,60.54-59.71,93.46,40.16,12.37,67.31,35.96,67.31,63.04,0,35.35-46.25,64.75-107.33,71-1.9,13.95-3.16,27.96-3.77,42,4.92-.15,9.71.74,14.16,2.82,21.15,9.89,26.75,42.58,12.52,73.01-5.03,10.76-11.88,19.79-19.55,26.54,1.3,7.08,2.78,14.13,4.42,21.15,2.99-6.28,6.55-12.58,10.68-18.78,26-39.02,64.49-59.04,85.99-44.72,21.49,14.32,17.84,57.56-8.15,96.57-17.68,26.53-41.14,44.27-61.1,48.4,7.44,16.68,15.94,33,25.49,48.86,3.67-4.64,8.75-8.4,14.89-10.59,16.29-5.81,33.84,1.67,39.2,16.7,5.36,15.03-3.51,31.92-19.8,37.73-1.15.41-2.3.74-3.46,1.01,11.43,14.66,23.88,28.79,37.36,42.27,7.25,7.25,14.7,14.17,22.31,20.83,4.5-4.96,9.37-9.74,14.6-14.29,54.87-47.67,128.98-52.21,165.54-10.14,27.07,31.15,25.93,79.11,1.26,121.27,10.48,2.8,21.05,5.22,31.67,7.25-7.8-28.84-3.22-68.42,14.9-107.17,29.53-63.13,83.77-100.14,121.15-82.66,37.38,17.48,43.75,82.84,14.23,145.97-9.3,19.88-21.05,37.17-33.95,50.98,40.59-2.71,80.89-10.82,119.71-24.38-4.62-7.6-7.35-16.96-7.35-27.11,0-25.34,17.01-45.88,38-45.88s36.42,18.7,37.88,42.42c22.2-12.2,43.59-26.4,63.91-42.59-15,1.63-32.42-1.26-49.32-9.17-36.49-17.06-56.66-50.99-45.07-75.78,11.59-24.79,50.57-31.05,87.06-13.99,30.11,14.08,49.1,39.65,48.3,62.09,65.67-66.6,106.61-148.42,122.82-234.01-65.63,1.17-119.41-29.42-122.53-71.34-3.31-44.39,51.43-84.65,122.25-89.93.61-.05,1.21-.07,1.82-.11-1.54-9.07-3.38-18.1-5.48-27.09-24.14,15.59-60.1,25.49-100.29,25.49-72.69,0-131.61-32.35-131.61-72.25,0-39.9,58.92-72.25,131.61-72.25,20.89,0,40.62,2.68,58.16,7.44-7.68-14.28-16.17-28.24-25.49-41.8-2.34,1.7-4.99,3.14-7.92,4.18-13.94,4.97-28.6-.45-32.76-12.11-3.68-10.32,2.14-22.06,13.21-28.06-3.76-4.45-7.62-8.85-11.58-13.19-31.21,64.43-96.19,97.68-146.13,74.33-50.49-23.61-66.46-96.13-35.66-161.97,4.67-9.98,10.15-19.22,16.25-27.65-46.69-18.84-95.88-29.59-145.42-32.28,1.2,1.64,2.28,3.48,3.19,5.48,4.86,10.71,2.95,22.05-4.27,25.32-7.21,3.27-17-2.77-21.85-13.48-2.91-6.41-3.37-13.03-1.75-18.02-5.1,0-10.19.11-15.29.28,3.89,10.77,6.09,22.94,6.09,35.85ZM295.06,2604.37c0,17.3-9.42,31.32-21.05,31.32s-21.05-14.02-21.05-31.32c0-17.3,9.42-31.32,21.05-31.32s21.05,14.02,21.05,31.32ZM470.21,1991.4c-.86-4.32,5.08-9.15,13.28-10.79,8.2-1.64,15.54.53,16.41,4.84.86,4.32-5.08,9.15-13.28,10.79-8.2,1.64-15.54-.53-16.41-4.84ZM258.58,1805.49c4.87-7.31,12.12-11.03,16.2-8.31,4.08,2.72,3.44,10.84-1.43,18.15-4.87,7.31-12.12,11.03-16.2,8.31-4.08-2.72-3.44-10.84,1.43-18.15ZM258.72,1840.12c2.71-10.1,11.75-16.45,20.19-14.19,8.44,2.26,13.09,12.28,10.39,22.38-2.71,10.1-11.75,16.45-20.19,14.19-8.44-2.26-13.09-12.28-10.39-22.38ZM147.66,1907.16c25.39,1.41,43.35,49.9,40.12,108.31-3.23,58.41-26.43,104.62-51.82,103.22-25.39-1.41-43.35-49.9-40.12-108.31,3.23-58.41,26.43-104.62,51.82-103.22ZM268.33,2232.59c-14.85,17.1-47.52,13.04-72.96-9.07-25.44-22.1-34.02-53.88-19.17-70.98,14.85-17.1,47.52-13.04,72.96,9.07,25.44,22.1,34.02,53.88,19.17,70.98ZM311.64,2260.79c0,6.8-9.47,12.31-21.15,12.31-11.68,0-21.15-5.51-21.15-12.31s9.47-12.31,21.15-12.31c11.68,0,21.15,5.51,21.15,12.31ZM270.66,2312.87c-7.65,8.8-26.85,4.64-42.88-9.29-16.03-13.93-22.83-32.36-15.18-41.16,7.65-8.8,26.85-4.64,42.88,9.29,16.03,13.93,22.83,32.36,15.18,41.16ZM-49.9,1962.84c-26.38-49.1-24-101.67,5.3-117.41,29.31-15.74,74.45,11.3,100.82,60.4,26.38,49.1,24,101.67-5.3,117.41-29.31,15.74-74.45-11.3-100.82-60.4ZM-50.16,2034.03c-4.86-10.71-2.95-22.05,4.27-25.32,7.21-3.27,17,2.77,21.85,13.48,4.86,10.71,2.95,22.05-4.27,25.32-7.21,3.27-17-2.77-21.85-13.48ZM-13.59,2057.23c17.98-17.98,66.09.98,107.45,42.34,41.37,41.37,60.32,89.48,42.34,107.45-17.98,17.98-66.09-.98-107.45-42.34-41.37-41.37-60.32-89.48-42.34-107.45ZM-79.4,2386.96c-36.59-17.11-45.85-74.61-20.69-128.42,25.17-53.81,75.23-83.56,111.82-66.45,36.59,17.11,45.85,74.61,20.69,128.42-25.17,53.81-75.23,83.56-111.82,66.45ZM59.64,2363.4c6.99,8.04,1.23,24.48-12.86,36.72-14.09,12.24-31.17,15.64-38.16,7.6-6.99-8.04-1.23-24.48,12.86-36.72,14.09-12.24,31.17-15.64,38.16-7.6ZM-148.5,2294.86c-11.23-3.01-17.41-16.33-13.81-29.76,3.6-13.43,15.62-21.88,26.85-18.87,11.23,3.01,17.41,16.33,13.81,29.76s-15.62,21.88-26.85,18.87ZM-66.78,2152.39c2.71-10.1,11.75-16.45,20.19-14.19,8.44,2.26,13.09,12.28,10.39,22.38-2.71,10.1-11.75,16.45-20.19,14.19-8.44-2.26-13.09-12.28-10.39-22.38ZM92.14,2285.94c4.87-7.31,12.12-11.03,16.2-8.31,4.08,2.72,3.44,10.84-1.43,18.15-4.87,7.31-12.12,11.03-16.2,8.31-4.08-2.72-3.44-10.84,1.43-18.15ZM94.82,2269.47c-17.3,0-31.32-9.42-31.32-21.05,0-11.62,14.02-21.05,31.32-21.05,17.3,0,31.32,9.42,31.32,21.05s-14.02,21.05-31.32,21.05ZM-207.44,1989.31c-3.72-8.2-2.26-16.87,3.26-19.38,5.52-2.5,13.01,2.12,16.72,10.31,3.72,8.2,2.26,16.87-3.26,19.38-5.52,2.5-13.01-2.12-16.72-10.31ZM-208.84,2030.46c0-11.62,14.02-21.05,31.32-21.05,17.3,0,31.32,9.42,31.32,21.05,0,11.62-14.02,21.05-31.32,21.05-17.3,0-31.32-9.42-31.32-21.05ZM-158.64,2088.63c0-22.65,27.32-41.01,61.02-41.01,33.7,0,61.02,18.36,61.02,41.01,0,22.65-27.32,41.01-61.02,41.01-33.7,0-61.02-18.36-61.02-41.01ZM-248.65,2228.85c-10.8-23.46,14.98-58.37,57.57-77.97,42.59-19.6,85.87-16.47,96.67,6.99,10.8,23.46-14.98,58.37-57.57,77.97-42.59,19.6-85.87,16.47-96.67-6.99ZM-153.36,2319.32c4.57-10.99,13.24-17.83,19.37-15.28,6.13,2.55,7.4,13.52,2.83,24.51-4.57,10.99-13.24,17.83-19.37,15.28-6.13-2.55-7.4-13.52-2.83-24.51ZM-163.57,2370.12c27.13-9.67,55.45.22,63.24,22.09,7.79,21.87-7.89,47.43-35.02,57.1-27.13,9.67-55.45-.22-63.24-22.09-7.79-21.87,7.89-47.43,35.02-57.1ZM-225.8,2436.74c-4.08-2.72-3.44-10.84,1.43-18.15,4.87-7.31,12.12-11.03,16.2-8.31,4.08,2.72,3.44,10.84-1.43,18.15-4.87,7.31-12.12,11.03-16.2,8.31ZM-93.38,2512.82c-5.88,21.95-25.52,35.75-43.87,30.84-18.35-4.92-28.46-26.69-22.58-48.64,5.88-21.95,25.52-35.75,43.87-30.84,18.35,4.92,28.46,26.69,22.58,48.64ZM-37.1,2505.32c-27.5,0-49.8-13.42-49.8-29.96s22.3-29.96,49.8-29.96c27.5,0,49.8,13.42,49.8,29.96,0,16.55-22.3,29.96-49.8,29.96ZM111.46,2472.21c8.7,32.45-2.54,63.66-25.09,69.7-22.55,6.04-47.88-15.37-56.58-47.82-8.7-32.45,2.54-63.66,25.09-69.7,22.55-6.04,47.88,15.37,56.58,47.82ZM151.04,2473.42c-33.22-1.84-57.64-48.44-54.56-104.1,3.08-55.65,32.5-99.28,65.72-97.44,33.22,1.84,57.64,48.44,54.56,104.1-3.08,55.65-32.5,99.28-65.72,97.44ZM324.38,2465.35c12.34,46.04,4.06,88.26-18.49,94.31-22.55,6.04-50.83-26.38-63.17-72.43-12.34-46.04-4.06-88.26,18.49-94.31,22.55-6.04,50.83,26.38,63.17,72.43ZM228.74,2351.35c-4.08-2.72-3.44-10.84,1.43-18.15,4.87-7.31,12.12-11.03,16.2-8.31,4.08,2.72,3.44,10.84-1.43,18.15-4.87,7.31-12.12,11.03-16.2,8.31ZM487.36,2443.42c-6.61,22.39-49.03,29.6-94.74,16.1-45.71-13.5-77.41-42.59-70.8-64.98,6.61-22.39,49.03-29.6,94.74-16.1,45.71,13.5,77.41,42.59,70.8,64.98ZM363.36,2351.96c-34,15.64-68.54,13.14-77.16-5.58-8.62-18.73,11.96-46.59,45.95-62.23,34-15.64,68.54-13.14,77.16,5.58,8.62,18.73-11.96,46.59-45.95,62.23ZM561.22,2421.5c0,11.62-14.02,21.05-31.32,21.05s-31.32-9.42-31.32-21.05c0-11.62,14.02-21.05,31.32-21.05s31.32,9.42,31.32,21.05ZM556.72,2353.34c0,22.65-27.32,41.01-61.02,41.01-33.7,0-61.02-18.36-61.02-41.01s27.32-41.01,61.02-41.01c33.7,0,61.02,18.36,61.02,41.01ZM430.16,2278.64c0-9.29,11.17-16.82,24.95-16.82,13.78,0,24.95,7.53,24.95,16.82,0,9.29-11.17,16.82-24.95,16.82-13.78,0-24.95-7.53-24.95-16.82ZM465.12,2226.38c-9.8,28.55-54.68,39.01-100.23,23.37-45.55-15.64-74.53-51.47-64.73-80.02,9.8-28.55,54.68-39.01,100.23-23.37,45.55,15.64,74.53,51.47,64.73,80.02ZM266.52,2152.84c-4.04-7.01-.35-16.71,8.26-21.68,8.61-4.97,18.86-3.32,22.91,3.69s.35,16.71-8.26,21.68c-8.61,4.97-18.86,3.32-22.91-3.69ZM356.68,2028.19c10.8,23.46-14.98,58.37-57.57,77.97-42.59,19.6-85.87,16.47-96.67-6.99-10.8-23.46,14.98-58.37,57.57-77.97,42.59-19.6,85.87-16.47,96.67,6.99ZM205.18,1829.55c22.55-6.04,50.83,26.38,63.17,72.43,12.34,46.04,4.06,88.26-18.49,94.31-22.55,6.04-50.83-26.38-63.17-72.43-12.34-46.04-4.06-88.26,18.49-94.31Z"/>
      </g>
      <g class="uuid-c83e8f81-5d0c-4cb7-aaa5-bdf82e6ec6de">
        <path class="uuid-dc7f2799-25f3-4854-a9d5-7ac7be53c6e0" d="M775.74,172.83c0,38.75-22.29,70.16-49.79,70.16-27.5,0-49.79-31.41-49.79-70.16,0-6.17.57-12.16,1.63-17.86-9.16,2.49-18.25,5.3-27.25,8.45,5.56,1.89,9.3,5.39,9.3,9.41,0,6.02-8.39,10.9-18.73,10.9-9.43,0-17.21-4.06-18.52-9.34-21.27,9.29-41.9,20.51-61.63,33.66.88,1.51,1.72,3.07,2.47,4.72,8.04,17.75,4.88,36.52-7.07,41.94-10.85,4.92-25.19-2.9-33.76-17.66-7.45,6.37-14.71,13.06-21.79,20.06,13.52-.66,29.75,5.33,43.57,17.34,22.53,19.58,30.13,47.72,16.98,62.87-13.16,15.14-42.09,11.55-64.62-8.03-14.33-12.45-22.61-28.36-23.36-42.2-21.34,25.79-38.97,53.62-52.88,82.79,35.57,10.96,59.62,31.85,59.62,55.83,0,31.31-40.96,57.35-95.06,62.89-1.68,12.35-2.8,24.76-3.34,37.2,4.35-.14,8.6.66,12.54,2.5,18.73,8.76,23.7,37.71,11.09,64.67-4.46,9.53-10.52,17.53-17.32,23.51,1.15,6.27,2.46,12.52,3.91,18.74,2.65-5.56,5.8-11.14,9.46-16.63,23.03-34.56,57.12-52.29,76.16-39.61,19.04,12.68,15.8,50.98-7.22,85.54-15.66,23.5-36.44,39.21-54.12,42.87,6.59,14.77,14.12,29.23,22.58,43.28,3.25-4.11,7.75-7.44,13.19-9.38,14.43-5.14,29.98,1.48,34.72,14.8,4.74,13.31-3.11,28.28-17.54,33.42-1.02.36-2.04.65-3.06.9,10.13,12.98,21.15,25.5,33.09,37.44,6.42,6.42,13.02,12.55,19.76,18.45,3.98-4.39,8.3-8.63,12.94-12.66,48.6-42.23,114.25-46.25,146.63-8.98,23.97,27.59,22.97,70.07,1.12,107.41,9.29,2.48,18.64,4.62,28.05,6.42-6.91-25.55-2.86-60.6,13.2-94.93,26.15-55.92,74.2-88.7,107.31-73.21,33.11,15.49,38.75,73.37,12.6,129.29-8.24,17.61-18.65,32.92-30.07,45.16,35.95-2.4,71.65-9.59,106.03-21.6-4.09-6.73-6.51-15.03-6.51-24.01,0-22.44,15.07-40.63,33.66-40.63s32.26,16.56,33.55,37.57c19.66-10.8,38.61-23.38,56.61-37.72-13.28,1.44-28.72-1.12-43.69-8.12-32.32-15.11-50.19-45.17-39.92-67.13,10.27-21.96,44.79-27.51,77.11-12.39,26.67,12.47,43.49,35.12,42.78,55,58.16-58.99,94.43-131.46,108.78-207.28-58.13,1.04-105.76-26.06-108.53-63.19-2.93-39.32,45.55-74.98,108.28-79.65.54-.04,1.07-.06,1.61-.09-1.36-8.04-3-16.03-4.85-23.99-21.38,13.81-53.23,22.58-88.83,22.58-64.38,0-116.57-28.65-116.57-64,0-35.34,52.19-64,116.57-64,18.5,0,35.98,2.38,51.52,6.59-6.8-12.65-14.33-25.01-22.58-37.02-2.08,1.51-4.42,2.78-7.02,3.71-12.35,4.4-25.34-.4-29.01-10.72-3.26-9.14,1.9-19.54,11.7-24.86-3.33-3.94-6.75-7.84-10.26-11.68-27.64,57.07-85.2,86.52-129.43,65.84-44.72-20.92-58.86-85.15-31.59-143.46,4.13-8.84,8.99-17.02,14.4-24.49-41.36-16.69-84.92-26.21-128.81-28.59,1.06,1.46,2.02,3.08,2.82,4.86,4.3,9.49,2.61,19.53-3.78,22.43-6.39,2.9-15.06-2.45-19.36-11.94-2.57-5.68-2.99-11.54-1.55-15.96-4.52,0-9.03.1-13.54.25,3.44,9.54,5.4,20.32,5.4,31.75ZM901.79,872.52c0,15.32-8.35,27.74-18.64,27.74s-18.64-12.42-18.64-27.74c0-15.32,8.35-27.74,18.64-27.74s18.64,12.42,18.64,27.74ZM1056.93,329.59c-.77-3.82,4.5-8.1,11.76-9.55,7.26-1.45,13.77.47,14.53,4.29.77,3.82-4.5,8.1-11.76,9.55-7.26,1.45-13.77-.47-14.53-4.29ZM869.48,164.92c4.31-6.47,10.74-9.77,14.35-7.36,3.61,2.41,3.04,9.61-1.27,16.08-4.31,6.47-10.74,9.77-14.35,7.36-3.61-2.41-3.04-9.61,1.27-16.08ZM869.6,195.59c2.4-8.95,10.4-14.57,17.88-12.57,7.48,2,11.6,10.88,9.2,19.83-2.4,8.95-10.4,14.57-17.88,12.57-7.48-2-11.6-10.88-9.2-19.83ZM771.23,254.98c22.49,1.24,38.4,44.19,35.53,95.93-2.86,51.74-23.41,92.67-45.9,91.42-22.49-1.24-38.4-44.19-35.53-95.93,2.86-51.74,23.41-92.67,45.9-91.42ZM878.12,543.23c-13.16,15.14-42.09,11.55-64.62-8.03-22.53-19.58-30.13-47.72-16.98-62.87,13.16-15.14,42.09-11.55,64.62,8.03,22.53,19.58,30.13,47.72,16.98,62.87ZM916.47,568.2c0,6.02-8.39,10.9-18.73,10.9-10.34,0-18.73-4.88-18.73-10.9s8.39-10.9,18.73-10.9c10.34,0,18.73,4.88,18.73,10.9ZM880.18,614.33c-6.77,7.8-23.78,4.11-37.98-8.23-14.2-12.34-20.22-28.66-13.45-36.46,6.77-7.8,23.78-4.11,37.98,8.23,14.2,12.34,20.22,28.66,13.45,36.46ZM596.24,304.29c-23.36-43.49-21.26-90.05,4.7-104,25.96-13.94,65.94,10.01,89.3,53.5,23.36,43.49,21.26,90.05-4.7,104-25.96,13.94-65.94-10.01-89.3-53.5ZM596.01,367.35c-4.3-9.49-2.61-19.53,3.78-22.43,6.39-2.9,15.06,2.45,19.36,11.94,4.3,9.49,2.61,19.53-3.78,22.43-6.39,2.9-15.06-2.45-19.36-11.94ZM628.4,387.9c15.93-15.93,58.54.87,95.18,37.51,36.64,36.64,53.43,79.25,37.51,95.18-15.93,15.93-58.54-.87-95.18-37.51-36.64-36.64-53.43-79.25-37.51-95.18ZM570.11,679.96c-32.41-15.16-40.61-66.08-18.32-113.75,22.29-47.66,66.64-74.01,99.05-58.85,32.41,15.16,40.61,66.08,18.32,113.75-22.29,47.66-66.64,74.01-99.05,58.85ZM693.27,659.09c6.19,7.12,1.09,21.69-11.39,32.53-12.48,10.84-27.61,13.86-33.8,6.74-6.19-7.12-1.09-21.69,11.39-32.53,12.48-10.84,27.61-13.86,33.8-6.74ZM508.91,598.38c-9.95-2.66-15.42-14.47-12.24-26.36,3.19-11.9,13.83-19.38,23.78-16.71,9.95,2.66,15.42,14.47,12.24,26.36-3.19,11.9-13.83,19.38-23.78,16.71ZM581.29,472.19c2.4-8.95,10.4-14.57,17.88-12.57,7.48,2,11.6,10.88,9.2,19.83-2.4,8.95-10.4,14.57-17.88,12.57-7.48-2-11.6-10.88-9.2-19.83ZM722.05,590.48c4.31-6.47,10.74-9.77,14.35-7.36,3.61,2.41,3.04,9.61-1.27,16.08-4.31,6.47-10.74,9.77-14.35,7.36s-3.04-9.61,1.27-16.08ZM724.43,575.89c-15.32,0-27.74-8.35-27.74-18.64,0-10.3,12.42-18.64,27.74-18.64,15.32,0,27.74,8.35,27.74,18.64s-12.42,18.64-27.74,18.64ZM456.7,327.74c-3.29-7.26-2-14.95,2.89-17.16,4.89-2.22,11.52,1.87,14.81,9.14,3.29,7.26,2,14.95-2.89,17.16-4.89,2.22-11.52-1.87-14.81-9.14ZM455.46,364.19c0-10.3,12.42-18.64,27.74-18.64,15.32,0,27.74,8.35,27.74,18.64,0,10.3-12.42,18.64-27.74,18.64-15.32,0-27.74-8.35-27.74-18.64ZM499.93,415.71c0-20.06,24.2-36.32,54.05-36.32,29.85,0,54.05,16.26,54.05,36.32,0,20.06-24.2,36.32-54.05,36.32-29.85,0-54.05-16.26-54.05-36.32ZM420.2,539.92c-9.56-20.78,13.27-51.7,50.99-69.06,37.72-17.36,76.06-14.59,85.62,6.19,9.56,20.78-13.27,51.7-50.99,69.06-37.72,17.36-76.06,14.59-85.62-6.19ZM504.6,620.05c4.04-9.73,11.72-15.79,17.15-13.54,5.43,2.26,6.55,11.98,2.51,21.71-4.04,9.73-11.72,15.79-17.15,13.54-5.43-2.26-6.55-11.98-2.51-21.71ZM495.56,665.04c24.03-8.56,49.11.2,56.01,19.56,6.9,19.37-6.99,42.01-31.02,50.57-24.03,8.56-49.11-.2-56.01-19.56-6.9-19.37,6.99-42.01,31.02-50.57ZM440.44,724.05c-3.61-2.41-3.04-9.61,1.27-16.08,4.31-6.47,10.74-9.77,14.35-7.36,3.61,2.41,3.04,9.61-1.27,16.08-4.31,6.47-10.74,9.77-14.35,7.36ZM557.73,791.43c-5.21,19.44-22.61,31.67-38.86,27.31-16.25-4.35-25.2-23.64-20-43.08,5.21-19.44,22.61-31.67,38.86-27.31,16.25,4.35,25.2,23.64,20,43.08ZM607.58,784.79c-24.36,0-44.11-11.88-44.11-26.54s19.75-26.54,44.11-26.54c24.36,0,44.11,11.88,44.11,26.54,0,14.66-19.75,26.54-44.11,26.54ZM739.16,755.47c7.7,28.75-2.25,56.39-22.22,61.74-19.97,5.35-42.41-13.61-50.11-42.36-7.7-28.75,2.25-56.39,22.22-61.74,19.97-5.35,42.41,13.61,50.11,42.36ZM774.22,756.53c-29.42-1.63-51.06-42.91-48.33-92.2,2.73-49.29,28.79-87.94,58.21-86.31,29.42,1.63,51.06,42.91,48.33,92.2-2.73,49.29-28.79,87.94-58.21,86.31ZM927.76,749.39c10.93,40.78,3.59,78.18-16.38,83.53-19.97,5.35-45.02-23.37-55.95-64.15-10.93-40.78-3.59-78.18,16.38-83.53,19.97-5.35,45.02,23.37,55.95,64.15ZM843.05,648.42c-3.61-2.41-3.04-9.61,1.27-16.08,4.31-6.47,10.74-9.77,14.35-7.36,3.61,2.41,3.04,9.61-1.27,16.08-4.31,6.47-10.74,9.77-14.35,7.36ZM1072.12,729.96c-5.86,19.83-43.43,26.22-83.92,14.26-40.49-11.96-68.57-37.72-62.71-57.56,5.86-19.83,43.43-26.22,83.92-14.26,40.49,11.96,68.57,37.72,62.71,57.56ZM962.28,648.95c-30.11,13.86-60.71,11.64-68.34-4.94-7.63-16.59,10.59-41.27,40.7-55.12,30.11-13.86,60.71-11.64,68.34,4.94,7.63,16.59-10.59,41.27-40.7,55.12ZM1137.54,710.55c0,10.3-12.42,18.64-27.74,18.64s-27.74-8.35-27.74-18.64c0-10.3,12.42-18.64,27.74-18.64s27.74,8.35,27.74,18.64ZM1133.55,650.18c0,20.06-24.2,36.32-54.05,36.32-29.85,0-54.05-16.26-54.05-36.32s24.2-36.32,54.05-36.32c29.85,0,54.05,16.26,54.05,36.32ZM1021.45,584.01c0-8.23,9.89-14.9,22.1-14.9,12.2,0,22.09,6.67,22.1,14.9,0,8.23-9.89,14.9-22.1,14.9-12.2,0-22.09-6.67-22.1-14.9ZM1052.42,537.72c-8.68,25.29-48.43,34.55-88.78,20.7-40.35-13.86-66.02-45.59-57.33-70.87,8.68-25.29,48.43-34.55,88.78-20.7,40.35,13.86,66.02,45.59,57.33,70.87ZM876.51,472.59c-3.58-6.21-.31-14.8,7.32-19.21,7.62-4.4,16.71-2.94,20.29,3.26,3.58,6.21.31,14.8-7.32,19.21-7.62,4.4-16.71,2.94-20.29-3.26ZM956.37,362.18c9.56,20.78-13.27,51.7-50.99,69.06-37.72,17.36-76.06,14.59-85.62-6.19-9.56-20.78,13.27-51.7,50.99-69.06,37.72-17.36,76.06-14.59,85.62,6.19ZM822.18,186.24c19.97-5.35,45.02,23.37,55.95,64.15,10.93,40.78,3.59,78.18-16.38,83.53-19.97,5.35-45.02-23.37-55.95-64.15-10.93-40.78-3.59-78.18,16.38-83.53Z"/>
      </g>
      <g class="uuid-9077e589-8215-45f7-bb48-98bd7de98f0e">
        <path class="uuid-dc7f2799-25f3-4854-a9d5-7ac7be53c6e0" d="M616.2,2260.9c0,38.75-22.29,70.16-49.79,70.16-27.5,0-49.79-31.41-49.79-70.16,0-6.17.57-12.16,1.63-17.86-9.16,2.49-18.25,5.3-27.25,8.45,5.56,1.89,9.3,5.39,9.3,9.41,0,6.02-8.39,10.9-18.73,10.9-9.43,0-17.21-4.06-18.52-9.34-21.27,9.29-41.9,20.51-61.63,33.66.88,1.51,1.72,3.07,2.47,4.72,8.04,17.75,4.88,36.52-7.07,41.94-10.85,4.92-25.19-2.9-33.76-17.66-7.45,6.37-14.71,13.06-21.79,20.06,13.52-.66,29.75,5.33,43.57,17.34,22.53,19.58,30.13,47.72,16.98,62.87-13.16,15.14-42.09,11.55-64.62-8.03-14.33-12.45-22.61-28.36-23.36-42.2-21.34,25.79-38.97,53.62-52.88,82.79,35.57,10.96,59.62,31.85,59.62,55.83,0,31.31-40.96,57.35-95.06,62.89-1.68,12.35-2.8,24.76-3.34,37.2,4.35-.14,8.6.66,12.54,2.5,18.73,8.76,23.7,37.71,11.09,64.67-4.46,9.53-10.52,17.53-17.32,23.51,1.15,6.27,2.46,12.52,3.91,18.74,2.65-5.56,5.8-11.14,9.46-16.63,23.03-34.56,57.12-52.29,76.16-39.61,19.04,12.68,15.8,50.98-7.22,85.54-15.66,23.5-36.44,39.21-54.12,42.87,6.59,14.77,14.12,29.23,22.58,43.28,3.25-4.11,7.75-7.44,13.19-9.38,14.43-5.14,29.98,1.48,34.72,14.8,4.74,13.31-3.11,28.28-17.54,33.42-1.02.36-2.04.65-3.06.9,10.13,12.98,21.15,25.5,33.09,37.44,6.42,6.42,13.02,12.55,19.76,18.45,3.98-4.39,8.3-8.63,12.94-12.66,48.6-42.23,114.25-46.25,146.63-8.98,23.97,27.59,22.97,70.07,1.12,107.41,9.29,2.48,18.64,4.62,28.05,6.42-6.91-25.55-2.86-60.6,13.2-94.93,26.15-55.92,74.2-88.7,107.31-73.21,33.11,15.49,38.75,73.37,12.6,129.29-8.24,17.61-18.65,32.92-30.07,45.16,35.95-2.4,71.65-9.59,106.03-21.6-4.09-6.73-6.51-15.03-6.51-24.01,0-22.44,15.07-40.63,33.66-40.63s32.26,16.56,33.55,37.57c19.66-10.8,38.61-23.38,56.61-37.72-13.28,1.44-28.72-1.12-43.69-8.12-32.32-15.11-50.19-45.17-39.92-67.13,10.27-21.96,44.79-27.51,77.11-12.39,26.67,12.47,43.49,35.12,42.78,55,58.16-58.99,94.43-131.46,108.78-207.28-58.13,1.04-105.76-26.06-108.53-63.19-2.93-39.32,45.55-74.98,108.28-79.65.54-.04,1.07-.06,1.61-.09-1.36-8.04-3-16.03-4.85-23.99-21.38,13.81-53.23,22.58-88.83,22.58-64.38,0-116.57-28.65-116.57-64,0-35.34,52.19-64,116.57-64,18.5,0,35.98,2.38,51.52,6.59-6.8-12.65-14.33-25.01-22.58-37.02-2.08,1.51-4.42,2.78-7.02,3.71-12.35,4.4-25.34-.4-29.01-10.72-3.26-9.14,1.9-19.54,11.7-24.86-3.33-3.94-6.75-7.84-10.26-11.68-27.64,57.07-85.2,86.52-129.43,65.84-44.72-20.92-58.86-85.15-31.59-143.46,4.13-8.84,8.99-17.02,14.4-24.49-41.36-16.69-84.92-26.21-128.81-28.59,1.06,1.46,2.02,3.08,2.82,4.86,4.3,9.49,2.61,19.53-3.78,22.43-6.39,2.9-15.06-2.45-19.36-11.94-2.57-5.68-2.99-11.54-1.55-15.96-4.52,0-9.03.1-13.54.25,3.44,9.54,5.4,20.32,5.4,31.75ZM742.25,2960.59c0,15.32-8.35,27.74-18.64,27.74s-18.64-12.42-18.64-27.74c0-15.32,8.35-27.74,18.64-27.74s18.64,12.42,18.64,27.74ZM897.39,2417.65c-.77-3.82,4.5-8.1,11.76-9.55,7.26-1.45,13.77.47,14.53,4.29.77,3.82-4.5,8.1-11.76,9.55-7.26,1.45-13.77-.47-14.53-4.29ZM709.94,2252.99c4.31-6.47,10.74-9.77,14.35-7.36,3.61,2.41,3.04,9.61-1.27,16.08-4.31,6.47-10.74,9.77-14.35,7.36-3.61-2.41-3.04-9.61,1.27-16.08ZM710.06,2283.66c2.4-8.95,10.4-14.57,17.88-12.57,7.48,2,11.6,10.88,9.2,19.83-2.4,8.95-10.4,14.57-17.88,12.57-7.48-2-11.6-10.88-9.2-19.83ZM611.69,2343.04c22.49,1.24,38.4,44.19,35.53,95.93-2.86,51.74-23.41,92.67-45.9,91.42-22.49-1.24-38.4-44.19-35.53-95.93,2.86-51.74,23.41-92.67,45.9-91.42ZM718.58,2631.29c-13.16,15.14-42.09,11.55-64.62-8.03-22.53-19.58-30.13-47.72-16.98-62.87,13.16-15.14,42.09-11.55,64.62,8.03,22.53,19.58,30.13,47.72,16.98,62.87ZM756.93,2656.26c0,6.02-8.39,10.9-18.73,10.9-10.34,0-18.73-4.88-18.73-10.9s8.39-10.9,18.73-10.9c10.34,0,18.73,4.88,18.73,10.9ZM720.63,2702.39c-6.77,7.8-23.78,4.11-37.98-8.23-14.2-12.34-20.22-28.66-13.45-36.46,6.77-7.8,23.78-4.11,37.98,8.23,14.2,12.34,20.22,28.66,13.45,36.46ZM436.7,2392.36c-23.36-43.49-21.26-90.05,4.7-104,25.96-13.94,65.94,10.01,89.3,53.5,23.36,43.49,21.26,90.05-4.7,104-25.96,13.94-65.94-10.01-89.3-53.5ZM436.47,2455.41c-4.3-9.49-2.61-19.53,3.78-22.43,6.39-2.9,15.06,2.45,19.36,11.94,4.3,9.49,2.61,19.53-3.78,22.43-6.39,2.9-15.06-2.45-19.36-11.94ZM468.86,2475.97c15.93-15.93,58.54.87,95.18,37.51,36.64,36.64,53.43,79.25,37.51,95.18-15.93,15.93-58.54-.87-95.18-37.51-36.64-36.64-53.43-79.25-37.51-95.18ZM410.57,2768.02c-32.41-15.16-40.61-66.08-18.32-113.75,22.29-47.66,66.64-74.01,99.05-58.85,32.41,15.16,40.61,66.08,18.32,113.75-22.29,47.66-66.64,74.01-99.05,58.85ZM533.73,2747.15c6.19,7.12,1.09,21.69-11.39,32.53-12.48,10.84-27.61,13.86-33.8,6.74-6.19-7.12-1.09-21.69,11.39-32.53,12.48-10.84,27.61-13.86,33.8-6.74ZM349.37,2686.44c-9.95-2.66-15.42-14.47-12.24-26.36,3.19-11.9,13.83-19.38,23.78-16.71,9.95,2.66,15.42,14.47,12.24,26.36-3.19,11.9-13.83,19.38-23.78,16.71ZM421.75,2560.26c2.4-8.95,10.4-14.57,17.88-12.57,7.48,2,11.6,10.88,9.2,19.83-2.4,8.95-10.4,14.57-17.88,12.57-7.48-2-11.6-10.88-9.2-19.83ZM562.51,2678.54c4.31-6.47,10.74-9.77,14.35-7.36,3.61,2.41,3.04,9.61-1.27,16.08-4.31,6.47-10.74,9.77-14.35,7.36-3.61-2.41-3.04-9.61,1.27-16.08ZM564.89,2663.95c-15.32,0-27.74-8.35-27.74-18.64,0-10.3,12.42-18.64,27.74-18.64,15.32,0,27.74,8.35,27.74,18.64s-12.42,18.64-27.74,18.64ZM297.16,2415.8c-3.29-7.26-2-14.95,2.89-17.16,4.89-2.22,11.52,1.87,14.81,9.14,3.29,7.26,2,14.95-2.89,17.16-4.89,2.22-11.52-1.87-14.81-9.14ZM295.92,2452.25c0-10.3,12.42-18.64,27.74-18.64,15.32,0,27.74,8.35,27.74,18.64,0,10.3-12.42,18.64-27.74,18.64-15.32,0-27.74-8.35-27.74-18.64ZM340.39,2503.77c0-20.06,24.2-36.32,54.05-36.32,29.85,0,54.05,16.26,54.05,36.32,0,20.06-24.2,36.32-54.05,36.32-29.85,0-54.05-16.26-54.05-36.32ZM260.66,2627.98c-9.56-20.78,13.27-51.7,50.99-69.06,37.72-17.36,76.06-14.59,85.62,6.19,9.56,20.78-13.27,51.7-50.99,69.06-37.72,17.36-76.06,14.59-85.62-6.19ZM345.06,2708.11c4.04-9.73,11.72-15.79,17.15-13.54,5.43,2.26,6.55,11.98,2.51,21.71-4.04,9.73-11.72,15.79-17.15,13.54-5.43-2.26-6.55-11.98-2.51-21.71ZM336.02,2753.11c24.03-8.56,49.11.2,56.01,19.56,6.9,19.37-6.99,42.01-31.02,50.57-24.03,8.56-49.11-.2-56.01-19.56-6.9-19.37,6.99-42.01,31.02-50.57ZM280.9,2812.11c-3.61-2.41-3.04-9.61,1.27-16.08,4.31-6.47,10.74-9.77,14.35-7.36,3.61,2.41,3.04,9.61-1.27,16.08-4.31,6.47-10.74,9.77-14.35,7.36ZM398.19,2879.5c-5.21,19.44-22.61,31.67-38.86,27.31-16.25-4.35-25.2-23.64-20-43.08,5.21-19.44,22.61-31.67,38.86-27.31,16.25,4.35,25.2,23.64,20,43.08ZM448.04,2872.85c-24.36,0-44.11-11.88-44.11-26.54s19.75-26.54,44.11-26.54c24.36,0,44.11,11.88,44.11,26.54,0,14.66-19.75,26.54-44.11,26.54ZM579.62,2843.53c7.7,28.75-2.25,56.39-22.22,61.74-19.97,5.35-42.41-13.61-50.11-42.36-7.7-28.75,2.25-56.39,22.22-61.74,19.97-5.35,42.41,13.61,50.11,42.36ZM614.68,2844.6c-29.42-1.63-51.06-42.91-48.33-92.2,2.73-49.29,28.79-87.94,58.21-86.31,29.42,1.63,51.06,42.91,48.33,92.2-2.73,49.29-28.79,87.94-58.21,86.31ZM768.21,2837.46c10.93,40.78,3.59,78.18-16.38,83.53-19.97,5.35-45.02-23.37-55.95-64.15-10.93-40.78-3.59-78.18,16.38-83.53,19.97-5.35,45.02,23.37,55.95,64.15ZM683.51,2736.48c-3.61-2.41-3.04-9.61,1.27-16.08,4.31-6.47,10.74-9.77,14.35-7.36,3.61,2.41,3.04,9.61-1.27,16.08-4.31,6.47-10.74,9.77-14.35,7.36ZM912.57,2818.03c-5.86,19.83-43.43,26.22-83.92,14.26-40.49-11.96-68.57-37.72-62.71-57.56,5.86-19.83,43.43-26.22,83.92-14.26,40.49,11.96,68.57,37.72,62.71,57.56ZM802.74,2737.02c-30.11,13.86-60.71,11.64-68.34-4.94-7.63-16.59,10.59-41.27,40.7-55.12,30.11-13.86,60.71-11.64,68.34,4.94,7.63,16.59-10.59,41.27-40.7,55.12ZM977.99,2798.61c0,10.3-12.42,18.64-27.74,18.64s-27.74-8.35-27.74-18.64c0-10.3,12.42-18.64,27.74-18.64s27.74,8.35,27.74,18.64ZM974.01,2738.25c0,20.06-24.2,36.32-54.05,36.32-29.85,0-54.05-16.26-54.05-36.32s24.2-36.32,54.05-36.32c29.85,0,54.05,16.26,54.05,36.32ZM861.91,2672.08c0-8.23,9.89-14.9,22.1-14.9,12.2,0,22.09,6.67,22.1,14.9,0,8.23-9.89,14.9-22.1,14.9-12.2,0-22.09-6.67-22.1-14.9ZM892.88,2625.79c-8.68,25.29-48.43,34.55-88.78,20.7-40.35-13.86-66.02-45.59-57.33-70.87,8.68-25.29,48.43-34.55,88.78-20.7,40.35,13.86,66.02,45.59,57.33,70.87ZM716.97,2560.65c-3.58-6.21-.31-14.8,7.32-19.21,7.62-4.4,16.71-2.94,20.29,3.26,3.58,6.21.31,14.8-7.32,19.21-7.62,4.4-16.71,2.94-20.29-3.26ZM796.83,2450.25c9.56,20.78-13.27,51.7-50.99,69.06-37.72,17.36-76.06,14.59-85.62-6.19-9.56-20.78,13.27-51.7,50.99-69.06,37.72-17.36,76.06-14.59,85.62,6.19ZM662.64,2274.3c19.97-5.35,45.02,23.37,55.95,64.15,10.93,40.78,3.59,78.18-16.38,83.53-19.97,5.35-45.02-23.37-55.95-64.15-10.93-40.78-3.59-78.18,16.38-83.53Z"/>
      </g>
      <g class="uuid-5367868e-5de6-4c22-9737-086be136f000">
        <path class="uuid-46bce28b-3b8c-47d0-9d29-da760125144a" d="M84.96,871.28c0,40.18-23.11,72.75-51.63,72.75-28.51,0-51.63-32.57-51.63-72.75,0-6.4.59-12.61,1.69-18.52-9.5,2.58-18.92,5.5-28.26,8.76,5.76,1.96,9.64,5.59,9.64,9.76,0,6.24-8.7,11.31-19.42,11.31-9.78,0-17.84-4.21-19.2-9.68-22.06,9.63-43.45,21.27-63.91,34.9.91,1.57,1.78,3.18,2.56,4.9,8.34,18.4,5.06,37.87-7.33,43.49-11.25,5.1-26.12-3-35.01-18.31-7.72,6.6-15.26,13.54-22.6,20.8,14.02-.68,30.85,5.52,45.18,17.98,23.36,20.3,31.25,49.49,17.6,65.19-13.64,15.7-43.64,11.97-67.01-8.33-14.86-12.91-23.44-29.41-24.22-43.75-22.13,26.75-40.4,55.61-54.84,85.84,36.88,11.36,61.82,33.03,61.82,57.9,0,32.46-42.48,59.47-98.58,65.21-1.75,12.81-2.91,25.68-3.46,38.57,4.52-.14,8.91.68,13,2.59,19.42,9.08,24.57,39.11,11.5,67.06-4.62,9.88-10.91,18.18-17.96,24.38,1.2,6.5,2.55,12.98,4.06,19.43,2.75-5.77,6.02-11.56,9.81-17.25,23.88-35.84,59.23-54.22,78.98-41.07,19.74,13.15,16.39,52.87-7.49,88.7-16.24,24.37-37.78,40.66-56.12,44.46,6.84,15.32,14.64,30.31,23.42,44.88,3.37-4.26,8.03-7.72,13.67-9.73,14.97-5.33,31.08,1.54,36,15.34,4.92,13.81-3.22,29.32-18.19,34.65-1.05.38-2.11.68-3.18.93,10.5,13.46,21.93,26.44,34.31,38.82,6.66,6.66,13.5,13.02,20.49,19.13,4.13-4.56,8.6-8.95,13.41-13.13,50.39-43.79,118.47-47.96,152.04-9.31,24.86,28.61,23.82,72.66,1.16,111.38,9.63,2.57,19.33,4.79,29.09,6.66-7.16-26.49-2.96-62.84,13.69-98.44,27.12-57.99,76.94-91.98,111.28-75.92,34.34,16.06,40.19,76.08,13.07,134.07-8.54,18.26-19.33,34.14-31.19,46.82,37.28-2.49,74.29-9.94,109.95-22.39-4.24-6.98-6.75-15.58-6.75-24.9,0-23.27,15.63-42.13,34.9-42.13s33.45,17.17,34.79,38.96c20.39-11.2,40.03-24.25,58.7-39.11-13.78,1.49-29.78-1.16-45.3-8.42-33.51-15.67-52.04-46.84-41.4-69.61,10.65-22.77,46.45-28.52,79.96-12.85,27.66,12.93,45.09,36.42,44.36,57.03,60.31-61.17,97.92-136.32,112.8-214.93-60.28,1.08-109.67-27.02-112.54-65.52-3.04-40.77,47.23-77.75,112.28-82.6.56-.04,1.11-.06,1.67-.1-1.41-8.33-3.11-16.63-5.03-24.88-22.17,14.32-55.2,23.41-92.11,23.41-66.76,0-120.88-29.71-120.88-66.36,0-36.65,54.12-66.36,120.88-66.36,19.18,0,37.31,2.46,53.42,6.83-7.05-13.12-14.86-25.94-23.42-38.39-2.15,1.56-4.58,2.88-7.28,3.84-12.8,4.56-26.27-.42-30.09-11.12-3.38-9.48,1.97-20.27,12.13-25.78-3.46-4.09-7-8.13-10.63-12.11-28.67,59.18-88.35,89.72-134.21,68.27-46.37-21.69-61.04-88.29-32.76-148.76,4.29-9.17,9.32-17.65,14.93-25.4-42.88-17.3-88.06-27.17-133.56-29.65,1.1,1.51,2.1,3.2,2.93,5.03,4.46,9.84,2.71,20.25-3.92,23.26-6.62,3-15.61-2.54-20.07-12.38-2.67-5.89-3.1-11.96-1.61-16.55-4.68,0-9.36.1-14.04.26,3.57,9.89,5.59,21.07,5.59,32.93ZM215.66,1596.81c0,15.89-8.65,28.77-19.33,28.77s-19.33-12.88-19.33-28.77c0-15.89,8.65-28.77,19.33-28.77s19.33,12.88,19.33,28.77ZM376.53,1033.82c-.79-3.96,4.67-8.4,12.2-9.91,7.53-1.51,14.28.48,15.07,4.45.79,3.96-4.67,8.4-12.2,9.91-7.53,1.51-14.28-.48-15.07-4.45ZM182.16,863.07c4.47-6.71,11.13-10.13,14.88-7.64s3.16,9.96-1.32,16.67c-4.47,6.71-11.13,10.13-14.88,7.64-3.75-2.5-3.16-9.96,1.32-16.67ZM182.29,894.88c2.49-9.28,10.79-15.11,18.54-13.03,7.76,2.08,12.03,11.28,9.54,20.56-2.49,9.28-10.79,15.11-18.54,13.03-7.76-2.08-12.03-11.28-9.54-20.56ZM80.28,956.46c23.32,1.29,39.81,45.83,36.84,99.48-2.97,53.65-24.28,96.09-47.6,94.8-23.32-1.29-39.81-45.83-36.84-99.48,2.97-53.65,24.28-96.09,47.6-94.8ZM191.12,1255.35c-13.64,15.7-43.64,11.97-67.01-8.33-23.36-20.3-31.25-49.49-17.6-65.19,13.64-15.7,43.64-11.97,67.01,8.33,23.36,20.3,31.25,49.49,17.6,65.19ZM230.89,1281.25c0,6.24-8.7,11.31-19.42,11.31-10.73,0-19.42-5.06-19.42-11.31s8.7-11.31,19.42-11.31c10.73,0,19.42,5.06,19.42,11.31ZM193.25,1329.08c-7.02,8.08-24.66,4.27-39.39-8.53-14.73-12.8-20.97-29.72-13.95-37.81,7.02-8.08,24.66-4.27,39.39,8.53,14.73,12.8,20.97,29.72,13.95,37.81ZM-101.17,1007.59c-24.23-45.1-22.04-93.38,4.87-107.84,26.92-14.46,68.38,10.38,92.6,55.48,24.23,45.1,22.05,93.38-4.87,107.84-26.92,14.46-68.38-10.38-92.6-55.48ZM-101.41,1072.98c-4.46-9.84-2.71-20.25,3.92-23.26,6.62-3,15.61,2.54,20.07,12.38,4.46,9.84,2.71,20.25-3.92,23.26-6.62,3-15.61-2.54-20.07-12.38ZM-67.82,1094.29c16.51-16.51,60.7.9,98.69,38.89,37.99,37.99,55.41,82.18,38.89,98.69-16.51,16.51-60.7-.9-98.69-38.89-37.99-37.99-55.41-82.18-38.89-98.69ZM-128.27,1397.14c-33.61-15.72-42.11-68.53-19-117.95,23.11-49.42,69.1-76.75,102.7-61.03,33.61,15.72,42.11,68.52,19,117.95-23.11,49.42-69.1,76.75-102.7,61.03ZM-.56,1375.49c6.42,7.39,1.13,22.49-11.81,33.73-12.94,11.24-28.63,14.37-35.05,6.98-6.42-7.39-1.13-22.49,11.81-33.73,12.94-11.24,28.63-14.37,35.05-6.98ZM-191.73,1312.54c-10.31-2.76-15.99-15-12.69-27.34,3.31-12.34,14.34-20.09,24.66-17.33,10.31,2.76,15.99,15,12.69,27.34-3.31,12.34-14.34,20.09-24.66,17.33ZM-116.67,1181.69c2.49-9.28,10.79-15.11,18.54-13.03,7.76,2.08,12.03,11.28,9.54,20.56-2.49,9.28-10.79,15.11-18.54,13.03-7.76-2.08-12.03-11.28-9.54-20.56ZM29.29,1304.35c4.47-6.71,11.13-10.13,14.88-7.64,3.75,2.5,3.16,9.96-1.32,16.67-4.47,6.71-11.13,10.13-14.88,7.64-3.75-2.5-3.16-9.96,1.32-16.67ZM31.75,1289.22c-15.89,0-28.77-8.65-28.77-19.33,0-10.68,12.88-19.33,28.77-19.33,15.89,0,28.77,8.65,28.77,19.33s-12.88,19.33-28.77,19.33ZM-245.87,1031.9c-3.41-7.53-2.07-15.5,3-17.8,5.07-2.3,11.95,1.94,15.36,9.47,3.41,7.53,2.07,15.5-3,17.8-5.07,2.3-11.95-1.94-15.36-9.47ZM-247.15,1069.7c0-10.68,12.88-19.33,28.77-19.33,15.89,0,28.77,8.65,28.77,19.33,0,10.68-12.88,19.33-28.77,19.33-15.89,0-28.77-8.65-28.77-19.33ZM-201.04,1123.12c0-20.8,25.09-37.66,56.04-37.66,30.95,0,56.05,16.86,56.04,37.66,0,20.8-25.09,37.66-56.04,37.66-30.95,0-56.05-16.86-56.04-37.66ZM-283.71,1251.92c-9.92-21.55,13.76-53.61,52.88-71.61,39.12-18,78.87-15.13,88.78,6.42,9.92,21.55-13.76,53.61-52.88,71.61-39.12,18-78.87,15.13-88.78-6.42ZM-196.2,1335.01c4.19-10.09,12.16-16.38,17.79-14.04,5.63,2.34,6.8,12.42,2.6,22.51-4.19,10.09-12.16,16.38-17.79,14.04-5.63-2.34-6.8-12.42-2.6-22.51ZM-205.57,1381.67c24.92-8.88,50.92.2,58.08,20.29,7.16,20.08-7.25,43.56-32.17,52.44-24.92,8.88-50.92-.2-58.08-20.29-7.16-20.08,7.25-43.56,32.17-52.44ZM-262.73,1442.85c-3.75-2.5-3.16-9.96,1.32-16.67,4.47-6.71,11.13-10.13,14.88-7.64,3.75,2.5,3.16,9.96-1.32,16.67-4.47,6.71-11.13,10.13-14.88,7.64ZM-141.11,1512.73c-5.4,20.16-23.44,32.84-40.29,28.32-16.85-4.52-26.14-24.52-20.73-44.68,5.4-20.16,23.44-32.84,40.29-28.32,16.85,4.52,26.14,24.52,20.73,44.68ZM-89.41,1505.84c-25.26,0-45.74-12.32-45.74-27.52s20.48-27.52,45.74-27.52c25.26,0,45.74,12.32,45.74,27.52,0,15.2-20.48,27.52-45.74,27.52ZM47.03,1475.43c7.99,29.81-2.33,58.47-23.04,64.02-20.71,5.55-43.98-14.12-51.96-43.92-7.99-29.81,2.33-58.47,23.04-64.02,20.71-5.55,43.98,14.12,51.96,43.92ZM83.39,1476.54c-30.51-1.69-52.94-44.5-50.12-95.61,2.83-51.12,29.85-91.18,60.36-89.5,30.51,1.69,52.94,44.5,50.12,95.61-2.83,51.12-29.85,91.18-60.36,89.5ZM242.59,1469.13c11.33,42.29,3.73,81.07-16.99,86.62-20.71,5.55-46.69-24.23-58.02-66.52-11.33-42.29-3.73-81.07,16.99-86.62,20.71-5.55,46.69,24.23,58.02,66.52ZM154.75,1364.43c-3.75-2.5-3.16-9.96,1.32-16.67,4.47-6.71,11.13-10.13,14.88-7.64,3.75,2.5,3.16,9.96-1.32,16.67-4.47,6.71-11.13,10.13-14.88,7.64ZM392.28,1448.99c-6.07,20.56-45.03,27.19-87.02,14.79-41.99-12.4-71.1-39.12-65.03-59.68,6.07-20.56,45.03-27.19,87.02-14.79,41.99,12.4,71.1,39.12,65.03,59.68ZM278.39,1364.99c-31.22,14.37-62.95,12.07-70.87-5.13-7.92-17.2,10.98-42.79,42.21-57.16,31.22-14.37,62.95-12.07,70.87,5.13,7.92,17.2-10.98,42.79-42.21,57.16ZM460.12,1428.86c0,10.68-12.88,19.33-28.77,19.33s-28.77-8.65-28.77-19.33c0-10.68,12.88-19.33,28.77-19.33s28.77,8.65,28.77,19.33ZM455.99,1366.26c0,20.8-25.09,37.66-56.05,37.66-30.95,0-56.04-16.86-56.04-37.66s25.09-37.66,56.04-37.66c30.95,0,56.04,16.86,56.05,37.66ZM339.75,1297.65c0-8.53,10.26-15.45,22.91-15.45,12.65,0,22.91,6.92,22.91,15.45,0,8.53-10.26,15.45-22.91,15.45-12.65,0-22.91-6.92-22.91-15.45ZM371.86,1249.65c-9,26.22-50.22,35.83-92.06,21.46-41.84-14.37-68.45-47.27-59.45-73.49,9-26.22,50.22-35.83,92.06-21.46,41.84,14.37,68.45,47.27,59.45,73.49ZM189.45,1182.1c-3.71-6.43-.32-15.35,7.59-19.92,7.91-4.56,17.33-3.05,21.04,3.39,3.71,6.43.32,15.35-7.59,19.92-7.91,4.56-17.33,3.05-21.04-3.39ZM272.26,1067.62c9.92,21.55-13.76,53.61-52.88,71.61-39.12,18-78.87,15.13-88.78-6.42-9.92-21.55,13.76-53.61,52.88-71.61,39.12-18,78.87-15.13,88.78,6.42ZM133.12,885.17c20.71-5.55,46.69,24.23,58.02,66.52,11.33,42.29,3.73,81.07-16.99,86.62-20.71,5.55-46.69-24.23-58.02-66.52-11.33-42.29-3.73-81.07,16.99-86.62Z"/>
      </g>
      <g class="uuid-070df2c9-581b-4fef-9b6e-b8b7422b1eda">
        <path class="uuid-46bce28b-3b8c-47d0-9d29-da760125144a" d="M498.64-117.89c0,40.18-23.11,72.75-51.63,72.75-28.51,0-51.63-32.57-51.63-72.75,0-6.4.59-12.61,1.69-18.52-9.5,2.58-18.92,5.5-28.26,8.76,5.76,1.96,9.64,5.59,9.64,9.76,0,6.24-8.7,11.31-19.42,11.31-9.78,0-17.84-4.21-19.2-9.68-22.06,9.63-43.45,21.27-63.91,34.9.91,1.57,1.78,3.18,2.56,4.9,8.34,18.4,5.06,37.87-7.33,43.49-11.25,5.1-26.12-3-35.01-18.31-7.72,6.6-15.26,13.54-22.6,20.8,14.02-.68,30.85,5.52,45.18,17.98,23.36,20.3,31.25,49.49,17.6,65.19-13.64,15.7-43.64,11.97-67.01-8.33-14.86-12.91-23.44-29.41-24.22-43.75-22.13,26.75-40.4,55.61-54.84,85.84,36.88,11.36,61.82,33.03,61.82,57.9,0,32.46-42.48,59.47-98.58,65.21-1.75,12.81-2.91,25.68-3.46,38.57,4.52-.14,8.91.68,13,2.59,19.42,9.08,24.57,39.11,11.5,67.06-4.62,9.88-10.91,18.18-17.96,24.38,1.2,6.5,2.55,12.98,4.06,19.43,2.75-5.77,6.02-11.56,9.81-17.25,23.88-35.84,59.23-54.22,78.98-41.07,19.74,13.15,16.39,52.87-7.49,88.7-16.24,24.37-37.78,40.66-56.12,44.46,6.84,15.32,14.64,30.31,23.42,44.88,3.37-4.26,8.03-7.72,13.67-9.73,14.97-5.33,31.08,1.54,36,15.34,4.92,13.81-3.22,29.32-18.19,34.65-1.05.38-2.11.68-3.18.93,10.5,13.46,21.93,26.44,34.31,38.82,6.66,6.66,13.5,13.02,20.49,19.13,4.13-4.56,8.6-8.95,13.41-13.13,50.39-43.79,118.47-47.96,152.04-9.31,24.86,28.61,23.82,72.66,1.16,111.38,9.63,2.57,19.33,4.79,29.09,6.66-7.16-26.49-2.96-62.84,13.69-98.44,27.12-57.99,76.94-91.98,111.28-75.92,34.34,16.06,40.19,76.08,13.07,134.07-8.54,18.26-19.33,34.14-31.19,46.82,37.28-2.49,74.29-9.94,109.95-22.39-4.24-6.98-6.75-15.58-6.75-24.9,0-23.27,15.63-42.13,34.9-42.13s33.45,17.17,34.79,38.96c20.39-11.2,40.03-24.25,58.7-39.11-13.78,1.49-29.78-1.16-45.3-8.42-33.51-15.67-52.04-46.84-41.4-69.61,10.65-22.77,46.45-28.52,79.96-12.85,27.66,12.93,45.09,36.42,44.36,57.03,60.31-61.17,97.92-136.32,112.8-214.93-60.28,1.08-109.67-27.02-112.54-65.52-3.04-40.77,47.23-77.75,112.28-82.6.56-.04,1.11-.06,1.67-.1-1.41-8.33-3.11-16.63-5.03-24.88-22.17,14.32-55.2,23.41-92.11,23.41-66.76,0-120.88-29.71-120.88-66.36,0-36.65,54.12-66.36,120.88-66.36,19.18,0,37.31,2.46,53.42,6.83-7.05-13.12-14.86-25.94-23.42-38.39-2.15,1.56-4.58,2.88-7.28,3.84-12.8,4.56-26.27-.42-30.09-11.12-3.38-9.48,1.97-20.27,12.13-25.78-3.46-4.09-7-8.13-10.63-12.11-28.67,59.18-88.35,89.72-134.21,68.27-46.37-21.69-61.04-88.29-32.76-148.76,4.29-9.17,9.32-17.65,14.93-25.4-42.88-17.3-88.06-27.17-133.56-29.65,1.1,1.51,2.1,3.2,2.93,5.03,4.46,9.84,2.71,20.25-3.92,23.26-6.62,3-15.61-2.54-20.07-12.38-2.67-5.89-3.1-11.96-1.61-16.55-4.68,0-9.36.1-14.04.26,3.57,9.89,5.59,21.07,5.59,32.93ZM629.34,607.64c0,15.89-8.65,28.77-19.33,28.77s-19.33-12.88-19.33-28.77c0-15.89,8.65-28.77,19.33-28.77s19.33,12.88,19.33,28.77ZM790.21,44.65c-.79-3.96,4.67-8.4,12.2-9.91,7.53-1.51,14.28.48,15.07,4.45.79,3.96-4.67,8.4-12.2,9.91-7.53,1.51-14.28-.48-15.07-4.45ZM595.83-126.1c4.47-6.71,11.13-10.13,14.88-7.64s3.16,9.96-1.32,16.67c-4.47,6.71-11.13,10.13-14.88,7.64-3.75-2.5-3.16-9.96,1.32-16.67ZM595.97-94.3c2.49-9.28,10.79-15.11,18.54-13.03,7.76,2.08,12.03,11.28,9.54,20.56-2.49,9.28-10.79,15.11-18.54,13.03-7.76-2.08-12.03-11.28-9.54-20.56ZM493.96-32.71c23.32,1.29,39.81,45.83,36.84,99.48-2.97,53.65-24.28,96.09-47.6,94.8-23.32-1.29-39.81-45.83-36.84-99.48,2.97-53.65,24.28-96.09,47.6-94.8ZM604.79,266.18c-13.64,15.7-43.64,11.97-67.01-8.33-23.36-20.3-31.25-49.49-17.6-65.19,13.64-15.7,43.64-11.97,67.01,8.33,23.36,20.3,31.25,49.49,17.6,65.19ZM644.57,292.08c0,6.24-8.7,11.31-19.42,11.31-10.73,0-19.42-5.06-19.42-11.31s8.7-11.31,19.42-11.31c10.73,0,19.42,5.06,19.42,11.31ZM606.93,339.91c-7.02,8.08-24.66,4.27-39.39-8.53-14.73-12.8-20.97-29.72-13.95-37.81,7.02-8.08,24.66-4.27,39.39,8.53,14.73,12.8,20.97,29.72,13.95,37.81ZM312.5,18.42c-24.23-45.1-22.04-93.38,4.87-107.84,26.92-14.46,68.38,10.38,92.6,55.48,24.23,45.1,22.05,93.38-4.87,107.84-26.92,14.46-68.38-10.38-92.6-55.48ZM312.27,83.8c-4.46-9.84-2.71-20.25,3.92-23.26,6.62-3,15.61,2.54,20.07,12.38,4.46,9.84,2.71,20.25-3.92,23.26-6.62,3-15.61-2.54-20.07-12.38ZM345.85,105.12c16.51-16.51,60.7.9,98.69,38.89,37.99,37.99,55.41,82.18,38.89,98.69-16.51,16.51-60.7-.9-98.69-38.89-37.99-37.99-55.41-82.18-38.89-98.69ZM285.41,407.96c-33.61-15.72-42.11-68.53-19-117.95,23.11-49.42,69.1-76.75,102.7-61.03,33.61,15.72,42.11,68.52,19,117.95-23.11,49.42-69.1,76.75-102.7,61.03ZM413.12,386.32c6.42,7.39,1.13,22.49-11.81,33.73-12.94,11.24-28.63,14.37-35.05,6.98-6.42-7.39-1.13-22.49,11.81-33.73,12.94-11.24,28.63-14.37,35.05-6.98ZM221.95,323.37c-10.31-2.76-15.99-15-12.69-27.34,3.31-12.34,14.34-20.09,24.66-17.33,10.31,2.76,15.99,15,12.69,27.34-3.31,12.34-14.34,20.09-24.66,17.33ZM297,192.52c2.49-9.28,10.79-15.11,18.54-13.03,7.76,2.08,12.03,11.28,9.54,20.56-2.49,9.28-10.79,15.11-18.54,13.03-7.76-2.08-12.03-11.28-9.54-20.56ZM442.96,315.18c4.47-6.71,11.13-10.13,14.88-7.64,3.75,2.5,3.16,9.96-1.32,16.67-4.47,6.71-11.13,10.13-14.88,7.64-3.75-2.5-3.16-9.96,1.32-16.67ZM445.43,300.05c-15.89,0-28.77-8.65-28.77-19.33,0-10.68,12.88-19.33,28.77-19.33,15.89,0,28.77,8.65,28.77,19.33s-12.88,19.33-28.77,19.33ZM167.81,42.73c-3.41-7.53-2.07-15.5,3-17.8,5.07-2.3,11.95,1.94,15.36,9.47,3.41,7.53,2.07,15.5-3,17.8-5.07,2.3-11.95-1.94-15.36-9.47ZM166.52,80.53c0-10.68,12.88-19.33,28.77-19.33,15.89,0,28.77,8.65,28.77,19.33,0,10.68-12.88,19.33-28.77,19.33-15.89,0-28.77-8.65-28.77-19.33ZM212.63,133.95c0-20.8,25.09-37.66,56.04-37.66,30.95,0,56.05,16.86,56.04,37.66,0,20.8-25.09,37.66-56.04,37.66-30.95,0-56.05-16.86-56.04-37.66ZM129.96,262.75c-9.92-21.55,13.76-53.61,52.88-71.61,39.12-18,78.87-15.13,88.78,6.42,9.92,21.55-13.76,53.61-52.88,71.61-39.12,18-78.87,15.13-88.78-6.42ZM217.48,345.84c4.19-10.09,12.16-16.38,17.79-14.04,5.63,2.34,6.8,12.42,2.6,22.51-4.19,10.09-12.16,16.38-17.79,14.04-5.63-2.34-6.8-12.42-2.6-22.51ZM208.1,392.5c24.92-8.88,50.92.2,58.08,20.29,7.16,20.08-7.25,43.56-32.17,52.44-24.92,8.88-50.92-.2-58.08-20.29-7.16-20.08,7.25-43.56,32.17-52.44ZM150.95,453.68c-3.75-2.5-3.16-9.96,1.32-16.67,4.47-6.71,11.13-10.13,14.88-7.64,3.75,2.5,3.16,9.96-1.32,16.67-4.47,6.71-11.13,10.13-14.88,7.64ZM272.57,523.56c-5.4,20.16-23.44,32.84-40.29,28.32-16.85-4.52-26.14-24.52-20.73-44.68,5.4-20.16,23.44-32.84,40.29-28.32,16.85,4.52,26.14,24.52,20.73,44.68ZM324.26,516.67c-25.26,0-45.74-12.32-45.74-27.52s20.48-27.52,45.74-27.52c25.26,0,45.74,12.32,45.74,27.52,0,15.2-20.48,27.52-45.74,27.52ZM460.71,486.26c7.99,29.81-2.33,58.47-23.04,64.02-20.71,5.55-43.98-14.12-51.96-43.92-7.99-29.81,2.33-58.47,23.04-64.02,20.71-5.55,43.98,14.12,51.96,43.92ZM497.06,487.37c-30.51-1.69-52.94-44.5-50.12-95.61,2.83-51.12,29.85-91.18,60.36-89.5,30.51,1.69,52.94,44.5,50.12,95.61-2.83,51.12-29.85,91.18-60.36,89.5ZM656.27,479.96c11.33,42.29,3.73,81.07-16.99,86.62-20.71,5.55-46.69-24.23-58.02-66.52-11.33-42.29-3.73-81.07,16.99-86.62,20.71-5.55,46.69,24.23,58.02,66.52ZM568.43,375.26c-3.75-2.5-3.16-9.96,1.32-16.67,4.47-6.71,11.13-10.13,14.88-7.64,3.75,2.5,3.16,9.96-1.32,16.67-4.47,6.71-11.13,10.13-14.88,7.64ZM805.96,459.82c-6.07,20.56-45.03,27.19-87.02,14.79-41.99-12.4-71.1-39.12-65.03-59.68,6.07-20.56,45.03-27.19,87.02-14.79,41.99,12.4,71.1,39.12,65.03,59.68ZM692.07,375.82c-31.22,14.37-62.95,12.07-70.87-5.13-7.92-17.2,10.98-42.79,42.21-57.16,31.22-14.37,62.95-12.07,70.87,5.13,7.92,17.2-10.98,42.79-42.21,57.16ZM873.8,439.69c0,10.68-12.88,19.33-28.77,19.33s-28.77-8.65-28.77-19.33c0-10.68,12.88-19.33,28.77-19.33s28.77,8.65,28.77,19.33ZM869.66,377.09c0,20.8-25.09,37.66-56.05,37.66-30.95,0-56.04-16.86-56.04-37.66s25.09-37.66,56.04-37.66c30.95,0,56.04,16.86,56.05,37.66ZM753.42,308.48c0-8.53,10.26-15.45,22.91-15.45,12.65,0,22.91,6.92,22.91,15.45,0,8.53-10.26,15.45-22.91,15.45-12.65,0-22.91-6.92-22.91-15.45ZM785.54,260.47c-9,26.22-50.22,35.83-92.06,21.46-41.84-14.37-68.45-47.27-59.45-73.49,9-26.22,50.22-35.83,92.06-21.46,41.84,14.37,68.45,47.27,59.45,73.49ZM603.12,192.93c-3.71-6.43-.32-15.35,7.59-19.92,7.91-4.56,17.33-3.05,21.04,3.39,3.71,6.43.32,15.35-7.59,19.92-7.91,4.56-17.33,3.05-21.04-3.39ZM685.93,78.45c9.92,21.55-13.76,53.61-52.88,71.61-39.12,18-78.87,15.13-88.78-6.42-9.92-21.55,13.76-53.61,52.88-71.61,39.12-18,78.87-15.13,88.78,6.42ZM546.79-104c20.71-5.55,46.69,24.23,58.02,66.52,11.33,42.29,3.73,81.07-16.99,86.62-20.71,5.55-46.69-24.23-58.02-66.52-11.33-42.29-3.73-81.07,16.99-86.62Z"/>
      </g>
    </g>
  </g>
</svg>