<?xml version="1.0" encoding="UTF-8"?>
<svg id="uuid-b6dfec41-f957-4934-9919-f881a39264a1" data-name="Layer 2" xmlns="http://www.w3.org/2000/svg" viewBox="0 0 538.69 542.19">
  <defs>
    <style>
      .uuid-2fec5a89-9a89-4316-bb26-427fac641fcf {
        fill: #577032;
      }
    </style>
  </defs>
  <g id="uuid-9d13003b-197c-4b39-b1e3-4e68efccb0e6" data-name="Layer 1">
    <path class="uuid-2fec5a89-9a89-4316-bb26-427fac641fcf" d="M265.72,21.58c0,26.13-15.03,47.31-33.57,47.31-18.54,0-33.57-21.18-33.57-47.31,0-4.16.39-8.2,1.1-12.05-6.18,1.68-12.31,3.58-18.38,5.7,3.75,1.28,6.27,3.64,6.27,6.35,0,4.06-5.66,7.35-12.63,7.35-6.36,0-11.6-2.74-12.49-6.3-14.35,6.26-28.26,13.83-41.57,22.7.59,1.02,1.16,2.07,1.66,3.18,5.42,11.97,3.29,24.63-4.76,28.28-7.32,3.32-16.99-1.95-22.77-11.91-5.02,4.29-9.92,8.81-14.7,13.53,9.12-.44,20.06,3.59,29.38,11.69,15.2,13.2,20.32,32.18,11.45,42.4-8.87,10.21-28.38,7.79-43.58-5.42-9.66-8.4-15.25-19.13-15.75-28.46-14.39,17.4-26.28,36.16-35.66,55.83,23.99,7.39,40.21,21.48,40.21,37.65,0,21.11-27.63,38.67-64.11,42.41-1.14,8.33-1.89,16.7-2.25,25.09,2.94-.09,5.8.44,8.46,1.69,12.63,5.91,15.98,25.43,7.48,43.61-3.01,6.43-7.09,11.82-11.68,15.85.78,4.23,1.66,8.44,2.64,12.64,1.79-3.75,3.91-7.52,6.38-11.22,15.53-23.31,38.52-35.26,51.36-26.71,12.84,8.55,10.66,34.38-4.87,57.69-10.56,15.85-24.57,26.44-36.5,28.91,4.45,9.96,9.52,19.71,15.23,29.19,2.19-2.77,5.23-5.02,8.89-6.33,9.73-3.47,20.22,1,23.42,9.98,3.2,8.98-2.1,19.07-11.83,22.54-.69.24-1.37.44-2.07.61,6.83,8.76,14.26,17.19,22.32,25.25,4.33,4.33,8.78,8.47,13.32,12.44,2.69-2.96,5.59-5.82,8.72-8.54,32.77-28.48,77.05-31.19,98.88-6.06,16.17,18.61,15.49,47.26.75,72.44,6.26,1.67,12.57,3.12,18.92,4.33-4.66-17.23-1.93-40.87,8.9-64.02,17.64-37.71,50.04-59.82,72.37-49.37,22.33,10.44,26.14,49.48,8.5,87.19-5.55,11.88-12.57,22.2-20.28,30.45,24.25-1.62,48.32-6.47,71.51-14.56-2.76-4.54-4.39-10.13-4.39-16.19,0-15.13,10.16-27.4,22.7-27.4s21.75,11.17,22.63,25.34c13.26-7.29,26.04-15.77,38.18-25.44-8.96.97-19.37-.75-29.46-5.48-21.79-10.19-33.85-30.46-26.92-45.27,6.93-14.81,30.21-18.55,52-8.36,17.99,8.41,29.33,23.69,28.85,37.09,39.23-39.78,63.68-88.66,73.36-139.78-39.2.7-71.33-17.57-73.19-42.61-1.98-26.51,30.72-50.56,73.02-53.72.36-.03.72-.04,1.09-.06-.92-5.42-2.02-10.81-3.27-16.18-14.42,9.31-35.9,15.23-59.91,15.23-43.42,0-78.61-19.32-78.61-43.16,0-23.84,35.2-43.16,78.61-43.16,12.48,0,24.27,1.6,34.74,4.44-4.59-8.53-9.66-16.87-15.23-24.97-1.4,1.02-2.98,1.88-4.73,2.5-8.33,2.97-17.09-.27-19.57-7.23-2.2-6.17,1.28-13.18,7.89-16.76-2.25-2.66-4.55-5.29-6.92-7.88-18.64,38.49-57.46,58.35-87.29,44.4-30.16-14.11-39.7-57.42-21.3-96.75,2.79-5.96,6.06-11.48,9.71-16.52-27.89-11.25-57.27-17.67-86.86-19.28.72.98,1.36,2.08,1.9,3.27,2.9,6.4,1.76,13.17-2.55,15.12-4.31,1.95-10.15-1.65-13.05-8.05-1.74-3.83-2.01-7.78-1.04-10.76-3.05,0-6.09.07-9.13.17,2.32,6.43,3.64,13.7,3.64,21.41ZM350.72,493.44c0,10.33-5.63,18.71-12.57,18.71s-12.57-8.38-12.57-18.71c0-10.33,5.63-18.71,12.57-18.71s12.57,8.38,12.57,18.71ZM455.34,127.29c-.52-2.58,3.03-5.46,7.93-6.44,4.9-.98,9.28.31,9.8,2.89.52,2.58-3.03,5.46-7.93,6.44-4.9.98-9.28-.31-9.8-2.89ZM328.93,16.25c2.91-4.37,7.24-6.59,9.68-4.97,2.44,1.62,2.05,6.48-.86,10.84-2.91,4.37-7.24,6.59-9.68,4.97-2.44-1.62-2.05-6.48.86-10.84ZM329.02,36.93c1.62-6.03,7.02-9.83,12.06-8.48,5.04,1.35,7.82,7.34,6.21,13.37-1.62,6.03-7.02,9.83-12.06,8.48-5.04-1.35-7.82-7.34-6.21-13.37ZM262.68,76.98c15.17.84,25.89,29.8,23.96,64.7-1.93,34.89-15.79,62.49-30.96,61.66-15.17-.84-25.89-29.8-23.96-64.7,1.93-34.89,15.79-62.49,30.96-61.66ZM334.76,271.37c-8.87,10.21-28.38,7.79-43.58-5.42-15.2-13.2-20.32-32.18-11.45-42.4,8.87-10.21,28.38-7.79,43.58,5.42,15.2,13.2,20.32,32.19,11.45,42.4ZM360.62,288.21c0,4.06-5.66,7.35-12.63,7.35-6.98,0-12.63-3.29-12.63-7.35s5.66-7.35,12.63-7.35c6.98,0,12.63,3.29,12.63,7.35ZM336.15,319.32c-4.57,5.26-16.04,2.77-25.61-5.55-9.58-8.32-13.64-19.33-9.07-24.59,4.57-5.26,16.04-2.77,25.61,5.55,9.58,8.32,13.64,19.33,9.07,24.59ZM144.66,110.23c-15.76-29.33-14.34-60.73,3.17-70.13,17.51-9.4,44.47,6.75,60.22,36.08,15.76,29.33,14.34,60.73-3.17,70.13-17.51,9.4-44.47-6.75-60.22-36.08ZM144.51,152.76c-2.9-6.4-1.76-13.17,2.55-15.12,4.31-1.95,10.15,1.65,13.05,8.05,2.9,6.4,1.76,13.17-2.55,15.12s-10.15-1.65-13.05-8.05ZM166.36,166.62c10.74-10.74,39.48.58,64.19,25.29,24.71,24.71,36.03,53.45,25.29,64.19-10.74,10.74-39.48-.58-64.19-25.29-24.71-24.71-36.03-53.45-25.29-64.19ZM127.04,363.58c-21.86-10.22-27.39-44.57-12.36-76.71,15.03-32.14,44.94-49.91,66.79-39.69,21.86,10.22,27.39,44.57,12.36,76.71-15.03,32.14-44.94,49.91-66.79,39.69ZM210.1,349.5c4.17,4.8.74,14.62-7.68,21.94-8.42,7.31-18.62,9.35-22.79,4.54-4.17-4.8-.74-14.62,7.68-21.94,8.42-7.31,18.62-9.35,22.79-4.54ZM85.77,308.56c-6.71-1.8-10.4-9.76-8.25-17.78,2.15-8.02,9.33-13.07,16.04-11.27,6.71,1.8,10.4,9.76,8.25,17.78s-9.33,13.07-16.04,11.27ZM134.58,223.46c1.62-6.03,7.02-9.83,12.06-8.48,5.04,1.35,7.82,7.34,6.21,13.37-1.62,6.03-7.02,9.83-12.06,8.48-5.04-1.35-7.82-7.34-6.21-13.37ZM229.51,303.24c2.91-4.37,7.24-6.59,9.68-4.97,2.44,1.62,2.05,6.48-.86,10.84-2.91,4.37-7.24,6.59-9.68,4.97-2.44-1.62-2.05-6.48.86-10.84ZM231.11,293.4c-10.33,0-18.71-5.63-18.71-12.57,0-6.94,8.38-12.57,18.71-12.57,10.33,0,18.71,5.63,18.71,12.57s-8.38,12.57-18.71,12.57ZM50.56,126.05c-2.22-4.9-1.35-10.08,1.95-11.57s7.77,1.26,9.99,6.16c2.22,4.9,1.35,10.08-1.95,11.57-3.3,1.49-7.77-1.26-9.99-6.16ZM49.72,150.63c0-6.94,8.38-12.57,18.71-12.57,10.33,0,18.71,5.63,18.71,12.57,0,6.94-8.38,12.57-18.71,12.57-10.33,0-18.71-5.63-18.71-12.57ZM79.71,185.37c0-13.53,16.32-24.49,36.45-24.49,20.13,0,36.45,10.97,36.45,24.49,0,13.53-16.32,24.49-36.45,24.49-20.13,0-36.45-10.97-36.45-24.49ZM25.95,269.14c-6.45-14.01,8.95-34.87,34.39-46.57,25.44-11.71,51.29-9.84,57.74,4.18,6.45,14.01-8.95,34.87-34.39,46.57-25.44,11.71-51.29,9.84-57.74-4.18ZM82.87,323.18c2.73-6.56,7.91-10.65,11.57-9.13,3.66,1.52,4.42,8.08,1.69,14.64-2.73,6.56-7.91,10.65-11.57,9.13-3.66-1.52-4.42-8.08-1.69-14.64ZM76.77,353.52c16.21-5.78,33.12.13,37.77,13.19,4.65,13.06-4.71,28.33-20.92,34.11-16.21,5.78-33.12-.13-37.77-13.19-4.65-13.06,4.71-28.33,20.92-34.11ZM39.59,393.31c-2.44-1.62-2.05-6.48.86-10.84,2.91-4.37,7.24-6.59,9.68-4.97,2.44,1.62,2.05,6.48-.86,10.84-2.91,4.37-7.24,6.59-9.68,4.97ZM118.69,438.75c-3.51,13.11-15.25,21.36-26.21,18.42-10.96-2.94-17-15.95-13.48-29.06,3.51-13.11,15.25-21.36,26.21-18.42,10.96,2.94,17,15.95,13.48,29.06ZM152.31,434.28c-16.43,0-29.75-8.01-29.75-17.9s13.32-17.9,29.75-17.9c16.43,0,29.75,8.01,29.75,17.9,0,9.88-13.32,17.9-29.75,17.9ZM241.05,414.5c5.19,19.39-1.51,38.03-14.98,41.64-13.47,3.61-28.6-9.18-33.79-28.57-5.19-19.39,1.51-38.03,14.98-41.64,13.47-3.61,28.6,9.18,33.79,28.57ZM264.69,415.22c-19.84-1.1-34.43-28.94-32.59-62.18,1.84-33.24,19.42-59.3,39.26-58.2,19.84,1.1,34.43,28.94,32.59,62.18-1.84,33.24-19.42,59.3-39.26,58.2ZM368.23,410.4c7.37,27.5,2.42,52.72-11.05,56.33-13.47,3.61-30.36-15.76-37.73-43.26-7.37-27.5-2.42-52.72,11.05-56.33,13.47-3.61,30.36,15.76,37.73,43.26ZM311.11,342.31c-2.44-1.62-2.05-6.48.86-10.84,2.91-4.37,7.24-6.59,9.68-4.97,2.44,1.62,2.05,6.48-.86,10.84-2.91,4.37-7.24,6.59-9.68,4.97ZM465.59,397.3c-3.95,13.37-29.29,17.68-56.59,9.62-27.31-8.06-46.24-25.44-42.29-38.82,3.95-13.37,29.29-17.68,56.59-9.62,27.31,8.06,46.24,25.44,42.29,38.82ZM391.52,342.67c-20.31,9.34-40.94,7.85-46.09-3.33-5.15-11.19,7.14-27.83,27.45-37.17,20.31-9.34,40.94-7.85,46.09,3.33,5.15,11.19-7.14,27.83-27.45,37.17ZM509.71,384.21c0,6.94-8.38,12.57-18.71,12.57s-18.71-5.63-18.71-12.57c0-6.94,8.38-12.57,18.71-12.57s18.71,5.63,18.71,12.57ZM507.02,343.5c0,13.53-16.32,24.49-36.45,24.49-20.13,0-36.45-10.97-36.45-24.49s16.32-24.49,36.45-24.49c20.13,0,36.45,10.97,36.45,24.49ZM431.42,298.88c0-5.55,6.67-10.05,14.9-10.05,8.23,0,14.9,4.5,14.9,10.05,0,5.55-6.67,10.05-14.9,10.05-8.23,0-14.9-4.5-14.9-10.05ZM452.31,267.66c-5.86,17.05-32.66,23.3-59.87,13.96-27.21-9.34-44.52-30.74-38.66-47.8,5.86-17.05,32.66-23.3,59.87-13.96,27.21,9.34,44.52,30.74,38.66,47.8ZM333.67,223.73c-2.42-4.18-.21-9.98,4.94-12.95,5.14-2.97,11.27-1.98,13.68,2.2s.21,9.98-4.94,12.95c-5.14,2.97-11.27,1.98-13.68-2.2ZM387.53,149.27c6.45,14.01-8.95,34.87-34.39,46.57-25.44,11.71-51.29,9.84-57.74-4.18-6.45-14.01,8.95-34.87,34.39-46.57,25.44-11.71,51.29-9.84,57.74,4.18ZM297.04,30.62c13.47-3.61,30.36,15.76,37.73,43.26,7.37,27.5,2.42,52.72-11.05,56.33-13.47,3.61-30.36-15.76-37.73-43.26-7.37-27.5-2.42-52.72,11.05-56.33Z"/>
  </g>
</svg>