<?xml version="1.0" encoding="UTF-8"?>
<svg id="uuid-26aa3f75-82df-4935-ae81-70479e132c18" data-name="Layer 2" xmlns="http://www.w3.org/2000/svg" viewBox="0 0 428.38 430.69">
  <defs>
    <style>
      .uuid-7f262d72-0053-48fa-b8f3-774578db92c4 {
        fill: #2a7038;
      }
    </style>
  </defs>
  <g id="uuid-7d42a701-0deb-4ccb-86a4-9843f6ea70c9" data-name="Layer 1">
    <path class="uuid-7f262d72-0053-48fa-b8f3-774578db92c4" d="M393.14,132.33c-19.02,8.26-39.19,4.02-45.05-9.47-5.86-13.5,4.8-31.13,23.82-39.4,3.03-1.32,6.09-2.31,9.12-3.01-3.18-3.96-6.49-7.83-9.96-11.57.26,3.13-.66,5.71-2.64,6.57-2.96,1.28-7.14-1.79-9.35-6.87-2.01-4.63-1.68-9.31.63-11.08-9.1-8.46-19-16.19-29.66-23.07-.55.75-1.14,1.5-1.79,2.22-6.99,7.73-16.88,10.18-22.09,5.48-4.73-4.28-3.95-12.98,1.47-20.33-4.71-2.3-9.55-4.44-14.49-6.42,3.21,6.5,3.73,15.74.78,25.08-4.8,15.23-17,24.97-27.24,21.74-10.24-3.23-14.64-18.2-9.84-33.43,3.06-9.69,9.1-17.14,15.73-20.46C255.37,3.33,237.95.61,220.67,0c2.21,19.79-2.92,36.05-14.69,41.17-15.37,6.68-36.88-7.88-51.14-33.25-6.42,1.81-12.75,3.91-18.97,6.29.99,2.11,1.51,4.36,1.45,6.69-.31,11.06-13.46,19.67-29.38,19.23-5.63-.16-10.85-1.43-15.23-3.49-2.83,1.9-5.62,3.88-8.36,5.92,3.29.11,6.71.47,10.18,1.1,21.87,3.93,37.85,16.89,35.68,28.93-2.17,12.05-21.65,18.63-43.52,14.7-14.87-2.67-27.01-9.52-32.58-17.42-5.84,6.39-11.33,13.16-16.43,20.31,2.71.72,5.31,2.22,7.42,4.47,5.6,5.99,5.67,15.03.14,20.2-5.52,5.17-14.54,4.5-20.14-1.48-.39-.42-.75-.86-1.09-1.31-4.21,7.74-8,15.82-11.32,24.23-1.78,4.52-3.38,9.07-4.84,13.63,3.01,1.02,6,2.23,8.97,3.65,31.09,14.85,47.06,46.21,35.68,70.05-8.43,17.65-29.5,26.22-52.48,23.46.76,5.09,1.71,10.14,2.83,15.14,11.07-8.84,29.13-14.33,49.41-13.77,33.02.91,59.36,17.5,58.82,37.06-.54,19.55-27.75,34.67-60.77,33.76-10.4-.29-20.13-2.13-28.58-5.13,8.84,17.13,19.98,33.12,33.21,47.44,2.43-3.44,5.99-6.4,10.4-8.32,11.01-4.79,23.16-1.27,27.12,7.85,3.78,8.7-1.25,19.36-11.29,24.48,9.5,7.35,19.71,13.96,30.59,19.74-3.54-6.21-5.58-14.33-5.33-23.17.53-19.08,11.47-34.27,24.43-33.91,12.97.36,23.05,16.12,22.53,35.2-.43,15.75-7.96,28.83-17.87,32.73,41.36,15.97,84.66,18.31,124.93,9.19-12.91-28.31-9.77-57.47,7.87-66.74,18.67-9.82,46.51,6.37,62.19,36.16.13.26.26.51.39.77,3.65-2.38,7.23-4.89,10.74-7.5-11.34-7.55-22.43-21.31-30.03-38.78-13.73-31.6-10.8-63.33,6.55-70.86,17.35-7.54,42.54,11.97,56.27,43.57,3.95,9.08,6.51,18.17,7.75,26.69,4.76-6.04,9.22-12.37,13.36-18.98-1.18-.7-2.31-1.58-3.32-2.65-4.79-5.12-5.21-12.52-.92-16.53,3.79-3.55,10-3.24,14.7.44,1.22-2.48,2.41-4.98,3.55-7.53-33.91-1.4-60.64-23.37-59.92-49.49.73-26.41,29.24-47.05,63.68-46.1,5.22.14,10.27.78,15.09,1.84-.63-23.86-5.25-47.27-13.44-69.32-.49.83-1.08,1.65-1.78,2.42-3.74,4.14-9.03,5.45-11.81,2.93-2.78-2.52-2.01-7.91,1.73-12.05,2.24-2.47,5.03-3.93,7.5-4.16-.96-2.22-1.97-4.41-3.01-6.59-3.95,3.72-8.82,6.98-14.43,9.42ZM76.6,343.41c-7.52,3.27-15.4,1.82-17.59-3.23-2.2-5.05,2.12-11.8,9.64-15.07,7.52-3.27,15.4-1.82,17.59,3.23,2.2,5.05-2.12,11.8-9.64,15.07ZM376.17,303.77c1.71-1.19,4.94.48,7.2,3.73,2.26,3.25,2.71,6.86.99,8.05-1.71,1.19-4.94-.48-7.2-3.73-2.26-3.25-2.71-6.86-.99-8.05ZM417.01,176.65c4.1.74,7.09,3.19,6.67,5.47-.41,2.29-4.07,3.54-8.16,2.81-4.1-.74-7.09-3.19-6.67-5.47.41-2.29,4.07-3.54,8.16-2.81ZM401.99,183.25c4.9-.73,9.37,2,9.98,6.1.61,4.1-2.87,8.01-7.77,8.74-4.9.73-9.37-2-9.98-6.1-.61-4.1,2.87-8.01,7.77-8.74ZM351.86,147.63c4.18,11.3-13.5,28.27-39.51,37.9-26,9.63-50.48,8.27-54.66-3.03-4.18-11.3,13.5-28.27,39.51-37.9,26-9.63,50.48-8.27,54.66,3.03ZM233.18,261.56c-10.24-3.23-14.64-18.2-9.84-33.43,4.8-15.23,17-24.97,27.24-21.74,10.24,3.23,14.64,18.2,9.84,33.43-4.8,15.23-17,24.97-27.24,21.74ZM229.1,285.72c-2.96,1.28-7.14-1.79-9.35-6.87-2.21-5.08-1.6-10.23,1.36-11.52,2.96-1.28,7.14,1.79,9.35,6.87,2.21,5.08,1.6,10.23-1.36,11.52ZM198.72,277.74c-5.27-1.66-7.09-10.79-4.06-20.4,3.03-9.6,9.76-16.04,15.03-14.38,5.27,1.66,7.09,10.79,4.06,20.4-3.03,9.6-9.76,16.04-15.03,14.38ZM290.34,72.26c16.36-20.74,39.67-29.64,52.05-19.87,12.38,9.77,9.15,34.5-7.22,55.24-16.36,20.74-39.67,29.64-52.05,19.87-12.38-9.77-9.15-34.5,7.22-55.24ZM259.34,85.6c3.74-4.14,9.03-5.45,11.81-2.93,2.78,2.52,2.01,7.91-1.73,12.05-3.74,4.14-9.03,5.45-11.81,2.93-2.78-2.52-2.01-7.91,1.73-12.05ZM256.16,105.88c11.21,4.42,12.06,28.92,1.89,54.71-10.17,25.8-27.5,43.13-38.72,38.71s-12.06-28.92-1.89-54.71c10.17-25.8,27.5-43.13,38.72-38.71ZM100.38,139.55c.53-19.14,23.77-34.03,51.92-33.25,28.15.78,50.54,16.92,50.01,36.06-.53,19.14-23.77,34.03-51.92,33.25-28.15-.78-50.54-16.92-50.01-36.06ZM136.89,195.55c-2.18,4.56-10.41,5.16-18.39,1.35-7.98-3.81-12.69-10.6-10.51-15.15,2.18-4.56,10.41-5.16,18.39-1.35,7.98,3.81,12.69,10.6,10.51,15.15ZM127.37,92.12c-.81-5.45,3.81-10.66,10.33-11.63,6.52-.97,12.46,2.66,13.27,8.11.81,5.45-3.81,10.66-10.33,11.63s-12.46-2.66-13.27-8.11ZM204.74,100.73c4.9-.73,9.37,2,9.98,6.1.61,4.1-2.87,8.01-7.77,8.74-4.9.73-9.37-2-9.98-6.1-.61-4.1,2.87-8.01,7.77-8.74ZM176.7,195.04c4.1.74,7.09,3.19,6.67,5.47-.41,2.29-4.07,3.54-8.16,2.81-4.1-.74-7.09-3.19-6.67-5.47.41-2.29,4.07-3.54,8.16-2.81ZM184.37,193.1c-3.27-7.52-1.82-15.4,3.23-17.59,5.05-2.2,11.8,2.12,15.07,9.64,3.27,7.52,1.82,15.4-3.23,17.59-5.05,2.2-11.8-2.12-15.07-9.64ZM249.07,8.77c2.86-3.16,6.91-4.17,9.04-2.24s1.54,6.05-1.33,9.22c-2.86,3.16-6.91,4.17-9.04,2.24-2.13-1.93-1.54-6.05,1.33-9.22ZM230.92,15.94c5.05-2.2,11.8,2.12,15.07,9.64,3.27,7.52,1.82,15.4-3.23,17.59-5.05,2.2-11.8-2.12-15.07-9.64-3.27-7.52-1.82-15.4,3.23-17.59ZM215.11,48.75c9.85-4.28,22.99,4.13,29.35,18.78,6.37,14.65,3.54,30-6.3,34.27-9.85,4.28-22.99-4.13-29.35-18.78-6.37-14.65-3.54-30,6.3-34.27ZM137.15,36.11c8.16-9.13,28.2-4.51,44.77,10.3,16.57,14.81,23.38,34.22,15.22,43.35-8.16,9.13-28.2,4.51-44.77-10.3-16.57-14.81-23.38-34.22-15.22-43.35ZM115.82,94.62c5.64-.09,10.25,2.39,10.3,5.53.05,3.15-4.48,5.77-10.12,5.86-5.64.09-10.25-2.39-10.3-5.53-.05-3.15,4.48-5.77,10.12-5.86ZM91.8,99.78c9.33,9.97,10.38,24.15,2.34,31.66-8.03,7.52-22.11,5.53-31.44-4.44-9.33-9.97-10.38-24.15-2.34-31.66,8.03-7.52,22.11-5.53,31.44,4.44ZM51.09,85.31c.41-2.29,4.07-3.54,8.16-2.81,4.1.74,7.09,3.19,6.67,5.47-.41,2.29-4.07,3.54-8.16,2.81-4.1-.74-7.09-3.19-6.67-5.47ZM43.03,157.25c-10.65,1.59-20.36-4.34-21.69-13.25-1.33-8.91,6.23-17.41,16.88-19,10.65-1.59,20.36,4.34,21.69,13.25,1.33,8.91-6.23,17.41-16.88,19ZM56.92,180.3c-5.2-11.96-3.58-24.18,3.62-27.31,7.19-3.13,17.24,4.03,22.43,15.99,5.2,11.96,3.58,24.18-3.62,27.31-7.19,3.13-17.24-4.03-22.43-15.99ZM99.37,238.63c-12.47,9.91-28.15,10.92-35.04,2.26-6.89-8.66-2.36-23.72,10.1-33.63,12.47-9.91,28.15-10.92,35.04-2.26,6.89,8.66,2.36,23.72-10.1,33.63ZM106.33,256.06c-5.47-14.79,10.17-34.21,34.95-43.38,24.78-9.17,49.3-4.62,54.77,10.16,5.47,14.79-10.17,34.21-34.95,43.38-24.78,9.17-49.3,4.62-54.77-10.16ZM142.57,329.9c-17.69,14.06-37.61,18.44-44.49,9.77s1.87-27.08,19.55-41.14c17.69-14.06,37.61-18.44,44.49-9.77,6.89,8.66-1.87,27.08-19.55,41.14ZM174.07,266.79c.41-2.29,4.07-3.54,8.16-2.81,4.1.74,7.09,3.19,6.67,5.47-.41,2.29-4.07,3.54-8.16,2.81-4.1-.74-7.09-3.19-6.67-5.47ZM182.9,396.61c-10.98,1.36-22.13-15.72-24.9-38.15-2.77-22.42,3.89-41.7,14.88-43.06,10.98-1.36,22.13,15.72,24.9,38.15,2.77,22.42-3.89,41.7-14.88,43.06ZM199.23,325.42c-13.22-11.82-18.66-27.31-12.15-34.6,6.51-7.28,22.51-3.6,35.74,8.22,13.22,11.82,18.66,27.31,12.15,34.6-6.51,7.28-22.51,3.6-35.74-8.22ZM206.38,424.57c-5.05,2.2-11.8-2.12-15.07-9.64-3.27-7.52-1.82-15.4,3.23-17.59,5.05-2.2,11.8,2.12,15.07,9.64,3.27,7.52,1.82,15.4-3.23,17.59ZM235.16,409.74c-9.85,4.28-22.99-4.13-29.35-18.78-6.37-14.65-3.54-30,6.3-34.27,9.85-4.28,22.99,4.13,29.35,18.78,6.37,14.65,3.54,30-6.3,34.27ZM243.73,340.62c4.04-1.75,9.42,1.68,12.02,7.67,2.6,5.99,1.44,12.27-2.6,14.02-4.04,1.75-9.42-1.68-12.02-7.67-2.6-5.99-1.44-12.27,2.6-14.02ZM273.05,345.94c-14.26,1.13-27.29-16.4-29.09-39.16-1.8-22.76,8.3-42.12,22.56-43.25,14.26-1.13,27.29,16.4,29.09,39.16,1.8,22.76-8.3,42.12-22.56,43.25ZM267.51,245.71c2.28-3.08,7.2-3.31,10.99-.5,3.79,2.8,5.01,7.57,2.73,10.66-2.28,3.08-7.2,3.31-10.99.5-3.79-2.8-5.01-7.57-2.73-10.66ZM338.72,261.36c-8.16,9.13-28.2,4.51-44.77-10.3-16.57-14.81-23.38-34.22-15.22-43.34,8.16-9.13,28.2-4.51,44.77,10.3,16.57,14.81,23.38,34.22,15.22,43.34ZM396.46,157.98c6.89,8.66-1.87,27.08-19.55,41.14-17.69,14.06-37.61,18.44-44.49,9.77-6.89-8.66,1.87-27.08,19.55-41.14,17.69-14.06,37.61-18.44,44.49-9.77Z"/>
  </g>
</svg>