<?xml version="1.0" encoding="UTF-8"?>
<svg id="uuid-32f3f0bf-7d05-4758-95ff-c1471ac87f93" data-name="Layer 2" xmlns="http://www.w3.org/2000/svg" viewBox="0 0 530.3 530.55">
  <defs>
    <style>
      .uuid-8cca734b-5e09-457e-aed2-3aca5fb9ee72 {
        fill: #217050;
      }
    </style>
  </defs>
  <g id="uuid-f61e93dc-749a-4396-8260-7619be674b43" data-name="Layer 1">
    <path class="uuid-8cca734b-5e09-457e-aed2-3aca5fb9ee72" d="M434.22,88.86c-18.06,18.06-43.09,22.31-55.91,9.5-12.82-12.82-8.57-37.85,9.5-55.91,2.88-2.88,5.93-5.4,9.09-7.56-5.43-3.11-10.98-6.03-16.64-8.76,1.71,3.47,1.82,6.85-.05,8.72-2.81,2.81-8.99,1.17-13.81-3.65-4.39-4.39-6.13-9.91-4.28-12.98-14.25-5.59-29.09-9.97-44.42-13.04-.29,1.11-.63,2.23-1.05,3.35-4.52,12.02-14.75,19.3-22.84,16.25-7.35-2.76-10.39-13.09-7.51-23.97-6.44-.5-12.95-.77-19.51-.81,6.61,6,11.38,16.35,12.23,28.39,1.38,19.63-8.2,36.29-21.39,37.22-13.19.93-25-14.24-26.38-33.87-.88-12.48,2.68-23.76,8.78-30.56-21.97,2.08-43.16,6.83-63.24,13.94,11.47,21.69,12.94,42.64,1.76,53.82-14.59,14.59-45.83,7.64-73.63-15-6.54,4.97-12.85,10.24-18.9,15.78,2.09,1.97,3.7,4.31,4.68,7.01,4.65,12.81-6.53,28.63-24.98,35.31-6.52,2.37-13.07,3.27-19.03,2.89-2.38,3.46-4.69,6.98-6.91,10.56,3.83-1.36,7.9-2.49,12.16-3.34,26.84-5.38,51,2.25,53.96,17.04,2.96,14.79-16.4,31.13-43.24,36.51-18.25,3.66-35.26,1.29-45.21-5.24-3.81,9.96-7.04,20.21-9.65,30.7,3.43-.4,7.08.14,10.52,1.77,9.12,4.33,13.28,14.66,9.29,23.08-3.99,8.42-14.63,11.73-23.75,7.4-.64-.3-1.25-.65-1.85-1.01-1.33,10.77-2.03,21.74-2.03,32.88,0,5.99.22,11.92.61,17.81,3.91-.19,7.89-.16,11.93.13,42.34,2.97,74.81,31.7,72.53,64.16-1.69,24.04-21.96,43.37-49.55,50.59,3.17,5.48,6.54,10.84,10.08,16.07,8.69-15.13,26.92-29.58,50.4-38.1,38.26-13.88,75.93-6.76,84.15,15.89,8.22,22.65-16.14,52.27-54.39,66.14-12.05,4.37-24.04,6.65-35.07,7.03,17.88,15.64,37.87,28.93,59.49,39.36,1.23-5.04,3.97-10.04,8.16-14.23,10.46-10.46,25.96-11.92,34.63-3.25,8.27,8.27,7.31,22.76-1.87,33.15,14.2,4.13,28.89,7.1,43.97,8.81-6.86-5.52-12.87-13.91-16.58-24.15-8.02-22.11-2.34-44.45,12.68-49.9,15.02-5.45,33.7,8.06,41.72,30.17,6.62,18.25,3.9,36.64-5.69,45.58,54.61-.39,105.3-17.26,147.32-45.91-27.58-26.61-37.15-61.45-21.14-80.04,16.96-19.69,56.18-13.72,87.6,13.34.27.23.53.47.79.71,3.11-4.38,6.08-8.87,8.92-13.44-16.4-3.53-35.34-14.29-51.93-30.88-30.01-30.01-40.98-67.69-24.51-84.17,16.47-16.47,54.16-5.5,84.17,24.51,8.62,8.62,15.66,17.88,20.94,27.08,2.72-9.07,4.98-18.34,6.73-27.78-1.67-.27-3.36-.76-5-1.54-7.81-3.7-11.62-12-8.53-18.52,2.74-5.78,9.99-8.23,17.04-6.13.28-3.39.51-6.8.67-10.23-39.49,13.72-80.05.62-91.02-29.64-11.1-30.59,12.25-67.13,52.15-81.6,6.05-2.19,12.13-3.74,18.13-4.71-11.5-27.05-27.37-51.8-46.71-73.37-.18,1.18-.5,2.38-.95,3.58-2.42,6.43-7.89,10.32-12.22,8.69-4.33-1.63-5.88-8.16-3.46-14.59,1.45-3.85,3.99-6.77,6.72-8.16-2.1-2.11-4.26-4.16-6.43-6.2-2.84,6.05-6.96,11.99-12.29,17.32ZM166.83,473.75c-7.14,7.14-16.82,9.04-21.62,4.24-4.8-4.8-2.9-14.48,4.24-21.62,7.14-7.14,16.82-9.04,21.62-4.24,4.8,4.8,2.9,14.48-4.24,21.62ZM492.22,292.99c1.42-2.14,5.87-1.68,9.94,1.03,4.06,2.71,6.2,6.63,4.78,8.77-1.42,2.14-5.87,1.68-9.94-1.03-4.06-2.71-6.2-6.63-4.78-8.77ZM481.6,128.86c5.03-1.01,9.56.45,10.12,3.26s-3.06,5.9-8.09,6.9c-5.03,1.01-9.56-.45-10.12-3.26-.56-2.81,3.06-5.9,8.09-6.9ZM467.37,143.22c5.29-3.05,11.64-1.94,14.19,2.48,2.55,4.42.33,10.48-4.95,13.53-5.29,3.05-11.64,1.94-14.19-2.48-2.55-4.42-.33-10.48,4.95-13.53ZM393.83,125.04c9.9,11.06-2.7,38.5-28.15,61.28-25.45,22.78-54.11,32.28-64.01,21.22-9.9-11.06,2.7-38.5,28.15-61.28,25.45-22.78,54.11-32.28,64.01-21.22ZM309.29,309.23c-13.19.93-25-14.24-26.38-33.87-1.38-19.63,8.2-36.29,21.39-37.22,13.19-.93,25,14.24,26.38,33.87,1.38,19.63-8.2,36.29-21.39,37.22ZM315.53,338.75c-2.81,2.81-8.99,1.17-13.81-3.65-4.82-4.82-6.46-11.01-3.65-13.81,2.81-2.81,8.99-1.17,13.81,3.65,4.82,4.82,6.46,11.01,3.65,13.81ZM277.11,343.33c-6.79.48-13-9.17-13.87-21.54-.87-12.37,3.93-22.79,10.73-23.26,6.79-.48,13,9.17,13.87,21.54.87,12.37-3.93,22.79-10.73,23.26ZM289.27,66.46c9.38-31.16,32.07-51.89,50.67-46.29,18.6,5.6,26.07,35.4,16.69,66.57-9.38,31.16-32.07,51.89-50.67,46.29-18.6-5.6-26.07-35.4-16.69-66.57ZM259.78,95.75c2.42-6.43,7.89-10.32,12.22-8.69,4.33,1.63,5.88,8.16,3.46,14.59-2.42,6.43-7.89,10.32-12.22,8.69-4.33-1.63-5.88-8.16-3.46-14.59ZM265.29,120.43c14.85,0,26.88,27.69,26.88,61.85s-12.04,61.85-26.88,61.85-26.88-27.69-26.88-61.85,12.04-61.85,26.88-61.85ZM101.99,229.39c-8.04-22.17,11.87-49.73,44.48-61.56,32.61-11.83,65.56-3.44,73.6,18.73,8.04,22.17-11.87,49.73-44.48,61.56-32.61,11.83-65.56,3.44-73.6-18.73ZM169.12,277.07c-.44,6.2-9.6,10.62-20.47,9.85-10.87-.76-19.33-6.41-18.89-12.62.44-6.2,9.6-10.62,20.47-9.85,10.87.76,19.33,6.41,18.89,12.62ZM111.49,162.84c-3.39-5.88-.45-13.93,6.59-17.99,7.03-4.06,15.48-2.58,18.87,3.29,3.39,5.88.45,13.93-6.59,17.99-7.03,4.06-15.48,2.58-18.87-3.29ZM204.04,137.76c5.29-3.05,11.64-1.94,14.19,2.48,2.55,4.42.33,10.48-4.95,13.53-5.29,3.05-11.64,1.94-14.19-2.48-2.55-4.42-.33-10.48,4.95-13.53ZM214.52,258.51c5.03-1.01,9.56.45,10.12,3.26.56,2.81-3.06,5.9-8.09,6.9-5.03,1.01-9.56-.45-10.12-3.26-.56-2.81,3.06-5.9,8.09-6.9ZM222.43,252.81c-7.14-7.14-9.04-16.82-4.24-21.62,4.8-4.8,14.48-2.9,21.62,4.24,7.14,7.14,9.04,16.82,4.24,21.62s-14.48,2.9-21.62-4.24ZM213.3,12.35c1.85-4.92,6.04-7.9,9.35-6.65,3.31,1.25,4.5,6.24,2.65,11.16s-6.04,7.9-9.35,6.65c-3.31-1.25-4.5-6.24-2.65-11.16ZM195.73,28.76c4.8-4.8,14.48-2.9,21.62,4.24,7.14,7.14,9.04,16.82,4.24,21.62-4.8,4.8-14.48,2.9-21.62-4.24-7.14-7.14-9.04-16.82-4.24-21.62ZM192.45,73.5c9.35-9.35,28.21-5.65,42.12,8.26,13.91,13.91,17.61,32.77,8.26,42.12-9.35,9.35-28.21,5.65-42.12-8.26-13.91-13.91-17.61-32.77-8.26-42.12ZM97.39,94.24c5.23-14.14,30.28-17.91,55.96-8.42,25.68,9.49,42.25,28.65,37.02,42.8-5.23,14.14-30.28,17.91-55.96,8.42-25.68-9.49-42.25-28.65-37.02-42.8ZM99.38,170.93c6.42-2.65,12.83-1.9,14.31,1.69,1.48,3.58-2.53,8.64-8.95,11.29-6.42,2.65-12.83,1.9-14.31-1.69-1.48-3.58,2.53-8.64,8.95-11.29ZM74.19,187.69c15.19,7.21,22.8,22.98,16.99,35.23-5.81,12.24-22.84,16.33-38.03,9.11-15.19-7.21-22.8-22.98-16.99-35.23s22.84-16.33,38.03-9.11ZM20.99,189.5c-.56-2.81,3.06-5.9,8.09-6.9,5.03-1.01,9.56.45,10.12,3.26.56,2.81-3.06,5.9-8.09,6.9-5.03,1.01-9.56-.45-10.12-3.26ZM44.25,275.58c-11.49,6.63-25.3,4.22-30.84-5.38-5.55-9.61-.73-22.77,10.76-29.4,11.49-6.63,25.3-4.22,30.84,5.38,5.55,9.61.73,22.77-10.76,29.4ZM70.59,295.72c-11.36-11.36-15.02-26.1-8.19-32.93s21.58-3.17,32.93,8.19c11.36,11.36,15.02,26.1,8.19,32.93-6.83,6.83-21.58,3.17-32.93-8.19ZM145.59,343.39c-9.81,16.99-27.33,25.24-39.14,18.42-11.81-6.82-13.42-26.11-3.61-43.1,9.81-16.99,27.33-25.24,39.14-18.42s13.42,26.11,3.61,43.1ZM161.44,360.23c-12.95-14.47-3.8-43.8,20.45-65.51,24.25-21.71,54.41-27.57,67.36-13.1,12.95,14.47,3.8,43.8-20.45,65.51-24.25,21.71-54.41,27.57-67.36,13.1ZM236.33,428.46c-13.92,24.1-34.77,38.12-46.57,31.3-11.81-6.82-10.09-31.88,3.82-55.98,13.92-24.1,34.77-38.12,46.57-31.3,11.81,6.82,10.09,31.88-3.82,55.98ZM243.91,341.91c-.56-2.81,3.06-5.9,8.09-6.9,5.03-1.01,9.56.45,10.12,3.26.56,2.81-3.06,5.9-8.09,6.9-5.03,1.01-9.56-.45-10.12-3.26ZM312.68,486.7c-11.97,6.51-32.46-8.02-45.76-32.47-13.3-24.45-14.38-49.55-2.4-56.06,11.97-6.51,32.46,8.02,45.76,32.47,13.3,24.45,14.38,49.55,2.4,56.06ZM299.24,397.74c-20.5-7.58-33.73-22.87-29.55-34.16,4.17-11.29,24.17-14.3,44.67-6.72,20.5,7.58,33.73,22.87,29.55,34.16-4.17,11.29-24.17,14.3-44.67,6.72ZM352.22,508.14c-4.8,4.8-14.48,2.9-21.62-4.24s-9.04-16.82-4.24-21.62c4.8-4.8,14.48-2.9,21.62,4.24,7.14,7.14,9.04,16.82,4.24,21.62ZM378.5,478.14c-9.35,9.35-28.21,5.65-42.12-8.26-13.91-13.91-17.61-32.77-8.26-42.12,9.35-9.35,28.21-5.65,42.12,8.26,13.91,13.91,17.61,32.77,8.26,42.12ZM357.09,395.05c3.84-3.84,11.56-2.33,17.24,3.35,5.69,5.69,7.19,13.41,3.35,17.24-3.84,3.84-11.56,2.33-17.24-3.35-5.69-5.69-7.19-13.41-3.35-17.24ZM393.1,387.91c-15.83,7.74-38.68-6.47-51.03-31.73-12.35-25.27-9.52-52.02,6.31-59.76,15.83-7.74,38.68,6.47,51.03,31.73,12.35,25.27,9.52,52.02-6.31,59.76ZM341.47,275.55c1.22-4.56,6.76-7.04,12.36-5.54,5.61,1.5,9.16,6.42,7.94,10.98-1.22,4.56-6.76,7.04-12.36,5.54-5.61-1.5-9.16-6.42-7.94-10.98ZM430.16,261.31c-5.23,14.14-30.28,17.91-55.96,8.42-25.68-9.49-42.25-28.65-37.02-42.8,5.23-14.14,30.28-17.91,55.96-8.42,25.68,9.49,42.25,28.65,37.02,42.8ZM449.62,116.75c11.81,6.82,10.09,31.88-3.82,55.98-13.92,24.1-34.77,38.12-46.57,31.3-11.81-6.82-10.09-31.88,3.82-55.98,13.92-24.1,34.77-38.12,46.57-31.3Z"/>
  </g>
</svg>