<?xml version="1.0" encoding="UTF-8"?>
<svg id="uuid-33205653-6fb9-4590-a75b-2050a7d52f26" data-name="Layer 3" xmlns="http://www.w3.org/2000/svg" viewBox="0 0 841.89 2744.16">
  <defs>
    <style>
      .uuid-acad87b5-69ac-4687-8494-d8704cca7f56 {
        fill: #217050;
      }

      .uuid-acad87b5-69ac-4687-8494-d8704cca7f56, .uuid-f69ccb40-2811-4772-9c30-674094cd2e50, .uuid-a478f3a5-0cb0-40ba-b5a6-fda689bd6c05 {
        opacity: .66;
      }

      .uuid-f69ccb40-2811-4772-9c30-674094cd2e50 {
        fill: #577032;
      }

      .uuid-a478f3a5-0cb0-40ba-b5a6-fda689bd6c05 {
        fill: #2a7038;
      }
    </style>
  </defs>
  <path class="uuid-acad87b5-69ac-4687-8494-d8704cca7f56" d="M339.67,33.76c-18.06,18.06-43.09,22.31-55.91,9.5-12.82-12.82-8.57-37.85,9.5-55.91,2.88-2.88,5.93-5.4,9.09-7.56-5.43-3.11-10.98-6.03-16.64-8.76,1.71,3.47,1.82,6.85-.05,8.72-2.81,2.81-8.99,1.17-13.81-3.65-4.39-4.39-6.13-9.91-4.28-12.98-14.25-5.59-29.09-9.97-44.42-13.04-.29,1.11-.63,2.23-1.05,3.35-4.52,12.02-14.75,19.3-22.84,16.25-7.35-2.76-10.39-13.09-7.51-23.97-6.44-.5-12.95-.77-19.51-.81,6.61,6,11.38,16.35,12.23,28.39,1.38,19.63-8.2,36.29-21.39,37.22-13.19.93-25-14.24-26.38-33.87-.88-12.48,2.68-23.76,8.78-30.56-21.97,2.08-43.16,6.83-63.24,13.94,11.47,21.69,12.94,42.64,1.76,53.82-14.59,14.59-45.83,7.64-73.63-15C3.83,3.81-2.48,9.08-8.53,14.62c2.09,1.97,3.7,4.31,4.68,7.01,4.65,12.81-6.53,28.63-24.98,35.31-6.52,2.37-13.07,3.27-19.03,2.89-2.38,3.46-4.69,6.98-6.91,10.56,3.83-1.36,7.9-2.49,12.16-3.34,26.84-5.38,51,2.25,53.96,17.04,2.96,14.79-16.4,31.13-43.24,36.51-18.25,3.66-35.26,1.29-45.21-5.24-3.81,9.96-7.04,20.21-9.65,30.7,3.43-.4,7.08.14,10.52,1.77,9.12,4.33,13.28,14.66,9.29,23.08-3.99,8.42-14.63,11.73-23.75,7.4-.64-.3-1.25-.65-1.85-1.01-1.33,10.77-2.03,21.74-2.03,32.88,0,5.99.22,11.92.61,17.81,3.91-.19,7.89-.16,11.93.13,42.34,2.97,74.81,31.7,72.53,64.16-1.69,24.04-21.96,43.37-49.55,50.59,3.17,5.48,6.54,10.84,10.08,16.07,8.69-15.13,26.92-29.58,50.4-38.1,38.26-13.88,75.93-6.76,84.15,15.89,8.22,22.65-16.14,52.27-54.39,66.14-12.05,4.37-24.04,6.65-35.07,7.03,17.88,15.64,37.87,28.93,59.49,39.36,1.23-5.04,3.97-10.04,8.16-14.23,10.46-10.46,25.96-11.92,34.63-3.25,8.27,8.27,7.31,22.76-1.87,33.15,14.2,4.13,28.89,7.1,43.97,8.81-6.86-5.52-12.87-13.91-16.58-24.15-8.02-22.11-2.34-44.45,12.68-49.9,15.02-5.45,33.7,8.06,41.72,30.17,6.62,18.25,3.9,36.64-5.69,45.58,54.61-.39,105.3-17.26,147.32-45.91-27.58-26.61-37.15-61.45-21.14-80.04,16.96-19.69,56.18-13.72,87.6,13.34.27.23.53.47.79.71,3.11-4.38,6.08-8.87,8.92-13.44-16.4-3.53-35.34-14.29-51.93-30.88-30.01-30.01-40.98-67.69-24.51-84.17,16.47-16.47,54.16-5.5,84.17,24.51,8.62,8.62,15.66,17.88,20.94,27.08,2.72-9.07,4.98-18.34,6.73-27.78-1.67-.27-3.36-.76-5-1.54-7.81-3.7-11.62-12-8.53-18.52,2.74-5.78,9.99-8.23,17.04-6.13.28-3.39.51-6.8.67-10.23-39.49,13.72-80.05.62-91.02-29.64-11.1-30.59,12.25-67.13,52.15-81.6,6.05-2.19,12.13-3.74,18.13-4.71-11.5-27.05-27.37-51.8-46.71-73.37-.18,1.18-.5,2.38-.95,3.58-2.42,6.43-7.89,10.32-12.22,8.69-4.33-1.63-5.88-8.16-3.46-14.59,1.45-3.85,3.99-6.77,6.72-8.16-2.1-2.11-4.26-4.16-6.43-6.2-2.84,6.05-6.96,11.99-12.29,17.32ZM72.27,418.65c-7.14,7.14-16.82,9.04-21.62,4.24-4.8-4.8-2.9-14.48,4.24-21.62,7.14-7.14,16.82-9.04,21.62-4.24,4.8,4.8,2.9,14.48-4.24,21.62ZM397.67,237.89c1.42-2.14,5.87-1.68,9.94,1.03,4.06,2.71,6.2,6.63,4.78,8.77-1.42,2.14-5.87,1.68-9.94-1.03-4.06-2.71-6.2-6.63-4.78-8.77ZM387.05,73.76c5.03-1.01,9.56.45,10.12,3.26s-3.06,5.9-8.09,6.9c-5.03,1.01-9.56-.45-10.12-3.26-.56-2.81,3.06-5.9,8.09-6.9ZM372.81,88.11c5.29-3.05,11.64-1.94,14.19,2.48,2.55,4.42.33,10.48-4.95,13.53-5.29,3.05-11.64,1.94-14.19-2.48-2.55-4.42-.33-10.48,4.95-13.53ZM299.27,69.94c9.9,11.06-2.7,38.5-28.15,61.28-25.45,22.78-54.11,32.28-64.01,21.22-9.9-11.06,2.7-38.5,28.15-61.28,25.45-22.78,54.11-32.28,64.01-21.22ZM214.74,254.12c-13.19.93-25-14.24-26.38-33.87-1.38-19.63,8.2-36.29,21.39-37.22,13.19-.93,25,14.24,26.38,33.87,1.38,19.63-8.2,36.29-21.39,37.22ZM220.97,283.64c-2.81,2.81-8.99,1.17-13.81-3.65-4.82-4.82-6.46-11.01-3.65-13.81,2.81-2.81,8.99-1.17,13.81,3.65,4.82,4.82,6.46,11.01,3.65,13.81ZM182.55,288.23c-6.79.48-13-9.17-13.87-21.54-.87-12.37,3.93-22.79,10.73-23.26,6.79-.48,13,9.17,13.87,21.54.87,12.37-3.93,22.79-10.73,23.26ZM194.72,11.36c9.38-31.16,32.07-51.89,50.67-46.29,18.6,5.6,26.07,35.4,16.69,66.57-9.38,31.16-32.07,51.89-50.67,46.29-18.6-5.6-26.07-35.4-16.69-66.57ZM165.22,40.65c2.42-6.43,7.89-10.32,12.22-8.69,4.33,1.63,5.88,8.16,3.46,14.59-2.42,6.43-7.89,10.32-12.22,8.69-4.33-1.63-5.88-8.16-3.46-14.59ZM170.74,65.33c14.85,0,26.88,27.69,26.88,61.85s-12.04,61.85-26.88,61.85-26.88-27.69-26.88-61.85,12.04-61.85,26.88-61.85ZM7.43,174.29c-8.04-22.17,11.87-49.73,44.48-61.56,32.61-11.83,65.56-3.44,73.6,18.73,8.04,22.17-11.87,49.73-44.48,61.56-32.61,11.83-65.56,3.44-73.6-18.73ZM74.57,221.97c-.44,6.2-9.6,10.62-20.47,9.85-10.87-.76-19.33-6.41-18.89-12.62.44-6.2,9.6-10.62,20.47-9.85,10.87.76,19.33,6.41,18.89,12.62ZM16.93,107.74c-3.39-5.88-.45-13.93,6.59-17.99,7.03-4.06,15.48-2.58,18.87,3.29,3.39,5.88.45,13.93-6.59,17.99-7.03,4.06-15.48,2.58-18.87-3.29ZM109.49,82.65c5.29-3.05,11.64-1.94,14.19,2.48,2.55,4.42.33,10.48-4.95,13.53-5.29,3.05-11.64,1.94-14.19-2.48-2.55-4.42-.33-10.48,4.95-13.53ZM119.96,203.4c5.03-1.01,9.56.45,10.12,3.26.56,2.81-3.06,5.9-8.09,6.9-5.03,1.01-9.56-.45-10.12-3.26-.56-2.81,3.06-5.9,8.09-6.9ZM127.87,197.71c-7.14-7.14-9.04-16.82-4.24-21.62,4.8-4.8,14.48-2.9,21.62,4.24,7.14,7.14,9.04,16.82,4.24,21.62s-14.48,2.9-21.62-4.24ZM118.75-42.75c1.85-4.92,6.04-7.9,9.35-6.65,3.31,1.25,4.5,6.24,2.65,11.16s-6.04,7.9-9.35,6.65c-3.31-1.25-4.5-6.24-2.65-11.16ZM101.18-26.34c4.8-4.8,14.48-2.9,21.62,4.24,7.14,7.14,9.04,16.82,4.24,21.62-4.8,4.8-14.48,2.9-21.62-4.24-7.14-7.14-9.04-16.82-4.24-21.62ZM97.89,18.4c9.35-9.35,28.21-5.65,42.12,8.26,13.91,13.91,17.61,32.77,8.26,42.12-9.35,9.35-28.21,5.65-42.12-8.26-13.91-13.91-17.61-32.77-8.26-42.12ZM2.83,39.13c5.23-14.14,30.28-17.91,55.96-8.42,25.68,9.49,42.25,28.65,37.02,42.8-5.23,14.14-30.28,17.91-55.96,8.42C14.18,72.44-2.4,53.28,2.83,39.13ZM4.82,115.83c6.42-2.65,12.83-1.9,14.31,1.69,1.48,3.58-2.53,8.64-8.95,11.29-6.42,2.65-12.83,1.9-14.31-1.69-1.48-3.58,2.53-8.64,8.95-11.29ZM-20.37,132.59c15.19,7.21,22.8,22.98,16.99,35.23-5.81,12.24-22.84,16.33-38.03,9.11-15.19-7.21-22.8-22.98-16.99-35.23s22.84-16.33,38.03-9.11ZM-73.56,134.4c-.56-2.81,3.06-5.9,8.09-6.9,5.03-1.01,9.56.45,10.12,3.26.56,2.81-3.06,5.9-8.09,6.9-5.03,1.01-9.56-.45-10.12-3.26ZM-50.3,220.48c-11.49,6.63-25.3,4.22-30.84-5.38-5.55-9.61-.73-22.77,10.76-29.4,11.49-6.63,25.3-4.22,30.84,5.38,5.55,9.61.73,22.77-10.76,29.4ZM-23.97,240.62c-11.36-11.36-15.02-26.1-8.19-32.93s21.58-3.17,32.93,8.19c11.36,11.36,15.02,26.1,8.19,32.93-6.83,6.83-21.58,3.17-32.93-8.19ZM51.03,288.29c-9.81,16.99-27.33,25.24-39.14,18.42-11.81-6.82-13.42-26.11-3.61-43.1,9.81-16.99,27.33-25.24,39.14-18.42s13.42,26.11,3.61,43.1ZM66.88,305.13c-12.95-14.47-3.8-43.8,20.45-65.51,24.25-21.71,54.41-27.57,67.36-13.1,12.95,14.47,3.8,43.8-20.45,65.51-24.25,21.71-54.41,27.57-67.36,13.1ZM141.77,373.36c-13.92,24.1-34.77,38.12-46.57,31.3-11.81-6.82-10.09-31.88,3.82-55.98,13.92-24.1,34.77-38.12,46.57-31.3,11.81,6.82,10.09,31.88-3.82,55.98ZM149.36,286.81c-.56-2.81,3.06-5.9,8.09-6.9,5.03-1.01,9.56.45,10.12,3.26.56,2.81-3.06,5.9-8.09,6.9-5.03,1.01-9.56-.45-10.12-3.26ZM218.12,431.6c-11.97,6.51-32.46-8.02-45.76-32.47-13.3-24.45-14.38-49.55-2.4-56.06,11.97-6.51,32.46,8.02,45.76,32.47,13.3,24.45,14.38,49.55,2.4,56.06ZM204.69,342.64c-20.5-7.58-33.73-22.87-29.55-34.16,4.17-11.29,24.17-14.3,44.67-6.72,20.5,7.58,33.73,22.87,29.55,34.16-4.17,11.29-24.17,14.3-44.67,6.72ZM257.66,453.04c-4.8,4.8-14.48,2.9-21.62-4.24s-9.04-16.82-4.24-21.62c4.8-4.8,14.48-2.9,21.62,4.24,7.14,7.14,9.04,16.82,4.24,21.62ZM283.95,423.04c-9.35,9.35-28.21,5.65-42.12-8.26-13.91-13.91-17.61-32.77-8.26-42.12,9.35-9.35,28.21-5.65,42.12,8.26,13.91,13.91,17.61,32.77,8.26,42.12ZM262.54,339.95c3.84-3.84,11.56-2.33,17.24,3.35,5.69,5.69,7.19,13.41,3.35,17.24-3.84,3.84-11.56,2.33-17.24-3.35-5.69-5.69-7.19-13.41-3.35-17.24ZM298.55,332.81c-15.83,7.74-38.68-6.47-51.03-31.73-12.35-25.27-9.52-52.02,6.31-59.76,15.83-7.74,38.68,6.47,51.03,31.73,12.35,25.27,9.52,52.02-6.31,59.76ZM246.91,220.45c1.22-4.56,6.76-7.04,12.36-5.54,5.61,1.5,9.16,6.42,7.94,10.98-1.22,4.56-6.76,7.04-12.36,5.54-5.61-1.5-9.16-6.42-7.94-10.98ZM335.6,206.21c-5.23,14.14-30.28,17.91-55.96,8.42-25.68-9.49-42.25-28.65-37.02-42.8,5.23-14.14,30.28-17.91,55.96-8.42,25.68,9.49,42.25,28.65,37.02,42.8ZM355.07,61.65c11.81,6.82,10.09,31.88-3.82,55.98-13.92,24.1-34.77,38.12-46.57,31.3-11.81-6.82-10.09-31.88,3.82-55.98,13.92-24.1,34.77-38.12,46.57-31.3Z"/>
  <path class="uuid-acad87b5-69ac-4687-8494-d8704cca7f56" d="M712.44,1606.96c-18.06,18.06-43.09,22.31-55.91,9.5-12.82-12.82-8.57-37.85,9.5-55.91,2.88-2.88,5.93-5.4,9.09-7.56-5.43-3.11-10.98-6.03-16.64-8.76,1.71,3.47,1.82,6.85-.05,8.72-2.81,2.81-8.99,1.17-13.81-3.65-4.39-4.39-6.13-9.91-4.28-12.98-14.25-5.59-29.09-9.97-44.42-13.04-.29,1.11-.63,2.23-1.05,3.35-4.52,12.02-14.75,19.3-22.84,16.25-7.35-2.76-10.39-13.09-7.51-23.97-6.44-.5-12.95-.77-19.51-.81,6.61,6,11.38,16.35,12.23,28.39,1.38,19.63-8.2,36.29-21.39,37.22-13.19.93-25-14.24-26.38-33.87-.88-12.48,2.68-23.76,8.78-30.56-21.97,2.08-43.16,6.83-63.24,13.94,11.47,21.69,12.94,42.64,1.76,53.82-14.59,14.59-45.83,7.64-73.63-15-6.54,4.97-12.85,10.24-18.9,15.78,2.09,1.97,3.7,4.31,4.68,7.01,4.65,12.81-6.53,28.63-24.98,35.31-6.52,2.37-13.07,3.27-19.03,2.89-2.38,3.46-4.69,6.98-6.91,10.56,3.83-1.36,7.9-2.49,12.16-3.34,26.84-5.38,51,2.25,53.96,17.04,2.96,14.79-16.4,31.13-43.24,36.51-18.25,3.66-35.26,1.29-45.21-5.24-3.81,9.96-7.04,20.21-9.65,30.7,3.43-.4,7.08.14,10.52,1.77,9.12,4.33,13.28,14.66,9.29,23.08-3.99,8.42-14.63,11.73-23.75,7.4-.64-.3-1.25-.65-1.85-1.01-1.33,10.77-2.03,21.74-2.03,32.88,0,5.99.22,11.92.61,17.81,3.91-.19,7.89-.16,11.93.13,42.34,2.97,74.81,31.7,72.53,64.16-1.69,24.04-21.96,43.37-49.55,50.59,3.17,5.48,6.54,10.84,10.08,16.07,8.69-15.13,26.92-29.58,50.4-38.1,38.26-13.88,75.93-6.76,84.15,15.89,8.22,22.65-16.14,52.27-54.39,66.14-12.05,4.37-24.04,6.65-35.07,7.03,17.88,15.64,37.87,28.93,59.49,39.36,1.23-5.04,3.97-10.04,8.16-14.23,10.46-10.46,25.96-11.92,34.63-3.25,8.27,8.27,7.31,22.76-1.87,33.15,14.2,4.13,28.89,7.1,43.97,8.81-6.86-5.52-12.87-13.91-16.58-24.15-8.02-22.11-2.34-44.45,12.68-49.9,15.02-5.45,33.7,8.06,41.72,30.17,6.62,18.25,3.9,36.64-5.69,45.58,54.61-.39,105.3-17.26,147.32-45.91-27.58-26.61-37.15-61.45-21.14-80.04,16.96-19.69,56.18-13.72,87.6,13.34.27.23.53.47.79.71,3.11-4.38,6.08-8.87,8.92-13.44-16.4-3.53-35.34-14.29-51.93-30.88-30.01-30.01-40.98-67.69-24.51-84.17,16.47-16.47,54.16-5.5,84.17,24.51,8.62,8.62,15.66,17.88,20.94,27.08,2.72-9.07,4.98-18.34,6.73-27.78-1.67-.27-3.36-.76-5-1.54-7.81-3.7-11.62-12-8.53-18.52,2.74-5.78,9.99-8.23,17.04-6.13.28-3.39.51-6.8.67-10.23-39.49,13.72-80.05.62-91.02-29.64-11.1-30.59,12.25-67.13,52.15-81.6,6.05-2.19,12.13-3.74,18.13-4.71-11.5-27.05-27.37-51.8-46.71-73.37-.18,1.18-.5,2.38-.95,3.58-2.42,6.43-7.89,10.32-12.22,8.69-4.33-1.63-5.88-8.16-3.46-14.59,1.45-3.85,3.99-6.77,6.72-8.16-2.1-2.11-4.26-4.16-6.43-6.2-2.84,6.05-6.96,11.99-12.29,17.32ZM445.05,1991.86c-7.14,7.14-16.82,9.04-21.62,4.24-4.8-4.8-2.9-14.48,4.24-21.62,7.14-7.14,16.82-9.04,21.62-4.24,4.8,4.8,2.9,14.48-4.24,21.62ZM770.44,1811.1c1.42-2.14,5.87-1.68,9.94,1.03,4.06,2.71,6.2,6.63,4.78,8.77-1.42,2.14-5.87,1.68-9.94-1.03-4.06-2.71-6.2-6.63-4.78-8.77ZM759.82,1646.97c5.03-1.01,9.56.45,10.12,3.26s-3.06,5.9-8.09,6.9c-5.03,1.01-9.56-.45-10.12-3.26-.56-2.81,3.06-5.9,8.09-6.9ZM745.58,1661.32c5.29-3.05,11.64-1.94,14.19,2.48,2.55,4.42.33,10.48-4.95,13.53-5.29,3.05-11.64,1.94-14.19-2.48-2.55-4.42-.33-10.48,4.95-13.53ZM672.05,1643.15c9.9,11.06-2.7,38.5-28.15,61.28-25.45,22.78-54.11,32.28-64.01,21.22-9.9-11.06,2.7-38.5,28.15-61.28,25.45-22.78,54.11-32.28,64.01-21.22ZM587.51,1827.33c-13.19.93-25-14.24-26.38-33.87-1.38-19.63,8.2-36.29,21.39-37.22,13.19-.93,25,14.24,26.38,33.87,1.38,19.63-8.2,36.29-21.39,37.22ZM593.75,1856.85c-2.81,2.81-8.99,1.17-13.81-3.65-4.82-4.82-6.46-11.01-3.65-13.81,2.81-2.81,8.99-1.17,13.81,3.65,4.82,4.82,6.46,11.01,3.65,13.81ZM555.32,1861.43c-6.79.48-13-9.17-13.87-21.54-.87-12.37,3.93-22.79,10.73-23.26,6.79-.48,13,9.17,13.87,21.54.87,12.37-3.93,22.79-10.73,23.26ZM567.49,1584.57c9.38-31.16,32.07-51.89,50.67-46.29,18.6,5.6,26.07,35.4,16.69,66.57-9.38,31.16-32.07,51.89-50.67,46.29-18.6-5.6-26.07-35.4-16.69-66.57ZM537.99,1613.85c2.42-6.43,7.89-10.32,12.22-8.69,4.33,1.63,5.88,8.16,3.46,14.59-2.42,6.43-7.89,10.32-12.22,8.69-4.33-1.63-5.88-8.16-3.46-14.59ZM543.51,1638.53c14.85,0,26.88,27.69,26.88,61.85s-12.04,61.85-26.88,61.85-26.88-27.69-26.88-61.85,12.04-61.85,26.88-61.85ZM380.2,1747.5c-8.04-22.17,11.87-49.73,44.48-61.56,32.61-11.83,65.56-3.44,73.6,18.73,8.04,22.17-11.87,49.73-44.48,61.56-32.61,11.83-65.56,3.44-73.6-18.73ZM447.34,1795.18c-.44,6.2-9.6,10.62-20.47,9.85-10.87-.76-19.33-6.41-18.89-12.62.44-6.2,9.6-10.62,20.47-9.85,10.87.76,19.33,6.41,18.89,12.62ZM389.7,1680.94c-3.39-5.88-.45-13.93,6.59-17.99,7.03-4.06,15.48-2.58,18.87,3.29,3.39,5.88.45,13.93-6.59,17.99-7.03,4.06-15.48,2.58-18.87-3.29ZM482.26,1655.86c5.29-3.05,11.64-1.94,14.19,2.48,2.55,4.42.33,10.48-4.95,13.53-5.29,3.05-11.64,1.94-14.19-2.48-2.55-4.42-.33-10.48,4.95-13.53ZM492.73,1776.61c5.03-1.01,9.56.45,10.12,3.26.56,2.81-3.06,5.9-8.09,6.9-5.03,1.01-9.56-.45-10.12-3.26-.56-2.81,3.06-5.9,8.09-6.9ZM500.64,1770.92c-7.14-7.14-9.04-16.82-4.24-21.62,4.8-4.8,14.48-2.9,21.62,4.24,7.14,7.14,9.04,16.82,4.24,21.62s-14.48,2.9-21.62-4.24ZM491.52,1530.45c1.85-4.92,6.04-7.9,9.35-6.65,3.31,1.25,4.5,6.24,2.65,11.16s-6.04,7.9-9.35,6.65c-3.31-1.25-4.5-6.24-2.65-11.16ZM473.95,1546.86c4.8-4.8,14.48-2.9,21.62,4.24,7.14,7.14,9.04,16.82,4.24,21.62-4.8,4.8-14.48,2.9-21.62-4.24-7.14-7.14-9.04-16.82-4.24-21.62ZM470.66,1591.61c9.35-9.35,28.21-5.65,42.12,8.26,13.91,13.91,17.61,32.77,8.26,42.12-9.35,9.35-28.21,5.65-42.12-8.26-13.91-13.91-17.61-32.77-8.26-42.12ZM375.6,1612.34c5.23-14.14,30.28-17.91,55.96-8.42,25.68,9.49,42.25,28.65,37.02,42.8-5.23,14.14-30.28,17.91-55.96,8.42-25.68-9.49-42.25-28.65-37.02-42.8ZM377.59,1689.03c6.42-2.65,12.83-1.9,14.31,1.69,1.48,3.58-2.53,8.64-8.95,11.29-6.42,2.65-12.83,1.9-14.31-1.69-1.48-3.58,2.53-8.64,8.95-11.29ZM352.41,1705.79c15.19,7.21,22.8,22.98,16.99,35.23-5.81,12.24-22.84,16.33-38.03,9.11-15.19-7.21-22.8-22.98-16.99-35.23,5.81-12.24,22.84-16.33,38.03-9.11ZM299.21,1707.6c-.56-2.81,3.06-5.9,8.09-6.9,5.03-1.01,9.56.45,10.12,3.26.56,2.81-3.06,5.9-8.09,6.9-5.03,1.01-9.56-.45-10.12-3.26ZM322.47,1793.68c-11.49,6.63-25.3,4.22-30.84-5.38-5.55-9.61-.73-22.77,10.76-29.4,11.49-6.63,25.3-4.22,30.84,5.38,5.55,9.61.73,22.77-10.76,29.4ZM348.8,1813.83c-11.36-11.36-15.02-26.1-8.19-32.93s21.58-3.17,32.93,8.19c11.36,11.36,15.02,26.1,8.19,32.93-6.83,6.83-21.58,3.17-32.93-8.19ZM423.81,1861.49c-9.81,16.99-27.33,25.24-39.14,18.42-11.81-6.82-13.42-26.11-3.61-43.1,9.81-16.99,27.33-25.24,39.14-18.42s13.42,26.11,3.61,43.1ZM439.65,1878.33c-12.95-14.47-3.8-43.8,20.45-65.51,24.25-21.71,54.41-27.57,67.36-13.1,12.95,14.47,3.8,43.8-20.45,65.51-24.25,21.71-54.41,27.57-67.36,13.1ZM514.55,1946.57c-13.92,24.1-34.77,38.12-46.57,31.3-11.81-6.82-10.09-31.88,3.82-55.98,13.92-24.1,34.77-38.12,46.57-31.3,11.81,6.82,10.09,31.88-3.82,55.98ZM522.13,1860.02c-.56-2.81,3.06-5.9,8.09-6.9,5.03-1.01,9.56.45,10.12,3.26.56,2.81-3.06,5.9-8.09,6.9-5.03,1.01-9.56-.45-10.12-3.26ZM590.89,2004.8c-11.97,6.51-32.46-8.02-45.76-32.47-13.3-24.45-14.38-49.55-2.4-56.06,11.97-6.51,32.46,8.02,45.76,32.47,13.3,24.45,14.38,49.55,2.4,56.06ZM577.46,1915.85c-20.5-7.58-33.73-22.87-29.55-34.16,4.17-11.29,24.17-14.3,44.67-6.72,20.5,7.58,33.73,22.87,29.55,34.16-4.17,11.29-24.17,14.3-44.67,6.72ZM630.44,2026.25c-4.8,4.8-14.48,2.9-21.62-4.24-7.14-7.14-9.04-16.82-4.24-21.62,4.8-4.8,14.48-2.9,21.62,4.24,7.14,7.14,9.04,16.82,4.24,21.62ZM656.72,1996.25c-9.35,9.35-28.21,5.65-42.12-8.26-13.91-13.91-17.61-32.77-8.26-42.12s28.21-5.65,42.12,8.26c13.91,13.91,17.61,32.77,8.26,42.12ZM635.31,1913.16c3.84-3.84,11.56-2.33,17.24,3.35,5.69,5.69,7.19,13.41,3.35,17.24-3.84,3.84-11.56,2.33-17.24-3.35-5.69-5.69-7.19-13.41-3.35-17.24ZM671.32,1906.01c-15.83,7.74-38.68-6.47-51.03-31.73-12.35-25.27-9.52-52.02,6.31-59.76,15.83-7.74,38.68,6.47,51.03,31.73,12.35,25.27,9.52,52.02-6.31,59.76ZM619.68,1793.65c1.22-4.56,6.76-7.04,12.36-5.54,5.61,1.5,9.16,6.42,7.94,10.98-1.22,4.56-6.76,7.04-12.36,5.54-5.61-1.5-9.16-6.42-7.94-10.98ZM708.37,1779.42c-5.23,14.14-30.28,17.91-55.96,8.42-25.68-9.49-42.25-28.65-37.02-42.8,5.23-14.14,30.28-17.91,55.96-8.42,25.68,9.49,42.25,28.65,37.02,42.8ZM727.84,1634.86c11.81,6.82,10.09,31.88-3.82,55.98-13.92,24.1-34.77,38.12-46.57,31.3-11.81-6.82-10.09-31.88,3.82-55.98,13.92-24.1,34.77-38.12,46.57-31.3Z"/>
  <path class="uuid-acad87b5-69ac-4687-8494-d8704cca7f56" d="M730.89,801.34c-18.06,18.06-43.09,22.31-55.91,9.5-12.82-12.82-8.57-37.85,9.5-55.91,2.88-2.88,5.93-5.4,9.09-7.56-5.43-3.11-10.98-6.03-16.64-8.76,1.71,3.47,1.82,6.85-.05,8.72-2.81,2.81-8.99,1.17-13.81-3.65-4.39-4.39-6.13-9.91-4.28-12.98-14.25-5.59-29.09-9.97-44.42-13.04-.29,1.11-.63,2.23-1.05,3.35-4.52,12.02-14.75,19.3-22.84,16.25-7.35-2.76-10.39-13.09-7.51-23.97-6.44-.5-12.95-.77-19.51-.81,6.61,6,11.38,16.35,12.23,28.39,1.38,19.63-8.2,36.29-21.39,37.22-13.19.93-25-14.24-26.38-33.87-.88-12.48,2.68-23.76,8.78-30.56-21.97,2.08-43.16,6.83-63.24,13.94,11.47,21.69,12.94,42.64,1.76,53.82-14.59,14.59-45.83,7.64-73.63-15-6.54,4.97-12.85,10.24-18.9,15.78,2.09,1.97,3.7,4.31,4.68,7.01,4.65,12.81-6.53,28.63-24.98,35.31-6.52,2.37-13.07,3.27-19.03,2.89-2.38,3.46-4.69,6.98-6.91,10.56,3.83-1.36,7.9-2.49,12.16-3.34,26.84-5.38,51,2.25,53.96,17.04,2.96,14.79-16.4,31.13-43.24,36.51-18.25,3.66-35.26,1.29-45.21-5.24-3.81,9.96-7.04,20.21-9.65,30.7,3.43-.4,7.08.14,10.52,1.77,9.12,4.33,13.28,14.66,9.29,23.08-3.99,8.42-14.63,11.73-23.75,7.4-.64-.3-1.25-.65-1.85-1.01-1.33,10.77-2.03,21.74-2.03,32.88,0,5.99.22,11.92.61,17.81,3.91-.19,7.89-.16,11.93.13,42.34,2.97,74.81,31.7,72.53,64.16-1.69,24.04-21.96,43.37-49.55,50.59,3.17,5.48,6.54,10.84,10.08,16.07,8.69-15.13,26.92-29.58,50.4-38.1,38.26-13.88,75.93-6.76,84.15,15.89,8.22,22.65-16.14,52.27-54.39,66.14-12.05,4.37-24.04,6.65-35.07,7.03,17.88,15.64,37.87,28.93,59.49,39.36,1.23-5.04,3.97-10.04,8.16-14.23,10.46-10.46,25.96-11.92,34.63-3.25,8.27,8.27,7.31,22.76-1.87,33.15,14.2,4.13,28.89,7.1,43.97,8.81-6.86-5.52-12.87-13.91-16.58-24.15-8.02-22.11-2.34-44.45,12.68-49.9,15.02-5.45,33.7,8.06,41.72,30.17,6.62,18.25,3.9,36.64-5.69,45.58,54.61-.39,105.3-17.26,147.32-45.91-27.58-26.61-37.15-61.45-21.14-80.04,16.96-19.69,56.18-13.72,87.6,13.34.27.23.53.47.79.71,3.11-4.38,6.08-8.87,8.92-13.44-16.4-3.53-35.34-14.29-51.93-30.88-30.01-30.01-40.98-67.69-24.51-84.17,16.47-16.47,54.16-5.5,84.17,24.51,8.62,8.62,15.66,17.88,20.94,27.08,2.72-9.07,4.98-18.34,6.73-27.78-1.67-.27-3.36-.76-5-1.54-7.81-3.7-11.62-12-8.53-18.52,2.74-5.78,9.99-8.23,17.04-6.13.28-3.39.51-6.8.67-10.23-39.49,13.72-80.05.62-91.02-29.64-11.1-30.59,12.25-67.13,52.15-81.6,6.05-2.19,12.13-3.74,18.13-4.71-11.5-27.05-27.37-51.8-46.71-73.37-.18,1.18-.5,2.38-.95,3.58-2.42,6.43-7.89,10.32-12.22,8.69-4.33-1.63-5.88-8.16-3.46-14.59,1.45-3.85,3.99-6.77,6.72-8.16-2.1-2.11-4.26-4.16-6.43-6.2-2.84,6.05-6.96,11.99-12.29,17.32ZM463.5,1186.24c-7.14,7.14-16.82,9.04-21.62,4.24-4.8-4.8-2.9-14.48,4.24-21.62,7.14-7.14,16.82-9.04,21.62-4.24,4.8,4.8,2.9,14.48-4.24,21.62ZM788.89,1005.48c1.42-2.14,5.87-1.68,9.94,1.03,4.06,2.71,6.2,6.63,4.78,8.77-1.42,2.14-5.87,1.68-9.94-1.03-4.06-2.71-6.2-6.63-4.78-8.77ZM778.27,841.34c5.03-1.01,9.56.45,10.12,3.26s-3.06,5.9-8.09,6.9c-5.03,1.01-9.56-.45-10.12-3.26-.56-2.81,3.06-5.9,8.09-6.9ZM764.03,855.7c5.29-3.05,11.64-1.94,14.19,2.48,2.55,4.42.33,10.48-4.95,13.53-5.29,3.05-11.64,1.94-14.19-2.48-2.55-4.42-.33-10.48,4.95-13.53ZM690.5,837.53c9.9,11.06-2.7,38.5-28.15,61.28-25.45,22.78-54.11,32.28-64.01,21.22-9.9-11.06,2.7-38.5,28.15-61.28,25.45-22.78,54.11-32.28,64.01-21.22ZM605.96,1021.71c-13.19.93-25-14.24-26.38-33.87-1.38-19.63,8.2-36.29,21.39-37.22,13.19-.93,25,14.24,26.38,33.87,1.38,19.63-8.2,36.29-21.39,37.22ZM612.2,1051.23c-2.81,2.81-8.99,1.17-13.81-3.65-4.82-4.82-6.46-11.01-3.65-13.81,2.81-2.81,8.99-1.17,13.81,3.65,4.82,4.82,6.46,11.01,3.65,13.81ZM573.77,1055.81c-6.79.48-13-9.17-13.87-21.54-.87-12.37,3.93-22.79,10.73-23.26,6.79-.48,13,9.17,13.87,21.54.87,12.37-3.93,22.79-10.73,23.26ZM585.94,778.95c9.38-31.16,32.07-51.89,50.67-46.29,18.6,5.6,26.07,35.4,16.69,66.57-9.38,31.16-32.07,51.89-50.67,46.29-18.6-5.6-26.07-35.4-16.69-66.57ZM556.44,808.23c2.42-6.43,7.89-10.32,12.22-8.69,4.33,1.63,5.88,8.16,3.46,14.59-2.42,6.43-7.89,10.32-12.22,8.69-4.33-1.63-5.88-8.16-3.46-14.59ZM561.96,832.91c14.85,0,26.88,27.69,26.88,61.85s-12.04,61.85-26.88,61.85-26.88-27.69-26.88-61.85,12.04-61.85,26.88-61.85ZM398.65,941.87c-8.04-22.17,11.87-49.73,44.48-61.56,32.61-11.83,65.56-3.44,73.6,18.73,8.04,22.17-11.87,49.73-44.48,61.56-32.61,11.83-65.56,3.44-73.6-18.73ZM465.79,989.55c-.44,6.2-9.6,10.62-20.47,9.85-10.87-.76-19.33-6.41-18.89-12.62.44-6.2,9.6-10.62,20.47-9.85,10.87.76,19.33,6.41,18.89,12.62ZM408.15,875.32c-3.39-5.88-.45-13.93,6.59-17.99,7.03-4.06,15.48-2.58,18.87,3.29,3.39,5.88.45,13.93-6.59,17.99-7.03,4.06-15.48,2.58-18.87-3.29ZM500.71,850.24c5.29-3.05,11.64-1.94,14.19,2.48,2.55,4.42.33,10.48-4.95,13.53-5.29,3.05-11.64,1.94-14.19-2.48-2.55-4.42-.33-10.48,4.95-13.53ZM511.18,970.99c5.03-1.01,9.56.45,10.12,3.26.56,2.81-3.06,5.9-8.09,6.9-5.03,1.01-9.56-.45-10.12-3.26-.56-2.81,3.06-5.9,8.09-6.9ZM519.09,965.3c-7.14-7.14-9.04-16.82-4.24-21.62,4.8-4.8,14.48-2.9,21.62,4.24,7.14,7.14,9.04,16.82,4.24,21.62s-14.48,2.9-21.62-4.24ZM509.97,724.83c1.85-4.92,6.04-7.9,9.35-6.65,3.31,1.25,4.5,6.24,2.65,11.16-1.85,4.92-6.04,7.9-9.35,6.65-3.31-1.25-4.5-6.24-2.65-11.16ZM492.4,741.24c4.8-4.8,14.48-2.9,21.62,4.24,7.14,7.14,9.04,16.82,4.24,21.62-4.8,4.8-14.48,2.9-21.62-4.24-7.14-7.14-9.04-16.82-4.24-21.62ZM489.11,785.99c9.35-9.35,28.21-5.65,42.12,8.26,13.91,13.91,17.61,32.77,8.26,42.12-9.35,9.35-28.21,5.65-42.12-8.26-13.91-13.91-17.61-32.77-8.26-42.12ZM394.05,806.72c5.23-14.14,30.28-17.91,55.96-8.42,25.68,9.49,42.25,28.65,37.02,42.8-5.23,14.14-30.28,17.91-55.96,8.42-25.68-9.49-42.25-28.65-37.02-42.8ZM396.04,883.41c6.42-2.65,12.83-1.9,14.31,1.69,1.48,3.58-2.53,8.64-8.95,11.29-6.42,2.65-12.83,1.9-14.31-1.69-1.48-3.58,2.53-8.64,8.95-11.29ZM370.86,900.17c15.19,7.21,22.8,22.98,16.99,35.23-5.81,12.24-22.84,16.33-38.03,9.11s-22.8-22.98-16.99-35.23c5.81-12.24,22.84-16.33,38.03-9.11ZM317.66,901.98c-.56-2.81,3.06-5.9,8.09-6.9,5.03-1.01,9.56.45,10.12,3.26.56,2.81-3.06,5.9-8.09,6.9-5.03,1.01-9.56-.45-10.12-3.26ZM340.92,988.06c-11.49,6.63-25.3,4.22-30.84-5.38-5.55-9.61-.73-22.77,10.76-29.4,11.49-6.63,25.3-4.22,30.84,5.38,5.55,9.61.73,22.77-10.76,29.4ZM367.25,1008.21c-11.36-11.36-15.02-26.1-8.19-32.93,6.83-6.83,21.58-3.17,32.93,8.19,11.36,11.36,15.02,26.1,8.19,32.93-6.83,6.83-21.58,3.17-32.93-8.19ZM442.26,1055.87c-9.81,16.99-27.33,25.24-39.14,18.42-11.81-6.82-13.42-26.11-3.61-43.1,9.81-16.99,27.33-25.24,39.14-18.42s13.42,26.11,3.61,43.1ZM458.1,1072.71c-12.95-14.47-3.8-43.8,20.45-65.51,24.25-21.71,54.41-27.57,67.36-13.1,12.95,14.47,3.8,43.8-20.45,65.51-24.25,21.71-54.41,27.57-67.36,13.1ZM533,1140.95c-13.92,24.1-34.77,38.12-46.57,31.3-11.81-6.82-10.09-31.88,3.82-55.98,13.92-24.1,34.77-38.12,46.57-31.3,11.81,6.82,10.09,31.88-3.82,55.98ZM540.58,1054.4c-.56-2.81,3.06-5.9,8.09-6.9,5.03-1.01,9.56.45,10.12,3.26.56,2.81-3.06,5.9-8.09,6.9-5.03,1.01-9.56-.45-10.12-3.26ZM609.34,1199.18c-11.97,6.51-32.46-8.02-45.76-32.47-13.3-24.45-14.38-49.55-2.4-56.06,11.97-6.51,32.46,8.02,45.76,32.47,13.3,24.45,14.38,49.55,2.4,56.06ZM595.91,1110.23c-20.5-7.58-33.73-22.87-29.55-34.16,4.17-11.29,24.17-14.3,44.67-6.72,20.5,7.58,33.73,22.87,29.55,34.16-4.17,11.29-24.17,14.3-44.67,6.72ZM648.89,1220.63c-4.8,4.8-14.48,2.9-21.62-4.24s-9.04-16.82-4.24-21.62c4.8-4.8,14.48-2.9,21.62,4.24s9.04,16.82,4.24,21.62ZM675.17,1190.63c-9.35,9.35-28.21,5.65-42.12-8.26-13.91-13.91-17.61-32.77-8.26-42.12,9.35-9.35,28.21-5.65,42.12,8.26,13.91,13.91,17.61,32.77,8.26,42.12ZM653.76,1107.54c3.84-3.84,11.56-2.33,17.24,3.35,5.69,5.69,7.19,13.41,3.35,17.24-3.84,3.84-11.56,2.33-17.24-3.35-5.69-5.69-7.19-13.41-3.35-17.24ZM689.77,1100.39c-15.83,7.74-38.68-6.47-51.03-31.73-12.35-25.27-9.52-52.02,6.31-59.76,15.83-7.74,38.68,6.47,51.03,31.73,12.35,25.27,9.52,52.02-6.31,59.76ZM638.13,988.03c1.22-4.56,6.76-7.04,12.36-5.54,5.61,1.5,9.16,6.42,7.94,10.98-1.22,4.56-6.76,7.04-12.36,5.54-5.61-1.5-9.16-6.42-7.94-10.98ZM726.82,973.79c-5.23,14.14-30.28,17.91-55.96,8.42-25.68-9.49-42.25-28.65-37.02-42.8,5.23-14.14,30.28-17.91,55.96-8.42,25.68,9.49,42.25,28.65,37.02,42.8ZM746.29,829.23c11.81,6.82,10.09,31.88-3.82,55.98-13.92,24.1-34.77,38.12-46.57,31.3-11.81-6.82-10.09-31.88,3.82-55.98,13.92-24.1,34.77-38.12,46.57-31.3Z"/>
  <path class="uuid-a478f3a5-0cb0-40ba-b5a6-fda689bd6c05" d="M686.67,391.82c-19.02,8.26-39.19,4.02-45.05-9.47-5.86-13.5,4.8-31.13,23.82-39.4,3.03-1.32,6.09-2.31,9.12-3.01-3.18-3.96-6.49-7.83-9.96-11.57.26,3.13-.66,5.71-2.64,6.57-2.96,1.28-7.14-1.79-9.35-6.87-2.01-4.63-1.68-9.31.63-11.08-9.1-8.46-19-16.19-29.66-23.07-.55.75-1.14,1.5-1.79,2.22-6.99,7.73-16.88,10.18-22.09,5.48-4.73-4.28-3.95-12.98,1.47-20.33-4.71-2.3-9.55-4.44-14.49-6.42,3.21,6.5,3.73,15.74.78,25.08-4.8,15.23-17,24.97-27.24,21.74-10.24-3.23-14.64-18.2-9.84-33.43,3.06-9.69,9.1-17.14,15.73-20.46-17.21-4.97-34.63-7.69-51.91-8.3,2.21,19.79-2.92,36.05-14.69,41.17-15.37,6.68-36.88-7.88-51.14-33.25-6.42,1.81-12.75,3.91-18.97,6.29.99,2.11,1.51,4.36,1.45,6.69-.31,11.06-13.46,19.67-29.38,19.23-5.63-.16-10.85-1.43-15.23-3.49-2.83,1.9-5.62,3.88-8.36,5.92,3.29.11,6.71.47,10.18,1.1,21.87,3.93,37.85,16.89,35.68,28.93-2.17,12.05-21.65,18.63-43.52,14.7-14.87-2.67-27.01-9.52-32.58-17.42-5.84,6.39-11.33,13.16-16.43,20.31,2.71.72,5.31,2.22,7.42,4.47,5.6,5.99,5.67,15.03.14,20.2-5.52,5.17-14.54,4.5-20.14-1.48-.39-.42-.75-.86-1.09-1.31-4.21,7.74-8,15.82-11.32,24.23-1.78,4.52-3.38,9.07-4.84,13.63,3.01,1.02,6,2.23,8.97,3.65,31.09,14.85,47.06,46.21,35.68,70.05-8.43,17.65-29.5,26.22-52.48,23.46.76,5.09,1.71,10.14,2.83,15.14,11.07-8.84,29.13-14.33,49.41-13.77,33.02.91,59.36,17.5,58.82,37.06-.54,19.55-27.75,34.67-60.77,33.76-10.4-.29-20.13-2.13-28.58-5.13,8.84,17.13,19.98,33.12,33.21,47.44,2.43-3.44,5.99-6.4,10.4-8.32,11.01-4.79,23.16-1.27,27.12,7.85,3.78,8.7-1.25,19.36-11.29,24.48,9.5,7.35,19.71,13.96,30.59,19.74-3.54-6.21-5.58-14.33-5.33-23.17.53-19.08,11.47-34.27,24.43-33.91,12.97.36,23.05,16.12,22.53,35.2-.43,15.75-7.96,28.83-17.87,32.73,41.36,15.97,84.66,18.31,124.93,9.19-12.91-28.31-9.77-57.47,7.87-66.74,18.67-9.82,46.51,6.37,62.19,36.16.13.26.26.51.39.77,3.65-2.38,7.23-4.89,10.74-7.5-11.34-7.55-22.43-21.31-30.03-38.78-13.73-31.6-10.8-63.33,6.55-70.86,17.35-7.54,42.54,11.97,56.27,43.57,3.95,9.08,6.51,18.17,7.75,26.69,4.76-6.04,9.22-12.37,13.36-18.98-1.18-.7-2.31-1.58-3.32-2.65-4.79-5.12-5.21-12.52-.92-16.53,3.79-3.55,10-3.24,14.7.44,1.22-2.48,2.41-4.98,3.55-7.53-33.91-1.4-60.64-23.37-59.92-49.49.73-26.41,29.24-47.05,63.68-46.1,5.22.14,10.27.78,15.09,1.84-.63-23.86-5.25-47.27-13.44-69.32-.49.83-1.08,1.65-1.78,2.42-3.74,4.14-9.03,5.45-11.81,2.93-2.78-2.52-2.01-7.91,1.73-12.05,2.24-2.47,5.03-3.93,7.5-4.16-.96-2.22-1.97-4.41-3.01-6.59-3.95,3.72-8.82,6.98-14.43,9.42ZM370.13,602.9c-7.52,3.27-15.4,1.82-17.59-3.23-2.2-5.05,2.12-11.8,9.64-15.07,7.52-3.27,15.4-1.82,17.59,3.23,2.2,5.05-2.12,11.8-9.64,15.07ZM669.7,563.26c1.71-1.19,4.94.48,7.2,3.73,2.26,3.25,2.71,6.86.99,8.05-1.71,1.19-4.94-.48-7.2-3.73-2.26-3.25-2.71-6.86-.99-8.05ZM710.54,436.14c4.1.74,7.09,3.19,6.67,5.47s-4.07,3.54-8.16,2.81c-4.1-.74-7.09-3.19-6.67-5.47.41-2.29,4.07-3.54,8.16-2.81ZM695.52,442.74c4.9-.73,9.37,2,9.98,6.1.61,4.1-2.87,8.01-7.77,8.74-4.9.73-9.37-2-9.98-6.1-.61-4.1,2.87-8.01,7.77-8.74ZM645.39,407.12c4.18,11.3-13.5,28.27-39.51,37.9-26,9.63-50.48,8.27-54.66-3.03-4.18-11.3,13.5-28.27,39.51-37.9,26-9.63,50.48-8.27,54.66,3.03ZM526.71,521.06c-10.24-3.23-14.64-18.2-9.84-33.43,4.8-15.23,17-24.97,27.24-21.74,10.24,3.23,14.64,18.2,9.84,33.43-4.8,15.23-17,24.97-27.24,21.74ZM522.63,545.21c-2.96,1.28-7.14-1.79-9.35-6.87-2.21-5.08-1.6-10.23,1.36-11.52,2.96-1.28,7.14,1.79,9.35,6.87,2.21,5.08,1.6,10.23-1.36,11.52ZM492.25,537.23c-5.27-1.66-7.09-10.79-4.06-20.4,3.03-9.6,9.76-16.04,15.03-14.38,5.27,1.66,7.09,10.79,4.06,20.4-3.03,9.6-9.76,16.04-15.03,14.38ZM583.87,331.75c16.36-20.74,39.67-29.64,52.05-19.87,12.38,9.77,9.15,34.5-7.22,55.24-16.36,20.74-39.67,29.64-52.05,19.87-12.38-9.77-9.15-34.5,7.22-55.24ZM552.87,345.09c3.74-4.14,9.03-5.45,11.81-2.93,2.78,2.52,2.01,7.91-1.73,12.05-3.74,4.14-9.03,5.45-11.81,2.93-2.78-2.52-2.01-7.91,1.73-12.05ZM549.69,365.37c11.21,4.42,12.06,28.92,1.89,54.71-10.17,25.8-27.5,43.13-38.72,38.71-11.21-4.42-12.06-28.92-1.89-54.71,10.17-25.8,27.5-43.13,38.72-38.71ZM393.91,399.04c.53-19.14,23.77-34.03,51.92-33.25,28.15.78,50.54,16.92,50.01,36.06-.53,19.14-23.77,34.03-51.92,33.25-28.15-.78-50.54-16.92-50.01-36.06ZM430.42,455.04c-2.18,4.56-10.41,5.16-18.39,1.35-7.98-3.81-12.69-10.6-10.51-15.15,2.18-4.56,10.41-5.16,18.39-1.35,7.98,3.81,12.69,10.6,10.51,15.15ZM420.9,351.61c-.81-5.45,3.81-10.66,10.33-11.63,6.52-.97,12.46,2.66,13.27,8.11.81,5.45-3.81,10.66-10.33,11.63s-12.46-2.66-13.27-8.11ZM498.27,360.22c4.9-.73,9.37,2,9.98,6.1.61,4.1-2.87,8.01-7.77,8.74-4.9.73-9.37-2-9.98-6.1-.61-4.1,2.87-8.01,7.77-8.74ZM470.23,454.53c4.1.74,7.09,3.19,6.67,5.47-.41,2.29-4.07,3.54-8.16,2.81-4.1-.74-7.09-3.19-6.67-5.47.41-2.29,4.07-3.54,8.16-2.81ZM477.9,452.59c-3.27-7.52-1.82-15.4,3.23-17.59,5.05-2.2,11.8,2.12,15.07,9.64,3.27,7.52,1.82,15.4-3.23,17.59-5.05,2.2-11.8-2.12-15.07-9.64ZM542.6,268.26c2.86-3.16,6.91-4.17,9.04-2.24s1.54,6.05-1.33,9.22c-2.86,3.16-6.91,4.17-9.04,2.24-2.13-1.93-1.54-6.05,1.33-9.22ZM524.45,275.43c5.05-2.2,11.8,2.12,15.07,9.64,3.27,7.52,1.82,15.4-3.23,17.59-5.05,2.2-11.8-2.12-15.07-9.64-3.27-7.52-1.82-15.4,3.23-17.59ZM508.64,308.24c9.85-4.28,22.99,4.13,29.35,18.78,6.37,14.65,3.54,30-6.3,34.27-9.85,4.28-22.99-4.13-29.35-18.78-6.37-14.65-3.54-30,6.3-34.27ZM430.68,295.6c8.16-9.13,28.2-4.51,44.77,10.3,16.57,14.81,23.38,34.22,15.22,43.35-8.16,9.13-28.2,4.51-44.77-10.3-16.57-14.81-23.38-34.22-15.22-43.35ZM409.35,354.11c5.64-.09,10.25,2.39,10.3,5.53.05,3.15-4.48,5.77-10.12,5.86-5.64.09-10.25-2.39-10.3-5.53-.05-3.15,4.48-5.77,10.12-5.86ZM385.34,359.27c9.33,9.97,10.38,24.15,2.34,31.66-8.03,7.52-22.11,5.53-31.44-4.44-9.33-9.97-10.38-24.15-2.34-31.66,8.03-7.52,22.11-5.53,31.44,4.44ZM344.62,344.8c.41-2.29,4.07-3.54,8.16-2.81,4.1.74,7.09,3.19,6.67,5.47-.41,2.29-4.07,3.54-8.16,2.81-4.1-.74-7.09-3.19-6.67-5.47ZM336.56,416.74c-10.65,1.59-20.36-4.34-21.69-13.25-1.33-8.91,6.23-17.41,16.88-19,10.65-1.59,20.36,4.34,21.69,13.25,1.33,8.91-6.23,17.41-16.88,19ZM350.45,439.79c-5.2-11.96-3.58-24.18,3.62-27.31,7.19-3.13,17.24,4.03,22.43,15.99,5.2,11.96,3.58,24.18-3.62,27.31-7.19,3.13-17.24-4.03-22.43-15.99ZM392.9,498.12c-12.47,9.91-28.15,10.92-35.04,2.26-6.89-8.66-2.36-23.72,10.1-33.63,12.47-9.91,28.15-10.92,35.04-2.26,6.89,8.66,2.36,23.72-10.1,33.63ZM399.86,515.55c-5.47-14.79,10.17-34.21,34.95-43.38,24.78-9.17,49.3-4.62,54.77,10.16,5.47,14.79-10.17,34.21-34.95,43.38-24.78,9.17-49.3,4.62-54.77-10.16ZM436.1,589.39c-17.69,14.06-37.61,18.44-44.49,9.77-6.89-8.66,1.87-27.08,19.55-41.14,17.69-14.06,37.61-18.44,44.49-9.77,6.89,8.66-1.87,27.08-19.55,41.14ZM467.6,526.28c.41-2.29,4.07-3.54,8.16-2.81,4.1.74,7.09,3.19,6.67,5.47s-4.07,3.54-8.16,2.81c-4.1-.74-7.09-3.19-6.67-5.47ZM476.43,656.1c-10.98,1.36-22.13-15.72-24.9-38.15-2.77-22.42,3.89-41.7,14.88-43.06,10.98-1.36,22.13,15.72,24.9,38.15,2.77,22.42-3.89,41.7-14.88,43.06ZM492.76,584.91c-13.22-11.82-18.66-27.31-12.15-34.6,6.51-7.28,22.51-3.6,35.74,8.22,13.22,11.82,18.66,27.31,12.15,34.6-6.51,7.28-22.51,3.6-35.74-8.22ZM499.91,684.07c-5.05,2.2-11.8-2.12-15.07-9.64-3.27-7.52-1.82-15.4,3.23-17.59,5.05-2.2,11.8,2.12,15.07,9.64,3.27,7.52,1.82,15.4-3.23,17.59ZM528.69,669.23c-9.85,4.28-22.99-4.13-29.35-18.78-6.37-14.65-3.54-30,6.3-34.27,9.85-4.28,22.99,4.13,29.35,18.78,6.37,14.65,3.54,30-6.3,34.27ZM537.26,600.11c4.04-1.75,9.42,1.68,12.02,7.67,2.6,5.99,1.44,12.27-2.6,14.02-4.04,1.75-9.42-1.68-12.02-7.67-2.6-5.99-1.44-12.27,2.6-14.02ZM566.58,605.43c-14.26,1.13-27.29-16.4-29.09-39.16-1.8-22.76,8.3-42.12,22.56-43.25,14.26-1.13,27.29,16.4,29.09,39.16,1.8,22.76-8.3,42.12-22.56,43.25ZM561.04,505.2c2.28-3.08,7.2-3.31,10.99-.5,3.79,2.8,5.01,7.57,2.73,10.66-2.28,3.08-7.2,3.31-10.99.5-3.79-2.8-5.01-7.57-2.73-10.66ZM632.25,520.85c-8.16,9.13-28.2,4.51-44.77-10.3-16.57-14.81-23.38-34.22-15.22-43.34,8.16-9.13,28.2-4.51,44.77,10.3,16.57,14.81,23.38,34.22,15.22,43.34ZM690,417.47c6.89,8.66-1.87,27.08-19.55,41.14-17.69,14.06-37.61,18.44-44.49,9.77-6.89-8.66,1.87-27.08,19.55-41.14,17.69-14.06,37.61-18.44,44.49-9.77Z"/>
  <path class="uuid-a478f3a5-0cb0-40ba-b5a6-fda689bd6c05" d="M497.77,1291.77c-19.02,8.26-39.19,4.02-45.05-9.47-5.86-13.5,4.8-31.13,23.82-39.4,3.03-1.32,6.09-2.31,9.12-3.01-3.18-3.96-6.49-7.83-9.96-11.57.26,3.13-.66,5.71-2.64,6.57-2.96,1.28-7.14-1.79-9.35-6.87-2.01-4.63-1.68-9.31.63-11.08-9.1-8.46-19-16.19-29.66-23.07-.55.75-1.14,1.5-1.79,2.22-6.99,7.73-16.88,10.18-22.09,5.48-4.73-4.28-3.95-12.98,1.47-20.33-4.71-2.3-9.55-4.44-14.49-6.42,3.21,6.5,3.73,15.74.78,25.08-4.8,15.23-17,24.97-27.24,21.74-10.24-3.23-14.64-18.2-9.84-33.43,3.06-9.69,9.1-17.14,15.73-20.46-17.21-4.97-34.63-7.69-51.91-8.3,2.21,19.79-2.92,36.05-14.69,41.17-15.37,6.68-36.88-7.88-51.14-33.25-6.42,1.81-12.75,3.91-18.97,6.29.99,2.11,1.51,4.36,1.45,6.69-.31,11.06-13.46,19.67-29.38,19.23-5.63-.16-10.85-1.43-15.23-3.49-2.83,1.9-5.62,3.88-8.36,5.92,3.29.11,6.71.47,10.18,1.1,21.87,3.93,37.85,16.89,35.68,28.93-2.17,12.05-21.65,18.63-43.52,14.7-14.87-2.67-27.01-9.52-32.58-17.42-5.84,6.39-11.33,13.16-16.43,20.31,2.71.72,5.31,2.22,7.42,4.47,5.6,5.99,5.67,15.03.14,20.2-5.52,5.17-14.54,4.5-20.14-1.48-.39-.42-.75-.86-1.09-1.31-4.21,7.74-8,15.82-11.32,24.23-1.78,4.52-3.38,9.07-4.84,13.63,3.01,1.02,6,2.23,8.97,3.65,31.09,14.85,47.06,46.21,35.68,70.05-8.43,17.65-29.5,26.22-52.48,23.46.76,5.09,1.71,10.14,2.83,15.14,11.07-8.84,29.13-14.33,49.41-13.77,33.02.91,59.36,17.5,58.82,37.06-.54,19.55-27.75,34.67-60.77,33.76-10.4-.29-20.13-2.13-28.58-5.13,8.84,17.13,19.98,33.12,33.21,47.44,2.43-3.44,5.99-6.4,10.4-8.32,11.01-4.79,23.16-1.27,27.12,7.85,3.78,8.7-1.25,19.36-11.29,24.48,9.5,7.35,19.71,13.96,30.59,19.74-3.54-6.21-5.58-14.33-5.33-23.17.53-19.08,11.47-34.27,24.43-33.91,12.97.36,23.05,16.12,22.53,35.2-.43,15.75-7.96,28.83-17.87,32.73,41.36,15.97,84.66,18.31,124.93,9.19-12.91-28.31-9.77-57.47,7.87-66.74,18.67-9.82,46.51,6.37,62.19,36.16.13.26.26.51.39.77,3.65-2.38,7.23-4.89,10.74-7.5-11.34-7.55-22.43-21.31-30.03-38.78-13.73-31.6-10.8-63.33,6.55-70.86,17.35-7.54,42.54,11.97,56.27,43.57,3.95,9.08,6.51,18.17,7.75,26.69,4.76-6.04,9.22-12.37,13.36-18.98-1.18-.7-2.31-1.58-3.32-2.65-4.79-5.12-5.21-12.52-.92-16.53,3.79-3.55,10-3.24,14.7.44,1.22-2.48,2.41-4.98,3.55-7.53-33.91-1.4-60.64-23.37-59.92-49.49.73-26.41,29.24-47.05,63.68-46.1,5.22.14,10.27.78,15.09,1.84-.63-23.86-5.25-47.27-13.44-69.32-.49.83-1.08,1.65-1.78,2.42-3.74,4.14-9.03,5.45-11.81,2.93-2.78-2.52-2.01-7.91,1.73-12.05,2.24-2.47,5.03-3.93,7.5-4.16-.96-2.22-1.97-4.41-3.01-6.59-3.95,3.72-8.82,6.98-14.43,9.42ZM181.23,1502.85c-7.52,3.27-15.4,1.82-17.59-3.23-2.2-5.05,2.12-11.8,9.64-15.07,7.52-3.27,15.4-1.82,17.59,3.23,2.2,5.05-2.12,11.8-9.64,15.07ZM480.79,1463.21c1.71-1.19,4.94.48,7.2,3.73,2.26,3.25,2.71,6.86.99,8.05-1.71,1.19-4.94-.48-7.2-3.73-2.26-3.25-2.71-6.86-.99-8.05ZM521.64,1336.09c4.1.74,7.09,3.19,6.67,5.47-.41,2.29-4.07,3.54-8.16,2.81-4.1-.74-7.09-3.19-6.67-5.47.41-2.29,4.07-3.54,8.16-2.81ZM506.61,1342.69c4.9-.73,9.37,2,9.98,6.1.61,4.1-2.87,8.01-7.77,8.74-4.9.73-9.37-2-9.98-6.1-.61-4.1,2.87-8.01,7.77-8.74ZM456.49,1307.08c4.18,11.3-13.5,28.27-39.51,37.9-26,9.63-50.48,8.27-54.66-3.03-4.18-11.3,13.5-28.27,39.51-37.9,26-9.63,50.48-8.27,54.66,3.03ZM337.81,1421.01c-10.24-3.23-14.64-18.2-9.84-33.43,4.8-15.23,17-24.97,27.24-21.74,10.24,3.23,14.64,18.2,9.84,33.43-4.8,15.23-17,24.97-27.24,21.74ZM333.73,1445.16c-2.96,1.28-7.14-1.79-9.35-6.87-2.21-5.08-1.6-10.23,1.36-11.52,2.96-1.28,7.14,1.79,9.35,6.87,2.21,5.08,1.6,10.23-1.36,11.52ZM303.35,1437.18c-5.27-1.66-7.09-10.79-4.06-20.4,3.03-9.6,9.76-16.04,15.03-14.38,5.27,1.66,7.09,10.79,4.06,20.4-3.03,9.6-9.76,16.04-15.03,14.38ZM394.96,1231.7c16.36-20.74,39.67-29.64,52.05-19.87,12.38,9.77,9.15,34.5-7.22,55.24-16.36,20.74-39.67,29.64-52.05,19.87-12.38-9.77-9.15-34.5,7.22-55.24ZM363.97,1245.04c3.74-4.14,9.03-5.45,11.81-2.93,2.78,2.52,2.01,7.91-1.73,12.05-3.74,4.14-9.03,5.45-11.81,2.93-2.78-2.52-2.01-7.91,1.73-12.05ZM360.79,1265.32c11.21,4.42,12.06,28.92,1.89,54.71-10.17,25.8-27.5,43.13-38.72,38.71s-12.06-28.92-1.89-54.71c10.17-25.8,27.5-43.13,38.72-38.71ZM205.01,1298.99c.53-19.14,23.77-34.03,51.92-33.25,28.15.78,50.54,16.92,50.01,36.06-.53,19.14-23.77,34.03-51.92,33.25-28.15-.78-50.54-16.92-50.01-36.06ZM241.52,1354.99c-2.18,4.56-10.41,5.16-18.39,1.35-7.98-3.81-12.69-10.6-10.51-15.15,2.18-4.56,10.41-5.16,18.39-1.35,7.98,3.81,12.69,10.6,10.51,15.15ZM232,1251.56c-.81-5.45,3.81-10.66,10.33-11.63,6.52-.97,12.46,2.66,13.27,8.11.81,5.45-3.81,10.66-10.33,11.63-6.52.97-12.46-2.66-13.27-8.11ZM309.37,1260.17c4.9-.73,9.37,2,9.98,6.1.61,4.1-2.87,8.01-7.77,8.74-4.9.73-9.37-2-9.98-6.1-.61-4.1,2.87-8.01,7.77-8.74ZM281.33,1354.49c4.1.74,7.09,3.19,6.67,5.47-.41,2.29-4.07,3.54-8.16,2.81-4.1-.74-7.09-3.19-6.67-5.47.41-2.29,4.07-3.54,8.16-2.81ZM289,1352.54c-3.27-7.52-1.82-15.4,3.23-17.59,5.05-2.2,11.8,2.12,15.07,9.64,3.27,7.52,1.82,15.4-3.23,17.59-5.05,2.2-11.8-2.12-15.07-9.64ZM353.7,1168.22c2.86-3.16,6.91-4.17,9.04-2.24,2.13,1.93,1.54,6.05-1.33,9.22-2.86,3.16-6.91,4.17-9.04,2.24-2.13-1.93-1.54-6.05,1.33-9.22ZM335.54,1175.38c5.05-2.2,11.8,2.12,15.07,9.64,3.27,7.52,1.82,15.4-3.23,17.59-5.05,2.2-11.8-2.12-15.07-9.64-3.27-7.52-1.82-15.4,3.23-17.59ZM319.74,1208.19c9.85-4.28,22.99,4.13,29.35,18.78,6.37,14.65,3.54,30-6.3,34.27-9.85,4.28-22.99-4.13-29.35-18.78-6.37-14.65-3.54-30,6.3-34.27ZM241.77,1195.55c8.16-9.13,28.2-4.51,44.77,10.3,16.57,14.81,23.38,34.22,15.22,43.35-8.16,9.13-28.2,4.51-44.77-10.3-16.57-14.81-23.38-34.22-15.22-43.35ZM220.44,1254.07c5.64-.09,10.25,2.39,10.3,5.53.05,3.15-4.48,5.77-10.12,5.86-5.64.09-10.25-2.39-10.3-5.53-.05-3.15,4.48-5.77,10.12-5.86ZM196.43,1259.22c9.33,9.97,10.38,24.15,2.34,31.66-8.03,7.52-22.11,5.53-31.44-4.44-9.33-9.97-10.38-24.15-2.34-31.66,8.03-7.52,22.11-5.53,31.44,4.44ZM155.72,1244.75c.41-2.29,4.07-3.54,8.16-2.81,4.1.74,7.09,3.19,6.67,5.47-.41,2.29-4.07,3.54-8.16,2.81-4.1-.74-7.09-3.19-6.67-5.47ZM147.66,1316.69c-10.65,1.59-20.36-4.34-21.69-13.25-1.33-8.91,6.23-17.41,16.88-19,10.65-1.59,20.36,4.34,21.69,13.25,1.33,8.91-6.23,17.41-16.88,19ZM161.55,1339.74c-5.2-11.96-3.58-24.18,3.62-27.31,7.19-3.13,17.24,4.03,22.43,15.99,5.2,11.96,3.58,24.18-3.62,27.31-7.19,3.13-17.24-4.03-22.43-15.99ZM204,1398.07c-12.47,9.91-28.15,10.92-35.04,2.26-6.89-8.66-2.36-23.72,10.1-33.63,12.47-9.91,28.15-10.92,35.04-2.26,6.89,8.66,2.36,23.72-10.1,33.63ZM210.95,1415.51c-5.47-14.79,10.17-34.21,34.95-43.38,24.78-9.17,49.3-4.62,54.77,10.16,5.47,14.79-10.17,34.21-34.95,43.38-24.78,9.17-49.3,4.62-54.77-10.16ZM247.2,1489.34c-17.69,14.06-37.61,18.44-44.49,9.77-6.89-8.66,1.87-27.08,19.55-41.14,17.69-14.06,37.61-18.44,44.49-9.77,6.89,8.66-1.87,27.08-19.55,41.14ZM278.7,1426.23c.41-2.29,4.07-3.54,8.16-2.81,4.1.74,7.09,3.19,6.67,5.47-.41,2.29-4.07,3.54-8.16,2.81-4.1-.74-7.09-3.19-6.67-5.47ZM287.52,1556.05c-10.98,1.36-22.13-15.72-24.9-38.15-2.77-22.42,3.89-41.7,14.88-43.06,10.98-1.36,22.13,15.72,24.9,38.15,2.77,22.42-3.89,41.7-14.88,43.06ZM303.86,1484.87c-13.22-11.82-18.66-27.31-12.15-34.6,6.51-7.28,22.51-3.6,35.74,8.22,13.22,11.82,18.66,27.31,12.15,34.6-6.51,7.28-22.51,3.6-35.74-8.22ZM311,1584.02c-5.05,2.2-11.8-2.12-15.07-9.64-3.27-7.52-1.82-15.4,3.23-17.59,5.05-2.2,11.8,2.12,15.07,9.64,3.27,7.52,1.82,15.4-3.23,17.59ZM339.78,1569.19c-9.85,4.28-22.99-4.13-29.35-18.78-6.37-14.65-3.54-30,6.3-34.27,9.85-4.28,22.99,4.13,29.35,18.78,6.37,14.65,3.54,30-6.3,34.27ZM348.35,1500.06c4.04-1.75,9.42,1.68,12.02,7.67,2.6,5.99,1.44,12.27-2.6,14.02-4.04,1.75-9.42-1.68-12.02-7.67-2.6-5.99-1.44-12.27,2.6-14.02ZM377.68,1505.39c-14.26,1.13-27.29-16.4-29.09-39.16-1.8-22.76,8.3-42.12,22.56-43.25,14.26-1.13,27.29,16.4,29.09,39.16,1.8,22.76-8.3,42.12-22.56,43.25ZM372.13,1405.15c2.28-3.08,7.2-3.31,10.99-.5,3.79,2.8,5.01,7.57,2.73,10.66-2.28,3.08-7.2,3.31-10.99.5-3.79-2.8-5.01-7.57-2.73-10.66ZM443.35,1420.8c-8.16,9.13-28.2,4.51-44.77-10.3-16.57-14.81-23.38-34.22-15.22-43.34,8.16-9.13,28.2-4.51,44.77,10.3,16.57,14.81,23.38,34.22,15.22,43.34ZM501.09,1317.42c6.89,8.66-1.87,27.08-19.55,41.14-17.69,14.06-37.61,18.44-44.49,9.77-6.89-8.66,1.87-27.08,19.55-41.14,17.69-14.06,37.61-18.44,44.49-9.77Z"/>
  <path class="uuid-a478f3a5-0cb0-40ba-b5a6-fda689bd6c05" d="M902.74,2464.55c-27.14,11.79-55.93,5.74-64.3-13.52-8.37-19.26,6.85-44.44,33.99-56.23,4.32-1.88,8.69-3.3,13.01-4.29-4.53-5.66-9.27-11.17-14.21-16.52.37,4.47-.95,8.16-3.76,9.38-4.22,1.83-10.19-2.56-13.34-9.8-2.87-6.6-2.39-13.29.9-15.81-12.98-12.08-27.12-23.11-42.34-32.93-.79,1.08-1.63,2.14-2.56,3.17-9.98,11.04-24.1,14.54-31.53,7.82-6.75-6.1-5.64-18.53,2.09-29.02-6.73-3.28-13.63-6.33-20.68-9.16,4.58,9.27,5.32,22.46,1.12,35.8-6.86,21.74-24.26,35.64-38.87,31.03-14.61-4.61-20.9-25.97-14.04-47.71,4.36-13.83,12.99-24.47,22.45-29.21-24.57-7.1-49.43-10.97-74.09-11.85,3.15,28.25-4.16,51.46-20.97,58.76-21.93,9.53-52.64-11.24-72.99-47.45-9.17,2.58-18.2,5.57-27.08,8.98,1.42,3.01,2.16,6.22,2.07,9.55-.44,15.79-19.21,28.08-41.93,27.45-8.03-.22-15.48-2.03-21.74-4.98-4.04,2.72-8.02,5.53-11.93,8.44,4.7.16,9.57.67,14.53,1.56,31.22,5.61,54.02,24.1,50.93,41.3-3.09,17.2-30.9,26.59-62.12,20.98-21.23-3.82-38.56-13.59-46.51-24.86-8.34,9.12-16.18,18.79-23.45,28.99,3.87,1.02,7.57,3.16,10.59,6.38,8,8.54,8.09,21.45.2,28.83-7.88,7.38-20.75,6.43-28.75-2.12-.56-.6-1.08-1.23-1.56-1.87-6.01,11.05-11.42,22.58-16.16,34.58-2.54,6.45-4.83,12.94-6.91,19.46,4.29,1.45,8.57,3.18,12.81,5.21,44.37,21.19,67.17,65.95,50.92,99.98-12.03,25.19-42.1,37.42-74.91,33.48,1.09,7.26,2.44,14.47,4.04,21.61,15.79-12.62,41.58-20.45,70.52-19.65,47.13,1.3,84.72,24.98,83.95,52.89-.77,27.91-39.6,49.48-86.74,48.18-14.84-.41-28.74-3.04-40.79-7.32,12.62,24.46,28.52,47.27,47.4,67.71,3.47-4.91,8.55-9.13,14.84-11.87,15.72-6.83,33.05-1.81,38.71,11.21,5.4,12.42-1.78,27.64-16.11,34.94,13.55,10.49,28.13,19.93,43.66,28.18-5.05-8.87-7.96-20.46-7.61-33.07.75-27.24,16.36-48.91,34.87-48.4,18.51.51,32.9,23.01,32.15,50.25-.62,22.48-11.37,41.15-25.51,46.71,59.03,22.79,120.84,26.14,178.31,13.12-18.42-40.4-13.94-82.02,11.23-95.26,26.65-14.02,66.39,9.09,88.76,51.61.19.37.37.73.56,1.1,5.21-3.4,10.32-6.98,15.33-10.7-16.18-10.78-32.02-30.42-42.85-55.36-19.6-45.1-15.41-90.38,9.35-101.14,24.76-10.76,60.72,17.08,80.31,62.18,5.63,12.96,9.29,25.93,11.07,38.09,6.79-8.62,13.16-17.65,19.06-27.09-1.69-1-3.29-2.25-4.73-3.79-6.84-7.31-7.43-17.87-1.32-23.59,5.41-5.07,14.27-4.62,20.97.63,1.75-3.53,3.44-7.11,5.06-10.74-48.39-1.99-86.55-33.35-85.52-70.63,1.04-37.69,41.73-67.15,90.89-65.8,7.45.21,14.66,1.12,21.54,2.63-.9-34.05-7.49-67.47-19.18-98.93-.7,1.19-1.54,2.35-2.54,3.46-5.34,5.9-12.89,7.77-16.86,4.18-3.97-3.59-2.87-11.29,2.47-17.19,3.19-3.53,7.17-5.6,10.71-5.94-1.37-3.16-2.82-6.3-4.3-9.41-5.63,5.31-12.59,9.96-20.6,13.44ZM450.96,2765.82c-10.73,4.66-21.97,2.6-25.11-4.62-3.13-7.21,3.03-16.84,13.76-21.5,10.73-4.66,21.97-2.6,25.11,4.62,3.13,7.21-3.03,16.84-13.76,21.5ZM878.52,2709.24c2.44-1.7,7.04.69,10.27,5.33,3.23,4.64,3.86,9.79,1.42,11.49-2.44,1.7-7.04-.69-10.27-5.33-3.23-4.64-3.86-9.79-1.42-11.49ZM936.81,2527.81c5.85,1.05,10.11,4.55,9.53,7.81-.59,3.26-5.8,5.06-11.65,4-5.85-1.05-10.11-4.55-9.53-7.81.59-3.26,5.8-5.06,11.65-4ZM915.37,2537.23c7-1.04,13.38,2.85,14.25,8.7.87,5.85-4.09,11.44-11.09,12.48-7,1.04-13.38-2.85-14.25-8.7-.87-5.85,4.09-11.44,11.09-12.48ZM843.82,2486.4c5.97,16.13-19.27,40.35-56.39,54.09-37.11,13.74-72.04,11.8-78.02-4.33-5.97-16.13,19.27-40.35,56.39-54.09,37.11-13.74,72.04-11.8,78.02,4.33ZM674.43,2649.01c-14.61-4.61-20.9-25.97-14.04-47.71,6.86-21.74,24.26-35.64,38.87-31.03,14.61,4.61,20.9,25.97,14.04,47.71-6.86,21.74-24.26,35.64-38.87,31.03ZM668.61,2683.48c-4.22,1.83-10.19-2.56-13.34-9.8-3.15-7.25-2.28-14.61,1.94-16.44,4.22-1.83,10.19,2.56,13.34,9.8,3.15,7.25,2.28,14.61-1.94,16.44ZM625.25,2672.09c-7.52-2.37-10.12-15.41-5.8-29.11,4.32-13.71,13.92-22.89,21.45-20.52,7.52,2.37,10.12,15.41,5.8,29.11-4.32,13.71-13.92,22.89-21.45,20.52ZM756.01,2378.82c23.36-29.6,56.61-42.3,74.28-28.36,17.67,13.94,13.06,49.24-10.3,78.84-23.36,29.6-56.61,42.3-74.28,28.36-17.67-13.94-13.06-49.24,10.3-78.84ZM711.77,2397.85c5.34-5.9,12.89-7.77,16.86-4.18,3.97,3.59,2.87,11.29-2.47,17.19-5.34,5.9-12.89,7.77-16.86,4.18-3.97-3.59-2.87-11.29,2.47-17.19ZM707.23,2426.8c16,6.31,17.21,41.27,2.7,78.09-14.51,36.82-39.25,61.55-55.26,55.24s-17.21-41.27-2.7-78.09c14.51-36.82,39.25-61.55,55.26-55.24ZM484.9,2474.86c.75-27.32,33.93-48.57,74.11-47.46,40.17,1.11,72.13,24.15,71.38,51.47-.75,27.32-33.93,48.57-74.11,47.46-40.17-1.11-72.13-24.15-71.38-51.47ZM537,2554.79c-3.11,6.5-14.86,7.36-26.25,1.92-11.39-5.44-18.11-15.12-15.01-21.63,3.11-6.5,14.86-7.36,26.25-1.92,11.39,5.44,18.11,15.12,15.01,21.63ZM523.42,2407.16c-1.16-7.78,5.44-15.21,14.74-16.6,9.3-1.39,17.79,3.79,18.95,11.57,1.16,7.78-5.44,15.21-14.74,16.6-9.3,1.39-17.79-3.79-18.95-11.57ZM633.85,2419.45c7-1.04,13.38,2.85,14.25,8.7.87,5.85-4.09,11.44-11.09,12.48-7,1.04-13.38-2.85-14.25-8.7-.87-5.85,4.09-11.44,11.09-12.48ZM593.83,2554.06c5.85,1.05,10.11,4.55,9.53,7.81-.59,3.26-5.8,5.06-11.65,4-5.85-1.05-10.11-4.55-9.53-7.81.59-3.26,5.8-5.06,11.65-4ZM604.77,2551.29c-4.66-10.73-2.6-21.97,4.62-25.11,7.21-3.13,16.84,3.03,21.5,13.76,4.66,10.73,2.6,21.97-4.62,25.11-7.21,3.13-16.84-3.03-21.5-13.76ZM697.11,2288.2c4.09-4.52,9.86-5.95,12.9-3.2,3.04,2.75,2.19,8.64-1.89,13.16-4.09,4.52-9.86,5.95-12.9,3.2-3.04-2.75-2.19-8.64,1.89-13.16ZM671.21,2298.43c7.21-3.13,16.84,3.03,21.5,13.76,4.66,10.73,2.6,21.97-4.62,25.11-7.21,3.13-16.84-3.03-21.5-13.76-4.66-10.73-2.6-21.97,4.62-25.11ZM648.65,2345.26c14.05-6.11,32.81,5.9,41.9,26.81,9.09,20.91,5.06,42.81-8.99,48.92-14.05,6.11-32.81-5.9-41.9-26.81-9.09-20.91-5.06-42.81,8.99-48.92ZM537.37,2327.22c11.65-13.02,40.26-6.44,63.9,14.7,23.64,21.14,33.37,48.84,21.72,61.87-11.65,13.02-40.26,6.44-63.9-14.7-23.64-21.14-33.37-48.84-21.72-61.87ZM506.93,2410.74c8.05-.13,14.63,3.41,14.71,7.9.07,4.49-6.39,8.24-14.44,8.37-8.05.13-14.63-3.41-14.7-7.9-.07-4.49,6.39-8.24,14.44-8.37ZM472.65,2418.1c13.31,14.23,14.81,34.46,3.34,45.19-11.47,10.73-31.56,7.89-44.87-6.34-13.31-14.23-14.81-34.46-3.34-45.19,11.47-10.73,31.56-7.89,44.87,6.34ZM414.54,2397.44c.59-3.26,5.8-5.06,11.65-4,5.85,1.05,10.11,4.55,9.53,7.81-.59,3.26-5.8,5.06-11.65,4-5.85-1.05-10.11-4.55-9.53-7.81ZM403.04,2500.12c-15.2,2.27-29.07-6.2-30.96-18.91-1.9-12.71,8.89-24.85,24.09-27.12,15.2-2.27,29.07,6.2,30.96,18.91,1.9,12.71-8.89,24.85-24.09,27.12ZM422.86,2533.02c-7.42-17.07-5.1-34.52,5.17-38.98,10.27-4.46,24.6,5.76,32.02,22.82,7.42,17.07,5.1,34.52-5.17,38.98-10.27,4.46-24.6-5.76-32.02-22.82ZM483.46,2616.27c-17.79,14.15-40.18,15.59-50.01,3.23-9.83-12.36-3.37-33.85,14.42-48,17.79-14.15,40.18-15.59,50.01-3.23,9.83,12.36,3.37,33.85-14.42,48ZM493.38,2641.16c-7.81-21.11,14.52-48.83,49.88-61.92,35.36-13.09,70.36-6.6,78.18,14.51,7.81,21.11-14.52,48.83-49.88,61.92-35.36,13.09-70.36,6.6-78.18-14.51ZM545.12,2746.54c-25.24,20.07-53.67,26.31-63.5,13.95-9.83-12.36,2.67-38.65,27.91-58.72,25.24-20.07,53.67-26.31,63.5-13.95,9.83,12.36-2.67,38.65-27.91,58.72ZM590.07,2656.46c.59-3.26,5.8-5.06,11.65-4,5.85,1.05,10.11,4.55,9.53,7.81-.59,3.26-5.8,5.06-11.65,4-5.85-1.05-10.11-4.55-9.53-7.81ZM602.67,2841.75c-15.68,1.93-31.58-22.44-35.53-54.45-3.95-32,5.56-59.52,21.23-61.45,15.68-1.93,31.58,22.44,35.53,54.45,3.95,32-5.56,59.52-21.23,61.45ZM625.99,2740.15c-18.87-16.88-26.64-38.99-17.34-49.38,9.3-10.4,32.13-5.14,51,11.73,18.87,16.88,26.64,38.99,17.34,49.38-9.3,10.4-32.13,5.14-51-11.73ZM636.18,2881.67c-7.21,3.13-16.84-3.03-21.5-13.76-4.66-10.73-2.6-21.97,4.62-25.11,7.21-3.13,16.84,3.03,21.5,13.76,4.66,10.73,2.6,21.97-4.62,25.11ZM677.26,2860.5c-14.05,6.11-32.81-5.9-41.9-26.81-9.09-20.91-5.06-42.81,8.99-48.92,14.05-6.11,32.81,5.9,41.9,26.81,9.09,20.91,5.06,42.81-8.99,48.92ZM689.49,2761.83c5.76-2.5,13.45,2.4,17.16,10.94,3.71,8.55,2.05,17.51-3.71,20.01-5.76,2.5-13.45-2.4-17.16-10.94-3.71-8.55-2.05-17.51,3.71-20.01ZM731.34,2769.44c-20.36,1.61-38.95-23.41-41.52-55.89-2.57-32.48,11.84-60.12,32.2-61.74,20.36-1.61,38.95,23.41,41.52,55.89,2.57,32.48-11.84,60.12-32.2,61.74ZM723.43,2626.38c3.26-4.4,10.28-4.72,15.68-.72,5.4,4,7.15,10.81,3.89,15.21-3.26,4.4-10.28,4.72-15.68.72-5.4-4-7.15-10.81-3.89-15.21ZM825.08,2648.72c-11.65,13.02-40.26,6.44-63.9-14.7-23.64-21.14-33.37-48.84-21.72-61.87,11.65-13.02,40.26-6.44,63.9,14.7,23.64,21.14,33.37,48.84,21.72,61.87ZM907.49,2501.16c9.83,12.36-2.67,38.65-27.91,58.72-25.24,20.07-53.67,26.31-63.5,13.95-9.83-12.36,2.67-38.65,27.91-58.72,25.24-20.07,53.67-26.31,63.5-13.95Z"/>
  <path class="uuid-f69ccb40-2811-4772-9c30-674094cd2e50" d="M54.35,2369.55c0,26.13-15.03,47.31-33.57,47.31-18.54,0-33.57-21.18-33.57-47.31,0-4.16.39-8.2,1.1-12.05-6.18,1.68-12.31,3.58-18.38,5.7,3.75,1.28,6.27,3.64,6.27,6.35,0,4.06-5.66,7.35-12.63,7.35-6.36,0-11.6-2.74-12.49-6.3-14.35,6.26-28.26,13.83-41.57,22.7.59,1.02,1.16,2.07,1.66,3.18,5.42,11.97,3.29,24.63-4.76,28.28-7.32,3.32-16.99-1.95-22.77-11.91-5.02,4.29-9.92,8.81-14.7,13.53,9.12-.44,20.06,3.59,29.38,11.69,15.2,13.2,20.32,32.18,11.45,42.4-8.87,10.21-28.38,7.79-43.58-5.42-9.66-8.4-15.25-19.13-15.75-28.46-14.39,17.4-26.28,36.16-35.66,55.83,23.99,7.39,40.21,21.48,40.21,37.65,0,21.11-27.63,38.67-64.11,42.41-1.14,8.33-1.89,16.7-2.25,25.09,2.94-.09,5.8.44,8.46,1.69,12.63,5.91,15.98,25.43,7.48,43.61-3.01,6.43-7.09,11.82-11.68,15.85.78,4.23,1.66,8.44,2.64,12.64,1.79-3.75,3.91-7.52,6.38-11.22,15.53-23.31,38.52-35.26,51.36-26.71,12.84,8.55,10.66,34.38-4.87,57.69-10.56,15.85-24.57,26.44-36.5,28.91,4.45,9.96,9.52,19.71,15.23,29.19,2.19-2.77,5.23-5.02,8.89-6.33,9.73-3.47,20.22,1,23.42,9.98,3.2,8.98-2.1,19.07-11.83,22.54-.69.24-1.37.44-2.07.61,6.83,8.76,14.26,17.19,22.32,25.25,4.33,4.33,8.78,8.47,13.32,12.44,2.69-2.96,5.59-5.82,8.72-8.54,32.77-28.48,77.05-31.19,98.88-6.06,16.17,18.61,15.49,47.26.75,72.44,6.26,1.67,12.57,3.12,18.92,4.33-4.66-17.23-1.93-40.87,8.9-64.02,17.64-37.71,50.04-59.82,72.37-49.37,22.33,10.44,26.14,49.48,8.5,87.19-5.55,11.88-12.57,22.2-20.28,30.45,24.25-1.62,48.32-6.47,71.51-14.56-2.76-4.54-4.39-10.13-4.39-16.19,0-15.13,10.16-27.4,22.7-27.4s21.75,11.17,22.63,25.34c13.26-7.29,26.04-15.77,38.18-25.44-8.96.97-19.37-.75-29.46-5.48-21.79-10.19-33.85-30.46-26.92-45.27,6.93-14.81,30.21-18.55,52-8.36,17.99,8.41,29.33,23.69,28.85,37.09,39.23-39.78,63.68-88.66,73.36-139.78-39.2.7-71.33-17.57-73.19-42.61-1.98-26.51,30.72-50.56,73.02-53.72.36-.03.72-.04,1.09-.06-.92-5.42-2.02-10.81-3.27-16.18-14.42,9.31-35.9,15.23-59.91,15.23-43.42,0-78.61-19.32-78.61-43.16,0-23.84,35.2-43.16,78.61-43.16,12.48,0,24.27,1.6,34.74,4.44-4.59-8.53-9.66-16.87-15.23-24.97-1.4,1.02-2.98,1.88-4.73,2.5-8.33,2.97-17.09-.27-19.57-7.23-2.2-6.17,1.28-13.18,7.89-16.76-2.25-2.66-4.55-5.29-6.92-7.88-18.64,38.49-57.46,58.35-87.29,44.4-30.16-14.11-39.7-57.42-21.3-96.75,2.79-5.96,6.06-11.48,9.71-16.52-27.89-11.25-57.27-17.67-86.86-19.28.72.98,1.36,2.08,1.9,3.27,2.9,6.4,1.76,13.17-2.55,15.12-4.31,1.95-10.15-1.65-13.05-8.05-1.74-3.83-2.01-7.78-1.04-10.76-3.05,0-6.09.07-9.13.17,2.32,6.43,3.64,13.7,3.64,21.41ZM139.36,2841.41c0,10.33-5.63,18.71-12.57,18.71s-12.57-8.38-12.57-18.71c0-10.33,5.63-18.71,12.57-18.71s12.57,8.38,12.57,18.71ZM243.98,2475.27c-.52-2.58,3.03-5.46,7.93-6.44,4.9-.98,9.28.31,9.8,2.89.52,2.58-3.03,5.46-7.93,6.44-4.9.98-9.28-.31-9.8-2.89ZM117.57,2364.22c2.91-4.37,7.24-6.59,9.68-4.97,2.44,1.62,2.05,6.48-.86,10.84-2.91,4.37-7.24,6.59-9.68,4.97-2.44-1.62-2.05-6.48.86-10.84ZM117.65,2384.9c1.62-6.03,7.02-9.83,12.06-8.48,5.04,1.35,7.82,7.34,6.21,13.37-1.62,6.03-7.02,9.83-12.06,8.48-5.04-1.35-7.82-7.34-6.21-13.37ZM51.31,2424.95c15.17.84,25.89,29.8,23.96,64.7-1.93,34.89-15.79,62.49-30.96,61.66-15.17-.84-25.89-29.8-23.96-64.7,1.93-34.89,15.79-62.49,30.96-61.66ZM123.39,2619.34c-8.87,10.21-28.38,7.79-43.58-5.42-15.2-13.2-20.32-32.18-11.45-42.4,8.87-10.21,28.38-7.79,43.58,5.42,15.2,13.2,20.32,32.19,11.45,42.4ZM149.26,2636.18c0,4.06-5.66,7.35-12.63,7.35-6.98,0-12.63-3.29-12.63-7.35s5.66-7.35,12.63-7.35c6.98,0,12.63,3.29,12.63,7.35ZM124.78,2667.29c-4.57,5.26-16.04,2.77-25.61-5.55-9.58-8.32-13.64-19.33-9.07-24.59,4.57-5.26,16.04-2.77,25.61,5.55,9.58,8.32,13.64,19.33,9.07,24.59ZM-66.7,2458.21c-15.76-29.33-14.34-60.73,3.17-70.13,17.51-9.4,44.47,6.75,60.22,36.08,15.76,29.33,14.34,60.73-3.17,70.13-17.51,9.4-44.47-6.75-60.22-36.08ZM-66.85,2500.73c-2.9-6.4-1.76-13.17,2.55-15.12,4.31-1.95,10.15,1.65,13.05,8.05,2.9,6.4,1.76,13.17-2.55,15.12s-10.15-1.65-13.05-8.05ZM-45.01,2514.59c10.74-10.74,39.48.58,64.19,25.29,24.71,24.71,36.03,53.45,25.29,64.19-10.74,10.74-39.48-.58-64.19-25.29-24.71-24.71-36.03-53.45-25.29-64.19ZM-84.32,2711.55c-21.86-10.22-27.39-44.57-12.36-76.71,15.03-32.14,44.94-49.91,66.79-39.69,21.86,10.22,27.39,44.57,12.36,76.71-15.03,32.14-44.94,49.91-66.79,39.69ZM-1.26,2697.47c4.17,4.8.74,14.62-7.68,21.94-8.42,7.31-18.62,9.35-22.79,4.54-4.17-4.8-.74-14.62,7.68-21.94,8.42-7.31,18.62-9.35,22.79-4.54ZM-125.59,2656.53c-6.71-1.8-10.4-9.76-8.25-17.78,2.15-8.02,9.33-13.07,16.04-11.27,6.71,1.8,10.4,9.76,8.25,17.78s-9.33,13.07-16.04,11.27ZM-76.78,2571.43c1.62-6.03,7.02-9.83,12.06-8.48,5.04,1.35,7.82,7.34,6.21,13.37-1.62,6.03-7.02,9.83-12.06,8.48-5.04-1.35-7.82-7.34-6.21-13.37ZM18.14,2651.21c2.91-4.37,7.24-6.59,9.68-4.97,2.44,1.62,2.05,6.48-.86,10.84-2.91,4.37-7.24,6.59-9.68,4.97-2.44-1.62-2.05-6.48.86-10.84ZM19.75,2641.37c-10.33,0-18.71-5.63-18.71-12.57,0-6.94,8.38-12.57,18.71-12.57,10.33,0,18.71,5.63,18.71,12.57s-8.38,12.57-18.71,12.57ZM-160.8,2474.02c-2.22-4.9-1.35-10.08,1.95-11.57s7.77,1.26,9.99,6.16c2.22,4.9,1.35,10.08-1.95,11.57-3.3,1.49-7.77-1.26-9.99-6.16ZM-161.64,2498.6c0-6.94,8.38-12.57,18.71-12.57,10.33,0,18.71,5.63,18.71,12.57,0,6.94-8.38,12.57-18.71,12.57-10.33,0-18.71-5.63-18.71-12.57ZM-131.65,2533.34c0-13.53,16.32-24.49,36.45-24.49,20.13,0,36.45,10.97,36.45,24.49,0,13.53-16.32,24.49-36.45,24.49-20.13,0-36.45-10.97-36.45-24.49ZM-185.42,2617.11c-6.45-14.01,8.95-34.87,34.39-46.57,25.44-11.71,51.29-9.84,57.74,4.18,6.45,14.01-8.95,34.87-34.39,46.57-25.44,11.71-51.29,9.84-57.74-4.18ZM-128.5,2671.15c2.73-6.56,7.91-10.65,11.57-9.13,3.66,1.52,4.42,8.08,1.69,14.64-2.73,6.56-7.91,10.65-11.57,9.13-3.66-1.52-4.42-8.08-1.69-14.64ZM-134.6,2701.49c16.21-5.78,33.12.13,37.77,13.19,4.65,13.06-4.71,28.33-20.92,34.11-16.21,5.78-33.12-.13-37.77-13.19-4.65-13.06,4.71-28.33,20.92-34.11ZM-171.77,2741.28c-2.44-1.62-2.05-6.48.86-10.84,2.91-4.37,7.24-6.59,9.68-4.97,2.44,1.62,2.05,6.48-.86,10.84-2.91,4.37-7.24,6.59-9.68,4.97ZM-92.67,2786.73c-3.51,13.11-15.25,21.36-26.21,18.42-10.96-2.94-17-15.95-13.48-29.06,3.51-13.11,15.25-21.36,26.21-18.42,10.96,2.94,17,15.95,13.48,29.06ZM-59.05,2782.25c-16.43,0-29.75-8.01-29.75-17.9s13.32-17.9,29.75-17.9c16.43,0,29.75,8.01,29.75,17.9,0,9.88-13.32,17.9-29.75,17.9ZM29.69,2762.47c5.19,19.39-1.51,38.03-14.98,41.64-13.47,3.61-28.6-9.18-33.79-28.57-5.19-19.39,1.51-38.03,14.98-41.64,13.47-3.61,28.6,9.18,33.79,28.57ZM53.33,2763.19c-19.84-1.1-34.43-28.94-32.59-62.18,1.84-33.24,19.42-59.3,39.26-58.2,19.84,1.1,34.43,28.94,32.59,62.18-1.84,33.24-19.42,59.3-39.26,58.2ZM156.87,2758.37c7.37,27.5,2.42,52.72-11.05,56.33-13.47,3.61-30.36-15.76-37.73-43.26-7.37-27.5-2.42-52.72,11.05-56.33,13.47-3.61,30.36,15.76,37.73,43.26ZM99.74,2690.28c-2.44-1.62-2.05-6.48.86-10.84,2.91-4.37,7.24-6.59,9.68-4.97,2.44,1.62,2.05,6.48-.86,10.84-2.91,4.37-7.24,6.59-9.68,4.97ZM254.22,2745.27c-3.95,13.37-29.29,17.68-56.59,9.62-27.31-8.06-46.24-25.44-42.29-38.82,3.95-13.37,29.29-17.68,56.59-9.62,27.31,8.06,46.24,25.44,42.29,38.82ZM180.15,2690.64c-20.31,9.34-40.94,7.85-46.09-3.33-5.15-11.19,7.14-27.83,27.45-37.17,20.31-9.34,40.94-7.85,46.09,3.33,5.15,11.19-7.14,27.83-27.45,37.17ZM298.34,2732.18c0,6.94-8.38,12.57-18.71,12.57s-18.71-5.63-18.71-12.57c0-6.94,8.38-12.57,18.71-12.57s18.71,5.63,18.71,12.57ZM295.65,2691.47c0,13.53-16.32,24.49-36.45,24.49-20.13,0-36.45-10.97-36.45-24.49s16.32-24.49,36.45-24.49c20.13,0,36.45,10.97,36.45,24.49ZM220.06,2646.85c0-5.55,6.67-10.05,14.9-10.05,8.23,0,14.9,4.5,14.9,10.05,0,5.55-6.67,10.05-14.9,10.05-8.23,0-14.9-4.5-14.9-10.05ZM240.94,2615.63c-5.86,17.05-32.66,23.3-59.87,13.96-27.21-9.34-44.52-30.74-38.66-47.8,5.86-17.05,32.66-23.3,59.87-13.96,27.21,9.34,44.52,30.74,38.66,47.8ZM122.31,2571.7c-2.42-4.18-.21-9.98,4.94-12.95,5.14-2.97,11.27-1.98,13.68,2.2s.21,9.98-4.94,12.95c-5.14,2.97-11.27,1.98-13.68-2.2ZM176.16,2497.25c6.45,14.01-8.95,34.87-34.39,46.57-25.44,11.71-51.29,9.84-57.74-4.18-6.45-14.01,8.95-34.87,34.39-46.57,25.44-11.71,51.29-9.84,57.74,4.18ZM85.67,2378.59c13.47-3.61,30.36,15.76,37.73,43.26,7.37,27.5,2.42,52.72-11.05,56.33-13.47,3.61-30.36-15.76-37.73-43.26-7.37-27.5-2.42-52.72,11.05-56.33Z"/>
  <path class="uuid-f69ccb40-2811-4772-9c30-674094cd2e50" d="M926.27,1563.29c0,26.13-15.03,47.31-33.57,47.31-18.54,0-33.57-21.18-33.57-47.31,0-4.16.39-8.2,1.1-12.05-6.18,1.68-12.31,3.58-18.38,5.7,3.75,1.28,6.27,3.64,6.27,6.35,0,4.06-5.66,7.35-12.63,7.35-6.36,0-11.6-2.74-12.49-6.3-14.35,6.26-28.26,13.83-41.57,22.7.59,1.02,1.16,2.07,1.66,3.18,5.42,11.97,3.29,24.63-4.76,28.28-7.32,3.32-16.99-1.95-22.77-11.91-5.02,4.29-9.92,8.81-14.7,13.53,9.12-.44,20.06,3.59,29.38,11.69,15.2,13.2,20.32,32.18,11.45,42.4-8.87,10.21-28.38,7.79-43.58-5.42-9.66-8.4-15.25-19.13-15.75-28.46-14.39,17.4-26.28,36.16-35.66,55.83,23.99,7.39,40.21,21.48,40.21,37.65,0,21.11-27.63,38.67-64.11,42.41-1.14,8.33-1.89,16.7-2.25,25.09,2.94-.09,5.8.44,8.46,1.69,12.63,5.91,15.98,25.43,7.48,43.61-3.01,6.43-7.09,11.82-11.68,15.85.78,4.23,1.66,8.44,2.64,12.64,1.79-3.75,3.91-7.52,6.38-11.22,15.53-23.31,38.52-35.26,51.36-26.71,12.84,8.55,10.66,34.38-4.87,57.69-10.56,15.85-24.57,26.44-36.5,28.91,4.45,9.96,9.52,19.71,15.23,29.19,2.19-2.77,5.23-5.02,8.89-6.33,9.73-3.47,20.22,1,23.42,9.98,3.2,8.98-2.1,19.07-11.83,22.54-.69.24-1.37.44-2.07.61,6.83,8.76,14.26,17.19,22.32,25.25,4.33,4.33,8.78,8.47,13.32,12.44,2.69-2.96,5.59-5.82,8.72-8.54,32.77-28.48,77.05-31.19,98.88-6.06,16.17,18.61,15.49,47.26.75,72.44,6.26,1.67,12.57,3.12,18.92,4.33-4.66-17.23-1.93-40.87,8.9-64.02,17.64-37.71,50.04-59.82,72.37-49.37,22.33,10.44,26.14,49.48,8.5,87.19-5.55,11.88-12.57,22.2-20.28,30.45,24.25-1.62,48.32-6.47,71.51-14.56-2.76-4.54-4.39-10.13-4.39-16.19,0-15.13,10.16-27.4,22.7-27.4s21.75,11.17,22.63,25.34c13.26-7.29,26.04-15.77,38.18-25.44-8.96.97-19.37-.75-29.46-5.48-21.79-10.19-33.85-30.46-26.92-45.27,6.93-14.81,30.21-18.55,52-8.36,17.99,8.41,29.33,23.69,28.85,37.09,39.23-39.78,63.68-88.66,73.36-139.78-39.2.7-71.33-17.57-73.19-42.61-1.98-26.51,30.72-50.56,73.02-53.72.36-.03.72-.04,1.09-.06-.92-5.42-2.02-10.81-3.27-16.18-14.42,9.31-35.9,15.23-59.91,15.23-43.42,0-78.61-19.32-78.61-43.16,0-23.84,35.2-43.16,78.61-43.16,12.48,0,24.27,1.6,34.74,4.44-4.59-8.53-9.66-16.87-15.23-24.97-1.4,1.02-2.98,1.88-4.73,2.5-8.33,2.97-17.09-.27-19.57-7.23-2.2-6.17,1.28-13.18,7.89-16.76-2.25-2.66-4.55-5.29-6.92-7.88-18.64,38.49-57.46,58.35-87.29,44.4-30.16-14.11-39.7-57.42-21.3-96.75,2.79-5.96,6.06-11.48,9.71-16.52-27.89-11.25-57.27-17.67-86.86-19.28.72.98,1.36,2.08,1.9,3.27,2.9,6.4,1.76,13.17-2.55,15.12-4.31,1.95-10.15-1.65-13.05-8.05-1.74-3.83-2.01-7.78-1.04-10.76-3.05,0-6.09.07-9.13.17,2.32,6.43,3.64,13.7,3.64,21.41ZM1011.27,2035.15c0,10.33-5.63,18.71-12.57,18.71s-12.57-8.38-12.57-18.71c0-10.33,5.63-18.71,12.57-18.71s12.57,8.38,12.57,18.71ZM1115.89,1669c-.52-2.58,3.03-5.46,7.93-6.44,4.9-.98,9.28.31,9.8,2.89.52,2.58-3.03,5.46-7.93,6.44-4.9.98-9.28-.31-9.8-2.89ZM989.48,1557.96c2.91-4.37,7.24-6.59,9.68-4.97,2.44,1.62,2.05,6.48-.86,10.84-2.91,4.37-7.24,6.59-9.68,4.97-2.44-1.62-2.05-6.48.86-10.84ZM989.57,1578.64c1.62-6.03,7.02-9.83,12.06-8.48,5.04,1.35,7.82,7.34,6.21,13.37-1.62,6.03-7.02,9.83-12.06,8.48-5.04-1.35-7.82-7.34-6.21-13.37ZM923.22,1618.69c15.17.84,25.89,29.8,23.96,64.7-1.93,34.89-15.79,62.49-30.96,61.66-15.17-.84-25.89-29.8-23.96-64.7,1.93-34.89,15.79-62.49,30.96-61.66ZM995.31,1813.08c-8.87,10.21-28.38,7.79-43.58-5.42-15.2-13.2-20.32-32.18-11.45-42.4,8.87-10.21,28.38-7.79,43.58,5.42,15.2,13.2,20.32,32.19,11.45,42.4ZM1021.17,1829.92c0,4.06-5.66,7.35-12.63,7.35-6.98,0-12.63-3.29-12.63-7.35s5.66-7.35,12.63-7.35c6.98,0,12.63,3.29,12.63,7.35ZM996.69,1861.03c-4.57,5.26-16.04,2.77-25.61-5.55-9.58-8.32-13.64-19.33-9.07-24.59,4.57-5.26,16.04-2.77,25.61,5.55,9.58,8.32,13.64,19.33,9.07,24.59ZM805.21,1651.94c-15.76-29.33-14.34-60.73,3.17-70.13,17.51-9.4,44.47,6.75,60.22,36.08,15.76,29.33,14.34,60.73-3.17,70.13-17.51,9.4-44.47-6.75-60.22-36.08ZM805.06,1694.47c-2.9-6.4-1.76-13.17,2.55-15.12,4.31-1.95,10.15,1.65,13.05,8.05,2.9,6.4,1.76,13.17-2.55,15.12s-10.15-1.65-13.05-8.05ZM826.9,1708.33c10.74-10.74,39.48.58,64.19,25.29,24.71,24.71,36.03,53.45,25.29,64.19-10.74,10.74-39.48-.58-64.19-25.29-24.71-24.71-36.03-53.45-25.29-64.19ZM787.59,1905.29c-21.86-10.22-27.39-44.57-12.36-76.71,15.03-32.14,44.94-49.91,66.79-39.69,21.86,10.22,27.39,44.57,12.36,76.71-15.03,32.14-44.94,49.91-66.79,39.69ZM870.65,1891.21c4.17,4.8.74,14.62-7.68,21.94-8.42,7.31-18.62,9.35-22.79,4.54-4.17-4.8-.74-14.62,7.68-21.94,8.42-7.31,18.62-9.35,22.79-4.54ZM746.32,1850.27c-6.71-1.8-10.4-9.76-8.25-17.78,2.15-8.02,9.33-13.07,16.04-11.27,6.71,1.8,10.4,9.76,8.25,17.78-2.15,8.02-9.33,13.07-16.04,11.27ZM795.13,1765.17c1.62-6.03,7.02-9.83,12.06-8.48,5.04,1.35,7.82,7.34,6.21,13.37-1.62,6.03-7.02,9.83-12.06,8.48-5.04-1.35-7.82-7.34-6.21-13.37ZM890.06,1844.95c2.91-4.37,7.24-6.59,9.68-4.97,2.44,1.62,2.05,6.48-.86,10.84-2.91,4.37-7.24,6.59-9.68,4.97-2.44-1.62-2.05-6.48.86-10.84ZM891.66,1835.11c-10.33,0-18.71-5.63-18.71-12.57,0-6.94,8.38-12.57,18.71-12.57,10.33,0,18.71,5.63,18.71,12.57s-8.38,12.57-18.71,12.57ZM711.11,1667.76c-2.22-4.9-1.35-10.08,1.95-11.57s7.77,1.26,9.99,6.16c2.22,4.9,1.35,10.08-1.95,11.57-3.3,1.49-7.77-1.26-9.99-6.16ZM710.27,1692.34c0-6.94,8.38-12.57,18.71-12.57,10.33,0,18.71,5.63,18.71,12.57,0,6.94-8.38,12.57-18.71,12.57-10.33,0-18.71-5.63-18.71-12.57ZM740.26,1727.08c0-13.53,16.32-24.49,36.45-24.49,20.13,0,36.45,10.97,36.45,24.49,0,13.53-16.32,24.49-36.45,24.49-20.13,0-36.45-10.97-36.45-24.49ZM686.5,1810.85c-6.45-14.01,8.95-34.87,34.39-46.57,25.44-11.71,51.29-9.84,57.74,4.18,6.45,14.01-8.95,34.87-34.39,46.57-25.44,11.71-51.29,9.84-57.74-4.18ZM743.41,1864.89c2.73-6.56,7.91-10.65,11.57-9.13,3.66,1.52,4.42,8.08,1.69,14.64-2.73,6.56-7.91,10.65-11.57,9.13-3.66-1.52-4.42-8.08-1.69-14.64ZM737.32,1895.23c16.21-5.78,33.12.13,37.77,13.19,4.65,13.06-4.71,28.33-20.92,34.11-16.21,5.78-33.12-.13-37.77-13.19-4.65-13.06,4.71-28.33,20.92-34.11ZM700.14,1935.02c-2.44-1.62-2.05-6.48.86-10.84,2.91-4.37,7.24-6.59,9.68-4.97,2.44,1.62,2.05,6.48-.86,10.84-2.91,4.37-7.24,6.59-9.68,4.97ZM779.24,1980.46c-3.51,13.11-15.25,21.36-26.21,18.42-10.96-2.94-17-15.95-13.48-29.06,3.51-13.11,15.25-21.36,26.21-18.42,10.96,2.94,17,15.95,13.48,29.06ZM812.86,1975.99c-16.43,0-29.75-8.01-29.75-17.9s13.32-17.9,29.75-17.9c16.43,0,29.75,8.01,29.75,17.9,0,9.88-13.32,17.9-29.75,17.9ZM901.6,1956.21c5.19,19.39-1.51,38.03-14.98,41.64-13.47,3.61-28.6-9.18-33.79-28.57-5.19-19.39,1.51-38.03,14.98-41.64,13.47-3.61,28.6,9.18,33.79,28.57ZM925.24,1956.93c-19.84-1.1-34.43-28.94-32.59-62.18,1.84-33.24,19.42-59.3,39.26-58.2,19.84,1.1,34.43,28.94,32.59,62.18-1.84,33.24-19.42,59.3-39.26,58.2ZM1028.78,1952.11c7.37,27.5,2.42,52.72-11.05,56.33-13.47,3.61-30.36-15.76-37.73-43.26-7.37-27.5-2.42-52.72,11.05-56.33,13.47-3.61,30.36,15.76,37.73,43.26ZM971.66,1884.02c-2.44-1.62-2.05-6.48.86-10.84,2.91-4.37,7.24-6.59,9.68-4.97,2.44,1.62,2.05,6.48-.86,10.84-2.91,4.37-7.24,6.59-9.68,4.97ZM1126.14,1939.01c-3.95,13.37-29.29,17.68-56.59,9.62-27.31-8.06-46.24-25.44-42.29-38.82,3.95-13.37,29.29-17.68,56.59-9.62s46.24,25.44,42.29,38.82ZM1052.07,1884.38c-20.31,9.34-40.94,7.85-46.09-3.33-5.15-11.19,7.14-27.83,27.45-37.17,20.31-9.34,40.94-7.85,46.09,3.33,5.15,11.19-7.14,27.83-27.45,37.17ZM1170.25,1925.92c0,6.94-8.38,12.57-18.71,12.57s-18.71-5.63-18.71-12.57c0-6.94,8.38-12.57,18.71-12.57s18.71,5.63,18.71,12.57ZM1167.57,1885.21c0,13.53-16.32,24.49-36.45,24.49-20.13,0-36.45-10.97-36.45-24.49s16.32-24.49,36.45-24.49c20.13,0,36.45,10.97,36.45,24.49ZM1091.97,1840.59c0-5.55,6.67-10.05,14.9-10.05,8.23,0,14.9,4.5,14.9,10.05,0,5.55-6.67,10.05-14.9,10.05-8.23,0-14.9-4.5-14.9-10.05ZM1112.85,1809.37c-5.86,17.05-32.66,23.3-59.87,13.96-27.21-9.34-44.52-30.74-38.66-47.8,5.86-17.05,32.66-23.3,59.87-13.96,27.21,9.34,44.52,30.74,38.66,47.8ZM994.22,1765.44c-2.42-4.18-.21-9.98,4.94-12.95,5.14-2.97,11.27-1.98,13.68,2.2s.21,9.98-4.94,12.95c-5.14,2.97-11.27,1.98-13.68-2.2ZM1048.08,1690.98c6.45,14.01-8.95,34.87-34.39,46.57-25.44,11.71-51.29,9.84-57.74-4.18-6.45-14.01,8.95-34.87,34.39-46.57,25.44-11.71,51.29-9.84,57.74,4.18ZM957.59,1572.33c13.47-3.61,30.36,15.76,37.73,43.26,7.37,27.5,2.42,52.72-11.05,56.33-13.47,3.61-30.36-15.76-37.73-43.26-7.37-27.5-2.42-52.72,11.05-56.33Z"/>
  <path class="uuid-f69ccb40-2811-4772-9c30-674094cd2e50" d="M282.62,555.84c0,17.31-9.96,31.35-22.25,31.35-12.29,0-22.25-14.04-22.25-31.35,0-2.76.26-5.43.73-7.98-4.09,1.11-8.15,2.37-12.18,3.78,2.48.85,4.16,2.41,4.16,4.21,0,2.69-3.75,4.87-8.37,4.87-4.21,0-7.69-1.81-8.27-4.17-9.51,4.15-18.72,9.17-27.54,15.04.39.68.77,1.37,1.1,2.11,3.59,7.93,2.18,16.32-3.16,18.74-4.85,2.2-11.25-1.29-15.08-7.89-3.33,2.85-6.57,5.84-9.74,8.96,6.04-.29,13.29,2.38,19.47,7.75,10.07,8.75,13.46,21.33,7.59,28.09-5.88,6.77-18.81,5.16-28.88-3.59-6.4-5.56-10.1-12.67-10.44-18.86-9.54,11.53-17.41,23.96-23.63,36.99,15.89,4.9,26.64,14.23,26.64,24.95,0,13.99-18.3,25.63-42.48,28.1-.75,5.52-1.25,11.07-1.49,16.62,1.95-.06,3.84.29,5.6,1.12,8.37,3.91,10.59,16.85,4.95,28.9-1.99,4.26-4.7,7.83-7.74,10.5.52,2.8,1.1,5.59,1.75,8.37,1.18-2.48,2.59-4.98,4.23-7.43,10.29-15.44,25.53-23.37,34.03-17.7s7.06,22.78-3.23,38.22c-7,10.5-16.28,17.52-24.18,19.16,2.95,6.6,6.31,13.06,10.09,19.34,1.45-1.84,3.46-3.33,5.89-4.19,6.45-2.3,13.4.66,15.52,6.61,2.12,5.95-1.39,12.64-7.84,14.93-.45.16-.91.29-1.37.4,4.53,5.8,9.45,11.39,14.79,16.73,2.87,2.87,5.82,5.61,8.83,8.25,1.78-1.96,3.71-3.86,5.78-5.66,21.72-18.87,51.05-20.67,65.52-4.01,10.71,12.33,10.26,31.31.5,48,4.15,1.11,8.33,2.07,12.54,2.87-3.09-11.42-1.28-27.08,5.9-42.42,11.69-24.99,33.16-39.63,47.95-32.71,14.8,6.92,17.32,32.79,5.63,57.77-3.68,7.87-8.33,14.71-13.44,20.18,16.07-1.07,32.02-4.28,47.38-9.65-1.83-3.01-2.91-6.71-2.91-10.73,0-10.03,6.73-18.16,15.04-18.16s14.41,7.4,14.99,16.79c8.79-4.83,17.25-10.45,25.3-16.86-5.94.64-12.83-.5-19.52-3.63-14.44-6.75-22.43-20.18-17.84-30,4.59-9.81,20.02-12.29,34.46-5.54,11.92,5.57,19.43,15.69,19.12,24.58,25.99-26.36,42.2-58.74,48.61-92.62-25.97.46-47.26-11.64-48.5-28.23-1.31-17.57,20.35-33.5,48.39-35.59.24-.02.48-.03.72-.04-.61-3.59-1.34-7.16-2.17-10.72-9.55,6.17-23.79,10.09-39.69,10.09-28.77,0-52.09-12.8-52.09-28.6,0-15.79,23.32-28.6,52.09-28.6,8.27,0,16.08,1.06,23.02,2.94-3.04-5.65-6.4-11.18-10.09-16.54-.93.67-1.98,1.24-3.14,1.66-5.52,1.97-11.32-.18-12.96-4.79-1.46-4.09.85-8.73,5.23-11.11-1.49-1.76-3.02-3.5-4.58-5.22-12.35,25.5-38.07,38.66-57.84,29.42-19.98-9.35-26.3-38.05-14.12-64.11,1.85-3.95,4.02-7.61,6.43-10.95-18.48-7.46-37.95-11.71-57.56-12.78.48.65.9,1.38,1.26,2.17,1.92,4.24,1.17,8.73-1.69,10.02-2.85,1.29-6.73-1.09-8.65-5.34-1.15-2.54-1.33-5.16-.69-7.13-2.02,0-4.03.04-6.05.11,1.54,4.26,2.41,9.08,2.41,14.19ZM338.94,868.5c0,6.85-3.73,12.4-8.33,12.4s-8.33-5.55-8.33-12.4c0-6.85,3.73-12.4,8.33-12.4s8.33,5.55,8.33,12.4ZM408.26,625.89c-.34-1.71,2.01-3.62,5.26-4.27,3.24-.65,6.15.21,6.49,1.92.34,1.71-2.01,3.62-5.26,4.27-3.24.65-6.15-.21-6.49-1.92ZM324.5,552.31c1.93-2.89,4.8-4.37,6.41-3.29s1.36,4.29-.57,7.19c-1.93,2.89-4.8,4.37-6.41,3.29-1.61-1.08-1.36-4.29.57-7.19ZM324.56,566.01c1.07-4,4.65-6.51,7.99-5.62,3.34.9,5.18,4.86,4.11,8.86-1.07,4-4.65,6.51-7.99,5.62-3.34-.9-5.18-4.86-4.11-8.86ZM280.6,592.55c10.05.56,17.16,19.75,15.88,42.87-1.28,23.12-10.46,41.41-20.51,40.85-10.05-.56-17.16-19.75-15.88-42.87,1.28-23.12,10.46-41.41,20.51-40.85ZM328.36,721.35c-5.88,6.77-18.81,5.16-28.88-3.59-10.07-8.75-13.46-21.33-7.59-28.09,5.88-6.77,18.81-5.16,28.88,3.59,10.07,8.75,13.46,21.33,7.59,28.09ZM345.5,732.51c0,2.69-3.75,4.87-8.37,4.87-4.62,0-8.37-2.18-8.37-4.87s3.75-4.87,8.37-4.87c4.62,0,8.37,2.18,8.37,4.87ZM329.28,753.12c-3.03,3.48-10.63,1.84-16.97-3.68-6.35-5.51-9.04-12.81-6.01-16.29,3.03-3.48,10.63-1.84,16.97,3.68,6.35,5.51,9.04,12.81,6.01,16.29ZM202.41,614.58c-10.44-19.43-9.5-40.24,2.1-46.47,11.6-6.23,29.46,4.47,39.9,23.91,10.44,19.43,9.5,40.24-2.1,46.47-11.6,6.23-29.46-4.47-39.9-23.91ZM202.31,642.76c-1.92-4.24-1.17-8.73,1.69-10.02,2.85-1.29,6.73,1.09,8.65,5.34,1.92,4.24,1.17,8.73-1.69,10.02s-6.73-1.09-8.65-5.34ZM216.78,651.94c7.12-7.12,26.16.39,42.53,16.76,16.37,16.37,23.88,35.41,16.76,42.53-7.12,7.12-26.16-.39-42.53-16.76-16.37-16.37-23.88-35.41-16.76-42.53ZM190.73,782.45c-14.48-6.77-18.15-29.53-8.19-50.83,9.96-21.3,29.78-33.07,44.26-26.3,14.48,6.77,18.15,29.53,8.19,50.83-9.96,21.3-29.78,33.07-44.26,26.3ZM245.76,773.12c2.77,3.18.49,9.69-5.09,14.53-5.58,4.84-12.34,6.19-15.1,3.01-2.77-3.18-.49-9.69,5.09-14.53,5.58-4.84,12.34-6.19,15.1-3.01ZM163.38,746c-4.44-1.19-6.89-6.47-5.47-11.78s6.18-8.66,10.63-7.47c4.44,1.19,6.89,6.47,5.47,11.78-1.42,5.32-6.18,8.66-10.63,7.47ZM195.73,689.61c1.07-4,4.65-6.51,7.99-5.62,3.34.9,5.18,4.86,4.11,8.86-1.07,4-4.65,6.51-7.99,5.62-3.34-.9-5.18-4.86-4.11-8.86ZM258.62,742.47c1.93-2.89,4.8-4.37,6.41-3.29,1.61,1.08,1.36,4.29-.57,7.19-1.93,2.89-4.8,4.37-6.41,3.29s-1.36-4.29.57-7.19ZM259.69,735.95c-6.85,0-12.4-3.73-12.4-8.33,0-4.6,5.55-8.33,12.4-8.33,6.85,0,12.4,3.73,12.4,8.33s-5.55,8.33-12.4,8.33ZM140.05,625.06c-1.47-3.24-.89-6.68,1.29-7.67s5.15.84,6.62,4.08.89,6.68-1.29,7.67c-2.18.99-5.15-.84-6.62-4.08ZM139.5,641.35c0-4.6,5.55-8.33,12.4-8.33,6.85,0,12.4,3.73,12.4,8.33,0,4.6-5.55,8.33-12.4,8.33-6.85,0-12.4-3.73-12.4-8.33ZM159.37,664.37c0-8.96,10.81-16.23,24.15-16.23,13.34,0,24.15,7.27,24.15,16.23,0,8.96-10.81,16.23-24.15,16.23-13.34,0-24.15-7.27-24.15-16.23ZM123.74,719.87c-4.27-9.29,5.93-23.1,22.79-30.86,16.86-7.76,33.99-6.52,38.26,2.77,4.27,9.29-5.93,23.1-22.79,30.86-16.86,7.76-33.99,6.52-38.26-2.77ZM161.46,755.68c1.81-4.35,5.24-7.06,7.67-6.05,2.43,1.01,2.93,5.35,1.12,9.7-1.81,4.35-5.24,7.06-7.67,6.05-2.43-1.01-2.93-5.35-1.12-9.7ZM157.42,775.78c10.74-3.83,21.94.09,25.03,8.74,3.08,8.65-3.12,18.77-13.86,22.6-10.74,3.83-21.94-.09-25.03-8.74-3.08-8.65,3.12-18.77,13.86-22.6ZM132.79,802.15c-1.61-1.08-1.36-4.29.57-7.19,1.93-2.89,4.8-4.37,6.41-3.29,1.61,1.08,1.36,4.29-.57,7.19-1.93,2.89-4.8,4.37-6.41,3.29ZM185.2,832.26c-2.33,8.69-10.1,14.15-17.36,12.21-7.26-1.95-11.26-10.57-8.94-19.25,2.33-8.69,10.1-14.15,17.36-12.21,7.26,1.95,11.26,10.57,8.94,19.25ZM207.47,829.29c-10.89,0-19.71-5.31-19.71-11.86s8.82-11.86,19.71-11.86c10.89,0,19.71,5.31,19.71,11.86,0,6.55-8.82,11.86-19.71,11.86ZM266.27,816.19c3.44,12.84-1,25.2-9.93,27.59-8.93,2.39-18.95-6.08-22.39-18.93-3.44-12.84,1-25.2,9.93-27.59,8.93-2.39,18.95,6.08,22.39,18.93ZM281.94,816.67c-13.15-.73-22.82-19.17-21.6-41.2,1.22-22.03,12.86-39.29,26.01-38.57,13.15.73,22.82,19.17,21.6,41.2-1.22,22.03-12.86,39.29-26.01,38.57ZM350.54,813.48c4.88,18.22,1.61,34.93-7.32,37.33s-20.12-10.44-25-28.67c-4.88-18.22-1.61-34.93,7.32-37.33,8.93-2.39,20.12,10.44,25,28.67ZM312.69,768.36c-1.61-1.08-1.36-4.29.57-7.19,1.93-2.89,4.8-4.37,6.41-3.29,1.61,1.08,1.36,4.29-.57,7.19-1.93,2.89-4.8,4.37-6.41,3.29ZM415.05,804.79c-2.62,8.86-19.41,11.72-37.5,6.37-18.09-5.34-30.64-16.86-28.02-25.72,2.62-8.86,19.41-11.72,37.5-6.37,18.09,5.34,30.64,16.86,28.02,25.72ZM365.97,768.6c-13.46,6.19-27.13,5.2-30.54-2.21-3.41-7.41,4.73-18.44,18.19-24.63,13.46-6.19,27.13-5.2,30.54,2.21,3.41,7.41-4.73,18.44-18.19,24.63ZM444.28,796.12c0,4.6-5.55,8.33-12.4,8.33s-12.4-3.73-12.4-8.33c0-4.6,5.55-8.33,12.4-8.33s12.4,3.73,12.4,8.33ZM442.5,769.14c0,8.96-10.81,16.23-24.15,16.23-13.34,0-24.15-7.27-24.15-16.23s10.81-16.23,24.15-16.23c13.34,0,24.15,7.27,24.15,16.23ZM392.41,739.58c0-3.68,4.42-6.66,9.87-6.66,5.45,0,9.87,2.98,9.87,6.66,0,3.68-4.42,6.66-9.87,6.66-5.45,0-9.87-2.98-9.87-6.66ZM406.25,718.89c-3.88,11.3-21.64,15.44-39.67,9.25-18.03-6.19-29.5-20.37-25.62-31.67,3.88-11.3,21.64-15.44,39.67-9.25,18.03,6.19,29.5,20.37,25.62,31.67ZM327.64,689.79c-1.6-2.77-.14-6.62,3.27-8.58,3.41-1.97,7.47-1.31,9.07,1.46s.14,6.62-3.27,8.58c-3.41,1.97-7.47,1.31-9.07-1.46ZM363.33,640.45c4.27,9.29-5.93,23.1-22.79,30.86-16.86,7.76-33.99,6.52-38.26-2.77-4.27-9.29,5.93-23.1,22.79-30.86,16.86-7.76,33.99-6.52,38.26,2.77ZM303.37,561.83c8.93-2.39,20.12,10.44,25,28.67,4.88,18.22,1.61,34.93-7.32,37.33-8.93,2.39-20.12-10.44-25-28.67-4.88-18.22-1.61-34.93,7.32-37.33Z"/>
  <path class="uuid-f69ccb40-2811-4772-9c30-674094cd2e50" d="M7.55,1439.22c0,26.13-15.03,47.31-33.57,47.31-18.54,0-33.57-21.18-33.57-47.31,0-4.16.39-8.2,1.1-12.05-6.18,1.68-12.31,3.58-18.38,5.7,3.75,1.28,6.27,3.64,6.27,6.35,0,4.06-5.66,7.35-12.63,7.35-6.36,0-11.6-2.74-12.49-6.3-14.35,6.26-28.26,13.83-41.57,22.7.59,1.02,1.16,2.07,1.66,3.18,5.42,11.97,3.29,24.63-4.76,28.28-7.32,3.32-16.99-1.95-22.77-11.91-5.02,4.29-9.92,8.81-14.7,13.53,9.12-.44,20.06,3.59,29.38,11.69,15.2,13.2,20.32,32.18,11.45,42.4-8.87,10.21-28.38,7.79-43.58-5.42-9.66-8.4-15.25-19.13-15.75-28.46-14.39,17.4-26.28,36.16-35.66,55.83,23.99,7.39,40.21,21.48,40.21,37.65,0,21.11-27.63,38.67-64.11,42.41-1.14,8.33-1.89,16.7-2.25,25.09,2.94-.09,5.8.44,8.46,1.69,12.63,5.91,15.98,25.43,7.48,43.61-3.01,6.43-7.09,11.82-11.68,15.85.78,4.23,1.66,8.44,2.64,12.64,1.79-3.75,3.91-7.52,6.38-11.22,15.53-23.31,38.52-35.26,51.36-26.71,12.84,8.55,10.66,34.38-4.87,57.69-10.56,15.85-24.57,26.44-36.5,28.91,4.45,9.96,9.52,19.71,15.23,29.19,2.19-2.77,5.23-5.02,8.89-6.33,9.73-3.47,20.22,1,23.42,9.98,3.2,8.98-2.1,19.07-11.83,22.54-.69.24-1.37.44-2.07.61,6.83,8.76,14.26,17.19,22.32,25.25,4.33,4.33,8.78,8.47,13.32,12.44,2.69-2.96,5.59-5.82,8.72-8.54,32.77-28.48,77.05-31.19,98.88-6.06,16.17,18.61,15.49,47.26.75,72.44,6.26,1.67,12.57,3.12,18.92,4.33-4.66-17.23-1.93-40.87,8.9-64.02,17.64-37.71,50.04-59.82,72.37-49.37,22.33,10.44,26.14,49.48,8.5,87.19-5.55,11.88-12.57,22.2-20.28,30.45,24.25-1.62,48.32-6.47,71.51-14.56-2.76-4.54-4.39-10.13-4.39-16.19,0-15.13,10.16-27.4,22.7-27.4s21.75,11.17,22.63,25.34c13.26-7.29,26.04-15.77,38.18-25.44-8.96.97-19.37-.75-29.46-5.48-21.79-10.19-33.85-30.46-26.92-45.27,6.93-14.81,30.21-18.55,52-8.36,17.99,8.41,29.33,23.69,28.85,37.09,39.23-39.78,63.68-88.66,73.36-139.78-39.2.7-71.33-17.57-73.19-42.61-1.98-26.51,30.72-50.56,73.02-53.72.36-.03.72-.04,1.09-.06-.92-5.42-2.02-10.81-3.27-16.18-14.42,9.31-35.9,15.23-59.91,15.23-43.42,0-78.61-19.32-78.61-43.16,0-23.84,35.2-43.16,78.61-43.16,12.48,0,24.27,1.6,34.74,4.44-4.59-8.53-9.66-16.87-15.23-24.97-1.4,1.02-2.98,1.88-4.73,2.5-8.33,2.97-17.09-.27-19.57-7.23-2.2-6.17,1.28-13.18,7.89-16.76-2.25-2.66-4.55-5.29-6.92-7.88-18.64,38.49-57.46,58.35-87.29,44.4-30.16-14.11-39.7-57.42-21.3-96.75,2.79-5.96,6.06-11.48,9.71-16.52-27.89-11.25-57.27-17.67-86.86-19.28.72.98,1.36,2.08,1.9,3.27,2.9,6.4,1.76,13.17-2.55,15.12-4.31,1.95-10.15-1.65-13.05-8.05-1.74-3.83-2.01-7.78-1.04-10.76-3.05,0-6.09.07-9.13.17,2.32,6.43,3.64,13.7,3.64,21.41ZM92.55,1911.08c0,10.33-5.63,18.71-12.57,18.71s-12.57-8.38-12.57-18.71c0-10.33,5.63-18.71,12.57-18.71s12.57,8.38,12.57,18.71ZM197.18,1544.93c-.52-2.58,3.03-5.46,7.93-6.44,4.9-.98,9.28.31,9.8,2.89.52,2.58-3.03,5.46-7.93,6.44-4.9.98-9.28-.31-9.8-2.89ZM70.76,1433.88c2.91-4.37,7.24-6.59,9.68-4.97,2.44,1.62,2.05,6.48-.86,10.84-2.91,4.37-7.24,6.59-9.68,4.97-2.44-1.62-2.05-6.48.86-10.84ZM70.85,1454.56c1.62-6.03,7.02-9.83,12.06-8.48,5.04,1.35,7.82,7.34,6.21,13.37-1.62,6.03-7.02,9.83-12.06,8.48-5.04-1.35-7.82-7.34-6.21-13.37ZM4.51,1494.61c15.17.84,25.89,29.8,23.96,64.7-1.93,34.89-15.79,62.49-30.96,61.66-15.17-.84-25.89-29.8-23.96-64.7,1.93-34.89,15.79-62.49,30.96-61.66ZM76.59,1689c-8.87,10.21-28.38,7.79-43.58-5.42-15.2-13.2-20.32-32.18-11.45-42.4,8.87-10.21,28.38-7.79,43.58,5.42,15.2,13.2,20.32,32.19,11.45,42.4ZM102.46,1705.84c0,4.06-5.66,7.35-12.63,7.35-6.98,0-12.63-3.29-12.63-7.35s5.66-7.35,12.63-7.35c6.98,0,12.63,3.29,12.63,7.35ZM77.98,1736.95c-4.57,5.26-16.04,2.77-25.61-5.55-9.58-8.32-13.64-19.33-9.07-24.59,4.57-5.26,16.04-2.77,25.61,5.55,9.58,8.32,13.64,19.33,9.07,24.59ZM-113.5,1527.87c-15.76-29.33-14.34-60.73,3.17-70.13,17.51-9.4,44.47,6.75,60.22,36.08,15.76,29.33,14.34,60.73-3.17,70.13-17.51,9.4-44.47-6.75-60.22-36.08ZM-113.66,1570.39c-2.9-6.4-1.76-13.17,2.55-15.12,4.31-1.95,10.15,1.65,13.05,8.05,2.9,6.4,1.76,13.17-2.55,15.12s-10.15-1.65-13.05-8.05ZM-91.81,1584.26c10.74-10.74,39.48.58,64.19,25.29,24.71,24.71,36.03,53.45,25.29,64.19-10.74,10.74-39.48-.58-64.19-25.29-24.71-24.71-36.03-53.45-25.29-64.19ZM-131.12,1781.21c-21.86-10.22-27.39-44.57-12.36-76.71,15.03-32.14,44.94-49.91,66.79-39.69,21.86,10.22,27.39,44.57,12.36,76.71-15.03,32.14-44.94,49.91-66.79,39.69ZM-48.07,1767.14c4.17,4.8.74,14.62-7.68,21.94-8.42,7.31-18.62,9.35-22.79,4.54-4.17-4.8-.74-14.62,7.68-21.94,8.42-7.31,18.62-9.35,22.79-4.54ZM-172.4,1726.2c-6.71-1.8-10.4-9.76-8.25-17.78,2.15-8.02,9.33-13.07,16.04-11.27,6.71,1.8,10.4,9.76,8.25,17.78-2.15,8.02-9.33,13.07-16.04,11.27ZM-123.58,1641.1c1.62-6.03,7.02-9.83,12.06-8.48,5.04,1.35,7.82,7.34,6.21,13.37-1.62,6.03-7.02,9.83-12.06,8.48-5.04-1.35-7.82-7.34-6.21-13.37ZM-28.66,1720.87c2.91-4.37,7.24-6.59,9.68-4.97,2.44,1.62,2.05,6.48-.86,10.84-2.91,4.37-7.24,6.59-9.68,4.97-2.44-1.62-2.05-6.48.86-10.84ZM-27.06,1711.03c-10.33,0-18.71-5.63-18.71-12.57,0-6.94,8.38-12.57,18.71-12.57,10.33,0,18.71,5.63,18.71,12.57s-8.38,12.57-18.71,12.57ZM-207.61,1543.68c-2.22-4.9-1.35-10.08,1.95-11.57s7.77,1.26,9.99,6.16c2.22,4.9,1.35,10.08-1.95,11.57-3.3,1.49-7.77-1.26-9.99-6.16ZM-208.44,1568.26c0-6.94,8.38-12.57,18.71-12.57,10.33,0,18.71,5.63,18.71,12.57,0,6.94-8.38,12.57-18.71,12.57-10.33,0-18.71-5.63-18.71-12.57ZM-178.45,1603.01c0-13.53,16.32-24.49,36.45-24.49,20.13,0,36.45,10.97,36.45,24.49,0,13.53-16.32,24.49-36.45,24.49-20.13,0-36.45-10.97-36.45-24.49ZM-232.22,1686.77c-6.45-14.01,8.95-34.87,34.39-46.57,25.44-11.71,51.29-9.84,57.74,4.18,6.45,14.01-8.95,34.87-34.39,46.57-25.44,11.71-51.29,9.84-57.74-4.18ZM-175.3,1740.81c2.73-6.56,7.91-10.65,11.57-9.13,3.66,1.52,4.42,8.08,1.69,14.64-2.73,6.56-7.91,10.65-11.57,9.13-3.66-1.52-4.42-8.08-1.69-14.64ZM-181.4,1771.15c16.21-5.78,33.12.13,37.77,13.19,4.65,13.06-4.71,28.33-20.92,34.11-16.21,5.78-33.12-.13-37.77-13.19-4.65-13.06,4.71-28.33,20.92-34.11ZM-218.57,1810.94c-2.44-1.62-2.05-6.48.86-10.84,2.91-4.37,7.24-6.59,9.68-4.97,2.44,1.62,2.05,6.48-.86,10.84-2.91,4.37-7.24,6.59-9.68,4.97ZM-139.48,1856.39c-3.51,13.11-15.25,21.36-26.21,18.42-10.96-2.94-17-15.95-13.48-29.06,3.51-13.11,15.25-21.36,26.21-18.42,10.96,2.94,17,15.95,13.48,29.06ZM-105.85,1851.91c-16.43,0-29.75-8.01-29.75-17.9s13.32-17.9,29.75-17.9c16.43,0,29.75,8.01,29.75,17.9,0,9.88-13.32,17.9-29.75,17.9ZM-17.12,1832.14c5.19,19.39-1.51,38.03-14.98,41.64-13.47,3.61-28.6-9.18-33.79-28.57-5.19-19.39,1.51-38.03,14.98-41.64,13.47-3.61,28.6,9.18,33.79,28.57ZM6.53,1832.86c-19.84-1.1-34.43-28.94-32.59-62.18,1.84-33.24,19.42-59.3,39.26-58.2,19.84,1.1,34.43,28.94,32.59,62.18-1.84,33.24-19.42,59.3-39.26,58.2ZM110.07,1828.04c7.37,27.5,2.42,52.72-11.05,56.33-13.47,3.61-30.36-15.76-37.73-43.26-7.37-27.5-2.42-52.72,11.05-56.33,13.47-3.61,30.36,15.76,37.73,43.26ZM52.94,1759.94c-2.44-1.62-2.05-6.48.86-10.84,2.91-4.37,7.24-6.59,9.68-4.97,2.44,1.62,2.05,6.48-.86,10.84-2.91,4.37-7.24,6.59-9.68,4.97ZM207.42,1814.94c-3.95,13.37-29.29,17.68-56.59,9.62-27.31-8.06-46.24-25.44-42.29-38.82,3.95-13.37,29.29-17.68,56.59-9.62s46.24,25.44,42.29,38.82ZM133.35,1760.3c-20.31,9.34-40.94,7.85-46.09-3.33-5.15-11.19,7.14-27.83,27.45-37.17,20.31-9.34,40.94-7.85,46.09,3.33,5.15,11.19-7.14,27.83-27.45,37.17ZM251.54,1801.84c0,6.94-8.38,12.57-18.71,12.57s-18.71-5.63-18.71-12.57c0-6.94,8.38-12.57,18.71-12.57s18.71,5.63,18.71,12.57ZM248.85,1761.13c0,13.53-16.32,24.49-36.45,24.49-20.13,0-36.45-10.97-36.45-24.49s16.32-24.49,36.45-24.49c20.13,0,36.45,10.97,36.45,24.49ZM173.25,1716.51c0-5.55,6.67-10.05,14.9-10.05,8.23,0,14.9,4.5,14.9,10.05,0,5.55-6.67,10.05-14.9,10.05-8.23,0-14.9-4.5-14.9-10.05ZM194.14,1685.29c-5.86,17.05-32.66,23.3-59.87,13.96-27.21-9.34-44.52-30.74-38.66-47.8,5.86-17.05,32.66-23.3,59.87-13.96,27.21,9.34,44.52,30.74,38.66,47.8ZM75.5,1641.36c-2.42-4.18-.21-9.98,4.94-12.95,5.14-2.97,11.27-1.98,13.68,2.2s.21,9.98-4.94,12.95c-5.14,2.97-11.27,1.98-13.68-2.2ZM129.36,1566.91c6.45,14.01-8.95,34.87-34.39,46.57-25.44,11.71-51.29,9.84-57.74-4.18-6.45-14.01,8.95-34.87,34.39-46.57,25.44-11.71,51.29-9.84,57.74,4.18ZM38.87,1448.25c13.47-3.61,30.36,15.76,37.73,43.26,7.37,27.5,2.42,52.72-11.05,56.33-13.47,3.61-30.36-15.76-37.73-43.26-7.37-27.5-2.42-52.72,11.05-56.33Z"/>
  <path class="uuid-f69ccb40-2811-4772-9c30-674094cd2e50" d="M714.68-31.58c0,17.31-9.96,31.35-22.25,31.35-12.29,0-22.25-14.04-22.25-31.35,0-2.76.26-5.43.73-7.98-4.09,1.11-8.15,2.37-12.18,3.78,2.48.85,4.16,2.41,4.16,4.21,0,2.69-3.75,4.87-8.37,4.87-4.21,0-7.69-1.81-8.27-4.17-9.51,4.15-18.72,9.17-27.54,15.04.39.68.77,1.37,1.1,2.11,3.59,7.93,2.18,16.32-3.16,18.74-4.85,2.2-11.25-1.29-15.08-7.89-3.33,2.85-6.57,5.84-9.74,8.96,6.04-.29,13.29,2.38,19.47,7.75,10.07,8.75,13.46,21.33,7.59,28.09-5.88,6.77-18.81,5.16-28.88-3.59-6.4-5.56-10.1-12.67-10.44-18.86-9.54,11.53-17.41,23.96-23.63,36.99,15.89,4.9,26.64,14.23,26.64,24.95,0,13.99-18.3,25.63-42.48,28.1-.75,5.52-1.25,11.07-1.49,16.62,1.95-.06,3.84.29,5.6,1.12,8.37,3.91,10.59,16.85,4.95,28.9-1.99,4.26-4.7,7.83-7.74,10.5.52,2.8,1.1,5.59,1.75,8.37,1.18-2.48,2.59-4.98,4.23-7.43,10.29-15.44,25.53-23.37,34.03-17.7,8.51,5.67,7.06,22.78-3.23,38.22-7,10.5-16.28,17.52-24.18,19.16,2.95,6.6,6.31,13.06,10.09,19.34,1.45-1.84,3.46-3.33,5.89-4.19,6.45-2.3,13.4.66,15.52,6.61,2.12,5.95-1.39,12.64-7.84,14.93-.45.16-.91.29-1.37.4,4.53,5.8,9.45,11.39,14.79,16.73,2.87,2.87,5.82,5.61,8.83,8.25,1.78-1.96,3.71-3.86,5.78-5.66,21.72-18.87,51.05-20.67,65.52-4.01,10.71,12.33,10.26,31.31.5,48,4.15,1.11,8.33,2.07,12.54,2.87-3.09-11.42-1.28-27.08,5.9-42.42,11.69-24.99,33.16-39.63,47.95-32.71,14.8,6.92,17.32,32.79,5.63,57.77-3.68,7.87-8.33,14.71-13.44,20.18,16.07-1.07,32.02-4.28,47.38-9.65-1.83-3.01-2.91-6.71-2.91-10.73,0-10.03,6.73-18.16,15.04-18.16s14.41,7.4,14.99,16.79c8.79-4.83,17.25-10.45,25.3-16.86-5.94.64-12.83-.5-19.52-3.63-14.44-6.75-22.43-20.18-17.84-30,4.59-9.81,20.02-12.29,34.46-5.54,11.92,5.57,19.43,15.69,19.12,24.58,25.99-26.36,42.2-58.74,48.61-92.62-25.97.46-47.26-11.64-48.5-28.23-1.31-17.57,20.35-33.5,48.39-35.59.24-.02.48-.03.72-.04-.61-3.59-1.34-7.16-2.17-10.72-9.55,6.17-23.79,10.09-39.69,10.09-28.77,0-52.09-12.8-52.09-28.6,0-15.79,23.32-28.6,52.09-28.6,8.27,0,16.08,1.06,23.02,2.94-3.04-5.65-6.4-11.18-10.09-16.54-.93.67-1.98,1.24-3.14,1.66-5.52,1.97-11.32-.18-12.96-4.79-1.46-4.09.85-8.73,5.23-11.11-1.49-1.76-3.02-3.5-4.58-5.22-12.35,25.5-38.07,38.66-57.84,29.42-19.98-9.35-26.3-38.05-14.12-64.11,1.85-3.95,4.02-7.61,6.43-10.95-18.48-7.46-37.95-11.71-57.56-12.78.48.65.9,1.38,1.26,2.17,1.92,4.24,1.17,8.73-1.69,10.02-2.85,1.29-6.73-1.09-8.65-5.34-1.15-2.54-1.33-5.16-.69-7.13-2.02,0-4.03.04-6.05.11,1.54,4.26,2.41,9.08,2.41,14.19ZM771,281.08c0,6.85-3.73,12.4-8.33,12.4s-8.33-5.55-8.33-12.4c0-6.85,3.73-12.4,8.33-12.4s8.33,5.55,8.33,12.4ZM840.32,38.47c-.34-1.71,2.01-3.62,5.26-4.27,3.24-.65,6.15.21,6.49,1.92.34,1.71-2.01,3.62-5.26,4.27-3.24.65-6.15-.21-6.49-1.92ZM756.56-35.11c1.93-2.89,4.8-4.37,6.41-3.29s1.36,4.29-.57,7.19c-1.93,2.89-4.8,4.37-6.41,3.29-1.61-1.08-1.36-4.29.57-7.19ZM756.62-21.41c1.07-4,4.65-6.51,7.99-5.62,3.34.9,5.18,4.86,4.11,8.86-1.07,4-4.65,6.51-7.99,5.62-3.34-.9-5.18-4.86-4.11-8.86ZM712.66,5.13c10.05.56,17.16,19.75,15.88,42.87-1.28,23.12-10.46,41.41-20.51,40.85-10.05-.56-17.16-19.75-15.88-42.87,1.28-23.12,10.46-41.41,20.51-40.85ZM760.42,133.93c-5.88,6.77-18.81,5.16-28.88-3.59-10.07-8.75-13.46-21.33-7.59-28.09,5.88-6.77,18.81-5.16,28.88,3.59,10.07,8.75,13.46,21.33,7.59,28.09ZM777.56,145.09c0,2.69-3.75,4.87-8.37,4.87-4.62,0-8.37-2.18-8.37-4.87s3.75-4.87,8.37-4.87c4.62,0,8.37,2.18,8.37,4.87ZM761.34,165.7c-3.03,3.48-10.63,1.84-16.97-3.68-6.35-5.51-9.04-12.81-6.01-16.29,3.03-3.48,10.63-1.84,16.97,3.68,6.35,5.51,9.04,12.81,6.01,16.29ZM634.46,27.17c-10.44-19.43-9.5-40.24,2.1-46.47,11.6-6.23,29.46,4.47,39.9,23.91,10.44,19.43,9.5,40.24-2.1,46.47-11.6,6.23-29.46-4.47-39.9-23.91ZM634.36,55.34c-1.92-4.24-1.17-8.73,1.69-10.02,2.85-1.29,6.73,1.09,8.65,5.34,1.92,4.24,1.17,8.73-1.69,10.02s-6.73-1.09-8.65-5.34ZM648.84,64.53c7.12-7.12,26.16.39,42.53,16.76,16.37,16.37,23.88,35.41,16.76,42.53-7.12,7.12-26.16-.39-42.53-16.76-16.37-16.37-23.88-35.41-16.76-42.53ZM622.79,195.03c-14.48-6.77-18.15-29.53-8.19-50.83,9.96-21.3,29.78-33.07,44.26-26.3,14.48,6.77,18.15,29.53,8.19,50.83-9.96,21.3-29.78,33.07-44.26,26.3ZM677.82,185.71c2.77,3.18.49,9.69-5.09,14.53-5.58,4.84-12.34,6.19-15.1,3.01-2.77-3.18-.49-9.69,5.09-14.53,5.58-4.84,12.34-6.19,15.1-3.01ZM595.44,158.58c-4.44-1.19-6.89-6.47-5.47-11.78s6.18-8.66,10.63-7.47c4.44,1.19,6.89,6.47,5.47,11.78-1.42,5.32-6.18,8.66-10.63,7.47ZM627.78,102.19c1.07-4,4.65-6.51,7.99-5.62,3.34.9,5.18,4.86,4.11,8.86-1.07,4-4.65,6.51-7.99,5.62-3.34-.9-5.18-4.86-4.11-8.86ZM690.68,155.05c1.93-2.89,4.8-4.37,6.41-3.29,1.61,1.08,1.36,4.29-.57,7.19-1.93,2.89-4.8,4.37-6.41,3.29s-1.36-4.29.57-7.19ZM691.74,148.53c-6.85,0-12.4-3.73-12.4-8.33,0-4.6,5.55-8.33,12.4-8.33,6.85,0,12.4,3.73,12.4,8.33s-5.55,8.33-12.4,8.33ZM572.11,37.64c-1.47-3.24-.89-6.68,1.29-7.67s5.15.84,6.62,4.08.89,6.68-1.29,7.67c-2.18.99-5.15-.84-6.62-4.08ZM571.56,53.93c0-4.6,5.55-8.33,12.4-8.33,6.85,0,12.4,3.73,12.4,8.33,0,4.6-5.55,8.33-12.4,8.33-6.85,0-12.4-3.73-12.4-8.33ZM591.43,76.95c0-8.96,10.81-16.23,24.15-16.23,13.34,0,24.15,7.27,24.15,16.23,0,8.96-10.81,16.23-24.15,16.23-13.34,0-24.15-7.27-24.15-16.23ZM555.8,132.45c-4.27-9.29,5.93-23.1,22.79-30.86,16.86-7.76,33.99-6.52,38.26,2.77,4.27,9.29-5.93,23.1-22.79,30.86-16.86,7.76-33.99,6.52-38.26-2.77ZM593.52,168.26c1.81-4.35,5.24-7.06,7.67-6.05,2.43,1.01,2.93,5.35,1.12,9.7-1.81,4.35-5.24,7.06-7.67,6.05-2.43-1.01-2.93-5.35-1.12-9.7ZM589.48,188.37c10.74-3.83,21.94.09,25.03,8.74,3.08,8.65-3.12,18.77-13.86,22.6-10.74,3.83-21.94-.09-25.03-8.74s3.12-18.77,13.86-22.6ZM564.84,214.73c-1.61-1.08-1.36-4.29.57-7.19,1.93-2.89,4.8-4.37,6.41-3.29,1.61,1.08,1.36,4.29-.57,7.19-1.93,2.89-4.8,4.37-6.41,3.29ZM617.25,244.84c-2.33,8.69-10.1,14.15-17.36,12.21-7.26-1.95-11.26-10.57-8.94-19.25,2.33-8.69,10.1-14.15,17.36-12.21,7.26,1.95,11.26,10.57,8.94,19.25ZM639.53,241.88c-10.89,0-19.71-5.31-19.71-11.86s8.82-11.86,19.71-11.86c10.89,0,19.71,5.31,19.71,11.86,0,6.55-8.82,11.86-19.71,11.86ZM698.33,228.77c3.44,12.84-1,25.2-9.93,27.59-8.93,2.39-18.95-6.08-22.39-18.93-3.44-12.84,1-25.2,9.93-27.59,8.93-2.39,18.95,6.08,22.39,18.93ZM714,229.25c-13.15-.73-22.82-19.17-21.6-41.2,1.22-22.03,12.86-39.29,26.01-38.57,13.15.73,22.82,19.17,21.6,41.2-1.22,22.03-12.86,39.29-26.01,38.57ZM782.6,226.06c4.88,18.22,1.61,34.93-7.32,37.33s-20.12-10.44-25-28.67c-4.88-18.22-1.61-34.93,7.32-37.33,8.93-2.39,20.12,10.44,25,28.67ZM744.75,180.94c-1.61-1.08-1.36-4.29.57-7.19,1.93-2.89,4.8-4.37,6.41-3.29,1.61,1.08,1.36,4.29-.57,7.19-1.93,2.89-4.8,4.37-6.41,3.29ZM847.11,217.38c-2.62,8.86-19.41,11.72-37.5,6.37-18.09-5.34-30.64-16.86-28.02-25.72,2.62-8.86,19.41-11.72,37.5-6.37,18.09,5.34,30.64,16.86,28.02,25.72ZM798.03,181.18c-13.46,6.19-27.13,5.2-30.54-2.21-3.41-7.41,4.73-18.44,18.19-24.63,13.46-6.19,27.13-5.2,30.54,2.21,3.41,7.41-4.73,18.44-18.19,24.63ZM876.34,208.7c0,4.6-5.55,8.33-12.4,8.33s-12.4-3.73-12.4-8.33c0-4.6,5.55-8.33,12.4-8.33s12.4,3.73,12.4,8.33ZM874.56,181.73c0,8.96-10.81,16.23-24.15,16.23-13.34,0-24.15-7.27-24.15-16.23s10.81-16.23,24.15-16.23c13.34,0,24.15,7.27,24.15,16.23ZM824.47,152.16c0-3.68,4.42-6.66,9.87-6.66,5.45,0,9.87,2.98,9.87,6.66,0,3.68-4.42,6.66-9.87,6.66-5.45,0-9.87-2.98-9.87-6.66ZM838.31,131.47c-3.88,11.3-21.64,15.44-39.67,9.25-18.03-6.19-29.5-20.37-25.62-31.67,3.88-11.3,21.64-15.44,39.67-9.25,18.03,6.19,29.5,20.37,25.62,31.67ZM759.7,102.37c-1.6-2.77-.14-6.62,3.27-8.58,3.41-1.97,7.47-1.31,9.07,1.46s.14,6.62-3.27,8.58c-3.41,1.97-7.47,1.31-9.07-1.46ZM795.39,53.03c4.27,9.29-5.93,23.1-22.79,30.86-16.86,7.76-33.99,6.52-38.26-2.77-4.27-9.29,5.93-23.1,22.79-30.86,16.86-7.76,33.99-6.52,38.26,2.77ZM735.43-25.59c8.93-2.39,20.12,10.44,25,28.67,4.88,18.22,1.61,34.93-7.32,37.33-8.93,2.39-20.12-10.44-25-28.67-4.88-18.22-1.61-34.93,7.32-37.33Z"/>
</svg>