<?xml version="1.0" encoding="UTF-8"?>
<svg xmlns="http://www.w3.org/2000/svg" viewBox="0 0 289.5 382.53">
  <defs>
    <style>
      .uuid-97922287-ac78-4363-945a-4467df73482a {
        fill: #e42a31;
        mix-blend-mode: overlay;
      }

      .uuid-02522d49-241d-4036-a5c9-99d113097822 {
        isolation: isolate;
      }
    </style>
  </defs>
  <g class="uuid-02522d49-241d-4036-a5c9-99d113097822">
    <g id="uuid-308f410d-77b7-4704-b0ea-6ef84282ae77" data-name="Layer 2">
      <g id="uuid-388d1a4c-daaf-4f5e-a5da-f7134912c2f9" data-name="minihex">
        <polygon class="uuid-97922287-ac78-4363-945a-4467df73482a" points="141.57 104.53 128.19 104.53 121.5 115.81 128.19 127.09 141.57 127.09 148.25 115.81 141.57 104.53"/>
        <polygon class="uuid-97922287-ac78-4363-945a-4467df73482a" points="161.52 69.69 148.15 69.69 141.46 80.97 148.15 92.25 161.52 92.25 168.21 80.97 161.52 69.69"/>
        <polygon class="uuid-97922287-ac78-4363-945a-4467df73482a" points="141.57 58.02 128.19 58.02 121.5 69.3 128.19 80.58 141.57 80.58 148.25 69.3 141.57 58.02"/>
        <polygon class="uuid-97922287-ac78-4363-945a-4467df73482a" points="120.98 208.92 107.61 208.92 100.92 220.2 107.61 231.48 120.98 231.48 127.67 220.2 120.98 208.92"/>
        <polygon class="uuid-97922287-ac78-4363-945a-4467df73482a" points="181.57 336.69 168.19 336.69 161.5 347.97 168.19 359.25 181.57 359.25 188.25 347.97 181.57 336.69"/>
        <polygon class="uuid-97922287-ac78-4363-945a-4467df73482a" points="282.1 23.24 268.72 23.24 262.04 34.52 268.72 45.8 282.1 45.8 288.78 34.52 282.1 23.24"/>
        <polygon class="uuid-97922287-ac78-4363-945a-4467df73482a" points="242.04 162.53 228.67 162.53 221.98 173.81 228.67 185.09 242.04 185.09 248.73 173.81 242.04 162.53"/>
        <polygon class="uuid-97922287-ac78-4363-945a-4467df73482a" points="262.51 174.14 249.14 174.14 242.45 185.42 249.14 196.7 262.51 196.7 269.2 185.42 262.51 174.14"/>
        <polygon class="uuid-97922287-ac78-4363-945a-4467df73482a" points="201.73 231.88 188.36 231.88 181.67 243.66 188.36 255.44 201.73 255.44 208.42 243.66 201.73 231.88"/>
        <polygon class="uuid-97922287-ac78-4363-945a-4467df73482a" points="262.4 313.38 249.02 313.38 242.34 324.66 249.02 335.94 262.4 335.94 269.08 324.66 262.4 313.38"/>
        <polygon class="uuid-97922287-ac78-4363-945a-4467df73482a" points="161.38 348 148.01 348 141.32 359.28 148.01 370.56 161.38 370.56 168.07 359.28 161.38 348"/>
        <polygon class="uuid-97922287-ac78-4363-945a-4467df73482a" points="20.25 220.63 6.88 220.63 .19 231.91 6.88 243.19 20.25 243.19 26.94 231.91 20.25 220.63"/>
        <polygon class="uuid-97922287-ac78-4363-945a-4467df73482a" points="60.52 127.55 47.15 127.55 40.46 138.83 47.15 150.11 60.52 150.11 67.21 138.83 60.52 127.55"/>
        <polygon class="uuid-97922287-ac78-4363-945a-4467df73482a" points="40.57 116.13 27.19 116.13 20.5 127.41 27.19 138.69 40.57 138.69 47.25 127.41 40.57 116.13"/>
        <polygon class="uuid-97922287-ac78-4363-945a-4467df73482a" points="20.06 359.97 6.69 359.97 0 371.25 6.69 382.53 20.06 382.53 26.75 371.25 20.06 359.97"/>
        <polygon class="uuid-97922287-ac78-4363-945a-4467df73482a" points="60.62 359.62 47.25 359.62 40.56 370.9 47.25 382.18 60.62 382.18 67.31 370.9 60.62 359.62"/>
        <polygon class="uuid-97922287-ac78-4363-945a-4467df73482a" points="40.4 348.3 27.03 348.3 20.34 359.59 27.03 370.87 40.4 370.87 47.09 359.59 40.4 348.3"/>
        <polygon class="uuid-97922287-ac78-4363-945a-4467df73482a" points="222.12 220.6 208.74 220.6 202.06 231.88 208.74 243.16 222.12 243.16 228.8 231.88 222.12 220.6"/>
        <polygon class="uuid-97922287-ac78-4363-945a-4467df73482a" points="60.46 290.12 47.08 290.12 40.4 301.4 47.08 312.68 60.46 312.68 67.15 301.4 60.46 290.12"/>
        <polygon class="uuid-97922287-ac78-4363-945a-4467df73482a" points="201.58 92.53 188.21 92.53 181.52 103.98 188.21 115.42 201.58 115.42 208.27 103.98 201.58 92.53"/>
        <polygon class="uuid-97922287-ac78-4363-945a-4467df73482a" points="262.21 34.88 248.84 34.88 242.15 46.16 248.84 57.44 262.21 57.44 268.9 46.16 262.21 34.88"/>
        <polygon class="uuid-97922287-ac78-4363-945a-4467df73482a" points="282.82 46.16 269.44 46.16 262.76 57.67 269.44 69.18 282.82 69.18 289.5 57.67 282.82 46.16"/>
        <polygon class="uuid-97922287-ac78-4363-945a-4467df73482a" points="87.44 196.7 100.81 196.7 107.5 185.42 100.81 174.14 87.44 174.14 80.75 185.42 87.44 196.7"/>
        <polygon class="uuid-97922287-ac78-4363-945a-4467df73482a" points="67.52 208.31 80.89 208.31 87.58 197.03 80.89 185.75 67.52 185.75 60.83 197.03 67.52 208.31"/>
        <polygon class="uuid-97922287-ac78-4363-945a-4467df73482a" points="67.36 185.09 80.73 185.09 87.42 173.81 80.73 162.53 67.36 162.53 60.67 173.81 67.36 185.09"/>
        <polygon class="uuid-97922287-ac78-4363-945a-4467df73482a" points="107.77 161.92 121.15 161.92 127.84 150.64 121.15 139.36 107.77 139.36 101.09 150.64 107.77 161.92"/>
        <polygon class="uuid-97922287-ac78-4363-945a-4467df73482a" points="127.86 196.67 141.23 196.67 147.92 185.39 141.23 174.11 127.86 174.11 121.17 185.39 127.86 196.67"/>
        <polygon class="uuid-97922287-ac78-4363-945a-4467df73482a" points="148.09 208.27 161.47 208.27 168.15 196.99 161.47 185.71 148.09 185.71 141.4 196.99 148.09 208.27"/>
        <polygon class="uuid-97922287-ac78-4363-945a-4467df73482a" points="188.21 138.69 201.58 138.69 208.27 127.41 201.58 116.13 188.21 116.13 181.52 127.41 188.21 138.69"/>
        <polygon class="uuid-97922287-ac78-4363-945a-4467df73482a" points="87.18 127.07 100.55 127.07 107.24 115.78 100.55 104.5 87.18 104.5 80.49 115.78 87.18 127.07"/>
        <polygon class="uuid-97922287-ac78-4363-945a-4467df73482a" points="6.74 103.97 20.12 103.97 26.81 92.69 20.12 81.41 6.74 81.41 .06 92.69 6.74 103.97"/>
        <polygon class="uuid-97922287-ac78-4363-945a-4467df73482a" points="6.74 57.16 20.12 57.16 26.81 45.88 20.12 34.6 6.74 34.6 .06 45.88 6.74 57.16"/>
        <polygon class="uuid-97922287-ac78-4363-945a-4467df73482a" points="46.96 103.81 60.33 103.81 67.02 92.53 60.33 81.25 46.96 81.25 40.27 92.53 46.96 103.81"/>
        <polygon class="uuid-97922287-ac78-4363-945a-4467df73482a" points="67.29 45.77 80.67 45.77 87.35 34.49 80.67 23.21 67.29 23.21 60.61 34.49 67.29 45.77"/>
        <polygon class="uuid-97922287-ac78-4363-945a-4467df73482a" points="107.77 115.26 121.15 115.26 127.84 103.98 121.15 92.7 107.77 92.7 101.09 103.98 107.77 115.26"/>
        <polygon class="uuid-97922287-ac78-4363-945a-4467df73482a" points="168.4 80.58 181.78 80.58 188.46 69.3 181.78 58.02 168.4 58.02 161.72 69.3 168.4 80.58"/>
        <polygon class="uuid-97922287-ac78-4363-945a-4467df73482a" points="188.21 68.95 201.58 68.95 208.27 57.67 201.58 46.39 188.21 46.39 181.52 57.67 188.21 68.95"/>
        <polygon class="uuid-97922287-ac78-4363-945a-4467df73482a" points="208.34 80.58 221.71 80.58 228.4 69.3 221.71 58.02 208.34 58.02 201.65 69.3 208.34 80.58"/>
        <polygon class="uuid-97922287-ac78-4363-945a-4467df73482a" points="228.75 22.56 242.13 22.56 248.82 11.28 242.13 0 228.75 0 222.07 11.28 228.75 22.56"/>
        <polygon class="uuid-97922287-ac78-4363-945a-4467df73482a" points="6.91 196.69 20.28 196.69 26.97 185.41 20.28 174.13 6.91 174.13 .22 185.41 6.91 196.69"/>
        <polygon class="uuid-97922287-ac78-4363-945a-4467df73482a" points="249.14 243.16 262.51 243.16 269.2 231.88 262.51 220.6 249.14 220.6 242.45 231.88 249.14 243.16"/>
        <polygon class="uuid-97922287-ac78-4363-945a-4467df73482a" points="228.59 301.23 241.96 301.23 248.65 289.95 241.96 278.67 228.59 278.67 221.9 289.95 228.59 301.23"/>
        <polygon class="uuid-97922287-ac78-4363-945a-4467df73482a" points="208.88 312.64 222.25 312.64 228.94 301.36 222.25 290.07 208.88 290.07 202.19 301.36 208.88 312.64"/>
        <polygon class="uuid-97922287-ac78-4363-945a-4467df73482a" points="188.2 301.23 201.58 301.23 208.26 289.95 201.58 278.67 188.2 278.67 181.52 289.95 188.2 301.23"/>
        <polygon class="uuid-97922287-ac78-4363-945a-4467df73482a" points="67.35 324.53 80.73 324.53 87.41 313.25 80.73 301.97 67.35 301.97 60.67 313.25 67.35 324.53"/>
        <polygon class="uuid-97922287-ac78-4363-945a-4467df73482a" points="6.83 312.68 20.2 312.68 26.89 301.4 20.2 290.12 6.83 290.12 .14 301.4 6.83 312.68"/>
        <polygon class="uuid-97922287-ac78-4363-945a-4467df73482a" points="107.61 278 120.98 278 127.67 266.72 120.98 255.44 107.61 255.44 100.92 266.72 107.61 278"/>
        <polygon class="uuid-97922287-ac78-4363-945a-4467df73482a" points="47.48 219.85 60.85 219.85 67.54 208.57 60.85 197.29 47.48 197.29 40.79 208.57 47.48 219.85"/>
        <polygon class="uuid-97922287-ac78-4363-945a-4467df73482a" points="269.35 370.79 282.72 370.79 289.41 359.51 282.72 348.23 269.35 348.23 262.66 359.51 269.35 370.79"/>
        <polygon class="uuid-97922287-ac78-4363-945a-4467df73482a" points="269.19 92.25 282.56 92.25 289.25 80.97 282.56 69.69 269.19 69.69 262.5 80.97 269.19 92.25"/>
      </g>
    </g>
  </g>
</svg>