<?xml version="1.0" encoding="UTF-8"?>
<svg xmlns="http://www.w3.org/2000/svg" viewBox="0 0 349.77 486.71">
  <defs>
    <style>
      .uuid-a57f7ac1-18c3-45d8-a8da-00b3c71fd83f {
        isolation: isolate;
      }

      .uuid-4df7ec12-eecf-4d7d-bb5e-b776eea4df91 {
        fill: #e43e96;
        mix-blend-mode: overlay;
      }
    </style>
  </defs>
  <g class="uuid-a57f7ac1-18c3-45d8-a8da-00b3c71fd83f">
    <g id="uuid-d36df135-015f-43fa-ae4f-7ef5c19cdfc9" data-name="Layer 2">
      <g id="uuid-995599e9-6072-4b6b-86ea-05fc74003776" data-name="minihex">
        <polygon class="uuid-4df7ec12-eecf-4d7d-bb5e-b776eea4df91" points="343.08 0 329.71 0 323.02 11.28 329.71 22.56 343.08 22.56 349.77 11.28 343.08 0"/>
        <polygon class="uuid-4df7ec12-eecf-4d7d-bb5e-b776eea4df91" points="181.47 46.47 168.1 46.47 161.41 57.75 168.1 69.03 181.47 69.03 188.16 57.75 181.47 46.47"/>
        <polygon class="uuid-4df7ec12-eecf-4d7d-bb5e-b776eea4df91" points="201.82 58.08 188.45 58.08 181.76 69.36 188.45 80.64 201.82 80.64 208.51 69.36 201.82 58.08"/>
        <polygon class="uuid-4df7ec12-eecf-4d7d-bb5e-b776eea4df91" points="222.12 46.47 208.75 46.47 202.06 57.75 208.75 69.03 222.12 69.03 228.81 57.75 222.12 46.47"/>
        <polygon class="uuid-4df7ec12-eecf-4d7d-bb5e-b776eea4df91" points="282.35 174.21 268.98 174.21 262.29 185.49 268.98 196.77 282.35 196.77 289.04 185.49 282.35 174.21"/>
        <polygon class="uuid-4df7ec12-eecf-4d7d-bb5e-b776eea4df91" points="80.62 127.76 67.24 127.76 60.55 139.04 67.24 150.32 80.62 150.32 87.3 139.04 80.62 127.76"/>
        <polygon class="uuid-4df7ec12-eecf-4d7d-bb5e-b776eea4df91" points="100.82 139.39 87.45 139.39 80.76 150.67 87.45 161.95 100.82 161.95 107.51 150.67 100.82 139.39"/>
        <polygon class="uuid-4df7ec12-eecf-4d7d-bb5e-b776eea4df91" points="40.43 197.4 27.05 197.4 20.37 208.68 27.05 219.96 40.43 219.96 47.11 208.68 40.43 197.4"/>
        <polygon class="uuid-4df7ec12-eecf-4d7d-bb5e-b776eea4df91" points="181.47 209.01 168.1 209.01 161.41 220.29 168.1 231.57 181.47 231.57 188.16 220.29 181.47 209.01"/>
        <polygon class="uuid-4df7ec12-eecf-4d7d-bb5e-b776eea4df91" points="161.4 243.84 148.03 243.84 141.34 255.12 148.03 266.4 161.4 266.4 168.09 255.12 161.4 243.84"/>
        <polygon class="uuid-4df7ec12-eecf-4d7d-bb5e-b776eea4df91" points="262.35 255.45 248.97 255.45 242.29 266.73 248.97 278.01 262.35 278.01 269.03 266.73 262.35 255.45"/>
        <polygon class="uuid-4df7ec12-eecf-4d7d-bb5e-b776eea4df91" points="201.72 382.77 188.35 382.77 181.66 394.26 188.35 405.76 201.72 405.76 208.41 394.26 201.72 382.77"/>
        <polygon class="uuid-4df7ec12-eecf-4d7d-bb5e-b776eea4df91" points="100.88 325.11 87.5 325.11 80.82 336.39 87.5 347.67 100.88 347.67 107.56 336.39 100.88 325.11"/>
        <polygon class="uuid-4df7ec12-eecf-4d7d-bb5e-b776eea4df91" points="222.06 371.49 208.68 371.49 202 382.77 208.68 394.05 222.06 394.05 228.75 382.77 222.06 371.49"/>
        <polygon class="uuid-4df7ec12-eecf-4d7d-bb5e-b776eea4df91" points="201.72 359.62 188.35 359.62 181.66 371.2 188.35 382.77 201.72 382.77 208.41 371.2 201.72 359.62"/>
        <polygon class="uuid-4df7ec12-eecf-4d7d-bb5e-b776eea4df91" points="282.58 359.92 269.21 359.92 262.52 371.2 269.21 382.48 282.58 382.48 289.27 371.2 282.58 359.92"/>
        <polygon class="uuid-4df7ec12-eecf-4d7d-bb5e-b776eea4df91" points="282.58 429.04 269.21 429.04 262.52 440.93 269.21 452.82 282.58 452.82 289.27 440.93 282.58 429.04"/>
        <polygon class="uuid-4df7ec12-eecf-4d7d-bb5e-b776eea4df91" points="262.36 440.93 248.98 440.93 242.29 452.21 248.98 463.49 262.36 463.49 269.04 452.21 262.36 440.93"/>
        <polygon class="uuid-4df7ec12-eecf-4d7d-bb5e-b776eea4df91" points="60.49 464.15 47.12 464.15 40.43 475.43 47.12 486.71 60.49 486.71 67.18 475.43 60.49 464.15"/>
        <polygon class="uuid-4df7ec12-eecf-4d7d-bb5e-b776eea4df91" points="40.18 383.01 26.81 383.01 20.12 394.39 26.81 405.76 40.18 405.76 46.87 394.39 40.18 383.01"/>
        <polygon class="uuid-4df7ec12-eecf-4d7d-bb5e-b776eea4df91" points="60.49 371.26 47.12 371.26 40.43 382.71 47.12 394.16 60.49 394.16 67.18 382.71 60.49 371.26"/>
        <polygon class="uuid-4df7ec12-eecf-4d7d-bb5e-b776eea4df91" points="201.91 197.4 188.54 197.4 181.85 208.68 188.54 219.96 201.91 219.96 208.6 208.68 201.91 197.4"/>
        <polygon class="uuid-4df7ec12-eecf-4d7d-bb5e-b776eea4df91" points="100.78 185.79 87.41 185.79 80.72 197.16 87.41 208.53 100.78 208.53 107.47 197.16 100.78 185.79"/>
        <polygon class="uuid-4df7ec12-eecf-4d7d-bb5e-b776eea4df91" points="161.22 104.47 147.85 104.47 141.16 115.75 147.85 127.03 161.22 127.03 167.91 115.75 161.22 104.47"/>
        <polygon class="uuid-4df7ec12-eecf-4d7d-bb5e-b776eea4df91" points="20.06 185.79 6.69 185.79 0 197.07 6.69 208.35 20.06 208.35 26.75 197.07 20.06 185.79"/>
        <polygon class="uuid-4df7ec12-eecf-4d7d-bb5e-b776eea4df91" points="249.09 138.74 262.47 138.74 269.15 127.46 262.47 116.18 249.09 116.18 242.41 127.46 249.09 138.74"/>
        <polygon class="uuid-4df7ec12-eecf-4d7d-bb5e-b776eea4df91" points="309.56 289.52 322.93 289.52 329.62 278.24 322.93 266.96 309.56 266.96 302.87 278.24 309.56 289.52"/>
        <polygon class="uuid-4df7ec12-eecf-4d7d-bb5e-b776eea4df91" points="309.43 57.46 322.8 57.46 329.49 46.18 322.8 34.9 309.43 34.9 302.74 46.18 309.43 57.46"/>
        <polygon class="uuid-4df7ec12-eecf-4d7d-bb5e-b776eea4df91" points="289.44 394.05 302.81 394.05 309.5 382.77 302.81 371.49 289.44 371.49 282.75 382.77 289.44 394.05"/>
        <polygon class="uuid-4df7ec12-eecf-4d7d-bb5e-b776eea4df91" points="289.44 370.9 302.81 370.9 309.5 359.62 302.81 348.34 289.44 348.34 282.75 359.62 289.44 370.9"/>
        <polygon class="uuid-4df7ec12-eecf-4d7d-bb5e-b776eea4df91" points="248.98 347.73 262.36 347.73 269.04 336.45 262.36 325.17 248.98 325.17 242.29 336.45 248.98 347.73"/>
        <polygon class="uuid-4df7ec12-eecf-4d7d-bb5e-b776eea4df91" points="127.92 301.21 141.29 301.21 147.98 289.93 141.29 278.65 127.92 278.65 121.23 289.93 127.92 301.21"/>
        <polygon class="uuid-4df7ec12-eecf-4d7d-bb5e-b776eea4df91" points="107.59 312.8 120.97 312.8 127.65 301.52 120.97 290.24 107.59 290.24 100.91 301.52 107.59 312.8"/>
        <polygon class="uuid-4df7ec12-eecf-4d7d-bb5e-b776eea4df91" points="87.47 301.34 100.84 301.34 107.53 289.99 100.84 278.65 87.47 278.65 80.78 289.99 87.47 301.34"/>
        <polygon class="uuid-4df7ec12-eecf-4d7d-bb5e-b776eea4df91" points="168.15 394.26 181.52 394.26 188.21 382.87 181.52 371.49 168.15 371.49 161.46 382.87 168.15 394.26"/>
        <polygon class="uuid-4df7ec12-eecf-4d7d-bb5e-b776eea4df91" points="228.72 243.17 242.09 243.17 248.78 231.89 242.09 220.61 228.72 220.61 222.03 231.89 228.72 243.17"/>
        <polygon class="uuid-4df7ec12-eecf-4d7d-bb5e-b776eea4df91" points="67.36 127.1 80.73 127.1 87.42 115.82 80.73 104.54 67.36 104.54 60.67 115.82 67.36 127.1"/>
        <polygon class="uuid-4df7ec12-eecf-4d7d-bb5e-b776eea4df91" points="47.13 138.67 60.5 138.67 67.19 127.39 60.5 116.11 47.13 116.11 40.44 127.39 47.13 138.67"/>
        <polygon class="uuid-4df7ec12-eecf-4d7d-bb5e-b776eea4df91" points="127.92 69.07 141.29 69.07 147.98 57.79 141.29 46.51 127.92 46.51 121.23 57.79 127.92 69.07"/>
        <polygon class="uuid-4df7ec12-eecf-4d7d-bb5e-b776eea4df91" points="188.39 127.09 201.76 127.09 208.45 115.81 201.76 104.53 188.39 104.53 181.7 115.81 188.39 127.09"/>
        <polygon class="uuid-4df7ec12-eecf-4d7d-bb5e-b776eea4df91" points="168.01 115.43 181.39 115.43 188.07 104.15 181.39 92.87 168.01 92.87 161.32 104.15 168.01 115.43"/>
        <polygon class="uuid-4df7ec12-eecf-4d7d-bb5e-b776eea4df91" points="208.74 115.32 222.11 115.32 228.8 104.04 222.11 92.76 208.74 92.76 202.05 104.04 208.74 115.32"/>
        <polygon class="uuid-4df7ec12-eecf-4d7d-bb5e-b776eea4df91" points="148.16 475.43 161.53 475.43 168.22 464.15 161.53 452.87 148.16 452.87 141.47 464.15 148.16 475.43"/>
        <polygon class="uuid-4df7ec12-eecf-4d7d-bb5e-b776eea4df91" points="127.62 486.71 140.99 486.71 147.68 475.43 140.99 464.15 127.62 464.15 120.93 475.43 127.62 486.71"/>
        <polygon class="uuid-4df7ec12-eecf-4d7d-bb5e-b776eea4df91" points="87.41 440.54 100.79 440.54 107.47 429.26 100.79 417.98 87.41 417.98 80.73 429.26 87.41 440.54"/>
        <polygon class="uuid-4df7ec12-eecf-4d7d-bb5e-b776eea4df91" points="6.76 324.47 20.14 324.47 26.82 313.19 20.14 301.91 6.76 301.91 .07 313.19 6.76 324.47"/>
      </g>
    </g>
  </g>
</svg>