<?xml version="1.0" encoding="UTF-8"?>
<svg xmlns="http://www.w3.org/2000/svg" viewBox="0 0 329.82 393.97">
  <defs>
    <style>
      .uuid-a12b67e1-9e97-46ab-a7c8-9f23f194bdd5 {
        fill: #af8ec1;
        mix-blend-mode: overlay;
      }

      .uuid-670eaaf3-af87-4e90-a975-bbf71423c1c8 {
        isolation: isolate;
      }
    </style>
  </defs>
  <g class="uuid-670eaaf3-af87-4e90-a975-bbf71423c1c8">
    <g id="uuid-d4287b8d-220d-40ad-a711-26a020f8cb1c" data-name="Layer 2">
      <g id="uuid-be75ddd5-1503-46ba-9376-27a98d325fc8" data-name="minihex">
        <polygon class="uuid-a12b67e1-9e97-46ab-a7c8-9f23f194bdd5" points="221.97 174.02 208.6 174.02 201.91 185.3 208.6 196.58 221.97 196.58 228.66 185.3 221.97 174.02"/>
        <polygon class="uuid-a12b67e1-9e97-46ab-a7c8-9f23f194bdd5" points="242.29 162.41 228.92 162.41 222.23 173.69 228.92 184.97 242.29 184.97 248.98 173.69 242.29 162.41"/>
        <polygon class="uuid-a12b67e1-9e97-46ab-a7c8-9f23f194bdd5" points="242.37 185.68 229 185.68 222.31 196.96 229 208.24 242.37 208.24 249.06 196.96 242.37 185.68"/>
        <polygon class="uuid-a12b67e1-9e97-46ab-a7c8-9f23f194bdd5" points="181.59 220.5 168.21 220.5 161.53 231.78 168.21 243.06 181.59 243.06 188.27 231.78 181.59 220.5"/>
        <polygon class="uuid-a12b67e1-9e97-46ab-a7c8-9f23f194bdd5" points="161.57 185.66 148.19 185.66 141.51 196.94 148.19 208.22 161.57 208.22 168.25 196.94 161.57 185.66"/>
        <polygon class="uuid-a12b67e1-9e97-46ab-a7c8-9f23f194bdd5" points="141.23 174.08 127.85 174.08 121.16 185.36 127.85 196.64 141.23 196.64 147.91 185.36 141.23 174.08"/>
        <polygon class="uuid-a12b67e1-9e97-46ab-a7c8-9f23f194bdd5" points="100.9 220.48 87.52 220.48 80.84 231.76 87.52 243.04 100.9 243.04 107.58 231.76 100.9 220.48"/>
        <polygon class="uuid-a12b67e1-9e97-46ab-a7c8-9f23f194bdd5" points="201.98 255.36 188.61 255.36 181.92 266.64 188.61 277.92 201.98 277.92 208.67 266.64 201.98 255.36"/>
        <polygon class="uuid-a12b67e1-9e97-46ab-a7c8-9f23f194bdd5" points="302.81 290.11 289.44 290.11 282.75 301.39 289.44 312.67 302.81 312.67 309.5 301.39 302.81 290.11"/>
        <polygon class="uuid-a12b67e1-9e97-46ab-a7c8-9f23f194bdd5" points="302.69 336.59 289.31 336.59 282.63 347.87 289.31 359.15 302.69 359.15 309.38 347.87 302.69 336.59"/>
        <polygon class="uuid-a12b67e1-9e97-46ab-a7c8-9f23f194bdd5" points="322.97 324.96 309.6 324.96 302.91 336.24 309.6 347.52 322.97 347.52 329.66 336.24 322.97 324.96"/>
        <polygon class="uuid-a12b67e1-9e97-46ab-a7c8-9f23f194bdd5" points="302.98 359.73 289.61 359.73 282.92 371.01 289.61 382.29 302.98 382.29 309.67 371.01 302.98 359.73"/>
        <polygon class="uuid-a12b67e1-9e97-46ab-a7c8-9f23f194bdd5" points="242.37 278.46 229 278.46 222.31 289.74 229 301.02 242.37 301.02 249.06 289.74 242.37 278.46"/>
        <polygon class="uuid-a12b67e1-9e97-46ab-a7c8-9f23f194bdd5" points="201.97 324.95 188.6 324.95 181.91 336.23 188.6 347.51 201.97 347.51 208.66 336.23 201.97 324.95"/>
        <polygon class="uuid-a12b67e1-9e97-46ab-a7c8-9f23f194bdd5" points="181.79 266.93 168.42 266.93 161.73 278.21 168.42 289.49 181.79 289.49 188.48 278.21 181.79 266.93"/>
        <polygon class="uuid-a12b67e1-9e97-46ab-a7c8-9f23f194bdd5" points="121.21 301.73 107.83 301.73 101.15 313.01 107.83 324.29 121.21 324.29 127.9 313.01 121.21 301.73"/>
        <polygon class="uuid-a12b67e1-9e97-46ab-a7c8-9f23f194bdd5" points="100.96 313.41 87.58 313.41 80.9 324.69 87.58 335.97 100.96 335.97 107.65 324.69 100.96 313.41"/>
        <polygon class="uuid-a12b67e1-9e97-46ab-a7c8-9f23f194bdd5" points="80.9 301.73 67.53 301.73 60.84 313.01 67.53 324.29 80.9 324.29 87.59 313.01 80.9 301.73"/>
        <polygon class="uuid-a12b67e1-9e97-46ab-a7c8-9f23f194bdd5" points="60.49 359.8 47.12 359.8 40.43 371.08 47.12 382.36 60.49 382.36 67.18 371.08 60.49 359.8"/>
        <polygon class="uuid-a12b67e1-9e97-46ab-a7c8-9f23f194bdd5" points="302.9 197.31 289.52 197.31 282.84 208.59 289.52 219.87 302.9 219.87 309.58 208.59 302.9 197.31"/>
        <polygon class="uuid-a12b67e1-9e97-46ab-a7c8-9f23f194bdd5" points="323.13 208.83 309.76 208.83 303.07 220.11 309.76 231.39 323.13 231.39 329.82 220.11 323.13 208.83"/>
        <polygon class="uuid-a12b67e1-9e97-46ab-a7c8-9f23f194bdd5" points="40.35 139.11 26.97 139.11 20.28 150.4 26.97 161.68 40.35 161.68 47.03 150.4 40.35 139.11"/>
        <polygon class="uuid-a12b67e1-9e97-46ab-a7c8-9f23f194bdd5" points="60.47 81.15 47.1 81.15 40.41 92.43 47.1 103.71 60.47 103.71 67.16 92.43 60.47 81.15"/>
        <polygon class="uuid-a12b67e1-9e97-46ab-a7c8-9f23f194bdd5" points="80.68 69.58 67.31 69.58 60.62 80.86 67.31 92.14 80.68 92.14 87.37 80.86 80.68 69.58"/>
        <polygon class="uuid-a12b67e1-9e97-46ab-a7c8-9f23f194bdd5" points="100.96 81.21 87.59 81.21 80.9 92.49 87.59 103.77 100.96 103.77 107.65 92.49 100.96 81.21"/>
        <polygon class="uuid-a12b67e1-9e97-46ab-a7c8-9f23f194bdd5" points="221.99 57.98 208.61 57.98 201.93 69.26 208.61 80.54 221.99 80.54 228.68 69.26 221.99 57.98"/>
        <polygon class="uuid-a12b67e1-9e97-46ab-a7c8-9f23f194bdd5" points="302.73 81.22 289.36 81.22 282.67 92.5 289.36 103.78 302.73 103.78 309.42 92.5 302.73 81.22"/>
        <polygon class="uuid-a12b67e1-9e97-46ab-a7c8-9f23f194bdd5" points="323.05 92.83 309.68 92.83 302.99 104.11 309.68 115.39 323.05 115.39 329.74 104.11 323.05 92.83"/>
        <polygon class="uuid-a12b67e1-9e97-46ab-a7c8-9f23f194bdd5" points="323.04 115.97 309.67 115.97 302.98 127.25 309.67 138.53 323.04 138.53 329.73 127.25 323.04 115.97"/>
        <polygon class="uuid-a12b67e1-9e97-46ab-a7c8-9f23f194bdd5" points="161.63 92.79 148.26 92.79 141.57 104.07 148.26 115.35 161.63 115.35 168.32 104.07 161.63 92.79"/>
        <polygon class="uuid-a12b67e1-9e97-46ab-a7c8-9f23f194bdd5" points="242.28 139.23 228.91 139.23 222.22 150.51 228.91 161.79 242.28 161.79 248.97 150.51 242.28 139.23"/>
        <polygon class="uuid-a12b67e1-9e97-46ab-a7c8-9f23f194bdd5" points="20.13 34.71 6.75 34.71 .06 45.99 6.75 57.27 20.13 57.27 26.81 45.99 20.13 34.71"/>
        <polygon class="uuid-a12b67e1-9e97-46ab-a7c8-9f23f194bdd5" points="20.06 266.91 6.69 266.91 0 278.19 6.69 289.47 20.06 289.47 26.75 278.19 20.06 266.91"/>
        <polygon class="uuid-a12b67e1-9e97-46ab-a7c8-9f23f194bdd5" points="168.31 266.21 181.69 266.21 188.37 254.93 181.69 243.65 168.31 243.65 161.63 254.93 168.31 266.21"/>
        <polygon class="uuid-a12b67e1-9e97-46ab-a7c8-9f23f194bdd5" points="128.02 312.74 141.4 312.74 148.08 301.46 141.4 290.18 128.02 290.18 121.33 301.46 128.02 312.74"/>
        <polygon class="uuid-a12b67e1-9e97-46ab-a7c8-9f23f194bdd5" points="148.14 324.29 161.52 324.29 168.2 313.01 161.52 301.73 148.14 301.73 141.46 313.01 148.14 324.29"/>
        <polygon class="uuid-a12b67e1-9e97-46ab-a7c8-9f23f194bdd5" points="148.08 161.72 161.46 161.72 168.14 150.44 161.46 139.16 148.08 139.16 141.4 150.44 148.08 161.72"/>
        <polygon class="uuid-a12b67e1-9e97-46ab-a7c8-9f23f194bdd5" points="107.73 45.63 121.1 45.63 127.79 34.35 121.1 23.07 107.73 23.07 101.04 34.35 107.73 45.63"/>
        <polygon class="uuid-a12b67e1-9e97-46ab-a7c8-9f23f194bdd5" points="6.69 335.95 20.06 335.95 26.75 324.67 20.06 313.39 6.69 313.39 0 324.67 6.69 335.95"/>
        <polygon class="uuid-a12b67e1-9e97-46ab-a7c8-9f23f194bdd5" points="47.16 243.01 60.53 243.01 67.22 231.73 60.53 220.45 47.16 220.45 40.47 231.73 47.16 243.01"/>
        <polygon class="uuid-a12b67e1-9e97-46ab-a7c8-9f23f194bdd5" points="26.83 231.42 40.21 231.42 46.9 220.14 40.21 208.86 26.83 208.86 20.15 220.14 26.83 231.42"/>
        <polygon class="uuid-a12b67e1-9e97-46ab-a7c8-9f23f194bdd5" points="87.59 173.41 100.96 173.41 107.65 162.13 100.96 150.85 87.59 150.85 80.9 162.13 87.59 173.41"/>
        <polygon class="uuid-a12b67e1-9e97-46ab-a7c8-9f23f194bdd5" points="26.88 92.09 40.26 92.09 46.94 80.81 40.26 69.53 26.88 69.53 20.2 80.81 26.88 92.09"/>
        <polygon class="uuid-a12b67e1-9e97-46ab-a7c8-9f23f194bdd5" points="127.9 34.25 141.28 34.25 147.96 22.97 141.28 11.69 127.9 11.69 121.21 22.97 127.9 34.25"/>
        <polygon class="uuid-a12b67e1-9e97-46ab-a7c8-9f23f194bdd5" points="269.16 161.81 282.53 161.81 289.22 150.53 282.53 139.25 269.16 139.25 262.47 150.53 269.16 161.81"/>
        <polygon class="uuid-a12b67e1-9e97-46ab-a7c8-9f23f194bdd5" points="248.93 243.06 262.3 243.06 268.99 231.78 262.3 220.5 248.93 220.5 242.24 231.78 248.93 243.06"/>
        <polygon class="uuid-a12b67e1-9e97-46ab-a7c8-9f23f194bdd5" points="269.24 254.73 282.62 254.73 289.3 243.45 282.62 232.17 269.24 232.17 262.55 243.45 269.24 254.73"/>
        <polygon class="uuid-a12b67e1-9e97-46ab-a7c8-9f23f194bdd5" points="269.27 22.56 282.64 22.56 289.33 11.28 282.64 0 269.27 0 262.58 11.28 269.27 22.56"/>
        <polygon class="uuid-a12b67e1-9e97-46ab-a7c8-9f23f194bdd5" points="249.24 34.17 262.61 34.17 269.3 22.89 262.61 11.61 249.24 11.61 242.55 22.89 249.24 34.17"/>
        <polygon class="uuid-a12b67e1-9e97-46ab-a7c8-9f23f194bdd5" points="269.32 45.7 282.7 45.7 289.38 34.42 282.7 23.14 269.32 23.14 262.64 34.42 269.32 45.7"/>
        <polygon class="uuid-a12b67e1-9e97-46ab-a7c8-9f23f194bdd5" points="67.27 161.73 80.64 161.73 87.33 150.45 80.64 139.17 67.27 139.17 60.58 150.45 67.27 161.73"/>
        <polygon class="uuid-a12b67e1-9e97-46ab-a7c8-9f23f194bdd5" points="269.33 92.08 282.7 92.08 289.39 80.8 282.7 69.52 269.33 69.52 262.64 80.8 269.33 92.08"/>
        <polygon class="uuid-a12b67e1-9e97-46ab-a7c8-9f23f194bdd5" points="87.5 266.43 100.88 266.43 107.56 254.98 100.88 243.54 87.5 243.54 80.82 254.98 87.5 266.43"/>
        <polygon class="uuid-a12b67e1-9e97-46ab-a7c8-9f23f194bdd5" points="67.2 393.97 80.57 393.97 87.26 382.69 80.57 371.4 67.2 371.4 60.51 382.69 67.2 393.97"/>
        <polygon class="uuid-a12b67e1-9e97-46ab-a7c8-9f23f194bdd5" points="27.03 324.56 40.4 324.56 47.09 312.94 40.4 301.33 27.03 301.33 20.34 312.94 27.03 324.56"/>
        <polygon class="uuid-a12b67e1-9e97-46ab-a7c8-9f23f194bdd5" points="6.99 312.61 20.36 312.61 27.05 301.33 20.36 290.05 6.99 290.05 .3 301.33 6.99 312.61"/>
      </g>
    </g>
  </g>
</svg>