<?xml version="1.0" encoding="UTF-8"?>
<svg xmlns="http://www.w3.org/2000/svg" viewBox="0 0 289.03 440.59">
  <defs>
    <style>
      .uuid-3da6cae2-e3ba-4de4-85e8-ea8fff6f6925 {
        isolation: isolate;
      }

      .uuid-1a2d5d60-0cb9-4434-9ee0-1ef397cbb299 {
        fill: #e49325;
        mix-blend-mode: overlay;
      }
    </style>
  </defs>
  <g class="uuid-3da6cae2-e3ba-4de4-85e8-ea8fff6f6925">
    <g id="uuid-7f2fdb3e-d9c5-42f5-ae23-c521c9899305" data-name="Layer 2">
      <g id="uuid-0ab5ca7c-19ee-4d04-b7b6-8dcb885fd50c" data-name="minihex">
        <polygon class="uuid-1a2d5d60-0cb9-4434-9ee0-1ef397cbb299" points="140.93 418.03 127.56 418.03 120.87 429.31 127.56 440.59 140.93 440.59 147.62 429.31 140.93 418.03"/>
        <polygon class="uuid-1a2d5d60-0cb9-4434-9ee0-1ef397cbb299" points="60.27 139.39 46.9 139.39 40.21 150.67 46.9 161.95 60.27 161.95 66.96 150.67 60.27 139.39"/>
        <polygon class="uuid-1a2d5d60-0cb9-4434-9ee0-1ef397cbb299" points="141.01 209.22 127.64 209.22 120.95 220.5 127.64 231.78 141.01 231.78 147.7 220.5 141.01 209.22"/>
        <polygon class="uuid-1a2d5d60-0cb9-4434-9ee0-1ef397cbb299" points="161.19 174.36 147.81 174.36 141.12 185.64 147.81 196.92 161.19 196.92 167.87 185.64 161.19 174.36"/>
        <polygon class="uuid-1a2d5d60-0cb9-4434-9ee0-1ef397cbb299" points="181.43 162.6 168.06 162.6 161.37 173.88 168.06 185.16 181.43 185.16 188.12 173.88 181.43 162.6"/>
        <polygon class="uuid-1a2d5d60-0cb9-4434-9ee0-1ef397cbb299" points="201.45 174.28 188.07 174.28 181.38 185.56 188.07 196.84 201.45 196.84 208.13 185.56 201.45 174.28"/>
        <polygon class="uuid-1a2d5d60-0cb9-4434-9ee0-1ef397cbb299" points="120.87 81.33 107.5 81.33 100.81 92.61 107.5 103.89 120.87 103.89 127.56 92.61 120.87 81.33"/>
        <polygon class="uuid-1a2d5d60-0cb9-4434-9ee0-1ef397cbb299" points="60.14 232.31 46.77 232.31 40.08 243.59 46.77 254.87 60.14 254.87 66.83 243.59 60.14 232.31"/>
        <polygon class="uuid-1a2d5d60-0cb9-4434-9ee0-1ef397cbb299" points="221.66 348.43 208.29 348.43 201.6 359.71 208.29 370.99 221.66 370.99 228.35 359.71 221.66 348.43"/>
        <polygon class="uuid-1a2d5d60-0cb9-4434-9ee0-1ef397cbb299" points="241.98 336.73 228.61 336.73 221.92 348.01 228.61 359.29 241.98 359.29 248.67 348.01 241.98 336.73"/>
        <polygon class="uuid-1a2d5d60-0cb9-4434-9ee0-1ef397cbb299" points="161.1 406.42 147.73 406.42 141.04 417.7 147.73 428.98 161.1 428.98 167.79 417.7 161.1 406.42"/>
        <polygon class="uuid-1a2d5d60-0cb9-4434-9ee0-1ef397cbb299" points="100.41 348.37 87.03 348.37 80.35 359.65 87.03 370.93 100.41 370.93 107.1 359.65 100.41 348.37"/>
        <polygon class="uuid-1a2d5d60-0cb9-4434-9ee0-1ef397cbb299" points="121.01 360.05 107.64 360.05 100.95 371.33 107.64 382.61 121.01 382.61 127.7 371.33 121.01 360.05"/>
        <polygon class="uuid-1a2d5d60-0cb9-4434-9ee0-1ef397cbb299" points="80.31 359.89 66.94 359.89 60.25 371.17 66.94 382.45 80.31 382.45 87 371.17 80.31 359.89"/>
        <polygon class="uuid-1a2d5d60-0cb9-4434-9ee0-1ef397cbb299" points="40.1 34.92 26.72 34.92 20.03 46.2 26.72 57.48 40.1 57.48 46.78 46.2 40.1 34.92"/>
        <polygon class="uuid-1a2d5d60-0cb9-4434-9ee0-1ef397cbb299" points="120.87 11.69 107.49 11.69 100.81 22.97 107.49 34.25 120.87 34.25 127.55 22.97 120.87 11.69"/>
        <polygon class="uuid-1a2d5d60-0cb9-4434-9ee0-1ef397cbb299" points="140.94 0 127.57 0 120.88 11.28 127.57 22.56 140.94 22.56 147.63 11.28 140.94 0"/>
        <polygon class="uuid-1a2d5d60-0cb9-4434-9ee0-1ef397cbb299" points="201.61 34.95 188.24 34.95 181.55 46.23 188.24 57.51 201.61 57.51 208.3 46.23 201.61 34.95"/>
        <polygon class="uuid-1a2d5d60-0cb9-4434-9ee0-1ef397cbb299" points="282.35 151.09 268.97 151.09 262.28 162.37 268.97 173.65 282.35 173.65 289.03 162.37 282.35 151.09"/>
        <polygon class="uuid-1a2d5d60-0cb9-4434-9ee0-1ef397cbb299" points="168.12 440.54 181.49 440.54 188.18 429.26 181.49 417.98 168.12 417.98 161.43 429.26 168.12 440.54"/>
        <polygon class="uuid-1a2d5d60-0cb9-4434-9ee0-1ef397cbb299" points="107.47 429.1 120.84 429.1 127.53 417.82 120.84 406.54 107.47 406.54 100.78 417.82 107.47 429.1"/>
        <polygon class="uuid-1a2d5d60-0cb9-4434-9ee0-1ef397cbb299" points="87.37 417.32 100.74 417.32 107.43 406.04 100.74 394.76 87.37 394.76 80.68 406.04 87.37 417.32"/>
        <polygon class="uuid-1a2d5d60-0cb9-4434-9ee0-1ef397cbb299" points="66.82 429.02 80.2 429.02 86.88 417.74 80.2 406.45 66.82 406.45 60.14 417.74 66.82 429.02"/>
        <polygon class="uuid-1a2d5d60-0cb9-4434-9ee0-1ef397cbb299" points="10.8 300.68 24.17 300.68 30.86 289.4 24.17 278.12 10.8 278.12 4.11 289.4 10.8 300.68"/>
        <polygon class="uuid-1a2d5d60-0cb9-4434-9ee0-1ef397cbb299" points="208.41 347.81 221.78 347.81 228.47 336.53 221.78 325.25 208.41 325.25 201.72 336.53 208.41 347.81"/>
        <polygon class="uuid-1a2d5d60-0cb9-4434-9ee0-1ef397cbb299" points="188.12 336.09 201.49 336.09 208.18 324.81 201.49 313.53 188.12 313.53 181.43 324.81 188.12 336.09"/>
        <polygon class="uuid-1a2d5d60-0cb9-4434-9ee0-1ef397cbb299" points="248.51 278.09 261.89 278.09 268.57 266.81 261.89 255.53 248.51 255.53 241.83 266.81 248.51 278.09"/>
        <polygon class="uuid-1a2d5d60-0cb9-4434-9ee0-1ef397cbb299" points="107.55 266.56 120.93 266.56 127.61 255.28 120.93 244 107.55 244 100.86 255.28 107.55 266.56"/>
        <polygon class="uuid-1a2d5d60-0cb9-4434-9ee0-1ef397cbb299" points="26.68 220.04 40.05 220.04 46.74 208.76 40.05 197.48 26.68 197.48 19.99 208.76 26.68 220.04"/>
        <polygon class="uuid-1a2d5d60-0cb9-4434-9ee0-1ef397cbb299" points="87.04 92.38 100.41 92.38 107.1 81.1 100.41 69.82 87.04 69.82 80.35 81.1 87.04 92.38"/>
        <polygon class="uuid-1a2d5d60-0cb9-4434-9ee0-1ef397cbb299" points="188.23 150.38 201.6 150.38 208.29 139.1 201.6 127.82 188.23 127.82 181.54 139.1 188.23 150.38"/>
        <polygon class="uuid-1a2d5d60-0cb9-4434-9ee0-1ef397cbb299" points="66.88 103.93 80.26 103.93 86.94 92.65 80.26 81.37 66.88 81.37 60.2 92.65 66.88 103.93"/>
        <polygon class="uuid-1a2d5d60-0cb9-4434-9ee0-1ef397cbb299" points="87.2 115.53 100.57 115.53 107.26 104.25 100.57 92.97 87.2 92.97 80.51 104.25 87.2 115.53"/>
        <polygon class="uuid-1a2d5d60-0cb9-4434-9ee0-1ef397cbb299" points="6.69 115.61 20.06 115.61 26.75 104.33 20.06 93.05 6.69 93.05 0 104.33 6.69 115.61"/>
        <polygon class="uuid-1a2d5d60-0cb9-4434-9ee0-1ef397cbb299" points="26.72 34.35 40.1 34.35 46.78 23.07 40.1 11.79 26.72 11.79 20.03 23.07 26.72 34.35"/>
        <polygon class="uuid-1a2d5d60-0cb9-4434-9ee0-1ef397cbb299" points="46.87 45.87 60.24 45.87 66.93 34.59 60.24 23.31 46.87 23.31 40.18 34.59 46.87 45.87"/>
        <polygon class="uuid-1a2d5d60-0cb9-4434-9ee0-1ef397cbb299" points="208.49 22.76 221.86 22.76 228.55 11.48 221.86 .2 208.49 .2 201.8 11.48 208.49 22.76"/>
        <polygon class="uuid-1a2d5d60-0cb9-4434-9ee0-1ef397cbb299" points="248.68 92.3 262.05 92.3 268.74 81.02 262.05 69.74 248.68 69.74 241.99 81.02 248.68 92.3"/>
        <polygon class="uuid-1a2d5d60-0cb9-4434-9ee0-1ef397cbb299" points="228.53 103.99 241.91 103.99 248.59 92.71 241.91 81.43 228.53 81.43 221.85 92.71 228.53 103.99"/>
        <polygon class="uuid-1a2d5d60-0cb9-4434-9ee0-1ef397cbb299" points="87.28 278.17 100.65 278.17 107.34 266.89 100.65 255.61 87.28 255.61 80.59 266.89 87.28 278.17"/>
        <polygon class="uuid-1a2d5d60-0cb9-4434-9ee0-1ef397cbb299" points="188.16 289.7 201.53 289.7 208.22 278.42 201.53 267.14 188.16 267.14 181.47 278.42 188.16 289.7"/>
        <polygon class="uuid-1a2d5d60-0cb9-4434-9ee0-1ef397cbb299" points="127.47 347.73 140.85 347.73 147.53 336.45 140.85 325.17 127.47 325.17 120.78 336.45 127.47 347.73"/>
        <polygon class="uuid-1a2d5d60-0cb9-4434-9ee0-1ef397cbb299" points="268.63 289.7 282.01 289.7 288.69 278.42 282.01 267.14 268.63 267.14 261.95 278.42 268.63 289.7"/>
      </g>
    </g>
  </g>
</svg>