<?xml version="1.0" encoding="UTF-8"?>
<svg xmlns="http://www.w3.org/2000/svg" xmlns:xlink="http://www.w3.org/1999/xlink" viewBox="0 0 666.15 576.91">
  <defs>
    <style>
      .uuid-eff72f86-5e23-4185-a9d8-fdb4cfa67793 {
        clip-path: url(#uuid-a4417a9a-b8cd-4384-9fb7-a64cdbf576b4);
      }

      .uuid-78fc3a4d-5e55-4e5f-81d4-cbf652fb39dc {
        fill: #af8ec1;
        mix-blend-mode: overlay;
      }

      .uuid-d75616f8-619a-41cd-913a-5681a1fd7d06 {
        fill: none;
      }

      .uuid-94d6c42e-00ea-4961-9f3d-f51a9bbff732 {
        fill: #03403f;
        mix-blend-mode: multiply;
        opacity: .44;
      }

      .uuid-0be45996-e8c5-49ad-9414-b707634c20a2 {
        isolation: isolate;
      }
    </style>
    <clipPath id="uuid-a4417a9a-b8cd-4384-9fb7-a64cdbf576b4">
      <polygon class="uuid-d75616f8-619a-41cd-913a-5681a1fd7d06" points="499.62 0 166.54 0 0 288.45 166.54 576.91 499.62 576.91 666.15 288.45 499.62 0"/>
    </clipPath>
  </defs>
  <g class="uuid-0be45996-e8c5-49ad-9414-b707634c20a2">
    <g id="uuid-c2412915-5b08-4c2f-a30c-a9457bc220ec" data-name="Layer 2">
      <g id="uuid-2ca051bf-f334-4e5e-b756-049e268b850e" data-name="Layer 4">
        <g class="uuid-eff72f86-5e23-4185-a9d8-fdb4cfa67793">
          <path class="uuid-78fc3a4d-5e55-4e5f-81d4-cbf652fb39dc" d="M242.09-31.82c0,43.75-25.17,79.21-56.21,79.21-31.04,0-56.21-35.46-56.21-79.21,0-6.97.64-13.73,1.84-20.17-10.34,2.81-20.6,5.99-30.76,9.54,6.27,2.14,10.5,6.09,10.5,10.62,0,6.8-9.47,12.31-21.15,12.31-10.64,0-19.42-4.58-20.9-10.54C45.18-19.56,21.89-6.89-.39,7.95c.99,1.71,1.94,3.47,2.79,5.33,9.08,20.03,5.51,41.23-7.98,47.35-12.25,5.55-28.44-3.27-38.11-19.93-8.41,7.19-16.61,14.74-24.6,22.65,15.26-.74,33.59,6.02,49.19,19.58C6.34,105.02,14.92,136.8.07,153.89c-14.85,17.1-47.52,13.04-72.96-9.07-16.18-14.06-25.52-32.02-26.37-47.64-24.09,29.12-43.99,60.54-59.71,93.46,40.16,12.37,67.31,35.96,67.31,63.04,0,35.35-46.25,64.75-107.33,71-1.9,13.95-3.16,27.96-3.77,42,4.92-.15,9.71.74,14.16,2.82,21.15,9.89,26.75,42.58,12.52,73.01-5.03,10.76-11.88,19.79-19.55,26.54,1.3,7.08,2.78,14.13,4.42,21.15,2.99-6.28,6.55-12.58,10.68-18.78,26-39.02,64.49-59.04,85.99-44.72,21.49,14.32,17.84,57.56-8.15,96.57-17.68,26.53-41.14,44.27-61.1,48.4,7.44,16.68,15.94,33,25.49,48.86,3.67-4.64,8.75-8.4,14.89-10.59,16.29-5.81,33.84,1.67,39.2,16.7,5.36,15.03-3.51,31.92-19.8,37.73-1.15.41-2.3.74-3.46,1.01,11.43,14.66,23.88,28.79,37.36,42.27,7.25,7.25,14.7,14.17,22.31,20.83,4.5-4.96,9.37-9.74,14.6-14.29,54.87-47.67,128.98-52.21,165.54-10.14,27.07,31.15,25.93,79.11,1.26,121.27,10.48,2.8,21.05,5.22,31.67,7.25-7.8-28.84-3.22-68.42,14.9-107.17,29.53-63.13,83.77-100.14,121.15-82.66,37.38,17.48,43.75,82.84,14.23,145.97-9.3,19.88-21.05,37.17-33.95,50.98,40.59-2.71,80.89-10.82,119.71-24.38-4.62-7.6-7.35-16.96-7.35-27.11,0-25.34,17.01-45.88,38-45.88s36.42,18.7,37.88,42.42c22.2-12.2,43.59-26.4,63.91-42.59-15,1.63-32.42-1.26-49.32-9.17-36.49-17.06-56.66-50.99-45.07-75.78,11.59-24.79,50.57-31.05,87.06-13.99,30.11,14.08,49.1,39.65,48.3,62.09,65.67-66.6,106.61-148.42,122.82-234.01-65.63,1.17-119.41-29.42-122.53-71.34-3.31-44.39,51.43-84.65,122.25-89.93.61-.05,1.21-.07,1.82-.11-1.54-9.07-3.38-18.1-5.48-27.09-24.14,15.59-60.1,25.49-100.29,25.49-72.69,0-131.61-32.35-131.61-72.25,0-39.9,58.92-72.25,131.61-72.25,20.89,0,40.62,2.68,58.16,7.44-7.68-14.28-16.17-28.24-25.49-41.8-2.34,1.7-4.99,3.14-7.92,4.18-13.94,4.97-28.6-.45-32.76-12.11-3.68-10.32,2.14-22.06,13.21-28.06-3.76-4.45-7.62-8.85-11.58-13.19-31.21,64.43-96.19,97.68-146.13,74.33-50.49-23.61-66.46-96.13-35.66-161.97,4.67-9.98,10.15-19.22,16.25-27.65-46.69-18.84-95.88-29.59-145.42-32.28,1.2,1.64,2.28,3.48,3.19,5.48,4.86,10.71,2.95,22.05-4.27,25.32-7.21,3.27-17-2.77-21.85-13.48-2.91-6.41-3.37-13.03-1.75-18.02-5.1,0-10.19.11-15.29.28,3.89,10.77,6.09,22.94,6.09,35.85ZM384.39,758.13c0,17.3-9.42,31.32-21.05,31.32s-21.05-14.02-21.05-31.32c0-17.3,9.42-31.32,21.05-31.32s21.05,14.02,21.05,31.32ZM559.54,145.16c-.86-4.32,5.08-9.15,13.28-10.79,8.2-1.64,15.54.53,16.41,4.84.86,4.32-5.08,9.15-13.28,10.79-8.2,1.64-15.54-.53-16.41-4.84ZM347.91-40.75c4.87-7.31,12.12-11.03,16.2-8.31,4.08,2.72,3.44,10.84-1.43,18.15-4.87,7.31-12.12,11.03-16.2,8.31-4.08-2.72-3.44-10.84,1.43-18.15ZM348.05-6.13c2.71-10.1,11.75-16.45,20.19-14.19,8.44,2.26,13.09,12.28,10.39,22.38-2.71,10.1-11.75,16.45-20.19,14.19-8.44-2.26-13.09-12.28-10.39-22.38ZM236.99,60.92c25.39,1.41,43.35,49.9,40.12,108.31-3.23,58.41-26.43,104.62-51.82,103.22-25.39-1.41-43.35-49.9-40.12-108.31,3.23-58.41,26.43-104.62,51.82-103.22ZM357.66,386.35c-14.85,17.1-47.52,13.04-72.96-9.07-25.44-22.1-34.02-53.88-19.17-70.98,14.85-17.1,47.52-13.04,72.96,9.07,25.44,22.1,34.02,53.88,19.17,70.98ZM400.97,414.55c0,6.8-9.47,12.31-21.15,12.31-11.68,0-21.15-5.51-21.15-12.31s9.47-12.31,21.15-12.31c11.68,0,21.15,5.51,21.15,12.31ZM359.99,466.62c-7.65,8.8-26.85,4.64-42.88-9.29-16.03-13.93-22.83-32.36-15.18-41.16,7.65-8.8,26.85-4.64,42.88,9.29,16.03,13.93,22.83,32.36,15.18,41.16ZM39.43,116.6C13.05,67.49,15.42,14.93,44.73-.82c29.31-15.74,74.45,11.3,100.82,60.4,26.38,49.1,24,101.67-5.3,117.41-29.31,15.74-74.45-11.3-100.82-60.4ZM39.17,187.78c-4.86-10.71-2.95-22.05,4.27-25.32,7.21-3.27,17,2.77,21.85,13.48,4.86,10.71,2.95,22.05-4.27,25.32-7.21,3.27-17-2.77-21.85-13.48ZM75.74,210.99c17.98-17.98,66.09.98,107.45,42.34,41.37,41.37,60.32,89.48,42.34,107.45-17.98,17.98-66.09-.98-107.45-42.34-41.37-41.37-60.32-89.48-42.34-107.45ZM9.93,540.72c-36.59-17.11-45.85-74.61-20.69-128.42,25.17-53.81,75.23-83.56,111.82-66.45,36.59,17.11,45.85,74.61,20.69,128.42-25.17,53.81-75.23,83.56-111.82,66.45ZM148.97,517.16c6.99,8.04,1.23,24.48-12.86,36.72-14.09,12.24-31.17,15.64-38.16,7.6-6.99-8.04-1.23-24.48,12.86-36.72,14.09-12.24,31.17-15.64,38.16-7.6ZM-59.17,448.62c-11.23-3.01-17.41-16.33-13.81-29.76,3.6-13.43,15.62-21.88,26.85-18.87,11.23,3.01,17.41,16.33,13.81,29.76s-15.62,21.88-26.85,18.87ZM22.55,306.15c2.71-10.1,11.75-16.45,20.19-14.19,8.44,2.26,13.09,12.28,10.39,22.38-2.71,10.1-11.75,16.45-20.19,14.19-8.44-2.26-13.09-12.28-10.39-22.38ZM181.47,439.7c4.87-7.31,12.12-11.03,16.2-8.31,4.08,2.72,3.44,10.84-1.43,18.15-4.87,7.31-12.12,11.03-16.2,8.31-4.08-2.72-3.44-10.84,1.43-18.15ZM184.15,423.23c-17.3,0-31.32-9.42-31.32-21.05,0-11.62,14.02-21.05,31.32-21.05,17.3,0,31.32,9.42,31.32,21.05s-14.02,21.05-31.32,21.05ZM-118.11,143.07c-3.72-8.2-2.26-16.87,3.26-19.38,5.52-2.5,13.01,2.12,16.72,10.31,3.72,8.2,2.26,16.87-3.26,19.38-5.52,2.5-13.01-2.12-16.72-10.31ZM-119.51,184.22c0-11.62,14.02-21.05,31.32-21.05,17.3,0,31.32,9.42,31.32,21.05,0,11.62-14.02,21.05-31.32,21.05-17.3,0-31.32-9.42-31.32-21.05ZM-69.31,242.38c0-22.65,27.32-41.01,61.02-41.01,33.7,0,61.02,18.36,61.02,41.01,0,22.65-27.32,41.01-61.02,41.01-33.7,0-61.02-18.36-61.02-41.01ZM-159.32,382.61c-10.8-23.46,14.98-58.37,57.57-77.97,42.59-19.6,85.87-16.47,96.67,6.99,10.8,23.46-14.98,58.37-57.57,77.97-42.59,19.6-85.87,16.47-96.67-6.99ZM-64.03,473.08c4.57-10.99,13.24-17.83,19.37-15.28,6.13,2.55,7.4,13.52,2.83,24.51-4.57,10.99-13.24,17.83-19.37,15.28-6.13-2.55-7.4-13.52-2.83-24.51ZM-74.24,523.88c27.13-9.67,55.45.22,63.24,22.09,7.79,21.87-7.89,47.43-35.02,57.1-27.13,9.67-55.45-.22-63.24-22.09-7.79-21.87,7.89-47.43,35.02-57.1ZM-136.47,590.5c-4.08-2.72-3.44-10.84,1.43-18.15,4.87-7.31,12.12-11.03,16.2-8.31,4.08,2.72,3.44,10.84-1.43,18.15-4.87,7.31-12.12,11.03-16.2,8.31ZM-4.05,666.57c-5.88,21.95-25.52,35.75-43.87,30.84-18.35-4.92-28.46-26.69-22.58-48.64,5.88-21.95,25.52-35.75,43.87-30.84,18.35,4.92,28.46,26.69,22.58,48.64ZM52.23,659.08c-27.5,0-49.8-13.42-49.8-29.96s22.3-29.96,49.8-29.96c27.5,0,49.8,13.42,49.8,29.96,0,16.55-22.3,29.96-49.8,29.96ZM200.79,625.97c8.7,32.45-2.54,63.66-25.09,69.7-22.55,6.04-47.88-15.37-56.58-47.82-8.7-32.45,2.54-63.66,25.09-69.7,22.55-6.04,47.88,15.37,56.58,47.82ZM240.37,627.18c-33.22-1.84-57.64-48.44-54.56-104.1,3.08-55.65,32.5-99.28,65.72-97.44,33.22,1.84,57.64,48.44,54.56,104.1-3.08,55.65-32.5,99.28-65.72,97.44ZM413.71,619.11c12.34,46.04,4.06,88.26-18.49,94.31-22.55,6.04-50.83-26.38-63.17-72.43-12.34-46.04-4.06-88.26,18.49-94.31,22.55-6.04,50.83,26.38,63.17,72.43ZM318.07,505.11c-4.08-2.72-3.44-10.84,1.43-18.15,4.87-7.31,12.12-11.03,16.2-8.31,4.08,2.72,3.44,10.84-1.43,18.15-4.87,7.31-12.12,11.03-16.2,8.31ZM576.69,597.18c-6.61,22.39-49.03,29.6-94.74,16.1-45.71-13.5-77.41-42.59-70.8-64.98,6.61-22.39,49.03-29.6,94.74-16.1,45.71,13.5,77.41,42.59,70.8,64.98ZM452.69,505.72c-34,15.64-68.54,13.14-77.16-5.58-8.62-18.73,11.96-46.59,45.95-62.23,34-15.64,68.54-13.14,77.16,5.58,8.62,18.73-11.96,46.59-45.95,62.23ZM650.55,575.26c0,11.62-14.02,21.05-31.32,21.05s-31.32-9.42-31.32-21.05c0-11.62,14.02-21.05,31.32-21.05s31.32,9.42,31.32,21.05ZM646.05,507.1c0,22.65-27.32,41.01-61.02,41.01-33.7,0-61.02-18.36-61.02-41.01s27.32-41.01,61.02-41.01c33.7,0,61.02,18.36,61.02,41.01ZM519.49,432.4c0-9.29,11.17-16.82,24.95-16.82,13.78,0,24.95,7.53,24.95,16.82,0,9.29-11.17,16.82-24.95,16.82-13.78,0-24.95-7.53-24.95-16.82ZM554.45,380.14c-9.8,28.55-54.68,39.01-100.23,23.37-45.55-15.64-74.53-51.47-64.73-80.02,9.8-28.55,54.68-39.01,100.23-23.37,45.55,15.64,74.53,51.47,64.73,80.02ZM355.85,306.6c-4.04-7.01-.35-16.71,8.26-21.68,8.61-4.97,18.86-3.32,22.91,3.69s.35,16.71-8.26,21.68c-8.61,4.97-18.86,3.32-22.91-3.69ZM446.01,181.95c10.8,23.46-14.98,58.37-57.57,77.97-42.59,19.6-85.87,16.47-96.67-6.99-10.8-23.46,14.98-58.37,57.57-77.97,42.59-19.6,85.87-16.47,96.67,6.99ZM294.51-16.69c22.55-6.04,50.83,26.38,63.17,72.43,12.34,46.04,4.06,88.26-18.49,94.31-22.55,6.04-50.83-26.38-63.17-72.43-12.34-46.04-4.06-88.26,18.49-94.31Z"/>
          <path class="uuid-94d6c42e-00ea-4961-9f3d-f51a9bbff732" d="M675.15,380.51c-43.75,0-79.21-25.17-79.21-56.21,0-31.04,35.46-56.21,79.21-56.21,6.97,0,13.73.64,20.17,1.84-2.81-10.34-5.99-20.6-9.54-30.76-2.14,6.27-6.09,10.5-10.62,10.5-6.8,0-12.31-9.47-12.31-21.15,0-10.64,4.58-19.42,10.54-20.9-10.49-24.02-23.16-47.31-38-69.59-1.71.99-3.47,1.94-5.33,2.79-20.03,9.08-41.23,5.51-47.35-7.98-5.55-12.25,3.27-28.44,19.93-38.11-7.19-8.41-14.74-16.61-22.65-24.6.74,15.26-6.02,33.59-19.58,49.19-22.1,25.44-53.88,34.02-70.98,19.17-17.1-14.85-13.04-47.52,9.07-72.96,14.06-16.18,32.02-25.52,47.64-26.37-29.12-24.09-60.54-43.99-93.46-59.71-12.37,40.16-35.96,67.31-63.04,67.31-35.35,0-64.75-46.25-71-107.33-13.95-1.9-27.96-3.16-42-3.77.15,4.92-.74,9.71-2.82,14.16-9.89,21.15-42.58,26.75-73.01,12.52-10.76-5.03-19.79-11.88-26.54-19.55-7.08,1.3-14.13,2.78-21.15,4.42,6.28,2.99,12.58,6.55,18.78,10.68,39.02,26,59.04,64.49,44.72,85.99-14.32,21.49-57.56,17.84-96.57-8.15-26.53-17.68-44.27-41.14-48.4-61.1C54.95-17.93,38.63-9.44,22.76.12c4.64,3.67,8.4,8.75,10.59,14.89,5.81,16.29-1.67,33.84-16.7,39.2-15.03,5.36-31.92-3.51-37.73-19.8-.41-1.15-.74-2.3-1.01-3.46-14.66,11.43-28.79,23.88-42.27,37.36-7.25,7.25-14.17,14.7-20.83,22.31,4.96,4.5,9.74,9.37,14.29,14.6,47.67,54.87,52.21,128.98,10.14,165.54-31.15,27.07-79.11,25.93-121.27,1.26-2.8,10.48-5.22,21.05-7.25,31.67,28.84-7.8,68.42-3.22,107.17,14.9C-18.97,348.12,18.03,402.36.55,439.74c-17.48,37.38-82.84,43.75-145.97,14.23-19.88-9.3-37.17-21.05-50.98-33.95,2.71,40.59,10.82,80.89,24.38,119.71,7.6-4.62,16.96-7.35,27.11-7.35,25.34,0,45.88,17.01,45.88,38s-18.7,36.42-42.42,37.88c12.2,22.2,26.4,43.59,42.59,63.91-1.63-15,1.26-32.42,9.17-49.32,17.06-36.49,50.99-56.66,75.78-45.07,24.79,11.59,31.05,50.57,13.99,87.06-14.08,30.11-39.65,49.1-62.09,48.3,66.6,65.67,148.42,106.61,234.01,122.82-1.17-65.63,29.42-119.41,71.34-122.53,44.39-3.31,84.65,51.43,89.93,122.25.05.61.07,1.21.11,1.82,9.07-1.54,18.1-3.38,27.09-5.48-15.59-24.14-25.49-60.1-25.49-100.29,0-72.69,32.35-131.61,72.25-131.61,39.9,0,72.25,58.92,72.25,131.61,0,20.89-2.68,40.62-7.44,58.16,14.28-7.68,28.24-16.17,41.8-25.49-1.7-2.34-3.14-4.99-4.18-7.92-4.97-13.94.45-28.6,12.11-32.76,10.32-3.68,22.06,2.14,28.06,13.21,4.45-3.76,8.85-7.62,13.19-11.58-64.43-31.21-97.68-96.19-74.33-146.13,23.61-50.49,96.13-66.46,161.97-35.66,9.98,4.67,19.22,10.15,27.65,16.25,18.84-46.69,29.59-95.88,32.28-145.42-1.64,1.2-3.48,2.28-5.48,3.19-10.71,4.86-22.05,2.95-25.32-4.27-3.27-7.21,2.77-17,13.48-21.85,6.41-2.91,13.03-3.37,18.02-1.75,0-5.1-.11-10.19-.28-15.29-10.77,3.89-22.94,6.09-35.85,6.09ZM-114.8,522.81c-17.3,0-31.32-9.42-31.32-21.05s14.02-21.05,31.32-21.05c17.3,0,31.32,9.42,31.32,21.05s-14.02,21.05-31.32,21.05ZM498.17,697.97c4.32-.86,9.15,5.08,10.79,13.28,1.64,8.2-.53,15.54-4.84,16.41-4.32.86-9.15-5.08-10.79-13.28-1.64-8.2.53-15.54,4.84-16.41ZM684.08,486.33c7.31,4.87,11.03,12.12,8.31,16.2-2.72,4.08-10.84,3.44-18.15-1.43-7.31-4.87-11.03-12.12-8.31-16.2,2.72-4.08,10.84-3.44,18.15,1.43ZM649.45,486.48c10.1,2.71,16.45,11.75,14.19,20.19-2.26,8.44-12.28,13.09-22.38,10.39-10.1-2.71-16.45-11.75-14.19-20.19,2.26-8.44,12.28-13.09,22.38-10.39ZM582.4,375.42c-1.41,25.39-49.9,43.35-108.31,40.12-58.41-3.23-104.62-26.43-103.22-51.82,1.41-25.39,49.9-43.35,108.31-40.12,58.41,3.23,104.62,26.43,103.22,51.82ZM256.98,496.09c-17.1-14.85-13.04-47.52,9.07-72.96,22.1-25.44,53.88-34.02,70.98-19.17,17.1,14.85,13.04,47.52-9.07,72.96-22.1,25.44-53.88,34.02-70.98,19.17ZM228.78,539.39c-6.8,0-12.31-9.47-12.31-21.15,0-11.68,5.51-21.15,12.31-21.15s12.31,9.47,12.31,21.15c0,11.68-5.51,21.15-12.31,21.15ZM176.7,498.41c-8.8-7.65-4.64-26.85,9.29-42.88,13.93-16.03,32.36-22.83,41.16-15.18,8.8,7.65,4.64,26.85-9.29,42.88-13.93,16.03-32.36,22.83-41.16,15.18ZM526.73,177.85c49.1-26.38,101.67-24,117.41,5.3,15.74,29.31-11.3,74.45-60.4,100.82-49.1,26.38-101.67,24-117.41-5.3-15.74-29.31,11.3-74.45,60.4-100.82ZM455.54,177.6c10.71-4.86,22.05-2.95,25.32,4.27,3.27,7.21-2.77,17-13.48,21.85-10.71,4.86-22.05,2.95-25.32-4.27-3.27-7.21,2.77-17,13.48-21.85ZM432.33,214.17c17.98,17.98-.98,66.09-42.34,107.45-41.37,41.37-89.48,60.32-107.45,42.34-17.98-17.98.98-66.09,42.34-107.45,41.37-41.37,89.48-60.32,107.45-42.34ZM102.61,148.35c17.11-36.59,74.61-45.85,128.42-20.69,53.81,25.17,83.56,75.23,66.45,111.82-17.11,36.59-74.61,45.85-128.42,20.69-53.81-25.17-83.56-75.23-66.45-111.82ZM126.17,287.4c-8.04,6.99-24.48,1.23-36.72-12.86-12.24-14.09-15.64-31.17-7.6-38.16,8.04-6.99,24.48-1.23,36.72,12.86,12.24,14.09,15.64,31.17,7.6,38.16ZM194.71,79.26c3.01-11.23,16.33-17.41,29.76-13.81,13.43,3.6,21.88,15.62,18.87,26.85-3.01,11.23-16.33,17.41-29.76,13.81-13.43-3.6-21.88-15.62-18.87-26.85ZM337.17,160.98c10.1,2.71,16.45,11.75,14.19,20.19-2.26,8.44-12.28,13.09-22.38,10.39-10.1-2.71-16.45-11.75-14.19-20.19,2.26-8.44,12.28-13.09,22.38-10.39ZM203.63,319.89c7.31,4.87,11.03,12.12,8.31,16.2-2.72,4.08-10.84,3.44-18.15-1.43-7.31-4.87-11.03-12.12-8.31-16.2,2.72-4.08,10.84-3.44,18.15,1.43ZM220.1,322.57c0-17.3,9.42-31.32,21.05-31.32,11.62,0,21.05,14.02,21.05,31.32,0,17.3-9.42,31.32-21.05,31.32s-21.05-14.02-21.05-31.32ZM500.26,20.31c8.2-3.72,16.87-2.26,19.38,3.26,2.5,5.52-2.12,13.01-10.31,16.72-8.2,3.72-16.87,2.26-19.38-3.26-2.5-5.52,2.12-13.01,10.31-16.72ZM459.11,18.91c11.62,0,21.05,14.02,21.05,31.32,0,17.3-9.42,31.32-21.05,31.32-11.62,0-21.05-14.02-21.05-31.32,0-17.3,9.42-31.32,21.05-31.32ZM400.94,69.12c22.65,0,41.01,27.32,41.01,61.02,0,33.7-18.36,61.02-41.01,61.02-22.65,0-41.01-27.32-41.01-61.02,0-33.7,18.36-61.02,41.01-61.02ZM260.71-20.89c23.46-10.8,58.37,14.98,77.97,57.57,19.6,42.59,16.47,85.87-6.99,96.67-23.46,10.8-58.37-14.98-77.97-57.57-19.6-42.59-16.47-85.87,6.99-96.67ZM170.24,74.39c10.99,4.57,17.83,13.24,15.28,19.37-2.55,6.13-13.52,7.4-24.51,2.83-10.99-4.57-17.83-13.24-15.28-19.37,2.55-6.13,13.52-7.4,24.51-2.83ZM119.45,64.19c9.67,27.13-.22,55.45-22.09,63.24-21.87,7.79-47.43-7.89-57.1-35.02-9.67-27.13.22-55.45,22.09-63.24,21.87-7.79,47.43,7.89,57.1,35.02ZM52.83,1.95c2.72-4.08,10.84-3.44,18.15,1.43,7.31,4.87,11.03,12.12,8.31,16.2-2.72,4.08-10.84,3.44-18.15-1.43-7.31-4.87-11.03-12.12-8.31-16.2ZM-23.25,134.37c-21.95-5.88-35.75-25.52-30.84-43.87,4.92-18.35,26.69-28.46,48.64-22.58,21.95,5.88,35.75,25.52,30.84,43.87-4.92,18.35-26.69,28.46-48.64,22.58ZM-15.75,190.66c0-27.5,13.42-49.8,29.96-49.8s29.96,22.3,29.96,49.8c0,27.5-13.42,49.8-29.96,49.8-16.55,0-29.96-22.3-29.96-49.8ZM17.36,339.21c-32.45,8.7-63.66-2.54-69.7-25.09-6.04-22.55,15.37-47.88,47.82-56.58,32.45-8.7,63.66,2.54,69.7,25.09,6.04,22.55-15.37,47.88-47.82,56.58ZM16.15,378.8c1.84-33.22,48.44-57.64,104.1-54.56,55.65,3.08,99.28,32.5,97.44,65.72-1.84,33.22-48.44,57.64-104.1,54.56-55.65-3.08-99.28-32.5-97.44-65.72ZM24.21,552.13c-46.04,12.34-88.26,4.06-94.31-18.49-6.04-22.55,26.38-50.83,72.43-63.17,46.04-12.34,88.26-4.06,94.31,18.49,6.04,22.55-26.38,50.83-72.43,63.17ZM138.21,456.5c2.72-4.08,10.84-3.44,18.15,1.43,7.31,4.87,11.03,12.12,8.31,16.2-2.72,4.08-10.84,3.44-18.15-1.43-7.31-4.87-11.03-12.12-8.31-16.2ZM46.15,715.11c-22.39-6.61-29.6-49.03-16.1-94.74,13.5-45.71,42.59-77.41,64.98-70.8,22.39,6.61,29.6,49.03,16.1,94.74-13.5,45.71-42.59,77.41-64.98,70.8ZM137.61,591.11c-15.64-34-13.14-68.54,5.58-77.16,18.73-8.62,46.59,11.96,62.23,45.95,15.64,34,13.14,68.54-5.58,77.16-18.73,8.62-46.59-11.96-62.23-45.95ZM68.07,788.97c-11.62,0-21.05-14.02-21.05-31.32s9.42-31.32,21.05-31.32c11.62,0,21.05,14.02,21.05,31.32s-9.42,31.32-21.05,31.32ZM136.22,784.47c-22.65,0-41.01-27.32-41.01-61.02,0-33.7,18.36-61.02,41.01-61.02s41.01,27.32,41.01,61.02c0,33.7-18.36,61.02-41.01,61.02ZM210.93,657.92c9.29,0,16.82,11.17,16.82,24.95,0,13.78-7.53,24.95-16.82,24.95-9.29,0-16.82-11.17-16.82-24.95,0-13.78,7.53-24.95,16.82-24.95ZM263.19,692.88c-28.55-9.8-39.01-54.68-23.37-100.23,15.64-45.55,51.47-74.53,80.02-64.73,28.55,9.8,39.01,54.68,23.37,100.23-15.64,45.55-51.47,74.53-80.02,64.73ZM336.73,494.27c7.01-4.04,16.71-.35,21.68,8.26,4.97,8.61,3.32,18.86-3.69,22.91-7.01,4.04-16.71.35-21.68-8.26-4.97-8.61-3.32-18.86,3.69-22.91ZM461.37,584.43c-23.46,10.8-58.37-14.98-77.97-57.57-19.6-42.59-16.47-85.87,6.99-96.67,23.46-10.8,58.37,14.98,77.97,57.57,19.6,42.59,16.47,85.87-6.99,96.67ZM660.02,432.94c6.04,22.55-26.38,50.83-72.43,63.17-46.04,12.34-88.26,4.06-94.31-18.49-6.04-22.55,26.38-50.83,72.43-63.17,46.04-12.34,88.26-4.06,94.31,18.49Z"/>
        </g>
      </g>
    </g>
  </g>
</svg>