<?xml version="1.0" encoding="UTF-8"?>
<svg xmlns="http://www.w3.org/2000/svg" xmlns:xlink="http://www.w3.org/1999/xlink" viewBox="0 0 590.04 510.99">
  <defs>
    <style>
      .uuid-6b93bd8c-ac30-43bd-bc45-d3df31caf267 {
        clip-path: url(#uuid-fffd0eb7-2209-4af3-ac39-c0ca7ee20f17);
      }

      .uuid-8256ee4e-b979-443a-baf7-d15801933c65 {
        fill: none;
      }

      .uuid-3cfa336e-af1b-4655-afdd-7494df8a22e8 {
        fill: #e42a31;
        mix-blend-mode: overlay;
      }

      .uuid-f7bb413d-6331-4b8c-abc7-2c01b752e1c2 {
        fill: #03403f;
        mix-blend-mode: multiply;
        opacity: .44;
      }

      .uuid-753b5401-9c61-4d0b-83f9-c1b15bc64a18 {
        isolation: isolate;
      }
    </style>
    <clipPath id="uuid-fffd0eb7-2209-4af3-ac39-c0ca7ee20f17">
      <polygon class="uuid-8256ee4e-b979-443a-baf7-d15801933c65" points="442.53 0 147.51 0 0 255.5 147.51 510.99 442.53 510.99 590.04 255.5 442.53 0"/>
    </clipPath>
  </defs>
  <g class="uuid-753b5401-9c61-4d0b-83f9-c1b15bc64a18">
    <g id="uuid-570adc0a-d21a-44ab-a388-8b161362c505" data-name="Layer 2">
      <g id="uuid-7520d567-cd46-4828-8e27-a01e1e68e2e2" data-name="Layer 4">
        <g class="uuid-6b93bd8c-ac30-43bd-bc45-d3df31caf267">
          <path class="uuid-3cfa336e-af1b-4655-afdd-7494df8a22e8" d="M214.43-28.18c0,38.75-22.29,70.16-49.79,70.16-27.5,0-49.79-31.41-49.79-70.16,0-6.17.57-12.16,1.63-17.86-9.16,2.49-18.25,5.3-27.25,8.45,5.56,1.89,9.3,5.39,9.3,9.41,0,6.02-8.39,10.9-18.73,10.9-9.43,0-17.21-4.06-18.52-9.34C40.02-17.33,19.39-6.1-.34,7.04c.88,1.51,1.72,3.07,2.47,4.72,8.04,17.75,4.88,36.52-7.07,41.94-10.85,4.92-25.19-2.9-33.76-17.66-7.45,6.37-14.71,13.06-21.79,20.06,13.52-.66,29.75,5.33,43.57,17.34C5.62,93.02,13.22,121.17.06,136.31c-13.16,15.14-42.09,11.55-64.62-8.03-14.33-12.45-22.61-28.36-23.36-42.2-21.34,25.79-38.97,53.62-52.88,82.79,35.57,10.96,59.62,31.85,59.62,55.83,0,31.31-40.96,57.35-95.06,62.89-1.68,12.35-2.8,24.76-3.34,37.2,4.35-.14,8.6.66,12.54,2.5,18.73,8.76,23.7,37.71,11.09,64.67-4.46,9.53-10.52,17.53-17.32,23.51,1.15,6.27,2.46,12.52,3.91,18.74,2.65-5.56,5.8-11.14,9.46-16.63,23.03-34.56,57.12-52.29,76.16-39.61,19.04,12.68,15.8,50.98-7.22,85.54-15.66,23.5-36.44,39.21-54.12,42.87,6.59,14.77,14.12,29.23,22.58,43.28,3.25-4.11,7.75-7.44,13.19-9.38,14.43-5.14,29.98,1.48,34.72,14.8,4.74,13.31-3.11,28.28-17.54,33.42-1.02.36-2.04.65-3.06.9,10.13,12.98,21.15,25.5,33.09,37.44,6.42,6.42,13.02,12.55,19.76,18.45,3.98-4.39,8.3-8.63,12.94-12.66,48.6-42.23,114.25-46.25,146.63-8.98,23.97,27.59,22.97,70.07,1.12,107.41,9.29,2.48,18.64,4.62,28.05,6.42-6.91-25.55-2.86-60.6,13.2-94.93,26.15-55.92,74.2-88.7,107.31-73.21,33.11,15.49,38.75,73.37,12.6,129.29-8.24,17.61-18.65,32.92-30.07,45.16,35.95-2.4,71.65-9.59,106.03-21.6-4.09-6.73-6.51-15.03-6.51-24.01,0-22.44,15.07-40.63,33.66-40.63s32.26,16.56,33.55,37.57c19.66-10.8,38.61-23.38,56.61-37.72-13.28,1.44-28.72-1.12-43.69-8.12-32.32-15.11-50.19-45.17-39.92-67.13,10.27-21.96,44.79-27.51,77.11-12.39,26.67,12.47,43.49,35.12,42.78,55,58.16-58.99,94.43-131.46,108.78-207.28-58.13,1.04-105.76-26.06-108.53-63.19-2.93-39.32,45.55-74.98,108.28-79.65.54-.04,1.07-.06,1.61-.09-1.36-8.04-3-16.03-4.85-23.99-21.38,13.81-53.23,22.58-88.83,22.58-64.38,0-116.57-28.65-116.57-64,0-35.34,52.19-64,116.57-64,18.5,0,35.98,2.38,51.52,6.59-6.8-12.65-14.33-25.01-22.58-37.02-2.08,1.51-4.42,2.78-7.02,3.71-12.35,4.4-25.34-.4-29.01-10.72-3.26-9.14,1.9-19.54,11.7-24.86-3.33-3.94-6.75-7.84-10.26-11.68-27.64,57.07-85.2,86.52-129.43,65.84-44.72-20.92-58.86-85.15-31.59-143.46,4.13-8.84,8.99-17.02,14.4-24.49-41.36-16.69-84.92-26.21-128.81-28.59,1.06,1.46,2.02,3.08,2.82,4.86,4.3,9.49,2.61,19.53-3.78,22.43-6.39,2.9-15.06-2.45-19.36-11.94-2.57-5.68-2.99-11.54-1.55-15.96-4.52,0-9.03.1-13.54.25,3.44,9.54,5.4,20.32,5.4,31.75ZM340.47,671.51c0,15.32-8.35,27.74-18.64,27.74s-18.64-12.42-18.64-27.74c0-15.32,8.35-27.74,18.64-27.74s18.64,12.42,18.64,27.74ZM495.61,128.57c-.77-3.82,4.5-8.1,11.76-9.55,7.26-1.45,13.77.47,14.53,4.29.77,3.82-4.5,8.1-11.76,9.55-7.26,1.45-13.77-.47-14.53-4.29ZM308.16-36.09c4.31-6.47,10.74-9.77,14.35-7.36,3.61,2.41,3.04,9.61-1.27,16.08-4.31,6.47-10.74,9.77-14.35,7.36-3.61-2.41-3.04-9.61,1.27-16.08ZM308.29-5.43c2.4-8.95,10.4-14.57,17.88-12.57,7.48,2,11.6,10.88,9.2,19.83-2.4,8.95-10.4,14.57-17.88,12.57-7.48-2-11.6-10.88-9.2-19.83ZM209.91,53.96c22.49,1.24,38.4,44.19,35.53,95.93-2.86,51.74-23.41,92.67-45.9,91.42-22.49-1.24-38.4-44.19-35.53-95.93,2.86-51.74,23.41-92.67,45.9-91.42ZM316.8,342.21c-13.16,15.14-42.09,11.55-64.62-8.03-22.53-19.58-30.13-47.72-16.98-62.87,13.16-15.14,42.09-11.55,64.62,8.03,22.53,19.58,30.13,47.72,16.98,62.87ZM355.15,367.18c0,6.02-8.39,10.9-18.73,10.9-10.34,0-18.73-4.88-18.73-10.9s8.39-10.9,18.73-10.9c10.34,0,18.73,4.88,18.73,10.9ZM318.86,413.31c-6.77,7.8-23.78,4.11-37.98-8.23-14.2-12.34-20.22-28.66-13.45-36.46,6.77-7.8,23.78-4.11,37.98,8.23,14.2,12.34,20.22,28.66,13.45,36.46ZM34.92,103.27C11.56,59.78,13.66,13.22,39.62-.72c25.96-13.94,65.94,10.01,89.3,53.5,23.36,43.49,21.26,90.05-4.7,104-25.96,13.94-65.94-10.01-89.3-53.5ZM34.7,166.33c-4.3-9.49-2.61-19.53,3.78-22.43,6.39-2.9,15.06,2.45,19.36,11.94,4.3,9.49,2.61,19.53-3.78,22.43-6.39,2.9-15.06-2.45-19.36-11.94ZM67.09,186.88c15.93-15.93,58.54.87,95.18,37.51,36.64,36.64,53.43,79.25,37.51,95.18-15.93,15.93-58.54-.87-95.18-37.51-36.64-36.64-53.43-79.25-37.51-95.18ZM8.79,478.94c-32.41-15.16-40.61-66.08-18.32-113.75,22.29-47.66,66.64-74.01,99.05-58.85,32.41,15.16,40.61,66.08,18.32,113.75-22.29,47.66-66.64,74.01-99.05,58.85ZM131.95,458.07c6.19,7.12,1.09,21.69-11.39,32.53-12.48,10.84-27.61,13.86-33.8,6.74-6.19-7.12-1.09-21.69,11.39-32.53,12.48-10.84,27.61-13.86,33.8-6.74ZM-52.41,397.36c-9.95-2.66-15.42-14.47-12.24-26.36,3.19-11.9,13.83-19.38,23.78-16.71,9.95,2.66,15.42,14.47,12.24,26.36-3.19,11.9-13.83,19.38-23.78,16.71ZM19.97,271.17c2.4-8.95,10.4-14.57,17.88-12.57,7.48,2,11.6,10.88,9.2,19.83-2.4,8.95-10.4,14.57-17.88,12.57-7.48-2-11.6-10.88-9.2-19.83ZM160.73,389.46c4.31-6.47,10.74-9.77,14.35-7.36,3.61,2.41,3.04,9.61-1.27,16.08-4.31,6.47-10.74,9.77-14.35,7.36-3.61-2.41-3.04-9.61,1.27-16.08ZM163.11,374.87c-15.32,0-27.74-8.35-27.74-18.64,0-10.3,12.42-18.64,27.74-18.64,15.32,0,27.74,8.35,27.74,18.64s-12.42,18.64-27.74,18.64ZM-104.62,126.72c-3.29-7.26-2-14.95,2.89-17.16,4.89-2.22,11.52,1.87,14.81,9.14,3.29,7.26,2,14.95-2.89,17.16-4.89,2.22-11.52-1.87-14.81-9.14ZM-105.86,163.17c0-10.3,12.42-18.64,27.74-18.64,15.32,0,27.74,8.35,27.74,18.64,0,10.3-12.42,18.64-27.74,18.64-15.32,0-27.74-8.35-27.74-18.64ZM-61.39,214.69c0-20.06,24.2-36.32,54.05-36.32,29.85,0,54.05,16.26,54.05,36.32,0,20.06-24.2,36.32-54.05,36.32-29.85,0-54.05-16.26-54.05-36.32ZM-141.12,338.9c-9.56-20.78,13.27-51.7,50.99-69.06,37.72-17.36,76.06-14.59,85.62,6.19,9.56,20.78-13.27,51.7-50.99,69.06-37.72,17.36-76.06,14.59-85.62-6.19ZM-56.72,419.03c4.04-9.73,11.72-15.79,17.15-13.54,5.43,2.26,6.55,11.98,2.51,21.71-4.04,9.73-11.72,15.79-17.15,13.54-5.43-2.26-6.55-11.98-2.51-21.71ZM-65.76,464.02c24.03-8.56,49.11.2,56.01,19.56,6.9,19.37-6.99,42.01-31.02,50.57-24.03,8.56-49.11-.2-56.01-19.56-6.9-19.37,6.99-42.01,31.02-50.57ZM-120.88,523.03c-3.61-2.41-3.04-9.61,1.27-16.08,4.31-6.47,10.74-9.77,14.35-7.36,3.61,2.41,3.04,9.61-1.27,16.08-4.31,6.47-10.74,9.77-14.35,7.36ZM-3.59,590.41c-5.21,19.44-22.61,31.67-38.86,27.31-16.25-4.35-25.2-23.64-20-43.08,5.21-19.44,22.61-31.67,38.86-27.31,16.25,4.35,25.2,23.64,20,43.08ZM46.26,583.77c-24.36,0-44.11-11.88-44.11-26.54s19.75-26.54,44.11-26.54c24.36,0,44.11,11.88,44.11,26.54,0,14.66-19.75,26.54-44.11,26.54ZM177.85,554.45c7.7,28.75-2.25,56.39-22.22,61.74-19.97,5.35-42.41-13.61-50.11-42.36-7.7-28.75,2.25-56.39,22.22-61.74,19.97-5.35,42.41,13.61,50.11,42.36ZM212.91,555.52c-29.42-1.63-51.06-42.91-48.33-92.2,2.73-49.29,28.79-87.94,58.21-86.31,29.42,1.63,51.06,42.91,48.33,92.2-2.73,49.29-28.79,87.94-58.21,86.31ZM366.44,548.37c10.93,40.78,3.59,78.18-16.38,83.53-19.97,5.35-45.02-23.37-55.95-64.15-10.93-40.78-3.59-78.18,16.38-83.53,19.97-5.35,45.02,23.37,55.95,64.15ZM281.73,447.4c-3.61-2.41-3.04-9.61,1.27-16.08,4.31-6.47,10.74-9.77,14.35-7.36,3.61,2.41,3.04,9.61-1.27,16.08-4.31,6.47-10.74,9.77-14.35,7.36ZM510.8,528.94c-5.86,19.83-43.43,26.22-83.92,14.26-40.49-11.96-68.57-37.72-62.71-57.56,5.86-19.83,43.43-26.22,83.92-14.26,40.49,11.96,68.57,37.72,62.71,57.56ZM400.97,447.94c-30.11,13.86-60.71,11.64-68.34-4.94-7.63-16.59,10.59-41.27,40.7-55.12,30.11-13.86,60.71-11.64,68.34,4.94,7.63,16.59-10.59,41.27-40.7,55.12ZM576.22,509.53c0,10.3-12.42,18.64-27.74,18.64s-27.74-8.35-27.74-18.64c0-10.3,12.42-18.64,27.74-18.64s27.74,8.35,27.74,18.64ZM572.23,449.16c0,20.06-24.2,36.32-54.05,36.32-29.85,0-54.05-16.26-54.05-36.32s24.2-36.32,54.05-36.32c29.85,0,54.05,16.26,54.05,36.32ZM460.13,383c0-8.23,9.89-14.9,22.1-14.9,12.2,0,22.09,6.67,22.1,14.9,0,8.23-9.89,14.9-22.1,14.9-12.2,0-22.09-6.67-22.1-14.9ZM491.1,336.71c-8.68,25.29-48.43,34.55-88.78,20.7-40.35-13.86-66.02-45.59-57.33-70.87,8.68-25.29,48.43-34.55,88.78-20.7,40.35,13.86,66.02,45.59,57.33,70.87ZM315.19,271.57c-3.58-6.21-.31-14.8,7.32-19.21,7.62-4.4,16.71-2.94,20.29,3.26,3.58,6.21.31,14.8-7.32,19.21-7.62,4.4-16.71,2.94-20.29-3.26ZM395.05,161.16c9.56,20.78-13.27,51.7-50.99,69.06-37.72,17.36-76.06,14.59-85.62-6.19-9.56-20.78,13.27-51.7,50.99-69.06,37.72-17.36,76.06-14.59,85.62,6.19ZM260.86-14.78c19.97-5.35,45.02,23.37,55.95,64.15,10.93,40.78,3.59,78.18-16.38,83.53-19.97,5.35-45.02-23.37-55.95-64.15-10.93-40.78-3.59-78.18,16.38-83.53Z"/>
          <path class="uuid-f7bb413d-6331-4b8c-abc7-2c01b752e1c2" d="M598.01,337.04c-38.75,0-70.16-22.29-70.16-49.79,0-27.5,31.41-49.79,70.16-49.79,6.17,0,12.16.57,17.86,1.63-2.49-9.16-5.3-18.25-8.45-27.25-1.89,5.56-5.39,9.3-9.41,9.3-6.02,0-10.9-8.39-10.9-18.73,0-9.43,4.06-17.21,9.34-18.52-9.29-21.27-20.51-41.9-33.66-61.63-1.51.88-3.07,1.72-4.72,2.47-17.75,8.04-36.52,4.88-41.94-7.07-4.92-10.85,2.9-25.19,17.66-33.76-6.37-7.45-13.06-14.71-20.06-21.79.66,13.52-5.33,29.75-17.34,43.57-19.58,22.53-47.72,30.13-62.87,16.98-15.14-13.16-11.55-42.09,8.03-64.62,12.45-14.33,28.36-22.61,42.2-23.36-25.79-21.34-53.62-38.97-82.79-52.88-10.96,35.57-31.85,59.62-55.83,59.62-31.31,0-57.35-40.96-62.89-95.06-12.35-1.68-24.76-2.8-37.2-3.34.14,4.35-.66,8.6-2.5,12.54-8.76,18.73-37.71,23.7-64.67,11.09-9.53-4.46-17.53-10.52-23.51-17.32-6.27,1.15-12.52,2.46-18.74,3.91,5.56,2.65,11.14,5.8,16.63,9.46,34.56,23.03,52.29,57.12,39.61,76.16-12.68,19.04-50.98,15.8-85.54-7.22C82.81,15.98,67.11-4.8,63.44-22.48,48.67-15.88,34.22-8.36,20.16.1c4.11,3.25,7.44,7.75,9.38,13.19,5.14,14.43-1.48,29.98-14.8,34.72-13.31,4.74-28.28-3.11-33.42-17.54-.36-1.02-.65-2.04-.9-3.06-12.98,10.13-25.5,21.15-37.44,33.09-6.42,6.42-12.55,13.02-18.45,19.76,4.39,3.98,8.63,8.3,12.66,12.94,42.23,48.6,46.25,114.25,8.98,146.63-27.59,23.97-70.07,22.97-107.41,1.12-2.48,9.29-4.62,18.64-6.42,28.05,25.55-6.91,60.6-2.86,94.93,13.2C-16.81,308.34,15.97,356.39.48,389.5c-15.49,33.11-73.37,38.75-129.29,12.6-17.61-8.24-32.92-18.65-45.16-30.07,2.4,35.95,9.59,71.65,21.6,106.03,6.73-4.09,15.03-6.51,24.01-6.51,22.44,0,40.63,15.07,40.63,33.66s-16.56,32.26-37.57,33.55c10.8,19.66,23.38,38.61,37.72,56.61-1.44-13.28,1.12-28.72,8.12-43.69,15.11-32.32,45.17-50.19,67.13-39.92,21.96,10.27,27.51,44.79,12.39,77.11-12.47,26.67-35.12,43.49-55,42.78,58.99,58.16,131.46,94.43,207.28,108.78-1.04-58.13,26.06-105.76,63.19-108.53,39.32-2.93,74.98,45.55,79.65,108.28.04.54.06,1.07.09,1.61,8.04-1.36,16.03-3,23.99-4.85-13.81-21.38-22.58-53.23-22.58-88.83,0-64.38,28.65-116.57,64-116.57,35.34,0,64,52.19,64,116.57,0,18.5-2.38,35.98-6.59,51.52,12.65-6.8,25.01-14.33,37.02-22.58-1.51-2.08-2.78-4.42-3.71-7.02-4.4-12.35.4-25.34,10.72-29.01,9.14-3.26,19.54,1.9,24.86,11.7,3.94-3.33,7.84-6.75,11.68-10.26-57.07-27.64-86.52-85.2-65.84-129.43,20.92-44.72,85.15-58.86,143.46-31.59,8.84,4.13,17.02,8.99,24.49,14.4,16.69-41.36,26.21-84.92,28.59-128.81-1.46,1.06-3.08,2.02-4.86,2.82-9.49,4.3-19.53,2.61-22.43-3.78-2.9-6.39,2.45-15.06,11.94-19.36,5.68-2.57,11.54-2.99,15.96-1.55,0-4.52-.1-9.03-.25-13.54-9.54,3.44-20.32,5.4-31.75,5.4ZM-101.68,463.08c-15.32,0-27.74-8.35-27.74-18.64s12.42-18.64,27.74-18.64c15.32,0,27.74,8.35,27.74,18.64s-12.42,18.64-27.74,18.64ZM441.25,618.22c3.82-.77,8.1,4.5,9.55,11.76,1.45,7.26-.47,13.77-4.29,14.53-3.82.77-8.1-4.5-9.55-11.76-1.45-7.26.47-13.77,4.29-14.53ZM605.92,430.77c6.47,4.31,9.77,10.74,7.36,14.35-2.41,3.61-9.61,3.04-16.08-1.27-6.47-4.31-9.77-10.74-7.36-14.35,2.41-3.61,9.61-3.04,16.08,1.27ZM575.25,430.9c8.95,2.4,14.57,10.4,12.57,17.88-2,7.48-10.88,11.6-19.83,9.2-8.95-2.4-14.57-10.4-12.57-17.88,2-7.48,10.88-11.6,19.83-9.2ZM515.86,332.52c-1.24,22.49-44.19,38.4-95.93,35.53-51.74-2.86-92.67-23.41-91.42-45.9,1.24-22.49,44.19-38.4,95.93-35.53,51.74,2.86,92.67,23.41,91.42,45.9ZM227.62,439.41c-15.14-13.16-11.55-42.09,8.03-64.62,19.58-22.53,47.72-30.13,62.87-16.98,15.14,13.16,11.55,42.09-8.03,64.62-19.58,22.53-47.72,30.13-62.87,16.98ZM202.64,477.76c-6.02,0-10.9-8.39-10.9-18.73,0-10.34,4.88-18.73,10.9-18.73s10.9,8.39,10.9,18.73c0,10.34-4.88,18.73-10.9,18.73ZM156.51,441.47c-7.8-6.77-4.11-23.78,8.23-37.98,12.34-14.2,28.66-20.22,36.46-13.45,7.8,6.77,4.11,23.78-8.23,37.98-12.34,14.2-28.66,20.22-36.46,13.45ZM466.55,157.53c43.49-23.36,90.05-21.26,104,4.7,13.94,25.96-10.01,65.94-53.5,89.3-43.49,23.36-90.05,21.26-104-4.7-13.94-25.96,10.01-65.94,53.5-89.3ZM403.49,157.31c9.49-4.3,19.53-2.61,22.43,3.78,2.9,6.39-2.45,15.06-11.94,19.36-9.49,4.3-19.53,2.61-22.43-3.78-2.9-6.39,2.45-15.06,11.94-19.36ZM382.94,189.7c15.93,15.93-.87,58.54-37.51,95.18-36.64,36.64-79.25,53.43-95.18,37.51-15.93-15.93.87-58.54,37.51-95.18,36.64-36.64,79.25-53.43,95.18-37.51ZM90.88,131.4c15.16-32.41,66.08-40.61,113.75-18.32,47.66,22.29,74.01,66.64,58.85,99.05-15.16,32.41-66.08,40.61-113.75,18.32-47.66-22.29-74.01-66.64-58.85-99.05ZM111.75,254.56c-7.12,6.19-21.69,1.09-32.53-11.39-10.84-12.48-13.86-27.61-6.74-33.8,7.12-6.19,21.69-1.09,32.53,11.39,10.84,12.48,13.86,27.61,6.74,33.8ZM172.46,70.2c2.66-9.95,14.47-15.42,26.36-12.24,11.9,3.19,19.38,13.83,16.71,23.78-2.66,9.95-14.47,15.42-26.36,12.24-11.9-3.19-19.38-13.83-16.71-23.78ZM298.65,142.58c8.95,2.4,14.57,10.4,12.57,17.88-2,7.48-10.88,11.6-19.83,9.2-8.95-2.4-14.57-10.4-12.57-17.88,2-7.48,10.88-11.6,19.83-9.2ZM180.36,283.34c6.47,4.31,9.77,10.74,7.36,14.35-2.41,3.61-9.61,3.04-16.08-1.27-6.47-4.31-9.77-10.74-7.36-14.35,2.41-3.61,9.61-3.04,16.08,1.27ZM194.95,285.72c0-15.32,8.35-27.74,18.64-27.74,10.3,0,18.64,12.42,18.64,27.74,0,15.32-8.35,27.74-18.64,27.74s-18.64-12.42-18.64-27.74ZM443.1,17.99c7.26-3.29,14.95-2,17.16,2.89,2.22,4.89-1.87,11.52-9.14,14.81-7.26,3.29-14.95,2-17.16-2.89-2.22-4.89,1.87-11.52,9.14-14.81ZM406.65,16.75c10.3,0,18.64,12.42,18.64,27.74,0,15.32-8.35,27.74-18.64,27.74-10.3,0-18.64-12.42-18.64-27.74,0-15.32,8.35-27.74,18.64-27.74ZM355.13,61.22c20.06,0,36.32,24.2,36.32,54.05,0,29.85-16.26,54.05-36.32,54.05-20.06,0-36.32-24.2-36.32-54.05,0-29.85,16.26-54.05,36.32-54.05ZM230.93-18.51c20.78-9.56,51.7,13.27,69.06,50.99,17.36,37.72,14.59,76.06-6.19,85.62-20.78,9.56-51.7-13.27-69.06-50.99-17.36-37.72-14.59-76.06,6.19-85.62ZM150.79,65.89c9.73,4.04,15.79,11.72,13.54,17.15-2.26,5.43-11.98,6.55-21.71,2.51-9.73-4.04-15.79-11.72-13.54-17.15,2.26-5.43,11.98-6.55,21.71-2.51ZM105.8,56.85c8.56,24.03-.2,49.11-19.56,56.01-19.37,6.9-42.01-6.99-50.57-31.02-8.56-24.03.2-49.11,19.56-56.01,19.37-6.9,42.01,6.99,50.57,31.02ZM46.79,1.73c2.41-3.61,9.61-3.04,16.08,1.27,6.47,4.31,9.77,10.74,7.36,14.35-2.41,3.61-9.61,3.04-16.08-1.27-6.47-4.31-9.77-10.74-7.36-14.35ZM-20.59,119.02c-19.44-5.21-31.67-22.61-27.31-38.86,4.35-16.25,23.64-25.2,43.08-20,19.44,5.21,31.67,22.61,27.31,38.86-4.35,16.25-23.64,25.2-43.08,20ZM-13.95,168.87c0-24.36,11.88-44.11,26.54-44.11s26.54,19.75,26.54,44.11c0,24.36-11.88,44.11-26.54,44.11-14.66,0-26.54-19.75-26.54-44.11ZM15.37,300.46c-28.75,7.7-56.39-2.25-61.74-22.22-5.35-19.97,13.61-42.41,42.36-50.11,28.75-7.7,56.39,2.25,61.74,22.22,5.35,19.97-13.61,42.41-42.36,50.11ZM14.31,335.52c1.63-29.42,42.91-51.06,92.2-48.33,49.29,2.73,87.94,28.79,86.31,58.21-1.63,29.42-42.91,51.06-92.2,48.33-49.29-2.73-87.94-28.79-86.31-58.21ZM21.45,489.05c-40.78,10.93-78.18,3.59-83.53-16.38-5.35-19.97,23.37-45.02,64.15-55.95,40.78-10.93,78.18-3.59,83.53,16.38,5.35,19.97-23.37,45.02-64.15,55.95ZM122.42,404.34c2.41-3.61,9.61-3.04,16.08,1.27,6.47,4.31,9.77,10.74,7.36,14.35-2.41,3.61-9.61,3.04-16.08-1.27-6.47-4.31-9.77-10.74-7.36-14.35ZM40.88,633.41c-19.83-5.86-26.22-43.43-14.26-83.92,11.96-40.49,37.72-68.57,57.56-62.71,19.83,5.86,26.22,43.43,14.26,83.92-11.96,40.49-37.72,68.57-57.56,62.71ZM121.89,523.58c-13.86-30.11-11.64-60.71,4.94-68.34,16.59-7.63,41.27,10.59,55.12,40.7,13.86,30.11,11.64,60.71-4.94,68.34-16.59,7.63-41.27-10.59-55.12-40.7ZM60.29,698.83c-10.3,0-18.64-12.42-18.64-27.74s8.35-27.74,18.64-27.74c10.3,0,18.64,12.42,18.64,27.74s-8.35,27.74-18.64,27.74ZM120.66,694.84c-20.06,0-36.32-24.2-36.32-54.05,0-29.85,16.26-54.05,36.32-54.05s36.32,24.2,36.32,54.05c0,29.85-16.26,54.05-36.32,54.05ZM186.83,582.74c8.23,0,14.9,9.89,14.9,22.1,0,12.2-6.67,22.09-14.9,22.1-8.23,0-14.9-9.89-14.9-22.1,0-12.2,6.67-22.09,14.9-22.1ZM233.12,613.71c-25.29-8.68-34.55-48.43-20.7-88.78,13.86-40.35,45.59-66.02,70.87-57.33,25.29,8.68,34.55,48.43,20.7,88.78-13.86,40.35-45.59,66.02-70.87,57.33ZM298.25,437.8c6.21-3.58,14.8-.31,19.21,7.32,4.4,7.62,2.94,16.71-3.26,20.29-6.21,3.58-14.8.31-19.21-7.32-4.4-7.62-2.94-16.71,3.26-20.29ZM408.66,517.66c-20.78,9.56-51.7-13.27-69.06-50.99-17.36-37.72-14.59-76.06,6.19-85.62,20.78-9.56,51.7,13.27,69.06,50.99,17.36,37.72,14.59,76.06-6.19,85.62ZM584.6,383.47c5.35,19.97-23.37,45.02-64.15,55.95-40.78,10.93-78.18,3.59-83.53-16.38-5.35-19.97,23.37-45.02,64.15-55.95,40.78-10.93,78.18-3.59,83.53,16.38Z"/>
        </g>
      </g>
    </g>
  </g>
</svg>