<?xml version="1.0" encoding="UTF-8"?>
<svg xmlns="http://www.w3.org/2000/svg" xmlns:xlink="http://www.w3.org/1999/xlink" viewBox="0 0 611.84 529.87">
  <defs>
    <style>
      .uuid-f20b739d-8376-4a56-b2d0-4a0f310c9a04 {
        fill: #986c29;
        mix-blend-mode: overlay;
      }

      .uuid-2997abd7-a683-43fe-91c3-51d223043479 {
        fill: none;
      }

      .uuid-49823014-594b-4ea7-bba5-554b4256ac39 {
        fill: #03403f;
        mix-blend-mode: multiply;
        opacity: .44;
      }

      .uuid-ea4f350a-cf60-408c-a03c-07180106d386 {
        isolation: isolate;
      }

      .uuid-dbb88f67-599c-4732-a40f-7ae73eaedd83 {
        clip-path: url(#uuid-3cb69fe8-f314-46ea-b0d8-740d8dfdc684);
      }
    </style>
    <clipPath id="uuid-3cb69fe8-f314-46ea-b0d8-740d8dfdc684">
      <polygon class="uuid-2997abd7-a683-43fe-91c3-51d223043479" points="458.88 0 152.96 0 0 264.93 152.96 529.87 458.88 529.87 611.84 264.93 458.88 0"/>
    </clipPath>
  </defs>
  <g class="uuid-ea4f350a-cf60-408c-a03c-07180106d386">
    <g id="uuid-200bb229-23b7-4e91-a597-6aab2e7d2630" data-name="Layer 2">
      <g id="uuid-d3e3a7cc-92db-4c77-a859-88e84b8c16a1" data-name="Layer 4">
        <g class="uuid-dbb88f67-599c-4732-a40f-7ae73eaedd83">
          <path class="uuid-f20b739d-8376-4a56-b2d0-4a0f310c9a04" d="M222.35-29.22c0,40.18-23.11,72.75-51.63,72.75-28.51,0-51.63-32.57-51.63-72.75,0-6.4.59-12.61,1.69-18.52-9.5,2.58-18.92,5.5-28.26,8.76,5.76,1.96,9.64,5.59,9.64,9.76,0,6.24-8.7,11.31-19.42,11.31-9.78,0-17.84-4.21-19.2-9.68C41.5-17.97,20.1-6.33-.35,7.3c.91,1.57,1.78,3.18,2.56,4.9,8.34,18.4,5.06,37.87-7.33,43.49-11.25,5.1-26.12-3-35.01-18.31-7.72,6.6-15.26,13.54-22.6,20.8,14.02-.68,30.85,5.52,45.18,17.98C5.82,96.46,13.71,125.64.06,141.35c-13.64,15.7-43.64,11.97-67.01-8.33-14.86-12.91-23.44-29.41-24.22-43.75-22.13,26.75-40.4,55.61-54.84,85.84,36.88,11.36,61.82,33.03,61.82,57.9,0,32.46-42.48,59.47-98.58,65.21-1.75,12.81-2.91,25.68-3.46,38.57,4.52-.14,8.91.68,13,2.59,19.42,9.08,24.57,39.11,11.5,67.06-4.62,9.88-10.91,18.18-17.96,24.38,1.2,6.5,2.55,12.98,4.06,19.43,2.75-5.77,6.02-11.56,9.81-17.25,23.88-35.84,59.23-54.22,78.98-41.07,19.74,13.15,16.39,52.87-7.49,88.7-16.24,24.37-37.78,40.66-56.12,44.46,6.84,15.32,14.64,30.31,23.42,44.88,3.37-4.26,8.03-7.72,13.67-9.73,14.97-5.33,31.08,1.54,36,15.34,4.92,13.81-3.22,29.32-18.19,34.65-1.05.38-2.11.68-3.18.93,10.5,13.46,21.93,26.44,34.31,38.82,6.66,6.66,13.5,13.02,20.49,19.13,4.13-4.56,8.6-8.95,13.41-13.13,50.39-43.79,118.47-47.96,152.04-9.31,24.86,28.61,23.82,72.66,1.16,111.38,9.63,2.57,19.33,4.79,29.09,6.66-7.16-26.49-2.96-62.84,13.69-98.44,27.12-57.99,76.94-91.98,111.28-75.92,34.34,16.06,40.19,76.08,13.07,134.07-8.54,18.26-19.33,34.14-31.19,46.82,37.28-2.49,74.29-9.94,109.95-22.39-4.24-6.98-6.75-15.58-6.75-24.9,0-23.27,15.63-42.13,34.9-42.13s33.45,17.17,34.79,38.96c20.39-11.2,40.03-24.25,58.7-39.11-13.78,1.49-29.78-1.16-45.3-8.42-33.51-15.67-52.04-46.84-41.4-69.61,10.65-22.77,46.45-28.52,79.96-12.85,27.66,12.93,45.09,36.42,44.36,57.03,60.31-61.17,97.92-136.32,112.8-214.93-60.28,1.08-109.67-27.02-112.54-65.52-3.04-40.77,47.23-77.75,112.28-82.6.56-.04,1.11-.06,1.67-.1-1.41-8.33-3.11-16.63-5.03-24.88-22.17,14.32-55.2,23.41-92.11,23.41-66.76,0-120.88-29.71-120.88-66.36,0-36.65,54.12-66.36,120.88-66.36,19.18,0,37.31,2.46,53.42,6.83-7.05-13.12-14.86-25.94-23.42-38.39-2.15,1.56-4.58,2.88-7.28,3.84-12.8,4.56-26.27-.42-30.09-11.12-3.38-9.48,1.97-20.27,12.13-25.78-3.46-4.09-7-8.13-10.63-12.11-28.67,59.18-88.35,89.72-134.21,68.27-46.37-21.69-61.04-88.29-32.76-148.76,4.29-9.17,9.32-17.65,14.93-25.4-42.88-17.3-88.06-27.17-133.56-29.65,1.1,1.51,2.1,3.2,2.93,5.03,4.46,9.84,2.71,20.25-3.92,23.26-6.62,3-15.61-2.54-20.07-12.38-2.67-5.89-3.1-11.96-1.61-16.55-4.68,0-9.36.1-14.04.26,3.57,9.89,5.59,21.07,5.59,32.93ZM353.05,696.31c0,15.89-8.65,28.77-19.33,28.77s-19.33-12.88-19.33-28.77c0-15.89,8.65-28.77,19.33-28.77s19.33,12.88,19.33,28.77ZM513.92,133.32c-.79-3.96,4.67-8.4,12.2-9.91,7.53-1.51,14.28.48,15.07,4.45.79,3.96-4.67,8.4-12.2,9.91-7.53,1.51-14.28-.48-15.07-4.45ZM319.54-37.43c4.47-6.71,11.13-10.13,14.88-7.64s3.16,9.96-1.32,16.67c-4.47,6.71-11.13,10.13-14.88,7.64-3.75-2.5-3.16-9.96,1.32-16.67ZM319.67-5.63c2.49-9.28,10.79-15.11,18.54-13.03,7.76,2.08,12.03,11.28,9.54,20.56-2.49,9.28-10.79,15.11-18.54,13.03-7.76-2.08-12.03-11.28-9.54-20.56ZM217.67,55.95c23.32,1.29,39.81,45.83,36.84,99.48-2.97,53.65-24.28,96.09-47.6,94.8-23.32-1.29-39.81-45.83-36.84-99.48,2.97-53.65,24.28-96.09,47.6-94.8ZM328.5,354.85c-13.64,15.7-43.64,11.97-67.01-8.33-23.36-20.3-31.25-49.49-17.6-65.19,13.64-15.7,43.64-11.97,67.01,8.33,23.36,20.3,31.25,49.49,17.6,65.19ZM368.27,380.75c0,6.24-8.7,11.31-19.42,11.31-10.73,0-19.42-5.06-19.42-11.31s8.7-11.31,19.42-11.31c10.73,0,19.42,5.06,19.42,11.31ZM330.64,428.58c-7.02,8.08-24.66,4.27-39.39-8.53-14.73-12.8-20.97-29.72-13.95-37.81,7.02-8.08,24.66-4.27,39.39,8.53,14.73,12.8,20.97,29.72,13.95,37.81ZM36.21,107.09C11.99,61.99,14.17,13.71,41.08-.75c26.92-14.46,68.38,10.38,92.6,55.48,24.23,45.1,22.05,93.38-4.87,107.84-26.92,14.46-68.38-10.38-92.6-55.48ZM35.98,172.47c-4.46-9.84-2.71-20.25,3.92-23.26,6.62-3,15.61,2.54,20.07,12.38,4.46,9.84,2.71,20.25-3.92,23.26-6.62,3-15.61-2.54-20.07-12.38ZM69.56,193.79c16.51-16.51,60.7.9,98.69,38.89,37.99,37.99,55.41,82.18,38.89,98.69-16.51,16.51-60.7-.9-98.69-38.89-37.99-37.99-55.41-82.18-38.89-98.69ZM9.12,496.63c-33.61-15.72-42.11-68.53-19-117.95,23.11-49.42,69.1-76.75,102.7-61.03,33.61,15.72,42.11,68.52,19,117.95-23.11,49.42-69.1,76.75-102.7,61.03ZM136.83,474.99c6.42,7.39,1.13,22.49-11.81,33.73-12.94,11.24-28.63,14.37-35.05,6.98-6.42-7.39-1.13-22.49,11.81-33.73,12.94-11.24,28.63-14.37,35.05-6.98ZM-54.34,412.04c-10.31-2.76-15.99-15-12.69-27.34,3.31-12.34,14.34-20.09,24.66-17.33,10.31,2.76,15.99,15,12.69,27.34-3.31,12.34-14.34,20.09-24.66,17.33ZM20.71,281.19c2.49-9.28,10.79-15.11,18.54-13.03,7.76,2.08,12.03,11.28,9.54,20.56-2.49,9.28-10.79,15.11-18.54,13.03-7.76-2.08-12.03-11.28-9.54-20.56ZM166.67,403.85c4.47-6.71,11.13-10.13,14.88-7.64,3.75,2.5,3.16,9.96-1.32,16.67-4.47,6.71-11.13,10.13-14.88,7.64-3.75-2.5-3.16-9.96,1.32-16.67ZM169.13,388.72c-15.89,0-28.77-8.65-28.77-19.33,0-10.68,12.88-19.33,28.77-19.33,15.89,0,28.77,8.65,28.77,19.33s-12.88,19.33-28.77,19.33ZM-108.48,131.4c-3.41-7.53-2.07-15.5,3-17.8,5.07-2.3,11.95,1.94,15.36,9.47,3.41,7.53,2.07,15.5-3,17.8-5.07,2.3-11.95-1.94-15.36-9.47ZM-109.77,169.2c0-10.68,12.88-19.33,28.77-19.33,15.89,0,28.77,8.65,28.77,19.33,0,10.68-12.88,19.33-28.77,19.33-15.89,0-28.77-8.65-28.77-19.33ZM-63.66,222.62c0-20.8,25.09-37.66,56.04-37.66,30.95,0,56.05,16.86,56.04,37.66,0,20.8-25.09,37.66-56.04,37.66-30.95,0-56.05-16.86-56.04-37.66ZM-146.33,351.42c-9.92-21.55,13.76-53.61,52.88-71.61,39.12-18,78.87-15.13,88.78,6.42,9.92,21.55-13.76,53.61-52.88,71.61-39.12,18-78.87,15.13-88.78-6.42ZM-58.81,434.51c4.19-10.09,12.16-16.38,17.79-14.04,5.63,2.34,6.8,12.42,2.6,22.51-4.19,10.09-12.16,16.38-17.79,14.04-5.63-2.34-6.8-12.42-2.6-22.51ZM-68.19,481.17c24.92-8.88,50.92.2,58.08,20.29,7.16,20.08-7.25,43.56-32.17,52.44-24.92,8.88-50.92-.2-58.08-20.29-7.16-20.08,7.25-43.56,32.17-52.44ZM-125.35,542.35c-3.75-2.5-3.16-9.96,1.32-16.67,4.47-6.71,11.13-10.13,14.88-7.64,3.75,2.5,3.16,9.96-1.32,16.67-4.47,6.71-11.13,10.13-14.88,7.64ZM-3.72,612.23c-5.4,20.16-23.44,32.84-40.29,28.32-16.85-4.52-26.14-24.52-20.73-44.68,5.4-20.16,23.44-32.84,40.29-28.32,16.85,4.52,26.14,24.52,20.73,44.68ZM47.97,605.34c-25.26,0-45.74-12.32-45.74-27.52s20.48-27.52,45.74-27.52c25.26,0,45.74,12.32,45.74,27.52,0,15.2-20.48,27.52-45.74,27.52ZM184.42,574.93c7.99,29.81-2.33,58.47-23.04,64.02-20.71,5.55-43.98-14.12-51.96-43.92-7.99-29.81,2.33-58.47,23.04-64.02,20.71-5.55,43.98,14.12,51.96,43.92ZM220.77,576.04c-30.51-1.69-52.94-44.5-50.12-95.61,2.83-51.12,29.85-91.18,60.36-89.5,30.51,1.69,52.94,44.5,50.12,95.61-2.83,51.12-29.85,91.18-60.36,89.5ZM379.97,568.63c11.33,42.29,3.73,81.07-16.99,86.62-20.71,5.55-46.69-24.23-58.02-66.52-11.33-42.29-3.73-81.07,16.99-86.62,20.71-5.55,46.69,24.23,58.02,66.52ZM292.14,463.93c-3.75-2.5-3.16-9.96,1.32-16.67,4.47-6.71,11.13-10.13,14.88-7.64,3.75,2.5,3.16,9.96-1.32,16.67-4.47,6.71-11.13,10.13-14.88,7.64ZM529.67,548.49c-6.07,20.56-45.03,27.19-87.02,14.79-41.99-12.4-71.1-39.12-65.03-59.68,6.07-20.56,45.03-27.19,87.02-14.79,41.99,12.4,71.1,39.12,65.03,59.68ZM415.78,464.49c-31.22,14.37-62.95,12.07-70.87-5.13-7.92-17.2,10.98-42.79,42.21-57.16,31.22-14.37,62.95-12.07,70.87,5.13,7.92,17.2-10.98,42.79-42.21,57.16ZM597.5,528.35c0,10.68-12.88,19.33-28.77,19.33s-28.77-8.65-28.77-19.33c0-10.68,12.88-19.33,28.77-19.33s28.77,8.65,28.77,19.33ZM593.37,465.76c0,20.8-25.09,37.66-56.05,37.66-30.95,0-56.04-16.86-56.04-37.66s25.09-37.66,56.04-37.66c30.95,0,56.04,16.86,56.05,37.66ZM477.13,397.15c0-8.53,10.26-15.45,22.91-15.45,12.65,0,22.91,6.92,22.91,15.45,0,8.53-10.26,15.45-22.91,15.45-12.65,0-22.91-6.92-22.91-15.45ZM509.24,349.14c-9,26.22-50.22,35.83-92.06,21.46-41.84-14.37-68.45-47.27-59.45-73.49,9-26.22,50.22-35.83,92.06-21.46,41.84,14.37,68.45,47.27,59.45,73.49ZM326.83,281.6c-3.71-6.43-.32-15.35,7.59-19.92,7.91-4.56,17.33-3.05,21.04,3.39,3.71,6.43.32,15.35-7.59,19.92-7.91,4.56-17.33,3.05-21.04-3.39ZM409.64,167.12c9.92,21.55-13.76,53.61-52.88,71.61-39.12,18-78.87,15.13-88.78-6.42-9.92-21.55,13.76-53.61,52.88-71.61,39.12-18,78.87-15.13,88.78,6.42ZM270.5-15.33c20.71-5.55,46.69,24.23,58.02,66.52,11.33,42.29,3.73,81.07-16.99,86.62-20.71,5.55-46.69-24.23-58.02-66.52-11.33-42.29-3.73-81.07,16.99-86.62Z"/>
          <path class="uuid-49823014-594b-4ea7-bba5-554b4256ac39" d="M620.1,349.49c-40.18,0-72.75-23.11-72.75-51.63,0-28.51,32.57-51.63,72.75-51.63,6.4,0,12.61.59,18.52,1.69-2.58-9.5-5.5-18.92-8.76-28.26-1.96,5.76-5.59,9.64-9.76,9.64-6.24,0-11.31-8.7-11.31-19.42,0-9.78,4.21-17.84,9.68-19.2-9.63-22.06-21.27-43.45-34.9-63.91-1.57.91-3.18,1.78-4.9,2.56-18.4,8.34-37.87,5.06-43.49-7.33-5.1-11.25,3-26.12,18.31-35.01-6.6-7.72-13.54-15.26-20.8-22.6.68,14.02-5.52,30.85-17.98,45.18-20.3,23.36-49.49,31.25-65.19,17.6-15.7-13.64-11.97-43.64,8.33-67.01,12.91-14.86,29.41-23.44,43.75-24.22-26.75-22.13-55.61-40.4-85.84-54.84-11.36,36.88-33.03,61.82-57.9,61.82-32.46,0-59.47-42.48-65.21-98.58-12.81-1.75-25.68-2.91-38.57-3.46.14,4.52-.68,8.91-2.59,13-9.08,19.42-39.11,24.57-67.06,11.5-9.88-4.62-18.18-10.91-24.38-17.96-6.5,1.2-12.98,2.55-19.43,4.06,5.77,2.75,11.56,6.02,17.25,9.81,35.84,23.88,54.22,59.23,41.07,78.98-13.15,19.74-52.87,16.39-88.7-7.49-24.37-16.24-40.66-37.78-44.46-56.12C50.47-16.47,35.48-8.67,20.91.11c4.26,3.37,7.72,8.03,9.73,13.67,5.33,14.97-1.54,31.08-15.34,36-13.81,4.92-29.32-3.22-34.65-18.19-.38-1.05-.68-2.11-.93-3.18-13.46,10.5-26.44,21.93-38.82,34.31-6.66,6.66-13.02,13.5-19.13,20.49,4.56,4.13,8.95,8.6,13.13,13.41,43.79,50.39,47.96,118.47,9.31,152.04-28.61,24.86-72.66,23.82-111.38,1.16-2.57,9.63-4.79,19.33-6.66,29.09,26.49-7.16,62.84-2.96,98.44,13.69C-17.43,319.73,16.56,369.55.5,403.89c-16.06,34.34-76.08,40.19-134.07,13.07-18.26-8.54-34.14-19.33-46.82-31.19,2.49,37.28,9.94,74.29,22.39,109.95,6.98-4.24,15.58-6.75,24.9-6.75,23.27,0,42.13,15.63,42.13,34.9s-17.17,33.45-38.96,34.79c11.2,20.39,24.25,40.03,39.11,58.7-1.49-13.78,1.16-29.78,8.42-45.3,15.67-33.51,46.84-52.04,69.61-41.4,22.77,10.65,28.52,46.45,12.85,79.96-12.93,27.66-36.42,45.09-57.03,44.36,61.17,60.31,136.32,97.92,214.93,112.8-1.08-60.28,27.02-109.67,65.52-112.54,40.77-3.04,77.75,47.23,82.6,112.28.04.56.06,1.11.1,1.67,8.33-1.41,16.63-3.11,24.88-5.03-14.32-22.17-23.41-55.2-23.41-92.11,0-66.76,29.71-120.88,66.36-120.88,36.65,0,66.36,54.12,66.36,120.88,0,19.18-2.46,37.31-6.83,53.42,13.12-7.05,25.94-14.86,38.39-23.42-1.56-2.15-2.88-4.58-3.84-7.28-4.56-12.8.42-26.27,11.12-30.09,9.48-3.38,20.27,1.97,25.78,12.13,4.09-3.46,8.13-7,12.11-10.63-59.18-28.67-89.72-88.35-68.27-134.21,21.69-46.37,88.29-61.04,148.76-32.76,9.17,4.29,17.65,9.32,25.4,14.93,17.3-42.88,27.17-88.06,29.65-133.56-1.51,1.1-3.2,2.1-5.03,2.93-9.84,4.46-20.25,2.71-23.26-3.92-3-6.62,2.54-15.61,12.38-20.07,5.89-2.67,11.96-3.1,16.55-1.61,0-4.68-.1-9.36-.26-14.04-9.89,3.57-21.07,5.59-32.93,5.59ZM-105.44,480.19c-15.89,0-28.77-8.65-28.77-19.33s12.88-19.33,28.77-19.33c15.89,0,28.77,8.65,28.77,19.33s-12.88,19.33-28.77,19.33ZM457.55,641.06c3.96-.79,8.4,4.67,9.91,12.2,1.51,7.53-.48,14.28-4.45,15.07-3.96.79-8.4-4.67-9.91-12.2-1.51-7.53.48-14.28,4.45-15.07ZM628.3,446.68c6.71,4.47,10.13,11.13,7.64,14.88-2.5,3.75-9.96,3.16-16.67-1.32-6.71-4.47-10.13-11.13-7.64-14.88,2.5-3.75,9.96-3.16,16.67,1.32ZM596.5,446.81c9.28,2.49,15.11,10.79,13.03,18.54-2.08,7.76-11.28,12.03-20.56,9.54-9.28-2.49-15.11-10.79-13.03-18.54,2.08-7.76,11.28-12.03,20.56-9.54ZM534.92,344.81c-1.29,23.32-45.83,39.81-99.48,36.84-53.65-2.97-96.09-24.28-94.8-47.6,1.29-23.32,45.83-39.81,99.48-36.84,53.65,2.97,96.09,24.28,94.8,47.6ZM236.02,455.64c-15.7-13.64-11.97-43.64,8.33-67.01,20.3-23.36,49.49-31.25,65.19-17.6,15.7,13.64,11.97,43.64-8.33,67.01-20.3,23.36-49.49,31.25-65.19,17.6ZM210.13,495.41c-6.24,0-11.31-8.7-11.31-19.42,0-10.73,5.06-19.42,11.31-19.42s11.31,8.7,11.31,19.42c0,10.73-5.06,19.42-11.31,19.42ZM162.29,457.78c-8.08-7.02-4.27-24.66,8.53-39.39,12.8-14.73,29.72-20.97,37.81-13.95,8.08,7.02,4.27,24.66-8.53,39.39-12.8,14.73-29.72,20.97-37.81,13.95ZM483.78,163.35c45.1-24.23,93.38-22.04,107.84,4.87,14.46,26.92-10.38,68.38-55.48,92.6-45.1,24.23-93.38,22.05-107.84-4.87-14.46-26.92,10.38-68.38,55.48-92.6ZM418.4,163.12c9.84-4.46,20.25-2.71,23.26,3.92,3,6.62-2.54,15.61-12.38,20.07-9.84,4.46-20.25,2.71-23.26-3.92-3-6.62,2.54-15.61,12.38-20.07ZM397.08,196.7c16.51,16.51-.9,60.7-38.89,98.69s-82.18,55.41-98.69,38.89c-16.51-16.51.9-60.7,38.89-98.69,37.99-37.99,82.18-55.41,98.69-38.89ZM94.24,136.26c15.72-33.61,68.53-42.11,117.95-19,49.42,23.11,76.75,69.1,61.03,102.7-15.72,33.61-68.52,42.11-117.95,19-49.42-23.11-76.75-69.1-61.03-102.7ZM115.88,263.97c-7.39,6.42-22.49,1.13-33.73-11.81-11.24-12.94-14.37-28.63-6.98-35.05,7.39-6.42,22.49-1.13,33.73,11.81,11.24,12.94,14.37,28.63,6.98,35.05ZM178.83,72.8c2.76-10.31,15-15.99,27.34-12.69,12.34,3.31,20.09,14.34,17.33,24.66-2.76,10.31-15,15.99-27.34,12.69-12.34-3.31-20.09-14.34-17.33-24.66ZM309.68,147.85c9.28,2.49,15.11,10.79,13.03,18.54-2.08,7.76-11.28,12.03-20.56,9.54-9.28-2.49-15.11-10.79-13.03-18.54,2.08-7.76,11.28-12.03,20.56-9.54ZM187.02,293.81c6.71,4.47,10.13,11.13,7.64,14.88-2.5,3.75-9.96,3.16-16.67-1.32-6.71-4.47-10.13-11.13-7.64-14.88,2.5-3.75,9.96-3.16,16.67,1.32ZM202.15,296.27c0-15.89,8.65-28.77,19.33-28.77,10.68,0,19.33,12.88,19.33,28.77,0,15.89-8.65,28.77-19.33,28.77s-19.33-12.88-19.33-28.77ZM459.47,18.66c7.53-3.41,15.5-2.07,17.8,3,2.3,5.07-1.94,11.95-9.47,15.36-7.53,3.41-15.5,2.07-17.8-3-2.3-5.07,1.94-11.95,9.47-15.36ZM421.68,17.37c10.68,0,19.33,12.88,19.33,28.77,0,15.89-8.65,28.77-19.33,28.77-10.68,0-19.33-12.88-19.33-28.77,0-15.89,8.65-28.77,19.33-28.77ZM368.25,63.48c20.8,0,37.66,25.09,37.66,56.04,0,30.95-16.86,56.05-37.66,56.04-20.8,0-37.66-25.09-37.66-56.04,0-30.95,16.86-56.05,37.66-56.04ZM239.46-19.19c21.55-9.92,53.61,13.76,71.61,52.88,18,39.12,15.13,78.87-6.42,88.78-21.55,9.92-53.61-13.76-71.61-52.88-18-39.12-15.13-78.87,6.42-88.78ZM156.36,68.33c10.09,4.19,16.38,12.16,14.04,17.79-2.34,5.63-12.42,6.8-22.51,2.6-10.09-4.19-16.38-12.16-14.04-17.79,2.34-5.63,12.42-6.8,22.51-2.6ZM109.71,58.95c8.88,24.92-.2,50.92-20.29,58.08-20.08,7.16-43.56-7.25-52.44-32.17-8.88-24.92.2-50.92,20.29-58.08,20.08-7.16,43.56,7.25,52.44,32.17ZM48.52,1.79c2.5-3.75,9.96-3.16,16.67,1.32,6.71,4.47,10.13,11.13,7.64,14.88-2.5,3.75-9.96,3.16-16.67-1.32-6.71-4.47-10.13-11.13-7.64-14.88ZM-21.35,123.42c-20.16-5.4-32.84-23.44-28.32-40.29,4.52-16.85,24.52-26.14,44.68-20.73,20.16,5.4,32.84,23.44,28.32,40.29-4.52,16.85-24.52,26.14-44.68,20.73ZM-14.47,175.11c0-25.26,12.32-45.74,27.52-45.74s27.52,20.48,27.52,45.74c0,25.26-12.32,45.74-27.52,45.74-15.2,0-27.52-20.48-27.52-45.74ZM15.94,311.56c-29.81,7.99-58.47-2.33-64.02-23.04-5.55-20.71,14.12-43.98,43.92-51.96,29.81-7.99,58.47,2.33,64.02,23.04,5.55,20.71-14.12,43.98-43.92,51.96ZM14.83,347.91c1.69-30.51,44.5-52.94,95.61-50.12,51.12,2.83,91.18,29.85,89.5,60.36-1.69,30.51-44.5,52.94-95.61,50.12-51.12-2.83-91.18-29.85-89.5-60.36ZM22.24,507.11c-42.29,11.33-81.07,3.73-86.62-16.99-5.55-20.71,24.23-46.69,66.52-58.02,42.29-11.33,81.07-3.73,86.62,16.99,5.55,20.71-24.23,46.69-66.52,58.02ZM126.94,419.28c2.5-3.75,9.96-3.16,16.67,1.32,6.71,4.47,10.13,11.13,7.64,14.88-2.5,3.75-9.96,3.16-16.67-1.32-6.71-4.47-10.13-11.13-7.64-14.88ZM42.39,656.81c-20.56-6.07-27.19-45.03-14.79-87.02,12.4-41.99,39.12-71.1,59.68-65.03,20.56,6.07,27.19,45.03,14.79,87.02-12.4,41.99-39.12,71.1-59.68,65.03ZM126.39,542.92c-14.37-31.22-12.07-62.95,5.13-70.87,17.2-7.92,42.79,10.98,57.16,42.21,14.37,31.22,12.07,62.95-5.13,70.87-17.2,7.92-42.79-10.98-57.16-42.21ZM62.52,724.64c-10.68,0-19.33-12.88-19.33-28.77s8.65-28.77,19.33-28.77c10.68,0,19.33,12.88,19.33,28.77s-8.65,28.77-19.33,28.77ZM125.12,720.51c-20.8,0-37.66-25.09-37.66-56.05,0-30.95,16.86-56.04,37.66-56.04s37.66,25.09,37.66,56.04c0,30.95-16.86,56.04-37.66,56.05ZM193.73,604.27c8.53,0,15.45,10.26,15.45,22.91,0,12.65-6.92,22.91-15.45,22.91-8.53,0-15.45-10.26-15.45-22.91,0-12.65,6.92-22.91,15.45-22.91ZM241.73,636.38c-26.22-9-35.83-50.22-21.46-92.06,14.37-41.84,47.27-68.45,73.49-59.45,26.22,9,35.83,50.22,21.46,92.06-14.37,41.84-47.27,68.45-73.49,59.45ZM309.27,453.97c6.43-3.71,15.35-.32,19.92,7.59,4.56,7.91,3.05,17.33-3.39,21.04-6.43,3.71-15.35.32-19.92-7.59-4.56-7.91-3.05-17.33,3.39-21.04ZM423.76,536.78c-21.55,9.92-53.61-13.76-71.61-52.88-18-39.12-15.13-78.87,6.42-88.78,21.55-9.92,53.61,13.76,71.61,52.88,18,39.12,15.13,78.87-6.42,88.78ZM606.2,397.64c5.55,20.71-24.23,46.69-66.52,58.02-42.29,11.33-81.07,3.73-86.62-16.99-5.55-20.71,24.23-46.69,66.52-58.02,42.29-11.33,81.07-3.73,86.62,16.99Z"/>
        </g>
      </g>
    </g>
  </g>
</svg>