<?xml version="1.0" encoding="UTF-8"?>
<svg id="Layer_2" data-name="Layer 2" xmlns="http://www.w3.org/2000/svg" viewBox="0 0 537.48 301.54">
  <defs>
    <style>
      .cls-1, .cls-2 {
        fill: #fff;
      }

      .cls-2 {
        stroke: #fff;
        stroke-miterlimit: 10;
      }
    </style>
  </defs>
  <g id="Layer_1-2" data-name="Layer 1">
    <path class="cls-1" d="M49.26,49.92c-5.4-18.54-18.89-33.27-26.87-40.67C16.12,3.43,8.06-.02,1.59,0-1.1,86.62.39,214.94.6,301.54c5.48-.1,9.31-2.34,13.54-7.27.81-30.39-.71-80.6-.48-111.01,1.03-1.11,1.54-1.69,2.57-2.89,14.16,23.56,18.83,72.35,22.01,99.36,6.16-1.85,8.97-1.56,16.84-5.28-1.32-16.18-6.37-60.4-10.03-75.9-3.18-13.46-8.78-27.64-13.54-40.67,12.56-21.42,22.03-41.41,22.1-66.01.04-12.95-.52-28.79-4.35-41.96ZM35.94,97.1c-1.61,15.33-3.26,19.74-15.19,37.33-1.86,2.72-7.73,9.16-9.58,11.55.15-25.48.24-88.51.66-115.27,2.14-1.46,5.21.84,7.27,2.64,8.48,7.42,18.17,51.19,16.84,63.74Z"/>
    <path class="cls-1" d="M95.65,199.59c-3.56,4.38-6.77,5.19-10.52,4.53s-11.89-6.39-13.47-15.86-1.98-23.78-1.98-32.89c22.3,9.45,28.1,10.48,38.97,19.66-.06-.9.08-11.25,0-12.15-1.51-16.08-.45-9.79-3.16-26.26-2.18-13.27-6.16-28.02-14.68-37.67-9.93-11.24-22,6.82-24.76,13.35-7.59,17.95-11.44,37.26-10.9,56.75.45,16.26.33,23.38,4.95,39.05,3.45,11.68,14.3,22.03,22.13,20.46,8.25-1.65,11.65-3,17.33-6.83,4.43-2.99,6.67-4.91,12.4-15.3-3.59-9.29-4.48-7.66-8.41-18.38-1.49,4.46-4.81,7.76-7.89,11.54ZM77.31,129.58c1.79-2.6,5.12-7,9.74-3.85,4.35,2.97,6.48,8.13,8.14,12.61,1.92,5.2,3.49,11.38,4.36,17.02-8.74-4.59-12.7-6.41-26.08-12.66.5-5.7,2-10.46,3.84-13.13Z"/>
    <path class="cls-1" d="M164.76,181.45c-3.33-8.74-7.3-12.22-10.29-15.42-5.64-6.04-11.77-2.51-13.7-.36-1.93,2.14-7.22,15.4-7.67,22.62s.7,24.69,3.63,31.95c3.44,8.51,11.61,15.2,15.33,16.5,5.74,2,13.01-2.54,15.01-10.01-.32,20.59-.11,3.82-.44,24.41-2.94,8.69-14.15,11.67-22.43,4.27-10.11-9.04-12.02-12.13-17.23-25.01-5.29-13.08-8.78-37.66-6.65-53.35,2.26-16.64,2.63-16.57,8.47-26.73,5.74-10,16.02-13.62,25.4-9.29,7.19,3.32,8.77,7.34,15.09,15.07-2.32,12.27-5.06,22.72-4.51,25.35Z"/>
    <g>
      <path class="cls-1" d="M236.49,193.35c.04,17.55-13.26,30.38-30.55,30.42-17.28.04-30.65-12.72-30.69-30.27-.04-17.69,13.26-30.24,30.55-30.28s30.65,12.45,30.69,30.14ZM222.89,193.52c-.03-13.06-8.62-18.35-17.05-18.33-8.44.02-17,5.35-16.97,18.41.03,11.02,6.58,18.22,17.05,18.19,10.48-.03,16.99-7.25,16.97-18.27Z"/>
      <path class="cls-1" d="M292.9,164.5l13.34-.03.12,52.66c.03,13.47-1.44,23.14-9.32,29.82-3.67,3-9.65,6.15-19.04,6.17-6.67.02-13.34-1.6-18.79-7.03-4.23-4.21-7.51-10.87-8.48-17.81l12.93-.03c.55,3.13,2.19,6.8,4.24,8.97,1.64,1.76,4.91,3.93,10.35,3.92,5.58-.01,8.84-2.2,10.47-3.84,4.34-4.23,4.33-10.21,4.32-14.43l-.02-7.48c-6.11,7.77-13.59,8.2-17.4,8.21-7.35.02-13.48-2.01-18.93-7.71-5.18-5.43-8.6-13.18-8.63-22.71-.02-10.48,3.9-17.7,8.38-22.2,5.7-5.86,12.5-7.92,19.44-7.94,5.72-.01,12.12,1.88,17.03,7.72v-6.26ZM267.49,178.85c-3.39,3.14-5.83,8.45-5.82,14.57.01,5.72,2.2,11.29,5.75,14.41,2.46,2.17,6.13,3.79,10.21,3.79,4.22,0,7.89-1.24,11.15-4.65,3.94-4.23,5.01-9.13,5-13.48-.01-6.4-2.07-11.15-5.48-14.41-3.27-3.26-6.95-4.07-10.76-4.06-3.67,0-7.07.97-10.06,3.83Z"/>
      <path class="cls-1" d="M323.66,164.43l13.34-.03v5.31c5.71-6.41,12.24-6.83,15.51-6.84,10.61-.03,15.12,5.27,16.89,7.72,2.18,3.12,3.55,7.07,3.58,15.91l.08,35.11-13.34.03-.08-31.84c-.04-14.56-5.48-14.96-10.51-14.94-5.99.01-12.11.84-12.07,19.35l.07,27.49-13.34.03-.14-57.29Z"/>
    </g>
    <path class="cls-1" d="M378.54,128.19c9.33,6.65,17.63,20.24,20.49,24.33,2.86,4.1-2.08,2.38-10.3-1.48s-15.41-7.96-19.43-14.76c-4.03-6.81-.09-14.74,9.24-8.09ZM402.51,180.05c.96,27.47,2.23,50.48-.8,77.94-4.92,2.55-7.41,4.53-13.57,2.41.94-27.91,5.22-64.87-4.98-91.84,6.79,1.28,11.07,5,19.35,11.5Z"/>
    <path class="cls-1" d="M444.95,136.64c-1.57-2.28-4.5-4.15-9.18.2-2.12,1.97-3.71,4.61-4.69,6.63-.82,1.69-1.49,3.53-1.46,4.64.03,1.35.85,1.44,2.27,1.26.95-.12,1.89-.79,5.16-.47,3.11.23,4.65.86,7.75,3.18,3.41,2.55,6.69,6.71,9.24,12.56,3.67,7.94,5.27,8.39,4.96,19.68-.45,16.51-1.21,35.76-7.43,51.25-8.45,13.98-20.95-16.42-23.41-20.99-5.54-10.34-10.94-21.5-14.73-32.66-2.58-7.59-3.09-12.19-2.72-17.14,5.75-.81,8.75-2.11,14.27-1.99.11,3.15.23,8.55,1.1,12.36.53,2.72,2.1,8.77,6.01,14.55,2.55,3.77,5.6,5.84,7.49,3.89,1.68-1.74,3.1-6.54,3.41-10.94.31-4.39-.13-7.78-1.41-10.73-1.62-3.73-3.82-6.71-6.2-9.51-2.15-2.58-3.23-3.7-5.44-5.34-2.91-2.16-6.57-3.32-9.29-2.97-3.72.48-5.43,2.16-5.58.25-.19-2.4,3.18-12.01,7.64-20.62,3.87-7.48,9-18.22,15.47-27.49,3.73-5.35,6.67-7.34,10.22-3.19,2.07,2.29,5.25,9.55,7.96,17.93-4.65,7.44-6.87,8.69-11.41,15.67Z"/>
    <path class="cls-1" d="M537.48,232.99c-1.76,4.4-4.84,13.34-10.54,24.76-5.24,10.5-10.95,21.92-18.03,33.64-6.9,11.41-18.69,7.92-24.66-1.41-8.63-13.5-13.84-31.03-14.82-50.02-2.26-44.09,4.8-102.72,11.3-145.81,7.05-46.79,20.3-80.71,34.78-91,8.33-5.91,10.52,41.79,13.33,59.25,3.85,51.42,2.97,46.61,1.35,94.2-4,4.56-13.5,11.82-18.71,18.44-10.94,11.02-8.77,9.64-25.91,26.58-1.75,22.72-.61,46.58,2.49,53.46,3.4,7.54,7.54,8.13,10.82,6.35,3.69-2.01,12.28-15.58,14.43-20.43,1.84-4.16,10.03-20.76,11.01-24.04,4.45,3.65,10.08,11.43,13.16,16.03ZM517.17,142.3c2-25.15,1.7-53.08,1.7-59.3,0-26.07-1.12-45.29-5.28-45.04-4.42.27-15.16,50.17-16.76,61.72-2.1,15.13-6.84,54.61-9.05,70.49,16.29-18.63,15.74-19.46,29.39-27.87Z"/>
    <path class="cls-2" d="M212.25,194.47c.72-4.69-1.54-8.94-5.07-9.48-3.52-.54-6.96,2.82-7.69,7.52-.72,4.69,1.54,8.94,5.07,9.48,3.52.54,6.96-2.82,7.69-7.52ZM206.07,192.98c-1.8-.67-2.71-2.66-2.04-4.46s2.66-2.71,4.46-2.04,2.71,2.66,2.04,4.46-2.66,2.71-4.46,2.04Z"/>
  </g>
</svg>