<?xml version="1.0" encoding="UTF-8"?>
<svg xmlns="http://www.w3.org/2000/svg" xmlns:xlink="http://www.w3.org/1999/xlink" viewBox="0 0 488.88 588.5">
  <defs>
    <style>
      .uuid-a7c5a994-e876-4fe0-988a-0e82e341cf0d {
        clip-path: url(#uuid-090c55ce-fcfa-46fb-a274-d54b5ffa5b06);
      }

      .uuid-0bdd2892-6057-41e5-a317-f6f1b06d01db {
        fill: #90ae60;
      }

      .uuid-05ac1556-8528-4a49-a547-9018dfed1ab8 {
        fill: none;
      }

      .uuid-96989c38-ecc4-4f2c-993b-5ac12427953f {
        mix-blend-mode: luminosity;
        opacity: .43;
      }

      .uuid-20b1924c-0f41-41cd-a6b4-dfc88427a12c {
        isolation: isolate;
      }

      .uuid-bea8a390-ee63-47bb-8052-96e3cc538b1f {
        clip-path: url(#uuid-44a1d18e-1984-4763-9216-9cd1c0d409a7);
      }

      .uuid-27b248b0-375c-457d-bd99-54963d17f244 {
        clip-path: url(#uuid-e5af5e2c-055d-4418-a624-9c0aa0ef8ca4);
      }

      .uuid-b8d80bed-5bc1-4a8a-bbb5-6fe31b81df3a {
        clip-path: url(#uuid-8eab9ee3-1b0f-4ae4-96fa-8850e90d3037);
      }
    </style>
    <clipPath id="uuid-e5af5e2c-055d-4418-a624-9c0aa0ef8ca4">
      <polygon class="uuid-05ac1556-8528-4a49-a547-9018dfed1ab8" points="277.31 474.55 413.85 474.55 482.12 356.31 413.85 238.06 277.31 238.06 209.05 356.31 277.31 474.55"/>
    </clipPath>
    <clipPath id="uuid-090c55ce-fcfa-46fb-a274-d54b5ffa5b06">
      <polygon class="uuid-05ac1556-8528-4a49-a547-9018dfed1ab8" points="216.8 119.82 80.26 119.82 11.99 238.06 80.26 356.31 216.8 356.31 285.07 238.06 216.8 119.82"/>
    </clipPath>
    <clipPath id="uuid-8eab9ee3-1b0f-4ae4-96fa-8850e90d3037">
      <polygon class="uuid-05ac1556-8528-4a49-a547-9018dfed1ab8" points="0 453.59 59.08 577.64 196.05 588.5 273.94 475.3 214.86 351.26 77.89 340.4 0 453.59"/>
    </clipPath>
    <clipPath id="uuid-44a1d18e-1984-4763-9216-9cd1c0d409a7">
      <polygon class="uuid-05ac1556-8528-4a49-a547-9018dfed1ab8" points="488.88 116.5 416.04 0 278.73 4.83 214.25 126.16 287.09 242.66 424.4 237.84 488.88 116.5"/>
    </clipPath>
  </defs>
  <g class="uuid-20b1924c-0f41-41cd-a6b4-dfc88427a12c">
    <g id="uuid-a3e0d072-28d1-4066-92cf-a9c40ab7ab6c" data-name="Layer 2">
      <g id="uuid-d544d68c-facf-4cd9-8b95-07ae2f452c8f" data-name="Layer 5">
        <g>
          <g class="uuid-96989c38-ecc4-4f2c-993b-5ac12427953f">
            <g class="uuid-27b248b0-375c-457d-bd99-54963d17f244">
              <path class="uuid-0bdd2892-6057-41e5-a317-f6f1b06d01db" d="M407.24,162.12h.95l.48.83,84.13,145.72-84.61,146.55h-169.22l-.48-.83-84.13-145.72.48-.83,84.13-145.72h168.26ZM488.99,308.67l-82.7-143.24h-165.4s-82.7,143.24-82.7,143.24l82.7,143.24h165.4l82.7-143.24Z"/>
              <path class="uuid-0bdd2892-6057-41e5-a317-f6f1b06d01db" d="M251.76,180.75h146.29l73.14,126.69-73.14,126.69h-146.29l-73.15-126.69.72-1.24,72.43-125.45ZM395.19,185.71h-140.57l-70.28,121.74,70.28,121.73h140.57l70.28-121.73-70.28-121.74Z"/>
              <path class="uuid-0bdd2892-6057-41e5-a317-f6f1b06d01db" d="M262.04,201.61h125.4l62.7,108.6-62.7,108.6h-125.4l-62.7-108.6,62.7-108.6ZM383.62,208.22h-117.77l-58.89,101.99,58.89,101.99h117.77s58.89-101.99,58.89-101.99l-58.89-101.99Z"/>
              <path class="uuid-0bdd2892-6057-41e5-a317-f6f1b06d01db" d="M272.53,220.24h102.11l51.05,88.43-51.05,88.43h-102.11l-51.05-88.43,51.05-88.43ZM369.87,228.5h-92.58s-46.29,80.17-46.29,80.17l46.29,80.17h92.58l46.29-80.17-46.29-80.17Z"/>
              <path class="uuid-0bdd2892-6057-41e5-a317-f6f1b06d01db" d="M281.72,240.2h79.53l39.77,68.87-39.77,68.87h-79.53l-39.76-68.87,39.76-68.87ZM355.53,250.11h-68.09l-34.04,58.97,34.04,58.97h68.09l34.04-58.97-34.04-58.97Z"/>
              <path class="uuid-0bdd2892-6057-41e5-a317-f6f1b06d01db" d="M291.81,256.81h59.86l29.93,51.84-29.93,51.84h-59.86s-29.93-51.84-29.93-51.84l29.93-51.84ZM344.99,268.37h-46.51s-23.25,40.28-23.25,40.28l23.25,40.28h46.51s23.25-40.28,23.25-40.28l-23.25-40.28Z"/>
              <path class="uuid-0bdd2892-6057-41e5-a317-f6f1b06d01db" d="M302.42,274.2h38.95l19.48,33.74-19.48,33.73h-38.95l-19.48-33.73,19.48-33.74ZM333.74,287.41h-23.7l-11.85,20.52,11.85,20.52h23.7l11.85-20.52-11.85-20.52Z"/>
              <polygon class="uuid-0bdd2892-6057-41e5-a317-f6f1b06d01db" points="328.93 294.32 336.51 307.44 328.93 320.57 313.78 320.57 306.2 307.44 313.78 294.32 328.93 294.32"/>
            </g>
          </g>
          <g class="uuid-96989c38-ecc4-4f2c-993b-5ac12427953f">
            <g class="uuid-a7c5a994-e876-4fe0-988a-0e82e341cf0d">
              <path class="uuid-0bdd2892-6057-41e5-a317-f6f1b06d01db" d="M86.87,432.25h-.95l-.48-.83L1.31,285.7l84.61-146.55h169.22l.48.83,84.13,145.72-.48.83-84.13,145.72H86.87ZM5.12,285.7l82.7,143.24h165.4s82.7-143.24,82.7-143.24l-82.7-143.24H87.82L5.12,285.7Z"/>
              <path class="uuid-0bdd2892-6057-41e5-a317-f6f1b06d01db" d="M242.35,413.62H96.06s-73.14-126.69-73.14-126.69l73.14-126.69h146.29l73.15,126.69-.72,1.24-72.43,125.45ZM98.92,408.66h140.57s70.28-121.74,70.28-121.74l-70.28-121.73H98.92l-70.28,121.73,70.28,121.74Z"/>
              <path class="uuid-0bdd2892-6057-41e5-a317-f6f1b06d01db" d="M232.08,392.76h-125.4l-62.7-108.6,62.7-108.6h125.4l62.7,108.6-62.7,108.6ZM110.49,386.15h117.77l58.89-101.99-58.89-101.99h-117.77l-58.89,101.99,58.89,101.99Z"/>
              <path class="uuid-0bdd2892-6057-41e5-a317-f6f1b06d01db" d="M221.58,374.13h-102.11l-51.05-88.43,51.05-88.43h102.11l51.05,88.43-51.05,88.43ZM124.24,365.87h92.58l46.29-80.17-46.29-80.17h-92.58l-46.29,80.17,46.29,80.17Z"/>
              <path class="uuid-0bdd2892-6057-41e5-a317-f6f1b06d01db" d="M212.39,354.17h-79.53l-39.77-68.87,39.77-68.87h79.53l39.76,68.87-39.76,68.87ZM138.59,344.26h68.09l34.04-58.97-34.04-58.97h-68.09l-34.04,58.97,34.04,58.97Z"/>
              <path class="uuid-0bdd2892-6057-41e5-a317-f6f1b06d01db" d="M202.31,337.56h-59.86l-29.93-51.84,29.93-51.84h59.86l29.93,51.84-29.93,51.84ZM149.12,326h46.51l23.25-40.28-23.25-40.28h-46.51l-23.25,40.28,23.25,40.28Z"/>
              <path class="uuid-0bdd2892-6057-41e5-a317-f6f1b06d01db" d="M191.69,320.17h-38.95l-19.48-33.74,19.48-33.73h38.95l19.48,33.73-19.48,33.74ZM160.37,306.96h23.7s11.85-20.52,11.85-20.52l-11.85-20.52h-23.7l-11.85,20.52,11.85,20.52Z"/>
              <polygon class="uuid-0bdd2892-6057-41e5-a317-f6f1b06d01db" points="165.18 300.05 157.6 286.93 165.18 273.8 180.34 273.8 187.91 286.93 180.34 300.05 165.18 300.05"/>
            </g>
          </g>
          <g class="uuid-96989c38-ecc4-4f2c-993b-5ac12427953f">
            <g class="uuid-b8d80bed-5bc1-4a8a-bbb5-6fe31b81df3a">
              <g>
                <circle class="uuid-0bdd2892-6057-41e5-a317-f6f1b06d01db" cx="166.61" cy="407.76" r="19.05"/>
                <path class="uuid-0bdd2892-6057-41e5-a317-f6f1b06d01db" d="M212.67,384.43c12.18,25.58,1.28,56.29-24.29,68.48-25.58,12.18-56.29,1.28-68.48-24.29-12.18-25.58-1.28-56.29,24.29-68.48,25.58-12.18,56.29-1.28,68.48,24.29ZM136.3,420.8c7.87,16.53,27.73,23.58,44.26,15.7,16.53-7.87,23.58-27.73,15.7-44.26-7.87-16.53-27.73-23.58-44.26-15.7-16.53,7.87-23.58,27.73-15.7,44.26Z"/>
                <path class="uuid-0bdd2892-6057-41e5-a317-f6f1b06d01db" d="M232.67,375.83c17.54,36.82,1.85,81.04-34.97,98.58-36.82,17.54-81.04,1.85-98.58-34.97-17.54-36.82-1.85-81.04,34.97-98.58,36.82-17.54,81.04-1.85,98.58,34.97ZM112.53,433.05c14.01,29.42,49.35,41.96,78.77,27.94,29.42-14.01,41.96-49.35,27.94-78.77-14.01-29.42-49.35-41.96-78.77-27.94-29.42,14.01-41.96,49.35-27.94,78.77Z"/>
                <path class="uuid-0bdd2892-6057-41e5-a317-f6f1b06d01db" d="M253.75,365.31c23.02,48.33,2.43,106.38-45.9,129.4-48.33,23.02-106.38,2.43-129.4-45.9-23.02-48.33-2.43-106.38,45.9-129.4,48.33-23.02,106.38-2.43,129.4,45.9ZM88.88,443.83c20.28,42.58,71.42,60.72,113.99,40.44,42.58-20.28,60.72-71.42,40.44-113.99-20.28-42.58-71.42-60.72-113.99-40.44-42.58,20.28-60.72,71.42-40.44,113.99Z"/>
                <path class="uuid-0bdd2892-6057-41e5-a317-f6f1b06d01db" d="M275.63,356.09c28.9,60.68,3.05,133.56-57.63,162.46-60.68,28.9-133.56,3.05-162.46-57.63-28.9-60.68-3.05-133.56,57.63-162.46,60.68-28.9,133.56-3.05,162.46,57.63ZM62.99,457.37c26.94,56.57,94.89,80.67,151.46,53.73,56.57-26.94,80.67-94.89,53.73-151.46-26.94-56.57-94.89-80.67-151.46-53.73-56.57,26.94-80.67,94.89-53.73,151.46Z"/>
                <path class="uuid-0bdd2892-6057-41e5-a317-f6f1b06d01db" d="M304.54,341.81c36.49,76.62,3.85,168.64-72.77,205.13-76.62,36.49-168.64,3.85-205.13-72.77-36.49-76.62-3.85-168.64,72.77-205.13,76.62-36.49,168.64-3.85,205.13,72.77ZM31.11,472.04c35.32,74.15,124.38,105.75,198.53,70.43,74.15-35.32,105.74-124.38,70.43-198.53-35.32-74.15-124.38-105.75-198.53-70.43C27.38,308.83-4.21,397.89,31.11,472.04Z"/>
              </g>
            </g>
          </g>
          <g class="uuid-96989c38-ecc4-4f2c-993b-5ac12427953f">
            <g class="uuid-bea8a390-ee63-47bb-8052-96e3cc538b1f">
              <g>
                <circle class="uuid-0bdd2892-6057-41e5-a317-f6f1b06d01db" cx="328.58" cy="181.03" r="19.05"/>
                <path class="uuid-0bdd2892-6057-41e5-a317-f6f1b06d01db" d="M285.48,209.46c-15.02-24.02-7.69-55.78,16.33-70.8,24.02-15.02,55.78-7.69,70.8,16.33,15.02,24.02,7.69,55.78-16.33,70.8-24.02,15.02-55.78,7.69-70.8-16.33ZM357.2,164.62c-9.71-15.53-30.24-20.26-45.77-10.55-15.53,9.71-20.26,30.24-10.55,45.77,9.71,15.53,30.24,20.26,45.77,10.55,15.53-9.71,20.26-30.24,10.55-45.77Z"/>
                <path class="uuid-0bdd2892-6057-41e5-a317-f6f1b06d01db" d="M266.59,220.28c-21.62-34.58-11.08-80.3,23.5-101.92,34.58-21.62,80.3-11.08,101.92,23.5,21.62,34.58,11.08,80.3-23.5,101.92-34.58,21.62-80.3,11.08-101.92-23.5ZM379.42,149.74c-17.28-27.63-53.81-36.06-81.44-18.78-27.63,17.28-36.06,53.81-18.78,81.44,17.28,27.63,53.81,36.06,81.44,18.78,27.63-17.28,36.06-53.81,18.78-81.44Z"/>
                <path class="uuid-0bdd2892-6057-41e5-a317-f6f1b06d01db" d="M246.85,233.14c-28.38-45.39-14.54-105.41,30.85-133.79,45.39-28.38,105.41-14.54,133.79,30.85,28.38,45.39,14.54,105.41-30.85,133.79-45.39,28.38-105.41,14.54-133.79-30.85ZM401.69,136.33c-25-39.99-77.87-52.18-117.86-27.18-39.99,25-52.18,77.87-27.18,117.86,25,39.99,77.87,52.18,117.86,27.18,39.99-25,52.18-77.87,27.18-117.86Z"/>
                <path class="uuid-0bdd2892-6057-41e5-a317-f6f1b06d01db" d="M226.16,244.79c-35.63-56.99-18.25-132.34,38.74-167.97,56.99-35.63,132.34-18.25,167.97,38.74,35.63,56.99,18.25,132.34-38.74,167.97-56.99,35.63-132.34,18.25-167.97-38.74ZM425.87,119.93c-33.22-53.13-103.47-69.33-156.59-36.11-53.13,33.22-69.33,103.47-36.11,156.6,33.22,53.13,103.47,69.33,156.6,36.11,53.13-33.22,69.33-103.47,36.11-156.6Z"/>
                <path class="uuid-0bdd2892-6057-41e5-a317-f6f1b06d01db" d="M199.07,262.27c-44.99-71.96-23.05-167.1,48.91-212.09,71.96-44.99,167.1-23.05,212.09,48.91,44.99,71.96,23.05,167.1-48.91,212.09-71.96,44.99-167.1,23.05-212.09-48.91ZM455.87,101.72c-43.54-69.64-135.62-90.88-205.26-47.34-69.64,43.54-90.88,135.62-47.33,205.26,43.54,69.64,135.62,90.88,205.26,47.34,69.64-43.54,90.88-135.62,47.34-205.26Z"/>
              </g>
            </g>
          </g>
        </g>
      </g>
    </g>
  </g>
</svg>