<?xml version="1.0" encoding="UTF-8"?>
<svg id="uuid-6e23b695-91f8-479a-9316-b3290e90571f" data-name="Layer 2" xmlns="http://www.w3.org/2000/svg" xmlns:xlink="http://www.w3.org/1999/xlink" viewBox="0 0 566.19 470.35">
  <defs>
    <style>
      .uuid-4e386e33-e057-45f2-a152-7c879828a6fc {
        clip-path: url(#uuid-97c190fc-b308-433e-81d0-2dd9b02018c9);
      }

      .uuid-4b9d9444-ce7d-4bf6-b215-688ad48289dd {
        clip-path: url(#uuid-6101e404-5824-4ad2-96ce-e965c2edc257);
      }

      .uuid-ce494e0a-ba2d-4cfc-910e-9f6fb2db7356 {
        fill: none;
      }

      .uuid-79cf007c-78e9-40da-a43a-a28b447d60cb {
        clip-path: url(#uuid-808c6bca-6da8-458f-bd89-8799cecb9542);
      }

      .uuid-9687c8ae-4ed9-4d33-a0b5-48765c2cf3d3 {
        clip-path: url(#uuid-50ee0c29-17bb-455d-af8a-85b95a953e7b);
      }

      .uuid-3151f9a3-156a-4000-ba09-1a2e074af7ec {
        fill: #831c1b;
      }
    </style>
    <clipPath id="uuid-97c190fc-b308-433e-81d0-2dd9b02018c9">
      <polygon class="uuid-ce494e0a-ba2d-4cfc-910e-9f6fb2db7356" points="109.62 266.8 109.62 398.16 223.39 463.84 337.15 398.16 337.15 266.8 223.39 201.12 109.62 266.8"/>
    </clipPath>
    <clipPath id="uuid-6101e404-5824-4ad2-96ce-e965c2edc257">
      <polygon class="uuid-ce494e0a-ba2d-4cfc-910e-9f6fb2db7356" points="450.91 208.58 450.91 77.22 337.15 11.54 223.39 77.22 223.39 208.58 337.15 274.26 450.91 208.58"/>
    </clipPath>
    <clipPath id="uuid-50ee0c29-17bb-455d-af8a-85b95a953e7b">
      <polygon class="uuid-ce494e0a-ba2d-4cfc-910e-9f6fb2db7356" points="129.79 0 10.44 56.84 0 188.62 108.9 263.55 228.24 206.71 238.69 74.93 129.79 0"/>
    </clipPath>
    <clipPath id="uuid-808c6bca-6da8-458f-bd89-8799cecb9542">
      <polygon class="uuid-ce494e0a-ba2d-4cfc-910e-9f6fb2db7356" points="454.1 470.35 566.19 400.27 561.54 268.16 444.81 206.13 332.72 276.21 337.37 408.32 454.1 470.35"/>
    </clipPath>
  </defs>
  <g id="uuid-bd4087a9-027b-4e23-94e3-4d0102bf1e4d" data-name="Layer 5">
    <g>
      <g class="uuid-4e386e33-e057-45f2-a152-7c879828a6fc">
        <path class="uuid-3151f9a3-156a-4000-ba09-1a2e074af7ec" d="M410.21,391.8v.92l-.79.46-140.2,80.94-140.99-81.4v-162.8l.79-.46,140.2-80.94.79.46,140.2,80.94v161.88ZM269.22,470.45l137.81-79.57v-159.13s-137.81-79.57-137.81-79.57l-137.81,79.57v159.13l137.81,79.57Z"/>
        <path class="uuid-3151f9a3-156a-4000-ba09-1a2e074af7ec" d="M392.29,242.22v140.74l-121.89,70.37-121.89-70.37v-140.74l121.89-70.37,1.19.69,120.7,69.68ZM387.52,380.21v-135.24l-117.12-67.62-117.12,67.62v135.24l117.12,67.62,117.12-67.62Z"/>
        <path class="uuid-3151f9a3-156a-4000-ba09-1a2e074af7ec" d="M372.22,252.1v120.64l-104.48,60.32-104.48-60.32v-120.64s104.48-60.32,104.48-60.32l104.48,60.32ZM365.86,369.08v-113.31l-98.13-56.65-98.13,56.65v113.31l98.13,56.65,98.13-56.65Z"/>
        <path class="uuid-3151f9a3-156a-4000-ba09-1a2e074af7ec" d="M354.3,262.2v98.24l-85.08,49.12-85.08-49.12v-98.24l85.08-49.12,85.08,49.12ZM346.35,355.85v-89.07l-77.13-44.53-77.13,44.53v89.07l77.13,44.53,77.13-44.53Z"/>
        <path class="uuid-3151f9a3-156a-4000-ba09-1a2e074af7ec" d="M335.09,271.04v76.51l-66.26,38.26-66.26-38.26v-76.51l66.26-38.26,66.26,38.26ZM325.56,342.05v-65.51l-56.73-32.75-56.73,32.75v65.51l56.73,32.75,56.73-32.75Z"/>
        <path class="uuid-3151f9a3-156a-4000-ba09-1a2e074af7ec" d="M319.12,280.74v57.59l-49.87,28.79-49.87-28.79v-57.59l49.87-28.79,49.87,28.79ZM307.99,331.91v-44.75l-38.75-22.37-38.75,22.37v44.75l38.75,22.37,38.75-22.37Z"/>
        <path class="uuid-3151f9a3-156a-4000-ba09-1a2e074af7ec" d="M302.38,290.95v37.48l-32.46,18.74-32.46-18.74v-37.48l32.46-18.74,32.46,18.74ZM289.67,321.09v-22.8l-19.75-11.4-19.75,11.4v22.8l19.75,11.4,19.75-11.4Z"/>
        <polygon class="uuid-3151f9a3-156a-4000-ba09-1a2e074af7ec" points="283.03 316.46 270.4 323.75 257.77 316.46 257.77 301.88 270.4 294.59 283.03 301.88 283.03 316.46"/>
      </g>
      <g class="uuid-4b9d9444-ce7d-4bf6-b215-688ad48289dd">
        <path class="uuid-3151f9a3-156a-4000-ba09-1a2e074af7ec" d="M150.32,83.58v-.92l.79-.46L291.31,1.26l140.99,81.4v162.8l-.79.46-140.2,80.94-.79-.46-140.2-80.94V83.58ZM291.31,4.93l-137.81,79.57v159.13s137.81,79.57,137.81,79.57l137.81-79.57V84.49L291.31,4.93Z"/>
        <path class="uuid-3151f9a3-156a-4000-ba09-1a2e074af7ec" d="M168.25,233.16V92.42l121.89-70.37,121.89,70.37v140.74l-121.89,70.37-1.19-.69-120.7-69.68ZM173.01,95.17v135.24l117.12,67.62,117.12-67.62V95.17l-117.12-67.62-117.12,67.62Z"/>
        <path class="uuid-3151f9a3-156a-4000-ba09-1a2e074af7ec" d="M188.32,223.28v-120.64l104.48-60.32,104.48,60.32v120.64l-104.48,60.32-104.48-60.32ZM194.67,106.3v113.31l98.13,56.65,98.13-56.65v-113.31l-98.13-56.65-98.13,56.65Z"/>
        <path class="uuid-3151f9a3-156a-4000-ba09-1a2e074af7ec" d="M206.24,213.18v-98.24l85.08-49.12,85.08,49.12v98.24l-85.08,49.12-85.08-49.12ZM214.18,119.53v89.07l77.13,44.53,77.13-44.53v-89.07l-77.13-44.53-77.13,44.53Z"/>
        <path class="uuid-3151f9a3-156a-4000-ba09-1a2e074af7ec" d="M225.45,204.34v-76.51l66.26-38.26,66.26,38.26v76.51l-66.26,38.26-66.26-38.26ZM234.98,133.33v65.51l56.73,32.75,56.73-32.75v-65.51l-56.73-32.75-56.73,32.75Z"/>
        <path class="uuid-3151f9a3-156a-4000-ba09-1a2e074af7ec" d="M241.42,194.64v-57.59l49.87-28.79,49.87,28.79v57.59l-49.87,28.79-49.87-28.79ZM252.54,143.47v44.75l38.75,22.37,38.75-22.37v-44.75l-38.75-22.37-38.75,22.37Z"/>
        <path class="uuid-3151f9a3-156a-4000-ba09-1a2e074af7ec" d="M258.15,184.43v-37.48l32.46-18.74,32.46,18.74v37.48l-32.46,18.74-32.46-18.74ZM270.86,154.29v22.8l19.75,11.4,19.75-11.4v-22.8l-19.75-11.4-19.75,11.4Z"/>
        <polygon class="uuid-3151f9a3-156a-4000-ba09-1a2e074af7ec" points="277.51 158.92 290.13 151.63 302.76 158.92 302.76 173.5 290.13 180.79 277.51 173.5 277.51 158.92"/>
      </g>
      <g class="uuid-9687c8ae-4ed9-4d33-a0b5-48765c2cf3d3">
        <g>
          <circle class="uuid-3151f9a3-156a-4000-ba09-1a2e074af7ec" cx="173.88" cy="160.29" r="18.32"/>
          <path class="uuid-3151f9a3-156a-4000-ba09-1a2e074af7ec" d="M196.33,204.61c-24.61,11.72-54.16,1.24-65.88-23.37-11.72-24.61-1.24-54.16,23.37-65.88,24.61-11.72,54.16-1.24,65.88,23.37,11.72,24.61,1.24,54.16-23.37,65.88ZM161.34,131.14c-15.91,7.58-22.68,26.68-15.11,42.59,7.58,15.91,26.68,22.68,42.59,15.11,15.91-7.58,22.68-26.68,15.11-42.59-7.58-15.91-26.68-22.68-42.59-15.11Z"/>
          <path class="uuid-3151f9a3-156a-4000-ba09-1a2e074af7ec" d="M204.6,223.85c-35.42,16.87-77.97,1.78-94.84-33.65-16.87-35.42-1.78-77.97,33.65-94.84,35.42-16.87,77.97-1.78,94.84,33.65,16.87,35.42,1.78,77.97-33.65,94.84ZM149.55,108.27c-28.31,13.48-40.37,47.48-26.88,75.78,13.48,28.31,47.48,40.37,75.78,26.88,28.31-13.48,40.37-47.48,26.88-75.78-13.48-28.31-47.48-40.37-75.78-26.88Z"/>
          <path class="uuid-3151f9a3-156a-4000-ba09-1a2e074af7ec" d="M214.73,244.13c-46.5,22.15-102.35,2.34-124.49-44.16-22.15-46.5-2.33-102.35,44.16-124.49,46.5-22.15,102.35-2.34,124.5,44.16,22.15,46.5,2.34,102.35-44.16,124.5ZM139.18,85.51c-40.96,19.51-58.42,68.71-38.91,109.67,19.51,40.96,68.71,58.42,109.67,38.91,40.96-19.51,58.42-68.71,38.91-109.67-19.51-40.96-68.71-58.41-109.67-38.9Z"/>
          <path class="uuid-3151f9a3-156a-4000-ba09-1a2e074af7ec" d="M223.59,265.18c-58.38,27.81-128.5,2.93-156.3-55.45-27.81-58.38-2.93-128.5,55.45-156.3,58.38-27.81,128.5-2.93,156.3,55.45,27.81,58.38,2.93,128.5-55.45,156.3ZM126.15,60.6c-54.43,25.92-77.61,91.29-51.69,145.72,25.92,54.43,91.29,77.61,145.72,51.69,54.43-25.92,77.61-91.29,51.69-145.72S180.58,34.68,126.15,60.6Z"/>
          <path class="uuid-3151f9a3-156a-4000-ba09-1a2e074af7ec" d="M237.33,292.99c-73.71,35.11-162.25,3.7-197.36-70.01S36.28,60.73,109.99,25.62c73.71-35.11,162.25-3.7,197.36,70.01,35.11,73.71,3.7,162.25-70.01,197.36ZM112.04,29.93C40.7,63.91,10.3,149.59,44.28,220.93c33.98,71.34,119.66,101.74,191,67.76,71.34-33.98,101.74-119.66,67.76-191C269.06,26.34,183.38-4.05,112.04,29.93Z"/>
        </g>
      </g>
      <g class="uuid-79cf007c-78e9-40da-a43a-a28b447d60cb">
        <g>
          <circle class="uuid-3151f9a3-156a-4000-ba09-1a2e074af7ec" cx="392.02" cy="316.12" r="18.32"/>
          <path class="uuid-3151f9a3-156a-4000-ba09-1a2e074af7ec" d="M364.67,274.66c23.11-14.45,53.67-7.4,68.12,15.71,14.45,23.11,7.4,53.67-15.71,68.12-23.11,14.45-53.67,7.4-68.11-15.71-14.45-23.11-7.4-53.67,15.71-68.11ZM407.81,343.66c14.94-9.34,19.49-29.09,10.15-44.03s-29.09-19.49-44.03-10.15c-14.94,9.34-19.49,29.09-10.15,44.03,9.34,14.94,29.09,19.49,44.03,10.15Z"/>
          <path class="uuid-3151f9a3-156a-4000-ba09-1a2e074af7ec" d="M354.26,256.49c33.27-20.8,77.26-10.66,98.06,22.61,20.8,33.27,10.66,77.26-22.61,98.06-33.27,20.8-77.26,10.66-98.06-22.61-20.8-33.27-10.66-77.26,22.61-98.06ZM422.12,365.04c26.58-16.62,34.69-51.77,18.07-78.36-16.62-26.58-51.77-34.69-78.36-18.07-26.58,16.62-34.69,51.77-18.07,78.36,16.62,26.58,51.77,34.69,78.35,18.07Z"/>
          <path class="uuid-3151f9a3-156a-4000-ba09-1a2e074af7ec" d="M341.88,237.49c43.67-27.3,101.41-13.99,128.72,29.68s13.99,101.41-29.68,128.72c-43.67,27.3-101.41,13.99-128.72-29.68-27.3-43.67-13.99-101.41,29.68-128.72ZM435.02,386.46c38.47-24.05,50.2-74.92,26.15-113.39-24.05-38.47-74.92-50.2-113.39-26.15-38.47,24.05-50.2,74.92-26.15,113.39,24.05,38.47,74.92,50.2,113.39,26.15Z"/>
          <path class="uuid-3151f9a3-156a-4000-ba09-1a2e074af7ec" d="M330.68,217.59c54.83-34.28,127.33-17.56,161.61,37.27,34.28,54.83,17.56,127.33-37.27,161.61-54.83,34.28-127.33,17.56-161.61-37.27-34.28-54.83-17.56-127.33,37.27-161.61ZM450.81,409.73c51.12-31.96,66.7-99.54,34.74-150.66-31.96-51.12-99.54-66.7-150.66-34.74-51.12,31.96-66.7,99.54-34.74,150.66,31.96,51.12,99.54,66.7,150.66,34.74Z"/>
          <path class="uuid-3151f9a3-156a-4000-ba09-1a2e074af7ec" d="M313.85,191.53c69.23-43.28,160.77-22.18,204.05,47.06,43.28,69.23,22.17,160.77-47.06,204.05-69.23,43.28-160.77,22.17-204.05-47.06-43.28-69.23-22.17-160.77,47.06-204.05ZM468.32,438.59c67-41.89,87.43-130.48,45.54-197.48-41.89-67-130.48-87.43-197.48-45.54-67,41.89-87.43,130.48-45.54,197.48,41.89,67,130.48,87.43,197.48,45.54Z"/>
        </g>
      </g>
    </g>
  </g>
</svg>