<?xml version="1.0" encoding="UTF-8"?>
<svg id="uuid-d0ddd03a-c215-42ab-be15-efc427b6c990" data-name="Layer 2" xmlns="http://www.w3.org/2000/svg" xmlns:xlink="http://www.w3.org/1999/xlink" viewBox="0 0 512.94 617.46">
  <defs>
    <style>
      .uuid-fd038c40-7fc5-4f93-954b-16a7ff9ab4e2 {
        clip-path: url(#uuid-0cd71e51-81a5-4208-9862-3b97045199e8);
      }

      .uuid-ed62e5e9-1446-4ede-94e7-e74b4f6fc854 {
        fill: none;
      }

      .uuid-0769ee70-6616-471a-9eb9-43bd0cc1238c {
        clip-path: url(#uuid-7ea49e5e-ca83-4062-ae1c-5c3c4eb49ce3);
      }

      .uuid-b60302af-af26-40c0-bfa7-b3970d1beb1f {
        clip-path: url(#uuid-997ef0c3-33b5-455b-a31d-b8639e5adc9f);
      }

      .uuid-a159d799-f1f7-4594-ace6-0eb2663956f0 {
        clip-path: url(#uuid-f4726a9d-5631-4fe0-a6d7-5226c03918eb);
      }

      .uuid-23883a2d-7f46-4dbb-8efa-0a0110f046e2 {
        fill: #986c29;
      }
    </style>
    <clipPath id="uuid-997ef0c3-33b5-455b-a31d-b8639e5adc9f">
      <polygon class="uuid-ed62e5e9-1446-4ede-94e7-e74b4f6fc854" points="290.96 497.91 434.22 497.91 505.85 373.85 434.22 249.78 290.96 249.78 219.34 373.85 290.96 497.91"/>
    </clipPath>
    <clipPath id="uuid-f4726a9d-5631-4fe0-a6d7-5226c03918eb">
      <polygon class="uuid-ed62e5e9-1446-4ede-94e7-e74b4f6fc854" points="227.47 125.72 84.21 125.72 12.58 249.78 84.21 373.85 227.47 373.85 299.1 249.78 227.47 125.72"/>
    </clipPath>
    <clipPath id="uuid-7ea49e5e-ca83-4062-ae1c-5c3c4eb49ce3">
      <polygon class="uuid-ed62e5e9-1446-4ede-94e7-e74b4f6fc854" points="0 475.92 61.99 606.07 205.7 617.46 287.42 498.7 225.43 368.55 81.72 357.16 0 475.92"/>
    </clipPath>
    <clipPath id="uuid-0cd71e51-81a5-4208-9862-3b97045199e8">
      <polygon class="uuid-ed62e5e9-1446-4ede-94e7-e74b4f6fc854" points="512.94 122.24 436.52 0 292.45 5.07 224.8 132.37 301.22 254.61 445.29 249.54 512.94 122.24"/>
    </clipPath>
  </defs>
  <g id="uuid-b9fcf37e-f573-4a88-9e1d-8fc776a1c7e5" data-name="Layer 5">
    <g>
      <g class="uuid-b60302af-af26-40c0-bfa7-b3970d1beb1f">
        <path class="uuid-23883a2d-7f46-4dbb-8efa-0a0110f046e2" d="M427.29,170.1h1l.5.87,88.27,152.89-88.77,153.76h-177.55l-.5-.87-88.27-152.89.5-.87,88.27-152.89h176.55ZM513.06,323.86l-86.77-150.3h-173.55s-86.77,150.3-86.77,150.3l86.77,150.3h173.55l86.77-150.3Z"/>
        <path class="uuid-23883a2d-7f46-4dbb-8efa-0a0110f046e2" d="M264.15,189.65h153.49l76.74,132.93-76.74,132.92h-153.49l-76.75-132.92.75-1.3,75.99-131.63ZM414.64,194.85h-147.49l-73.74,127.73,73.74,127.73h147.49l73.74-127.73-73.74-127.73Z"/>
        <path class="uuid-23883a2d-7f46-4dbb-8efa-0a0110f046e2" d="M274.94,211.53h131.57l65.79,113.94-65.79,113.94h-131.57s-65.79-113.94-65.79-113.94l65.79-113.94ZM402.5,218.46h-123.57l-61.78,107.01,61.78,107.01h123.57s61.78-107.01,61.78-107.01l-61.78-107.01Z"/>
        <path class="uuid-23883a2d-7f46-4dbb-8efa-0a0110f046e2" d="M285.95,231.08h107.14l53.57,92.78-53.57,92.78h-107.14l-53.57-92.78,53.57-92.78ZM388.08,239.74h-97.13l-48.57,84.12,48.57,84.12h97.13l48.57-84.12-48.57-84.12Z"/>
        <path class="uuid-23883a2d-7f46-4dbb-8efa-0a0110f046e2" d="M295.58,252.03h83.44l41.72,72.27-41.72,72.27h-83.44l-41.72-72.27,41.72-72.27ZM373.03,262.42h-71.44l-35.72,61.87,35.72,61.87h71.44l35.72-61.87-35.72-61.87Z"/>
        <path class="uuid-23883a2d-7f46-4dbb-8efa-0a0110f046e2" d="M306.17,269.45h62.8l31.4,54.39-31.4,54.39h-62.8s-31.4-54.39-31.4-54.39l31.4-54.39ZM361.97,281.58h-48.8s-24.4,42.26-24.4,42.26l24.4,42.26h48.8s24.4-42.26,24.4-42.26l-24.4-42.26Z"/>
        <path class="uuid-23883a2d-7f46-4dbb-8efa-0a0110f046e2" d="M317.31,287.69h40.87l20.44,35.4-20.44,35.39h-40.87l-20.44-35.39,20.44-35.4ZM350.17,301.56h-24.86l-12.43,21.54,12.43,21.53h24.86l12.43-21.53-12.43-21.54Z"/>
        <polygon class="uuid-23883a2d-7f46-4dbb-8efa-0a0110f046e2" points="345.12 308.8 353.07 322.57 345.12 336.34 329.22 336.34 321.27 322.57 329.22 308.8 345.12 308.8"/>
      </g>
      <g class="uuid-a159d799-f1f7-4594-ace6-0eb2663956f0">
        <path class="uuid-23883a2d-7f46-4dbb-8efa-0a0110f046e2" d="M91.15,453.53h-1l-.5-.87L1.37,299.77l88.77-153.76h177.55l.5.87,88.27,152.89-.5.87-88.27,152.89H91.15ZM5.37,299.77l86.77,150.3h173.55s86.77-150.3,86.77-150.3l-86.77-150.3H92.15L5.37,299.77Z"/>
        <path class="uuid-23883a2d-7f46-4dbb-8efa-0a0110f046e2" d="M254.28,433.98H100.79L24.04,301.05l76.74-132.92h153.49l76.75,132.92-.75,1.3-75.99,131.63ZM103.79,428.78h147.49s73.74-127.73,73.74-127.73l-73.74-127.73H103.79l-73.74,127.73,73.74,127.73Z"/>
        <path class="uuid-23883a2d-7f46-4dbb-8efa-0a0110f046e2" d="M243.5,412.09H111.93l-65.79-113.94,65.79-113.94h131.57l65.79,113.94-65.79,113.94ZM115.93,405.16h123.57l61.78-107.01-61.78-107.01h-123.57l-61.78,107.01,61.78,107.01Z"/>
        <path class="uuid-23883a2d-7f46-4dbb-8efa-0a0110f046e2" d="M232.49,392.55h-107.14l-53.57-92.78,53.57-92.78h107.14l53.57,92.78-53.57,92.78ZM130.35,383.88h97.13l48.57-84.12-48.57-84.12h-97.13l-48.57,84.12,48.57,84.12Z"/>
        <path class="uuid-23883a2d-7f46-4dbb-8efa-0a0110f046e2" d="M222.85,371.6h-83.44l-41.72-72.27,41.72-72.27h83.44s41.72,72.27,41.72,72.27l-41.72,72.27ZM145.41,361.2h71.44l35.72-61.87-35.72-61.87h-71.44l-35.72,61.87,35.72,61.87Z"/>
        <path class="uuid-23883a2d-7f46-4dbb-8efa-0a0110f046e2" d="M212.26,354.18h-62.8l-31.4-54.39,31.4-54.39h62.8l31.4,54.39-31.4,54.39ZM156.46,342.05h48.8l24.4-42.26-24.4-42.26h-48.8l-24.4,42.26,24.4,42.26Z"/>
        <path class="uuid-23883a2d-7f46-4dbb-8efa-0a0110f046e2" d="M201.13,335.93h-40.87l-20.44-35.4,20.44-35.39h40.87l20.44,35.39-20.44,35.4ZM168.26,322.07h24.86l12.43-21.54-12.43-21.53h-24.86l-12.43,21.53,12.43,21.54Z"/>
        <polygon class="uuid-23883a2d-7f46-4dbb-8efa-0a0110f046e2" points="173.31 314.82 165.36 301.05 173.31 287.28 189.21 287.28 197.16 301.05 189.21 314.82 173.31 314.82"/>
      </g>
      <g class="uuid-0769ee70-6616-471a-9eb9-43bd0cc1238c">
        <g>
          <circle class="uuid-23883a2d-7f46-4dbb-8efa-0a0110f046e2" cx="174.81" cy="427.83" r="19.98"/>
          <path class="uuid-23883a2d-7f46-4dbb-8efa-0a0110f046e2" d="M223.14,403.35c12.78,26.84,1.35,59.07-25.49,71.85-26.84,12.78-59.07,1.35-71.85-25.49-12.78-26.83-1.35-59.06,25.49-71.85,26.84-12.78,59.07-1.35,71.85,25.49ZM143.01,441.52c8.26,17.35,29.1,24.74,46.44,16.48,17.35-8.26,24.74-29.1,16.48-46.44-8.26-17.35-29.1-24.74-46.44-16.47-17.35,8.26-24.74,29.1-16.48,46.44Z"/>
          <path class="uuid-23883a2d-7f46-4dbb-8efa-0a0110f046e2" d="M244.12,394.33c18.4,38.63,1.94,85.03-36.69,103.43-38.63,18.4-85.03,1.94-103.43-36.69-18.4-38.63-1.94-85.03,36.69-103.43,38.63-18.4,85.03-1.94,103.43,36.69ZM118.07,454.37c14.7,30.87,51.78,44.02,82.65,29.32,30.87-14.7,44.02-51.78,29.32-82.65-14.7-30.87-51.78-44.02-82.65-29.32-30.87,14.7-44.02,51.78-29.32,82.65Z"/>
          <path class="uuid-23883a2d-7f46-4dbb-8efa-0a0110f046e2" d="M266.24,383.29c24.15,50.71,2.55,111.62-48.16,135.77-50.71,24.15-111.62,2.55-135.77-48.16-24.15-50.71-2.55-111.62,48.16-135.77,50.71-24.15,111.62-2.55,135.77,48.16ZM93.26,465.68c21.28,44.67,74.93,63.71,119.6,42.43,44.67-21.28,63.71-74.93,42.43-119.6-21.28-44.67-74.93-63.71-119.6-42.43-44.67,21.28-63.71,74.93-42.43,119.6Z"/>
          <path class="uuid-23883a2d-7f46-4dbb-8efa-0a0110f046e2" d="M289.2,373.62c30.32,63.67,3.2,140.13-60.47,170.46-63.67,30.32-140.13,3.2-170.46-60.47-30.32-63.67-3.2-140.14,60.47-170.46,63.67-30.32,140.14-3.2,170.46,60.47ZM66.09,479.89c28.27,59.35,99.56,84.64,158.91,56.37,59.35-28.27,84.64-99.56,56.37-158.91-28.27-59.35-99.56-84.64-158.91-56.37-59.35,28.27-84.64,99.56-56.37,158.91Z"/>
          <path class="uuid-23883a2d-7f46-4dbb-8efa-0a0110f046e2" d="M319.53,358.63c38.29,80.39,4.04,176.94-76.35,215.23s-176.94,4.04-215.23-76.35c-38.29-80.39-4.04-176.94,76.35-215.23,80.39-38.29,176.94-4.04,215.23,76.35ZM32.64,495.28c37.06,77.8,130.5,110.95,208.3,73.89,77.8-37.06,110.95-130.5,73.89-208.3-37.06-77.8-130.5-110.95-208.3-73.89C28.73,324.03-4.42,417.48,32.64,495.28Z"/>
        </g>
      </g>
      <g class="uuid-fd038c40-7fc5-4f93-954b-16a7ff9ab4e2">
        <g>
          <circle class="uuid-23883a2d-7f46-4dbb-8efa-0a0110f046e2" cx="344.75" cy="189.94" r="19.98"/>
          <path class="uuid-23883a2d-7f46-4dbb-8efa-0a0110f046e2" d="M299.53,219.77c-15.76-25.2-8.07-58.53,17.13-74.28s58.53-8.07,74.28,17.13c15.76,25.2,8.07,58.53-17.13,74.28-25.2,15.76-58.53,8.07-74.28-17.13ZM374.79,172.72c-10.19-16.29-31.73-21.26-48.02-11.07-16.29,10.19-21.26,31.73-11.07,48.02,10.19,16.29,31.73,21.26,48.02,11.07,16.29-10.19,21.26-31.73,11.07-48.02Z"/>
          <path class="uuid-23883a2d-7f46-4dbb-8efa-0a0110f046e2" d="M279.72,231.12c-22.68-36.28-11.62-84.26,24.66-106.94,36.28-22.68,84.26-11.62,106.94,24.66,22.68,36.28,11.62,84.26-24.66,106.94-36.28,22.68-84.26,11.62-106.94-24.66ZM398.1,157.11c-18.13-28.99-56.46-37.83-85.45-19.71-28.99,18.13-37.83,56.46-19.71,85.45,18.13,28.99,56.46,37.83,85.45,19.71,28.99-18.13,37.83-56.46,19.71-85.45Z"/>
          <path class="uuid-23883a2d-7f46-4dbb-8efa-0a0110f046e2" d="M259,244.62c-29.78-47.63-15.25-110.6,32.37-140.38,47.63-29.78,110.6-15.25,140.37,32.37,29.78,47.63,15.26,110.6-32.37,140.38-47.63,29.78-110.6,15.25-140.38-32.37ZM421.46,143.04c-26.23-41.96-81.71-54.75-123.66-28.52-41.96,26.23-54.75,81.71-28.52,123.66,26.23,41.96,81.71,54.75,123.66,28.52,41.96-26.23,54.75-81.71,28.52-123.66Z"/>
          <path class="uuid-23883a2d-7f46-4dbb-8efa-0a0110f046e2" d="M237.29,256.84c-37.38-59.79-19.15-138.86,40.64-176.24,59.79-37.38,138.86-19.15,176.24,40.64,37.39,59.8,19.15,138.86-40.64,176.24-59.8,37.39-138.86,19.15-176.24-40.64ZM446.83,125.83c-34.85-55.74-108.56-72.74-164.3-37.89-55.74,34.85-72.74,108.56-37.89,164.3,34.85,55.74,108.56,72.74,164.3,37.89,55.74-34.85,72.74-108.56,37.89-164.3Z"/>
          <path class="uuid-23883a2d-7f46-4dbb-8efa-0a0110f046e2" d="M208.87,275.18c-47.2-75.5-24.18-175.33,51.32-222.53,75.5-47.2,175.33-24.18,222.53,51.32,47.2,75.5,24.18,175.33-51.32,222.53-75.5,47.2-175.33,24.18-222.53-51.32ZM478.31,106.73c-45.68-73.07-142.3-95.35-215.37-49.67-73.07,45.68-95.35,142.3-49.66,215.37,45.68,73.07,142.3,95.35,215.37,49.67,73.07-45.68,95.35-142.3,49.67-215.37Z"/>
        </g>
      </g>
    </g>
  </g>
</svg>