<?xml version="1.0" encoding="UTF-8"?>
<svg id="uuid-e78f17b4-d0f5-49bb-a10f-38c2d3c2e664" data-name="Layer 2" xmlns="http://www.w3.org/2000/svg" xmlns:xlink="http://www.w3.org/1999/xlink" viewBox="0 0 466.85 586.23">
  <defs>
    <style>
      .uuid-44911534-6482-4380-af69-8cfb824ea219 {
        fill: #512c7f;
      }

      .uuid-b8b60860-a37d-47b9-8baf-c9ca20ceb03b {
        clip-path: url(#uuid-8d203996-6e58-42ac-abcc-42a3d315b631);
      }

      .uuid-ceedad33-08c0-450c-8be5-0d8c60d7abf9 {
        clip-path: url(#uuid-39cad822-f701-4bce-bc11-7cc295308f1a);
      }

      .uuid-636af4ae-32b5-403b-9817-c640e5d3880b {
        fill: none;
      }

      .uuid-e147f067-9563-42e7-8838-d1612210aaf9 {
        clip-path: url(#uuid-bb157d4a-4c74-4646-aa23-da5672574384);
      }

      .uuid-de7ffd0a-7053-462b-bd6f-33aa241f9650 {
        clip-path: url(#uuid-dd952182-f199-464d-8a2b-881a8045ec70);
      }
    </style>
    <clipPath id="uuid-bb157d4a-4c74-4646-aa23-da5672574384">
      <polygon class="uuid-636af4ae-32b5-403b-9817-c640e5d3880b" points="64.35 235.89 0 353.08 69.31 467.41 202.98 464.54 267.33 347.35 198.02 233.03 64.35 235.89"/>
    </clipPath>
    <clipPath id="uuid-8d203996-6e58-42ac-abcc-42a3d315b631">
      <polygon class="uuid-636af4ae-32b5-403b-9817-c640e5d3880b" points="397.34 351.14 461.69 233.95 392.38 119.63 258.71 122.49 194.36 239.68 263.67 354.01 397.34 351.14"/>
    </clipPath>
    <clipPath id="uuid-39cad822-f701-4bce-bc11-7cc295308f1a">
      <polygon class="uuid-636af4ae-32b5-403b-9817-c640e5d3880b" points="213.04 7.75 78.73 0 4.85 112.44 65.3 232.64 199.61 240.39 273.48 127.95 213.04 7.75"/>
    </clipPath>
    <clipPath id="uuid-dd952182-f199-464d-8a2b-881a8045ec70">
      <polygon class="uuid-636af4ae-32b5-403b-9817-c640e5d3880b" points="271.95 586.23 406.27 578.62 466.85 458.49 393.1 345.96 258.77 353.57 198.2 473.71 271.95 586.23"/>
    </clipPath>
  </defs>
  <g id="uuid-bd032128-4ad6-4cea-a1e1-2c232efb38eb" data-name="Layer 5">
    <g>
      <g class="uuid-e147f067-9563-42e7-8838-d1612210aaf9">
        <path class="uuid-44911534-6482-4380-af69-8cfb824ea219" d="M271.27,494.66l-.45.82-.93.02-164.72,3.53L19.26,357.34l79.75-145.24.93-.02,164.72-3.53.48.8,85.42,140.89-79.3,144.42ZM106.96,495.76l161.92-3.47,77.95-141.97-83.97-138.49-161.92,3.47L23,357.26l83.97,138.49Z"/>
        <path class="uuid-44911534-6482-4380-af69-8cfb824ea219" d="M328.56,352.43l-68.95,125.56-143.21,3.07-74.26-122.49,68.95-125.56,143.21-3.07.73,1.2,73.54,121.29ZM256.71,473.2l66.25-120.65-71.36-117.7-137.61,2.95-66.25,120.65,71.36,117.7,137.61-2.95Z"/>
        <path class="uuid-44911534-6482-4380-af69-8cfb824ea219" d="M305.82,351.42l-59.1,107.63-122.76,2.63-63.66-105,59.1-107.63,122.76-2.63,63.66,105ZM242.84,452.66l55.51-101.08-59.79-98.61-115.29,2.47-55.51,101.08,59.79,98.61,115.29-2.47Z"/>
        <path class="uuid-44911534-6482-4380-af69-8cfb824ea219" d="M284.88,351.65l-48.12,87.64-99.96,2.14-51.84-85.5,48.12-87.64,99.96-2.14,51.84,85.5ZM231.92,431.3l43.63-79.46-47-77.51-90.63,1.94-43.63,79.46,47,77.51,90.63-1.94Z"/>
        <path class="uuid-44911534-6482-4380-af69-8cfb824ea219" d="M263.42,350.12l-37.48,68.26-77.86,1.67-40.37-66.59,37.48-68.26,77.86-1.67,40.37,66.59ZM220.12,408.8l32.09-58.44-34.57-57.01-66.66,1.43-32.09,58.44,34.57,57.01,66.66-1.43Z"/>
        <path class="uuid-44911534-6482-4380-af69-8cfb824ea219" d="M244.41,350.96l-28.21,51.37-58.6,1.26-30.39-50.12,28.21-51.37,58.6-1.26,30.39,50.12ZM209.42,391.15l21.92-39.92-23.61-38.94-45.53.98-21.92,39.92,23.61,38.94,45.53-.98Z"/>
        <path class="uuid-44911534-6482-4380-af69-8cfb824ea219" d="M224.48,351.87l-18.36,33.43-38.13.82-19.77-32.62,18.36-33.43,38.13-.82,19.78,32.62ZM198.38,372.53l11.17-20.34-12.03-19.84-23.2.5-11.17,20.34,12.03,19.84,23.2-.5Z"/>
        <polygon class="uuid-44911534-6482-4380-af69-8cfb824ea219" points="194.72 365.14 179.88 365.46 172.19 352.77 179.33 339.76 194.17 339.44 201.86 352.13 194.72 365.14"/>
      </g>
      <g class="uuid-b8b60860-a37d-47b9-8baf-c9ca20ceb03b">
        <path class="uuid-44911534-6482-4380-af69-8cfb824ea219" d="M190.42,92.37l.45-.82.93-.02,164.72-3.53,85.9,141.69-79.75,145.24-.93.02-164.72,3.53-.48-.8-85.42-140.89,79.3-144.42ZM354.73,91.28l-161.92,3.47-77.95,141.97,83.97,138.49,161.92-3.47,77.96-141.97-83.97-138.49Z"/>
        <path class="uuid-44911534-6482-4380-af69-8cfb824ea219" d="M133.13,234.6l68.95-125.56,143.21-3.07,74.26,122.49-68.95,125.56-143.21,3.07-.73-1.2-73.54-121.29ZM204.98,113.83l-66.25,120.65,71.36,117.7,137.61-2.95,66.25-120.65-71.36-117.7-137.61,2.95Z"/>
        <path class="uuid-44911534-6482-4380-af69-8cfb824ea219" d="M155.87,235.61l59.1-107.63,122.76-2.63,63.66,105-59.1,107.63-122.76,2.63-63.66-105ZM218.85,134.37l-55.51,101.08,59.79,98.61,115.29-2.47,55.51-101.08-59.79-98.61-115.29,2.47Z"/>
        <path class="uuid-44911534-6482-4380-af69-8cfb824ea219" d="M176.81,235.39l48.12-87.64,99.96-2.14,51.84,85.5-48.12,87.64-99.96,2.14-51.84-85.5ZM229.77,155.73l-43.63,79.46,47,77.51,90.63-1.94,43.63-79.46-47-77.51-90.63,1.94Z"/>
        <path class="uuid-44911534-6482-4380-af69-8cfb824ea219" d="M198.27,236.91l37.48-68.26,77.86-1.67,40.37,66.59-37.48,68.26-77.86,1.67-40.37-66.59ZM241.57,178.23l-32.09,58.44,34.57,57.01,66.66-1.43,32.09-58.44-34.57-57.01-66.66,1.43Z"/>
        <path class="uuid-44911534-6482-4380-af69-8cfb824ea219" d="M217.28,236.08l28.21-51.37,58.6-1.26,30.39,50.12-28.21,51.37-58.6,1.26-30.39-50.12ZM252.27,195.88l-21.92,39.92,23.61,38.94,45.53-.98,21.92-39.92-23.61-38.94-45.53.98Z"/>
        <path class="uuid-44911534-6482-4380-af69-8cfb824ea219" d="M237.21,235.16l18.36-33.43,38.13-.82,19.77,32.62-18.36,33.43-38.13.82-19.78-32.62ZM263.31,214.5l-11.17,20.34,12.03,19.84,23.2-.5,11.17-20.34-12.03-19.84-23.2.5Z"/>
        <polygon class="uuid-44911534-6482-4380-af69-8cfb824ea219" points="266.97 221.89 281.81 221.57 289.5 234.26 282.36 247.27 267.52 247.59 259.83 234.9 266.97 221.89"/>
      </g>
      <g class="uuid-ceedad33-08c0-450c-8be5-0d8c60d7abf9">
        <g>
          <circle class="uuid-44911534-6482-4380-af69-8cfb824ea219" cx="173.85" cy="172.35" r="18.65"/>
          <path class="uuid-44911534-6482-4380-af69-8cfb824ea219" d="M172.17,222.88c-27.69-1.6-48.92-25.43-47.32-53.12,1.6-27.69,25.43-48.92,53.12-47.32s48.92,25.43,47.32,53.12c-1.6,27.69-25.43,48.92-53.12,47.32ZM176.94,140.19c-17.9-1.03-33.31,12.69-34.34,30.59-1.03,17.9,12.69,33.31,30.59,34.34,17.9,1.03,33.31-12.69,34.34-30.59,1.03-17.9-12.69-33.31-30.59-34.34Z"/>
          <path class="uuid-44911534-6482-4380-af69-8cfb824ea219" d="M170.13,244.1c-39.87-2.3-70.43-36.61-68.13-76.48,2.3-39.87,36.61-70.43,76.48-68.13,39.87,2.3,70.43,36.61,68.13,76.48-2.3,39.87-36.61,70.43-76.48,68.13ZM177.63,114.02c-31.86-1.84-59.27,22.58-61.11,54.44-1.84,31.86,22.58,59.27,54.44,61.11,31.86,1.84,59.27-22.58,61.11-54.44,1.84-31.86-22.58-59.27-54.44-61.11Z"/>
          <path class="uuid-44911534-6482-4380-af69-8cfb824ea219" d="M169.22,267.15c-52.33-3.02-92.45-48.05-89.43-100.39,3.02-52.33,48.05-92.45,100.39-89.43,52.33,3.02,92.45,48.05,89.43,100.39-3.02,52.33-48.05,92.45-100.39,89.43ZM179.53,88.64c-46.1-2.66-85.77,32.68-88.43,78.78-2.66,46.1,32.68,85.77,78.78,88.43,46.1,2.66,85.77-32.68,88.43-78.78,2.66-46.1-32.68-85.77-78.78-88.43Z"/>
          <path class="uuid-44911534-6482-4380-af69-8cfb824ea219" d="M166.82,290.28c-65.7-3.79-116.07-60.33-112.28-126.04,3.79-65.7,60.33-116.07,126.04-112.28,65.7,3.79,116.07,60.33,112.28,126.04-3.79,65.7-60.33,116.07-126.04,112.28ZM180.11,60.03c-61.25-3.54-113.96,43.42-117.5,104.67-3.54,61.25,43.42,113.96,104.67,117.5,61.25,3.54,113.96-43.42,117.5-104.67,3.54-61.25-43.42-113.96-104.67-117.5Z"/>
          <path class="uuid-44911534-6482-4380-af69-8cfb824ea219" d="M165.45,321.82c-82.96-4.79-146.56-76.18-141.77-159.14C28.48,79.72,99.86,16.12,182.82,20.91c82.96,4.79,146.56,76.18,141.77,159.14-4.79,82.96-76.18,146.56-159.14,141.77ZM182.54,25.76C102.26,21.12,33.16,82.67,28.53,162.96c-4.63,80.29,56.91,149.38,137.2,154.02,80.29,4.63,149.38-56.91,154.02-137.2,4.63-80.29-56.91-149.38-137.2-154.02Z"/>
        </g>
      </g>
      <g class="uuid-de7ffd0a-7053-462b-bd6f-33aa241f9650">
        <g>
          <circle class="uuid-44911534-6482-4380-af69-8cfb824ea219" cx="292.12" cy="418.23" r="18.65"/>
          <path class="uuid-44911534-6482-4380-af69-8cfb824ea219" d="M288.03,367.84c27.7-1.57,51.5,19.69,53.07,47.38,1.57,27.7-19.69,51.5-47.38,53.07-27.69,1.57-51.5-19.69-53.07-47.38-1.57-27.7,19.69-51.5,47.38-53.07ZM292.71,450.54c17.9-1.01,31.64-16.4,30.63-34.31-1.01-17.9-16.4-31.64-34.31-30.63-17.9,1.01-31.64,16.4-30.63,34.31,1.01,17.9,16.4,31.64,34.31,30.63Z"/>
          <path class="uuid-44911534-6482-4380-af69-8cfb824ea219" d="M287.64,346.53c39.87-2.26,74.14,28.34,76.4,68.21,2.26,39.87-28.34,74.14-68.21,76.4-39.87,2.26-74.14-28.34-76.4-68.21-2.26-39.87,28.34-74.14,68.21-76.4ZM295.01,476.62c31.86-1.8,56.31-29.19,54.5-61.05-1.8-31.86-29.19-56.31-61.05-54.5-31.86,1.8-56.31,29.19-54.5,61.05,1.8,31.86,29.19,56.31,61.05,54.5Z"/>
          <path class="uuid-44911534-6482-4380-af69-8cfb824ea219" d="M285.91,323.52c52.34-2.96,97.33,37.2,100.29,89.54,2.96,52.34-37.2,97.32-89.54,100.29-52.34,2.96-97.33-37.2-100.29-89.54-2.96-52.34,37.2-97.33,89.54-100.29ZM296.02,502.05c46.1-2.61,81.49-42.24,78.88-88.35-2.61-46.1-42.24-81.49-88.35-78.88-46.1,2.61-81.49,42.24-78.88,88.35,2.61,46.1,42.25,81.49,88.35,78.88Z"/>
          <path class="uuid-44911534-6482-4380-af69-8cfb824ea219" d="M285.67,300.28c65.71-3.72,122.19,46.71,125.91,112.41,3.72,65.71-46.71,122.19-112.41,125.91-65.71,3.72-122.19-46.71-125.91-112.41-3.72-65.71,46.71-122.19,112.41-125.91ZM298.71,530.53c61.26-3.47,108.27-56.13,104.8-117.38-3.47-61.26-56.13-108.27-117.38-104.8-61.26,3.47-108.27,56.13-104.8,117.39,3.47,61.26,56.13,108.27,117.39,104.8Z"/>
          <path class="uuid-44911534-6482-4380-af69-8cfb824ea219" d="M283.42,268.79c82.97-4.7,154.29,58.97,158.99,141.94,4.7,82.97-58.97,154.29-141.94,158.99-82.97,4.7-154.29-58.97-158.99-141.94-4.7-82.97,58.97-154.29,141.94-158.98ZM300.2,564.87c80.29-4.55,141.92-73.57,137.37-153.87-4.55-80.29-73.57-141.92-153.87-137.37-80.29,4.55-141.92,73.57-137.37,153.87,4.55,80.29,73.57,141.92,153.87,137.37Z"/>
        </g>
      </g>
    </g>
  </g>
</svg>