<?xml version="1.0" encoding="UTF-8"?>
<svg xmlns="http://www.w3.org/2000/svg" viewBox="0 0 841.89 2744.16">
  <defs>
    <style>
      .uuid-a378d5c2-3819-4343-800d-2c45007c2653 {
        isolation: isolate;
      }

      .uuid-28e68330-b92d-42a3-9132-b4476bdbc0b5 {
        fill: #19331b;
        mix-blend-mode: multiply;
        opacity: .38;
      }
    </style>
  </defs>
  <g class="uuid-a378d5c2-3819-4343-800d-2c45007c2653">
    <g id="uuid-be212a9e-c96b-4bb9-b783-c4cd8220d5bd" data-name="Layer 7">
      <path class="uuid-28e68330-b92d-42a3-9132-b4476bdbc0b5" d="M1246.17,1323.81c-50.77-52.5-83.84-131.55-73.86-176.55,6.16-27.8,27.32-36.09,54.56-26l-2.56-6.37c-4.59-2.27-9.64-6.44-14.64-12.48-13.78-16.63-21.93-40.89-18.19-54.18.77-2.74,2.01-4.76,3.57-6.16l-25.35-63.08c-.11.12-.21.25-.32.36-11.52,11.37-33.92-17.51-50.03-64.51-12.84-37.46-17.8-75.11-13.45-94.61l-14.82-36.89c5.35,39.9,3.18,72.12-7.85,88.06-23.39,33.8-77.74-18.41-121.39-116.62-43.65-98.21-60.07-205.23-36.67-239.04,14.46-20.89,40.74-8.9,69,26.47l-21.09-52.49c-9.65,11.1-21.07,12.1-30.13.38-13.85-17.93-16.91-58.68-6.82-91.02.08-.25.16-.46.24-.71l-75.11-186.91c-15.13,11.58-38.21,3.42-59.43-24.04-28.89-37.39-43.38-96.35-32.36-131.69,4.05-12.98,10.98-20.95,19.55-24.01l-12.23-30.42c.2,14.97-4.39,26.56-11.46,27.21-8.26.76-16.75-13.69-18.96-32.27-2.21-18.58,2.69-34.26,10.95-35.02,1.21-.11,2.42.14,3.62.64l-95.21-236.92c-.13,2.62-.57,4.91-1.4,6.69-3.81,8.17-13.9,2.82-22.55-11.94-8.65-14.76-12.58-33.35-8.77-41.51,2.63-5.65,8.28-4.82,14.37,1.1l-8.1-20.14c-9.06,3.91-24.06-8.94-37.04-33.2-15.8-29.55-22.6-64.81-15.19-78.77,1.37-2.58,3.13-4.25,5.19-5.07l-22.61-56.26-20.56,13.64c8.77,19.73,17.03,44.23,23.71,71.76,18.94,78.01,18.06,150.5-1.97,161.91-20.03,11.41-51.62-42.58-70.56-120.59-6.17-25.43-10.23-50.25-12.21-72.58l-4.11,2.73c1.3,6.16,2.35,12.86,3.04,19.89,2.96,30-1.53,54.45-10.02,54.59-8.49.15-17.77-24.06-20.73-54.06-.06-.65-.11-1.29-.16-1.94l-48,31.84,24.32,144.97c9.52-14.93,28.46-5.49,43.18,22.02,15.23,28.48,20.16,65.54,11.01,82.77-8.04,15.14-24.28,9.93-38.44-10.9l3.94,23.48c.44-.38.92-.65,1.43-.78,3.99-1,8.56,6.46,10.2,16.66,1.64,10.2-.26,19.28-4.26,20.27-.43.11-.87.1-1.31.02l4.61,27.49c3.59-33.91,12.26-56.42,25.3-59.68,26.71-6.67,61.56,69.87,77.84,170.95,16.28,101.08,7.81,188.42-18.9,195.09-12.19,3.04-26.07-11.28-39.11-37.31l54.52,324.99c7.04-17.02,16.71-26.85,28.1-26.25,27.69,1.46,54.99,63.9,60.97,139.47,5.99,75.56-11.61,135.63-39.3,134.16-2.91-.15-5.81-1.02-8.69-2.46l13.53,80.64c1.18-23.71,5.46-39.2,12.65-40.99,14.76-3.68,36.13,51.72,47.73,123.75,11.6,72.03,9.04,133.41-5.72,137.09-6.58,1.64-14.47-8.48-22.22-26.55l7.34,43.78c.82-1.25,1.75-2.19,2.82-2.69,7.01-3.24,16.61,12.24,21.44,34.58,4.82,22.34,3.05,43.08-3.97,46.32-2.34,1.08-4.97.04-7.61-2.6l53.6,319.52c3.67-26.18,11.8-42.77,22.14-41.23,15.9,2.37,31.01,46.72,33.74,99.06,2.73,52.34-7.94,92.85-23.85,90.48-2.69-.4-5.35-2.02-7.93-4.66l37.19,221.69,32.66-21.69c-4.74-21.35-9.02-43.67-12.74-66.75-27.96-173.62-13.42-323.64,32.46-335.09,45.89-11.45,105.75,120.01,133.7,293.63.31,1.91.6,3.81.9,5.71l22.56-14.98c2.85-82.19,21.89-139.74,46.39-133.53,15.66,3.98,30.24,33.2,40.42,75.87l13.68-9.08c-22.61-74.55-24.48-153.17-1.16-197.09,31.16-58.7,95.49-33.23,143.68,56.89,5.97,11.16,11.41,22.79,16.3,34.72l7.86-5.22c-9.47-17.27-14.05-37.16-10.22-45.18,3.97-8.32,15.45-.73,25.63,16.94,2.54,4.41,4.76,9.03,6.6,13.62l21.11-14.02c-.37-1.03-.74-2.07-1.1-3.13-14.4-42.03-16.74-85.32-5.22-96.69,11.52-11.37,32.54,13.47,46.95,55.5,1.64,4.8,3.12,9.61,4.45,14.38l11.09-7.37-34.66-86.24c-21.07,1.79-50.07-13-79.59-43.54ZM803.21,1769.75c1.65,13.89-1.22,25.54-6.42,26.02-5.2.48-10.76-10.39-12.41-24.28-1.65-13.89,1.22-25.54,6.42-26.02,5.2-.48,10.76,10.39,12.41,24.28ZM788.76,1691.33c.59,26.4-3.54,46.63-9.21,45.19-5.67-1.44-10.74-24.01-11.33-50.41-.59-26.4,3.54-46.63,9.21-45.19,5.67,1.44,10.74,24.01,11.33,50.41ZM1172.91,1031.53c10.91,31.83,11.87,65.41,2.15,75-9.72,9.6-26.45-8.42-37.36-40.24-10.91-31.83-11.87-65.41-2.15-75,9.72-9.6,26.45,8.42,37.36,40.24ZM1188.74,1261.07c1.65,13.89-1.22,25.54-6.42,26.02-5.2.48-10.76-10.39-12.41-24.28-1.65-13.89,1.22-25.54,6.42-26.02,5.2-.48,10.76,10.39,12.41,24.28ZM1087.56,892.08c-.78-8.72,1.27-15.75,4.57-15.7,3.3.06,6.61,7.17,7.38,15.9.78,8.72-1.27,15.75-4.57,15.7-3.3-.06-6.61-7.17-7.38-15.9ZM1100.23,963.07c-3.56-19.63-1.44-37.18,4.74-39.2,6.17-2.02,14.07,12.25,17.62,31.88,3.56,19.63,1.44,37.18-4.74,39.2-6.17,2.02-14.07-12.25-17.62-31.88ZM1073.23,916.81c1.98-5.26,7.27-4.12,11.8,2.56,4.54,6.68,6.61,16.36,4.63,21.62-1.98,5.26-7.27,4.12-11.8-2.56-4.54-6.68-6.61-16.36-4.63-21.62ZM1020.92,868.49c5.06,3.23,7.88,19.58,6.3,36.52-1.58,16.94-6.97,28.05-12.03,24.81-5.06-3.23-7.88-19.58-6.3-36.52,1.58-16.94,6.97-28.05,12.03-24.81ZM994.9,869.05c-.79-6.63.56-12.2,3.01-12.42,2.45-.23,5.08,4.97,5.87,11.6.79,6.63-.56,12.2-3.01,12.42-2.45.23-5.08-4.97-5.87-11.6ZM901.48,562.65c-5.15,7.44-14.33,2.21-20.51-11.69-6.18-13.9-7.01-31.2-1.86-38.64,5.15-7.44,14.33-2.21,20.51,11.69,6.18,13.9,7.01,31.2,1.86,38.64ZM999.88,1104.85c-4.24.51-8.65-7.83-9.85-18.64-1.2-10.81,1.27-19.98,5.51-20.5,4.24-.51,8.65,7.83,9.85,18.64,1.2,10.81-1.27,19.98-5.51,20.5ZM1010.69,1161.49c-3.43,4.78-10.83-1.47-16.53-13.94-5.7-12.48-7.53-26.46-4.1-31.24,3.43-4.78,10.83,1.47,16.53,13.94,5.7,12.48,7.53,26.46,4.1,31.24ZM982.04,1055.5c-20.48,9-49.7-43.77-65.27-117.86-15.57-74.1-11.6-141.46,8.88-150.46,20.48-9,49.7,43.77,65.27,117.86,15.57,74.1,11.6,141.46-8.88,150.46ZM815.56,868.13c-25.15-56.58-34.61-118.24-21.13-137.72,13.48-19.48,44.79,10.61,69.93,67.19,25.15,56.58,34.61,118.24,21.13,137.72-13.48,19.48-44.79-10.61-69.93-67.19ZM893.25,975.37c-1.49,3.96-5.6,2.89-9.18-2.37-3.58-5.27-5.28-12.74-3.79-16.7,1.49-3.96,5.6-2.89,9.18,2.37,3.58,5.27,5.28,12.74,3.79,16.7ZM797.68,871.93c5-4.94,14.13,5.85,20.38,24.1,6.25,18.25,7.27,37.05,2.27,41.98-5,4.94-14.13-5.85-20.38-24.1-6.25-18.25-7.27-37.05-2.27-41.98ZM731.63,646.71c-2.31.21-4.78-4.62-5.51-10.79-.73-6.17.54-11.35,2.85-11.56,2.31-.21,4.78,4.62,5.51,10.79.73,6.17-.54,11.35-2.85,11.56ZM757.26,698.21c-2.52-21.15,1.86-38.89,9.78-39.62,7.92-.73,16.38,15.83,18.9,36.98,2.52,21.15-1.86,38.89-9.78,39.62-7.92.73-16.38-15.83-18.9-36.98ZM754.15,612.9c3.61,19.93,2.47,37.43-2.56,39.07-5.03,1.65-12.03-13.18-15.65-33.12-3.61-19.93-2.47-37.43,2.56-39.07,5.03-1.65,12.03,13.18,15.65,33.12ZM702.09,426.45c-4.16.38-8.6-8.31-9.92-19.42-1.32-11.11.98-20.42,5.14-20.8,4.16-.38,8.6,8.31,9.92,19.42,1.32,11.11-.98,20.42-5.14,20.8ZM738.57,414.99c19.14-31.41,66.8,9.32,106.46,90.99,39.66,81.66,56.29,173.33,37.15,204.74-19.14,31.41-66.8-9.32-106.46-90.99-39.66-81.66-56.29-173.33-37.15-204.74ZM705.05,376.84c-2.8-17.38.11-32.77,6.51-34.37,6.39-1.6,13.85,11.2,16.64,28.59,2.8,17.38-.11,32.77-6.51,34.37-6.39,1.6-13.85-11.2-16.64-28.59ZM667.04,54.45c-7.24-14.91-9.52-32.89-5.09-40.16,4.43-7.27,13.89-1.08,21.13,13.83,7.24,14.91,9.52,32.89,5.09,40.16-4.43,7.27-13.89,1.08-21.13-13.83ZM676.11,89.96c-1.15,1.38-3.56-1.3-5.4-5.99-1.84-4.69-2.4-9.6-1.25-10.98,1.15-1.38,3.56,1.3,5.4,5.99,1.84,4.69,2.4,9.6,1.25,10.98ZM654.06,8.29c-2.38,3.57-7.33-.82-11.07-9.79-3.74-8.97-4.84-19.14-2.46-22.7,2.38-3.57,7.33.82,11.07,9.79,3.74,8.97,4.84,19.14,2.46,22.7ZM710.75,57.14c22.72-5.67,52.37,59.43,66.22,145.42,13.85,85.98,6.65,160.28-16.08,165.95-22.72,5.67-52.37-59.43-66.22-145.42-13.85-85.98-6.65-160.28,16.08-165.95ZM794.55,366.87c-2.12,1.26-5.03-2.52-6.51-8.45-1.48-5.93-.95-11.75,1.17-13.01,2.12-1.26,5.03,2.52,6.51,8.45,1.48,5.93.95,11.75-1.17,13.01ZM802.09,410.88c-2.91,6.96-10.2,4.78-16.3-4.86-6.09-9.64-8.67-23.09-5.77-30.05,2.91-6.96,10.2-4.78,16.3,4.86,6.09,9.64,8.67,23.09,5.77,30.05ZM917.93,711.17c7.21,16.22,9.7,34.21,5.57,40.18-4.13,5.97-13.32-2.34-20.53-18.55-7.21-16.22-9.7-34.21-5.57-40.18,4.13-5.97,13.32,2.34,20.53,18.55ZM857.94,496.01c1.88-4.49,6.52-3.2,10.37,2.89,3.85,6.09,5.45,14.67,3.57,19.17-1.88,4.49-6.52,3.2-10.37-2.89-3.85-6.09-5.45-14.67-3.57-19.17ZM803.67,693.94c1.01,8.52-.72,15.65-3.87,15.94-3.15.29-6.52-6.38-7.54-14.89-1.01-8.52.72-15.65,3.87-15.94,3.15-.29,6.52,6.38,7.54,14.89ZM897.29,953.11c-2.87-17.84-1.23-33.29,3.66-34.51,4.9-1.22,11.19,12.25,14.06,30.08,2.87,17.84,1.23,33.29-3.66,34.51-4.9,1.22-11.19-12.25-14.06-30.08ZM871.6,773.59c.28-26.58,8.78-45.09,18.97-41.36,10.2,3.74,18.23,28.31,17.95,54.88-.28,26.58-8.78,45.09-18.97,41.36-10.2-3.73-18.23-28.31-17.95-54.88ZM935.63,723.63c3.26-.3,6.75,6.52,7.79,15.23,1.04,8.71-.77,16.02-4.03,16.32-3.26.3-6.75-6.52-7.79-15.23-1.04-8.71.77-16.02,4.03-16.32ZM896.23,596.62c-1.04-8.71.77-16.02,4.03-16.32,3.26-.3,6.75,6.52,7.79,15.23,1.04,8.71-.77,16.02-4.03,16.32-3.26.3-6.75-6.52-7.79-15.23ZM891.99,306.24c29.42,60.58,37.75,135.15,18.61,166.56-19.14,31.41-58.5,7.77-87.92-52.81-29.42-60.58-37.75-135.15-18.61-166.56,19.14-31.41,58.5-7.77,87.92,52.81ZM805.76,210.52c1.53-2.51,5.04.15,7.85,5.93,2.81,5.78,3.85,12.5,2.32,15-1.53,2.51-5.04-.15-7.85-5.93-2.81-5.78-3.85-12.5-2.32-15ZM790.67,190.06c4.16-.38,8.6,8.31,9.92,19.42,1.32,11.11-.98,20.42-5.14,20.8-4.16.38-8.6-8.31-9.92-19.42-1.32-11.11.98-20.42,5.14-20.8ZM758.77,61.89c-2.04,8.42-8.54,9.95-14.51,3.41-5.97-6.54-9.16-18.68-7.11-27.1,2.04-8.42,8.54-9.95,14.51-3.41,5.97,6.54,9.16,18.68,7.11,27.1ZM633.41-284.37c2.58,6.57,3.06,13.83,1.09,16.2-1.97,2.37-5.66-1.03-8.23-7.61-2.58-6.57-3.07-13.83-1.09-16.2,1.97-2.37,5.66,1.03,8.23,7.61ZM559.77-504.82c2.93-4.47,9.87,2.78,15.49,16.2,5.62,13.42,7.81,27.91,4.87,32.39-2.93,4.47-9.87-2.78-15.49-16.2-5.62-13.42-7.81-27.91-4.87-32.39ZM596.47-313.61c-2.21-18.58,1.12-34.12,7.44-34.7,6.32-.58,13.24,14.01,15.45,32.59,2.21,18.58-1.12,34.12-7.44,34.7-6.32.58-13.24-14.01-15.45-32.59ZM591.64-253.44c16.73-31.51,61.84,1.95,100.76,74.73,38.92,72.78,56.91,157.32,40.18,188.82-16.73,31.51-61.84-1.95-100.76-74.73-38.92-72.78-56.91-157.32-40.18-188.82ZM558.44-239.68c.95-7.55,6.25-10.04,11.84-5.55,5.58,4.48,9.34,14.24,8.38,21.8-.95,7.55-6.25,10.04-11.84,5.55-5.58-4.48-9.34-14.24-8.38-21.8ZM477.46-359.49c1.33-10.45,8.49-14.06,15.99-8.06,7.5,6,12.49,19.34,11.16,29.79-1.33,10.45-8.49,14.06-15.99,8.06-7.5-6-12.49-19.34-11.16-29.79ZM454.65-280.54c-14.04.24-28.39-29.72-32.05-66.91-3.67-37.2,4.74-67.54,18.78-67.78,14.04-.24,28.39,29.72,32.05,66.91,3.67,37.2-4.74,67.54-18.78,67.78ZM520.84-146.07c-33.41-75.19-51.17-149.62-39.66-166.25,11.51-16.63,47.93,30.83,81.34,106.02,33.41,75.19,51.17,149.62,39.66,166.25-11.51,16.63-47.93-30.83-81.34-106.02ZM568.32-6.96c-5.22-10.76-6.87-23.73-3.67-28.98s10.02-.78,15.25,9.98c5.22,10.76,6.87,23.73,3.67,28.98s-10.02.78-15.25-9.98ZM580.3,24.99c.6,7.56-.97,13.57-3.51,13.44-2.53-.13-5.08-6.37-5.67-13.93-.6-7.56.97-13.57,3.51-13.44,2.53.13,5.08,6.37,5.67,13.93ZM594.63,121.29c-12.42-68.47-6.46-129.22,13.3-135.68,19.76-6.47,45.85,43.79,58.26,112.26,12.42,68.47,6.46,129.22-13.3,135.68-19.76,6.47-45.85-43.79-58.26-112.26ZM648.07,316.92c-2.99-37.78,5.8-67.81,19.65-67.08,13.84.73,27.49,31.95,30.49,69.73,2.99,37.78-5.8,67.81-19.65,67.08-13.84-.73-27.49-31.95-30.49-69.73ZM706.19,458.49c22.48,46.3,28.85,103.29,14.22,127.3-14.63,24.01-44.71,5.94-67.19-40.36-22.48-46.3-28.85-103.29-14.22-127.3,14.63-24.01,44.71-5.94,67.19,40.36ZM680.52,631.56c-3.32,5.45-10.41.8-15.83-10.37-5.42-11.17-7.13-24.64-3.81-30.09,3.32-5.45,10.41-.8,15.83,10.37s7.13,24.64,3.81,30.09ZM603.13,193.51c.75,4.64-.12,8.77-1.94,9.23-1.82.45-3.9-2.94-4.64-7.59-.75-4.64.12-8.77,1.94-9.23,1.82-.45,3.9,2.94,4.64,7.59ZM582.38,164.91c-1.64-10.2.26-19.28,4.26-20.27,3.99-1,8.56,6.46,10.2,16.66,1.64,10.2-.26,19.28-4.26,20.27-3.99,1-8.56-6.46-10.2-16.66ZM525.2,263.37c-1.65-13.89,1.22-25.54,6.42-26.02,5.2-.48,10.76,10.39,12.41,24.28,1.65,13.89-1.22,25.54-6.42,26.02-5.2.48-10.76-10.39-12.41-24.28ZM533.78,304.28c-.73-6.17.54-11.35,2.85-11.56,2.31-.21,4.78,4.62,5.51,10.79.73,6.17-.54,11.35-2.86,11.56-2.31.21-4.78-4.62-5.51-10.79ZM552.33,438.18c-3.84-3.82-4.99-17.81-2.56-31.25,2.43-13.43,7.52-21.23,11.36-17.4,3.84,3.82,4.99,17.81,2.56,31.25-2.43,13.44-7.52,21.23-11.36,17.4ZM575.87,469.71c.73,6.17-.54,11.35-2.86,11.56-2.31.21-4.78-4.62-5.51-10.79-.73-6.17.54-11.35,2.85-11.56,2.31-.21,4.78,4.62,5.51,10.79ZM587.79,435.25c1.02,8.18-2.74,15.04-8.38,15.34s-11.05-6.09-12.06-14.27,2.74-15.04,8.38-15.34c5.64-.3,11.05,6.09,12.06,14.27ZM600.08,423.24c-22.76-1.2-44.82-47.77-49.27-104.02-4.46-56.24,10.38-100.86,33.14-99.66,22.76,1.2,44.82,47.77,49.27,104.02,4.46,56.24-10.38,100.86-33.14,99.66ZM695.62,639.97c26.71-6.67,61.56,69.87,77.84,170.95,16.28,101.08,7.81,188.42-18.9,195.09-26.71,6.67-61.56-69.87-77.84-170.95-16.28-101.08-7.81-188.42,18.9-195.09ZM802.6,939.7c1.03,8.64-.76,15.89-4,16.19s-6.69-6.47-7.72-15.11c-1.03-8.64.76-15.89,4-16.19s6.69,6.47,7.72,15.11ZM818.41,1264.78c3.58,5.27,5.28,12.75,3.79,16.7-1.49,3.96-5.6,2.89-9.18-2.37-3.58-5.27-5.28-12.74-3.79-16.7,1.49-3.96,5.6-2.89,9.18,2.37ZM762.84,1089.2c-4.54-6.68-6.61-16.36-4.63-21.62,1.98-5.26,7.27-4.12,11.8,2.56,4.54,6.68,6.61,16.36,4.63,21.62-1.98,5.26-7.27,4.12-11.8-2.56ZM777.09,1112.74c-.79-6.63.56-12.2,3.01-12.42,2.45-.23,5.08,4.97,5.87,11.6s-.56,12.2-3.01,12.42c-2.45.23-5.08-4.97-5.87-11.6ZM765.91,1031.8c-1.35-15.12,1.11-27.32,5.5-27.24,4.39.07,9.04,12.39,10.39,27.51,1.35,15.12-1.11,27.32-5.5,27.24-4.39-.07-9.04-12.39-10.39-27.51ZM645.61,756.3c-.33-14.81,2.62-26,6.6-24.99s7.46,13.83,7.79,28.64-2.62,26-6.6,24.99c-3.97-1.01-7.46-13.83-7.79-28.64ZM640.6,771.94c.73,6.17-.54,11.35-2.85,11.56-2.31.21-4.78-4.62-5.51-10.79-.73-6.17.54-11.35,2.85-11.56,2.31-.21,4.78,4.62,5.51,10.79ZM695.69,967.36c4.15-6,11.69-1.48,16.84,10.09,5.15,11.58,5.95,25.83,1.79,31.84-4.15,6-11.69,1.48-16.84-10.09-5.15-11.58-5.95-25.83-1.79-31.84ZM695.39,1039.82c-1.03-8.64.76-15.89,4-16.19,3.24-.3,6.69,6.47,7.72,15.11,1.03,8.64-.76,15.89-4,16.19-3.24.3-6.69-6.47-7.72-15.11ZM734.13,1407.27c-1.98,5.26-7.27,4.12-11.8-2.56-4.54-6.68-6.61-16.36-4.63-21.62,1.98-5.26,7.27-4.12,11.8,2.56,4.54,6.68,6.61,16.36,4.63,21.62ZM676.05,1176.46c-.73-6.17.54-11.35,2.85-11.56,2.31-.21,4.78,4.62,5.51,10.79.73,6.17-.54,11.35-2.85,11.56-2.31.21-4.78-4.62-5.51-10.79ZM776.61,1418.15c-26.71,6.67-61.56-69.87-77.84-170.95-16.28-101.08-7.81-188.42,18.9-195.09,26.71-6.67,61.56,69.87,77.84,170.95,16.28,101.08,7.81,188.42-18.9,195.09ZM820.54,1388.07c.33,14.81-2.62,26-6.6,24.99-3.97-1.01-7.46-13.83-7.79-28.64-.33-14.81,2.62-26,6.6-24.99,3.97,1.01,7.46,13.83,7.79,28.64ZM831.33,1374.2c-5.03,1.65-12.03-13.18-15.65-33.12-3.61-19.93-2.47-37.43,2.56-39.07,5.03-1.65,12.03,13.18,15.65,33.12,3.61,19.93,2.47,37.43-2.56,39.07ZM853.84,1373.03c1.01,8.52-.72,15.65-3.87,15.94-3.15.29-6.52-6.38-7.54-14.89-1.01-8.52.72-15.65,3.87-15.94,3.15-.29,6.52,6.38,7.54,14.89ZM987.97,1629.47c1.97,16.56-1.4,30.44-7.52,31.01-6.13.56-12.69-12.4-14.66-28.97-1.97-16.56,1.4-30.44,7.52-31.01,6.13-.56,12.69,12.4,14.66,28.97ZM982.43,1576.17c-2.63,8.42-14.97,2.04-27.56-14.26-12.59-16.3-20.67-36.33-18.05-44.76,2.63-8.42,14.97-2.04,27.56,14.26,12.59,16.3,20.67,36.33,18.05,44.76ZM1002.18,1565.51c1.01,8.52-.72,15.65-3.87,15.94-3.15.29-6.52-6.38-7.54-14.89-1.01-8.52.72-15.65,3.87-15.94,3.15-.29,6.52,6.38,7.54,14.89ZM1028.61,1515.06c-36.12,46.7-115.35-36.83-176.97-186.58-61.62-149.75-82.29-309-46.17-355.7,36.12-46.7,115.35,36.83,176.97,186.58,61.62,149.75,82.29,309,46.17,355.7ZM1071.9,1524.53c2.62,22-1.94,40.44-10.17,41.2-8.24.76-17.04-16.46-19.65-38.46-2.62-22,1.94-40.44,10.17-41.2,8.24-.76,17.04,16.46,19.65,38.46ZM1076.48,1418.97c1.65,13.89-1.22,25.54-6.42,26.02-5.2.48-10.76-10.39-12.41-24.28-1.65-13.89,1.22-25.54,6.42-26.02,5.2-.48,10.76,10.39,12.41,24.28ZM1088.83,1384.03c-2.29,8.14-12.03,5.22-21.77-6.53-9.73-11.75-15.77-27.87-13.48-36.01,2.29-8.14,12.03-5.22,21.77,6.53,9.73,11.75,15.77,27.87,13.48,36.01ZM1131.04,1367.67c-32.31,14.2-78.42-69.06-102.99-185.97-24.57-116.91-18.3-223.21,14.01-237.41,32.31-14.2,78.42,69.06,102.99,185.97,24.57,116.91,18.3,223.21-14.01,237.41ZM1288.99,1473.65c.74,6.22-.55,11.44-2.88,11.65-2.33.21-4.82-4.65-5.56-10.88-.74-6.22.55-11.44,2.88-11.65,2.33-.21,4.82,4.65,5.56,10.88ZM1274.92,1443.54c-6.52,20.89-33.28,10.03-59.79-24.26-26.5-34.29-42.7-79.03-36.19-99.93,6.52-20.89,33.28-10.03,59.79,24.26,26.5,34.29,42.7,79.03,36.19,99.93Z"/>
      <path class="uuid-28e68330-b92d-42a3-9132-b4476bdbc0b5" d="M421.35,3409.23c-50.77-52.5-83.84-131.55-73.86-176.55,6.16-27.8,27.32-36.09,54.56-26l-2.56-6.37c-4.59-2.27-9.64-6.44-14.64-12.48-13.78-16.63-21.93-40.89-18.19-54.18.77-2.74,2.01-4.76,3.57-6.16l-25.35-63.08c-.11.12-.21.25-.32.36-11.52,11.37-33.92-17.51-50.03-64.51-12.84-37.46-17.8-75.11-13.45-94.61l-14.82-36.89c5.35,39.9,3.18,72.12-7.85,88.06-23.39,33.8-77.74-18.41-121.39-116.62-43.65-98.21-60.07-205.23-36.67-239.04,14.46-20.89,40.74-8.9,69,26.47l-21.09-52.49c-9.65,11.1-21.07,12.1-30.13.38-13.85-17.93-16.91-58.68-6.82-91.02.08-.25.16-.46.24-.71l-75.11-186.91c-15.13,11.58-38.21,3.42-59.43-24.04-28.89-37.39-43.38-96.35-32.36-131.69,4.05-12.98,10.98-20.95,19.55-24.01l-12.23-30.42c.2,14.97-4.39,26.56-11.46,27.21-8.26.76-16.75-13.69-18.96-32.27-2.21-18.58,2.69-34.26,10.95-35.02,1.21-.11,2.42.14,3.62.64l-95.21-236.92c-.13,2.62-.57,4.91-1.4,6.69-3.81,8.17-13.9,2.82-22.55-11.94-8.65-14.76-12.58-33.35-8.77-41.51,2.63-5.65,8.28-4.82,14.37,1.1l-8.1-20.14c-9.06,3.91-24.06-8.94-37.04-33.2-15.8-29.55-22.6-64.81-15.19-78.77,1.37-2.58,3.13-4.25,5.19-5.07l-22.61-56.26-20.56,13.64c8.77,19.73,17.03,44.23,23.71,71.76,18.94,78.01,18.06,150.5-1.97,161.91-20.03,11.41-51.62-42.58-70.56-120.59-6.17-25.43-10.23-50.25-12.21-72.58l-4.11,2.73c1.3,6.16,2.35,12.86,3.04,19.89,2.96,30-1.53,54.45-10.02,54.59-8.49.15-17.77-24.06-20.73-54.06-.06-.65-.11-1.29-.16-1.94l-48,31.84,24.32,144.97c9.52-14.93,28.46-5.49,43.18,22.02,15.23,28.48,20.16,65.54,11.01,82.77-8.04,15.14-24.28,9.93-38.44-10.9l3.94,23.48c.44-.38.92-.65,1.43-.78,3.99-1,8.56,6.46,10.2,16.66,1.64,10.2-.26,19.28-4.26,20.27-.43.11-.87.1-1.31.02l4.61,27.49c3.59-33.91,12.26-56.42,25.3-59.68,26.71-6.67,61.56,69.87,77.84,170.95,16.28,101.08,7.81,188.42-18.9,195.09-12.19,3.04-26.07-11.28-39.11-37.31l54.52,324.99c7.04-17.02,16.71-26.85,28.1-26.25,27.69,1.46,54.99,63.9,60.97,139.47,5.99,75.56-11.61,135.63-39.3,134.16-2.91-.15-5.81-1.02-8.69-2.46l13.53,80.64c1.18-23.71,5.46-39.2,12.65-40.99,14.76-3.68,36.13,51.72,47.73,123.75,11.6,72.03,9.04,133.41-5.72,137.09-6.58,1.64-14.47-8.48-22.22-26.55l7.34,43.78c.82-1.25,1.75-2.19,2.82-2.69,7.01-3.24,16.61,12.24,21.44,34.58,4.82,22.34,3.05,43.08-3.97,46.32-2.34,1.08-4.97.04-7.61-2.6l53.6,319.52c3.67-26.18,11.8-42.77,22.14-41.23,15.9,2.37,31.01,46.72,33.74,99.06,2.73,52.34-7.94,92.85-23.85,90.48-2.69-.4-5.35-2.02-7.93-4.66l37.19,221.69,32.66-21.69c-4.74-21.35-9.02-43.67-12.74-66.75-27.96-173.62-13.42-323.64,32.46-335.09,45.89-11.45,105.75,120.01,133.7,293.63.31,1.91.6,3.81.9,5.71l22.56-14.98c2.85-82.19,21.89-139.74,46.39-133.53,15.66,3.98,30.24,33.2,40.42,75.87l13.68-9.08c-22.61-74.55-24.48-153.17-1.16-197.09,31.16-58.7,95.49-33.23,143.68,56.89,5.97,11.16,11.41,22.79,16.3,34.72l7.86-5.22c-9.47-17.27-14.05-37.16-10.22-45.18,3.97-8.32,15.45-.73,25.63,16.94,2.54,4.41,4.76,9.03,6.6,13.62l21.11-14.02c-.37-1.03-.74-2.07-1.1-3.13-14.4-42.03-16.74-85.32-5.22-96.69,11.52-11.37,32.54,13.47,46.95,55.5,1.64,4.8,3.12,9.61,4.45,14.38l11.09-7.37-34.66-86.24c-21.07,1.79-50.07-13-79.59-43.54ZM-21.61,3855.18c1.65,13.89-1.22,25.54-6.42,26.02-5.2.48-10.76-10.39-12.41-24.28-1.65-13.89,1.22-25.54,6.42-26.02,5.2-.48,10.76,10.39,12.41,24.28ZM-36.05,3776.76c.59,26.4-3.54,46.63-9.21,45.19-5.67-1.44-10.74-24.01-11.33-50.41-.59-26.4,3.54-46.63,9.21-45.19,5.67,1.44,10.74,24.01,11.33,50.41ZM348.1,3116.95c10.91,31.83,11.87,65.41,2.15,75-9.72,9.6-26.45-8.42-37.36-40.24-10.91-31.83-11.87-65.41-2.15-75,9.72-9.6,26.45,8.42,37.36,40.24ZM363.92,3346.49c1.65,13.89-1.22,25.54-6.42,26.02-5.2.48-10.76-10.39-12.41-24.28-1.65-13.89,1.22-25.54,6.42-26.02,5.2-.48,10.76,10.39,12.41,24.28ZM262.75,2977.5c-.78-8.72,1.27-15.75,4.57-15.7,3.3.06,6.61,7.17,7.38,15.9.78,8.72-1.27,15.75-4.57,15.7-3.3-.06-6.61-7.17-7.38-15.9ZM275.42,3048.49c-3.56-19.63-1.44-37.18,4.74-39.2,6.17-2.02,14.07,12.25,17.62,31.88,3.56,19.63,1.44,37.18-4.74,39.2-6.17,2.02-14.07-12.25-17.62-31.88ZM248.42,3002.23c1.98-5.26,7.27-4.12,11.8,2.56,4.54,6.68,6.61,16.36,4.63,21.62-1.98,5.26-7.27,4.12-11.8-2.56-4.54-6.68-6.61-16.36-4.63-21.62ZM196.1,2953.91c5.06,3.23,7.88,19.58,6.3,36.52-1.58,16.94-6.97,28.05-12.03,24.81-5.06-3.23-7.88-19.58-6.3-36.52,1.58-16.94,6.97-28.05,12.03-24.81ZM170.09,2954.48c-.79-6.63.56-12.2,3.01-12.42,2.45-.23,5.08,4.97,5.87,11.6.79,6.63-.56,12.2-3.01,12.42-2.45.23-5.08-4.97-5.87-11.6ZM76.67,2648.07c-5.15,7.44-14.33,2.21-20.51-11.69-6.18-13.9-7.01-31.2-1.86-38.64,5.15-7.44,14.33-2.21,20.51,11.69,6.18,13.9,7.01,31.2,1.86,38.64ZM175.07,3190.27c-4.24.51-8.65-7.83-9.85-18.64-1.2-10.81,1.27-19.98,5.51-20.5,4.24-.51,8.65,7.83,9.85,18.64,1.2,10.81-1.27,19.98-5.51,20.5ZM185.88,3246.91c-3.43,4.78-10.83-1.47-16.53-13.94-5.7-12.48-7.53-26.46-4.1-31.24,3.43-4.78,10.83,1.47,16.53,13.94,5.7,12.48,7.53,26.46,4.1,31.24ZM157.23,3140.92c-20.48,9-49.7-43.77-65.27-117.86-15.57-74.1-11.6-141.46,8.88-150.46,20.48-9,49.7,43.77,65.27,117.86,15.57,74.1,11.6,141.46-8.88,150.46ZM-9.25,2953.55c-25.15-56.58-34.61-118.24-21.13-137.72,13.48-19.48,44.79,10.61,69.93,67.19,25.15,56.58,34.61,118.24,21.13,137.72-13.48,19.48-44.79-10.61-69.93-67.19ZM68.44,3060.79c-1.49,3.96-5.6,2.89-9.18-2.37-3.58-5.27-5.28-12.74-3.79-16.7,1.49-3.96,5.6-2.89,9.18,2.37,3.58,5.27,5.28,12.74,3.79,16.7ZM-27.14,2957.36c5-4.94,14.13,5.85,20.38,24.1,6.25,18.25,7.27,37.05,2.27,41.98-5,4.94-14.13-5.85-20.38-24.1-6.25-18.25-7.27-37.05-2.27-41.98ZM-93.18,2732.13c-2.31.21-4.78-4.62-5.51-10.79-.73-6.17.54-11.35,2.85-11.56,2.31-.21,4.78,4.62,5.51,10.79.73,6.17-.54,11.35-2.85,11.56ZM-67.56,2783.64c-2.52-21.15,1.86-38.89,9.78-39.62,7.92-.73,16.38,15.83,18.9,36.98,2.52,21.15-1.86,38.89-9.78,39.62-7.92.73-16.38-15.83-18.9-36.98ZM-70.67,2698.32c3.61,19.93,2.47,37.43-2.56,39.07-5.03,1.65-12.03-13.18-15.65-33.12-3.61-19.93-2.47-37.43,2.56-39.07,5.03-1.65,12.03,13.18,15.65,33.12ZM-122.73,2511.87c-4.16.38-8.6-8.31-9.92-19.42-1.32-11.11.98-20.42,5.14-20.8,4.16-.38,8.6,8.31,9.92,19.42,1.32,11.11-.98,20.42-5.14,20.8ZM-86.25,2500.42c19.14-31.41,66.8,9.32,106.46,90.99,39.66,81.66,56.29,173.33,37.15,204.74-19.14,31.41-66.8-9.32-106.46-90.99-39.66-81.66-56.29-173.33-37.15-204.74ZM-119.76,2462.27c-2.8-17.38.11-32.77,6.51-34.37,6.39-1.6,13.85,11.2,16.64,28.59,2.8,17.38-.11,32.77-6.51,34.37-6.39,1.6-13.85-11.2-16.64-28.59ZM-157.78,2139.87c-7.24-14.91-9.52-32.89-5.09-40.16,4.43-7.27,13.89-1.08,21.13,13.83,7.24,14.91,9.52,32.89,5.09,40.16-4.43,7.27-13.89,1.08-21.13-13.83ZM-148.71,2175.38c-1.15,1.38-3.56-1.3-5.4-5.99-1.84-4.69-2.4-9.6-1.25-10.98,1.15-1.38,3.56,1.3,5.4,5.99,1.84,4.69,2.4,9.6,1.25,10.98ZM-170.75,2093.71c-2.38,3.57-7.33-.82-11.07-9.79-3.74-8.97-4.84-19.14-2.46-22.7,2.38-3.57,7.33.82,11.07,9.79,3.74,8.97,4.84,19.14,2.46,22.7ZM-114.07,2142.56c22.72-5.67,52.37,59.43,66.22,145.42,13.85,85.98,6.65,160.28-16.08,165.95-22.72,5.67-52.37-59.43-66.22-145.42-13.85-85.98-6.65-160.28,16.08-165.95ZM-30.27,2452.3c-2.12,1.26-5.03-2.52-6.51-8.45-1.48-5.93-.95-11.75,1.17-13.01,2.12-1.26,5.03,2.52,6.51,8.45,1.48,5.93.95,11.75-1.17,13.01ZM-22.72,2496.3c-2.91,6.96-10.2,4.78-16.3-4.86-6.09-9.64-8.67-23.09-5.77-30.05,2.91-6.96,10.2-4.78,16.3,4.86,6.09,9.64,8.67,23.09,5.77,30.05ZM93.12,2796.59c7.21,16.22,9.7,34.21,5.57,40.18-4.13,5.97-13.32-2.34-20.53-18.55-7.21-16.22-9.7-34.21-5.57-40.18,4.13-5.97,13.32,2.34,20.53,18.55ZM33.13,2581.43c1.88-4.49,6.52-3.2,10.37,2.89,3.85,6.09,5.45,14.67,3.57,19.17-1.88,4.49-6.52,3.2-10.37-2.89-3.85-6.09-5.45-14.67-3.57-19.17ZM-21.14,2779.36c1.01,8.52-.72,15.65-3.87,15.94-3.15.29-6.52-6.38-7.54-14.89-1.01-8.52.72-15.65,3.87-15.94,3.15-.29,6.52,6.38,7.54,14.89ZM72.47,3038.53c-2.87-17.84-1.23-33.29,3.66-34.51,4.9-1.22,11.19,12.25,14.06,30.08,2.87,17.84,1.23,33.29-3.66,34.51-4.9,1.22-11.19-12.25-14.06-30.08ZM46.79,2859.01c.28-26.58,8.78-45.09,18.97-41.36,10.2,3.74,18.23,28.31,17.95,54.88-.28,26.58-8.78,45.09-18.97,41.36-10.2-3.73-18.23-28.31-17.95-54.88ZM110.81,2809.06c3.26-.3,6.75,6.52,7.79,15.23,1.04,8.71-.77,16.02-4.03,16.32-3.26.3-6.75-6.52-7.79-15.23-1.04-8.71.77-16.02,4.03-16.32ZM71.42,2682.04c-1.04-8.71.77-16.02,4.03-16.32,3.26-.3,6.75,6.52,7.79,15.23,1.04,8.71-.77,16.02-4.03,16.32-3.26.3-6.75-6.52-7.79-15.23ZM67.18,2391.66c29.42,60.58,37.75,135.15,18.61,166.56-19.14,31.41-58.5,7.77-87.92-52.81-29.42-60.58-37.75-135.15-18.61-166.56,19.14-31.41,58.5-7.77,87.92,52.81ZM-19.05,2295.94c1.53-2.51,5.04.15,7.85,5.93,2.81,5.78,3.85,12.5,2.32,15-1.53,2.51-5.04-.15-7.85-5.93-2.81-5.78-3.85-12.5-2.32-15ZM-34.15,2275.48c4.16-.38,8.6,8.31,9.92,19.42,1.32,11.11-.98,20.42-5.14,20.8-4.16.38-8.6-8.31-9.92-19.42-1.32-11.11.98-20.42,5.14-20.8ZM-66.05,2147.31c-2.04,8.42-8.54,9.95-14.51,3.41-5.97-6.54-9.16-18.68-7.11-27.1,2.04-8.42,8.54-9.95,14.51-3.41,5.97,6.54,9.16,18.68,7.11,27.1ZM-191.4,1801.05c2.58,6.57,3.06,13.83,1.09,16.2-1.97,2.37-5.66-1.03-8.23-7.61-2.58-6.57-3.07-13.83-1.09-16.2,1.97-2.37,5.66,1.03,8.23,7.61ZM-265.05,1580.6c2.93-4.47,9.87,2.78,15.49,16.2,5.62,13.42,7.81,27.91,4.87,32.39-2.93,4.47-9.87-2.78-15.49-16.2-5.62-13.42-7.81-27.91-4.87-32.39ZM-228.34,1771.81c-2.21-18.58,1.12-34.12,7.44-34.7,6.32-.58,13.24,14.01,15.45,32.59,2.21,18.58-1.12,34.12-7.44,34.7-6.32.58-13.24-14.01-15.45-32.59ZM-233.18,1831.98c16.73-31.51,61.84,1.95,100.76,74.73,38.92,72.78,56.91,157.32,40.18,188.82-16.73,31.51-61.84-1.95-100.76-74.73-38.92-72.78-56.91-157.32-40.18-188.82ZM-266.38,1845.74c.95-7.55,6.25-10.04,11.84-5.55s9.34,14.24,8.38,21.8c-.95,7.55-6.25,10.04-11.84,5.55-5.58-4.48-9.34-14.24-8.38-21.8ZM-347.35,1725.93c1.33-10.45,8.49-14.06,15.99-8.06,7.5,6,12.49,19.34,11.16,29.79-1.33,10.45-8.49,14.06-15.99,8.06-7.5-6-12.49-19.34-11.16-29.79ZM-370.16,1804.88c-14.04.24-28.39-29.72-32.05-66.91-3.67-37.2,4.74-67.54,18.78-67.78s28.39,29.72,32.05,66.91c3.67,37.2-4.74,67.54-18.78,67.78ZM-303.97,1939.35c-33.41-75.19-51.17-149.62-39.66-166.25,11.51-16.63,47.93,30.83,81.34,106.02,33.41,75.19,51.17,149.62,39.66,166.25-11.51,16.63-47.93-30.83-81.34-106.02ZM-256.49,2078.47c-5.22-10.76-6.87-23.73-3.67-28.98,3.2-5.25,10.02-.78,15.25,9.98,5.22,10.76,6.87,23.73,3.67,28.98-3.2,5.25-10.02.78-15.25-9.98ZM-244.51,2110.41c.6,7.56-.97,13.57-3.51,13.44-2.53-.13-5.08-6.37-5.67-13.93-.6-7.56.97-13.57,3.51-13.44,2.53.13,5.08,6.37,5.67,13.93ZM-230.19,2206.71c-12.42-68.47-6.46-129.22,13.3-135.68,19.76-6.47,45.85,43.79,58.26,112.26,12.42,68.47,6.46,129.22-13.3,135.68-19.76,6.47-45.85-43.79-58.26-112.26ZM-176.74,2402.34c-2.99-37.78,5.8-67.81,19.65-67.08,13.84.73,27.49,31.95,30.49,69.73,2.99,37.78-5.8,67.81-19.65,67.08-13.84-.73-27.49-31.95-30.49-69.73ZM-118.63,2543.91c22.48,46.3,28.85,103.29,14.22,127.3-14.63,24.01-44.71,5.94-67.19-40.36-22.48-46.3-28.85-103.29-14.22-127.3,14.63-24.01,44.71-5.94,67.19,40.36ZM-144.3,2716.98c-3.32,5.45-10.41.8-15.83-10.37-5.42-11.17-7.13-24.64-3.81-30.09,3.32-5.45,10.41-.8,15.83,10.37s7.13,24.64,3.81,30.09ZM-221.68,2278.93c.75,4.64-.12,8.77-1.94,9.23-1.82.45-3.9-2.94-4.64-7.59-.75-4.64.12-8.77,1.94-9.23,1.82-.45,3.9,2.94,4.64,7.59ZM-242.43,2250.34c-1.64-10.2.26-19.28,4.26-20.27,3.99-1,8.56,6.46,10.2,16.66,1.64,10.2-.26,19.28-4.26,20.27-3.99,1-8.56-6.46-10.2-16.66ZM-299.61,2348.79c-1.65-13.89,1.22-25.54,6.42-26.02,5.2-.48,10.76,10.39,12.41,24.28,1.65,13.89-1.22,25.54-6.42,26.02-5.2.48-10.76-10.39-12.41-24.28ZM-291.03,2389.7c-.73-6.17.54-11.35,2.85-11.56,2.31-.21,4.78,4.62,5.51,10.79.73,6.17-.54,11.35-2.86,11.56-2.31.21-4.78-4.62-5.51-10.79ZM-272.48,2523.6c-3.84-3.82-4.99-17.81-2.56-31.25,2.43-13.43,7.52-21.23,11.36-17.4,3.84,3.82,4.99,17.81,2.56,31.25-2.43,13.44-7.52,21.23-11.36,17.4ZM-248.94,2555.13c.73,6.17-.54,11.35-2.86,11.56-2.31.21-4.78-4.62-5.51-10.79-.73-6.17.54-11.35,2.85-11.56,2.31-.21,4.78,4.62,5.51,10.79ZM-237.02,2520.67c1.02,8.18-2.74,15.04-8.38,15.34s-11.05-6.09-12.06-14.27,2.74-15.04,8.38-15.34c5.64-.3,11.05,6.09,12.06,14.27ZM-224.73,2508.66c-22.76-1.2-44.82-47.77-49.27-104.02-4.46-56.24,10.38-100.86,33.14-99.66,22.76,1.2,44.82,47.77,49.27,104.02,4.46,56.24-10.38,100.86-33.14,99.66ZM-129.19,2725.39c26.71-6.67,61.56,69.87,77.84,170.95,16.28,101.08,7.81,188.42-18.9,195.09-26.71,6.67-61.56-69.87-77.84-170.95-16.28-101.08-7.81-188.42,18.9-195.09ZM-22.22,3025.12c1.03,8.64-.76,15.89-4,16.19s-6.69-6.47-7.72-15.11c-1.03-8.64.76-15.89,4-16.19s6.69,6.47,7.72,15.11ZM-6.4,3350.2c3.58,5.27,5.28,12.75,3.79,16.7-1.49,3.96-5.6,2.89-9.18-2.37-3.58-5.27-5.28-12.74-3.79-16.7,1.49-3.96,5.6-2.89,9.18,2.37ZM-61.97,3174.62c-4.54-6.68-6.61-16.36-4.63-21.62,1.98-5.26,7.27-4.12,11.8,2.56,4.54,6.68,6.61,16.36,4.63,21.62-1.98,5.26-7.27,4.12-11.8-2.56ZM-47.72,3198.16c-.79-6.63.56-12.2,3.01-12.42,2.45-.23,5.08,4.97,5.87,11.6s-.56,12.2-3.01,12.42c-2.45.23-5.08-4.97-5.87-11.6ZM-58.9,3117.22c-1.35-15.12,1.11-27.32,5.5-27.24,4.39.07,9.04,12.39,10.39,27.51,1.35,15.12-1.11,27.32-5.5,27.24-4.39-.07-9.04-12.39-10.39-27.51ZM-179.21,2841.72c-.33-14.81,2.62-26,6.6-24.99s7.46,13.83,7.79,28.64-2.62,26-6.6,24.99c-3.97-1.01-7.46-13.83-7.79-28.64ZM-184.21,2857.36c.73,6.17-.54,11.35-2.85,11.56-2.31.21-4.78-4.62-5.51-10.79-.73-6.17.54-11.35,2.85-11.56,2.31-.21,4.78,4.62,5.51,10.79ZM-129.13,3052.78c4.15-6,11.69-1.48,16.84,10.09,5.15,11.58,5.95,25.83,1.79,31.84-4.15,6-11.69,1.48-16.84-10.09-5.15-11.58-5.95-25.83-1.79-31.84ZM-129.43,3125.24c-1.03-8.64.76-15.89,4-16.19,3.24-.3,6.69,6.47,7.72,15.11,1.03,8.64-.76,15.89-4,16.19-3.24.3-6.69-6.47-7.72-15.11ZM-90.68,3492.69c-1.98,5.26-7.27,4.12-11.8-2.56-4.54-6.68-6.61-16.36-4.63-21.62,1.98-5.26,7.27-4.12,11.8,2.56,4.54,6.68,6.61,16.36,4.63,21.62ZM-148.77,3261.88c-.73-6.17.54-11.35,2.85-11.56,2.31-.21,4.78,4.62,5.51,10.79.73,6.17-.54,11.35-2.85,11.56-2.31.21-4.78-4.62-5.51-10.79ZM-48.2,3503.57c-26.71,6.67-61.56-69.87-77.84-170.95-16.28-101.08-7.81-188.42,18.9-195.09,26.71-6.67,61.56,69.87,77.84,170.95,16.28,101.08,7.81,188.42-18.9,195.09ZM-4.28,3473.49c.33,14.81-2.62,26-6.6,24.99-3.97-1.01-7.46-13.83-7.79-28.64-.33-14.81,2.62-26,6.6-24.99,3.97,1.01,7.46,13.83,7.79,28.64ZM6.51,3459.62c-5.03,1.65-12.03-13.18-15.65-33.12-3.61-19.93-2.47-37.43,2.56-39.07,5.03-1.65,12.03,13.18,15.65,33.12,3.61,19.93,2.47,37.43-2.56,39.07ZM29.03,3458.45c1.01,8.52-.72,15.65-3.87,15.94-3.15.29-6.52-6.38-7.54-14.89-1.01-8.52.72-15.65,3.87-15.94,3.15-.29,6.52,6.38,7.54,14.89ZM163.16,3714.89c1.97,16.56-1.4,30.44-7.52,31.01-6.13.56-12.69-12.4-14.66-28.97-1.97-16.56,1.4-30.44,7.52-31.01,6.13-.56,12.69,12.4,14.66,28.97ZM157.61,3661.59c-2.63,8.42-14.97,2.04-27.56-14.26-12.59-16.3-20.67-36.33-18.05-44.76,2.63-8.42,14.97-2.04,27.56,14.26,12.59,16.3,20.67,36.33,18.05,44.76ZM177.36,3650.93c1.01,8.52-.72,15.65-3.87,15.94-3.15.29-6.52-6.38-7.54-14.89-1.01-8.52.72-15.65,3.87-15.94,3.15-.29,6.52,6.38,7.54,14.89ZM203.79,3600.48c-36.12,46.7-115.35-36.83-176.97-186.58-61.62-149.75-82.29-309-46.17-355.7,36.12-46.7,115.35,36.83,176.97,186.58,61.62,149.75,82.29,309,46.17,355.7ZM247.09,3609.95c2.62,22-1.94,40.44-10.17,41.2-8.24.76-17.04-16.46-19.65-38.46-2.62-22,1.94-40.44,10.17-41.2,8.24-.76,17.04,16.46,19.65,38.46ZM251.66,3504.39c1.65,13.89-1.22,25.54-6.42,26.02-5.2.48-10.76-10.39-12.41-24.28-1.65-13.89,1.22-25.54,6.42-26.02,5.2-.48,10.76,10.39,12.41,24.28ZM264.02,3469.45c-2.29,8.14-12.03,5.22-21.77-6.53-9.73-11.75-15.77-27.87-13.48-36.01,2.29-8.14,12.03-5.22,21.77,6.53,9.73,11.75,15.77,27.87,13.48,36.01ZM306.22,3453.1c-32.31,14.2-78.42-69.06-102.99-185.97-24.57-116.91-18.3-223.21,14.01-237.41,32.31-14.2,78.42,69.06,102.99,185.97,24.57,116.91,18.3,223.21-14.01,237.41ZM464.18,3559.07c.74,6.22-.55,11.44-2.88,11.65-2.33.21-4.82-4.65-5.56-10.88-.74-6.22.55-11.44,2.88-11.65,2.33-.21,4.82,4.65,5.56,10.88ZM450.11,3528.96c-6.52,20.89-33.28,10.03-59.79-24.26-26.5-34.29-42.7-79.03-36.19-99.93,6.52-20.89,33.28-10.03,59.79,24.26,26.5,34.29,42.7,79.03,36.19,99.93Z"/>
      <path class="uuid-28e68330-b92d-42a3-9132-b4476bdbc0b5" d="M1006.11,2455.1c-69.46-71.83-114.71-179.99-101.06-241.57,8.43-38.04,37.38-49.38,74.65-35.58l-3.51-8.72c-6.28-3.11-13.19-8.82-20.03-17.07-18.86-22.76-30-55.94-24.89-74.13,1.05-3.75,2.74-6.52,4.89-8.43l-34.68-86.3c-.15.16-.28.34-.43.49-15.77,15.56-46.41-23.95-68.45-88.26-17.57-51.26-24.35-102.76-18.4-129.45l-20.28-50.47c7.32,54.59,4.35,98.68-10.74,120.49-32.01,46.25-106.36-25.19-166.08-159.57-59.72-134.38-82.18-280.81-50.18-327.06,19.78-28.58,55.74-12.18,94.41,36.21l-28.86-71.82c-13.2,15.18-28.83,16.56-41.23.52-18.96-24.53-23.13-80.29-9.33-124.53.1-.34.23-.63.33-.97l-102.77-255.74c-20.71,15.84-52.28,4.67-81.31-32.89-39.53-51.16-59.35-131.83-44.27-180.18,5.54-17.76,15.02-28.66,26.75-32.85l-16.73-41.63c.28,20.48-6.01,36.34-15.68,37.23-11.3,1.04-22.91-18.73-25.94-44.15-3.03-25.42,3.68-46.88,14.98-47.92,1.65-.15,3.31.19,4.95.88l-130.27-324.17c-.17,3.58-.78,6.72-1.91,9.16-5.21,11.17-19.02,3.86-30.85-16.34-11.83-20.2-17.21-45.63-12-56.8,3.6-7.73,11.32-6.6,19.66,1.51l-11.08-27.56c-12.39,5.35-32.92-12.23-50.68-45.43-21.62-40.43-30.93-88.68-20.79-107.78,1.88-3.53,4.29-5.81,7.11-6.94l-30.93-76.98-28.14,18.66c12,26.99,23.3,60.52,32.44,98.18,25.92,106.74,24.71,205.92-2.7,221.53-27.41,15.61-70.63-58.26-96.55-165C-22.91,78.89-28.46,44.92-31.17,14.37l-5.63,3.73c1.78,8.43,3.21,17.59,4.16,27.22,4.05,41.05-2.09,74.49-13.7,74.69-11.62.2-24.31-32.92-28.36-73.97-.09-.9-.14-1.77-.22-2.65l-65.67,43.56,33.28,198.35c13.02-20.43,38.94-7.52,59.08,30.13,20.84,38.97,27.59,89.67,15.07,113.25-11,20.72-33.22,13.58-52.59-14.91l5.39,32.13c.6-.52,1.26-.89,1.96-1.06,5.46-1.36,11.71,8.84,13.96,22.8,2.25,13.96-.36,26.37-5.82,27.74-.59.15-1.19.13-1.79.02l6.31,37.61c4.91-46.4,16.78-77.2,34.62-81.65,36.55-9.12,84.23,95.6,106.5,233.89,22.27,138.3,10.69,257.8-25.86,266.92-16.68,4.16-35.67-15.43-53.51-51.05l74.6,444.67c9.63-23.29,22.87-36.74,38.45-35.91,37.89,2,75.24,87.44,83.43,190.82,8.19,103.38-15.88,185.57-53.77,183.57-3.98-.21-7.96-1.39-11.89-3.37l18.51,110.33c1.61-32.44,7.47-53.63,17.3-56.08,20.19-5.04,49.43,70.77,65.3,169.32,15.87,98.55,12.36,182.53-7.83,187.57-9,2.25-19.79-11.6-30.4-36.33l10.05,59.9c1.12-1.71,2.4-3,3.86-3.68,9.6-4.44,22.73,16.74,29.33,47.31,6.6,30.57,4.17,58.94-5.43,63.38-3.2,1.48-6.79.06-10.41-3.56l73.34,437.18c5.02-35.81,16.14-58.52,30.29-56.41,21.76,3.24,42.43,63.93,46.17,135.54,3.74,71.62-10.87,127.04-32.63,123.8-3.67-.55-7.32-2.77-10.85-6.37l50.88,303.32,44.69-29.68c-6.48-29.21-12.34-59.75-17.43-91.33-38.25-237.55-18.37-442.82,44.42-458.49,62.78-15.67,144.69,164.2,182.94,401.75.42,2.61.82,5.21,1.23,7.82l30.87-20.5c3.91-112.45,29.95-191.2,63.47-182.7,21.43,5.44,41.37,45.43,55.31,103.81l18.72-12.43c-30.94-102.01-33.49-209.57-1.58-269.67,42.64-80.31,130.66-45.46,196.59,77.83,8.17,15.27,15.61,31.19,22.3,47.5l10.75-7.14c-12.96-23.62-19.22-50.84-13.98-61.82,5.43-11.38,21.13-1,35.07,23.18,3.48,6.03,6.52,12.36,9.03,18.63l28.88-19.18c-.51-1.42-1.01-2.84-1.51-4.28-19.71-57.5-22.91-116.73-7.14-132.3,15.77-15.56,44.52,18.44,64.23,75.94,2.25,6.56,4.27,13.14,6.09,19.68l15.18-10.08-47.42-117.99c-28.83,2.45-68.5-17.79-108.9-59.57ZM400.03,3065.26c2.26,19-1.67,34.94-8.79,35.6-7.12.65-14.72-14.22-16.98-33.22-2.26-19,1.67-34.94,8.79-35.6,7.12-.65,14.72,14.22,16.98,33.22ZM380.27,2957.97c.8,36.12-4.84,63.8-12.6,61.83-7.76-1.97-14.7-32.85-15.5-68.97-.8-36.12,4.84-63.8,12.6-61.83,7.76,1.97,14.7,32.85,15.5,68.97ZM905.88,2055.2c14.92,43.54,16.24,89.49,2.94,102.62-13.3,13.13-36.19-11.52-51.11-55.06-14.92-43.54-16.24-89.49-2.94-102.62,13.3-13.13,36.19,11.52,51.11,55.06ZM927.53,2369.26c2.26,19-1.67,34.94-8.79,35.6-7.12.65-14.72-14.22-16.98-33.22-2.26-19,1.67-34.94,8.79-35.6,7.12-.65,14.72,14.22,16.98,33.22ZM789.1,1864.39c-1.07-11.94,1.73-21.55,6.25-21.48s9.04,9.81,10.1,21.75c1.07,11.94-1.73,21.55-6.25,21.48-4.52-.08-9.04-9.81-10.1-21.75ZM806.43,1961.53c-4.87-26.85-1.97-50.86,6.48-53.63,8.45-2.77,19.25,16.76,24.11,43.62,4.87,26.85,1.97,50.86-6.48,53.63-8.45,2.77-19.25-16.76-24.11-43.62ZM769.5,1898.24c2.71-7.2,9.94-5.63,16.15,3.5,6.21,9.14,9.05,22.38,6.34,29.58-2.71,7.2-9.94,5.63-16.15-3.5-6.21-9.14-9.05-22.38-6.34-29.58ZM697.92,1832.12c6.92,4.42,10.78,26.8,8.62,49.97-2.16,23.17-9.53,38.37-16.46,33.95-6.92-4.42-10.78-26.8-8.62-49.97,2.16-23.17,9.53-38.37,16.46-33.95ZM662.32,1832.89c-1.08-9.08.77-16.69,4.12-16.99,3.36-.31,6.95,6.8,8.03,15.88,1.08,9.08-.77,16.69-4.12,17-3.36.31-6.95-6.8-8.03-15.88ZM534.5,1413.66c-7.05,10.18-19.61,3.02-28.06-15.99-8.45-19.01-9.59-42.68-2.54-52.87,7.05-10.18,19.61-3.02,28.06,15.99,8.45,19.02,9.59,42.68,2.54,52.87ZM669.13,2155.52c-5.8.7-11.84-10.71-13.47-25.5-1.64-14.79,1.74-27.34,7.54-28.04,5.8-.7,11.84,10.71,13.47,25.5,1.64,14.79-1.74,27.34-7.54,28.04ZM683.93,2233.01c-4.69,6.53-14.82-2.01-22.61-19.08-7.79-17.07-10.31-36.21-5.61-42.74,4.69-6.53,14.82,2.01,22.61,19.08,7.79,17.07,10.31,36.21,5.61,42.74ZM644.73,2088c-28.02,12.32-68-59.88-89.31-161.27-21.31-101.38-15.87-193.55,12.15-205.87,28.02-12.32,68,59.88,89.31,161.27,21.31,101.38,15.87,193.55-12.15,205.87ZM416.94,1831.63c-34.41-77.42-47.35-161.79-28.91-188.43,18.44-26.65,61.28,14.51,95.69,91.93,34.41,77.42,47.35,161.79,28.91,188.43-18.44,26.65-61.28-14.51-95.69-91.93ZM523.24,1978.35c-2.04,5.41-7.66,3.96-12.56-3.25-4.9-7.21-7.22-17.44-5.18-22.85,2.04-5.41,7.66-3.96,12.56,3.25,4.9,7.21,7.22,17.44,5.18,22.85ZM392.47,1836.83c6.85-6.76,19.33,8,27.89,32.97,8.56,24.97,9.95,50.69,3.1,57.44-6.85,6.76-19.33-8-27.89-32.97-8.56-24.97-9.95-50.69-3.1-57.44ZM302.11,1528.67c-3.16.29-6.54-6.32-7.55-14.76-1-8.45.74-15.53,3.91-15.82,3.16-.29,6.54,6.32,7.55,14.76,1,8.44-.74,15.53-3.91,15.82ZM337.17,1599.14c-3.44-28.94,2.55-53.21,13.39-54.2,10.84-1,22.41,21.65,25.86,50.59,3.44,28.94-2.55,53.21-13.39,54.2-10.84,1-22.41-21.65-25.86-50.59ZM332.91,1482.41c4.95,27.27,3.38,51.21-3.5,53.46-6.88,2.25-16.46-18.04-21.41-45.31-4.95-27.28-3.38-51.21,3.5-53.46,6.88-2.25,16.46,18.04,21.41,45.31ZM261.68,1227.31c-5.69.52-11.77-11.37-13.58-26.57-1.81-15.2,1.34-27.94,7.03-28.46,5.69-.52,11.77,11.37,13.58,26.57,1.81,15.2-1.34,27.94-7.03,28.46ZM311.59,1211.63c26.19-42.98,91.4,12.76,145.66,124.49,54.26,111.73,77.02,237.15,50.83,280.13-26.19,42.98-91.4-12.76-145.66-124.49-54.26-111.73-77.02-237.15-50.83-280.13ZM265.74,1159.43c-3.83-23.79.16-44.84,8.9-47.02,8.75-2.18,18.94,15.33,22.77,39.12,3.83,23.79-.16,44.84-8.9,47.02-8.75,2.18-18.94-15.33-22.77-39.12ZM213.72,718.33c-9.91-20.4-13.02-45-6.96-54.95,6.06-9.95,19.01-1.48,28.91,18.92,9.91,20.4,13.02,45,6.96,54.95-6.06,9.95-19.01,1.48-28.91-18.92ZM226.13,766.91c-1.57,1.89-4.87-1.78-7.39-8.2-2.51-6.41-3.28-13.14-1.71-15.03,1.57-1.89,4.87,1.78,7.39,8.2,2.51,6.41,3.28,13.14,1.71,15.03ZM195.97,655.16c-3.25,4.88-10.03-1.12-15.14-13.39-5.11-12.28-6.62-26.18-3.37-31.06,3.25-4.88,10.03,1.12,15.14,13.39,5.11,12.28,6.62,26.18,3.37,31.06ZM273.53,722.01c31.09-7.76,71.66,81.32,90.6,198.96,18.94,117.64,9.1,219.3-22,227.06-31.09,7.76-71.66-81.32-90.6-198.96-18.94-117.64-9.1-219.3,22-227.06ZM388.19,1145.79c-2.9,1.73-6.89-3.45-8.91-11.56-2.02-8.11-1.31-16.08,1.59-17.8,2.9-1.73,6.89,3.45,8.91,11.56,2.02,8.11,1.31,16.08-1.59,17.8ZM398.51,1206c-3.98,9.52-13.96,6.54-22.3-6.64-8.34-13.19-11.87-31.59-7.89-41.11,3.98-9.52,13.96-6.54,22.3,6.64,8.34,13.19,11.87,31.59,7.89,41.11ZM557.01,1616.86c9.86,22.19,13.27,46.8,7.62,54.97-5.65,8.17-18.23-3.2-28.09-25.39-9.86-22.19-13.27-46.8-7.62-54.97,5.65-8.17,18.23,3.2,28.09,25.39ZM474.93,1322.48c2.57-6.15,8.92-4.38,14.19,3.96,5.27,8.33,7.45,20.08,4.88,26.22-2.57,6.15-8.92,4.38-14.19-3.96-5.27-8.33-7.45-20.07-4.88-26.22ZM400.68,1593.3c1.39,11.65-.98,21.42-5.29,21.81-4.31.4-8.93-8.73-10.31-20.38-1.39-11.65.98-21.42,5.29-21.81,4.31-.4,8.93,8.73,10.31,20.38ZM528.76,1947.9c-3.93-24.4-1.69-45.54,5.01-47.22,6.7-1.67,15.31,16.76,19.24,41.16,3.93,24.4,1.69,45.54-5.01,47.22-6.7,1.67-15.31-16.76-19.24-41.16ZM493.61,1702.27c.39-36.36,12.01-61.69,25.96-56.58,13.95,5.11,24.94,38.73,24.56,75.09-.39,36.36-12.01,61.69-25.96,56.58-13.95-5.11-24.94-38.73-24.56-75.09ZM581.22,1633.92c4.46-.41,9.23,8.92,10.65,20.84,1.42,11.92-1.05,21.92-5.52,22.33-4.46.41-9.23-8.92-10.65-20.84-1.42-11.92,1.05-21.92,5.52-22.33ZM527.32,1460.13c-1.42-11.92,1.05-21.92,5.52-22.33,4.46-.41,9.23,8.92,10.65,20.84,1.42,11.92-1.05,21.92-5.52,22.33-4.46.41-9.23-8.92-10.65-20.84ZM521.52,1062.83c40.25,82.88,51.65,184.91,25.46,227.89-26.19,42.98-80.05,10.63-120.3-72.25-40.25-82.88-51.65-184.91-25.46-227.89,26.19-42.98,80.05-10.63,120.3,72.25ZM403.54,931.86c2.09-3.43,6.9.2,10.74,8.11,3.84,7.91,5.26,17.1,3.17,20.53-2.09,3.43-6.9-.2-10.74-8.11-3.84-7.91-5.26-17.1-3.17-20.53ZM382.88,903.87c5.69-.52,11.77,11.37,13.58,26.57,1.81,15.2-1.34,27.94-7.03,28.46-5.69.52-11.77-11.37-13.58-26.57-1.81-15.2,1.34-27.94,7.03-28.46ZM339.23,728.5c-2.8,11.53-11.69,13.61-19.86,4.66-8.17-8.95-12.53-25.55-9.73-37.08,2.8-11.53,11.69-13.61,19.86-4.66,8.17,8.95,12.53,25.55,9.73,37.08ZM167.71,254.74c3.52,9,4.19,18.92,1.5,22.17-2.7,3.25-7.74-1.41-11.27-10.41-3.52-9-4.19-18.92-1.5-22.17,2.7-3.25,7.74,1.41,11.27,10.41ZM66.95-46.89c4.01-6.12,13.5,3.8,21.2,22.16,7.69,18.36,10.68,38.19,6.67,44.31-4.01,6.12-13.5-3.8-21.2-22.16-7.69-18.36-10.68-38.19-6.67-44.31ZM117.17,214.73c-3.03-25.42,1.53-46.68,10.18-47.48,8.65-.8,18.11,19.17,21.14,44.59,3.03,25.42-1.53,46.68-10.18,47.48-8.65.8-18.11-19.17-21.14-44.59ZM110.56,297.05c22.89-43.11,84.61,2.67,137.86,102.25,53.25,99.58,77.86,215.25,54.98,258.36-22.89,43.11-84.61-2.67-137.86-102.25-53.25-99.58-77.87-215.25-54.98-258.36ZM65.13,315.88c1.3-10.33,8.56-13.74,16.2-7.6,7.64,6.14,12.78,19.49,11.47,29.82-1.3,10.33-8.56,13.74-16.2,7.6-7.64-6.14-12.78-19.49-11.47-29.82ZM-45.66,151.95c1.83-14.3,11.62-19.23,21.88-11.02,10.26,8.21,17.09,26.46,15.27,40.75-1.83,14.3-11.62,19.23-21.88,11.02-10.26-8.21-17.09-26.46-15.27-40.75ZM-76.87,259.98c-19.21.33-38.84-40.66-43.86-91.55-5.02-50.89,6.49-92.42,25.69-92.75,19.21-.33,38.84,40.66,43.86,91.55,5.02,50.89-6.49,92.42-25.69,92.75ZM13.69,443.96c-45.72-102.87-70.01-204.72-54.26-227.48,15.75-22.76,65.58,42.19,111.29,145.06,45.72,102.87,70.01,204.72,54.26,227.48-15.75,22.76-65.58-42.19-111.29-145.06ZM78.66,634.31c-7.15-14.72-9.4-32.47-5.02-39.65,4.37-7.18,13.72-1.07,20.86,13.65,7.15,14.72,9.4,32.47,5.02,39.65-4.37,7.18-13.72,1.07-20.86-13.65ZM95.05,678.01c.82,10.34-1.33,18.57-4.8,18.39-3.47-.18-6.94-8.71-7.76-19.05-.82-10.34,1.33-18.57,4.8-18.39,3.47.18,6.94,8.71,7.76,19.05ZM114.65,809.77c-16.99-93.68-8.84-176.8,18.2-185.65,27.04-8.85,62.73,59.92,79.72,153.6,16.99,93.68,8.84,176.8-18.2,185.65-27.04,8.85-62.73-59.92-79.72-153.6ZM187.77,1077.45c-4.09-51.69,7.94-92.78,26.88-91.78,18.94,1,37.62,43.72,41.71,95.41,4.09,51.69-7.94,92.78-26.88,91.78-18.94-1-37.62-43.72-41.71-95.41ZM267.29,1271.14c30.76,63.34,39.47,141.32,19.46,174.17-20.01,32.85-61.18,8.12-91.94-55.22-30.76-63.34-39.47-141.32-19.46-174.17,20.01-32.85,61.18-8.12,91.94,55.22ZM232.17,1507.95c-4.54,7.45-14.24,1.1-21.66-14.18-7.42-15.28-9.76-33.71-5.22-41.16,4.54-7.45,14.24-1.1,21.66,14.18s9.76,33.71,5.22,41.16ZM126.29,908.59c1.02,6.35-.16,12.01-2.65,12.63-2.49.62-5.33-4.03-6.36-10.38-1.02-6.35.16-12.01,2.65-12.63,2.49-.62,5.33,4.03,6.36,10.38ZM97.9,869.46c-2.25-13.96.36-26.37,5.82-27.74,5.46-1.36,11.71,8.84,13.96,22.8,2.25,13.96-.36,26.37-5.82,27.74-5.46,1.36-11.71-8.84-13.96-22.8ZM19.66,1004.17c-2.26-19,1.67-34.94,8.79-35.6,7.12-.65,14.72,14.22,16.98,33.23,2.26,19-1.67,34.94-8.79,35.6-7.12.65-14.72-14.22-16.98-33.22ZM31.39,1060.15c-1-8.45.74-15.53,3.91-15.82,3.16-.29,6.54,6.32,7.55,14.76,1,8.45-.74,15.53-3.91,15.82-3.16.29-6.54-6.32-7.55-14.76ZM56.78,1243.36c-5.26-5.23-6.83-24.37-3.5-42.75,3.33-18.38,10.29-29.04,15.55-23.81,5.26,5.23,6.83,24.37,3.5,42.75-3.33,18.38-10.29,29.04-15.55,23.81ZM88.99,1286.49c1,8.44-.74,15.53-3.91,15.82-3.16.29-6.54-6.32-7.55-14.76-1-8.45.74-15.53,3.91-15.82,3.16-.29,6.54,6.32,7.55,14.76ZM105.29,1239.35c1.39,11.19-3.74,20.58-11.47,20.99-7.72.41-15.11-8.33-16.5-19.52s3.74-20.58,11.47-20.99c7.72-.41,15.11,8.33,16.5,19.52ZM122.12,1222.91c-31.14-1.65-61.32-65.37-67.41-142.32-6.1-76.96,14.2-138.01,45.34-136.36,31.14,1.65,61.32,65.37,67.41,142.32,6.1,76.96-14.2,138.01-45.34,136.36ZM252.83,1519.45c36.55-9.12,84.23,95.6,106.5,233.89,22.27,138.3,10.69,257.8-25.86,266.92-36.55,9.12-84.23-95.6-106.5-233.89-22.27-138.3-10.69-257.8,25.86-266.92ZM399.2,1929.55c1.41,11.83-1.04,21.74-5.47,22.15s-9.16-8.85-10.57-20.67c-1.41-11.83,1.04-21.74,5.47-22.15s9.16,8.85,10.57,20.67ZM420.84,2374.34c4.9,7.21,7.22,17.44,5.18,22.85-2.04,5.41-7.66,3.96-12.56-3.25-4.9-7.21-7.22-17.44-5.18-22.85,2.04-5.41,7.66-3.96,12.56,3.25ZM344.81,2134.11c-6.21-9.14-9.05-22.38-6.34-29.58,2.71-7.2,9.94-5.63,16.15,3.5,6.21,9.14,9.05,22.38,6.34,29.58-2.71,7.2-9.94,5.63-16.15-3.5ZM364.3,2166.31c-1.08-9.08.77-16.69,4.12-16.99,3.36-.31,6.95,6.8,8.03,15.88s-.77,16.69-4.12,16.99c-3.36.31-6.95-6.8-8.03-15.88ZM349.01,2055.57c-1.85-20.69,1.52-37.37,7.53-37.27,6,.1,12.36,16.95,14.21,37.64,1.85,20.69-1.52,37.37-7.53,37.27-6-.1-12.36-16.95-14.21-37.64ZM184.4,1678.62c-.45-20.26,3.59-35.57,9.03-34.19,5.44,1.38,10.21,18.92,10.66,39.19s-3.59,35.57-9.03,34.19c-5.44-1.38-10.21-18.92-10.66-39.19ZM177.55,1700.01c1,8.44-.74,15.53-3.91,15.82-3.16.29-6.54-6.32-7.55-14.76-1-8.45.74-15.53,3.91-15.82,3.16-.29,6.54,6.32,7.55,14.76ZM252.92,1967.4c5.68-8.21,16-2.03,23.04,13.81,7.04,15.84,8.14,35.34,2.45,43.56-5.68,8.21-16,2.03-23.04-13.81-7.04-15.84-8.14-35.34-2.45-43.56ZM252.51,2066.54c-1.41-11.83,1.04-21.74,5.47-22.15,4.43-.41,9.16,8.85,10.57,20.67,1.41,11.83-1.04,21.74-5.47,22.15-4.43.41-9.16-8.85-10.57-20.67ZM305.52,2569.29c-2.71,7.2-9.94,5.63-16.15-3.5-6.21-9.14-9.05-22.38-6.34-29.58,2.71-7.2,9.94-5.63,16.15,3.5,6.21,9.14,9.05,22.38,6.34,29.58ZM226.05,2253.5c-1-8.44.74-15.53,3.91-15.82,3.16-.29,6.54,6.32,7.55,14.76,1,8.45-.74,15.53-3.91,15.82-3.16.29-6.54-6.32-7.55-14.76ZM363.65,2584.18c-36.55,9.12-84.23-95.6-106.5-233.89-22.27-138.3-10.69-257.8,25.86-266.92,36.55-9.12,84.23,95.6,106.5,233.89,22.27,138.3,10.69,257.8-25.86,266.92ZM423.75,2543.03c.45,20.26-3.59,35.57-9.03,34.19-5.44-1.38-10.21-18.92-10.66-39.19-.45-20.26,3.59-35.57,9.03-34.19,5.44,1.38,10.21,18.93,10.66,39.19ZM438.51,2524.05c-6.88,2.25-16.46-18.04-21.41-45.31-4.95-27.27-3.38-51.21,3.5-53.46,6.88-2.25,16.46,18.04,21.41,45.31,4.95,27.27,3.38,51.21-3.5,53.46ZM469.31,2522.45c1.39,11.65-.98,21.42-5.29,21.81-4.31.4-8.93-8.73-10.31-20.38-1.39-11.65.98-21.42,5.29-21.81,4.31-.4,8.93,8.73,10.31,20.38ZM652.84,2873.32c2.7,22.66-1.91,41.65-10.29,42.42-8.38.77-17.36-16.97-20.06-39.63-2.7-22.66,1.91-41.65,10.29-42.42,8.38-.77,17.36,16.97,20.06,39.63ZM645.25,2800.39c-3.59,11.52-20.48,2.79-37.71-19.51-17.23-22.3-28.29-49.71-24.69-61.24,3.59-11.52,20.48-2.79,37.71,19.51,17.23,22.3,28.29,49.71,24.69,61.24ZM672.27,2785.81c1.39,11.65-.98,21.42-5.29,21.81-4.31.4-8.93-8.73-10.31-20.38-1.39-11.65.98-21.42,5.29-21.81,4.31-.4,8.93,8.73,10.31,20.38ZM708.43,2716.78c-49.42,63.9-157.83-50.4-242.14-255.29-84.31-204.89-112.59-422.78-63.17-486.68,49.42-63.9,157.83,50.4,242.14,255.29,84.31,204.89,112.59,422.78,63.17,486.68ZM767.67,2729.73c3.58,30.1-2.65,55.33-13.92,56.37-11.27,1.04-23.31-22.52-26.89-52.62-3.58-30.1,2.65-55.33,13.92-56.37,11.27-1.04,23.31,22.52,26.89,52.62ZM773.93,2585.31c2.26,19-1.67,34.94-8.79,35.6-7.12.65-14.72-14.22-16.98-33.22-2.26-19,1.67-34.94,8.79-35.6,7.12-.65,14.72,14.22,16.98,33.22ZM790.84,2537.5c-3.13,11.14-16.47,7.14-29.78-8.93-13.32-16.07-21.58-38.13-18.45-49.27,3.13-11.14,16.47-7.14,29.78,8.93,13.32,16.07,21.58,38.13,18.45,49.27ZM848.58,2515.12c-44.21,19.43-107.3-94.49-140.92-254.45-33.62-159.97-25.04-305.4,19.17-324.83,44.21-19.43,107.3,94.49,140.92,254.45,33.62,159.97,25.04,305.4-19.17,324.83ZM1064.7,2660.12c1.01,8.51-.75,15.65-3.94,15.94-3.19.29-6.59-6.37-7.6-14.88-1.01-8.51.75-15.65,3.94-15.94,3.19-.29,6.59,6.37,7.6,14.88ZM1045.45,2618.92c-8.92,28.59-45.54,13.72-81.8-33.2-36.26-46.92-58.43-108.14-49.51-136.72,8.92-28.59,45.54-13.72,81.8,33.2,36.26,46.92,58.43,108.14,49.51,136.72Z"/>
    </g>
  </g>
</svg>